<?xml version="1.0" encoding="utf-8" standalone="no"?>
<!DOCTYPE svg PUBLIC "-//W3C//DTD SVG 1.1//EN"
  "http://www.w3.org/Graphics/SVG/1.1/DTD/svg11.dtd">
<!-- Created with matplotlib (https://matplotlib.org/) -->
<svg height="345.6pt" version="1.1" viewBox="0 0 460.8 345.6" width="460.8pt" xmlns="http://www.w3.org/2000/svg" xmlns:xlink="http://www.w3.org/1999/xlink">
 <metadata>
  <rdf:RDF xmlns:cc="http://creativecommons.org/ns#" xmlns:dc="http://purl.org/dc/elements/1.1/" xmlns:rdf="http://www.w3.org/1999/02/22-rdf-syntax-ns#">
   <cc:Work>
    <dc:type rdf:resource="http://purl.org/dc/dcmitype/StillImage"/>
    <dc:date>2021-07-12T19:38:55.162913</dc:date>
    <dc:format>image/svg+xml</dc:format>
    <dc:creator>
     <cc:Agent>
      <dc:title>Matplotlib v3.3.3, https://matplotlib.org/</dc:title>
     </cc:Agent>
    </dc:creator>
   </cc:Work>
  </rdf:RDF>
 </metadata>
 <defs>
  <style type="text/css">*{stroke-linecap:butt;stroke-linejoin:round;}</style>
 </defs>
 <g id="figure_1">
  <g id="patch_1">
   <path d="M 0 345.6 
L 460.8 345.6 
L 460.8 0 
L 0 0 
z
" style="fill:#ffffff;"/>
  </g>
  <g id="axes_1">
   <g id="patch_2">
    <path d="M 57.6 307.584 
L 414.72 307.584 
L 414.72 41.472 
L 57.6 41.472 
z
" style="fill:#7d9051;"/>
   </g>
   <g id="matplotlib.axis_1">
    <g id="xtick_1">
     <g id="line2d_1">
      <defs>
       <path d="M 0 0 
L 0 3.5 
" id="m3cad4b7a92" style="stroke:#000000;stroke-width:0.8;"/>
      </defs>
      <g>
       <use style="stroke:#000000;stroke-width:0.8;" x="94.428006" xlink:href="#m3cad4b7a92" y="307.584"/>
      </g>
     </g>
     <g id="text_1">
      <!-- 25 -->
      <g transform="translate(88.065506 322.182437)scale(0.1 -0.1)">
       <defs>
        <path d="M 19.1875 8.296875 
L 53.609375 8.296875 
L 53.609375 0 
L 7.328125 0 
L 7.328125 8.296875 
Q 12.9375 14.109375 22.625 23.890625 
Q 32.328125 33.6875 34.8125 36.53125 
Q 39.546875 41.84375 41.421875 45.53125 
Q 43.3125 49.21875 43.3125 52.78125 
Q 43.3125 58.59375 39.234375 62.25 
Q 35.15625 65.921875 28.609375 65.921875 
Q 23.96875 65.921875 18.8125 64.3125 
Q 13.671875 62.703125 7.8125 59.421875 
L 7.8125 69.390625 
Q 13.765625 71.78125 18.9375 73 
Q 24.125 74.21875 28.421875 74.21875 
Q 39.75 74.21875 46.484375 68.546875 
Q 53.21875 62.890625 53.21875 53.421875 
Q 53.21875 48.921875 51.53125 44.890625 
Q 49.859375 40.875 45.40625 35.40625 
Q 44.1875 33.984375 37.640625 27.21875 
Q 31.109375 20.453125 19.1875 8.296875 
z
" id="DejaVuSans-50"/>
        <path d="M 10.796875 72.90625 
L 49.515625 72.90625 
L 49.515625 64.59375 
L 19.828125 64.59375 
L 19.828125 46.734375 
Q 21.96875 47.46875 24.109375 47.828125 
Q 26.265625 48.1875 28.421875 48.1875 
Q 40.625 48.1875 47.75 41.5 
Q 54.890625 34.8125 54.890625 23.390625 
Q 54.890625 11.625 47.5625 5.09375 
Q 40.234375 -1.421875 26.90625 -1.421875 
Q 22.3125 -1.421875 17.546875 -0.640625 
Q 12.796875 0.140625 7.71875 1.703125 
L 7.71875 11.625 
Q 12.109375 9.234375 16.796875 8.0625 
Q 21.484375 6.890625 26.703125 6.890625 
Q 35.15625 6.890625 40.078125 11.328125 
Q 45.015625 15.765625 45.015625 23.390625 
Q 45.015625 31 40.078125 35.4375 
Q 35.15625 39.890625 26.703125 39.890625 
Q 22.75 39.890625 18.8125 39.015625 
Q 14.890625 38.140625 10.796875 36.28125 
z
" id="DejaVuSans-53"/>
       </defs>
       <use xlink:href="#DejaVuSans-50"/>
       <use x="63.623047" xlink:href="#DejaVuSans-53"/>
      </g>
     </g>
    </g>
    <g id="xtick_2">
     <g id="line2d_2">
      <g>
       <use style="stroke:#000000;stroke-width:0.8;" x="141.558273" xlink:href="#m3cad4b7a92" y="307.584"/>
      </g>
     </g>
     <g id="text_2">
      <!-- 50 -->
      <g transform="translate(135.195773 322.182437)scale(0.1 -0.1)">
       <defs>
        <path d="M 31.78125 66.40625 
Q 24.171875 66.40625 20.328125 58.90625 
Q 16.5 51.421875 16.5 36.375 
Q 16.5 21.390625 20.328125 13.890625 
Q 24.171875 6.390625 31.78125 6.390625 
Q 39.453125 6.390625 43.28125 13.890625 
Q 47.125 21.390625 47.125 36.375 
Q 47.125 51.421875 43.28125 58.90625 
Q 39.453125 66.40625 31.78125 66.40625 
z
M 31.78125 74.21875 
Q 44.046875 74.21875 50.515625 64.515625 
Q 56.984375 54.828125 56.984375 36.375 
Q 56.984375 17.96875 50.515625 8.265625 
Q 44.046875 -1.421875 31.78125 -1.421875 
Q 19.53125 -1.421875 13.0625 8.265625 
Q 6.59375 17.96875 6.59375 36.375 
Q 6.59375 54.828125 13.0625 64.515625 
Q 19.53125 74.21875 31.78125 74.21875 
z
" id="DejaVuSans-48"/>
       </defs>
       <use xlink:href="#DejaVuSans-53"/>
       <use x="63.623047" xlink:href="#DejaVuSans-48"/>
      </g>
     </g>
    </g>
    <g id="xtick_3">
     <g id="line2d_3">
      <g>
       <use style="stroke:#000000;stroke-width:0.8;" x="188.688539" xlink:href="#m3cad4b7a92" y="307.584"/>
      </g>
     </g>
     <g id="text_3">
      <!-- 75 -->
      <g transform="translate(182.326039 322.182437)scale(0.1 -0.1)">
       <defs>
        <path d="M 8.203125 72.90625 
L 55.078125 72.90625 
L 55.078125 68.703125 
L 28.609375 0 
L 18.3125 0 
L 43.21875 64.59375 
L 8.203125 64.59375 
z
" id="DejaVuSans-55"/>
       </defs>
       <use xlink:href="#DejaVuSans-55"/>
       <use x="63.623047" xlink:href="#DejaVuSans-53"/>
      </g>
     </g>
    </g>
    <g id="xtick_4">
     <g id="line2d_4">
      <g>
       <use style="stroke:#000000;stroke-width:0.8;" x="235.818806" xlink:href="#m3cad4b7a92" y="307.584"/>
      </g>
     </g>
     <g id="text_4">
      <!-- 100 -->
      <g transform="translate(226.275056 322.182437)scale(0.1 -0.1)">
       <defs>
        <path d="M 12.40625 8.296875 
L 28.515625 8.296875 
L 28.515625 63.921875 
L 10.984375 60.40625 
L 10.984375 69.390625 
L 28.421875 72.90625 
L 38.28125 72.90625 
L 38.28125 8.296875 
L 54.390625 8.296875 
L 54.390625 0 
L 12.40625 0 
z
" id="DejaVuSans-49"/>
       </defs>
       <use xlink:href="#DejaVuSans-49"/>
       <use x="63.623047" xlink:href="#DejaVuSans-48"/>
       <use x="127.246094" xlink:href="#DejaVuSans-48"/>
      </g>
     </g>
    </g>
    <g id="xtick_5">
     <g id="line2d_5">
      <g>
       <use style="stroke:#000000;stroke-width:0.8;" x="282.949073" xlink:href="#m3cad4b7a92" y="307.584"/>
      </g>
     </g>
     <g id="text_5">
      <!-- 125 -->
      <g transform="translate(273.405323 322.182437)scale(0.1 -0.1)">
       <use xlink:href="#DejaVuSans-49"/>
       <use x="63.623047" xlink:href="#DejaVuSans-50"/>
       <use x="127.246094" xlink:href="#DejaVuSans-53"/>
      </g>
     </g>
    </g>
    <g id="xtick_6">
     <g id="line2d_6">
      <g>
       <use style="stroke:#000000;stroke-width:0.8;" x="330.079339" xlink:href="#m3cad4b7a92" y="307.584"/>
      </g>
     </g>
     <g id="text_6">
      <!-- 150 -->
      <g transform="translate(320.535589 322.182437)scale(0.1 -0.1)">
       <use xlink:href="#DejaVuSans-49"/>
       <use x="63.623047" xlink:href="#DejaVuSans-53"/>
       <use x="127.246094" xlink:href="#DejaVuSans-48"/>
      </g>
     </g>
    </g>
    <g id="xtick_7">
     <g id="line2d_7">
      <g>
       <use style="stroke:#000000;stroke-width:0.8;" x="377.209606" xlink:href="#m3cad4b7a92" y="307.584"/>
      </g>
     </g>
     <g id="text_7">
      <!-- 175 -->
      <g transform="translate(367.665856 322.182437)scale(0.1 -0.1)">
       <use xlink:href="#DejaVuSans-49"/>
       <use x="63.623047" xlink:href="#DejaVuSans-55"/>
       <use x="127.246094" xlink:href="#DejaVuSans-53"/>
      </g>
     </g>
    </g>
   </g>
   <g id="matplotlib.axis_2">
    <g id="ytick_1">
     <g id="line2d_8">
      <defs>
       <path d="M 0 0 
L -3.5 0 
" id="m4be441bf55" style="stroke:#000000;stroke-width:0.8;"/>
      </defs>
      <g>
       <use style="stroke:#000000;stroke-width:0.8;" x="57.6" xlink:href="#m4be441bf55" y="282.614459"/>
      </g>
     </g>
     <g id="text_8">
      <!-- 80 -->
      <g transform="translate(37.875 286.413678)scale(0.1 -0.1)">
       <defs>
        <path d="M 31.78125 34.625 
Q 24.75 34.625 20.71875 30.859375 
Q 16.703125 27.09375 16.703125 20.515625 
Q 16.703125 13.921875 20.71875 10.15625 
Q 24.75 6.390625 31.78125 6.390625 
Q 38.8125 6.390625 42.859375 10.171875 
Q 46.921875 13.96875 46.921875 20.515625 
Q 46.921875 27.09375 42.890625 30.859375 
Q 38.875 34.625 31.78125 34.625 
z
M 21.921875 38.8125 
Q 15.578125 40.375 12.03125 44.71875 
Q 8.5 49.078125 8.5 55.328125 
Q 8.5 64.0625 14.71875 69.140625 
Q 20.953125 74.21875 31.78125 74.21875 
Q 42.671875 74.21875 48.875 69.140625 
Q 55.078125 64.0625 55.078125 55.328125 
Q 55.078125 49.078125 51.53125 44.71875 
Q 48 40.375 41.703125 38.8125 
Q 48.828125 37.15625 52.796875 32.3125 
Q 56.78125 27.484375 56.78125 20.515625 
Q 56.78125 9.90625 50.3125 4.234375 
Q 43.84375 -1.421875 31.78125 -1.421875 
Q 19.734375 -1.421875 13.25 4.234375 
Q 6.78125 9.90625 6.78125 20.515625 
Q 6.78125 27.484375 10.78125 32.3125 
Q 14.796875 37.15625 21.921875 38.8125 
z
M 18.3125 54.390625 
Q 18.3125 48.734375 21.84375 45.5625 
Q 25.390625 42.390625 31.78125 42.390625 
Q 38.140625 42.390625 41.71875 45.5625 
Q 45.3125 48.734375 45.3125 54.390625 
Q 45.3125 60.0625 41.71875 63.234375 
Q 38.140625 66.40625 31.78125 66.40625 
Q 25.390625 66.40625 21.84375 63.234375 
Q 18.3125 60.0625 18.3125 54.390625 
z
" id="DejaVuSans-56"/>
       </defs>
       <use xlink:href="#DejaVuSans-56"/>
       <use x="63.623047" xlink:href="#DejaVuSans-48"/>
      </g>
     </g>
    </g>
    <g id="ytick_2">
     <g id="line2d_9">
      <g>
       <use style="stroke:#000000;stroke-width:0.8;" x="57.6" xlink:href="#m4be441bf55" y="244.910246"/>
      </g>
     </g>
     <g id="text_9">
      <!-- 100 -->
      <g transform="translate(31.5125 248.709465)scale(0.1 -0.1)">
       <use xlink:href="#DejaVuSans-49"/>
       <use x="63.623047" xlink:href="#DejaVuSans-48"/>
       <use x="127.246094" xlink:href="#DejaVuSans-48"/>
      </g>
     </g>
    </g>
    <g id="ytick_3">
     <g id="line2d_10">
      <g>
       <use style="stroke:#000000;stroke-width:0.8;" x="57.6" xlink:href="#m4be441bf55" y="207.206032"/>
      </g>
     </g>
     <g id="text_10">
      <!-- 120 -->
      <g transform="translate(31.5125 211.005251)scale(0.1 -0.1)">
       <use xlink:href="#DejaVuSans-49"/>
       <use x="63.623047" xlink:href="#DejaVuSans-50"/>
       <use x="127.246094" xlink:href="#DejaVuSans-48"/>
      </g>
     </g>
    </g>
    <g id="ytick_4">
     <g id="line2d_11">
      <g>
       <use style="stroke:#000000;stroke-width:0.8;" x="57.6" xlink:href="#m4be441bf55" y="169.501819"/>
      </g>
     </g>
     <g id="text_11">
      <!-- 140 -->
      <g transform="translate(31.5125 173.301038)scale(0.1 -0.1)">
       <defs>
        <path d="M 37.796875 64.3125 
L 12.890625 25.390625 
L 37.796875 25.390625 
z
M 35.203125 72.90625 
L 47.609375 72.90625 
L 47.609375 25.390625 
L 58.015625 25.390625 
L 58.015625 17.1875 
L 47.609375 17.1875 
L 47.609375 0 
L 37.796875 0 
L 37.796875 17.1875 
L 4.890625 17.1875 
L 4.890625 26.703125 
z
" id="DejaVuSans-52"/>
       </defs>
       <use xlink:href="#DejaVuSans-49"/>
       <use x="63.623047" xlink:href="#DejaVuSans-52"/>
       <use x="127.246094" xlink:href="#DejaVuSans-48"/>
      </g>
     </g>
    </g>
    <g id="ytick_5">
     <g id="line2d_12">
      <g>
       <use style="stroke:#000000;stroke-width:0.8;" x="57.6" xlink:href="#m4be441bf55" y="131.797606"/>
      </g>
     </g>
     <g id="text_12">
      <!-- 160 -->
      <g transform="translate(31.5125 135.596824)scale(0.1 -0.1)">
       <defs>
        <path d="M 33.015625 40.375 
Q 26.375 40.375 22.484375 35.828125 
Q 18.609375 31.296875 18.609375 23.390625 
Q 18.609375 15.53125 22.484375 10.953125 
Q 26.375 6.390625 33.015625 6.390625 
Q 39.65625 6.390625 43.53125 10.953125 
Q 47.40625 15.53125 47.40625 23.390625 
Q 47.40625 31.296875 43.53125 35.828125 
Q 39.65625 40.375 33.015625 40.375 
z
M 52.59375 71.296875 
L 52.59375 62.3125 
Q 48.875 64.0625 45.09375 64.984375 
Q 41.3125 65.921875 37.59375 65.921875 
Q 27.828125 65.921875 22.671875 59.328125 
Q 17.53125 52.734375 16.796875 39.40625 
Q 19.671875 43.65625 24.015625 45.921875 
Q 28.375 48.1875 33.59375 48.1875 
Q 44.578125 48.1875 50.953125 41.515625 
Q 57.328125 34.859375 57.328125 23.390625 
Q 57.328125 12.15625 50.6875 5.359375 
Q 44.046875 -1.421875 33.015625 -1.421875 
Q 20.359375 -1.421875 13.671875 8.265625 
Q 6.984375 17.96875 6.984375 36.375 
Q 6.984375 53.65625 15.1875 63.9375 
Q 23.390625 74.21875 37.203125 74.21875 
Q 40.921875 74.21875 44.703125 73.484375 
Q 48.484375 72.75 52.59375 71.296875 
z
" id="DejaVuSans-54"/>
       </defs>
       <use xlink:href="#DejaVuSans-49"/>
       <use x="63.623047" xlink:href="#DejaVuSans-54"/>
       <use x="127.246094" xlink:href="#DejaVuSans-48"/>
      </g>
     </g>
    </g>
    <g id="ytick_6">
     <g id="line2d_13">
      <g>
       <use style="stroke:#000000;stroke-width:0.8;" x="57.6" xlink:href="#m4be441bf55" y="94.093392"/>
      </g>
     </g>
     <g id="text_13">
      <!-- 180 -->
      <g transform="translate(31.5125 97.892611)scale(0.1 -0.1)">
       <use xlink:href="#DejaVuSans-49"/>
       <use x="63.623047" xlink:href="#DejaVuSans-56"/>
       <use x="127.246094" xlink:href="#DejaVuSans-48"/>
      </g>
     </g>
    </g>
    <g id="ytick_7">
     <g id="line2d_14">
      <g>
       <use style="stroke:#000000;stroke-width:0.8;" x="57.6" xlink:href="#m4be441bf55" y="56.389179"/>
      </g>
     </g>
     <g id="text_14">
      <!-- 200 -->
      <g transform="translate(31.5125 60.188398)scale(0.1 -0.1)">
       <use xlink:href="#DejaVuSans-50"/>
       <use x="63.623047" xlink:href="#DejaVuSans-48"/>
       <use x="127.246094" xlink:href="#DejaVuSans-48"/>
      </g>
     </g>
    </g>
   </g>
   <g id="line2d_15">
    <path clip-path="url(#p7503184b18)" d="M 81.231531 65.815232 
L 84.255409 80.727249 
L 87.39617 95.094439 
L 90.655699 108.916804 
L 94.030226 122.192457 
L 97.523522 134.923285 
L 101.135585 147.107402 
L 104.108563 156.463702 
L 107.155063 165.469353 
L 110.278857 174.126241 
L 113.47806 182.434364 
L 116.750785 190.391838 
L 120.09892 198.002434 
L 123.522462 205.26238 
L 127.021413 212.173563 
L 130.595773 218.734096 
L 134.24554 224.94775 
L 137.968831 230.810755 
L 141.769416 236.324996 
L 145.643524 241.490474 
L 149.59304 246.307187 
L 153.617965 250.773251 
L 157.716413 254.890551 
L 160.842093 257.750416 
L 164.007361 260.412333 
L 167.21599 262.880074 
L 170.467978 265.149867 
L 173.759556 267.223599 
L 177.096379 269.099384 
L 180.472791 270.780992 
L 183.892563 272.264653 
L 187.355695 273.552251 
L 190.860302 274.643788 
L 194.406383 275.539263 
L 197.995824 276.238677 
L 201.62674 276.740143 
L 205.29913 277.045547 
L 209.014881 277.156774 
L 212.773991 277.068169 
L 216.574575 276.785388 
L 220.416635 276.306544 
L 224.300169 275.629754 
L 228.227063 274.756901 
L 232.197316 273.687987 
L 236.209045 272.42301 
L 240.262248 270.961972 
L 245.733129 268.70726 
L 251.279419 266.103784 
L 256.899232 263.151544 
L 262.596338 259.848655 
L 268.366968 256.197002 
L 274.213006 252.196585 
L 280.134453 247.847404 
L 286.131308 243.149459 
L 292.203572 238.100865 
L 298.349359 232.705392 
L 304.570554 226.95927 
L 310.869043 220.864384 
L 317.241055 214.418848 
L 323.688475 207.626434 
L 330.209419 200.483371 
L 338.468527 191.062973 
L 346.844518 181.09775 
L 355.337392 170.5877 
L 363.949034 159.532825 
L 372.675674 147.931239 
L 381.521083 135.782941 
L 390.48526 123.089818 
L 392.291291 120.486342 
L 392.291291 120.486342 
" style="fill:none;stroke:#fea952;stroke-linecap:square;"/>
   </g>
   <g id="line2d_16">
    <path clip-path="url(#p7503184b18)" d="M 88.630335 64.358521 
L 91.63247 79.16415 
L 94.746965 93.412143 
L 97.977367 107.111951 
L 101.31698 120.251444 
L 104.771306 132.841475 
L 108.338244 144.874463 
L 111.268912 154.098599 
L 114.266343 162.960567 
L 118.118751 173.549699 
L 121.271451 181.608294 
L 124.49153 189.311512 
L 127.781813 196.659482 
L 131.134817 203.645992 
L 134.547868 210.268825 
L 138.018278 216.526783 
L 141.550602 222.428631 
L 145.13992 227.971859 
L 148.789751 233.159058 
L 152.481948 237.978824 
L 156.226218 242.443078 
L 160.016675 246.551404 
L 163.843799 250.30185 
L 167.717924 253.706566 
L 171.623267 256.761233 
L 175.568947 259.475869 
L 179.559566 261.859859 
L 183.59665 263.917624 
L 186.643479 265.243487 
L 189.733359 266.396064 
L 192.842456 267.368118 
L 195.981628 268.164786 
L 199.161734 268.788511 
L 202.392005 269.238231 
L 205.655626 269.513136 
L 208.969318 269.616069 
L 212.346351 269.539462 
L 215.766143 269.288005 
L 219.240546 268.857979 
L 222.774116 268.24494 
L 227.586291 267.141662 
L 231.258405 266.097812 
L 236.255787 264.411479 
L 241.359716 262.38419 
L 246.568975 260.014229 
L 251.873165 257.304212 
L 257.288238 254.238703 
L 262.795167 250.828886 
L 268.405703 247.062041 
L 274.111529 242.942801 
L 279.910706 238.470461 
L 285.797303 233.648062 
L 291.776374 228.468222 
L 297.842407 222.935634 
L 304.000219 217.04283 
L 310.237551 210.802302 
L 316.562893 204.204755 
L 322.969148 197.254872 
L 331.093671 188.070702 
L 339.348079 178.329845 
L 347.729872 168.036265 
L 356.237058 157.192946 
L 364.867641 145.796 
L 373.620049 133.85523 
L 382.498944 121.35726 
L 386.09531 116.188188 
L 386.09531 116.188188 
" style="fill:none;stroke:#ffffff;stroke-linecap:square;"/>
   </g>
   <g id="line2d_17">
    <path clip-path="url(#p7503184b18)" d="M 73.832727 67.271944 
L 76.878348 82.290347 
L 80.045375 96.776735 
L 83.334032 110.721656 
L 86.743473 124.13347 
L 90.275738 137.005095 
L 93.932927 149.34034 
L 96.948214 158.828805 
L 100.043783 167.97814 
L 103.221001 176.781609 
L 106.479268 185.241715 
L 109.819308 193.361507 
L 113.248667 201.154948 
L 116.761861 208.602827 
L 120.361296 215.710107 
L 124.046572 222.472046 
L 127.826093 228.90439 
L 131.697049 234.997526 
L 135.668611 240.757206 
L 139.734082 246.174788 
L 143.90469 251.257639 
L 147.097322 254.841329 
L 150.345258 258.227045 
L 153.662759 261.42856 
L 157.03832 264.430101 
L 160.475791 267.234744 
L 163.973548 269.837003 
L 167.550084 272.249085 
L 171.165254 274.439361 
L 174.861909 276.43566 
L 178.610998 278.217377 
L 182.409966 279.781607 
L 186.277562 281.138778 
L 190.194033 282.276523 
L 194.152592 283.194819 
L 198.164995 283.896608 
L 202.221197 284.379441 
L 206.304496 284.641339 
L 210.444271 284.687894 
L 214.594725 284.516587 
L 218.787546 284.130209 
L 223.003651 283.531314 
L 227.236086 282.722437 
L 231.507129 281.704775 
L 235.801915 280.478832 
L 240.108264 279.052826 
L 244.452244 277.420463 
L 248.816675 275.588833 
L 253.203521 273.558232 
L 257.623451 271.327917 
L 263.553454 268.048024 
L 269.53103 264.421875 
L 275.57258 260.442923 
L 281.657633 256.122927 
L 287.799688 251.458375 
L 293.995168 246.452735 
L 300.260116 241.097461 
L 306.581961 235.401333 
L 312.971932 229.35704 
L 319.424452 222.97104 
L 325.939475 216.242711 
L 332.516496 209.171879 
L 339.168897 201.752521 
L 347.581345 191.991526 
L 356.093715 181.69925 
L 364.719217 170.862715 
L 373.451569 159.490536 
L 382.298342 147.574145 
L 391.253803 135.121267 
L 398.487273 124.784495 
L 398.487273 124.784495 
" style="fill:none;stroke:#ffffff;stroke-linecap:square;"/>
   </g>
   <g id="patch_3">
    <path d="M 57.6 307.584 
L 57.6 41.472 
" style="fill:none;stroke:#000000;stroke-linecap:square;stroke-linejoin:miter;stroke-width:0.8;"/>
   </g>
   <g id="patch_4">
    <path d="M 414.72 307.584 
L 414.72 41.472 
" style="fill:none;stroke:#000000;stroke-linecap:square;stroke-linejoin:miter;stroke-width:0.8;"/>
   </g>
   <g id="patch_5">
    <path d="M 57.6 307.584 
L 414.72 307.584 
" style="fill:none;stroke:#000000;stroke-linecap:square;stroke-linejoin:miter;stroke-width:0.8;"/>
   </g>
   <g id="patch_6">
    <path d="M 57.6 41.472 
L 414.72 41.472 
" style="fill:none;stroke:#000000;stroke-linecap:square;stroke-linejoin:miter;stroke-width:0.8;"/>
   </g>
  </g>
 </g>
 <defs>
  <clipPath id="p7503184b18">
   <rect height="266.112" width="357.12" x="57.6" y="41.472"/>
  </clipPath>
 </defs>
</svg>
