<?xml version="1.0" encoding="utf-8" standalone="no"?>
<!DOCTYPE svg PUBLIC "-//W3C//DTD SVG 1.1//EN"
  "http://www.w3.org/Graphics/SVG/1.1/DTD/svg11.dtd">
<!-- Created with matplotlib (https://matplotlib.org/) -->
<svg height="345.6pt" version="1.1" viewBox="0 0 460.8 345.6" width="460.8pt" xmlns="http://www.w3.org/2000/svg" xmlns:xlink="http://www.w3.org/1999/xlink">
 <metadata>
  <rdf:RDF xmlns:cc="http://creativecommons.org/ns#" xmlns:dc="http://purl.org/dc/elements/1.1/" xmlns:rdf="http://www.w3.org/1999/02/22-rdf-syntax-ns#">
   <cc:Work>
    <dc:type rdf:resource="http://purl.org/dc/dcmitype/StillImage"/>
    <dc:date>2021-07-12T19:05:15.112090</dc:date>
    <dc:format>image/svg+xml</dc:format>
    <dc:creator>
     <cc:Agent>
      <dc:title>Matplotlib v3.3.3, https://matplotlib.org/</dc:title>
     </cc:Agent>
    </dc:creator>
   </cc:Work>
  </rdf:RDF>
 </metadata>
 <defs>
  <style type="text/css">*{stroke-linecap:butt;stroke-linejoin:round;}</style>
 </defs>
 <g id="figure_1">
  <g id="patch_1">
   <path d="M 0 345.6 
L 460.8 345.6 
L 460.8 0 
L 0 0 
z
" style="fill:#ffffff;"/>
  </g>
  <g id="axes_1">
   <g id="patch_2">
    <path d="M 57.6 307.584 
L 414.72 307.584 
L 414.72 41.472 
L 57.6 41.472 
z
" style="fill:#7d9051;"/>
   </g>
   <g id="matplotlib.axis_1">
    <g id="xtick_1">
     <g id="line2d_1">
      <defs>
       <path d="M 0 0 
L 0 3.5 
" id="m33ec494b41" style="stroke:#000000;stroke-width:0.8;"/>
      </defs>
      <g>
       <use style="stroke:#000000;stroke-width:0.8;" x="101.56646" xlink:href="#m33ec494b41" y="307.584"/>
      </g>
     </g>
     <g id="text_1">
      <!-- 40 -->
      <g transform="translate(95.20396 322.182437)scale(0.1 -0.1)">
       <defs>
        <path d="M 37.796875 64.3125 
L 12.890625 25.390625 
L 37.796875 25.390625 
z
M 35.203125 72.90625 
L 47.609375 72.90625 
L 47.609375 25.390625 
L 58.015625 25.390625 
L 58.015625 17.1875 
L 47.609375 17.1875 
L 47.609375 0 
L 37.796875 0 
L 37.796875 17.1875 
L 4.890625 17.1875 
L 4.890625 26.703125 
z
" id="DejaVuSans-52"/>
        <path d="M 31.78125 66.40625 
Q 24.171875 66.40625 20.328125 58.90625 
Q 16.5 51.421875 16.5 36.375 
Q 16.5 21.390625 20.328125 13.890625 
Q 24.171875 6.390625 31.78125 6.390625 
Q 39.453125 6.390625 43.28125 13.890625 
Q 47.125 21.390625 47.125 36.375 
Q 47.125 51.421875 43.28125 58.90625 
Q 39.453125 66.40625 31.78125 66.40625 
z
M 31.78125 74.21875 
Q 44.046875 74.21875 50.515625 64.515625 
Q 56.984375 54.828125 56.984375 36.375 
Q 56.984375 17.96875 50.515625 8.265625 
Q 44.046875 -1.421875 31.78125 -1.421875 
Q 19.53125 -1.421875 13.0625 8.265625 
Q 6.59375 17.96875 6.59375 36.375 
Q 6.59375 54.828125 13.0625 64.515625 
Q 19.53125 74.21875 31.78125 74.21875 
z
" id="DejaVuSans-48"/>
       </defs>
       <use xlink:href="#DejaVuSans-52"/>
       <use x="63.623047" xlink:href="#DejaVuSans-48"/>
      </g>
     </g>
    </g>
    <g id="xtick_2">
     <g id="line2d_2">
      <g>
       <use style="stroke:#000000;stroke-width:0.8;" x="154.973885" xlink:href="#m33ec494b41" y="307.584"/>
      </g>
     </g>
     <g id="text_2">
      <!-- 60 -->
      <g transform="translate(148.611385 322.182437)scale(0.1 -0.1)">
       <defs>
        <path d="M 33.015625 40.375 
Q 26.375 40.375 22.484375 35.828125 
Q 18.609375 31.296875 18.609375 23.390625 
Q 18.609375 15.53125 22.484375 10.953125 
Q 26.375 6.390625 33.015625 6.390625 
Q 39.65625 6.390625 43.53125 10.953125 
Q 47.40625 15.53125 47.40625 23.390625 
Q 47.40625 31.296875 43.53125 35.828125 
Q 39.65625 40.375 33.015625 40.375 
z
M 52.59375 71.296875 
L 52.59375 62.3125 
Q 48.875 64.0625 45.09375 64.984375 
Q 41.3125 65.921875 37.59375 65.921875 
Q 27.828125 65.921875 22.671875 59.328125 
Q 17.53125 52.734375 16.796875 39.40625 
Q 19.671875 43.65625 24.015625 45.921875 
Q 28.375 48.1875 33.59375 48.1875 
Q 44.578125 48.1875 50.953125 41.515625 
Q 57.328125 34.859375 57.328125 23.390625 
Q 57.328125 12.15625 50.6875 5.359375 
Q 44.046875 -1.421875 33.015625 -1.421875 
Q 20.359375 -1.421875 13.671875 8.265625 
Q 6.984375 17.96875 6.984375 36.375 
Q 6.984375 53.65625 15.1875 63.9375 
Q 23.390625 74.21875 37.203125 74.21875 
Q 40.921875 74.21875 44.703125 73.484375 
Q 48.484375 72.75 52.59375 71.296875 
z
" id="DejaVuSans-54"/>
       </defs>
       <use xlink:href="#DejaVuSans-54"/>
       <use x="63.623047" xlink:href="#DejaVuSans-48"/>
      </g>
     </g>
    </g>
    <g id="xtick_3">
     <g id="line2d_3">
      <g>
       <use style="stroke:#000000;stroke-width:0.8;" x="208.38131" xlink:href="#m33ec494b41" y="307.584"/>
      </g>
     </g>
     <g id="text_3">
      <!-- 80 -->
      <g transform="translate(202.01881 322.182437)scale(0.1 -0.1)">
       <defs>
        <path d="M 31.78125 34.625 
Q 24.75 34.625 20.71875 30.859375 
Q 16.703125 27.09375 16.703125 20.515625 
Q 16.703125 13.921875 20.71875 10.15625 
Q 24.75 6.390625 31.78125 6.390625 
Q 38.8125 6.390625 42.859375 10.171875 
Q 46.921875 13.96875 46.921875 20.515625 
Q 46.921875 27.09375 42.890625 30.859375 
Q 38.875 34.625 31.78125 34.625 
z
M 21.921875 38.8125 
Q 15.578125 40.375 12.03125 44.71875 
Q 8.5 49.078125 8.5 55.328125 
Q 8.5 64.0625 14.71875 69.140625 
Q 20.953125 74.21875 31.78125 74.21875 
Q 42.671875 74.21875 48.875 69.140625 
Q 55.078125 64.0625 55.078125 55.328125 
Q 55.078125 49.078125 51.53125 44.71875 
Q 48 40.375 41.703125 38.8125 
Q 48.828125 37.15625 52.796875 32.3125 
Q 56.78125 27.484375 56.78125 20.515625 
Q 56.78125 9.90625 50.3125 4.234375 
Q 43.84375 -1.421875 31.78125 -1.421875 
Q 19.734375 -1.421875 13.25 4.234375 
Q 6.78125 9.90625 6.78125 20.515625 
Q 6.78125 27.484375 10.78125 32.3125 
Q 14.796875 37.15625 21.921875 38.8125 
z
M 18.3125 54.390625 
Q 18.3125 48.734375 21.84375 45.5625 
Q 25.390625 42.390625 31.78125 42.390625 
Q 38.140625 42.390625 41.71875 45.5625 
Q 45.3125 48.734375 45.3125 54.390625 
Q 45.3125 60.0625 41.71875 63.234375 
Q 38.140625 66.40625 31.78125 66.40625 
Q 25.390625 66.40625 21.84375 63.234375 
Q 18.3125 60.0625 18.3125 54.390625 
z
" id="DejaVuSans-56"/>
       </defs>
       <use xlink:href="#DejaVuSans-56"/>
       <use x="63.623047" xlink:href="#DejaVuSans-48"/>
      </g>
     </g>
    </g>
    <g id="xtick_4">
     <g id="line2d_4">
      <g>
       <use style="stroke:#000000;stroke-width:0.8;" x="261.788735" xlink:href="#m33ec494b41" y="307.584"/>
      </g>
     </g>
     <g id="text_4">
      <!-- 100 -->
      <g transform="translate(252.244985 322.182437)scale(0.1 -0.1)">
       <defs>
        <path d="M 12.40625 8.296875 
L 28.515625 8.296875 
L 28.515625 63.921875 
L 10.984375 60.40625 
L 10.984375 69.390625 
L 28.421875 72.90625 
L 38.28125 72.90625 
L 38.28125 8.296875 
L 54.390625 8.296875 
L 54.390625 0 
L 12.40625 0 
z
" id="DejaVuSans-49"/>
       </defs>
       <use xlink:href="#DejaVuSans-49"/>
       <use x="63.623047" xlink:href="#DejaVuSans-48"/>
       <use x="127.246094" xlink:href="#DejaVuSans-48"/>
      </g>
     </g>
    </g>
    <g id="xtick_5">
     <g id="line2d_5">
      <g>
       <use style="stroke:#000000;stroke-width:0.8;" x="315.196161" xlink:href="#m33ec494b41" y="307.584"/>
      </g>
     </g>
     <g id="text_5">
      <!-- 120 -->
      <g transform="translate(305.652411 322.182437)scale(0.1 -0.1)">
       <defs>
        <path d="M 19.1875 8.296875 
L 53.609375 8.296875 
L 53.609375 0 
L 7.328125 0 
L 7.328125 8.296875 
Q 12.9375 14.109375 22.625 23.890625 
Q 32.328125 33.6875 34.8125 36.53125 
Q 39.546875 41.84375 41.421875 45.53125 
Q 43.3125 49.21875 43.3125 52.78125 
Q 43.3125 58.59375 39.234375 62.25 
Q 35.15625 65.921875 28.609375 65.921875 
Q 23.96875 65.921875 18.8125 64.3125 
Q 13.671875 62.703125 7.8125 59.421875 
L 7.8125 69.390625 
Q 13.765625 71.78125 18.9375 73 
Q 24.125 74.21875 28.421875 74.21875 
Q 39.75 74.21875 46.484375 68.546875 
Q 53.21875 62.890625 53.21875 53.421875 
Q 53.21875 48.921875 51.53125 44.890625 
Q 49.859375 40.875 45.40625 35.40625 
Q 44.1875 33.984375 37.640625 27.21875 
Q 31.109375 20.453125 19.1875 8.296875 
z
" id="DejaVuSans-50"/>
       </defs>
       <use xlink:href="#DejaVuSans-49"/>
       <use x="63.623047" xlink:href="#DejaVuSans-50"/>
       <use x="127.246094" xlink:href="#DejaVuSans-48"/>
      </g>
     </g>
    </g>
    <g id="xtick_6">
     <g id="line2d_6">
      <g>
       <use style="stroke:#000000;stroke-width:0.8;" x="368.603586" xlink:href="#m33ec494b41" y="307.584"/>
      </g>
     </g>
     <g id="text_6">
      <!-- 140 -->
      <g transform="translate(359.059836 322.182437)scale(0.1 -0.1)">
       <use xlink:href="#DejaVuSans-49"/>
       <use x="63.623047" xlink:href="#DejaVuSans-52"/>
       <use x="127.246094" xlink:href="#DejaVuSans-48"/>
      </g>
     </g>
    </g>
   </g>
   <g id="matplotlib.axis_2">
    <g id="ytick_1">
     <g id="line2d_7">
      <defs>
       <path d="M 0 0 
L -3.5 0 
" id="m7afe8c7355" style="stroke:#000000;stroke-width:0.8;"/>
      </defs>
      <g>
       <use style="stroke:#000000;stroke-width:0.8;" x="57.6" xlink:href="#m7afe8c7355" y="298.540041"/>
      </g>
     </g>
     <g id="text_7">
      <!-- 120 -->
      <g transform="translate(31.5125 302.339259)scale(0.1 -0.1)">
       <use xlink:href="#DejaVuSans-49"/>
       <use x="63.623047" xlink:href="#DejaVuSans-50"/>
       <use x="127.246094" xlink:href="#DejaVuSans-48"/>
      </g>
     </g>
    </g>
    <g id="ytick_2">
     <g id="line2d_8">
      <g>
       <use style="stroke:#000000;stroke-width:0.8;" x="57.6" xlink:href="#m7afe8c7355" y="245.132615"/>
      </g>
     </g>
     <g id="text_8">
      <!-- 140 -->
      <g transform="translate(31.5125 248.931834)scale(0.1 -0.1)">
       <use xlink:href="#DejaVuSans-49"/>
       <use x="63.623047" xlink:href="#DejaVuSans-52"/>
       <use x="127.246094" xlink:href="#DejaVuSans-48"/>
      </g>
     </g>
    </g>
    <g id="ytick_3">
     <g id="line2d_9">
      <g>
       <use style="stroke:#000000;stroke-width:0.8;" x="57.6" xlink:href="#m7afe8c7355" y="191.72519"/>
      </g>
     </g>
     <g id="text_9">
      <!-- 160 -->
      <g transform="translate(31.5125 195.524409)scale(0.1 -0.1)">
       <use xlink:href="#DejaVuSans-49"/>
       <use x="63.623047" xlink:href="#DejaVuSans-54"/>
       <use x="127.246094" xlink:href="#DejaVuSans-48"/>
      </g>
     </g>
    </g>
    <g id="ytick_4">
     <g id="line2d_10">
      <g>
       <use style="stroke:#000000;stroke-width:0.8;" x="57.6" xlink:href="#m7afe8c7355" y="138.317765"/>
      </g>
     </g>
     <g id="text_10">
      <!-- 180 -->
      <g transform="translate(31.5125 142.116984)scale(0.1 -0.1)">
       <use xlink:href="#DejaVuSans-49"/>
       <use x="63.623047" xlink:href="#DejaVuSans-56"/>
       <use x="127.246094" xlink:href="#DejaVuSans-48"/>
      </g>
     </g>
    </g>
    <g id="ytick_5">
     <g id="line2d_11">
      <g>
       <use style="stroke:#000000;stroke-width:0.8;" x="57.6" xlink:href="#m7afe8c7355" y="84.91034"/>
      </g>
     </g>
     <g id="text_11">
      <!-- 200 -->
      <g transform="translate(31.5125 88.709558)scale(0.1 -0.1)">
       <use xlink:href="#DejaVuSans-50"/>
       <use x="63.623047" xlink:href="#DejaVuSans-48"/>
       <use x="127.246094" xlink:href="#DejaVuSans-48"/>
      </g>
     </g>
    </g>
   </g>
   <g id="line2d_12">
    <path clip-path="url(#p84fbc8c269)" d="M 389.966556 221.099274 
L 383.125065 212.169553 
L 376.299596 203.640387 
L 369.487479 195.509106 
L 362.691384 187.781052 
L 355.911311 180.450883 
L 349.144591 173.521269 
L 342.396562 166.992212 
L 335.659216 160.861039 
L 328.940562 155.133093 
L 322.23793 149.803032 
L 315.54865 144.873526 
L 308.872722 140.344577 
L 304.434565 137.548698 
L 297.78534 133.684671 
L 291.152138 130.22387 
L 286.738014 128.13831 
L 282.331902 126.228994 
L 277.93113 124.498594 
L 273.538369 122.947108 
L 269.153619 121.571867 
L 264.774211 120.37554 
L 260.400142 119.355459 
L 256.034085 118.514292 
L 251.67604 117.85204 
L 247.323334 117.366032 
L 242.97597 117.058939 
L 238.639287 116.928091 
L 234.305274 116.976158 
L 229.981943 117.203139 
L 225.661283 117.606365 
L 221.351303 118.185836 
L 217.046665 118.946892 
L 212.747367 119.884192 
L 208.456081 120.997737 
L 204.172805 122.290197 
L 199.89487 123.761571 
L 195.622276 125.40919 
L 191.360364 127.235724 
L 187.101122 129.238503 
L 182.849891 131.420196 
L 178.606671 133.778134 
L 174.371462 136.317657 
L 170.138923 139.030754 
L 163.807473 143.436867 
L 157.489375 148.243535 
L 151.187299 153.450759 
L 144.901245 159.055868 
L 138.631213 165.061533 
L 132.374533 171.467754 
L 126.133875 178.27453 
L 119.90657 185.481862 
L 113.697956 193.08708 
L 107.502695 201.095523 
L 101.320786 209.501852 
L 95.157569 218.308736 
L 89.007704 227.513506 
L 82.873861 237.121502 
L 82.873861 237.121502 
" style="fill:none;stroke:#fea952;stroke-linecap:square;"/>
   </g>
   <g id="line2d_13">
    <path clip-path="url(#p84fbc8c269)" d="M 381.44584 227.540665 
L 374.739763 218.786262 
L 368.058616 210.436001 
L 361.410709 202.499093 
L 354.786574 194.96493 
L 348.198313 187.84032 
L 341.641403 181.123657 
L 335.127621 174.818872 
L 328.642414 168.914523 
L 322.193356 163.413754 
L 315.79647 158.323696 
L 309.435915 153.633012 
L 303.113599 149.3405 
L 296.851396 145.453101 
L 290.621727 141.953695 
L 286.51065 139.844198 
L 280.373413 136.998416 
L 276.306821 135.315687 
L 272.267263 133.803613 
L 266.248967 131.850831 
L 262.255116 130.755728 
L 258.288103 129.826056 
L 252.35173 128.736968 
L 248.413491 128.21406 
L 244.507825 127.851972 
L 240.597197 127.650229 
L 236.694799 127.609901 
L 232.814309 127.727274 
L 228.924761 128.006422 
L 225.038886 128.444367 
L 221.165576 129.042053 
L 217.277116 129.80578 
L 213.386961 130.729868 
L 209.493222 131.820127 
L 205.604603 133.069202 
L 201.693454 134.492981 
L 197.791935 136.07589 
L 191.897202 138.782702 
L 187.963915 140.797876 
L 182.05381 144.142639 
L 176.115501 147.883699 
L 170.162264 152.022363 
L 164.183948 156.566804 
L 158.198549 161.509077 
L 152.201118 166.853687 
L 146.188988 172.609656 
L 140.171451 178.768589 
L 134.148288 185.335926 
L 128.118803 192.312187 
L 122.090186 199.695 
L 116.055833 207.4938 
L 110.023523 215.695112 
L 103.996757 224.305641 
L 97.973729 233.319064 
L 91.914994 242.809386 
L 91.914994 242.809386 
" style="fill:none;stroke:#ffffff;stroke-linecap:square;"/>
   </g>
   <g id="line2d_14">
    <path clip-path="url(#p84fbc8c269)" d="M 398.487273 214.657884 
L 391.510367 205.552844 
L 384.540576 196.844773 
L 377.564248 188.519119 
L 370.596194 180.597174 
L 363.62431 173.061446 
L 356.647778 165.918881 
L 349.665504 159.165551 
L 342.676018 152.807555 
L 335.687767 146.852432 
L 328.679389 141.282367 
L 321.661385 136.11404 
L 316.975135 132.891905 
L 312.280405 129.84464 
L 307.579576 126.979264 
L 302.86362 124.287586 
L 298.151288 121.785199 
L 293.427346 119.463475 
L 288.696503 117.323491 
L 283.956211 115.369175 
L 279.199565 113.596692 
L 274.446123 112.015081 
L 269.685197 110.62402 
L 264.916485 109.420318 
L 260.144644 108.408963 
L 255.358395 107.586638 
L 250.580542 106.961286 
L 245.791479 106.527603 
L 241.01806 106.291405 
L 236.247092 106.251622 
L 231.470239 106.406627 
L 226.718465 106.757687 
L 221.9737 107.302438 
L 217.227051 108.045279 
L 212.516916 108.979907 
L 207.813816 110.106664 
L 203.135664 111.42508 
L 198.457732 112.93717 
L 193.823692 114.632384 
L 189.190705 116.520958 
L 184.593071 118.590268 
L 180.018778 120.844887 
L 175.467935 123.280831 
L 170.924322 125.907755 
L 166.423043 128.703221 
L 161.923592 131.690508 
L 157.452682 134.85137 
L 150.794801 139.920266 
L 146.374983 143.525356 
L 139.791663 149.256632 
L 133.244959 155.385419 
L 126.736069 161.908025 
L 120.265555 168.823552 
L 113.835788 176.126219 
L 107.429039 183.828518 
L 101.056321 191.921447 
L 94.724668 200.3954 
L 88.415536 209.26787 
L 82.134327 218.52885 
L 75.875561 228.186446 
L 73.832727 231.433617 
L 73.832727 231.433617 
" style="fill:none;stroke:#ffffff;stroke-linecap:square;"/>
   </g>
   <g id="patch_3">
    <path d="M 57.6 307.584 
L 57.6 41.472 
" style="fill:none;stroke:#000000;stroke-linecap:square;stroke-linejoin:miter;stroke-width:0.8;"/>
   </g>
   <g id="patch_4">
    <path d="M 414.72 307.584 
L 414.72 41.472 
" style="fill:none;stroke:#000000;stroke-linecap:square;stroke-linejoin:miter;stroke-width:0.8;"/>
   </g>
   <g id="patch_5">
    <path d="M 57.6 307.584 
L 414.72 307.584 
" style="fill:none;stroke:#000000;stroke-linecap:square;stroke-linejoin:miter;stroke-width:0.8;"/>
   </g>
   <g id="patch_6">
    <path d="M 57.6 41.472 
L 414.72 41.472 
" style="fill:none;stroke:#000000;stroke-linecap:square;stroke-linejoin:miter;stroke-width:0.8;"/>
   </g>
  </g>
 </g>
 <defs>
  <clipPath id="p84fbc8c269">
   <rect height="266.112" width="357.12" x="57.6" y="41.472"/>
  </clipPath>
 </defs>
</svg>
