<?xml version="1.0" encoding="utf-8" standalone="no"?>
<!DOCTYPE svg PUBLIC "-//W3C//DTD SVG 1.1//EN"
  "http://www.w3.org/Graphics/SVG/1.1/DTD/svg11.dtd">
<!-- Created with matplotlib (https://matplotlib.org/) -->
<svg height="345.6pt" version="1.1" viewBox="0 0 460.8 345.6" width="460.8pt" xmlns="http://www.w3.org/2000/svg" xmlns:xlink="http://www.w3.org/1999/xlink">
 <metadata>
  <rdf:RDF xmlns:cc="http://creativecommons.org/ns#" xmlns:dc="http://purl.org/dc/elements/1.1/" xmlns:rdf="http://www.w3.org/1999/02/22-rdf-syntax-ns#">
   <cc:Work>
    <dc:type rdf:resource="http://purl.org/dc/dcmitype/StillImage"/>
    <dc:date>2021-07-12T19:17:34.390289</dc:date>
    <dc:format>image/svg+xml</dc:format>
    <dc:creator>
     <cc:Agent>
      <dc:title>Matplotlib v3.3.3, https://matplotlib.org/</dc:title>
     </cc:Agent>
    </dc:creator>
   </cc:Work>
  </rdf:RDF>
 </metadata>
 <defs>
  <style type="text/css">*{stroke-linecap:butt;stroke-linejoin:round;}</style>
 </defs>
 <g id="figure_1">
  <g id="patch_1">
   <path d="M 0 345.6 
L 460.8 345.6 
L 460.8 0 
L 0 0 
z
" style="fill:#ffffff;"/>
  </g>
  <g id="axes_1">
   <g id="patch_2">
    <path d="M 57.6 307.584 
L 414.72 307.584 
L 414.72 41.472 
L 57.6 41.472 
z
" style="fill:#7d9051;"/>
   </g>
   <g id="matplotlib.axis_1">
    <g id="xtick_1">
     <g id="line2d_1">
      <defs>
       <path d="M 0 0 
L 0 3.5 
" id="mfb3026528d" style="stroke:#000000;stroke-width:0.8;"/>
      </defs>
      <g>
       <use style="stroke:#000000;stroke-width:0.8;" x="111.477357" xlink:href="#mfb3026528d" y="307.584"/>
      </g>
     </g>
     <g id="text_1">
      <!-- 60 -->
      <g transform="translate(105.114857 322.182437)scale(0.1 -0.1)">
       <defs>
        <path d="M 33.015625 40.375 
Q 26.375 40.375 22.484375 35.828125 
Q 18.609375 31.296875 18.609375 23.390625 
Q 18.609375 15.53125 22.484375 10.953125 
Q 26.375 6.390625 33.015625 6.390625 
Q 39.65625 6.390625 43.53125 10.953125 
Q 47.40625 15.53125 47.40625 23.390625 
Q 47.40625 31.296875 43.53125 35.828125 
Q 39.65625 40.375 33.015625 40.375 
z
M 52.59375 71.296875 
L 52.59375 62.3125 
Q 48.875 64.0625 45.09375 64.984375 
Q 41.3125 65.921875 37.59375 65.921875 
Q 27.828125 65.921875 22.671875 59.328125 
Q 17.53125 52.734375 16.796875 39.40625 
Q 19.671875 43.65625 24.015625 45.921875 
Q 28.375 48.1875 33.59375 48.1875 
Q 44.578125 48.1875 50.953125 41.515625 
Q 57.328125 34.859375 57.328125 23.390625 
Q 57.328125 12.15625 50.6875 5.359375 
Q 44.046875 -1.421875 33.015625 -1.421875 
Q 20.359375 -1.421875 13.671875 8.265625 
Q 6.984375 17.96875 6.984375 36.375 
Q 6.984375 53.65625 15.1875 63.9375 
Q 23.390625 74.21875 37.203125 74.21875 
Q 40.921875 74.21875 44.703125 73.484375 
Q 48.484375 72.75 52.59375 71.296875 
z
" id="DejaVuSans-54"/>
        <path d="M 31.78125 66.40625 
Q 24.171875 66.40625 20.328125 58.90625 
Q 16.5 51.421875 16.5 36.375 
Q 16.5 21.390625 20.328125 13.890625 
Q 24.171875 6.390625 31.78125 6.390625 
Q 39.453125 6.390625 43.28125 13.890625 
Q 47.125 21.390625 47.125 36.375 
Q 47.125 51.421875 43.28125 58.90625 
Q 39.453125 66.40625 31.78125 66.40625 
z
M 31.78125 74.21875 
Q 44.046875 74.21875 50.515625 64.515625 
Q 56.984375 54.828125 56.984375 36.375 
Q 56.984375 17.96875 50.515625 8.265625 
Q 44.046875 -1.421875 31.78125 -1.421875 
Q 19.53125 -1.421875 13.0625 8.265625 
Q 6.59375 17.96875 6.59375 36.375 
Q 6.59375 54.828125 13.0625 64.515625 
Q 19.53125 74.21875 31.78125 74.21875 
z
" id="DejaVuSans-48"/>
       </defs>
       <use xlink:href="#DejaVuSans-54"/>
       <use x="63.623047" xlink:href="#DejaVuSans-48"/>
      </g>
     </g>
    </g>
    <g id="xtick_2">
     <g id="line2d_2">
      <g>
       <use style="stroke:#000000;stroke-width:0.8;" x="176.707959" xlink:href="#mfb3026528d" y="307.584"/>
      </g>
     </g>
     <g id="text_2">
      <!-- 80 -->
      <g transform="translate(170.345459 322.182437)scale(0.1 -0.1)">
       <defs>
        <path d="M 31.78125 34.625 
Q 24.75 34.625 20.71875 30.859375 
Q 16.703125 27.09375 16.703125 20.515625 
Q 16.703125 13.921875 20.71875 10.15625 
Q 24.75 6.390625 31.78125 6.390625 
Q 38.8125 6.390625 42.859375 10.171875 
Q 46.921875 13.96875 46.921875 20.515625 
Q 46.921875 27.09375 42.890625 30.859375 
Q 38.875 34.625 31.78125 34.625 
z
M 21.921875 38.8125 
Q 15.578125 40.375 12.03125 44.71875 
Q 8.5 49.078125 8.5 55.328125 
Q 8.5 64.0625 14.71875 69.140625 
Q 20.953125 74.21875 31.78125 74.21875 
Q 42.671875 74.21875 48.875 69.140625 
Q 55.078125 64.0625 55.078125 55.328125 
Q 55.078125 49.078125 51.53125 44.71875 
Q 48 40.375 41.703125 38.8125 
Q 48.828125 37.15625 52.796875 32.3125 
Q 56.78125 27.484375 56.78125 20.515625 
Q 56.78125 9.90625 50.3125 4.234375 
Q 43.84375 -1.421875 31.78125 -1.421875 
Q 19.734375 -1.421875 13.25 4.234375 
Q 6.78125 9.90625 6.78125 20.515625 
Q 6.78125 27.484375 10.78125 32.3125 
Q 14.796875 37.15625 21.921875 38.8125 
z
M 18.3125 54.390625 
Q 18.3125 48.734375 21.84375 45.5625 
Q 25.390625 42.390625 31.78125 42.390625 
Q 38.140625 42.390625 41.71875 45.5625 
Q 45.3125 48.734375 45.3125 54.390625 
Q 45.3125 60.0625 41.71875 63.234375 
Q 38.140625 66.40625 31.78125 66.40625 
Q 25.390625 66.40625 21.84375 63.234375 
Q 18.3125 60.0625 18.3125 54.390625 
z
" id="DejaVuSans-56"/>
       </defs>
       <use xlink:href="#DejaVuSans-56"/>
       <use x="63.623047" xlink:href="#DejaVuSans-48"/>
      </g>
     </g>
    </g>
    <g id="xtick_3">
     <g id="line2d_3">
      <g>
       <use style="stroke:#000000;stroke-width:0.8;" x="241.93856" xlink:href="#mfb3026528d" y="307.584"/>
      </g>
     </g>
     <g id="text_3">
      <!-- 100 -->
      <g transform="translate(232.39481 322.182437)scale(0.1 -0.1)">
       <defs>
        <path d="M 12.40625 8.296875 
L 28.515625 8.296875 
L 28.515625 63.921875 
L 10.984375 60.40625 
L 10.984375 69.390625 
L 28.421875 72.90625 
L 38.28125 72.90625 
L 38.28125 8.296875 
L 54.390625 8.296875 
L 54.390625 0 
L 12.40625 0 
z
" id="DejaVuSans-49"/>
       </defs>
       <use xlink:href="#DejaVuSans-49"/>
       <use x="63.623047" xlink:href="#DejaVuSans-48"/>
       <use x="127.246094" xlink:href="#DejaVuSans-48"/>
      </g>
     </g>
    </g>
    <g id="xtick_4">
     <g id="line2d_4">
      <g>
       <use style="stroke:#000000;stroke-width:0.8;" x="307.169162" xlink:href="#mfb3026528d" y="307.584"/>
      </g>
     </g>
     <g id="text_4">
      <!-- 120 -->
      <g transform="translate(297.625412 322.182437)scale(0.1 -0.1)">
       <defs>
        <path d="M 19.1875 8.296875 
L 53.609375 8.296875 
L 53.609375 0 
L 7.328125 0 
L 7.328125 8.296875 
Q 12.9375 14.109375 22.625 23.890625 
Q 32.328125 33.6875 34.8125 36.53125 
Q 39.546875 41.84375 41.421875 45.53125 
Q 43.3125 49.21875 43.3125 52.78125 
Q 43.3125 58.59375 39.234375 62.25 
Q 35.15625 65.921875 28.609375 65.921875 
Q 23.96875 65.921875 18.8125 64.3125 
Q 13.671875 62.703125 7.8125 59.421875 
L 7.8125 69.390625 
Q 13.765625 71.78125 18.9375 73 
Q 24.125 74.21875 28.421875 74.21875 
Q 39.75 74.21875 46.484375 68.546875 
Q 53.21875 62.890625 53.21875 53.421875 
Q 53.21875 48.921875 51.53125 44.890625 
Q 49.859375 40.875 45.40625 35.40625 
Q 44.1875 33.984375 37.640625 27.21875 
Q 31.109375 20.453125 19.1875 8.296875 
z
" id="DejaVuSans-50"/>
       </defs>
       <use xlink:href="#DejaVuSans-49"/>
       <use x="63.623047" xlink:href="#DejaVuSans-50"/>
       <use x="127.246094" xlink:href="#DejaVuSans-48"/>
      </g>
     </g>
    </g>
    <g id="xtick_5">
     <g id="line2d_5">
      <g>
       <use style="stroke:#000000;stroke-width:0.8;" x="372.399764" xlink:href="#mfb3026528d" y="307.584"/>
      </g>
     </g>
     <g id="text_5">
      <!-- 140 -->
      <g transform="translate(362.856014 322.182437)scale(0.1 -0.1)">
       <defs>
        <path d="M 37.796875 64.3125 
L 12.890625 25.390625 
L 37.796875 25.390625 
z
M 35.203125 72.90625 
L 47.609375 72.90625 
L 47.609375 25.390625 
L 58.015625 25.390625 
L 58.015625 17.1875 
L 47.609375 17.1875 
L 47.609375 0 
L 37.796875 0 
L 37.796875 17.1875 
L 4.890625 17.1875 
L 4.890625 26.703125 
z
" id="DejaVuSans-52"/>
       </defs>
       <use xlink:href="#DejaVuSans-49"/>
       <use x="63.623047" xlink:href="#DejaVuSans-52"/>
       <use x="127.246094" xlink:href="#DejaVuSans-48"/>
      </g>
     </g>
    </g>
   </g>
   <g id="matplotlib.axis_2">
    <g id="ytick_1">
     <g id="line2d_6">
      <defs>
       <path d="M 0 0 
L -3.5 0 
" id="md428ebf75e" style="stroke:#000000;stroke-width:0.8;"/>
      </defs>
      <g>
       <use style="stroke:#000000;stroke-width:0.8;" x="57.6" xlink:href="#md428ebf75e" y="302.745485"/>
      </g>
     </g>
     <g id="text_6">
      <!-- 130 -->
      <g transform="translate(31.5125 306.544704)scale(0.1 -0.1)">
       <defs>
        <path d="M 40.578125 39.3125 
Q 47.65625 37.796875 51.625 33 
Q 55.609375 28.21875 55.609375 21.1875 
Q 55.609375 10.40625 48.1875 4.484375 
Q 40.765625 -1.421875 27.09375 -1.421875 
Q 22.515625 -1.421875 17.65625 -0.515625 
Q 12.796875 0.390625 7.625 2.203125 
L 7.625 11.71875 
Q 11.71875 9.328125 16.59375 8.109375 
Q 21.484375 6.890625 26.8125 6.890625 
Q 36.078125 6.890625 40.9375 10.546875 
Q 45.796875 14.203125 45.796875 21.1875 
Q 45.796875 27.640625 41.28125 31.265625 
Q 36.765625 34.90625 28.71875 34.90625 
L 20.21875 34.90625 
L 20.21875 43.015625 
L 29.109375 43.015625 
Q 36.375 43.015625 40.234375 45.921875 
Q 44.09375 48.828125 44.09375 54.296875 
Q 44.09375 59.90625 40.109375 62.90625 
Q 36.140625 65.921875 28.71875 65.921875 
Q 24.65625 65.921875 20.015625 65.03125 
Q 15.375 64.15625 9.8125 62.3125 
L 9.8125 71.09375 
Q 15.4375 72.65625 20.34375 73.4375 
Q 25.25 74.21875 29.59375 74.21875 
Q 40.828125 74.21875 47.359375 69.109375 
Q 53.90625 64.015625 53.90625 55.328125 
Q 53.90625 49.265625 50.4375 45.09375 
Q 46.96875 40.921875 40.578125 39.3125 
z
" id="DejaVuSans-51"/>
       </defs>
       <use xlink:href="#DejaVuSans-49"/>
       <use x="63.623047" xlink:href="#DejaVuSans-51"/>
       <use x="127.246094" xlink:href="#DejaVuSans-48"/>
      </g>
     </g>
    </g>
    <g id="ytick_2">
     <g id="line2d_7">
      <g>
       <use style="stroke:#000000;stroke-width:0.8;" x="57.6" xlink:href="#md428ebf75e" y="270.130184"/>
      </g>
     </g>
     <g id="text_7">
      <!-- 140 -->
      <g transform="translate(31.5125 273.929403)scale(0.1 -0.1)">
       <use xlink:href="#DejaVuSans-49"/>
       <use x="63.623047" xlink:href="#DejaVuSans-52"/>
       <use x="127.246094" xlink:href="#DejaVuSans-48"/>
      </g>
     </g>
    </g>
    <g id="ytick_3">
     <g id="line2d_8">
      <g>
       <use style="stroke:#000000;stroke-width:0.8;" x="57.6" xlink:href="#md428ebf75e" y="237.514884"/>
      </g>
     </g>
     <g id="text_8">
      <!-- 150 -->
      <g transform="translate(31.5125 241.314102)scale(0.1 -0.1)">
       <defs>
        <path d="M 10.796875 72.90625 
L 49.515625 72.90625 
L 49.515625 64.59375 
L 19.828125 64.59375 
L 19.828125 46.734375 
Q 21.96875 47.46875 24.109375 47.828125 
Q 26.265625 48.1875 28.421875 48.1875 
Q 40.625 48.1875 47.75 41.5 
Q 54.890625 34.8125 54.890625 23.390625 
Q 54.890625 11.625 47.5625 5.09375 
Q 40.234375 -1.421875 26.90625 -1.421875 
Q 22.3125 -1.421875 17.546875 -0.640625 
Q 12.796875 0.140625 7.71875 1.703125 
L 7.71875 11.625 
Q 12.109375 9.234375 16.796875 8.0625 
Q 21.484375 6.890625 26.703125 6.890625 
Q 35.15625 6.890625 40.078125 11.328125 
Q 45.015625 15.765625 45.015625 23.390625 
Q 45.015625 31 40.078125 35.4375 
Q 35.15625 39.890625 26.703125 39.890625 
Q 22.75 39.890625 18.8125 39.015625 
Q 14.890625 38.140625 10.796875 36.28125 
z
" id="DejaVuSans-53"/>
       </defs>
       <use xlink:href="#DejaVuSans-49"/>
       <use x="63.623047" xlink:href="#DejaVuSans-53"/>
       <use x="127.246094" xlink:href="#DejaVuSans-48"/>
      </g>
     </g>
    </g>
    <g id="ytick_4">
     <g id="line2d_9">
      <g>
       <use style="stroke:#000000;stroke-width:0.8;" x="57.6" xlink:href="#md428ebf75e" y="204.899583"/>
      </g>
     </g>
     <g id="text_9">
      <!-- 160 -->
      <g transform="translate(31.5125 208.698802)scale(0.1 -0.1)">
       <use xlink:href="#DejaVuSans-49"/>
       <use x="63.623047" xlink:href="#DejaVuSans-54"/>
       <use x="127.246094" xlink:href="#DejaVuSans-48"/>
      </g>
     </g>
    </g>
    <g id="ytick_5">
     <g id="line2d_10">
      <g>
       <use style="stroke:#000000;stroke-width:0.8;" x="57.6" xlink:href="#md428ebf75e" y="172.284282"/>
      </g>
     </g>
     <g id="text_10">
      <!-- 170 -->
      <g transform="translate(31.5125 176.083501)scale(0.1 -0.1)">
       <defs>
        <path d="M 8.203125 72.90625 
L 55.078125 72.90625 
L 55.078125 68.703125 
L 28.609375 0 
L 18.3125 0 
L 43.21875 64.59375 
L 8.203125 64.59375 
z
" id="DejaVuSans-55"/>
       </defs>
       <use xlink:href="#DejaVuSans-49"/>
       <use x="63.623047" xlink:href="#DejaVuSans-55"/>
       <use x="127.246094" xlink:href="#DejaVuSans-48"/>
      </g>
     </g>
    </g>
    <g id="ytick_6">
     <g id="line2d_11">
      <g>
       <use style="stroke:#000000;stroke-width:0.8;" x="57.6" xlink:href="#md428ebf75e" y="139.668981"/>
      </g>
     </g>
     <g id="text_11">
      <!-- 180 -->
      <g transform="translate(31.5125 143.4682)scale(0.1 -0.1)">
       <use xlink:href="#DejaVuSans-49"/>
       <use x="63.623047" xlink:href="#DejaVuSans-56"/>
       <use x="127.246094" xlink:href="#DejaVuSans-48"/>
      </g>
     </g>
    </g>
    <g id="ytick_7">
     <g id="line2d_12">
      <g>
       <use style="stroke:#000000;stroke-width:0.8;" x="57.6" xlink:href="#md428ebf75e" y="107.05368"/>
      </g>
     </g>
     <g id="text_12">
      <!-- 190 -->
      <g transform="translate(31.5125 110.852899)scale(0.1 -0.1)">
       <defs>
        <path d="M 10.984375 1.515625 
L 10.984375 10.5 
Q 14.703125 8.734375 18.5 7.8125 
Q 22.3125 6.890625 25.984375 6.890625 
Q 35.75 6.890625 40.890625 13.453125 
Q 46.046875 20.015625 46.78125 33.40625 
Q 43.953125 29.203125 39.59375 26.953125 
Q 35.25 24.703125 29.984375 24.703125 
Q 19.046875 24.703125 12.671875 31.3125 
Q 6.296875 37.9375 6.296875 49.421875 
Q 6.296875 60.640625 12.9375 67.421875 
Q 19.578125 74.21875 30.609375 74.21875 
Q 43.265625 74.21875 49.921875 64.515625 
Q 56.59375 54.828125 56.59375 36.375 
Q 56.59375 19.140625 48.40625 8.859375 
Q 40.234375 -1.421875 26.421875 -1.421875 
Q 22.703125 -1.421875 18.890625 -0.6875 
Q 15.09375 0.046875 10.984375 1.515625 
z
M 30.609375 32.421875 
Q 37.25 32.421875 41.125 36.953125 
Q 45.015625 41.5 45.015625 49.421875 
Q 45.015625 57.28125 41.125 61.84375 
Q 37.25 66.40625 30.609375 66.40625 
Q 23.96875 66.40625 20.09375 61.84375 
Q 16.21875 57.28125 16.21875 49.421875 
Q 16.21875 41.5 20.09375 36.953125 
Q 23.96875 32.421875 30.609375 32.421875 
z
" id="DejaVuSans-57"/>
       </defs>
       <use xlink:href="#DejaVuSans-49"/>
       <use x="63.623047" xlink:href="#DejaVuSans-57"/>
       <use x="127.246094" xlink:href="#DejaVuSans-48"/>
      </g>
     </g>
    </g>
    <g id="ytick_8">
     <g id="line2d_13">
      <g>
       <use style="stroke:#000000;stroke-width:0.8;" x="57.6" xlink:href="#md428ebf75e" y="74.43838"/>
      </g>
     </g>
     <g id="text_13">
      <!-- 200 -->
      <g transform="translate(31.5125 78.237598)scale(0.1 -0.1)">
       <use xlink:href="#DejaVuSans-50"/>
       <use x="63.623047" xlink:href="#DejaVuSans-48"/>
       <use x="127.246094" xlink:href="#DejaVuSans-48"/>
      </g>
     </g>
    </g>
    <g id="ytick_9">
     <g id="line2d_14">
      <g>
       <use style="stroke:#000000;stroke-width:0.8;" x="57.6" xlink:href="#md428ebf75e" y="41.823079"/>
      </g>
     </g>
     <g id="text_14">
      <!-- 210 -->
      <g transform="translate(31.5125 45.622298)scale(0.1 -0.1)">
       <use xlink:href="#DejaVuSans-50"/>
       <use x="63.623047" xlink:href="#DejaVuSans-49"/>
       <use x="127.246094" xlink:href="#DejaVuSans-48"/>
      </g>
     </g>
    </g>
   </g>
   <g id="line2d_15">
    <path clip-path="url(#p1a5f573ba0)" d="M 388.707414 169.022752 
L 385.879667 172.225574 
L 383.055182 175.366428 
L 380.233959 178.435528 
L 377.415997 181.442658 
L 374.604558 184.381297 
L 371.796381 187.254705 
L 368.991465 190.059621 
L 366.18981 192.802568 
L 363.394679 195.473761 
L 360.602809 198.082985 
L 357.814201 200.623717 
L 355.028854 203.099218 
L 352.250031 205.506227 
L 349.474469 207.851268 
L 346.702168 210.124554 
L 343.933129 212.335871 
L 341.170613 214.478697 
L 338.411359 216.556291 
L 335.655366 218.568655 
L 332.902634 220.512527 
L 330.156426 222.391169 
L 327.413479 224.201318 
L 324.673794 225.949498 
L 321.93737 227.629186 
L 319.20747 229.240382 
L 316.48083 230.786347 
L 313.757453 232.267082 
L 311.037337 233.682586 
L 308.323744 235.029598 
L 305.613412 236.311379 
L 302.906342 237.52793 
L 300.202534 238.675988 
L 297.505248 239.758816 
L 294.811225 240.776414 
L 292.120462 241.725519 
L 289.432961 242.609394 
L 286.751984 243.424776 
L 284.074268 244.17819 
L 281.399813 244.863111 
L 278.72862 245.47954 
L 276.06395 246.034 
L 273.402541 246.519968 
L 270.744394 246.937444 
L 268.089509 247.292951 
L 265.441146 247.579965 
L 262.796045 247.798488 
L 260.154206 247.955041 
L 257.515628 248.043103 
L 254.883573 248.065933 
L 252.25478 248.020272 
L 249.629248 247.90938 
L 247.006978 247.733257 
L 244.391231 247.488643 
L 241.778745 247.178797 
L 239.169521 246.803721 
L 236.563559 246.360153 
L 233.964119 245.851354 
L 231.367941 245.277325 
L 228.775025 244.638065 
L 226.18537 243.930313 
L 223.602238 243.154069 
L 221.022368 242.315856 
L 218.445759 241.40915 
L 215.872412 240.437215 
L 213.305588 239.396786 
L 210.742025 238.291128 
L 208.181724 237.120238 
L 205.624685 235.884119 
L 203.074168 234.579507 
L 200.526913 233.206402 
L 197.98292 231.771329 
L 195.442188 230.267764 
L 192.907979 228.698968 
L 190.377031 227.06168 
L 187.849346 225.362422 
L 185.324921 223.591412 
L 182.80702 221.758432 
L 180.29238 219.85696 
L 177.781002 217.890257 
L 175.272886 215.855062 
L 172.771292 213.757898 
L 170.27296 211.592243 
L 167.77789 209.358094 
L 165.286081 207.058716 
L 162.800795 204.694106 
L 160.31877 202.264266 
L 157.840007 199.765934 
L 155.364506 197.202372 
L 152.895528 194.570317 
L 150.429811 191.876293 
L 147.967356 189.113777 
L 145.508162 186.282769 
L 143.055492 183.38653 
L 140.606082 180.425061 
L 138.159935 177.398361 
L 135.717049 174.303169 
L 133.280686 171.142746 
L 130.847584 167.917093 
L 128.417745 164.622948 
L 125.991166 161.263572 
L 123.571111 157.838965 
L 121.154317 154.345867 
L 118.740785 150.787537 
L 116.330514 147.163977 
L 113.926766 143.471925 
L 111.52628 139.714643 
L 109.129056 135.888868 
L 106.735093 132.001124 
L 104.347653 128.044888 
L 101.963474 124.02016 
L 99.582557 119.933463 
L 97.204902 115.778273 
L 94.833769 111.557853 
L 92.465898 107.268941 
L 90.101289 102.914799 
L 87.739941 98.495425 
L 85.385117 94.00756 
" style="fill:none;stroke:#fea952;stroke-linecap:square;"/>
   </g>
   <g id="line2d_16">
    <path clip-path="url(#p1a5f573ba0)" d="M 398.487273 177.657311 
L 395.580278 180.949072 
L 392.659888 184.195408 
L 389.753521 187.356245 
L 386.842761 190.461382 
L 383.934856 193.499783 
L 381.021381 196.479705 
L 378.118277 199.381775 
L 375.203335 202.234303 
L 372.302631 205.005269 
L 369.389241 207.726629 
L 366.480863 210.375139 
L 363.570513 212.96032 
L 360.669719 215.471673 
L 357.746747 217.939412 
L 354.843226 220.318887 
L 351.929184 222.644332 
L 349.017982 224.900791 
L 346.104721 227.092582 
L 343.180827 229.225516 
L 340.268652 231.280212 
L 337.342239 233.27994 
L 334.431171 235.199193 
L 331.498658 237.068063 
L 328.568434 238.864409 
L 325.642111 240.589243 
L 322.7126 242.247861 
L 319.779811 243.840001 
L 316.838006 245.368196 
L 313.901288 246.823336 
L 310.961117 248.211098 
L 308.005222 249.536372 
L 305.062882 250.78294 
L 302.11518 251.963315 
L 299.150896 253.079605 
L 296.196342 254.1186 
L 293.229074 255.091011 
L 290.285492 255.983262 
L 287.310894 256.816445 
L 284.333357 257.575136 
L 281.38631 258.252086 
L 278.407398 258.86792 
L 275.42669 259.408105 
L 272.475901 259.868149 
L 269.495143 260.263126 
L 266.51528 260.581792 
L 263.567795 260.821762 
L 260.589372 260.993902 
L 257.628787 261.088732 
L 254.657 261.110086 
L 251.704255 261.054771 
L 248.754986 260.926174 
L 245.792254 260.722703 
L 242.854707 260.443964 
L 239.922447 260.092178 
L 236.980391 259.664863 
L 234.057543 259.163322 
L 231.147576 258.589813 
L 228.245048 257.944163 
L 225.335659 257.22266 
L 222.430806 256.424492 
L 219.570928 255.56172 
L 216.691766 254.622242 
L 213.836155 253.613773 
L 210.971631 252.527856 
L 208.138891 251.376206 
L 205.316188 250.155425 
L 202.503652 248.865908 
L 199.683587 247.498963 
L 196.883744 246.063404 
L 194.117078 244.569292 
L 191.338694 242.998774 
L 188.575302 241.360425 
L 185.821828 239.652858 
L 183.098489 237.888686 
L 180.356778 236.042436 
L 177.646689 234.138734 
L 174.938378 232.164475 
L 172.248712 230.128311 
L 169.560664 228.02077 
L 166.891511 225.852752 
L 164.22601 223.61586 
L 161.570161 221.311427 
L 158.930529 218.945872 
L 156.293403 216.51033 
L 153.674318 214.016588 
L 151.05757 211.452924 
L 148.455227 208.828337 
L 145.84945 206.127895 
L 143.271758 203.378513 
L 140.691082 200.557215 
L 138.118286 197.669306 
L 135.552336 194.713829 
L 133.002397 191.701369 
L 130.459435 188.625476 
L 127.919155 185.480915 
L 125.384711 182.268346 
L 122.865313 178.999034 
L 120.34865 175.661357 
L 117.842067 172.262078 
L 115.336844 168.792627 
L 112.842529 165.261821 
L 110.357491 161.669103 
L 107.878241 158.012937 
L 105.397377 154.282107 
L 102.93285 150.495817 
L 100.471142 146.641775 
L 98.020139 142.729425 
L 95.565236 138.741714 
L 93.123152 134.694086 
L 90.690923 130.587568 
L 88.259183 126.41285 
L 85.830937 122.168437 
L 83.412651 117.863353 
L 81.0013 113.495034 
L 78.594711 109.062963 
L 76.187552 104.557072 
L 73.832727 100.069206 
" style="fill:none;stroke:#ffffff;stroke-linecap:square;"/>
   </g>
   <g id="line2d_17">
    <path clip-path="url(#p1a5f573ba0)" d="M 378.927555 160.388192 
L 376.179057 163.502077 
L 373.450477 166.537448 
L 370.714397 169.51481 
L 367.989233 172.423934 
L 365.27426 175.262811 
L 362.57138 178.029705 
L 359.864653 180.737467 
L 357.176285 183.370833 
L 354.486727 185.942253 
L 351.816378 188.439341 
L 349.147539 190.872295 
L 346.487196 193.238117 
L 343.830342 195.540782 
L 341.20219 197.763123 
L 338.56111 199.930221 
L 335.937074 202.027411 
L 333.323244 204.056602 
L 330.717996 206.02 
L 328.129905 207.911794 
L 325.536617 209.744842 
L 322.970613 211.502397 
L 320.395787 213.203443 
L 317.84893 214.830933 
L 315.306306 216.393962 
L 312.772828 217.891521 
L 310.249061 219.324833 
L 307.735094 220.694163 
L 305.236667 221.996975 
L 302.7462 223.23586 
L 300.265707 224.41166 
L 297.807462 225.519488 
L 295.342186 226.569037 
L 292.895317 227.554318 
L 290.471554 228.473223 
L 288.044582 229.332438 
L 285.636849 230.127776 
L 283.218475 230.86629 
L 280.837641 231.539934 
L 278.466269 232.151086 
L 276.07093 232.706994 
L 273.720501 233.20008 
L 271.378392 233.631831 
L 269.012887 234.006739 
L 266.683874 234.322775 
L 264.367013 234.578139 
L 262.024296 234.775214 
L 259.71904 234.916181 
L 257.402469 234.997473 
L 255.110147 235.021781 
L 252.805306 234.985772 
L 250.503511 234.892586 
L 248.221702 234.743812 
L 245.927755 234.533321 
L 243.635044 234.265416 
L 241.358652 233.94258 
L 239.069574 233.556984 
L 236.780663 233.112895 
L 234.490835 232.610487 
L 232.214392 232.053471 
L 229.939934 231.436134 
L 227.633548 230.746418 
L 225.35297 230.00947 
L 223.055363 229.204528 
L 220.773193 228.346573 
L 218.472284 227.417366 
L 216.167863 226.426831 
L 213.859796 225.374569 
L 211.565782 224.269274 
L 209.264592 223.095609 
L 206.936748 221.843512 
L 204.627146 220.543884 
L 202.309073 219.175102 
L 199.99413 217.745077 
L 197.655574 216.234673 
L 195.341913 214.682409 
L 193.003153 213.044089 
L 190.675662 211.352389 
L 188.336049 209.585609 
L 186.001341 207.759744 
L 183.654261 205.857372 
L 181.316575 203.899937 
L 178.975759 201.873058 
L 176.62525 199.770317 
L 174.278758 197.607102 
L 171.927272 195.371624 
L 169.57997 193.075609 
L 167.224788 190.703532 
L 164.879562 188.276848 
L 162.519297 185.762121 
L 160.168541 183.195371 
L 157.816426 180.558248 
L 155.463989 177.851709 
L 153.108586 175.071691 
L 150.752729 172.224646 
L 148.400715 169.315807 
L 146.049387 166.337992 
L 143.696059 163.286459 
L 141.346519 160.172829 
L 138.993422 156.983818 
L 136.645489 153.734517 
L 134.299692 150.416109 
L 131.951143 147.02263 
L 129.603328 143.562137 
L 127.263651 140.045848 
L 124.920683 136.448034 
L 122.581419 132.78751 
L 120.237972 129.04831 
L 117.90495 125.260534 
L 115.572154 121.39569 
L 113.236025 117.452752 
L 110.905931 113.454075 
L 108.578866 109.38811 
L 106.254887 105.252354 
L 103.930497 101.042848 
L 101.607867 96.766635 
L 99.292331 92.433779 
L 96.937506 87.945914 
" style="fill:none;stroke:#ffffff;stroke-linecap:square;"/>
   </g>
   <g id="patch_3">
    <path d="M 57.6 307.584 
L 57.6 41.472 
" style="fill:none;stroke:#000000;stroke-linecap:square;stroke-linejoin:miter;stroke-width:0.8;"/>
   </g>
   <g id="patch_4">
    <path d="M 414.72 307.584 
L 414.72 41.472 
" style="fill:none;stroke:#000000;stroke-linecap:square;stroke-linejoin:miter;stroke-width:0.8;"/>
   </g>
   <g id="patch_5">
    <path d="M 57.6 307.584 
L 414.72 307.584 
" style="fill:none;stroke:#000000;stroke-linecap:square;stroke-linejoin:miter;stroke-width:0.8;"/>
   </g>
   <g id="patch_6">
    <path d="M 57.6 41.472 
L 414.72 41.472 
" style="fill:none;stroke:#000000;stroke-linecap:square;stroke-linejoin:miter;stroke-width:0.8;"/>
   </g>
  </g>
 </g>
 <defs>
  <clipPath id="p1a5f573ba0">
   <rect height="266.112" width="357.12" x="57.6" y="41.472"/>
  </clipPath>
 </defs>
</svg>
