<?xml version="1.0" encoding="utf-8" standalone="no"?>
<!DOCTYPE svg PUBLIC "-//W3C//DTD SVG 1.1//EN"
  "http://www.w3.org/Graphics/SVG/1.1/DTD/svg11.dtd">
<!-- Created with matplotlib (https://matplotlib.org/) -->
<svg height="345.6pt" version="1.1" viewBox="0 0 460.8 345.6" width="460.8pt" xmlns="http://www.w3.org/2000/svg" xmlns:xlink="http://www.w3.org/1999/xlink">
 <metadata>
  <rdf:RDF xmlns:cc="http://creativecommons.org/ns#" xmlns:dc="http://purl.org/dc/elements/1.1/" xmlns:rdf="http://www.w3.org/1999/02/22-rdf-syntax-ns#">
   <cc:Work>
    <dc:type rdf:resource="http://purl.org/dc/dcmitype/StillImage"/>
    <dc:date>2021-07-14T14:11:22.651138</dc:date>
    <dc:format>image/svg+xml</dc:format>
    <dc:creator>
     <cc:Agent>
      <dc:title>Matplotlib v3.3.3, https://matplotlib.org/</dc:title>
     </cc:Agent>
    </dc:creator>
   </cc:Work>
  </rdf:RDF>
 </metadata>
 <defs>
  <style type="text/css">*{stroke-linecap:butt;stroke-linejoin:round;}</style>
 </defs>
 <g id="figure_1">
  <g id="patch_1">
   <path d="M 0 345.6 
L 460.8 345.6 
L 460.8 0 
L 0 0 
z
" style="fill:#ffffff;"/>
  </g>
  <g id="axes_1">
   <g id="patch_2">
    <path d="M 57.6 307.584 
L 414.72 307.584 
L 414.72 41.472 
L 57.6 41.472 
z
" style="fill:#7d9051;"/>
   </g>
   <g id="matplotlib.axis_1">
    <g id="xtick_1">
     <g id="line2d_1">
      <defs>
       <path d="M 0 0 
L 0 3.5 
" id="m8c29b32522" style="stroke:#000000;stroke-width:0.8;"/>
      </defs>
      <g>
       <use style="stroke:#000000;stroke-width:0.8;" x="70.201627" xlink:href="#m8c29b32522" y="307.584"/>
      </g>
     </g>
     <g id="text_1">
      <!-- −25 -->
      <g transform="translate(59.649283 322.182437)scale(0.1 -0.1)">
       <defs>
        <path d="M 10.59375 35.5 
L 73.1875 35.5 
L 73.1875 27.203125 
L 10.59375 27.203125 
z
" id="DejaVuSans-8722"/>
        <path d="M 19.1875 8.296875 
L 53.609375 8.296875 
L 53.609375 0 
L 7.328125 0 
L 7.328125 8.296875 
Q 12.9375 14.109375 22.625 23.890625 
Q 32.328125 33.6875 34.8125 36.53125 
Q 39.546875 41.84375 41.421875 45.53125 
Q 43.3125 49.21875 43.3125 52.78125 
Q 43.3125 58.59375 39.234375 62.25 
Q 35.15625 65.921875 28.609375 65.921875 
Q 23.96875 65.921875 18.8125 64.3125 
Q 13.671875 62.703125 7.8125 59.421875 
L 7.8125 69.390625 
Q 13.765625 71.78125 18.9375 73 
Q 24.125 74.21875 28.421875 74.21875 
Q 39.75 74.21875 46.484375 68.546875 
Q 53.21875 62.890625 53.21875 53.421875 
Q 53.21875 48.921875 51.53125 44.890625 
Q 49.859375 40.875 45.40625 35.40625 
Q 44.1875 33.984375 37.640625 27.21875 
Q 31.109375 20.453125 19.1875 8.296875 
z
" id="DejaVuSans-50"/>
        <path d="M 10.796875 72.90625 
L 49.515625 72.90625 
L 49.515625 64.59375 
L 19.828125 64.59375 
L 19.828125 46.734375 
Q 21.96875 47.46875 24.109375 47.828125 
Q 26.265625 48.1875 28.421875 48.1875 
Q 40.625 48.1875 47.75 41.5 
Q 54.890625 34.8125 54.890625 23.390625 
Q 54.890625 11.625 47.5625 5.09375 
Q 40.234375 -1.421875 26.90625 -1.421875 
Q 22.3125 -1.421875 17.546875 -0.640625 
Q 12.796875 0.140625 7.71875 1.703125 
L 7.71875 11.625 
Q 12.109375 9.234375 16.796875 8.0625 
Q 21.484375 6.890625 26.703125 6.890625 
Q 35.15625 6.890625 40.078125 11.328125 
Q 45.015625 15.765625 45.015625 23.390625 
Q 45.015625 31 40.078125 35.4375 
Q 35.15625 39.890625 26.703125 39.890625 
Q 22.75 39.890625 18.8125 39.015625 
Q 14.890625 38.140625 10.796875 36.28125 
z
" id="DejaVuSans-53"/>
       </defs>
       <use xlink:href="#DejaVuSans-8722"/>
       <use x="83.789062" xlink:href="#DejaVuSans-50"/>
       <use x="147.412109" xlink:href="#DejaVuSans-53"/>
      </g>
     </g>
    </g>
    <g id="xtick_2">
     <g id="line2d_2">
      <g>
       <use style="stroke:#000000;stroke-width:0.8;" x="112.974988" xlink:href="#m8c29b32522" y="307.584"/>
      </g>
     </g>
     <g id="text_2">
      <!-- 0 -->
      <g transform="translate(109.793738 322.182437)scale(0.1 -0.1)">
       <defs>
        <path d="M 31.78125 66.40625 
Q 24.171875 66.40625 20.328125 58.90625 
Q 16.5 51.421875 16.5 36.375 
Q 16.5 21.390625 20.328125 13.890625 
Q 24.171875 6.390625 31.78125 6.390625 
Q 39.453125 6.390625 43.28125 13.890625 
Q 47.125 21.390625 47.125 36.375 
Q 47.125 51.421875 43.28125 58.90625 
Q 39.453125 66.40625 31.78125 66.40625 
z
M 31.78125 74.21875 
Q 44.046875 74.21875 50.515625 64.515625 
Q 56.984375 54.828125 56.984375 36.375 
Q 56.984375 17.96875 50.515625 8.265625 
Q 44.046875 -1.421875 31.78125 -1.421875 
Q 19.53125 -1.421875 13.0625 8.265625 
Q 6.59375 17.96875 6.59375 36.375 
Q 6.59375 54.828125 13.0625 64.515625 
Q 19.53125 74.21875 31.78125 74.21875 
z
" id="DejaVuSans-48"/>
       </defs>
       <use xlink:href="#DejaVuSans-48"/>
      </g>
     </g>
    </g>
    <g id="xtick_3">
     <g id="line2d_3">
      <g>
       <use style="stroke:#000000;stroke-width:0.8;" x="155.748349" xlink:href="#m8c29b32522" y="307.584"/>
      </g>
     </g>
     <g id="text_3">
      <!-- 25 -->
      <g transform="translate(149.385849 322.182437)scale(0.1 -0.1)">
       <use xlink:href="#DejaVuSans-50"/>
       <use x="63.623047" xlink:href="#DejaVuSans-53"/>
      </g>
     </g>
    </g>
    <g id="xtick_4">
     <g id="line2d_4">
      <g>
       <use style="stroke:#000000;stroke-width:0.8;" x="198.52171" xlink:href="#m8c29b32522" y="307.584"/>
      </g>
     </g>
     <g id="text_4">
      <!-- 50 -->
      <g transform="translate(192.15921 322.182437)scale(0.1 -0.1)">
       <use xlink:href="#DejaVuSans-53"/>
       <use x="63.623047" xlink:href="#DejaVuSans-48"/>
      </g>
     </g>
    </g>
    <g id="xtick_5">
     <g id="line2d_5">
      <g>
       <use style="stroke:#000000;stroke-width:0.8;" x="241.295071" xlink:href="#m8c29b32522" y="307.584"/>
      </g>
     </g>
     <g id="text_5">
      <!-- 75 -->
      <g transform="translate(234.932571 322.182437)scale(0.1 -0.1)">
       <defs>
        <path d="M 8.203125 72.90625 
L 55.078125 72.90625 
L 55.078125 68.703125 
L 28.609375 0 
L 18.3125 0 
L 43.21875 64.59375 
L 8.203125 64.59375 
z
" id="DejaVuSans-55"/>
       </defs>
       <use xlink:href="#DejaVuSans-55"/>
       <use x="63.623047" xlink:href="#DejaVuSans-53"/>
      </g>
     </g>
    </g>
    <g id="xtick_6">
     <g id="line2d_6">
      <g>
       <use style="stroke:#000000;stroke-width:0.8;" x="284.068432" xlink:href="#m8c29b32522" y="307.584"/>
      </g>
     </g>
     <g id="text_6">
      <!-- 100 -->
      <g transform="translate(274.524682 322.182437)scale(0.1 -0.1)">
       <defs>
        <path d="M 12.40625 8.296875 
L 28.515625 8.296875 
L 28.515625 63.921875 
L 10.984375 60.40625 
L 10.984375 69.390625 
L 28.421875 72.90625 
L 38.28125 72.90625 
L 38.28125 8.296875 
L 54.390625 8.296875 
L 54.390625 0 
L 12.40625 0 
z
" id="DejaVuSans-49"/>
       </defs>
       <use xlink:href="#DejaVuSans-49"/>
       <use x="63.623047" xlink:href="#DejaVuSans-48"/>
       <use x="127.246094" xlink:href="#DejaVuSans-48"/>
      </g>
     </g>
    </g>
    <g id="xtick_7">
     <g id="line2d_7">
      <g>
       <use style="stroke:#000000;stroke-width:0.8;" x="326.841793" xlink:href="#m8c29b32522" y="307.584"/>
      </g>
     </g>
     <g id="text_7">
      <!-- 125 -->
      <g transform="translate(317.298043 322.182437)scale(0.1 -0.1)">
       <use xlink:href="#DejaVuSans-49"/>
       <use x="63.623047" xlink:href="#DejaVuSans-50"/>
       <use x="127.246094" xlink:href="#DejaVuSans-53"/>
      </g>
     </g>
    </g>
    <g id="xtick_8">
     <g id="line2d_8">
      <g>
       <use style="stroke:#000000;stroke-width:0.8;" x="369.615154" xlink:href="#m8c29b32522" y="307.584"/>
      </g>
     </g>
     <g id="text_8">
      <!-- 150 -->
      <g transform="translate(360.071404 322.182437)scale(0.1 -0.1)">
       <use xlink:href="#DejaVuSans-49"/>
       <use x="63.623047" xlink:href="#DejaVuSans-53"/>
       <use x="127.246094" xlink:href="#DejaVuSans-48"/>
      </g>
     </g>
    </g>
    <g id="xtick_9">
     <g id="line2d_9">
      <g>
       <use style="stroke:#000000;stroke-width:0.8;" x="412.388515" xlink:href="#m8c29b32522" y="307.584"/>
      </g>
     </g>
     <g id="text_9">
      <!-- 175 -->
      <g transform="translate(402.844765 322.182437)scale(0.1 -0.1)">
       <use xlink:href="#DejaVuSans-49"/>
       <use x="63.623047" xlink:href="#DejaVuSans-55"/>
       <use x="127.246094" xlink:href="#DejaVuSans-53"/>
      </g>
     </g>
    </g>
   </g>
   <g id="matplotlib.axis_2">
    <g id="ytick_1">
     <g id="line2d_10">
      <defs>
       <path d="M 0 0 
L -3.5 0 
" id="md18799e652" style="stroke:#000000;stroke-width:0.8;"/>
      </defs>
      <g>
       <use style="stroke:#000000;stroke-width:0.8;" x="57.6" xlink:href="#md18799e652" y="304.008522"/>
      </g>
     </g>
     <g id="text_10">
      <!-- 20 -->
      <g transform="translate(37.875 307.807741)scale(0.1 -0.1)">
       <use xlink:href="#DejaVuSans-50"/>
       <use x="63.623047" xlink:href="#DejaVuSans-48"/>
      </g>
     </g>
    </g>
    <g id="ytick_2">
     <g id="line2d_11">
      <g>
       <use style="stroke:#000000;stroke-width:0.8;" x="57.6" xlink:href="#md18799e652" y="269.789833"/>
      </g>
     </g>
     <g id="text_11">
      <!-- 40 -->
      <g transform="translate(37.875 273.589052)scale(0.1 -0.1)">
       <defs>
        <path d="M 37.796875 64.3125 
L 12.890625 25.390625 
L 37.796875 25.390625 
z
M 35.203125 72.90625 
L 47.609375 72.90625 
L 47.609375 25.390625 
L 58.015625 25.390625 
L 58.015625 17.1875 
L 47.609375 17.1875 
L 47.609375 0 
L 37.796875 0 
L 37.796875 17.1875 
L 4.890625 17.1875 
L 4.890625 26.703125 
z
" id="DejaVuSans-52"/>
       </defs>
       <use xlink:href="#DejaVuSans-52"/>
       <use x="63.623047" xlink:href="#DejaVuSans-48"/>
      </g>
     </g>
    </g>
    <g id="ytick_3">
     <g id="line2d_12">
      <g>
       <use style="stroke:#000000;stroke-width:0.8;" x="57.6" xlink:href="#md18799e652" y="235.571145"/>
      </g>
     </g>
     <g id="text_12">
      <!-- 60 -->
      <g transform="translate(37.875 239.370363)scale(0.1 -0.1)">
       <defs>
        <path d="M 33.015625 40.375 
Q 26.375 40.375 22.484375 35.828125 
Q 18.609375 31.296875 18.609375 23.390625 
Q 18.609375 15.53125 22.484375 10.953125 
Q 26.375 6.390625 33.015625 6.390625 
Q 39.65625 6.390625 43.53125 10.953125 
Q 47.40625 15.53125 47.40625 23.390625 
Q 47.40625 31.296875 43.53125 35.828125 
Q 39.65625 40.375 33.015625 40.375 
z
M 52.59375 71.296875 
L 52.59375 62.3125 
Q 48.875 64.0625 45.09375 64.984375 
Q 41.3125 65.921875 37.59375 65.921875 
Q 27.828125 65.921875 22.671875 59.328125 
Q 17.53125 52.734375 16.796875 39.40625 
Q 19.671875 43.65625 24.015625 45.921875 
Q 28.375 48.1875 33.59375 48.1875 
Q 44.578125 48.1875 50.953125 41.515625 
Q 57.328125 34.859375 57.328125 23.390625 
Q 57.328125 12.15625 50.6875 5.359375 
Q 44.046875 -1.421875 33.015625 -1.421875 
Q 20.359375 -1.421875 13.671875 8.265625 
Q 6.984375 17.96875 6.984375 36.375 
Q 6.984375 53.65625 15.1875 63.9375 
Q 23.390625 74.21875 37.203125 74.21875 
Q 40.921875 74.21875 44.703125 73.484375 
Q 48.484375 72.75 52.59375 71.296875 
z
" id="DejaVuSans-54"/>
       </defs>
       <use xlink:href="#DejaVuSans-54"/>
       <use x="63.623047" xlink:href="#DejaVuSans-48"/>
      </g>
     </g>
    </g>
    <g id="ytick_4">
     <g id="line2d_13">
      <g>
       <use style="stroke:#000000;stroke-width:0.8;" x="57.6" xlink:href="#md18799e652" y="201.352456"/>
      </g>
     </g>
     <g id="text_13">
      <!-- 80 -->
      <g transform="translate(37.875 205.151675)scale(0.1 -0.1)">
       <defs>
        <path d="M 31.78125 34.625 
Q 24.75 34.625 20.71875 30.859375 
Q 16.703125 27.09375 16.703125 20.515625 
Q 16.703125 13.921875 20.71875 10.15625 
Q 24.75 6.390625 31.78125 6.390625 
Q 38.8125 6.390625 42.859375 10.171875 
Q 46.921875 13.96875 46.921875 20.515625 
Q 46.921875 27.09375 42.890625 30.859375 
Q 38.875 34.625 31.78125 34.625 
z
M 21.921875 38.8125 
Q 15.578125 40.375 12.03125 44.71875 
Q 8.5 49.078125 8.5 55.328125 
Q 8.5 64.0625 14.71875 69.140625 
Q 20.953125 74.21875 31.78125 74.21875 
Q 42.671875 74.21875 48.875 69.140625 
Q 55.078125 64.0625 55.078125 55.328125 
Q 55.078125 49.078125 51.53125 44.71875 
Q 48 40.375 41.703125 38.8125 
Q 48.828125 37.15625 52.796875 32.3125 
Q 56.78125 27.484375 56.78125 20.515625 
Q 56.78125 9.90625 50.3125 4.234375 
Q 43.84375 -1.421875 31.78125 -1.421875 
Q 19.734375 -1.421875 13.25 4.234375 
Q 6.78125 9.90625 6.78125 20.515625 
Q 6.78125 27.484375 10.78125 32.3125 
Q 14.796875 37.15625 21.921875 38.8125 
z
M 18.3125 54.390625 
Q 18.3125 48.734375 21.84375 45.5625 
Q 25.390625 42.390625 31.78125 42.390625 
Q 38.140625 42.390625 41.71875 45.5625 
Q 45.3125 48.734375 45.3125 54.390625 
Q 45.3125 60.0625 41.71875 63.234375 
Q 38.140625 66.40625 31.78125 66.40625 
Q 25.390625 66.40625 21.84375 63.234375 
Q 18.3125 60.0625 18.3125 54.390625 
z
" id="DejaVuSans-56"/>
       </defs>
       <use xlink:href="#DejaVuSans-56"/>
       <use x="63.623047" xlink:href="#DejaVuSans-48"/>
      </g>
     </g>
    </g>
    <g id="ytick_5">
     <g id="line2d_14">
      <g>
       <use style="stroke:#000000;stroke-width:0.8;" x="57.6" xlink:href="#md18799e652" y="167.133767"/>
      </g>
     </g>
     <g id="text_14">
      <!-- 100 -->
      <g transform="translate(31.5125 170.932986)scale(0.1 -0.1)">
       <use xlink:href="#DejaVuSans-49"/>
       <use x="63.623047" xlink:href="#DejaVuSans-48"/>
       <use x="127.246094" xlink:href="#DejaVuSans-48"/>
      </g>
     </g>
    </g>
    <g id="ytick_6">
     <g id="line2d_15">
      <g>
       <use style="stroke:#000000;stroke-width:0.8;" x="57.6" xlink:href="#md18799e652" y="132.915078"/>
      </g>
     </g>
     <g id="text_15">
      <!-- 120 -->
      <g transform="translate(31.5125 136.714297)scale(0.1 -0.1)">
       <use xlink:href="#DejaVuSans-49"/>
       <use x="63.623047" xlink:href="#DejaVuSans-50"/>
       <use x="127.246094" xlink:href="#DejaVuSans-48"/>
      </g>
     </g>
    </g>
    <g id="ytick_7">
     <g id="line2d_16">
      <g>
       <use style="stroke:#000000;stroke-width:0.8;" x="57.6" xlink:href="#md18799e652" y="98.69639"/>
      </g>
     </g>
     <g id="text_16">
      <!-- 140 -->
      <g transform="translate(31.5125 102.495608)scale(0.1 -0.1)">
       <use xlink:href="#DejaVuSans-49"/>
       <use x="63.623047" xlink:href="#DejaVuSans-52"/>
       <use x="127.246094" xlink:href="#DejaVuSans-48"/>
      </g>
     </g>
    </g>
    <g id="ytick_8">
     <g id="line2d_17">
      <g>
       <use style="stroke:#000000;stroke-width:0.8;" x="57.6" xlink:href="#md18799e652" y="64.477701"/>
      </g>
     </g>
     <g id="text_17">
      <!-- 160 -->
      <g transform="translate(31.5125 68.27692)scale(0.1 -0.1)">
       <use xlink:href="#DejaVuSans-49"/>
       <use x="63.623047" xlink:href="#DejaVuSans-54"/>
       <use x="127.246094" xlink:href="#DejaVuSans-48"/>
      </g>
     </g>
    </g>
   </g>
   <g id="line2d_18">
    <path clip-path="url(#p892369c0f4)" d="M 326.841793 295.45385 
L 326.968402 288.598136 
L 327.714369 266.326902 
L 327.598026 261.185544 
L 327.242151 256.056163 
L 326.59884 250.954156 
L 325.301952 242.481609 
L 324.040993 235.740527 
L 322.884401 230.730911 
L 321.486568 225.781178 
L 320.389859 222.533824 
L 319.135744 219.342932 
L 317.703692 216.22732 
L 316.07146 213.212653 
L 314.211675 210.333151 
L 312.093538 207.638429 
L 309.759823 205.128488 
L 307.260148 202.781086 
L 304.640707 200.570559 
L 300.556707 197.444682 
L 293.555563 192.49837 
L 287.964229 188.529002 
L 283.885362 185.397992 
L 281.267632 183.184043 
L 277.524107 179.659518 
L 272.742046 174.744004 
L 265.600605 167.342501 
L 261.851948 163.821398 
L 259.229085 161.616004 
L 256.474481 159.574859 
L 253.569314 157.754425 
L 250.505031 156.219716 
L 248.91044 155.586671 
L 245.61518 154.643946 
L 242.234374 154.077626 
L 238.817638 153.803877 
L 235.390636 153.738861 
L 230.249278 153.879158 
L 219.973406 154.291493 
L 216.544693 154.258986 
L 213.122824 154.041697 
L 209.72833 153.566057 
L 206.393719 152.772183 
L 201.461095 151.314467 
L 196.588354 149.673681 
L 191.785761 147.836138 
L 187.070426 145.783016 
L 182.46459 143.493786 
L 177.999051 140.944494 
L 175.117838 139.086419 
L 172.332436 137.088047 
L 169.659957 134.940825 
L 167.110664 132.648173 
L 163.481772 129.005593 
L 160.077013 125.150858 
L 156.90494 121.104498 
L 153.980954 116.875068 
L 152.18105 113.956214 
L 150.5146 110.960368 
L 148.997001 107.885818 
L 147.645363 104.735988 
L 146.48535 101.509166 
L 145.547758 98.212195 
L 144.926688 94.841654 
L 144.640962 91.424918 
L 144.632408 87.997917 
L 144.846275 84.576048 
L 145.463922 79.470619 
L 146.617092 72.710717 
L 148.711275 60.896715 
L 149.322079 55.789576 
L 149.450399 54.080352 
L 149.450399 54.080352 
" style="fill:none;stroke:#fea952;stroke-linecap:square;"/>
   </g>
   <g id="line2d_19">
    <path clip-path="url(#p892369c0f4)" d="M 319.99814 295.4197 
L 320.129086 288.352166 
L 320.870907 266.38837 
L 320.763503 261.540584 
L 320.438296 256.79393 
L 319.82512 251.93061 
L 318.557327 243.642121 
L 317.352285 237.18895 
L 316.265997 232.472597 
L 314.978492 227.89818 
L 313.44534 223.513043 
L 312.267921 220.724839 
L 310.951143 218.066381 
L 309.508492 215.591777 
L 307.901896 213.313271 
L 306.026768 211.115207 
L 303.919259 208.995286 
L 301.61097 206.941931 
L 297.857326 203.963145 
L 292.451841 200.070196 
L 282.426844 192.938747 
L 278.085987 189.481306 
L 275.300852 187.009775 
L 271.41922 183.230811 
L 264.269844 175.76206 
L 259.681911 171.132079 
L 256.221719 167.997801 
L 253.891697 166.140063 
L 251.529694 164.50832 
L 249.147411 163.143082 
L 246.820174 162.103383 
L 244.31642 161.363318 
L 241.564896 160.88854 
L 238.598969 160.64412 
L 235.479419 160.582023 
L 230.570259 160.715364 
L 219.987066 161.135217 
L 216.223712 161.095192 
L 212.32359 160.838606 
L 208.279907 160.254765 
L 204.522621 159.355172 
L 199.362645 157.828549 
L 194.232566 156.099178 
L 189.150161 154.152019 
L 184.133377 151.96448 
L 179.19799 149.50761 
L 175.954402 147.697092 
L 172.772464 145.740518 
L 169.651832 143.614443 
L 166.617033 141.306142 
L 163.734476 138.843148 
L 161.025882 136.28807 
L 158.441988 133.635639 
L 154.773864 129.476751 
L 151.355423 125.109445 
L 149.221228 122.082557 
L 147.201971 118.955008 
L 145.312477 115.726158 
L 143.561231 112.383338 
L 141.972385 108.930188 
L 140.563734 105.344434 
L 139.369036 101.618161 
L 138.430514 97.594078 
L 137.914289 93.552546 
L 137.762169 89.601186 
L 137.892225 85.766127 
L 138.225391 82.044079 
L 138.977154 76.649475 
L 140.521058 68.085201 
L 141.932684 59.954675 
L 142.497547 55.277224 
L 142.625867 53.568 
L 142.625867 53.568 
" style="fill:none;stroke:#ffffff;stroke-linecap:square;"/>
   </g>
   <g id="line2d_20">
    <path clip-path="url(#p892369c0f4)" d="M 333.685445 295.488 
L 333.807718 288.844105 
L 334.557831 266.265434 
L 334.432548 260.830504 
L 334.046006 255.318395 
L 333.37256 249.977703 
L 332.046576 241.321097 
L 330.729701 234.292104 
L 329.502806 228.989226 
L 327.994643 223.664175 
L 326.79053 220.111396 
L 325.396089 216.578003 
L 323.776354 213.071448 
L 321.901627 209.628535 
L 319.688303 206.229094 
L 317.191986 203.073063 
L 314.519901 200.211334 
L 311.734774 197.602817 
L 308.887586 195.203924 
L 304.573871 191.904001 
L 297.46918 186.884072 
L 290.750432 182.07298 
L 287.043053 179.131526 
L 283.528199 175.955088 
L 280.04068 172.470129 
L 269.062398 161.164459 
L 266.326574 158.643129 
L 263.399477 156.189717 
L 260.22964 153.853362 
L 256.787414 151.714509 
L 254.966286 150.754067 
L 253.030249 149.858897 
L 251.000706 149.069959 
L 248.950907 148.426949 
L 246.91394 147.924573 
L 242.903852 147.266713 
L 239.036307 146.963634 
L 235.301852 146.8957 
L 229.928297 147.042952 
L 219.959746 147.447769 
L 215.378346 147.356673 
L 212.520066 147.086699 
L 209.774162 146.579483 
L 205.114256 145.278535 
L 200.473626 143.78486 
L 195.912737 142.114289 
L 191.465329 140.263915 
L 187.141482 138.211576 
L 182.986507 135.954158 
L 179.034661 133.474357 
L 176.540703 131.691082 
L 174.174804 129.797587 
L 170.724858 126.630076 
L 167.452256 123.213603 
L 164.38174 119.603112 
L 161.532884 115.825021 
L 158.929236 111.896805 
L 156.612433 107.85341 
L 155.247503 105.09871 
L 154.048291 102.319531 
L 153.031747 99.513813 
L 152.242367 96.791298 
L 151.732071 94.118113 
L 151.483198 91.281518 
L 151.467961 88.332524 
L 151.655163 85.265815 
L 152.226332 80.52255 
L 153.34446 73.967403 
L 155.212947 63.6358 
L 155.963008 58.17266 
L 156.274931 54.592705 
L 156.274931 54.592705 
" style="fill:none;stroke:#ffffff;stroke-linecap:square;"/>
   </g>
   <g id="patch_3">
    <path d="M 57.6 307.584 
L 57.6 41.472 
" style="fill:none;stroke:#000000;stroke-linecap:square;stroke-linejoin:miter;stroke-width:0.8;"/>
   </g>
   <g id="patch_4">
    <path d="M 414.72 307.584 
L 414.72 41.472 
" style="fill:none;stroke:#000000;stroke-linecap:square;stroke-linejoin:miter;stroke-width:0.8;"/>
   </g>
   <g id="patch_5">
    <path d="M 57.6 307.584 
L 414.72 307.584 
" style="fill:none;stroke:#000000;stroke-linecap:square;stroke-linejoin:miter;stroke-width:0.8;"/>
   </g>
   <g id="patch_6">
    <path d="M 57.6 41.472 
L 414.72 41.472 
" style="fill:none;stroke:#000000;stroke-linecap:square;stroke-linejoin:miter;stroke-width:0.8;"/>
   </g>
  </g>
 </g>
 <defs>
  <clipPath id="p892369c0f4">
   <rect height="266.112" width="357.12" x="57.6" y="41.472"/>
  </clipPath>
 </defs>
</svg>
