<?xml version="1.0" encoding="utf-8" standalone="no"?>
<!DOCTYPE svg PUBLIC "-//W3C//DTD SVG 1.1//EN"
  "http://www.w3.org/Graphics/SVG/1.1/DTD/svg11.dtd">
<!-- Created with matplotlib (https://matplotlib.org/) -->
<svg height="345.6pt" version="1.1" viewBox="0 0 460.8 345.6" width="460.8pt" xmlns="http://www.w3.org/2000/svg" xmlns:xlink="http://www.w3.org/1999/xlink">
 <metadata>
  <rdf:RDF xmlns:cc="http://creativecommons.org/ns#" xmlns:dc="http://purl.org/dc/elements/1.1/" xmlns:rdf="http://www.w3.org/1999/02/22-rdf-syntax-ns#">
   <cc:Work>
    <dc:type rdf:resource="http://purl.org/dc/dcmitype/StillImage"/>
    <dc:date>2021-07-12T18:57:43.976046</dc:date>
    <dc:format>image/svg+xml</dc:format>
    <dc:creator>
     <cc:Agent>
      <dc:title>Matplotlib v3.3.3, https://matplotlib.org/</dc:title>
     </cc:Agent>
    </dc:creator>
   </cc:Work>
  </rdf:RDF>
 </metadata>
 <defs>
  <style type="text/css">*{stroke-linecap:butt;stroke-linejoin:round;}</style>
 </defs>
 <g id="figure_1">
  <g id="patch_1">
   <path d="M 0 345.6 
L 460.8 345.6 
L 460.8 0 
L 0 0 
z
" style="fill:#ffffff;"/>
  </g>
  <g id="axes_1">
   <g id="patch_2">
    <path d="M 57.6 307.584 
L 414.72 307.584 
L 414.72 41.472 
L 57.6 41.472 
z
" style="fill:#7d9051;"/>
   </g>
   <g id="matplotlib.axis_1">
    <g id="xtick_1">
     <g id="line2d_1">
      <defs>
       <path d="M 0 0 
L 0 3.5 
" id="mb85f117d48" style="stroke:#000000;stroke-width:0.8;"/>
      </defs>
      <g>
       <use style="stroke:#000000;stroke-width:0.8;" x="78.064101" xlink:href="#mb85f117d48" y="307.584"/>
      </g>
     </g>
     <g id="text_1">
      <!-- 20 -->
      <g transform="translate(71.701601 322.182437)scale(0.1 -0.1)">
       <defs>
        <path d="M 19.1875 8.296875 
L 53.609375 8.296875 
L 53.609375 0 
L 7.328125 0 
L 7.328125 8.296875 
Q 12.9375 14.109375 22.625 23.890625 
Q 32.328125 33.6875 34.8125 36.53125 
Q 39.546875 41.84375 41.421875 45.53125 
Q 43.3125 49.21875 43.3125 52.78125 
Q 43.3125 58.59375 39.234375 62.25 
Q 35.15625 65.921875 28.609375 65.921875 
Q 23.96875 65.921875 18.8125 64.3125 
Q 13.671875 62.703125 7.8125 59.421875 
L 7.8125 69.390625 
Q 13.765625 71.78125 18.9375 73 
Q 24.125 74.21875 28.421875 74.21875 
Q 39.75 74.21875 46.484375 68.546875 
Q 53.21875 62.890625 53.21875 53.421875 
Q 53.21875 48.921875 51.53125 44.890625 
Q 49.859375 40.875 45.40625 35.40625 
Q 44.1875 33.984375 37.640625 27.21875 
Q 31.109375 20.453125 19.1875 8.296875 
z
" id="DejaVuSans-50"/>
        <path d="M 31.78125 66.40625 
Q 24.171875 66.40625 20.328125 58.90625 
Q 16.5 51.421875 16.5 36.375 
Q 16.5 21.390625 20.328125 13.890625 
Q 24.171875 6.390625 31.78125 6.390625 
Q 39.453125 6.390625 43.28125 13.890625 
Q 47.125 21.390625 47.125 36.375 
Q 47.125 51.421875 43.28125 58.90625 
Q 39.453125 66.40625 31.78125 66.40625 
z
M 31.78125 74.21875 
Q 44.046875 74.21875 50.515625 64.515625 
Q 56.984375 54.828125 56.984375 36.375 
Q 56.984375 17.96875 50.515625 8.265625 
Q 44.046875 -1.421875 31.78125 -1.421875 
Q 19.53125 -1.421875 13.0625 8.265625 
Q 6.59375 17.96875 6.59375 36.375 
Q 6.59375 54.828125 13.0625 64.515625 
Q 19.53125 74.21875 31.78125 74.21875 
z
" id="DejaVuSans-48"/>
       </defs>
       <use xlink:href="#DejaVuSans-50"/>
       <use x="63.623047" xlink:href="#DejaVuSans-48"/>
      </g>
     </g>
    </g>
    <g id="xtick_2">
     <g id="line2d_2">
      <g>
       <use style="stroke:#000000;stroke-width:0.8;" x="149.327598" xlink:href="#mb85f117d48" y="307.584"/>
      </g>
     </g>
     <g id="text_2">
      <!-- 40 -->
      <g transform="translate(142.965098 322.182437)scale(0.1 -0.1)">
       <defs>
        <path d="M 37.796875 64.3125 
L 12.890625 25.390625 
L 37.796875 25.390625 
z
M 35.203125 72.90625 
L 47.609375 72.90625 
L 47.609375 25.390625 
L 58.015625 25.390625 
L 58.015625 17.1875 
L 47.609375 17.1875 
L 47.609375 0 
L 37.796875 0 
L 37.796875 17.1875 
L 4.890625 17.1875 
L 4.890625 26.703125 
z
" id="DejaVuSans-52"/>
       </defs>
       <use xlink:href="#DejaVuSans-52"/>
       <use x="63.623047" xlink:href="#DejaVuSans-48"/>
      </g>
     </g>
    </g>
    <g id="xtick_3">
     <g id="line2d_3">
      <g>
       <use style="stroke:#000000;stroke-width:0.8;" x="220.591094" xlink:href="#mb85f117d48" y="307.584"/>
      </g>
     </g>
     <g id="text_3">
      <!-- 60 -->
      <g transform="translate(214.228594 322.182437)scale(0.1 -0.1)">
       <defs>
        <path d="M 33.015625 40.375 
Q 26.375 40.375 22.484375 35.828125 
Q 18.609375 31.296875 18.609375 23.390625 
Q 18.609375 15.53125 22.484375 10.953125 
Q 26.375 6.390625 33.015625 6.390625 
Q 39.65625 6.390625 43.53125 10.953125 
Q 47.40625 15.53125 47.40625 23.390625 
Q 47.40625 31.296875 43.53125 35.828125 
Q 39.65625 40.375 33.015625 40.375 
z
M 52.59375 71.296875 
L 52.59375 62.3125 
Q 48.875 64.0625 45.09375 64.984375 
Q 41.3125 65.921875 37.59375 65.921875 
Q 27.828125 65.921875 22.671875 59.328125 
Q 17.53125 52.734375 16.796875 39.40625 
Q 19.671875 43.65625 24.015625 45.921875 
Q 28.375 48.1875 33.59375 48.1875 
Q 44.578125 48.1875 50.953125 41.515625 
Q 57.328125 34.859375 57.328125 23.390625 
Q 57.328125 12.15625 50.6875 5.359375 
Q 44.046875 -1.421875 33.015625 -1.421875 
Q 20.359375 -1.421875 13.671875 8.265625 
Q 6.984375 17.96875 6.984375 36.375 
Q 6.984375 53.65625 15.1875 63.9375 
Q 23.390625 74.21875 37.203125 74.21875 
Q 40.921875 74.21875 44.703125 73.484375 
Q 48.484375 72.75 52.59375 71.296875 
z
" id="DejaVuSans-54"/>
       </defs>
       <use xlink:href="#DejaVuSans-54"/>
       <use x="63.623047" xlink:href="#DejaVuSans-48"/>
      </g>
     </g>
    </g>
    <g id="xtick_4">
     <g id="line2d_4">
      <g>
       <use style="stroke:#000000;stroke-width:0.8;" x="291.85459" xlink:href="#mb85f117d48" y="307.584"/>
      </g>
     </g>
     <g id="text_4">
      <!-- 80 -->
      <g transform="translate(285.49209 322.182437)scale(0.1 -0.1)">
       <defs>
        <path d="M 31.78125 34.625 
Q 24.75 34.625 20.71875 30.859375 
Q 16.703125 27.09375 16.703125 20.515625 
Q 16.703125 13.921875 20.71875 10.15625 
Q 24.75 6.390625 31.78125 6.390625 
Q 38.8125 6.390625 42.859375 10.171875 
Q 46.921875 13.96875 46.921875 20.515625 
Q 46.921875 27.09375 42.890625 30.859375 
Q 38.875 34.625 31.78125 34.625 
z
M 21.921875 38.8125 
Q 15.578125 40.375 12.03125 44.71875 
Q 8.5 49.078125 8.5 55.328125 
Q 8.5 64.0625 14.71875 69.140625 
Q 20.953125 74.21875 31.78125 74.21875 
Q 42.671875 74.21875 48.875 69.140625 
Q 55.078125 64.0625 55.078125 55.328125 
Q 55.078125 49.078125 51.53125 44.71875 
Q 48 40.375 41.703125 38.8125 
Q 48.828125 37.15625 52.796875 32.3125 
Q 56.78125 27.484375 56.78125 20.515625 
Q 56.78125 9.90625 50.3125 4.234375 
Q 43.84375 -1.421875 31.78125 -1.421875 
Q 19.734375 -1.421875 13.25 4.234375 
Q 6.78125 9.90625 6.78125 20.515625 
Q 6.78125 27.484375 10.78125 32.3125 
Q 14.796875 37.15625 21.921875 38.8125 
z
M 18.3125 54.390625 
Q 18.3125 48.734375 21.84375 45.5625 
Q 25.390625 42.390625 31.78125 42.390625 
Q 38.140625 42.390625 41.71875 45.5625 
Q 45.3125 48.734375 45.3125 54.390625 
Q 45.3125 60.0625 41.71875 63.234375 
Q 38.140625 66.40625 31.78125 66.40625 
Q 25.390625 66.40625 21.84375 63.234375 
Q 18.3125 60.0625 18.3125 54.390625 
z
" id="DejaVuSans-56"/>
       </defs>
       <use xlink:href="#DejaVuSans-56"/>
       <use x="63.623047" xlink:href="#DejaVuSans-48"/>
      </g>
     </g>
    </g>
    <g id="xtick_5">
     <g id="line2d_5">
      <g>
       <use style="stroke:#000000;stroke-width:0.8;" x="363.118087" xlink:href="#mb85f117d48" y="307.584"/>
      </g>
     </g>
     <g id="text_5">
      <!-- 100 -->
      <g transform="translate(353.574337 322.182437)scale(0.1 -0.1)">
       <defs>
        <path d="M 12.40625 8.296875 
L 28.515625 8.296875 
L 28.515625 63.921875 
L 10.984375 60.40625 
L 10.984375 69.390625 
L 28.421875 72.90625 
L 38.28125 72.90625 
L 38.28125 8.296875 
L 54.390625 8.296875 
L 54.390625 0 
L 12.40625 0 
z
" id="DejaVuSans-49"/>
       </defs>
       <use xlink:href="#DejaVuSans-49"/>
       <use x="63.623047" xlink:href="#DejaVuSans-48"/>
       <use x="127.246094" xlink:href="#DejaVuSans-48"/>
      </g>
     </g>
    </g>
   </g>
   <g id="matplotlib.axis_2">
    <g id="ytick_1">
     <g id="line2d_6">
      <defs>
       <path d="M 0 0 
L -3.5 0 
" id="ma7fa0cad55" style="stroke:#000000;stroke-width:0.8;"/>
      </defs>
      <g>
       <use style="stroke:#000000;stroke-width:0.8;" x="57.6" xlink:href="#ma7fa0cad55" y="286.117293"/>
      </g>
     </g>
     <g id="text_6">
      <!-- 110 -->
      <g transform="translate(31.5125 289.916511)scale(0.1 -0.1)">
       <use xlink:href="#DejaVuSans-49"/>
       <use x="63.623047" xlink:href="#DejaVuSans-49"/>
       <use x="127.246094" xlink:href="#DejaVuSans-48"/>
      </g>
     </g>
    </g>
    <g id="ytick_2">
     <g id="line2d_7">
      <g>
       <use style="stroke:#000000;stroke-width:0.8;" x="57.6" xlink:href="#ma7fa0cad55" y="250.485544"/>
      </g>
     </g>
     <g id="text_7">
      <!-- 120 -->
      <g transform="translate(31.5125 254.284763)scale(0.1 -0.1)">
       <use xlink:href="#DejaVuSans-49"/>
       <use x="63.623047" xlink:href="#DejaVuSans-50"/>
       <use x="127.246094" xlink:href="#DejaVuSans-48"/>
      </g>
     </g>
    </g>
    <g id="ytick_3">
     <g id="line2d_8">
      <g>
       <use style="stroke:#000000;stroke-width:0.8;" x="57.6" xlink:href="#ma7fa0cad55" y="214.853796"/>
      </g>
     </g>
     <g id="text_8">
      <!-- 130 -->
      <g transform="translate(31.5125 218.653015)scale(0.1 -0.1)">
       <defs>
        <path d="M 40.578125 39.3125 
Q 47.65625 37.796875 51.625 33 
Q 55.609375 28.21875 55.609375 21.1875 
Q 55.609375 10.40625 48.1875 4.484375 
Q 40.765625 -1.421875 27.09375 -1.421875 
Q 22.515625 -1.421875 17.65625 -0.515625 
Q 12.796875 0.390625 7.625 2.203125 
L 7.625 11.71875 
Q 11.71875 9.328125 16.59375 8.109375 
Q 21.484375 6.890625 26.8125 6.890625 
Q 36.078125 6.890625 40.9375 10.546875 
Q 45.796875 14.203125 45.796875 21.1875 
Q 45.796875 27.640625 41.28125 31.265625 
Q 36.765625 34.90625 28.71875 34.90625 
L 20.21875 34.90625 
L 20.21875 43.015625 
L 29.109375 43.015625 
Q 36.375 43.015625 40.234375 45.921875 
Q 44.09375 48.828125 44.09375 54.296875 
Q 44.09375 59.90625 40.109375 62.90625 
Q 36.140625 65.921875 28.71875 65.921875 
Q 24.65625 65.921875 20.015625 65.03125 
Q 15.375 64.15625 9.8125 62.3125 
L 9.8125 71.09375 
Q 15.4375 72.65625 20.34375 73.4375 
Q 25.25 74.21875 29.59375 74.21875 
Q 40.828125 74.21875 47.359375 69.109375 
Q 53.90625 64.015625 53.90625 55.328125 
Q 53.90625 49.265625 50.4375 45.09375 
Q 46.96875 40.921875 40.578125 39.3125 
z
" id="DejaVuSans-51"/>
       </defs>
       <use xlink:href="#DejaVuSans-49"/>
       <use x="63.623047" xlink:href="#DejaVuSans-51"/>
       <use x="127.246094" xlink:href="#DejaVuSans-48"/>
      </g>
     </g>
    </g>
    <g id="ytick_4">
     <g id="line2d_9">
      <g>
       <use style="stroke:#000000;stroke-width:0.8;" x="57.6" xlink:href="#ma7fa0cad55" y="179.222048"/>
      </g>
     </g>
     <g id="text_9">
      <!-- 140 -->
      <g transform="translate(31.5125 183.021267)scale(0.1 -0.1)">
       <use xlink:href="#DejaVuSans-49"/>
       <use x="63.623047" xlink:href="#DejaVuSans-52"/>
       <use x="127.246094" xlink:href="#DejaVuSans-48"/>
      </g>
     </g>
    </g>
    <g id="ytick_5">
     <g id="line2d_10">
      <g>
       <use style="stroke:#000000;stroke-width:0.8;" x="57.6" xlink:href="#ma7fa0cad55" y="143.5903"/>
      </g>
     </g>
     <g id="text_10">
      <!-- 150 -->
      <g transform="translate(31.5125 147.389519)scale(0.1 -0.1)">
       <defs>
        <path d="M 10.796875 72.90625 
L 49.515625 72.90625 
L 49.515625 64.59375 
L 19.828125 64.59375 
L 19.828125 46.734375 
Q 21.96875 47.46875 24.109375 47.828125 
Q 26.265625 48.1875 28.421875 48.1875 
Q 40.625 48.1875 47.75 41.5 
Q 54.890625 34.8125 54.890625 23.390625 
Q 54.890625 11.625 47.5625 5.09375 
Q 40.234375 -1.421875 26.90625 -1.421875 
Q 22.3125 -1.421875 17.546875 -0.640625 
Q 12.796875 0.140625 7.71875 1.703125 
L 7.71875 11.625 
Q 12.109375 9.234375 16.796875 8.0625 
Q 21.484375 6.890625 26.703125 6.890625 
Q 35.15625 6.890625 40.078125 11.328125 
Q 45.015625 15.765625 45.015625 23.390625 
Q 45.015625 31 40.078125 35.4375 
Q 35.15625 39.890625 26.703125 39.890625 
Q 22.75 39.890625 18.8125 39.015625 
Q 14.890625 38.140625 10.796875 36.28125 
z
" id="DejaVuSans-53"/>
       </defs>
       <use xlink:href="#DejaVuSans-49"/>
       <use x="63.623047" xlink:href="#DejaVuSans-53"/>
       <use x="127.246094" xlink:href="#DejaVuSans-48"/>
      </g>
     </g>
    </g>
    <g id="ytick_6">
     <g id="line2d_11">
      <g>
       <use style="stroke:#000000;stroke-width:0.8;" x="57.6" xlink:href="#ma7fa0cad55" y="107.958552"/>
      </g>
     </g>
     <g id="text_11">
      <!-- 160 -->
      <g transform="translate(31.5125 111.757771)scale(0.1 -0.1)">
       <use xlink:href="#DejaVuSans-49"/>
       <use x="63.623047" xlink:href="#DejaVuSans-54"/>
       <use x="127.246094" xlink:href="#DejaVuSans-48"/>
      </g>
     </g>
    </g>
    <g id="ytick_7">
     <g id="line2d_12">
      <g>
       <use style="stroke:#000000;stroke-width:0.8;" x="57.6" xlink:href="#ma7fa0cad55" y="72.326804"/>
      </g>
     </g>
     <g id="text_12">
      <!-- 170 -->
      <g transform="translate(31.5125 76.126022)scale(0.1 -0.1)">
       <defs>
        <path d="M 8.203125 72.90625 
L 55.078125 72.90625 
L 55.078125 68.703125 
L 28.609375 0 
L 18.3125 0 
L 43.21875 64.59375 
L 8.203125 64.59375 
z
" id="DejaVuSans-55"/>
       </defs>
       <use xlink:href="#DejaVuSans-49"/>
       <use x="63.623047" xlink:href="#DejaVuSans-55"/>
       <use x="127.246094" xlink:href="#DejaVuSans-48"/>
      </g>
     </g>
    </g>
   </g>
   <g id="line2d_13">
    <path clip-path="url(#p60e5ba8d6d)" d="M 85.190451 75.889978 
L 89.680051 81.811975 
L 94.137583 87.641329 
L 98.563046 93.37804 
L 102.956441 99.022109 
L 107.317767 104.569973 
L 111.643461 110.028756 
L 115.937086 115.394898 
L 120.198644 120.664833 
L 124.428132 125.842126 
L 128.621989 130.93034 
L 132.783777 135.922348 
L 136.91706 140.821713 
L 141.014711 145.628436 
L 145.07673 150.342516 
L 149.110244 154.963954 
L 153.108126 159.489186 
L 157.07394 163.925339 
L 161.007685 168.268849 
L 164.909361 172.516153 
L 168.778969 176.674378 
L 172.612945 180.736397 
L 176.414853 184.705774 
L 180.184692 188.582508 
L 183.922462 192.3666 
L 187.628164 196.058049 
L 191.298234 199.656856 
L 194.939798 203.16302 
L 198.545731 206.576541 
L 202.116033 209.893857 
L 205.657828 213.122093 
L 209.167556 216.257687 
L 212.641651 219.297075 
L 216.083678 222.243821 
L 219.493636 225.097924 
L 222.867963 227.862948 
L 226.213784 230.531765 
L 229.523973 233.107941 
L 232.802094 235.587911 
L 236.048146 237.978801 
L 239.26213 240.277049 
L 242.440482 242.482654 
L 245.590328 244.592053 
L 248.704543 246.60881 
L 251.78669 248.536488 
L 254.836767 250.36796 
L 257.851213 252.106789 
L 260.83359 253.752976 
L 263.787462 255.30652 
L 266.705702 256.767422 
L 269.588311 258.135681 
L 272.442414 259.411297 
L 275.260885 260.594271 
L 278.047288 261.68104 
L 280.801622 262.678729 
L 283.523888 263.580212 
L 286.214085 264.389053 
L 288.86865 265.108814 
L 291.491146 265.732369 
L 294.081575 266.263283 
L 296.639934 266.701553 
L 299.166225 267.047181 
L 301.656884 267.300166 
L 304.119038 267.456946 
L 306.54556 267.524646 
L 308.93645 267.499704 
L 311.298835 267.378556 
L 313.629152 267.164766 
L 315.923836 266.861896 
L 318.186452 266.46282 
L 320.417 265.971102 
L 322.611915 265.386742 
L 324.778326 264.709738 
L 326.909104 263.940093 
L 329.007814 263.077804 
L 331.074456 262.11931 
L 333.109028 261.071737 
L 335.107969 259.931521 
L 337.078405 258.695099 
L 339.013209 257.366035 
L 340.915944 255.947891 
L 342.786611 254.433542 
L 344.621646 252.82655 
L 346.424613 251.126916 
L 348.199074 249.334639 
L 349.937903 247.44972 
L 351.641101 245.468594 
L 353.315793 243.39839 
L 354.954853 241.235543 
L 356.561845 238.97649 
L 358.136768 236.628358 
L 359.679623 234.18402 
L 361.190409 231.647039 
L 362.665563 229.017416 
L 364.108649 226.295151 
L 365.519666 223.480243 
L 366.898615 220.572692 
L 368.245495 217.572499 
L 369.556744 214.479663 
L 370.839486 211.290621 
L 372.086598 208.012501 
L 373.298077 204.638174 
L 374.481051 201.174768 
L 375.631957 197.615157 
L 376.74723 193.962902 
L 377.830435 190.221569 
L 378.881572 186.38403 
L 379.90064 182.453848 
L 380.884076 178.42746 
L 381.835444 174.311993 
L 382.754743 170.103884 
L 383.641974 165.799569 
L 384.497136 161.406174 
" style="fill:none;stroke:#fea952;stroke-linecap:square;"/>
   </g>
   <g id="line2d_14">
    <path clip-path="url(#p60e5ba8d6d)" d="M 96.548175 67.27943 
L 101.001991 73.154428 
L 105.422617 78.935731 
L 109.810004 84.623306 
L 114.161352 90.213624 
L 118.488395 95.718052 
L 122.772228 101.124265 
L 127.019634 106.432946 
L 131.23639 111.647761 
L 135.426441 116.776993 
L 139.569294 121.803679 
L 143.677604 126.731919 
L 147.763449 131.575347 
L 151.811935 136.324706 
L 155.814767 140.970537 
L 159.791565 145.527386 
L 163.733843 149.990051 
L 167.638103 154.357795 
L 171.503881 158.62679 
L 175.343132 162.806577 
L 179.143894 166.891344 
L 182.905918 170.877688 
L 186.632922 174.769453 
L 190.324743 178.566582 
L 193.981205 182.26902 
L 197.607059 185.881552 
L 201.183728 189.389605 
L 204.738044 192.812473 
L 208.247193 196.135226 
L 211.717142 199.36019 
L 215.153567 202.493341 
L 218.552245 205.530756 
L 221.910722 208.470083 
L 225.231603 211.314278 
L 228.527222 214.073689 
L 231.755626 216.720736 
L 234.967447 219.283974 
L 238.122961 221.741462 
L 241.254633 224.112109 
L 244.338438 226.385246 
L 247.387873 228.567577 
L 250.371172 230.640205 
L 253.337665 232.628851 
L 256.262226 234.524901 
L 259.123841 236.317419 
L 261.958319 238.021991 
L 264.738734 239.628748 
L 267.467971 241.138523 
L 270.167687 242.561632 
L 272.817349 243.891583 
L 275.403998 245.123486 
L 277.958415 246.269259 
L 280.439831 247.315794 
L 282.901342 248.280383 
L 285.282148 249.148602 
L 287.627663 249.931092 
L 289.943903 250.63304 
L 292.165622 251.242689 
L 294.35278 251.769902 
L 296.488136 252.215226 
L 298.571883 252.580398 
L 300.606513 252.867442 
L 302.562602 253.076274 
L 304.516536 253.209791 
L 306.396881 253.272723 
L 308.206502 253.265709 
L 309.996717 253.185462 
L 311.764147 253.034614 
L 313.448187 252.82585 
L 315.118154 252.544308 
L 316.750178 252.198163 
L 318.360692 251.782825 
L 319.936374 251.304704 
L 321.492525 250.756766 
L 323.011082 250.148046 
L 324.549995 249.447655 
L 326.047218 248.6915 
L 327.53248 247.858767 
L 329.008432 246.947122 
L 330.495869 245.938247 
L 331.948171 244.870054 
L 333.396722 243.711163 
L 334.845041 242.45556 
L 336.296218 241.099201 
L 337.723105 239.670607 
L 339.13018 238.158188 
L 340.560155 236.504662 
L 341.956443 234.789986 
L 343.340886 232.973872 
L 344.725036 231.037385 
L 346.084182 229.020821 
L 347.43382 226.891575 
L 348.760017 224.673892 
L 350.07281 222.341938 
L 351.367105 219.90825 
L 352.641856 217.372752 
L 353.896076 214.735448 
L 355.123403 212.009215 
L 356.333658 209.16088 
L 357.518221 206.222749 
L 358.672264 203.196372 
L 359.810451 200.03129 
L 360.91958 196.790028 
L 362.000643 193.452619 
L 363.05678 189.999191 
L 364.084079 186.456318 
L 365.085116 182.806707 
L 366.054954 179.07207 
L 366.997588 175.217337 
L 367.911136 171.270104 
L 368.795508 167.226525 
L 369.651836 163.076428 
L 370.506998 158.683033 
" style="fill:none;stroke:#ffffff;stroke-linecap:square;"/>
   </g>
   <g id="line2d_15">
    <path clip-path="url(#p60e5ba8d6d)" d="M 73.832727 84.500527 
L 78.358112 90.469522 
L 82.852549 96.346927 
L 87.316088 102.132775 
L 91.75153 107.830594 
L 96.147138 113.421893 
L 100.514693 118.933248 
L 104.854539 124.356849 
L 109.160897 129.681905 
L 113.429823 134.907259 
L 117.674684 140.057001 
L 121.88995 145.112776 
L 126.070671 150.068079 
L 130.217487 154.932166 
L 134.338693 159.714496 
L 138.428923 164.400522 
L 142.482409 168.988321 
L 146.509777 173.492883 
L 150.511489 177.910908 
L 154.47559 182.225729 
L 158.414044 186.457413 
L 162.319972 190.595107 
L 166.196783 194.642096 
L 170.04464 198.598435 
L 173.863719 202.46418 
L 177.649269 206.234546 
L 181.41274 209.924107 
L 185.141553 213.513567 
L 188.844269 217.017857 
L 192.514924 220.427524 
L 196.16209 223.750846 
L 199.782866 226.984618 
L 203.37258 230.124067 
L 206.935753 233.173364 
L 210.46005 236.122159 
L 213.980299 239.005159 
L 217.46012 241.779557 
L 220.924985 244.47442 
L 224.349555 247.063712 
L 227.757855 249.572355 
L 231.136387 251.98652 
L 234.509792 254.325103 
L 237.842992 256.555256 
L 241.146861 258.69272 
L 244.449538 260.755557 
L 247.715216 262.713928 
L 250.963692 264.58483 
L 254.19921 266.367429 
L 257.407238 268.051408 
L 260.594056 269.64326 
L 263.772623 271.147876 
L 266.926413 272.553336 
L 270.081939 273.872749 
L 273.193234 275.081696 
L 276.321096 276.208855 
L 279.420113 277.229332 
L 282.484266 278.145066 
L 285.571677 278.974938 
L 288.629513 279.694837 
L 291.675013 280.311339 
L 294.707985 280.822708 
L 297.725937 281.22692 
L 300.751166 281.524059 
L 303.72154 281.704101 
L 306.694239 281.77657 
L 309.666399 281.733699 
L 312.600954 281.57165 
L 315.494156 281.294918 
L 318.399485 280.897942 
L 321.25475 280.381333 
L 324.083821 279.744041 
L 326.863139 278.990658 
L 329.620278 278.114772 
L 332.325683 277.123419 
L 335.004547 276.007562 
L 337.598916 274.790966 
L 340.170839 273.451974 
L 342.683459 272.004275 
L 345.148378 270.443076 
L 347.530549 268.793823 
L 349.883717 267.025729 
L 352.1765 265.155921 
L 354.398251 263.19754 
L 356.553007 261.154631 
L 358.675043 258.998671 
L 360.745626 256.741251 
L 362.722046 254.432526 
L 364.675142 252.006793 
L 366.56882 249.497213 
L 368.398654 246.915594 
L 370.189354 244.235894 
L 371.925426 241.476464 
L 373.620802 238.620186 
L 375.258317 235.692894 
L 376.850193 232.682051 
L 378.397477 229.587733 
L 379.901154 226.409936 
L 381.367588 223.135782 
L 382.779829 219.798446 
L 384.160752 216.358494 
L 385.500931 212.828629 
L 386.785703 209.245059 
L 388.042522 205.559508 
L 389.26327 201.777694 
L 390.437681 197.926614 
L 391.576792 193.98682 
L 392.678028 189.961352 
L 393.746326 185.835626 
L 394.770564 181.637583 
L 395.759752 177.353883 
L 396.713978 172.981243 
L 397.632111 168.52271 
L 398.487273 164.129315 
" style="fill:none;stroke:#ffffff;stroke-linecap:square;"/>
   </g>
   <g id="patch_3">
    <path d="M 57.6 307.584 
L 57.6 41.472 
" style="fill:none;stroke:#000000;stroke-linecap:square;stroke-linejoin:miter;stroke-width:0.8;"/>
   </g>
   <g id="patch_4">
    <path d="M 414.72 307.584 
L 414.72 41.472 
" style="fill:none;stroke:#000000;stroke-linecap:square;stroke-linejoin:miter;stroke-width:0.8;"/>
   </g>
   <g id="patch_5">
    <path d="M 57.6 307.584 
L 414.72 307.584 
" style="fill:none;stroke:#000000;stroke-linecap:square;stroke-linejoin:miter;stroke-width:0.8;"/>
   </g>
   <g id="patch_6">
    <path d="M 57.6 41.472 
L 414.72 41.472 
" style="fill:none;stroke:#000000;stroke-linecap:square;stroke-linejoin:miter;stroke-width:0.8;"/>
   </g>
  </g>
 </g>
 <defs>
  <clipPath id="p60e5ba8d6d">
   <rect height="266.112" width="357.12" x="57.6" y="41.472"/>
  </clipPath>
 </defs>
</svg>
