<?xml version="1.0" encoding="utf-8" standalone="no"?>
<!DOCTYPE svg PUBLIC "-//W3C//DTD SVG 1.1//EN"
  "http://www.w3.org/Graphics/SVG/1.1/DTD/svg11.dtd">
<!-- Created with matplotlib (https://matplotlib.org/) -->
<svg height="345.6pt" version="1.1" viewBox="0 0 460.8 345.6" width="460.8pt" xmlns="http://www.w3.org/2000/svg" xmlns:xlink="http://www.w3.org/1999/xlink">
 <metadata>
  <rdf:RDF xmlns:cc="http://creativecommons.org/ns#" xmlns:dc="http://purl.org/dc/elements/1.1/" xmlns:rdf="http://www.w3.org/1999/02/22-rdf-syntax-ns#">
   <cc:Work>
    <dc:type rdf:resource="http://purl.org/dc/dcmitype/StillImage"/>
    <dc:date>2021-07-12T19:31:02.813552</dc:date>
    <dc:format>image/svg+xml</dc:format>
    <dc:creator>
     <cc:Agent>
      <dc:title>Matplotlib v3.3.3, https://matplotlib.org/</dc:title>
     </cc:Agent>
    </dc:creator>
   </cc:Work>
  </rdf:RDF>
 </metadata>
 <defs>
  <style type="text/css">*{stroke-linecap:butt;stroke-linejoin:round;}</style>
 </defs>
 <g id="figure_1">
  <g id="patch_1">
   <path d="M 0 345.6 
L 460.8 345.6 
L 460.8 0 
L 0 0 
z
" style="fill:#ffffff;"/>
  </g>
  <g id="axes_1">
   <g id="patch_2">
    <path d="M 57.6 307.584 
L 414.72 307.584 
L 414.72 41.472 
L 57.6 41.472 
z
" style="fill:#7d9051;"/>
   </g>
   <g id="matplotlib.axis_1">
    <g id="xtick_1">
     <g id="line2d_1">
      <defs>
       <path d="M 0 0 
L 0 3.5 
" id="mecfc3049ed" style="stroke:#000000;stroke-width:0.8;"/>
      </defs>
      <g>
       <use style="stroke:#000000;stroke-width:0.8;" x="125.835971" xlink:href="#mecfc3049ed" y="307.584"/>
      </g>
     </g>
     <g id="text_1">
      <!-- 100 -->
      <g transform="translate(116.292221 322.182437)scale(0.1 -0.1)">
       <defs>
        <path d="M 12.40625 8.296875 
L 28.515625 8.296875 
L 28.515625 63.921875 
L 10.984375 60.40625 
L 10.984375 69.390625 
L 28.421875 72.90625 
L 38.28125 72.90625 
L 38.28125 8.296875 
L 54.390625 8.296875 
L 54.390625 0 
L 12.40625 0 
z
" id="DejaVuSans-49"/>
        <path d="M 31.78125 66.40625 
Q 24.171875 66.40625 20.328125 58.90625 
Q 16.5 51.421875 16.5 36.375 
Q 16.5 21.390625 20.328125 13.890625 
Q 24.171875 6.390625 31.78125 6.390625 
Q 39.453125 6.390625 43.28125 13.890625 
Q 47.125 21.390625 47.125 36.375 
Q 47.125 51.421875 43.28125 58.90625 
Q 39.453125 66.40625 31.78125 66.40625 
z
M 31.78125 74.21875 
Q 44.046875 74.21875 50.515625 64.515625 
Q 56.984375 54.828125 56.984375 36.375 
Q 56.984375 17.96875 50.515625 8.265625 
Q 44.046875 -1.421875 31.78125 -1.421875 
Q 19.53125 -1.421875 13.0625 8.265625 
Q 6.59375 17.96875 6.59375 36.375 
Q 6.59375 54.828125 13.0625 64.515625 
Q 19.53125 74.21875 31.78125 74.21875 
z
" id="DejaVuSans-48"/>
       </defs>
       <use xlink:href="#DejaVuSans-49"/>
       <use x="63.623047" xlink:href="#DejaVuSans-48"/>
       <use x="127.246094" xlink:href="#DejaVuSans-48"/>
      </g>
     </g>
    </g>
    <g id="xtick_2">
     <g id="line2d_2">
      <g>
       <use style="stroke:#000000;stroke-width:0.8;" x="204.636839" xlink:href="#mecfc3049ed" y="307.584"/>
      </g>
     </g>
     <g id="text_2">
      <!-- 120 -->
      <g transform="translate(195.093089 322.182437)scale(0.1 -0.1)">
       <defs>
        <path d="M 19.1875 8.296875 
L 53.609375 8.296875 
L 53.609375 0 
L 7.328125 0 
L 7.328125 8.296875 
Q 12.9375 14.109375 22.625 23.890625 
Q 32.328125 33.6875 34.8125 36.53125 
Q 39.546875 41.84375 41.421875 45.53125 
Q 43.3125 49.21875 43.3125 52.78125 
Q 43.3125 58.59375 39.234375 62.25 
Q 35.15625 65.921875 28.609375 65.921875 
Q 23.96875 65.921875 18.8125 64.3125 
Q 13.671875 62.703125 7.8125 59.421875 
L 7.8125 69.390625 
Q 13.765625 71.78125 18.9375 73 
Q 24.125 74.21875 28.421875 74.21875 
Q 39.75 74.21875 46.484375 68.546875 
Q 53.21875 62.890625 53.21875 53.421875 
Q 53.21875 48.921875 51.53125 44.890625 
Q 49.859375 40.875 45.40625 35.40625 
Q 44.1875 33.984375 37.640625 27.21875 
Q 31.109375 20.453125 19.1875 8.296875 
z
" id="DejaVuSans-50"/>
       </defs>
       <use xlink:href="#DejaVuSans-49"/>
       <use x="63.623047" xlink:href="#DejaVuSans-50"/>
       <use x="127.246094" xlink:href="#DejaVuSans-48"/>
      </g>
     </g>
    </g>
    <g id="xtick_3">
     <g id="line2d_3">
      <g>
       <use style="stroke:#000000;stroke-width:0.8;" x="283.437706" xlink:href="#mecfc3049ed" y="307.584"/>
      </g>
     </g>
     <g id="text_3">
      <!-- 140 -->
      <g transform="translate(273.893956 322.182437)scale(0.1 -0.1)">
       <defs>
        <path d="M 37.796875 64.3125 
L 12.890625 25.390625 
L 37.796875 25.390625 
z
M 35.203125 72.90625 
L 47.609375 72.90625 
L 47.609375 25.390625 
L 58.015625 25.390625 
L 58.015625 17.1875 
L 47.609375 17.1875 
L 47.609375 0 
L 37.796875 0 
L 37.796875 17.1875 
L 4.890625 17.1875 
L 4.890625 26.703125 
z
" id="DejaVuSans-52"/>
       </defs>
       <use xlink:href="#DejaVuSans-49"/>
       <use x="63.623047" xlink:href="#DejaVuSans-52"/>
       <use x="127.246094" xlink:href="#DejaVuSans-48"/>
      </g>
     </g>
    </g>
    <g id="xtick_4">
     <g id="line2d_4">
      <g>
       <use style="stroke:#000000;stroke-width:0.8;" x="362.238573" xlink:href="#mecfc3049ed" y="307.584"/>
      </g>
     </g>
     <g id="text_4">
      <!-- 160 -->
      <g transform="translate(352.694823 322.182437)scale(0.1 -0.1)">
       <defs>
        <path d="M 33.015625 40.375 
Q 26.375 40.375 22.484375 35.828125 
Q 18.609375 31.296875 18.609375 23.390625 
Q 18.609375 15.53125 22.484375 10.953125 
Q 26.375 6.390625 33.015625 6.390625 
Q 39.65625 6.390625 43.53125 10.953125 
Q 47.40625 15.53125 47.40625 23.390625 
Q 47.40625 31.296875 43.53125 35.828125 
Q 39.65625 40.375 33.015625 40.375 
z
M 52.59375 71.296875 
L 52.59375 62.3125 
Q 48.875 64.0625 45.09375 64.984375 
Q 41.3125 65.921875 37.59375 65.921875 
Q 27.828125 65.921875 22.671875 59.328125 
Q 17.53125 52.734375 16.796875 39.40625 
Q 19.671875 43.65625 24.015625 45.921875 
Q 28.375 48.1875 33.59375 48.1875 
Q 44.578125 48.1875 50.953125 41.515625 
Q 57.328125 34.859375 57.328125 23.390625 
Q 57.328125 12.15625 50.6875 5.359375 
Q 44.046875 -1.421875 33.015625 -1.421875 
Q 20.359375 -1.421875 13.671875 8.265625 
Q 6.984375 17.96875 6.984375 36.375 
Q 6.984375 53.65625 15.1875 63.9375 
Q 23.390625 74.21875 37.203125 74.21875 
Q 40.921875 74.21875 44.703125 73.484375 
Q 48.484375 72.75 52.59375 71.296875 
z
" id="DejaVuSans-54"/>
       </defs>
       <use xlink:href="#DejaVuSans-49"/>
       <use x="63.623047" xlink:href="#DejaVuSans-54"/>
       <use x="127.246094" xlink:href="#DejaVuSans-48"/>
      </g>
     </g>
    </g>
   </g>
   <g id="matplotlib.axis_2">
    <g id="ytick_1">
     <g id="line2d_5">
      <defs>
       <path d="M 0 0 
L -3.5 0 
" id="m816cecc3ba" style="stroke:#000000;stroke-width:0.8;"/>
      </defs>
      <g>
       <use style="stroke:#000000;stroke-width:0.8;" x="57.6" xlink:href="#m816cecc3ba" y="272.890353"/>
      </g>
     </g>
     <g id="text_5">
      <!-- 40 -->
      <g transform="translate(37.875 276.689572)scale(0.1 -0.1)">
       <use xlink:href="#DejaVuSans-52"/>
       <use x="63.623047" xlink:href="#DejaVuSans-48"/>
      </g>
     </g>
    </g>
    <g id="ytick_2">
     <g id="line2d_6">
      <g>
       <use style="stroke:#000000;stroke-width:0.8;" x="57.6" xlink:href="#m816cecc3ba" y="233.489919"/>
      </g>
     </g>
     <g id="text_6">
      <!-- 50 -->
      <g transform="translate(37.875 237.289138)scale(0.1 -0.1)">
       <defs>
        <path d="M 10.796875 72.90625 
L 49.515625 72.90625 
L 49.515625 64.59375 
L 19.828125 64.59375 
L 19.828125 46.734375 
Q 21.96875 47.46875 24.109375 47.828125 
Q 26.265625 48.1875 28.421875 48.1875 
Q 40.625 48.1875 47.75 41.5 
Q 54.890625 34.8125 54.890625 23.390625 
Q 54.890625 11.625 47.5625 5.09375 
Q 40.234375 -1.421875 26.90625 -1.421875 
Q 22.3125 -1.421875 17.546875 -0.640625 
Q 12.796875 0.140625 7.71875 1.703125 
L 7.71875 11.625 
Q 12.109375 9.234375 16.796875 8.0625 
Q 21.484375 6.890625 26.703125 6.890625 
Q 35.15625 6.890625 40.078125 11.328125 
Q 45.015625 15.765625 45.015625 23.390625 
Q 45.015625 31 40.078125 35.4375 
Q 35.15625 39.890625 26.703125 39.890625 
Q 22.75 39.890625 18.8125 39.015625 
Q 14.890625 38.140625 10.796875 36.28125 
z
" id="DejaVuSans-53"/>
       </defs>
       <use xlink:href="#DejaVuSans-53"/>
       <use x="63.623047" xlink:href="#DejaVuSans-48"/>
      </g>
     </g>
    </g>
    <g id="ytick_3">
     <g id="line2d_7">
      <g>
       <use style="stroke:#000000;stroke-width:0.8;" x="57.6" xlink:href="#m816cecc3ba" y="194.089486"/>
      </g>
     </g>
     <g id="text_7">
      <!-- 60 -->
      <g transform="translate(37.875 197.888704)scale(0.1 -0.1)">
       <use xlink:href="#DejaVuSans-54"/>
       <use x="63.623047" xlink:href="#DejaVuSans-48"/>
      </g>
     </g>
    </g>
    <g id="ytick_4">
     <g id="line2d_8">
      <g>
       <use style="stroke:#000000;stroke-width:0.8;" x="57.6" xlink:href="#m816cecc3ba" y="154.689052"/>
      </g>
     </g>
     <g id="text_8">
      <!-- 70 -->
      <g transform="translate(37.875 158.488271)scale(0.1 -0.1)">
       <defs>
        <path d="M 8.203125 72.90625 
L 55.078125 72.90625 
L 55.078125 68.703125 
L 28.609375 0 
L 18.3125 0 
L 43.21875 64.59375 
L 8.203125 64.59375 
z
" id="DejaVuSans-55"/>
       </defs>
       <use xlink:href="#DejaVuSans-55"/>
       <use x="63.623047" xlink:href="#DejaVuSans-48"/>
      </g>
     </g>
    </g>
    <g id="ytick_5">
     <g id="line2d_9">
      <g>
       <use style="stroke:#000000;stroke-width:0.8;" x="57.6" xlink:href="#m816cecc3ba" y="115.288618"/>
      </g>
     </g>
     <g id="text_9">
      <!-- 80 -->
      <g transform="translate(37.875 119.087837)scale(0.1 -0.1)">
       <defs>
        <path d="M 31.78125 34.625 
Q 24.75 34.625 20.71875 30.859375 
Q 16.703125 27.09375 16.703125 20.515625 
Q 16.703125 13.921875 20.71875 10.15625 
Q 24.75 6.390625 31.78125 6.390625 
Q 38.8125 6.390625 42.859375 10.171875 
Q 46.921875 13.96875 46.921875 20.515625 
Q 46.921875 27.09375 42.890625 30.859375 
Q 38.875 34.625 31.78125 34.625 
z
M 21.921875 38.8125 
Q 15.578125 40.375 12.03125 44.71875 
Q 8.5 49.078125 8.5 55.328125 
Q 8.5 64.0625 14.71875 69.140625 
Q 20.953125 74.21875 31.78125 74.21875 
Q 42.671875 74.21875 48.875 69.140625 
Q 55.078125 64.0625 55.078125 55.328125 
Q 55.078125 49.078125 51.53125 44.71875 
Q 48 40.375 41.703125 38.8125 
Q 48.828125 37.15625 52.796875 32.3125 
Q 56.78125 27.484375 56.78125 20.515625 
Q 56.78125 9.90625 50.3125 4.234375 
Q 43.84375 -1.421875 31.78125 -1.421875 
Q 19.734375 -1.421875 13.25 4.234375 
Q 6.78125 9.90625 6.78125 20.515625 
Q 6.78125 27.484375 10.78125 32.3125 
Q 14.796875 37.15625 21.921875 38.8125 
z
M 18.3125 54.390625 
Q 18.3125 48.734375 21.84375 45.5625 
Q 25.390625 42.390625 31.78125 42.390625 
Q 38.140625 42.390625 41.71875 45.5625 
Q 45.3125 48.734375 45.3125 54.390625 
Q 45.3125 60.0625 41.71875 63.234375 
Q 38.140625 66.40625 31.78125 66.40625 
Q 25.390625 66.40625 21.84375 63.234375 
Q 18.3125 60.0625 18.3125 54.390625 
z
" id="DejaVuSans-56"/>
       </defs>
       <use xlink:href="#DejaVuSans-56"/>
       <use x="63.623047" xlink:href="#DejaVuSans-48"/>
      </g>
     </g>
    </g>
    <g id="ytick_6">
     <g id="line2d_10">
      <g>
       <use style="stroke:#000000;stroke-width:0.8;" x="57.6" xlink:href="#m816cecc3ba" y="75.888185"/>
      </g>
     </g>
     <g id="text_10">
      <!-- 90 -->
      <g transform="translate(37.875 79.687403)scale(0.1 -0.1)">
       <defs>
        <path d="M 10.984375 1.515625 
L 10.984375 10.5 
Q 14.703125 8.734375 18.5 7.8125 
Q 22.3125 6.890625 25.984375 6.890625 
Q 35.75 6.890625 40.890625 13.453125 
Q 46.046875 20.015625 46.78125 33.40625 
Q 43.953125 29.203125 39.59375 26.953125 
Q 35.25 24.703125 29.984375 24.703125 
Q 19.046875 24.703125 12.671875 31.3125 
Q 6.296875 37.9375 6.296875 49.421875 
Q 6.296875 60.640625 12.9375 67.421875 
Q 19.578125 74.21875 30.609375 74.21875 
Q 43.265625 74.21875 49.921875 64.515625 
Q 56.59375 54.828125 56.59375 36.375 
Q 56.59375 19.140625 48.40625 8.859375 
Q 40.234375 -1.421875 26.421875 -1.421875 
Q 22.703125 -1.421875 18.890625 -0.6875 
Q 15.09375 0.046875 10.984375 1.515625 
z
M 30.609375 32.421875 
Q 37.25 32.421875 41.125 36.953125 
Q 45.015625 41.5 45.015625 49.421875 
Q 45.015625 57.28125 41.125 61.84375 
Q 37.25 66.40625 30.609375 66.40625 
Q 23.96875 66.40625 20.09375 61.84375 
Q 16.21875 57.28125 16.21875 49.421875 
Q 16.21875 41.5 20.09375 36.953125 
Q 23.96875 32.421875 30.609375 32.421875 
z
" id="DejaVuSans-57"/>
       </defs>
       <use xlink:href="#DejaVuSans-57"/>
       <use x="63.623047" xlink:href="#DejaVuSans-48"/>
      </g>
     </g>
    </g>
   </g>
   <g id="line2d_11">
    <path clip-path="url(#p195669da1a)" d="M 114.015841 68.008098 
L 118.034685 69.765357 
L 122.029889 71.542317 
L 125.993573 73.346857 
L 129.929676 75.171097 
L 133.838199 77.018977 
L 137.719142 78.890498 
L 141.568564 80.785659 
L 145.394347 82.70446 
L 149.188608 84.646901 
L 152.95529 86.609043 
L 156.694391 88.594824 
L 160.405912 90.608187 
L 164.089852 92.641249 
L 167.746213 94.697952 
L 171.374993 96.774355 
L 174.972252 98.878338 
L 178.545871 101.002021 
L 182.08797 103.153285 
L 185.602489 105.324249 
L 189.089427 107.518853 
L 192.548786 109.737097 
L 195.976623 111.975042 
L 199.380821 114.240567 
L 202.753498 116.525792 
L 206.102535 118.838597 
L 209.420051 121.171103 
L 212.709987 123.527249 
L 215.972343 125.907035 
L 219.207119 128.310462 
L 222.410374 130.733588 
L 225.589989 133.184295 
L 228.738084 135.654702 
L 231.862538 138.14875 
L 234.955472 140.666438 
L 238.020826 143.207766 
L 241.0586 145.772734 
L 244.068793 148.357402 
L 247.047465 150.969651 
L 250.002498 153.6016 
L 252.92601 156.257189 
L 255.825882 158.936419 
L 258.694234 161.639288 
L 261.535005 164.365799 
L 264.348196 167.112009 
L 267.129866 169.885799 
L 269.887897 172.67929 
L 272.614407 175.496421 
L 275.317277 178.337192 
L 277.988626 181.201604 
L 280.632395 184.089656 
L 283.248584 186.997408 
L 285.837192 189.93274 
L 288.398221 192.887772 
L 290.927728 195.866445 
L 293.433596 198.868758 
L 295.907943 201.894712 
L 298.35471 204.940365 
L 300.773897 208.013599 
L 303.165503 211.106533 
L 305.529529 214.227047 
L 307.865975 217.367262 
L 310.17484 220.531117 
L 312.452185 223.718612 
L 314.70195 226.925807 
L 316.928075 230.160583 
L 319.122679 233.415059 
L 321.285763 236.693175 
L 323.425206 239.998871 
L 325.537069 243.324268 
L 327.621352 246.669364 
L 329.674115 250.042042 
L 331.699297 253.438359 
L 333.696899 256.854377 
L 335.666921 260.294034 
L 337.609362 263.757333 
L 339.524223 267.244271 
L 341.411504 270.75485 
L 343.267265 274.289068 
L 345.099385 277.842988 
L 346.899985 281.424487 
L 348.673004 285.025687 
L 350.418443 288.650527 
" style="fill:none;stroke:#fea952;stroke-linecap:square;"/>
   </g>
   <g id="line2d_12">
    <path clip-path="url(#p195669da1a)" d="M 120.329845 53.568 
L 124.439451 55.365286 
L 128.560088 57.198692 
L 132.620686 59.04775 
L 136.665894 60.923064 
L 140.683874 62.82321 
L 144.680338 64.75102 
L 148.634133 66.698047 
L 152.576214 68.67578 
L 156.469733 70.66948 
L 160.34747 72.690036 
L 164.209222 74.741652 
L 168.020855 76.809792 
L 171.816455 78.905067 
L 175.573444 81.018861 
L 179.331832 83.170246 
L 183.023608 85.329953 
L 186.727012 87.531609 
L 190.370469 89.744956 
L 193.99732 91.985962 
L 197.596581 94.251924 
L 201.164537 96.540435 
L 204.708279 98.85478 
L 208.221233 101.193338 
L 211.709266 103.557473 
L 215.1671 105.946091 
L 218.596426 108.357937 
L 221.997953 110.794741 
L 225.371648 113.256496 
L 228.715089 115.741389 
L 232.031478 118.250903 
L 235.319424 120.785861 
L 238.570121 123.337474 
L 241.811921 125.926113 
L 245.014179 128.53361 
L 248.18838 131.166008 
L 251.325492 133.815561 
L 254.460248 136.508322 
L 257.529637 139.200745 
L 260.599242 141.935749 
L 263.621047 144.681385 
L 266.634227 147.466338 
L 269.607342 150.268839 
L 272.544065 153.088225 
L 275.476503 155.952087 
L 278.344946 158.813083 
L 281.212681 161.7188 
L 284.032217 164.632873 
L 286.843051 167.588258 
L 289.613542 170.559969 
L 292.348418 173.54841 
L 295.068936 176.573285 
L 297.746983 179.610921 
L 300.41122 182.686257 
L 303.027216 185.76766 
L 305.634128 188.892282 
L 308.194386 192.024231 
L 310.738404 195.192176 
L 313.241541 198.373013 
L 315.727814 201.589631 
L 318.173747 204.819241 
L 320.596696 208.076848 
L 322.99835 211.369203 
L 325.35448 214.667985 
L 327.68484 217.991175 
L 329.994907 221.349172 
L 332.27714 224.735011 
L 334.516688 228.130133 
L 336.729241 231.549863 
L 338.913164 234.989811 
L 341.083973 238.475409 
L 343.210471 241.970479 
L 345.304058 245.482634 
L 347.372843 249.021648 
L 349.412697 252.584515 
L 351.423618 256.171199 
L 353.4056 259.781668 
L 355.365048 263.428072 
L 357.27555 267.067502 
L 359.180188 270.76386 
L 361.039361 274.463087 
L 362.872723 278.188213 
L 364.618162 281.813053 
" style="fill:none;stroke:#ffffff;stroke-linecap:square;"/>
   </g>
   <g id="line2d_13">
    <path clip-path="url(#p195669da1a)" d="M 107.701838 82.448196 
L 111.62992 84.165428 
L 115.49969 85.885941 
L 119.36646 87.645963 
L 123.193459 89.41913 
L 126.992525 91.214744 
L 130.757946 93.029975 
L 134.502996 94.87327 
L 138.212479 96.733139 
L 141.907483 98.624322 
L 145.563109 100.528049 
L 149.17956 102.447997 
L 152.790969 104.406582 
L 156.36325 106.377431 
L 159.918981 108.377042 
L 163.418153 110.378463 
L 166.920896 112.426723 
L 170.364731 114.472433 
L 173.805471 116.561613 
L 177.207658 118.662535 
L 180.582274 120.785782 
L 183.933034 122.933759 
L 187.244968 125.095303 
L 190.540409 127.287796 
L 193.79773 129.49411 
L 197.03797 131.731104 
L 200.243676 133.984269 
L 203.422022 136.259757 
L 206.573039 138.557574 
L 209.699149 140.879534 
L 212.789271 143.216274 
L 215.860555 145.582729 
L 218.906047 147.971931 
L 221.913156 150.371387 
L 224.896766 152.799265 
L 227.853272 155.249523 
L 230.791707 157.729907 
L 233.677337 160.206483 
L 236.565294 162.738557 
L 239.405754 165.267451 
L 242.230973 167.832994 
L 245.017537 170.406499 
L 247.781125 173.009738 
L 250.525945 175.643372 
L 253.219889 178.27193 
L 255.914787 180.958516 
L 258.563113 183.63978 
L 261.196596 186.359969 
L 263.791502 189.086127 
L 266.36371 191.843239 
L 268.916372 194.630902 
L 271.428232 197.42153 
L 273.927401 200.254559 
L 276.385221 203.089288 
L 278.828241 205.96523 
L 281.233064 208.845235 
L 283.6215 211.765192 
L 285.971017 214.688555 
L 288.306252 217.654185 
L 290.603193 220.623435 
L 292.885311 223.634853 
L 295.135253 226.657676 
L 297.351331 229.693031 
L 299.54989 232.769239 
L 301.71906 235.860439 
L 303.861242 238.971994 
L 305.968218 242.095106 
L 308.054838 245.256217 
L 310.121172 248.447879 
L 312.160975 251.658724 
L 314.158731 254.86332 
L 316.137759 258.113604 
L 318.094537 261.394084 
L 320.020956 264.687105 
L 321.921144 268.003554 
L 323.795107 271.343466 
L 325.642847 274.706874 
L 327.45796 278.081627 
L 329.258979 281.510635 
L 331.018582 284.922115 
L 332.760608 288.385887 
L 334.473285 291.86316 
L 336.218724 295.488 
" style="fill:none;stroke:#ffffff;stroke-linecap:square;"/>
   </g>
   <g id="patch_3">
    <path d="M 57.6 307.584 
L 57.6 41.472 
" style="fill:none;stroke:#000000;stroke-linecap:square;stroke-linejoin:miter;stroke-width:0.8;"/>
   </g>
   <g id="patch_4">
    <path d="M 414.72 307.584 
L 414.72 41.472 
" style="fill:none;stroke:#000000;stroke-linecap:square;stroke-linejoin:miter;stroke-width:0.8;"/>
   </g>
   <g id="patch_5">
    <path d="M 57.6 307.584 
L 414.72 307.584 
" style="fill:none;stroke:#000000;stroke-linecap:square;stroke-linejoin:miter;stroke-width:0.8;"/>
   </g>
   <g id="patch_6">
    <path d="M 57.6 41.472 
L 414.72 41.472 
" style="fill:none;stroke:#000000;stroke-linecap:square;stroke-linejoin:miter;stroke-width:0.8;"/>
   </g>
  </g>
 </g>
 <defs>
  <clipPath id="p195669da1a">
   <rect height="266.112" width="357.12" x="57.6" y="41.472"/>
  </clipPath>
 </defs>
</svg>
