<?xml version="1.0" encoding="utf-8" standalone="no"?>
<!DOCTYPE svg PUBLIC "-//W3C//DTD SVG 1.1//EN"
  "http://www.w3.org/Graphics/SVG/1.1/DTD/svg11.dtd">
<!-- Created with matplotlib (https://matplotlib.org/) -->
<svg height="345.6pt" version="1.1" viewBox="0 0 460.8 345.6" width="460.8pt" xmlns="http://www.w3.org/2000/svg" xmlns:xlink="http://www.w3.org/1999/xlink">
 <metadata>
  <rdf:RDF xmlns:cc="http://creativecommons.org/ns#" xmlns:dc="http://purl.org/dc/elements/1.1/" xmlns:rdf="http://www.w3.org/1999/02/22-rdf-syntax-ns#">
   <cc:Work>
    <dc:type rdf:resource="http://purl.org/dc/dcmitype/StillImage"/>
    <dc:date>2021-07-27T15:24:26.651745</dc:date>
    <dc:format>image/svg+xml</dc:format>
    <dc:creator>
     <cc:Agent>
      <dc:title>Matplotlib v3.3.3, https://matplotlib.org/</dc:title>
     </cc:Agent>
    </dc:creator>
   </cc:Work>
  </rdf:RDF>
 </metadata>
 <defs>
  <style type="text/css">*{stroke-linecap:butt;stroke-linejoin:round;}</style>
 </defs>
 <g id="figure_1">
  <g id="patch_1">
   <path d="M 0 345.6 
L 460.8 345.6 
L 460.8 0 
L 0 0 
z
" style="fill:#ffffff;"/>
  </g>
  <g id="axes_1">
   <g id="patch_2">
    <path d="M 57.6 307.584 
L 414.72 307.584 
L 414.72 41.472 
L 57.6 41.472 
z
" style="fill:#7d9051;"/>
   </g>
   <g id="matplotlib.axis_1">
    <g id="xtick_1">
     <g id="line2d_1">
      <defs>
       <path d="M 0 0 
L 0 3.5 
" id="m8cbb3dba94" style="stroke:#000000;stroke-width:0.8;"/>
      </defs>
      <g>
       <use style="stroke:#000000;stroke-width:0.8;" x="92.888963" xlink:href="#m8cbb3dba94" y="307.584"/>
      </g>
     </g>
     <g id="text_1">
      <!-- 20 -->
      <g transform="translate(86.526463 322.182437)scale(0.1 -0.1)">
       <defs>
        <path d="M 19.1875 8.296875 
L 53.609375 8.296875 
L 53.609375 0 
L 7.328125 0 
L 7.328125 8.296875 
Q 12.9375 14.109375 22.625 23.890625 
Q 32.328125 33.6875 34.8125 36.53125 
Q 39.546875 41.84375 41.421875 45.53125 
Q 43.3125 49.21875 43.3125 52.78125 
Q 43.3125 58.59375 39.234375 62.25 
Q 35.15625 65.921875 28.609375 65.921875 
Q 23.96875 65.921875 18.8125 64.3125 
Q 13.671875 62.703125 7.8125 59.421875 
L 7.8125 69.390625 
Q 13.765625 71.78125 18.9375 73 
Q 24.125 74.21875 28.421875 74.21875 
Q 39.75 74.21875 46.484375 68.546875 
Q 53.21875 62.890625 53.21875 53.421875 
Q 53.21875 48.921875 51.53125 44.890625 
Q 49.859375 40.875 45.40625 35.40625 
Q 44.1875 33.984375 37.640625 27.21875 
Q 31.109375 20.453125 19.1875 8.296875 
z
" id="DejaVuSans-50"/>
        <path d="M 31.78125 66.40625 
Q 24.171875 66.40625 20.328125 58.90625 
Q 16.5 51.421875 16.5 36.375 
Q 16.5 21.390625 20.328125 13.890625 
Q 24.171875 6.390625 31.78125 6.390625 
Q 39.453125 6.390625 43.28125 13.890625 
Q 47.125 21.390625 47.125 36.375 
Q 47.125 51.421875 43.28125 58.90625 
Q 39.453125 66.40625 31.78125 66.40625 
z
M 31.78125 74.21875 
Q 44.046875 74.21875 50.515625 64.515625 
Q 56.984375 54.828125 56.984375 36.375 
Q 56.984375 17.96875 50.515625 8.265625 
Q 44.046875 -1.421875 31.78125 -1.421875 
Q 19.53125 -1.421875 13.0625 8.265625 
Q 6.59375 17.96875 6.59375 36.375 
Q 6.59375 54.828125 13.0625 64.515625 
Q 19.53125 74.21875 31.78125 74.21875 
z
" id="DejaVuSans-48"/>
       </defs>
       <use xlink:href="#DejaVuSans-50"/>
       <use x="63.623047" xlink:href="#DejaVuSans-48"/>
      </g>
     </g>
    </g>
    <g id="xtick_2">
     <g id="line2d_2">
      <g>
       <use style="stroke:#000000;stroke-width:0.8;" x="146.874583" xlink:href="#m8cbb3dba94" y="307.584"/>
      </g>
     </g>
     <g id="text_2">
      <!-- 40 -->
      <g transform="translate(140.512083 322.182437)scale(0.1 -0.1)">
       <defs>
        <path d="M 37.796875 64.3125 
L 12.890625 25.390625 
L 37.796875 25.390625 
z
M 35.203125 72.90625 
L 47.609375 72.90625 
L 47.609375 25.390625 
L 58.015625 25.390625 
L 58.015625 17.1875 
L 47.609375 17.1875 
L 47.609375 0 
L 37.796875 0 
L 37.796875 17.1875 
L 4.890625 17.1875 
L 4.890625 26.703125 
z
" id="DejaVuSans-52"/>
       </defs>
       <use xlink:href="#DejaVuSans-52"/>
       <use x="63.623047" xlink:href="#DejaVuSans-48"/>
      </g>
     </g>
    </g>
    <g id="xtick_3">
     <g id="line2d_3">
      <g>
       <use style="stroke:#000000;stroke-width:0.8;" x="200.860203" xlink:href="#m8cbb3dba94" y="307.584"/>
      </g>
     </g>
     <g id="text_3">
      <!-- 60 -->
      <g transform="translate(194.497703 322.182437)scale(0.1 -0.1)">
       <defs>
        <path d="M 33.015625 40.375 
Q 26.375 40.375 22.484375 35.828125 
Q 18.609375 31.296875 18.609375 23.390625 
Q 18.609375 15.53125 22.484375 10.953125 
Q 26.375 6.390625 33.015625 6.390625 
Q 39.65625 6.390625 43.53125 10.953125 
Q 47.40625 15.53125 47.40625 23.390625 
Q 47.40625 31.296875 43.53125 35.828125 
Q 39.65625 40.375 33.015625 40.375 
z
M 52.59375 71.296875 
L 52.59375 62.3125 
Q 48.875 64.0625 45.09375 64.984375 
Q 41.3125 65.921875 37.59375 65.921875 
Q 27.828125 65.921875 22.671875 59.328125 
Q 17.53125 52.734375 16.796875 39.40625 
Q 19.671875 43.65625 24.015625 45.921875 
Q 28.375 48.1875 33.59375 48.1875 
Q 44.578125 48.1875 50.953125 41.515625 
Q 57.328125 34.859375 57.328125 23.390625 
Q 57.328125 12.15625 50.6875 5.359375 
Q 44.046875 -1.421875 33.015625 -1.421875 
Q 20.359375 -1.421875 13.671875 8.265625 
Q 6.984375 17.96875 6.984375 36.375 
Q 6.984375 53.65625 15.1875 63.9375 
Q 23.390625 74.21875 37.203125 74.21875 
Q 40.921875 74.21875 44.703125 73.484375 
Q 48.484375 72.75 52.59375 71.296875 
z
" id="DejaVuSans-54"/>
       </defs>
       <use xlink:href="#DejaVuSans-54"/>
       <use x="63.623047" xlink:href="#DejaVuSans-48"/>
      </g>
     </g>
    </g>
    <g id="xtick_4">
     <g id="line2d_4">
      <g>
       <use style="stroke:#000000;stroke-width:0.8;" x="254.845823" xlink:href="#m8cbb3dba94" y="307.584"/>
      </g>
     </g>
     <g id="text_4">
      <!-- 80 -->
      <g transform="translate(248.483323 322.182437)scale(0.1 -0.1)">
       <defs>
        <path d="M 31.78125 34.625 
Q 24.75 34.625 20.71875 30.859375 
Q 16.703125 27.09375 16.703125 20.515625 
Q 16.703125 13.921875 20.71875 10.15625 
Q 24.75 6.390625 31.78125 6.390625 
Q 38.8125 6.390625 42.859375 10.171875 
Q 46.921875 13.96875 46.921875 20.515625 
Q 46.921875 27.09375 42.890625 30.859375 
Q 38.875 34.625 31.78125 34.625 
z
M 21.921875 38.8125 
Q 15.578125 40.375 12.03125 44.71875 
Q 8.5 49.078125 8.5 55.328125 
Q 8.5 64.0625 14.71875 69.140625 
Q 20.953125 74.21875 31.78125 74.21875 
Q 42.671875 74.21875 48.875 69.140625 
Q 55.078125 64.0625 55.078125 55.328125 
Q 55.078125 49.078125 51.53125 44.71875 
Q 48 40.375 41.703125 38.8125 
Q 48.828125 37.15625 52.796875 32.3125 
Q 56.78125 27.484375 56.78125 20.515625 
Q 56.78125 9.90625 50.3125 4.234375 
Q 43.84375 -1.421875 31.78125 -1.421875 
Q 19.734375 -1.421875 13.25 4.234375 
Q 6.78125 9.90625 6.78125 20.515625 
Q 6.78125 27.484375 10.78125 32.3125 
Q 14.796875 37.15625 21.921875 38.8125 
z
M 18.3125 54.390625 
Q 18.3125 48.734375 21.84375 45.5625 
Q 25.390625 42.390625 31.78125 42.390625 
Q 38.140625 42.390625 41.71875 45.5625 
Q 45.3125 48.734375 45.3125 54.390625 
Q 45.3125 60.0625 41.71875 63.234375 
Q 38.140625 66.40625 31.78125 66.40625 
Q 25.390625 66.40625 21.84375 63.234375 
Q 18.3125 60.0625 18.3125 54.390625 
z
" id="DejaVuSans-56"/>
       </defs>
       <use xlink:href="#DejaVuSans-56"/>
       <use x="63.623047" xlink:href="#DejaVuSans-48"/>
      </g>
     </g>
    </g>
    <g id="xtick_5">
     <g id="line2d_5">
      <g>
       <use style="stroke:#000000;stroke-width:0.8;" x="308.831443" xlink:href="#m8cbb3dba94" y="307.584"/>
      </g>
     </g>
     <g id="text_5">
      <!-- 100 -->
      <g transform="translate(299.287693 322.182437)scale(0.1 -0.1)">
       <defs>
        <path d="M 12.40625 8.296875 
L 28.515625 8.296875 
L 28.515625 63.921875 
L 10.984375 60.40625 
L 10.984375 69.390625 
L 28.421875 72.90625 
L 38.28125 72.90625 
L 38.28125 8.296875 
L 54.390625 8.296875 
L 54.390625 0 
L 12.40625 0 
z
" id="DejaVuSans-49"/>
       </defs>
       <use xlink:href="#DejaVuSans-49"/>
       <use x="63.623047" xlink:href="#DejaVuSans-48"/>
       <use x="127.246094" xlink:href="#DejaVuSans-48"/>
      </g>
     </g>
    </g>
    <g id="xtick_6">
     <g id="line2d_6">
      <g>
       <use style="stroke:#000000;stroke-width:0.8;" x="362.817063" xlink:href="#m8cbb3dba94" y="307.584"/>
      </g>
     </g>
     <g id="text_6">
      <!-- 120 -->
      <g transform="translate(353.273313 322.182437)scale(0.1 -0.1)">
       <use xlink:href="#DejaVuSans-49"/>
       <use x="63.623047" xlink:href="#DejaVuSans-50"/>
       <use x="127.246094" xlink:href="#DejaVuSans-48"/>
      </g>
     </g>
    </g>
   </g>
   <g id="matplotlib.axis_2">
    <g id="ytick_1">
     <g id="line2d_7">
      <defs>
       <path d="M 0 0 
L -3.5 0 
" id="m1518f63a23" style="stroke:#000000;stroke-width:0.8;"/>
      </defs>
      <g>
       <use style="stroke:#000000;stroke-width:0.8;" x="57.6" xlink:href="#m1518f63a23" y="254.966491"/>
      </g>
     </g>
     <g id="text_7">
      <!-- 40 -->
      <g transform="translate(37.875 258.765709)scale(0.1 -0.1)">
       <use xlink:href="#DejaVuSans-52"/>
       <use x="63.623047" xlink:href="#DejaVuSans-48"/>
      </g>
     </g>
    </g>
    <g id="ytick_2">
     <g id="line2d_8">
      <g>
       <use style="stroke:#000000;stroke-width:0.8;" x="57.6" xlink:href="#m1518f63a23" y="200.980871"/>
      </g>
     </g>
     <g id="text_8">
      <!-- 60 -->
      <g transform="translate(37.875 204.78009)scale(0.1 -0.1)">
       <use xlink:href="#DejaVuSans-54"/>
       <use x="63.623047" xlink:href="#DejaVuSans-48"/>
      </g>
     </g>
    </g>
    <g id="ytick_3">
     <g id="line2d_9">
      <g>
       <use style="stroke:#000000;stroke-width:0.8;" x="57.6" xlink:href="#m1518f63a23" y="146.995251"/>
      </g>
     </g>
     <g id="text_9">
      <!-- 80 -->
      <g transform="translate(37.875 150.79447)scale(0.1 -0.1)">
       <use xlink:href="#DejaVuSans-56"/>
       <use x="63.623047" xlink:href="#DejaVuSans-48"/>
      </g>
     </g>
    </g>
    <g id="ytick_4">
     <g id="line2d_10">
      <g>
       <use style="stroke:#000000;stroke-width:0.8;" x="57.6" xlink:href="#m1518f63a23" y="93.009631"/>
      </g>
     </g>
     <g id="text_10">
      <!-- 100 -->
      <g transform="translate(31.5125 96.80885)scale(0.1 -0.1)">
       <use xlink:href="#DejaVuSans-49"/>
       <use x="63.623047" xlink:href="#DejaVuSans-48"/>
       <use x="127.246094" xlink:href="#DejaVuSans-48"/>
      </g>
     </g>
    </g>
   </g>
   <g id="line2d_11">
    <path clip-path="url(#pf224c07b73)" d="M 376.313468 295.455706 
L 376.440334 284.62889 
L 377.179937 249.443762 
L 377.061169 241.321625 
L 376.702164 233.210286 
L 375.859989 222.413162 
L 374.405076 203.518195 
L 373.560201 195.441946 
L 372.836794 190.075776 
L 371.943332 184.736598 
L 370.833927 179.437909 
L 369.468091 174.198605 
L 367.799936 169.048377 
L 365.780873 164.025015 
L 363.370416 159.177106 
L 360.582058 154.537042 
L 357.480584 150.099424 
L 354.122679 145.850756 
L 350.562327 141.774841 
L 346.840019 137.841989 
L 341.031166 132.165401 
L 335.041461 126.683161 
L 322.840711 115.958918 
L 314.788756 108.719446 
L 298.790118 94.121735 
L 292.606065 88.858137 
L 288.370893 85.486735 
L 284.019652 82.261094 
L 279.536146 79.227102 
L 274.90418 76.425249 
L 270.112956 73.906819 
L 265.151678 71.736597 
L 260.050037 69.92538 
L 254.851222 68.416482 
L 249.579526 67.18561 
L 244.253844 66.203071 
L 238.893072 65.449972 
L 233.505308 64.907417 
L 228.104046 64.55651 
L 222.691988 64.386455 
L 217.27723 64.383756 
L 211.865172 64.537615 
L 203.759231 65.047779 
L 195.680283 65.876458 
L 187.633726 66.972366 
L 179.630358 68.340902 
L 174.323572 69.426013 
L 169.054575 70.667682 
L 163.828767 72.084805 
L 158.659644 73.696275 
L 153.566101 75.526388 
L 148.564333 77.602135 
L 143.689432 79.955908 
L 138.976487 82.620098 
L 134.474086 85.627097 
L 130.230817 88.987702 
L 126.219685 92.623634 
L 122.429895 96.489004 
L 118.847949 100.548723 
L 115.471148 104.781195 
L 112.296794 109.167527 
L 109.322186 113.691522 
L 106.560822 118.347782 
L 104.0154 123.125509 
L 101.704815 128.024704 
L 99.653362 133.03457 
L 97.890731 138.152406 
L 96.462811 143.372816 
L 95.922955 146.026209 
L 95.531559 148.706595 
L 95.277827 151.400477 
L 95.134765 156.812536 
L 95.396595 162.221895 
L 95.968843 167.604261 
L 96.773229 172.959635 
L 98.257833 180.944108 
L 102.001736 199.52056 
L 102.8871 204.859738 
L 103.575417 210.231307 
L 103.823751 212.927888 
L 103.823751 212.927888 
" style="fill:none;stroke:#fea952;stroke-linecap:square;"/>
   </g>
   <g id="line2d_12">
    <path clip-path="url(#pf224c07b73)" d="M 365.516392 295.423411 
L 365.646048 284.381364 
L 366.383006 249.50835 
L 366.269896 241.677026 
L 365.929868 233.94207 
L 365.309643 225.962766 
L 363.140832 199.358229 
L 362.172933 191.766913 
L 361.352171 186.835456 
L 360.350375 182.021125 
L 359.145174 177.363295 
L 357.710326 172.89255 
L 356.016319 168.632765 
L 354.01649 164.569876 
L 351.633251 160.578295 
L 348.919724 156.678903 
L 345.913495 152.864114 
L 342.652948 149.124645 
L 339.189175 145.460551 
L 333.675994 140.069788 
L 327.860896 134.746496 
L 315.688911 124.047777 
L 307.47826 116.66517 
L 291.695418 102.260723 
L 285.81532 97.252401 
L 281.858223 94.09853 
L 277.862632 91.130648 
L 273.815619 88.384255 
L 269.725659 85.899466 
L 265.601311 83.716149 
L 261.37118 81.850238 
L 256.895191 80.25131 
L 252.268005 78.900035 
L 247.501393 77.780856 
L 242.637973 76.878597 
L 237.709 76.181974 
L 232.708499 75.675099 
L 227.673366 75.345041 
L 222.605872 75.183236 
L 217.503242 75.178514 
L 212.403281 75.321321 
L 204.728984 75.801265 
L 197.026127 76.589375 
L 189.324864 77.636228 
L 181.718857 78.93411 
L 174.246582 80.51379 
L 169.352689 81.749087 
L 164.551576 83.140816 
L 159.870945 84.700122 
L 155.314056 86.454 
L 150.943612 88.399018 
L 146.789141 90.548975 
L 142.872164 92.933662 
L 139.187643 95.597079 
L 135.572988 98.658244 
L 132.113331 101.978844 
L 128.797368 105.539894 
L 125.652578 109.280075 
L 122.678478 113.18249 
L 119.870302 117.247603 
L 117.262432 121.410311 
L 114.847083 125.689162 
L 112.651634 130.045965 
L 110.692209 134.471416 
L 108.994115 138.93938 
L 107.594072 143.408313 
L 106.606777 147.586284 
L 106.281107 149.719077 
L 105.947892 154.169745 
L 105.995574 158.820276 
L 106.372466 163.645484 
L 107.0092 168.584679 
L 108.332517 176.209215 
L 111.029403 189.404556 
L 112.640688 197.679203 
L 113.581649 203.374981 
L 114.327045 209.241167 
L 114.575379 211.937749 
L 114.575379 211.937749 
" style="fill:none;stroke:#ffffff;stroke-linecap:square;"/>
   </g>
   <g id="line2d_13">
    <path clip-path="url(#pf224c07b73)" d="M 387.110544 295.488 
L 387.23462 284.876416 
L 387.976868 249.379174 
L 387.852442 240.966224 
L 387.474461 232.478501 
L 386.627671 221.616353 
L 385.153613 202.495038 
L 384.270435 194.074911 
L 383.500655 188.384638 
L 382.534493 182.63774 
L 381.31748 176.854693 
L 379.791009 171.033915 
L 377.889545 165.204203 
L 376.779793 162.311457 
L 375.545428 159.417265 
L 374.192961 156.572457 
L 372.724341 153.784337 
L 369.530866 148.495789 
L 366.041445 143.519945 
L 362.331863 138.837398 
L 358.471706 134.425038 
L 354.490862 130.223428 
L 350.437686 126.21265 
L 344.278295 120.471618 
L 336.058027 113.179895 
L 324.074303 102.580569 
L 303.74595 84.119343 
L 297.158468 78.65483 
L 292.558193 75.118856 
L 287.739805 71.703645 
L 282.696826 68.476053 
L 277.396161 65.489114 
L 274.624602 64.09749 
L 271.795192 62.804478 
L 266.060443 60.555824 
L 260.325104 58.724052 
L 254.54838 57.225106 
L 248.762983 56.025384 
L 242.967067 55.09067 
L 237.181356 54.400445 
L 231.409118 53.927402 
L 225.646893 53.654252 
L 219.909257 53.568 
L 214.182181 53.650279 
L 208.482295 53.896776 
L 202.789478 54.294293 
L 194.334439 55.163541 
L 185.942589 56.308505 
L 177.54186 57.747694 
L 171.933493 58.896748 
L 166.319502 60.222719 
L 160.716358 61.746004 
L 155.125941 63.493784 
L 149.550582 65.503739 
L 144.009001 67.813017 
L 138.544863 70.463211 
L 133.162369 73.522081 
L 130.519026 75.221758 
L 127.937378 77.033534 
L 125.452478 78.934043 
L 120.81813 82.891009 
L 116.482263 87.079809 
L 112.429189 91.454645 
L 108.615232 96.012053 
L 105.035478 100.731142 
L 101.700091 105.579055 
L 98.569289 110.5993 
L 95.672454 115.757136 
L 93.009196 121.074556 
L 90.601184 126.555466 
L 88.471698 132.220603 
L 86.664996 138.089916 
L 85.882456 141.220149 
L 85.239133 144.466134 
L 84.782012 147.694113 
L 84.492561 150.894582 
L 84.35403 154.040569 
L 84.343132 157.156835 
L 84.647048 163.234377 
L 85.277454 169.111607 
L 86.136091 174.811444 
L 87.677907 183.098879 
L 91.799452 203.878587 
L 92.53621 208.802498 
L 93.072122 213.918028 
L 93.072122 213.918028 
" style="fill:none;stroke:#ffffff;stroke-linecap:square;"/>
   </g>
   <g id="patch_3">
    <path d="M 57.6 307.584 
L 57.6 41.472 
" style="fill:none;stroke:#000000;stroke-linecap:square;stroke-linejoin:miter;stroke-width:0.8;"/>
   </g>
   <g id="patch_4">
    <path d="M 414.72 307.584 
L 414.72 41.472 
" style="fill:none;stroke:#000000;stroke-linecap:square;stroke-linejoin:miter;stroke-width:0.8;"/>
   </g>
   <g id="patch_5">
    <path d="M 57.6 307.584 
L 414.72 307.584 
" style="fill:none;stroke:#000000;stroke-linecap:square;stroke-linejoin:miter;stroke-width:0.8;"/>
   </g>
   <g id="patch_6">
    <path d="M 57.6 41.472 
L 414.72 41.472 
" style="fill:none;stroke:#000000;stroke-linecap:square;stroke-linejoin:miter;stroke-width:0.8;"/>
   </g>
  </g>
 </g>
 <defs>
  <clipPath id="pf224c07b73">
   <rect height="266.112" width="357.12" x="57.6" y="41.472"/>
  </clipPath>
 </defs>
</svg>
