<?xml version="1.0" encoding="utf-8" standalone="no"?>
<!DOCTYPE svg PUBLIC "-//W3C//DTD SVG 1.1//EN"
  "http://www.w3.org/Graphics/SVG/1.1/DTD/svg11.dtd">
<!-- Created with matplotlib (https://matplotlib.org/) -->
<svg height="345.6pt" version="1.1" viewBox="0 0 460.8 345.6" width="460.8pt" xmlns="http://www.w3.org/2000/svg" xmlns:xlink="http://www.w3.org/1999/xlink">
 <metadata>
  <rdf:RDF xmlns:cc="http://creativecommons.org/ns#" xmlns:dc="http://purl.org/dc/elements/1.1/" xmlns:rdf="http://www.w3.org/1999/02/22-rdf-syntax-ns#">
   <cc:Work>
    <dc:type rdf:resource="http://purl.org/dc/dcmitype/StillImage"/>
    <dc:date>2021-07-14T14:00:11.432451</dc:date>
    <dc:format>image/svg+xml</dc:format>
    <dc:creator>
     <cc:Agent>
      <dc:title>Matplotlib v3.3.3, https://matplotlib.org/</dc:title>
     </cc:Agent>
    </dc:creator>
   </cc:Work>
  </rdf:RDF>
 </metadata>
 <defs>
  <style type="text/css">*{stroke-linecap:butt;stroke-linejoin:round;}</style>
 </defs>
 <g id="figure_1">
  <g id="patch_1">
   <path d="M 0 345.6 
L 460.8 345.6 
L 460.8 0 
L 0 0 
z
" style="fill:#ffffff;"/>
  </g>
  <g id="axes_1">
   <g id="patch_2">
    <path d="M 57.6 307.584 
L 414.72 307.584 
L 414.72 41.472 
L 57.6 41.472 
z
" style="fill:#7d9051;"/>
   </g>
   <g id="matplotlib.axis_1">
    <g id="xtick_1">
     <g id="line2d_1">
      <defs>
       <path d="M 0 0 
L 0 3.5 
" id="m2d9eaf0f0d" style="stroke:#000000;stroke-width:0.8;"/>
      </defs>
      <g>
       <use style="stroke:#000000;stroke-width:0.8;" x="111.018003" xlink:href="#m2d9eaf0f0d" y="307.584"/>
      </g>
     </g>
     <g id="text_1">
      <!-- 0 -->
      <g transform="translate(107.836753 322.182437)scale(0.1 -0.1)">
       <defs>
        <path d="M 31.78125 66.40625 
Q 24.171875 66.40625 20.328125 58.90625 
Q 16.5 51.421875 16.5 36.375 
Q 16.5 21.390625 20.328125 13.890625 
Q 24.171875 6.390625 31.78125 6.390625 
Q 39.453125 6.390625 43.28125 13.890625 
Q 47.125 21.390625 47.125 36.375 
Q 47.125 51.421875 43.28125 58.90625 
Q 39.453125 66.40625 31.78125 66.40625 
z
M 31.78125 74.21875 
Q 44.046875 74.21875 50.515625 64.515625 
Q 56.984375 54.828125 56.984375 36.375 
Q 56.984375 17.96875 50.515625 8.265625 
Q 44.046875 -1.421875 31.78125 -1.421875 
Q 19.53125 -1.421875 13.0625 8.265625 
Q 6.59375 17.96875 6.59375 36.375 
Q 6.59375 54.828125 13.0625 64.515625 
Q 19.53125 74.21875 31.78125 74.21875 
z
" id="DejaVuSans-48"/>
       </defs>
       <use xlink:href="#DejaVuSans-48"/>
      </g>
     </g>
    </g>
    <g id="xtick_2">
     <g id="line2d_2">
      <g>
       <use style="stroke:#000000;stroke-width:0.8;" x="183.291353" xlink:href="#m2d9eaf0f0d" y="307.584"/>
      </g>
     </g>
     <g id="text_2">
      <!-- 50 -->
      <g transform="translate(176.928853 322.182437)scale(0.1 -0.1)">
       <defs>
        <path d="M 10.796875 72.90625 
L 49.515625 72.90625 
L 49.515625 64.59375 
L 19.828125 64.59375 
L 19.828125 46.734375 
Q 21.96875 47.46875 24.109375 47.828125 
Q 26.265625 48.1875 28.421875 48.1875 
Q 40.625 48.1875 47.75 41.5 
Q 54.890625 34.8125 54.890625 23.390625 
Q 54.890625 11.625 47.5625 5.09375 
Q 40.234375 -1.421875 26.90625 -1.421875 
Q 22.3125 -1.421875 17.546875 -0.640625 
Q 12.796875 0.140625 7.71875 1.703125 
L 7.71875 11.625 
Q 12.109375 9.234375 16.796875 8.0625 
Q 21.484375 6.890625 26.703125 6.890625 
Q 35.15625 6.890625 40.078125 11.328125 
Q 45.015625 15.765625 45.015625 23.390625 
Q 45.015625 31 40.078125 35.4375 
Q 35.15625 39.890625 26.703125 39.890625 
Q 22.75 39.890625 18.8125 39.015625 
Q 14.890625 38.140625 10.796875 36.28125 
z
" id="DejaVuSans-53"/>
       </defs>
       <use xlink:href="#DejaVuSans-53"/>
       <use x="63.623047" xlink:href="#DejaVuSans-48"/>
      </g>
     </g>
    </g>
    <g id="xtick_3">
     <g id="line2d_3">
      <g>
       <use style="stroke:#000000;stroke-width:0.8;" x="255.564703" xlink:href="#m2d9eaf0f0d" y="307.584"/>
      </g>
     </g>
     <g id="text_3">
      <!-- 100 -->
      <g transform="translate(246.020953 322.182437)scale(0.1 -0.1)">
       <defs>
        <path d="M 12.40625 8.296875 
L 28.515625 8.296875 
L 28.515625 63.921875 
L 10.984375 60.40625 
L 10.984375 69.390625 
L 28.421875 72.90625 
L 38.28125 72.90625 
L 38.28125 8.296875 
L 54.390625 8.296875 
L 54.390625 0 
L 12.40625 0 
z
" id="DejaVuSans-49"/>
       </defs>
       <use xlink:href="#DejaVuSans-49"/>
       <use x="63.623047" xlink:href="#DejaVuSans-48"/>
       <use x="127.246094" xlink:href="#DejaVuSans-48"/>
      </g>
     </g>
    </g>
    <g id="xtick_4">
     <g id="line2d_4">
      <g>
       <use style="stroke:#000000;stroke-width:0.8;" x="327.838053" xlink:href="#m2d9eaf0f0d" y="307.584"/>
      </g>
     </g>
     <g id="text_4">
      <!-- 150 -->
      <g transform="translate(318.294303 322.182437)scale(0.1 -0.1)">
       <use xlink:href="#DejaVuSans-49"/>
       <use x="63.623047" xlink:href="#DejaVuSans-53"/>
       <use x="127.246094" xlink:href="#DejaVuSans-48"/>
      </g>
     </g>
    </g>
    <g id="xtick_5">
     <g id="line2d_5">
      <g>
       <use style="stroke:#000000;stroke-width:0.8;" x="400.111403" xlink:href="#m2d9eaf0f0d" y="307.584"/>
      </g>
     </g>
     <g id="text_5">
      <!-- 200 -->
      <g transform="translate(390.567653 322.182437)scale(0.1 -0.1)">
       <defs>
        <path d="M 19.1875 8.296875 
L 53.609375 8.296875 
L 53.609375 0 
L 7.328125 0 
L 7.328125 8.296875 
Q 12.9375 14.109375 22.625 23.890625 
Q 32.328125 33.6875 34.8125 36.53125 
Q 39.546875 41.84375 41.421875 45.53125 
Q 43.3125 49.21875 43.3125 52.78125 
Q 43.3125 58.59375 39.234375 62.25 
Q 35.15625 65.921875 28.609375 65.921875 
Q 23.96875 65.921875 18.8125 64.3125 
Q 13.671875 62.703125 7.8125 59.421875 
L 7.8125 69.390625 
Q 13.765625 71.78125 18.9375 73 
Q 24.125 74.21875 28.421875 74.21875 
Q 39.75 74.21875 46.484375 68.546875 
Q 53.21875 62.890625 53.21875 53.421875 
Q 53.21875 48.921875 51.53125 44.890625 
Q 49.859375 40.875 45.40625 35.40625 
Q 44.1875 33.984375 37.640625 27.21875 
Q 31.109375 20.453125 19.1875 8.296875 
z
" id="DejaVuSans-50"/>
       </defs>
       <use xlink:href="#DejaVuSans-50"/>
       <use x="63.623047" xlink:href="#DejaVuSans-48"/>
       <use x="127.246094" xlink:href="#DejaVuSans-48"/>
      </g>
     </g>
    </g>
   </g>
   <g id="matplotlib.axis_2">
    <g id="ytick_1">
     <g id="line2d_6">
      <defs>
       <path d="M 0 0 
L -3.5 0 
" id="m76fe83a6b3" style="stroke:#000000;stroke-width:0.8;"/>
      </defs>
      <g>
       <use style="stroke:#000000;stroke-width:0.8;" x="57.6" xlink:href="#m76fe83a6b3" y="295.430242"/>
      </g>
     </g>
     <g id="text_6">
      <!-- 25 -->
      <g transform="translate(37.875 299.229461)scale(0.1 -0.1)">
       <use xlink:href="#DejaVuSans-50"/>
       <use x="63.623047" xlink:href="#DejaVuSans-53"/>
      </g>
     </g>
    </g>
    <g id="ytick_2">
     <g id="line2d_7">
      <g>
       <use style="stroke:#000000;stroke-width:0.8;" x="57.6" xlink:href="#m76fe83a6b3" y="259.293567"/>
      </g>
     </g>
     <g id="text_7">
      <!-- 50 -->
      <g transform="translate(37.875 263.092786)scale(0.1 -0.1)">
       <use xlink:href="#DejaVuSans-53"/>
       <use x="63.623047" xlink:href="#DejaVuSans-48"/>
      </g>
     </g>
    </g>
    <g id="ytick_3">
     <g id="line2d_8">
      <g>
       <use style="stroke:#000000;stroke-width:0.8;" x="57.6" xlink:href="#m76fe83a6b3" y="223.156892"/>
      </g>
     </g>
     <g id="text_8">
      <!-- 75 -->
      <g transform="translate(37.875 226.956111)scale(0.1 -0.1)">
       <defs>
        <path d="M 8.203125 72.90625 
L 55.078125 72.90625 
L 55.078125 68.703125 
L 28.609375 0 
L 18.3125 0 
L 43.21875 64.59375 
L 8.203125 64.59375 
z
" id="DejaVuSans-55"/>
       </defs>
       <use xlink:href="#DejaVuSans-55"/>
       <use x="63.623047" xlink:href="#DejaVuSans-53"/>
      </g>
     </g>
    </g>
    <g id="ytick_4">
     <g id="line2d_9">
      <g>
       <use style="stroke:#000000;stroke-width:0.8;" x="57.6" xlink:href="#m76fe83a6b3" y="187.020217"/>
      </g>
     </g>
     <g id="text_9">
      <!-- 100 -->
      <g transform="translate(31.5125 190.819436)scale(0.1 -0.1)">
       <use xlink:href="#DejaVuSans-49"/>
       <use x="63.623047" xlink:href="#DejaVuSans-48"/>
       <use x="127.246094" xlink:href="#DejaVuSans-48"/>
      </g>
     </g>
    </g>
    <g id="ytick_5">
     <g id="line2d_10">
      <g>
       <use style="stroke:#000000;stroke-width:0.8;" x="57.6" xlink:href="#m76fe83a6b3" y="150.883542"/>
      </g>
     </g>
     <g id="text_10">
      <!-- 125 -->
      <g transform="translate(31.5125 154.682761)scale(0.1 -0.1)">
       <use xlink:href="#DejaVuSans-49"/>
       <use x="63.623047" xlink:href="#DejaVuSans-50"/>
       <use x="127.246094" xlink:href="#DejaVuSans-53"/>
      </g>
     </g>
    </g>
    <g id="ytick_6">
     <g id="line2d_11">
      <g>
       <use style="stroke:#000000;stroke-width:0.8;" x="57.6" xlink:href="#m76fe83a6b3" y="114.746867"/>
      </g>
     </g>
     <g id="text_11">
      <!-- 150 -->
      <g transform="translate(31.5125 118.546085)scale(0.1 -0.1)">
       <use xlink:href="#DejaVuSans-49"/>
       <use x="63.623047" xlink:href="#DejaVuSans-53"/>
       <use x="127.246094" xlink:href="#DejaVuSans-48"/>
      </g>
     </g>
    </g>
    <g id="ytick_7">
     <g id="line2d_12">
      <g>
       <use style="stroke:#000000;stroke-width:0.8;" x="57.6" xlink:href="#m76fe83a6b3" y="78.610192"/>
      </g>
     </g>
     <g id="text_12">
      <!-- 175 -->
      <g transform="translate(31.5125 82.40941)scale(0.1 -0.1)">
       <use xlink:href="#DejaVuSans-49"/>
       <use x="63.623047" xlink:href="#DejaVuSans-55"/>
       <use x="127.246094" xlink:href="#DejaVuSans-53"/>
      </g>
     </g>
    </g>
    <g id="ytick_8">
     <g id="line2d_13">
      <g>
       <use style="stroke:#000000;stroke-width:0.8;" x="57.6" xlink:href="#m76fe83a6b3" y="42.473517"/>
      </g>
     </g>
     <g id="text_13">
      <!-- 200 -->
      <g transform="translate(31.5125 46.272735)scale(0.1 -0.1)">
       <use xlink:href="#DejaVuSans-50"/>
       <use x="63.623047" xlink:href="#DejaVuSans-48"/>
       <use x="127.246094" xlink:href="#DejaVuSans-48"/>
      </g>
     </g>
    </g>
   </g>
   <g id="line2d_14">
    <path clip-path="url(#p19d5e9a02c)" d="M 291.701378 295.430242 
L 291.818461 291.089505 
L 292.214519 285.311973 
L 292.967607 275.208159 
L 293.080353 270.867421 
L 292.919907 266.528129 
L 292.604795 263.650204 
L 292.08009 260.802634 
L 291.328447 258.007101 
L 289.919117 253.90053 
L 288.238039 249.896586 
L 286.312677 246.005389 
L 284.161822 242.23272 
L 281.798483 238.590143 
L 279.222661 235.093558 
L 276.43291 231.766093 
L 273.423448 228.636657 
L 271.262474 226.711295 
L 268.949727 224.969507 
L 266.521343 223.392503 
L 262.726992 221.280676 
L 258.818449 219.390005 
L 252.188092 216.487507 
L 245.570744 213.5561 
L 241.683883 211.619174 
L 237.82015 209.637439 
L 232.549977 207.237964 
L 223.291761 203.119828 
L 219.419355 201.155439 
L 216.91147 199.708526 
L 214.494649 198.115622 
L 212.203584 196.344924 
L 210.085975 194.373307 
L 208.173622 192.200771 
L 206.441952 189.880796 
L 204.875066 187.44663 
L 203.454172 184.922844 
L 201.562056 181.015747 
L 199.908441 177.00024 
L 198.442738 172.912459 
L 196.709623 167.387884 
L 194.771252 160.413506 
L 193.759425 156.191297 
L 192.926836 151.928614 
L 192.072565 146.201674 
L 191.488596 140.441488 
L 191.153248 134.661066 
L 191.047729 128.87197 
L 191.11422 124.529787 
L 191.344049 121.644635 
L 191.782026 118.782611 
L 192.707125 114.540165 
L 194.576114 107.546996 
L 195.991226 101.932802 
L 196.552067 99.092459 
L 196.940898 96.224653 
L 197.092672 93.333719 
L 196.936561 90.44423 
L 196.42053 87.59666 
L 195.596613 84.821363 
L 194.525522 82.131349 
L 193.26363 79.526618 
L 191.111329 75.755394 
L 188.761 72.104145 
L 180.695294 60.085087 
L 178.548776 56.309527 
L 178.548776 56.309527 
" style="fill:none;stroke:#fea952;stroke-linecap:square;"/>
   </g>
   <g id="line2d_15">
    <path clip-path="url(#p19d5e9a02c)" d="M 285.919798 295.372484 
L 286.045318 290.771982 
L 286.452543 284.832771 
L 287.190822 274.965776 
L 287.2989 270.93666 
L 287.16303 267.06513 
L 286.898967 264.584829 
L 286.469836 262.200865 
L 285.817847 259.757324 
L 284.542069 256.025936 
L 283.005712 252.356819 
L 281.234377 248.7696 
L 279.251366 245.285165 
L 277.076483 241.926715 
L 274.713983 238.713202 
L 272.17222 235.674612 
L 269.487841 232.872339 
L 267.697195 231.263084 
L 265.729217 229.771415 
L 263.588305 228.375202 
L 260.127407 226.445185 
L 256.435463 224.657962 
L 249.902145 221.798293 
L 243.08246 218.775146 
L 238.976497 216.727996 
L 235.35047 214.865314 
L 230.240374 212.538504 
L 220.768577 208.322091 
L 216.596249 206.201236 
L 213.810316 204.588367 
L 211.054226 202.762501 
L 208.374165 200.676846 
L 205.83368 198.290958 
L 203.604105 195.7433 
L 201.631147 193.087999 
L 199.875375 190.350607 
L 198.309545 187.561558 
L 196.256379 183.313526 
L 194.493288 179.026592 
L 192.952403 174.725251 
L 191.156579 168.998382 
L 189.169569 161.845689 
L 188.100052 157.375145 
L 187.225048 152.887578 
L 186.52743 148.388263 
L 185.85045 142.374731 
L 185.438862 136.356121 
L 185.271689 130.343409 
L 185.342389 124.189249 
L 185.616544 120.853639 
L 186.108477 117.668679 
L 187.102331 113.120207 
L 188.992549 106.045727 
L 190.333013 100.743422 
L 191.029473 96.987666 
L 191.27131 94.613195 
L 191.296485 92.371742 
L 191.06818 90.218903 
L 190.543281 87.982203 
L 189.759796 85.711016 
L 188.753347 83.423056 
L 186.900807 79.974342 
L 184.739791 76.503643 
L 180.726152 70.605655 
L 176.551101 64.368768 
L 174.14479 60.325955 
L 173.458193 59.051054 
L 173.458193 59.051054 
" style="fill:none;stroke:#ffffff;stroke-linecap:square;"/>
   </g>
   <g id="line2d_16">
    <path clip-path="url(#p19d5e9a02c)" d="M 297.482957 295.488 
L 297.591603 291.407027 
L 297.976494 285.791175 
L 298.744392 275.450541 
L 298.861807 270.798182 
L 298.781376 267.608251 
L 298.522164 264.365585 
L 298.034825 261.060084 
L 297.285317 257.795453 
L 296.359248 254.751301 
L 294.718129 250.316265 
L 292.805222 246.024375 
L 290.643205 241.869743 
L 288.247577 237.855637 
L 285.61744 233.977559 
L 282.749579 230.252977 
L 279.622756 226.692568 
L 277.359054 224.400975 
L 274.827754 222.159507 
L 272.170237 220.1676 
L 269.45438 218.409804 
L 266.703653 216.840857 
L 262.572525 214.760385 
L 257.133698 212.320086 
L 248.059028 208.337054 
L 244.39127 206.510353 
L 240.28983 204.409564 
L 234.859581 201.937423 
L 225.814945 197.917565 
L 222.242461 196.109641 
L 218.951666 194.158228 
L 216.960517 192.753351 
L 215.167262 191.257962 
L 213.530113 189.58725 
L 211.982011 187.682763 
L 210.549708 185.624408 
L 209.223872 183.426195 
L 207.421091 179.922477 
L 205.819763 176.238981 
L 204.381292 172.404492 
L 202.663748 167.121692 
L 200.731017 160.323665 
L 199.418798 155.007448 
L 198.400047 149.613225 
L 197.652235 144.147289 
L 197.153116 138.627814 
L 196.88589 133.081338 
L 196.837783 127.500066 
L 196.952447 123.661925 
L 197.244025 121.168751 
L 197.99629 117.28777 
L 199.385883 111.869249 
L 201.300089 104.642421 
L 202.266835 99.970765 
L 202.706106 96.663247 
L 202.872879 93.195132 
L 202.65501 89.590213 
L 202.002644 86.090009 
L 201.009871 82.789949 
L 199.768783 79.694504 
L 198.350499 76.778207 
L 196.015966 72.693607 
L 193.553963 68.870338 
L 184.976645 55.982278 
L 183.639358 53.568 
L 183.639358 53.568 
" style="fill:none;stroke:#ffffff;stroke-linecap:square;"/>
   </g>
   <g id="patch_3">
    <path d="M 57.6 307.584 
L 57.6 41.472 
" style="fill:none;stroke:#000000;stroke-linecap:square;stroke-linejoin:miter;stroke-width:0.8;"/>
   </g>
   <g id="patch_4">
    <path d="M 414.72 307.584 
L 414.72 41.472 
" style="fill:none;stroke:#000000;stroke-linecap:square;stroke-linejoin:miter;stroke-width:0.8;"/>
   </g>
   <g id="patch_5">
    <path d="M 57.6 307.584 
L 414.72 307.584 
" style="fill:none;stroke:#000000;stroke-linecap:square;stroke-linejoin:miter;stroke-width:0.8;"/>
   </g>
   <g id="patch_6">
    <path d="M 57.6 41.472 
L 414.72 41.472 
" style="fill:none;stroke:#000000;stroke-linecap:square;stroke-linejoin:miter;stroke-width:0.8;"/>
   </g>
  </g>
 </g>
 <defs>
  <clipPath id="p19d5e9a02c">
   <rect height="266.112" width="357.12" x="57.6" y="41.472"/>
  </clipPath>
 </defs>
</svg>
