<?xml version="1.0" encoding="utf-8" standalone="no"?>
<!DOCTYPE svg PUBLIC "-//W3C//DTD SVG 1.1//EN"
  "http://www.w3.org/Graphics/SVG/1.1/DTD/svg11.dtd">
<!-- Created with matplotlib (https://matplotlib.org/) -->
<svg height="345.6pt" version="1.1" viewBox="0 0 460.8 345.6" width="460.8pt" xmlns="http://www.w3.org/2000/svg" xmlns:xlink="http://www.w3.org/1999/xlink">
 <metadata>
  <rdf:RDF xmlns:cc="http://creativecommons.org/ns#" xmlns:dc="http://purl.org/dc/elements/1.1/" xmlns:rdf="http://www.w3.org/1999/02/22-rdf-syntax-ns#">
   <cc:Work>
    <dc:type rdf:resource="http://purl.org/dc/dcmitype/StillImage"/>
    <dc:date>2021-07-06T17:54:40.008134</dc:date>
    <dc:format>image/svg+xml</dc:format>
    <dc:creator>
     <cc:Agent>
      <dc:title>Matplotlib v3.3.3, https://matplotlib.org/</dc:title>
     </cc:Agent>
    </dc:creator>
   </cc:Work>
  </rdf:RDF>
 </metadata>
 <defs>
  <style type="text/css">*{stroke-linecap:butt;stroke-linejoin:round;}</style>
 </defs>
 <g id="figure_1">
  <g id="patch_1">
   <path d="M 0 345.6 
L 460.8 345.6 
L 460.8 0 
L 0 0 
z
" style="fill:#ffffff;"/>
  </g>
  <g id="axes_1">
   <g id="patch_2">
    <path d="M 57.6 307.584 
L 414.72 307.584 
L 414.72 41.472 
L 57.6 41.472 
z
" style="fill:#7d9051;"/>
   </g>
   <g id="matplotlib.axis_1">
    <g id="xtick_1">
     <g id="line2d_1">
      <defs>
       <path d="M 0 0 
L 0 3.5 
" id="m70037821c9" style="stroke:#000000;stroke-width:0.8;"/>
      </defs>
      <g>
       <use style="stroke:#000000;stroke-width:0.8;" x="69.274822" xlink:href="#m70037821c9" y="307.584"/>
      </g>
     </g>
     <g id="text_1">
      <!-- 20 -->
      <g transform="translate(62.912322 322.182437)scale(0.1 -0.1)">
       <defs>
        <path d="M 19.1875 8.296875 
L 53.609375 8.296875 
L 53.609375 0 
L 7.328125 0 
L 7.328125 8.296875 
Q 12.9375 14.109375 22.625 23.890625 
Q 32.328125 33.6875 34.8125 36.53125 
Q 39.546875 41.84375 41.421875 45.53125 
Q 43.3125 49.21875 43.3125 52.78125 
Q 43.3125 58.59375 39.234375 62.25 
Q 35.15625 65.921875 28.609375 65.921875 
Q 23.96875 65.921875 18.8125 64.3125 
Q 13.671875 62.703125 7.8125 59.421875 
L 7.8125 69.390625 
Q 13.765625 71.78125 18.9375 73 
Q 24.125 74.21875 28.421875 74.21875 
Q 39.75 74.21875 46.484375 68.546875 
Q 53.21875 62.890625 53.21875 53.421875 
Q 53.21875 48.921875 51.53125 44.890625 
Q 49.859375 40.875 45.40625 35.40625 
Q 44.1875 33.984375 37.640625 27.21875 
Q 31.109375 20.453125 19.1875 8.296875 
z
" id="DejaVuSans-50"/>
        <path d="M 31.78125 66.40625 
Q 24.171875 66.40625 20.328125 58.90625 
Q 16.5 51.421875 16.5 36.375 
Q 16.5 21.390625 20.328125 13.890625 
Q 24.171875 6.390625 31.78125 6.390625 
Q 39.453125 6.390625 43.28125 13.890625 
Q 47.125 21.390625 47.125 36.375 
Q 47.125 51.421875 43.28125 58.90625 
Q 39.453125 66.40625 31.78125 66.40625 
z
M 31.78125 74.21875 
Q 44.046875 74.21875 50.515625 64.515625 
Q 56.984375 54.828125 56.984375 36.375 
Q 56.984375 17.96875 50.515625 8.265625 
Q 44.046875 -1.421875 31.78125 -1.421875 
Q 19.53125 -1.421875 13.0625 8.265625 
Q 6.59375 17.96875 6.59375 36.375 
Q 6.59375 54.828125 13.0625 64.515625 
Q 19.53125 74.21875 31.78125 74.21875 
z
" id="DejaVuSans-48"/>
       </defs>
       <use xlink:href="#DejaVuSans-50"/>
       <use x="63.623047" xlink:href="#DejaVuSans-48"/>
      </g>
     </g>
    </g>
    <g id="xtick_2">
     <g id="line2d_2">
      <g>
       <use style="stroke:#000000;stroke-width:0.8;" x="123.492341" xlink:href="#m70037821c9" y="307.584"/>
      </g>
     </g>
     <g id="text_2">
      <!-- 40 -->
      <g transform="translate(117.129841 322.182437)scale(0.1 -0.1)">
       <defs>
        <path d="M 37.796875 64.3125 
L 12.890625 25.390625 
L 37.796875 25.390625 
z
M 35.203125 72.90625 
L 47.609375 72.90625 
L 47.609375 25.390625 
L 58.015625 25.390625 
L 58.015625 17.1875 
L 47.609375 17.1875 
L 47.609375 0 
L 37.796875 0 
L 37.796875 17.1875 
L 4.890625 17.1875 
L 4.890625 26.703125 
z
" id="DejaVuSans-52"/>
       </defs>
       <use xlink:href="#DejaVuSans-52"/>
       <use x="63.623047" xlink:href="#DejaVuSans-48"/>
      </g>
     </g>
    </g>
    <g id="xtick_3">
     <g id="line2d_3">
      <g>
       <use style="stroke:#000000;stroke-width:0.8;" x="177.709859" xlink:href="#m70037821c9" y="307.584"/>
      </g>
     </g>
     <g id="text_3">
      <!-- 60 -->
      <g transform="translate(171.347359 322.182437)scale(0.1 -0.1)">
       <defs>
        <path d="M 33.015625 40.375 
Q 26.375 40.375 22.484375 35.828125 
Q 18.609375 31.296875 18.609375 23.390625 
Q 18.609375 15.53125 22.484375 10.953125 
Q 26.375 6.390625 33.015625 6.390625 
Q 39.65625 6.390625 43.53125 10.953125 
Q 47.40625 15.53125 47.40625 23.390625 
Q 47.40625 31.296875 43.53125 35.828125 
Q 39.65625 40.375 33.015625 40.375 
z
M 52.59375 71.296875 
L 52.59375 62.3125 
Q 48.875 64.0625 45.09375 64.984375 
Q 41.3125 65.921875 37.59375 65.921875 
Q 27.828125 65.921875 22.671875 59.328125 
Q 17.53125 52.734375 16.796875 39.40625 
Q 19.671875 43.65625 24.015625 45.921875 
Q 28.375 48.1875 33.59375 48.1875 
Q 44.578125 48.1875 50.953125 41.515625 
Q 57.328125 34.859375 57.328125 23.390625 
Q 57.328125 12.15625 50.6875 5.359375 
Q 44.046875 -1.421875 33.015625 -1.421875 
Q 20.359375 -1.421875 13.671875 8.265625 
Q 6.984375 17.96875 6.984375 36.375 
Q 6.984375 53.65625 15.1875 63.9375 
Q 23.390625 74.21875 37.203125 74.21875 
Q 40.921875 74.21875 44.703125 73.484375 
Q 48.484375 72.75 52.59375 71.296875 
z
" id="DejaVuSans-54"/>
       </defs>
       <use xlink:href="#DejaVuSans-54"/>
       <use x="63.623047" xlink:href="#DejaVuSans-48"/>
      </g>
     </g>
    </g>
    <g id="xtick_4">
     <g id="line2d_4">
      <g>
       <use style="stroke:#000000;stroke-width:0.8;" x="231.927377" xlink:href="#m70037821c9" y="307.584"/>
      </g>
     </g>
     <g id="text_4">
      <!-- 80 -->
      <g transform="translate(225.564877 322.182437)scale(0.1 -0.1)">
       <defs>
        <path d="M 31.78125 34.625 
Q 24.75 34.625 20.71875 30.859375 
Q 16.703125 27.09375 16.703125 20.515625 
Q 16.703125 13.921875 20.71875 10.15625 
Q 24.75 6.390625 31.78125 6.390625 
Q 38.8125 6.390625 42.859375 10.171875 
Q 46.921875 13.96875 46.921875 20.515625 
Q 46.921875 27.09375 42.890625 30.859375 
Q 38.875 34.625 31.78125 34.625 
z
M 21.921875 38.8125 
Q 15.578125 40.375 12.03125 44.71875 
Q 8.5 49.078125 8.5 55.328125 
Q 8.5 64.0625 14.71875 69.140625 
Q 20.953125 74.21875 31.78125 74.21875 
Q 42.671875 74.21875 48.875 69.140625 
Q 55.078125 64.0625 55.078125 55.328125 
Q 55.078125 49.078125 51.53125 44.71875 
Q 48 40.375 41.703125 38.8125 
Q 48.828125 37.15625 52.796875 32.3125 
Q 56.78125 27.484375 56.78125 20.515625 
Q 56.78125 9.90625 50.3125 4.234375 
Q 43.84375 -1.421875 31.78125 -1.421875 
Q 19.734375 -1.421875 13.25 4.234375 
Q 6.78125 9.90625 6.78125 20.515625 
Q 6.78125 27.484375 10.78125 32.3125 
Q 14.796875 37.15625 21.921875 38.8125 
z
M 18.3125 54.390625 
Q 18.3125 48.734375 21.84375 45.5625 
Q 25.390625 42.390625 31.78125 42.390625 
Q 38.140625 42.390625 41.71875 45.5625 
Q 45.3125 48.734375 45.3125 54.390625 
Q 45.3125 60.0625 41.71875 63.234375 
Q 38.140625 66.40625 31.78125 66.40625 
Q 25.390625 66.40625 21.84375 63.234375 
Q 18.3125 60.0625 18.3125 54.390625 
z
" id="DejaVuSans-56"/>
       </defs>
       <use xlink:href="#DejaVuSans-56"/>
       <use x="63.623047" xlink:href="#DejaVuSans-48"/>
      </g>
     </g>
    </g>
    <g id="xtick_5">
     <g id="line2d_5">
      <g>
       <use style="stroke:#000000;stroke-width:0.8;" x="286.144895" xlink:href="#m70037821c9" y="307.584"/>
      </g>
     </g>
     <g id="text_5">
      <!-- 100 -->
      <g transform="translate(276.601145 322.182437)scale(0.1 -0.1)">
       <defs>
        <path d="M 12.40625 8.296875 
L 28.515625 8.296875 
L 28.515625 63.921875 
L 10.984375 60.40625 
L 10.984375 69.390625 
L 28.421875 72.90625 
L 38.28125 72.90625 
L 38.28125 8.296875 
L 54.390625 8.296875 
L 54.390625 0 
L 12.40625 0 
z
" id="DejaVuSans-49"/>
       </defs>
       <use xlink:href="#DejaVuSans-49"/>
       <use x="63.623047" xlink:href="#DejaVuSans-48"/>
       <use x="127.246094" xlink:href="#DejaVuSans-48"/>
      </g>
     </g>
    </g>
    <g id="xtick_6">
     <g id="line2d_6">
      <g>
       <use style="stroke:#000000;stroke-width:0.8;" x="340.362413" xlink:href="#m70037821c9" y="307.584"/>
      </g>
     </g>
     <g id="text_6">
      <!-- 120 -->
      <g transform="translate(330.818663 322.182437)scale(0.1 -0.1)">
       <use xlink:href="#DejaVuSans-49"/>
       <use x="63.623047" xlink:href="#DejaVuSans-50"/>
       <use x="127.246094" xlink:href="#DejaVuSans-48"/>
      </g>
     </g>
    </g>
    <g id="xtick_7">
     <g id="line2d_7">
      <g>
       <use style="stroke:#000000;stroke-width:0.8;" x="394.579931" xlink:href="#m70037821c9" y="307.584"/>
      </g>
     </g>
     <g id="text_7">
      <!-- 140 -->
      <g transform="translate(385.036181 322.182437)scale(0.1 -0.1)">
       <use xlink:href="#DejaVuSans-49"/>
       <use x="63.623047" xlink:href="#DejaVuSans-52"/>
       <use x="127.246094" xlink:href="#DejaVuSans-48"/>
      </g>
     </g>
    </g>
   </g>
   <g id="matplotlib.axis_2">
    <g id="ytick_1">
     <g id="line2d_8">
      <defs>
       <path d="M 0 0 
L -3.5 0 
" id="mdba7c6f764" style="stroke:#000000;stroke-width:0.8;"/>
      </defs>
      <g>
       <use style="stroke:#000000;stroke-width:0.8;" x="57.6" xlink:href="#mdba7c6f764" y="307.486597"/>
      </g>
     </g>
     <g id="text_8">
      <!-- 0 -->
      <g transform="translate(44.2375 311.285816)scale(0.1 -0.1)">
       <use xlink:href="#DejaVuSans-48"/>
      </g>
     </g>
    </g>
    <g id="ytick_2">
     <g id="line2d_9">
      <g>
       <use style="stroke:#000000;stroke-width:0.8;" x="57.6" xlink:href="#mdba7c6f764" y="253.269079"/>
      </g>
     </g>
     <g id="text_9">
      <!-- 20 -->
      <g transform="translate(37.875 257.068298)scale(0.1 -0.1)">
       <use xlink:href="#DejaVuSans-50"/>
       <use x="63.623047" xlink:href="#DejaVuSans-48"/>
      </g>
     </g>
    </g>
    <g id="ytick_3">
     <g id="line2d_10">
      <g>
       <use style="stroke:#000000;stroke-width:0.8;" x="57.6" xlink:href="#mdba7c6f764" y="199.051561"/>
      </g>
     </g>
     <g id="text_10">
      <!-- 40 -->
      <g transform="translate(37.875 202.850779)scale(0.1 -0.1)">
       <use xlink:href="#DejaVuSans-52"/>
       <use x="63.623047" xlink:href="#DejaVuSans-48"/>
      </g>
     </g>
    </g>
    <g id="ytick_4">
     <g id="line2d_11">
      <g>
       <use style="stroke:#000000;stroke-width:0.8;" x="57.6" xlink:href="#mdba7c6f764" y="144.834043"/>
      </g>
     </g>
     <g id="text_11">
      <!-- 60 -->
      <g transform="translate(37.875 148.633261)scale(0.1 -0.1)">
       <use xlink:href="#DejaVuSans-54"/>
       <use x="63.623047" xlink:href="#DejaVuSans-48"/>
      </g>
     </g>
    </g>
    <g id="ytick_5">
     <g id="line2d_12">
      <g>
       <use style="stroke:#000000;stroke-width:0.8;" x="57.6" xlink:href="#mdba7c6f764" y="90.616524"/>
      </g>
     </g>
     <g id="text_12">
      <!-- 80 -->
      <g transform="translate(37.875 94.415743)scale(0.1 -0.1)">
       <use xlink:href="#DejaVuSans-56"/>
       <use x="63.623047" xlink:href="#DejaVuSans-48"/>
      </g>
     </g>
    </g>
   </g>
   <g id="line2d_13">
    <path clip-path="url(#p69fe56ec31)" d="M 180.420735 60.796889 
L 182.32648 62.927638 
L 184.218672 65.063808 
L 186.091887 67.208111 
L 187.948837 69.357836 
L 189.792233 71.515693 
L 191.616652 73.681683 
L 193.427517 75.853094 
L 195.219406 78.029928 
L 196.997741 80.214894 
L 198.757099 82.407992 
L 200.502903 84.606513 
L 202.229731 86.813166 
L 203.943005 89.02524 
L 205.640013 91.245448 
L 207.318045 93.471077 
L 208.982523 95.704839 
L 210.630736 97.946733 
L 212.262683 100.194049 
L 213.875654 102.449498 
L 215.475071 104.710368 
L 217.058223 106.976661 
L 218.625109 109.253796 
L 220.17573 111.533643 
L 221.710086 113.824333 
L 223.228176 116.120445 
L 224.730001 118.421979 
L 226.215561 120.731645 
L 227.684856 123.049444 
L 229.137886 125.372664 
L 230.57465 127.701307 
L 231.995149 130.040793 
L 233.399382 132.38299 
L 234.787351 134.73603 
L 236.159054 137.091781 
L 237.514492 139.458376 
L 238.856376 141.830392 
L 240.179283 144.20783 
L 241.485925 146.593401 
L 242.779013 148.987104 
L 244.053125 151.38623 
L 245.310971 153.793487 
L 246.555263 156.206167 
L 247.780579 158.626979 
L 248.98963 161.053213 
L 250.185126 163.48758 
L 251.361646 165.927368 
L 252.524612 168.375289 
L 253.668602 170.831343 
L 254.799037 173.292818 
L 255.913207 175.762426 
L 257.008401 178.237456 
L 258.09004 180.720618 
L 259.155414 183.209202 
L 260.201813 185.705919 
L 261.234656 188.208057 
L 262.251235 190.718328 
L 263.251548 193.234021 
L 264.232885 195.757847 
L 265.200668 198.289805 
L 266.152185 200.827184 
L 267.087437 203.372697 
L 268.006424 205.923631 
L 268.909146 208.482698 
L 269.795602 211.047187 
L 270.665794 213.619808 
L 271.519719 216.197851 
L 272.35738 218.784026 
L 273.178776 221.378335 
L 273.983906 223.978065 
L 274.772771 226.585927 
L 275.54537 229.199212 
L 276.301705 231.817918 
L 277.044485 234.447467 
L 277.768288 237.079728 
L 278.475827 239.722832 
L 279.1671 242.371358 
L 279.844819 245.025305 
L 280.503562 247.687385 
L 281.14604 250.357598 
L 281.774963 253.033233 
L 282.38491 255.717 
L 282.981303 258.406189 
L 283.558719 261.100799 
L 284.122582 263.806254 
L 284.667468 266.517129 
L 285.198799 269.233427 
L 285.711155 271.957857 
L 286.209956 274.687709 
L 286.689781 277.428405 
L 287.156052 280.171811 
L 287.606057 282.92335 
L 288.039797 285.683022 
L 288.454561 288.448116 
L 288.855771 291.221342 
L 289.240715 293.999989 
" style="fill:none;stroke:#fea952;stroke-linecap:square;"/>
   </g>
   <g id="line2d_14">
    <path clip-path="url(#p69fe56ec31)" d="M 188.503106 53.568 
L 190.443507 55.737683 
L 192.384993 57.929892 
L 194.297802 60.119773 
L 196.193525 62.314634 
L 198.085742 64.530046 
L 199.944305 66.736773 
L 201.79945 68.961628 
L 203.629453 71.185026 
L 205.455907 73.429542 
L 207.248915 75.6648 
L 209.042438 77.923855 
L 210.802634 80.173368 
L 212.55812 82.440305 
L 214.298336 84.71743 
L 216.013066 86.99202 
L 217.719048 89.281856 
L 219.404843 91.575186 
L 221.082822 93.886378 
L 222.727972 96.187067 
L 224.364406 98.500594 
L 225.991241 100.829893 
L 227.591294 103.155511 
L 229.184927 105.49908 
L 230.755361 107.843985 
L 232.30932 110.194705 
L 233.849932 112.556108 
L 235.373938 114.925984 
L 236.87832 117.299506 
L 238.3662 119.678827 
L 239.843371 122.073485 
L 241.295275 124.465022 
L 242.739124 126.873833 
L 244.15804 129.279679 
L 245.568541 131.702613 
L 246.952434 134.119197 
L 248.331734 136.557901 
L 249.689646 138.998745 
L 251.026369 141.439616 
L 252.355782 143.901137 
L 253.663721 146.364477 
L 254.948298 148.823226 
L 256.230036 151.309194 
L 257.485801 153.790634 
L 258.72279 156.273343 
L 259.952311 158.777626 
L 261.156024 161.274225 
L 262.354136 163.796857 
L 263.522621 166.305873 
L 264.683193 168.833555 
L 265.829279 171.374591 
L 266.949718 173.907122 
L 268.058477 176.453085 
L 269.156107 179.017815 
L 270.224961 181.568519 
L 271.285288 184.137877 
L 272.327391 186.711753 
L 273.357948 189.304358 
L 274.361705 191.886338 
L 275.353757 194.482396 
L 276.330439 197.08757 
L 277.289124 199.697488 
L 278.232343 202.316395 
L 279.157651 204.940139 
L 280.067399 207.572743 
L 280.95932 210.21028 
L 281.835593 212.856546 
L 282.695105 215.510954 
L 283.536913 218.170444 
L 284.362945 220.838459 
L 285.171349 223.511659 
L 285.96307 226.190373 
L 286.736877 228.870251 
L 287.499918 231.572492 
L 288.242981 234.275733 
L 288.967846 236.984383 
L 289.673454 239.688428 
L 290.370838 242.420598 
L 291.046188 245.150733 
L 291.701853 247.876394 
L 292.34882 250.630083 
L 292.971201 253.369234 
L 293.584107 256.134159 
L 294.17412 258.888371 
L 294.753462 261.669447 
L 295.309289 264.435496 
L 295.855496 267.229332 
L 296.378053 270.008792 
L 296.891003 272.817734 
L 297.379982 275.611493 
L 297.857383 278.421643 
L 298.31806 281.239735 
L 298.763332 284.074492 
L 299.186338 286.895522 
L 299.596692 289.733331 
L 299.981637 292.511979 
" style="fill:none;stroke:#ffffff;stroke-linecap:square;"/>
   </g>
   <g id="line2d_15">
    <path clip-path="url(#p69fe56ec31)" d="M 172.338363 68.025779 
L 174.209454 70.117593 
L 176.05235 72.197725 
L 177.885972 74.296449 
L 179.704149 76.401037 
L 181.498723 78.50134 
L 183.288999 80.626592 
L 185.055584 82.744561 
L 186.809359 84.874829 
L 188.539575 87.000245 
L 190.265284 89.151185 
L 191.963369 91.289171 
L 193.656828 93.452963 
L 195.32789 95.610175 
L 196.98169 97.773465 
L 198.623024 99.950134 
L 200.245999 102.127821 
L 201.856628 104.31828 
L 203.442544 106.501721 
L 205.023336 108.711929 
L 206.585736 110.920143 
L 208.125204 113.123428 
L 209.658923 115.352082 
L 211.166533 117.568205 
L 212.66481 119.804681 
L 214.147032 122.046185 
L 215.610071 124.287849 
L 217.057184 126.537306 
L 218.491392 128.799382 
L 219.909571 131.066502 
L 221.305928 133.329128 
L 222.695022 135.616563 
L 224.059641 137.892146 
L 225.416662 140.19238 
L 226.749567 142.480949 
L 228.07655 144.797554 
L 229.381018 147.102883 
L 230.66892 149.416915 
L 231.945481 151.747186 
L 233.202244 154.073072 
L 234.442528 156.407983 
L 235.673644 158.763749 
L 236.880491 161.10314 
L 238.075357 163.463325 
L 239.25647 165.833084 
L 240.417941 168.197533 
L 241.567269 170.580511 
L 242.695088 172.953721 
L 243.814582 175.356812 
L 244.91488 177.752081 
L 245.997135 180.15026 
L 247.067084 182.567789 
L 248.121604 184.988151 
L 249.154722 187.400589 
L 250.178664 189.843318 
L 251.184024 192.278237 
L 252.175078 194.724903 
L 253.145148 197.163685 
L 254.104065 199.629355 
L 255.047579 202.097213 
L 255.973931 204.566799 
L 256.885751 207.047906 
L 257.780505 209.530867 
L 258.660641 212.025257 
L 259.523805 214.52163 
L 260.372267 217.029336 
L 261.203846 219.539156 
L 262.019655 222.057099 
L 262.820638 224.586225 
L 263.604867 227.11767 
L 264.374192 229.660196 
L 265.127671 232.20805 
L 265.866532 234.765585 
L 266.589051 237.322442 
L 267.293596 239.883723 
L 267.983808 242.461281 
L 268.660747 245.054288 
L 269.318801 247.630013 
L 269.960936 250.224038 
L 270.590226 252.838803 
L 271.201106 255.436382 
L 271.798619 258.064766 
L 272.378499 260.678218 
L 272.943319 263.313228 
L 273.491701 265.943061 
L 274.025646 268.598763 
L 274.542103 271.237522 
L 275.044257 273.906923 
L 275.528909 276.557685 
L 275.99958 279.245317 
L 276.454721 281.92198 
L 276.894054 284.606966 
L 277.316262 287.291552 
L 277.722785 290.000709 
L 278.114849 292.709352 
L 278.499794 295.488 
" style="fill:none;stroke:#ffffff;stroke-linecap:square;"/>
   </g>
   <g id="patch_3">
    <path d="M 57.6 307.584 
L 57.6 41.472 
" style="fill:none;stroke:#000000;stroke-linecap:square;stroke-linejoin:miter;stroke-width:0.8;"/>
   </g>
   <g id="patch_4">
    <path d="M 414.72 307.584 
L 414.72 41.472 
" style="fill:none;stroke:#000000;stroke-linecap:square;stroke-linejoin:miter;stroke-width:0.8;"/>
   </g>
   <g id="patch_5">
    <path d="M 57.6 307.584 
L 414.72 307.584 
" style="fill:none;stroke:#000000;stroke-linecap:square;stroke-linejoin:miter;stroke-width:0.8;"/>
   </g>
   <g id="patch_6">
    <path d="M 57.6 41.472 
L 414.72 41.472 
" style="fill:none;stroke:#000000;stroke-linecap:square;stroke-linejoin:miter;stroke-width:0.8;"/>
   </g>
  </g>
 </g>
 <defs>
  <clipPath id="p69fe56ec31">
   <rect height="266.112" width="357.12" x="57.6" y="41.472"/>
  </clipPath>
 </defs>
</svg>
