<?xml version="1.0" encoding="utf-8" standalone="no"?>
<!DOCTYPE svg PUBLIC "-//W3C//DTD SVG 1.1//EN"
  "http://www.w3.org/Graphics/SVG/1.1/DTD/svg11.dtd">
<!-- Created with matplotlib (https://matplotlib.org/) -->
<svg height="345.6pt" version="1.1" viewBox="0 0 460.8 345.6" width="460.8pt" xmlns="http://www.w3.org/2000/svg" xmlns:xlink="http://www.w3.org/1999/xlink">
 <metadata>
  <rdf:RDF xmlns:cc="http://creativecommons.org/ns#" xmlns:dc="http://purl.org/dc/elements/1.1/" xmlns:rdf="http://www.w3.org/1999/02/22-rdf-syntax-ns#">
   <cc:Work>
    <dc:type rdf:resource="http://purl.org/dc/dcmitype/StillImage"/>
    <dc:date>2021-07-12T20:29:41.052732</dc:date>
    <dc:format>image/svg+xml</dc:format>
    <dc:creator>
     <cc:Agent>
      <dc:title>Matplotlib v3.3.3, https://matplotlib.org/</dc:title>
     </cc:Agent>
    </dc:creator>
   </cc:Work>
  </rdf:RDF>
 </metadata>
 <defs>
  <style type="text/css">*{stroke-linecap:butt;stroke-linejoin:round;}</style>
 </defs>
 <g id="figure_1">
  <g id="patch_1">
   <path d="M 0 345.6 
L 460.8 345.6 
L 460.8 0 
L 0 0 
z
" style="fill:#ffffff;"/>
  </g>
  <g id="axes_1">
   <g id="patch_2">
    <path d="M 57.6 307.584 
L 414.72 307.584 
L 414.72 41.472 
L 57.6 41.472 
z
" style="fill:#7d9051;"/>
   </g>
   <g id="matplotlib.axis_1">
    <g id="xtick_1">
     <g id="line2d_1">
      <defs>
       <path d="M 0 0 
L 0 3.5 
" id="mba80ec212b" style="stroke:#000000;stroke-width:0.8;"/>
      </defs>
      <g>
       <use style="stroke:#000000;stroke-width:0.8;" x="83.867483" xlink:href="#mba80ec212b" y="307.584"/>
      </g>
     </g>
     <g id="text_1">
      <!-- 50 -->
      <g transform="translate(77.504983 322.182437)scale(0.1 -0.1)">
       <defs>
        <path d="M 10.796875 72.90625 
L 49.515625 72.90625 
L 49.515625 64.59375 
L 19.828125 64.59375 
L 19.828125 46.734375 
Q 21.96875 47.46875 24.109375 47.828125 
Q 26.265625 48.1875 28.421875 48.1875 
Q 40.625 48.1875 47.75 41.5 
Q 54.890625 34.8125 54.890625 23.390625 
Q 54.890625 11.625 47.5625 5.09375 
Q 40.234375 -1.421875 26.90625 -1.421875 
Q 22.3125 -1.421875 17.546875 -0.640625 
Q 12.796875 0.140625 7.71875 1.703125 
L 7.71875 11.625 
Q 12.109375 9.234375 16.796875 8.0625 
Q 21.484375 6.890625 26.703125 6.890625 
Q 35.15625 6.890625 40.078125 11.328125 
Q 45.015625 15.765625 45.015625 23.390625 
Q 45.015625 31 40.078125 35.4375 
Q 35.15625 39.890625 26.703125 39.890625 
Q 22.75 39.890625 18.8125 39.015625 
Q 14.890625 38.140625 10.796875 36.28125 
z
" id="DejaVuSans-53"/>
        <path d="M 31.78125 66.40625 
Q 24.171875 66.40625 20.328125 58.90625 
Q 16.5 51.421875 16.5 36.375 
Q 16.5 21.390625 20.328125 13.890625 
Q 24.171875 6.390625 31.78125 6.390625 
Q 39.453125 6.390625 43.28125 13.890625 
Q 47.125 21.390625 47.125 36.375 
Q 47.125 51.421875 43.28125 58.90625 
Q 39.453125 66.40625 31.78125 66.40625 
z
M 31.78125 74.21875 
Q 44.046875 74.21875 50.515625 64.515625 
Q 56.984375 54.828125 56.984375 36.375 
Q 56.984375 17.96875 50.515625 8.265625 
Q 44.046875 -1.421875 31.78125 -1.421875 
Q 19.53125 -1.421875 13.0625 8.265625 
Q 6.59375 17.96875 6.59375 36.375 
Q 6.59375 54.828125 13.0625 64.515625 
Q 19.53125 74.21875 31.78125 74.21875 
z
" id="DejaVuSans-48"/>
       </defs>
       <use xlink:href="#DejaVuSans-53"/>
       <use x="63.623047" xlink:href="#DejaVuSans-48"/>
      </g>
     </g>
    </g>
    <g id="xtick_2">
     <g id="line2d_2">
      <g>
       <use style="stroke:#000000;stroke-width:0.8;" x="159.08815" xlink:href="#mba80ec212b" y="307.584"/>
      </g>
     </g>
     <g id="text_2">
      <!-- 100 -->
      <g transform="translate(149.5444 322.182437)scale(0.1 -0.1)">
       <defs>
        <path d="M 12.40625 8.296875 
L 28.515625 8.296875 
L 28.515625 63.921875 
L 10.984375 60.40625 
L 10.984375 69.390625 
L 28.421875 72.90625 
L 38.28125 72.90625 
L 38.28125 8.296875 
L 54.390625 8.296875 
L 54.390625 0 
L 12.40625 0 
z
" id="DejaVuSans-49"/>
       </defs>
       <use xlink:href="#DejaVuSans-49"/>
       <use x="63.623047" xlink:href="#DejaVuSans-48"/>
       <use x="127.246094" xlink:href="#DejaVuSans-48"/>
      </g>
     </g>
    </g>
    <g id="xtick_3">
     <g id="line2d_3">
      <g>
       <use style="stroke:#000000;stroke-width:0.8;" x="234.308818" xlink:href="#mba80ec212b" y="307.584"/>
      </g>
     </g>
     <g id="text_3">
      <!-- 150 -->
      <g transform="translate(224.765068 322.182437)scale(0.1 -0.1)">
       <use xlink:href="#DejaVuSans-49"/>
       <use x="63.623047" xlink:href="#DejaVuSans-53"/>
       <use x="127.246094" xlink:href="#DejaVuSans-48"/>
      </g>
     </g>
    </g>
    <g id="xtick_4">
     <g id="line2d_4">
      <g>
       <use style="stroke:#000000;stroke-width:0.8;" x="309.529485" xlink:href="#mba80ec212b" y="307.584"/>
      </g>
     </g>
     <g id="text_4">
      <!-- 200 -->
      <g transform="translate(299.985735 322.182437)scale(0.1 -0.1)">
       <defs>
        <path d="M 19.1875 8.296875 
L 53.609375 8.296875 
L 53.609375 0 
L 7.328125 0 
L 7.328125 8.296875 
Q 12.9375 14.109375 22.625 23.890625 
Q 32.328125 33.6875 34.8125 36.53125 
Q 39.546875 41.84375 41.421875 45.53125 
Q 43.3125 49.21875 43.3125 52.78125 
Q 43.3125 58.59375 39.234375 62.25 
Q 35.15625 65.921875 28.609375 65.921875 
Q 23.96875 65.921875 18.8125 64.3125 
Q 13.671875 62.703125 7.8125 59.421875 
L 7.8125 69.390625 
Q 13.765625 71.78125 18.9375 73 
Q 24.125 74.21875 28.421875 74.21875 
Q 39.75 74.21875 46.484375 68.546875 
Q 53.21875 62.890625 53.21875 53.421875 
Q 53.21875 48.921875 51.53125 44.890625 
Q 49.859375 40.875 45.40625 35.40625 
Q 44.1875 33.984375 37.640625 27.21875 
Q 31.109375 20.453125 19.1875 8.296875 
z
" id="DejaVuSans-50"/>
       </defs>
       <use xlink:href="#DejaVuSans-50"/>
       <use x="63.623047" xlink:href="#DejaVuSans-48"/>
       <use x="127.246094" xlink:href="#DejaVuSans-48"/>
      </g>
     </g>
    </g>
    <g id="xtick_5">
     <g id="line2d_5">
      <g>
       <use style="stroke:#000000;stroke-width:0.8;" x="384.750153" xlink:href="#mba80ec212b" y="307.584"/>
      </g>
     </g>
     <g id="text_5">
      <!-- 250 -->
      <g transform="translate(375.206403 322.182437)scale(0.1 -0.1)">
       <use xlink:href="#DejaVuSans-50"/>
       <use x="63.623047" xlink:href="#DejaVuSans-53"/>
       <use x="127.246094" xlink:href="#DejaVuSans-48"/>
      </g>
     </g>
    </g>
   </g>
   <g id="matplotlib.axis_2">
    <g id="ytick_1">
     <g id="line2d_6">
      <defs>
       <path d="M 0 0 
L -3.5 0 
" id="m4e16e585a4" style="stroke:#000000;stroke-width:0.8;"/>
      </defs>
      <g>
       <use style="stroke:#000000;stroke-width:0.8;" x="57.6" xlink:href="#m4e16e585a4" y="302.949953"/>
      </g>
     </g>
     <g id="text_6">
      <!-- 20 -->
      <g transform="translate(37.875 306.749172)scale(0.1 -0.1)">
       <use xlink:href="#DejaVuSans-50"/>
       <use x="63.623047" xlink:href="#DejaVuSans-48"/>
      </g>
     </g>
    </g>
    <g id="ytick_2">
     <g id="line2d_7">
      <g>
       <use style="stroke:#000000;stroke-width:0.8;" x="57.6" xlink:href="#m4e16e585a4" y="272.861686"/>
      </g>
     </g>
     <g id="text_7">
      <!-- 40 -->
      <g transform="translate(37.875 276.660905)scale(0.1 -0.1)">
       <defs>
        <path d="M 37.796875 64.3125 
L 12.890625 25.390625 
L 37.796875 25.390625 
z
M 35.203125 72.90625 
L 47.609375 72.90625 
L 47.609375 25.390625 
L 58.015625 25.390625 
L 58.015625 17.1875 
L 47.609375 17.1875 
L 47.609375 0 
L 37.796875 0 
L 37.796875 17.1875 
L 4.890625 17.1875 
L 4.890625 26.703125 
z
" id="DejaVuSans-52"/>
       </defs>
       <use xlink:href="#DejaVuSans-52"/>
       <use x="63.623047" xlink:href="#DejaVuSans-48"/>
      </g>
     </g>
    </g>
    <g id="ytick_3">
     <g id="line2d_8">
      <g>
       <use style="stroke:#000000;stroke-width:0.8;" x="57.6" xlink:href="#m4e16e585a4" y="242.773419"/>
      </g>
     </g>
     <g id="text_8">
      <!-- 60 -->
      <g transform="translate(37.875 246.572638)scale(0.1 -0.1)">
       <defs>
        <path d="M 33.015625 40.375 
Q 26.375 40.375 22.484375 35.828125 
Q 18.609375 31.296875 18.609375 23.390625 
Q 18.609375 15.53125 22.484375 10.953125 
Q 26.375 6.390625 33.015625 6.390625 
Q 39.65625 6.390625 43.53125 10.953125 
Q 47.40625 15.53125 47.40625 23.390625 
Q 47.40625 31.296875 43.53125 35.828125 
Q 39.65625 40.375 33.015625 40.375 
z
M 52.59375 71.296875 
L 52.59375 62.3125 
Q 48.875 64.0625 45.09375 64.984375 
Q 41.3125 65.921875 37.59375 65.921875 
Q 27.828125 65.921875 22.671875 59.328125 
Q 17.53125 52.734375 16.796875 39.40625 
Q 19.671875 43.65625 24.015625 45.921875 
Q 28.375 48.1875 33.59375 48.1875 
Q 44.578125 48.1875 50.953125 41.515625 
Q 57.328125 34.859375 57.328125 23.390625 
Q 57.328125 12.15625 50.6875 5.359375 
Q 44.046875 -1.421875 33.015625 -1.421875 
Q 20.359375 -1.421875 13.671875 8.265625 
Q 6.984375 17.96875 6.984375 36.375 
Q 6.984375 53.65625 15.1875 63.9375 
Q 23.390625 74.21875 37.203125 74.21875 
Q 40.921875 74.21875 44.703125 73.484375 
Q 48.484375 72.75 52.59375 71.296875 
z
" id="DejaVuSans-54"/>
       </defs>
       <use xlink:href="#DejaVuSans-54"/>
       <use x="63.623047" xlink:href="#DejaVuSans-48"/>
      </g>
     </g>
    </g>
    <g id="ytick_4">
     <g id="line2d_9">
      <g>
       <use style="stroke:#000000;stroke-width:0.8;" x="57.6" xlink:href="#m4e16e585a4" y="212.685152"/>
      </g>
     </g>
     <g id="text_9">
      <!-- 80 -->
      <g transform="translate(37.875 216.484371)scale(0.1 -0.1)">
       <defs>
        <path d="M 31.78125 34.625 
Q 24.75 34.625 20.71875 30.859375 
Q 16.703125 27.09375 16.703125 20.515625 
Q 16.703125 13.921875 20.71875 10.15625 
Q 24.75 6.390625 31.78125 6.390625 
Q 38.8125 6.390625 42.859375 10.171875 
Q 46.921875 13.96875 46.921875 20.515625 
Q 46.921875 27.09375 42.890625 30.859375 
Q 38.875 34.625 31.78125 34.625 
z
M 21.921875 38.8125 
Q 15.578125 40.375 12.03125 44.71875 
Q 8.5 49.078125 8.5 55.328125 
Q 8.5 64.0625 14.71875 69.140625 
Q 20.953125 74.21875 31.78125 74.21875 
Q 42.671875 74.21875 48.875 69.140625 
Q 55.078125 64.0625 55.078125 55.328125 
Q 55.078125 49.078125 51.53125 44.71875 
Q 48 40.375 41.703125 38.8125 
Q 48.828125 37.15625 52.796875 32.3125 
Q 56.78125 27.484375 56.78125 20.515625 
Q 56.78125 9.90625 50.3125 4.234375 
Q 43.84375 -1.421875 31.78125 -1.421875 
Q 19.734375 -1.421875 13.25 4.234375 
Q 6.78125 9.90625 6.78125 20.515625 
Q 6.78125 27.484375 10.78125 32.3125 
Q 14.796875 37.15625 21.921875 38.8125 
z
M 18.3125 54.390625 
Q 18.3125 48.734375 21.84375 45.5625 
Q 25.390625 42.390625 31.78125 42.390625 
Q 38.140625 42.390625 41.71875 45.5625 
Q 45.3125 48.734375 45.3125 54.390625 
Q 45.3125 60.0625 41.71875 63.234375 
Q 38.140625 66.40625 31.78125 66.40625 
Q 25.390625 66.40625 21.84375 63.234375 
Q 18.3125 60.0625 18.3125 54.390625 
z
" id="DejaVuSans-56"/>
       </defs>
       <use xlink:href="#DejaVuSans-56"/>
       <use x="63.623047" xlink:href="#DejaVuSans-48"/>
      </g>
     </g>
    </g>
    <g id="ytick_5">
     <g id="line2d_10">
      <g>
       <use style="stroke:#000000;stroke-width:0.8;" x="57.6" xlink:href="#m4e16e585a4" y="182.596885"/>
      </g>
     </g>
     <g id="text_10">
      <!-- 100 -->
      <g transform="translate(31.5125 186.396104)scale(0.1 -0.1)">
       <use xlink:href="#DejaVuSans-49"/>
       <use x="63.623047" xlink:href="#DejaVuSans-48"/>
       <use x="127.246094" xlink:href="#DejaVuSans-48"/>
      </g>
     </g>
    </g>
    <g id="ytick_6">
     <g id="line2d_11">
      <g>
       <use style="stroke:#000000;stroke-width:0.8;" x="57.6" xlink:href="#m4e16e585a4" y="152.508618"/>
      </g>
     </g>
     <g id="text_11">
      <!-- 120 -->
      <g transform="translate(31.5125 156.307837)scale(0.1 -0.1)">
       <use xlink:href="#DejaVuSans-49"/>
       <use x="63.623047" xlink:href="#DejaVuSans-50"/>
       <use x="127.246094" xlink:href="#DejaVuSans-48"/>
      </g>
     </g>
    </g>
    <g id="ytick_7">
     <g id="line2d_12">
      <g>
       <use style="stroke:#000000;stroke-width:0.8;" x="57.6" xlink:href="#m4e16e585a4" y="122.420351"/>
      </g>
     </g>
     <g id="text_12">
      <!-- 140 -->
      <g transform="translate(31.5125 126.21957)scale(0.1 -0.1)">
       <use xlink:href="#DejaVuSans-49"/>
       <use x="63.623047" xlink:href="#DejaVuSans-52"/>
       <use x="127.246094" xlink:href="#DejaVuSans-48"/>
      </g>
     </g>
    </g>
    <g id="ytick_8">
     <g id="line2d_13">
      <g>
       <use style="stroke:#000000;stroke-width:0.8;" x="57.6" xlink:href="#m4e16e585a4" y="92.332084"/>
      </g>
     </g>
     <g id="text_13">
      <!-- 160 -->
      <g transform="translate(31.5125 96.131303)scale(0.1 -0.1)">
       <use xlink:href="#DejaVuSans-49"/>
       <use x="63.623047" xlink:href="#DejaVuSans-54"/>
       <use x="127.246094" xlink:href="#DejaVuSans-48"/>
      </g>
     </g>
    </g>
    <g id="ytick_9">
     <g id="line2d_14">
      <g>
       <use style="stroke:#000000;stroke-width:0.8;" x="57.6" xlink:href="#m4e16e585a4" y="62.243817"/>
      </g>
     </g>
     <g id="text_14">
      <!-- 180 -->
      <g transform="translate(31.5125 66.043036)scale(0.1 -0.1)">
       <use xlink:href="#DejaVuSans-49"/>
       <use x="63.623047" xlink:href="#DejaVuSans-56"/>
       <use x="127.246094" xlink:href="#DejaVuSans-48"/>
      </g>
     </g>
    </g>
   </g>
   <g id="line2d_15">
    <path clip-path="url(#pe5aab12157)" d="M 196.698484 295.427887 
L 196.818837 290.913142 
L 197.232551 284.90602 
L 198.01635 274.397692 
L 198.133694 269.884452 
L 198.061483 266.874121 
L 197.829803 263.872817 
L 197.401045 260.892574 
L 196.737599 257.955959 
L 195.777783 255.103591 
L 194.526111 252.367063 
L 193.051786 249.741862 
L 190.561982 245.974811 
L 186.976965 241.136618 
L 182.505848 235.081354 
L 180.064186 231.284214 
L 178.634993 228.634943 
L 177.438984 225.87284 
L 175.459176 220.186157 
L 173.715561 214.42275 
L 172.605304 210.044907 
L 171.711683 205.618923 
L 171.087351 201.146302 
L 170.852663 198.144997 
L 170.792486 195.134666 
L 170.935405 192.127344 
L 171.314518 189.141083 
L 171.952389 186.199955 
L 172.815922 183.315995 
L 173.87202 180.496724 
L 175.093604 177.745152 
L 177.184738 173.743413 
L 179.543659 169.892114 
L 182.126736 166.188249 
L 184.911405 162.63332 
L 187.879613 159.230337 
L 191.025341 155.991335 
L 193.300014 154.019049 
L 195.747695 152.266408 
L 198.317233 150.697304 
L 202.314459 148.595639 
L 207.772471 146.05318 
L 214.587463 142.859311 
L 218.556106 140.706495 
L 221.09706 139.09226 
L 223.508634 137.289973 
L 226.920644 134.330792 
L 230.164159 131.189577 
L 233.263251 127.905442 
L 237.222867 123.368132 
L 242.941142 116.377123 
L 251.388423 105.784548 
L 254.841051 100.853081 
L 263.300368 88.401052 
L 266.073001 84.837097 
L 268.045287 82.562424 
L 270.136422 80.396069 
L 272.355432 78.362102 
L 274.685768 76.45601 
L 278.339988 73.803729 
L 282.135623 71.357553 
L 287.333371 68.318638 
L 303.083074 59.471183 
L 304.360321 58.675349 
L 304.360321 58.675349 
" style="fill:none;stroke:#fea952;stroke-linecap:square;"/>
   </g>
   <g id="line2d_16">
    <path clip-path="url(#pe5aab12157)" d="M 190.681131 295.367773 
L 190.810616 290.576345 
L 191.235148 284.412753 
L 192.004008 274.144921 
L 192.116473 269.956587 
L 191.976064 265.924704 
L 191.701487 263.34092 
L 191.259364 260.86643 
L 190.651789 258.596849 
L 189.770274 256.349477 
L 188.621873 254.083878 
L 187.237641 251.791613 
L 184.841278 248.324671 
L 176.606407 237.099811 
L 174.820631 234.23672 
L 173.172264 231.158976 
L 171.787858 227.940912 
L 169.729636 222.025863 
L 167.904298 215.98524 
L 166.728272 211.338215 
L 165.771419 206.580909 
L 165.095206 201.699793 
L 164.838905 198.361492 
L 164.777362 194.960227 
L 164.950981 191.495822 
L 165.407559 187.992174 
L 166.15773 184.57697 
L 167.149935 181.288991 
L 168.338128 178.13279 
L 169.694522 175.087697 
L 171.190842 172.147057 
L 173.667069 167.905954 
L 176.37233 163.871701 
L 179.290816 160.008693 
L 182.406849 156.310391 
L 185.724722 152.769808 
L 188.313744 150.328913 
L 191.102231 148.155775 
L 193.965153 146.277201 
L 196.844282 144.635508 
L 201.119231 142.492397 
L 214.255621 136.236096 
L 216.53071 134.894256 
L 218.622175 133.469028 
L 220.721637 131.782054 
L 223.830453 128.980968 
L 226.834651 125.977807 
L 230.710498 121.720799 
L 235.434906 116.093428 
L 245.665952 103.390122 
L 248.187785 99.917499 
L 252.322989 93.773502 
L 256.633661 87.373261 
L 259.44941 83.507618 
L 262.547534 79.68944 
L 264.807179 77.221116 
L 267.231846 74.865218 
L 269.757416 72.688738 
L 272.353604 70.67317 
L 276.333299 67.910576 
L 280.363664 65.396552 
L 285.738058 62.317316 
L 298.68096 55.100476 
L 301.178004 53.568 
L 301.178004 53.568 
" style="fill:none;stroke:#ffffff;stroke-linecap:square;"/>
   </g>
   <g id="line2d_17">
    <path clip-path="url(#pe5aab12157)" d="M 202.715837 295.488 
L 202.827058 291.249939 
L 203.229954 285.399286 
L 204.028692 274.650463 
L 204.150915 269.812318 
L 204.06758 266.50137 
L 203.800337 263.121239 
L 203.297166 259.689284 
L 202.493291 256.199781 
L 201.306387 252.727314 
L 199.826795 249.518396 
L 198.152041 246.548188 
L 196.363252 243.778318 
L 193.601017 239.92623 
L 187.487706 231.705965 
L 185.30774 228.331709 
L 184.097722 226.110909 
L 183.090111 223.804768 
L 181.188717 218.346452 
L 179.526824 212.860259 
L 178.482336 208.751599 
L 177.651947 204.656937 
L 177.079496 200.592811 
L 176.816109 196.616537 
L 176.840678 194.026951 
L 177.045762 191.514293 
L 177.454059 189.065149 
L 178.091613 186.578496 
L 178.926185 184.093253 
L 179.928271 181.631742 
L 181.722362 177.972492 
L 183.792473 174.411707 
L 186.111953 170.941946 
L 188.633425 167.595805 
L 191.333454 164.382833 
L 194.186685 161.328067 
L 195.960461 159.622799 
L 197.910876 158.080036 
L 200.075704 156.645892 
L 203.66159 154.650766 
L 207.544769 152.773201 
L 217.336227 148.212483 
L 220.244929 146.675291 
L 223.151039 144.945119 
L 226.021129 142.961345 
L 228.609419 140.872242 
L 232.207278 137.622578 
L 235.587811 134.238 
L 238.786879 130.760491 
L 242.826374 126.050662 
L 249.513421 117.804075 
L 256.261092 109.31573 
L 259.84156 104.200777 
L 268.11449 92.011644 
L 270.668164 88.722535 
L 273.341433 85.707288 
L 275.228415 83.859855 
L 277.258208 82.10079 
L 280.53648 79.604999 
L 284.040693 77.260736 
L 288.99131 74.295806 
L 296.819967 69.969076 
L 303.547796 66.200183 
L 307.542638 63.782697 
L 307.542638 63.782697 
" style="fill:none;stroke:#ffffff;stroke-linecap:square;"/>
   </g>
   <g id="patch_3">
    <path d="M 57.6 307.584 
L 57.6 41.472 
" style="fill:none;stroke:#000000;stroke-linecap:square;stroke-linejoin:miter;stroke-width:0.8;"/>
   </g>
   <g id="patch_4">
    <path d="M 414.72 307.584 
L 414.72 41.472 
" style="fill:none;stroke:#000000;stroke-linecap:square;stroke-linejoin:miter;stroke-width:0.8;"/>
   </g>
   <g id="patch_5">
    <path d="M 57.6 307.584 
L 414.72 307.584 
" style="fill:none;stroke:#000000;stroke-linecap:square;stroke-linejoin:miter;stroke-width:0.8;"/>
   </g>
   <g id="patch_6">
    <path d="M 57.6 41.472 
L 414.72 41.472 
" style="fill:none;stroke:#000000;stroke-linecap:square;stroke-linejoin:miter;stroke-width:0.8;"/>
   </g>
  </g>
 </g>
 <defs>
  <clipPath id="pe5aab12157">
   <rect height="266.112" width="357.12" x="57.6" y="41.472"/>
  </clipPath>
 </defs>
</svg>
