<?xml version="1.0" encoding="utf-8" standalone="no"?>
<!DOCTYPE svg PUBLIC "-//W3C//DTD SVG 1.1//EN"
  "http://www.w3.org/Graphics/SVG/1.1/DTD/svg11.dtd">
<!-- Created with matplotlib (https://matplotlib.org/) -->
<svg height="345.6pt" version="1.1" viewBox="0 0 460.8 345.6" width="460.8pt" xmlns="http://www.w3.org/2000/svg" xmlns:xlink="http://www.w3.org/1999/xlink">
 <metadata>
  <rdf:RDF xmlns:cc="http://creativecommons.org/ns#" xmlns:dc="http://purl.org/dc/elements/1.1/" xmlns:rdf="http://www.w3.org/1999/02/22-rdf-syntax-ns#">
   <cc:Work>
    <dc:type rdf:resource="http://purl.org/dc/dcmitype/StillImage"/>
    <dc:date>2021-07-12T18:56:47.362503</dc:date>
    <dc:format>image/svg+xml</dc:format>
    <dc:creator>
     <cc:Agent>
      <dc:title>Matplotlib v3.3.3, https://matplotlib.org/</dc:title>
     </cc:Agent>
    </dc:creator>
   </cc:Work>
  </rdf:RDF>
 </metadata>
 <defs>
  <style type="text/css">*{stroke-linecap:butt;stroke-linejoin:round;}</style>
 </defs>
 <g id="figure_1">
  <g id="patch_1">
   <path d="M 0 345.6 
L 460.8 345.6 
L 460.8 0 
L 0 0 
z
" style="fill:#ffffff;"/>
  </g>
  <g id="axes_1">
   <g id="patch_2">
    <path d="M 57.6 307.584 
L 414.72 307.584 
L 414.72 41.472 
L 57.6 41.472 
z
" style="fill:#7d9051;"/>
   </g>
   <g id="matplotlib.axis_1">
    <g id="xtick_1">
     <g id="line2d_1">
      <defs>
       <path d="M 0 0 
L 0 3.5 
" id="me2b3cfe3f7" style="stroke:#000000;stroke-width:0.8;"/>
      </defs>
      <g>
       <use style="stroke:#000000;stroke-width:0.8;" x="64.188605" xlink:href="#me2b3cfe3f7" y="307.584"/>
      </g>
     </g>
     <g id="text_1">
      <!-- 80 -->
      <g transform="translate(57.826105 322.182437)scale(0.1 -0.1)">
       <defs>
        <path d="M 31.78125 34.625 
Q 24.75 34.625 20.71875 30.859375 
Q 16.703125 27.09375 16.703125 20.515625 
Q 16.703125 13.921875 20.71875 10.15625 
Q 24.75 6.390625 31.78125 6.390625 
Q 38.8125 6.390625 42.859375 10.171875 
Q 46.921875 13.96875 46.921875 20.515625 
Q 46.921875 27.09375 42.890625 30.859375 
Q 38.875 34.625 31.78125 34.625 
z
M 21.921875 38.8125 
Q 15.578125 40.375 12.03125 44.71875 
Q 8.5 49.078125 8.5 55.328125 
Q 8.5 64.0625 14.71875 69.140625 
Q 20.953125 74.21875 31.78125 74.21875 
Q 42.671875 74.21875 48.875 69.140625 
Q 55.078125 64.0625 55.078125 55.328125 
Q 55.078125 49.078125 51.53125 44.71875 
Q 48 40.375 41.703125 38.8125 
Q 48.828125 37.15625 52.796875 32.3125 
Q 56.78125 27.484375 56.78125 20.515625 
Q 56.78125 9.90625 50.3125 4.234375 
Q 43.84375 -1.421875 31.78125 -1.421875 
Q 19.734375 -1.421875 13.25 4.234375 
Q 6.78125 9.90625 6.78125 20.515625 
Q 6.78125 27.484375 10.78125 32.3125 
Q 14.796875 37.15625 21.921875 38.8125 
z
M 18.3125 54.390625 
Q 18.3125 48.734375 21.84375 45.5625 
Q 25.390625 42.390625 31.78125 42.390625 
Q 38.140625 42.390625 41.71875 45.5625 
Q 45.3125 48.734375 45.3125 54.390625 
Q 45.3125 60.0625 41.71875 63.234375 
Q 38.140625 66.40625 31.78125 66.40625 
Q 25.390625 66.40625 21.84375 63.234375 
Q 18.3125 60.0625 18.3125 54.390625 
z
" id="DejaVuSans-56"/>
        <path d="M 31.78125 66.40625 
Q 24.171875 66.40625 20.328125 58.90625 
Q 16.5 51.421875 16.5 36.375 
Q 16.5 21.390625 20.328125 13.890625 
Q 24.171875 6.390625 31.78125 6.390625 
Q 39.453125 6.390625 43.28125 13.890625 
Q 47.125 21.390625 47.125 36.375 
Q 47.125 51.421875 43.28125 58.90625 
Q 39.453125 66.40625 31.78125 66.40625 
z
M 31.78125 74.21875 
Q 44.046875 74.21875 50.515625 64.515625 
Q 56.984375 54.828125 56.984375 36.375 
Q 56.984375 17.96875 50.515625 8.265625 
Q 44.046875 -1.421875 31.78125 -1.421875 
Q 19.53125 -1.421875 13.0625 8.265625 
Q 6.59375 17.96875 6.59375 36.375 
Q 6.59375 54.828125 13.0625 64.515625 
Q 19.53125 74.21875 31.78125 74.21875 
z
" id="DejaVuSans-48"/>
       </defs>
       <use xlink:href="#DejaVuSans-56"/>
       <use x="63.623047" xlink:href="#DejaVuSans-48"/>
      </g>
     </g>
    </g>
    <g id="xtick_2">
     <g id="line2d_2">
      <g>
       <use style="stroke:#000000;stroke-width:0.8;" x="110.7902" xlink:href="#me2b3cfe3f7" y="307.584"/>
      </g>
     </g>
     <g id="text_2">
      <!-- 100 -->
      <g transform="translate(101.24645 322.182437)scale(0.1 -0.1)">
       <defs>
        <path d="M 12.40625 8.296875 
L 28.515625 8.296875 
L 28.515625 63.921875 
L 10.984375 60.40625 
L 10.984375 69.390625 
L 28.421875 72.90625 
L 38.28125 72.90625 
L 38.28125 8.296875 
L 54.390625 8.296875 
L 54.390625 0 
L 12.40625 0 
z
" id="DejaVuSans-49"/>
       </defs>
       <use xlink:href="#DejaVuSans-49"/>
       <use x="63.623047" xlink:href="#DejaVuSans-48"/>
       <use x="127.246094" xlink:href="#DejaVuSans-48"/>
      </g>
     </g>
    </g>
    <g id="xtick_3">
     <g id="line2d_3">
      <g>
       <use style="stroke:#000000;stroke-width:0.8;" x="157.391796" xlink:href="#me2b3cfe3f7" y="307.584"/>
      </g>
     </g>
     <g id="text_3">
      <!-- 120 -->
      <g transform="translate(147.848046 322.182437)scale(0.1 -0.1)">
       <defs>
        <path d="M 19.1875 8.296875 
L 53.609375 8.296875 
L 53.609375 0 
L 7.328125 0 
L 7.328125 8.296875 
Q 12.9375 14.109375 22.625 23.890625 
Q 32.328125 33.6875 34.8125 36.53125 
Q 39.546875 41.84375 41.421875 45.53125 
Q 43.3125 49.21875 43.3125 52.78125 
Q 43.3125 58.59375 39.234375 62.25 
Q 35.15625 65.921875 28.609375 65.921875 
Q 23.96875 65.921875 18.8125 64.3125 
Q 13.671875 62.703125 7.8125 59.421875 
L 7.8125 69.390625 
Q 13.765625 71.78125 18.9375 73 
Q 24.125 74.21875 28.421875 74.21875 
Q 39.75 74.21875 46.484375 68.546875 
Q 53.21875 62.890625 53.21875 53.421875 
Q 53.21875 48.921875 51.53125 44.890625 
Q 49.859375 40.875 45.40625 35.40625 
Q 44.1875 33.984375 37.640625 27.21875 
Q 31.109375 20.453125 19.1875 8.296875 
z
" id="DejaVuSans-50"/>
       </defs>
       <use xlink:href="#DejaVuSans-49"/>
       <use x="63.623047" xlink:href="#DejaVuSans-50"/>
       <use x="127.246094" xlink:href="#DejaVuSans-48"/>
      </g>
     </g>
    </g>
    <g id="xtick_4">
     <g id="line2d_4">
      <g>
       <use style="stroke:#000000;stroke-width:0.8;" x="203.993391" xlink:href="#me2b3cfe3f7" y="307.584"/>
      </g>
     </g>
     <g id="text_4">
      <!-- 140 -->
      <g transform="translate(194.449641 322.182437)scale(0.1 -0.1)">
       <defs>
        <path d="M 37.796875 64.3125 
L 12.890625 25.390625 
L 37.796875 25.390625 
z
M 35.203125 72.90625 
L 47.609375 72.90625 
L 47.609375 25.390625 
L 58.015625 25.390625 
L 58.015625 17.1875 
L 47.609375 17.1875 
L 47.609375 0 
L 37.796875 0 
L 37.796875 17.1875 
L 4.890625 17.1875 
L 4.890625 26.703125 
z
" id="DejaVuSans-52"/>
       </defs>
       <use xlink:href="#DejaVuSans-49"/>
       <use x="63.623047" xlink:href="#DejaVuSans-52"/>
       <use x="127.246094" xlink:href="#DejaVuSans-48"/>
      </g>
     </g>
    </g>
    <g id="xtick_5">
     <g id="line2d_5">
      <g>
       <use style="stroke:#000000;stroke-width:0.8;" x="250.594986" xlink:href="#me2b3cfe3f7" y="307.584"/>
      </g>
     </g>
     <g id="text_5">
      <!-- 160 -->
      <g transform="translate(241.051236 322.182437)scale(0.1 -0.1)">
       <defs>
        <path d="M 33.015625 40.375 
Q 26.375 40.375 22.484375 35.828125 
Q 18.609375 31.296875 18.609375 23.390625 
Q 18.609375 15.53125 22.484375 10.953125 
Q 26.375 6.390625 33.015625 6.390625 
Q 39.65625 6.390625 43.53125 10.953125 
Q 47.40625 15.53125 47.40625 23.390625 
Q 47.40625 31.296875 43.53125 35.828125 
Q 39.65625 40.375 33.015625 40.375 
z
M 52.59375 71.296875 
L 52.59375 62.3125 
Q 48.875 64.0625 45.09375 64.984375 
Q 41.3125 65.921875 37.59375 65.921875 
Q 27.828125 65.921875 22.671875 59.328125 
Q 17.53125 52.734375 16.796875 39.40625 
Q 19.671875 43.65625 24.015625 45.921875 
Q 28.375 48.1875 33.59375 48.1875 
Q 44.578125 48.1875 50.953125 41.515625 
Q 57.328125 34.859375 57.328125 23.390625 
Q 57.328125 12.15625 50.6875 5.359375 
Q 44.046875 -1.421875 33.015625 -1.421875 
Q 20.359375 -1.421875 13.671875 8.265625 
Q 6.984375 17.96875 6.984375 36.375 
Q 6.984375 53.65625 15.1875 63.9375 
Q 23.390625 74.21875 37.203125 74.21875 
Q 40.921875 74.21875 44.703125 73.484375 
Q 48.484375 72.75 52.59375 71.296875 
z
" id="DejaVuSans-54"/>
       </defs>
       <use xlink:href="#DejaVuSans-49"/>
       <use x="63.623047" xlink:href="#DejaVuSans-54"/>
       <use x="127.246094" xlink:href="#DejaVuSans-48"/>
      </g>
     </g>
    </g>
    <g id="xtick_6">
     <g id="line2d_6">
      <g>
       <use style="stroke:#000000;stroke-width:0.8;" x="297.196582" xlink:href="#me2b3cfe3f7" y="307.584"/>
      </g>
     </g>
     <g id="text_6">
      <!-- 180 -->
      <g transform="translate(287.652832 322.182437)scale(0.1 -0.1)">
       <use xlink:href="#DejaVuSans-49"/>
       <use x="63.623047" xlink:href="#DejaVuSans-56"/>
       <use x="127.246094" xlink:href="#DejaVuSans-48"/>
      </g>
     </g>
    </g>
    <g id="xtick_7">
     <g id="line2d_7">
      <g>
       <use style="stroke:#000000;stroke-width:0.8;" x="343.798177" xlink:href="#me2b3cfe3f7" y="307.584"/>
      </g>
     </g>
     <g id="text_7">
      <!-- 200 -->
      <g transform="translate(334.254427 322.182437)scale(0.1 -0.1)">
       <use xlink:href="#DejaVuSans-50"/>
       <use x="63.623047" xlink:href="#DejaVuSans-48"/>
       <use x="127.246094" xlink:href="#DejaVuSans-48"/>
      </g>
     </g>
    </g>
    <g id="xtick_8">
     <g id="line2d_8">
      <g>
       <use style="stroke:#000000;stroke-width:0.8;" x="390.399772" xlink:href="#me2b3cfe3f7" y="307.584"/>
      </g>
     </g>
     <g id="text_8">
      <!-- 220 -->
      <g transform="translate(380.856022 322.182437)scale(0.1 -0.1)">
       <use xlink:href="#DejaVuSans-50"/>
       <use x="63.623047" xlink:href="#DejaVuSans-50"/>
       <use x="127.246094" xlink:href="#DejaVuSans-48"/>
      </g>
     </g>
    </g>
   </g>
   <g id="matplotlib.axis_2">
    <g id="ytick_1">
     <g id="line2d_9">
      <defs>
       <path d="M 0 0 
L -3.5 0 
" id="mab483a1432" style="stroke:#000000;stroke-width:0.8;"/>
      </defs>
      <g>
       <use style="stroke:#000000;stroke-width:0.8;" x="57.6" xlink:href="#mab483a1432" y="297.949377"/>
      </g>
     </g>
     <g id="text_9">
      <!-- 40 -->
      <g transform="translate(37.875 301.748595)scale(0.1 -0.1)">
       <use xlink:href="#DejaVuSans-52"/>
       <use x="63.623047" xlink:href="#DejaVuSans-48"/>
      </g>
     </g>
    </g>
    <g id="ytick_2">
     <g id="line2d_10">
      <g>
       <use style="stroke:#000000;stroke-width:0.8;" x="57.6" xlink:href="#mab483a1432" y="251.347781"/>
      </g>
     </g>
     <g id="text_10">
      <!-- 60 -->
      <g transform="translate(37.875 255.147)scale(0.1 -0.1)">
       <use xlink:href="#DejaVuSans-54"/>
       <use x="63.623047" xlink:href="#DejaVuSans-48"/>
      </g>
     </g>
    </g>
    <g id="ytick_3">
     <g id="line2d_11">
      <g>
       <use style="stroke:#000000;stroke-width:0.8;" x="57.6" xlink:href="#mab483a1432" y="204.746186"/>
      </g>
     </g>
     <g id="text_11">
      <!-- 80 -->
      <g transform="translate(37.875 208.545405)scale(0.1 -0.1)">
       <use xlink:href="#DejaVuSans-56"/>
       <use x="63.623047" xlink:href="#DejaVuSans-48"/>
      </g>
     </g>
    </g>
    <g id="ytick_4">
     <g id="line2d_12">
      <g>
       <use style="stroke:#000000;stroke-width:0.8;" x="57.6" xlink:href="#mab483a1432" y="158.144591"/>
      </g>
     </g>
     <g id="text_12">
      <!-- 100 -->
      <g transform="translate(31.5125 161.943809)scale(0.1 -0.1)">
       <use xlink:href="#DejaVuSans-49"/>
       <use x="63.623047" xlink:href="#DejaVuSans-48"/>
       <use x="127.246094" xlink:href="#DejaVuSans-48"/>
      </g>
     </g>
    </g>
    <g id="ytick_5">
     <g id="line2d_13">
      <g>
       <use style="stroke:#000000;stroke-width:0.8;" x="57.6" xlink:href="#mab483a1432" y="111.542995"/>
      </g>
     </g>
     <g id="text_13">
      <!-- 120 -->
      <g transform="translate(31.5125 115.342214)scale(0.1 -0.1)">
       <use xlink:href="#DejaVuSans-49"/>
       <use x="63.623047" xlink:href="#DejaVuSans-50"/>
       <use x="127.246094" xlink:href="#DejaVuSans-48"/>
      </g>
     </g>
    </g>
    <g id="ytick_6">
     <g id="line2d_14">
      <g>
       <use style="stroke:#000000;stroke-width:0.8;" x="57.6" xlink:href="#mab483a1432" y="64.9414"/>
      </g>
     </g>
     <g id="text_14">
      <!-- 140 -->
      <g transform="translate(31.5125 68.740619)scale(0.1 -0.1)">
       <use xlink:href="#DejaVuSans-49"/>
       <use x="63.623047" xlink:href="#DejaVuSans-52"/>
       <use x="127.246094" xlink:href="#DejaVuSans-48"/>
      </g>
     </g>
    </g>
   </g>
   <g id="line2d_15">
    <path clip-path="url(#p99c92f6d8d)" d="M 255.255146 57.951161 
L 256.916493 61.068807 
L 258.542888 64.165483 
L 260.129673 67.241189 
L 261.681506 70.295923 
L 263.193728 73.329687 
L 264.670998 76.34248 
L 266.110988 79.336633 
L 267.511365 82.307484 
L 268.876792 85.257365 
L 270.202608 88.186276 
L 271.493472 91.096545 
L 272.744725 93.983514 
L 273.961026 96.849512 
L 275.140047 99.69687 
L 276.279456 102.520926 
L 277.383913 105.326342 
L 278.45109 108.108458 
L 279.478655 110.871932 
L 280.471269 113.614436 
L 281.426602 116.333639 
L 282.342323 119.034202 
L 283.223093 121.713793 
L 284.066582 124.372414 
L 284.87279 127.007735 
L 285.641716 129.624414 
L 286.371031 132.220123 
L 287.065395 134.794861 
L 287.722477 137.348629 
L 288.342279 139.881425 
L 288.924799 142.393251 
L 289.467707 144.884107 
L 289.975664 147.353991 
L 290.446341 149.802905 
L 290.879735 152.233178 
L 291.275849 154.640151 
L 291.634681 157.026152 
L 291.956232 159.391183 
L 292.240502 161.737574 
L 292.48749 164.060663 
L 292.697198 166.365112 
L 292.869624 168.64626 
L 293.004768 170.908768 
L 293.102632 173.147974 
L 293.163214 175.36854 
L 293.186514 177.565805 
L 293.172534 179.74443 
L 293.121272 181.899754 
L 293.032729 184.036437 
L 292.906905 186.152149 
L 292.743799 188.246891 
L 292.543412 190.320662 
L 292.305744 192.371132 
L 292.033125 194.402962 
L 291.720894 196.413821 
L 291.371382 198.403709 
L 290.984589 200.372626 
L 290.560515 202.320573 
L 290.101489 204.247549 
L 289.602852 206.153554 
L 289.066933 208.040919 
L 288.493734 209.904983 
L 287.885583 211.748076 
L 287.237821 213.570198 
L 286.552777 215.37135 
L 285.830453 217.153861 
L 285.073177 218.913071 
L 284.276289 220.653641 
L 283.442121 222.370909 
L 282.573001 224.069537 
L 281.66427 225.744865 
L 280.720588 227.401552 
L 279.737294 229.034937 
L 278.716719 230.649683 
L 277.661193 232.241127 
L 276.566055 233.813931 
L 275.435967 235.365764 
L 274.266267 236.896627 
L 273.061615 238.406518 
L 271.817353 239.893109 
L 270.538139 241.361059 
L 269.219314 242.808039 
L 267.865538 244.234048 
L 266.47215 245.639086 
L 265.043811 247.023153 
L 263.575861 248.38625 
L 262.072959 249.728376 
L 260.530446 251.049531 
L 258.952982 252.352046 
L 257.338237 253.631259 
L 255.683881 254.889503 
L 253.994573 256.126775 
L 252.267984 257.345407 
L 250.501783 258.540738 
L 248.700631 259.717428 
L 246.862199 260.870817 
L 244.984154 262.003236 
L 243.071159 263.117014 
L 241.120882 264.209822 
L 239.133324 265.279328 
L 237.106155 266.330194 
L 235.044034 267.357759 
L 232.944632 268.366684 
L 230.807949 269.354638 
L 228.633985 270.321621 
L 226.420409 271.265303 
L 224.171882 272.190345 
L 221.886074 273.094416 
L 219.562984 273.977516 
L 217.202613 274.839646 
L 214.804961 275.680804 
L 212.370028 276.500992 
L 209.897813 277.30021 
L 207.388317 278.078456 
L 204.84154 278.835732 
L 202.257482 279.574368 
L 199.633812 280.289702 
L 196.975191 280.984066 
L 194.279288 281.657459 
L 191.548435 282.312211 
L 188.77797 282.943663 
L 185.970224 283.554144 
L 183.125197 284.145984 
L 180.242888 284.714524 
L 177.323298 285.264422 
L 174.366427 285.79102 
L 171.372274 286.298978 
" style="fill:none;stroke:#fea952;stroke-linecap:square;"/>
   </g>
   <g id="line2d_16">
    <path clip-path="url(#p99c92f6d8d)" d="M 263.480488 53.568 
L 265.167981 56.735069 
L 266.825859 59.892224 
L 268.439229 63.019858 
L 270.022972 66.138004 
L 271.562184 69.22636 
L 273.070418 72.302915 
L 274.541637 75.362656 
L 275.96953 78.39241 
L 277.367703 81.413827 
L 278.722433 84.407266 
L 280.045131 87.390136 
L 281.324385 90.34239 
L 282.572299 93.283797 
L 283.783379 96.209585 
L 284.951903 99.10669 
L 286.085994 101.988358 
L 287.187024 104.860104 
L 288.242603 107.699934 
L 289.264682 110.525062 
L 290.253283 113.34064 
L 291.196596 116.123841 
L 292.107014 118.895231 
L 292.979166 121.645842 
L 293.815016 124.38001 
L 294.614586 127.103312 
L 295.369855 129.793291 
L 296.091717 132.472395 
L 296.775671 135.13322 
L 297.421639 137.775822 
L 298.031316 140.408388 
L 298.596959 143.006581 
L 299.128464 145.594842 
L 299.6219 148.166612 
L 300.07635 150.719698 
L 300.492523 153.254049 
L 300.870032 155.770509 
L 301.208894 158.270205 
L 301.508586 160.752201 
L 301.769456 163.215995 
L 301.991005 165.662618 
L 302.17336 168.090527 
L 302.316199 170.501816 
L 302.419484 172.893789 
L 302.483009 175.269709 
L 302.506642 177.625614 
L 302.490218 179.96604 
L 302.433599 182.285652 
L 302.33661 184.589751 
L 302.199098 186.875679 
L 302.020908 189.143331 
L 301.801746 191.393787 
L 301.543284 193.610573 
L 301.243082 195.833013 
L 300.900687 198.026196 
L 300.516898 200.200343 
L 300.091594 202.355252 
L 299.627144 204.480338 
L 299.11835 206.606483 
L 298.568727 208.69942 
L 297.97558 210.780328 
L 297.344676 212.825458 
L 296.667482 214.87003 
L 295.949329 216.883501 
L 295.190814 218.871731 
L 294.391302 220.838994 
L 293.547561 222.79291 
L 292.659865 224.725988 
L 291.73941 226.616299 
L 290.765697 228.51342 
L 289.762874 230.357994 
L 288.705651 232.208537 
L 287.615899 234.014489 
L 286.483918 235.801281 
L 285.309981 237.56695 
L 284.100308 239.300586 
L 282.841874 241.024464 
L 281.551885 242.709381 
L 280.208811 244.388654 
L 278.84403 246.016356 
L 277.42658 247.639413 
L 275.978746 249.225081 
L 274.483378 250.797014 
L 272.958063 252.332461 
L 271.385832 253.853022 
L 269.783983 255.338053 
L 268.1359 256.807154 
L 266.464739 258.2365 
L 264.740562 259.657679 
L 262.980455 261.049731 
L 261.191081 262.40875 
L 259.369041 263.741461 
L 257.491889 265.06416 
L 255.59933 266.343517 
L 253.653876 267.612599 
L 251.674927 268.852421 
L 249.673681 270.057842 
L 247.627169 271.247889 
L 245.537348 272.417329 
L 243.422794 273.553916 
L 241.263013 274.672189 
L 239.081166 275.75835 
L 236.856237 276.826453 
L 234.595829 277.870523 
L 232.289093 278.895332 
L 229.966423 279.884708 
L 227.599824 280.857384 
L 225.197885 281.806491 
L 222.760625 282.73214 
L 220.288056 283.634439 
L 217.780183 284.513494 
L 215.237008 285.369407 
L 212.658528 286.202277 
L 210.044737 287.0122 
L 207.403096 287.797137 
L 204.709144 288.566458 
L 201.989038 289.307532 
L 199.233861 290.026563 
L 196.452351 290.72091 
L 193.61963 291.399483 
L 190.758196 292.05119 
L 187.868457 292.679113 
L 184.928888 293.29011 
L 181.968018 293.873796 
L 178.957468 294.44036 
L 175.925343 294.980043 
L 172.93119 295.488 
" style="fill:none;stroke:#ffffff;stroke-linecap:square;"/>
   </g>
   <g id="line2d_17">
    <path clip-path="url(#p99c92f6d8d)" d="M 247.029804 62.334321 
L 248.665005 65.402546 
L 250.259918 68.438743 
L 251.820117 71.462519 
L 253.34004 74.453843 
L 254.825271 77.433014 
L 256.271578 80.382046 
L 257.680338 83.31061 
L 259.053201 86.222559 
L 260.385882 89.100904 
L 261.682782 91.965286 
L 262.941812 94.802955 
L 264.165065 97.624638 
L 265.349753 100.415228 
L 266.496714 103.184155 
L 267.607008 105.935162 
L 268.681833 108.664326 
L 269.715156 111.356811 
L 270.714708 114.04393 
L 271.677856 116.70381 
L 272.59992 119.326638 
L 273.48805 121.944563 
L 274.339172 124.532356 
L 275.153999 127.098987 
L 275.930564 129.635459 
L 276.668846 132.145517 
L 277.372207 134.646955 
L 278.039072 137.117327 
L 278.669284 139.564038 
L 279.262918 141.987028 
L 279.818281 144.378114 
L 280.338455 146.761632 
L 280.822865 149.11314 
L 281.270781 151.439198 
L 281.68312 153.746658 
L 282.059175 156.026252 
L 282.39933 158.281796 
L 282.70357 160.512161 
L 282.972418 162.722947 
L 283.205525 164.905331 
L 283.403391 167.067606 
L 283.565887 169.201993 
L 283.693338 171.315719 
L 283.785779 173.402159 
L 283.843419 175.467372 
L 283.866387 177.505997 
L 283.85485 179.52282 
L 283.808945 181.513856 
L 283.728849 183.483122 
L 283.614712 185.428619 
L 283.466691 187.350451 
L 283.285078 189.247537 
L 283.068205 191.131692 
L 282.823168 192.972911 
L 282.541102 194.801445 
L 282.225867 196.607075 
L 281.877584 198.390001 
L 281.493886 200.160808 
L 281.084628 201.888615 
L 280.636977 203.607688 
L 280.158287 205.30151 
L 279.642792 206.984507 
L 279.103684 208.626122 
L 278.526313 210.256895 
L 277.91474 211.870969 
L 277.269603 213.468727 
L 276.598792 215.033232 
L 275.892714 216.581293 
L 275.144831 218.12552 
L 274.380306 219.625655 
L 273.565666 221.131736 
L 272.735524 222.594566 
L 271.858689 224.055386 
L 270.94952 225.498085 
L 270.012405 226.915304 
L 269.031803 228.327276 
L 268.030059 229.707065 
L 266.980648 231.083872 
L 265.91442 232.424383 
L 264.790676 233.769862 
L 263.649698 235.082706 
L 262.459882 236.390997 
L 261.247697 237.671081 
L 259.986236 238.94571 
L 258.70179 240.193284 
L 257.367739 241.434447 
L 256.010018 242.649598 
L 254.596154 243.862562 
L 253.165403 245.046413 
L 251.696019 246.212788 
L 250.17668 247.370255 
L 248.620105 248.512089 
L 247.044078 249.626653 
L 245.404236 250.737958 
L 243.747387 251.822257 
L 242.04947 252.889214 
L 240.294627 253.94863 
L 238.515149 254.98614 
L 236.704416 256.002314 
L 234.843854 257.004741 
L 232.949296 257.988199 
L 231.006902 258.957169 
L 229.033027 259.906915 
L 227.020068 260.838752 
L 224.978876 261.747909 
L 222.874395 262.645899 
L 220.74394 263.523306 
L 218.574262 264.382341 
L 216.365343 265.222892 
L 214.117171 266.044852 
L 211.829739 266.848115 
L 209.503047 267.632578 
L 207.137098 268.398143 
L 204.731897 269.144712 
L 202.279984 269.874327 
L 199.805819 270.582277 
L 197.278585 271.271872 
L 194.71652 271.941569 
L 192.106226 272.594008 
L 189.47724 273.22494 
L 186.797744 273.836136 
L 184.071991 274.429175 
L 181.321505 275.001858 
L 178.517758 275.555251 
L 175.689128 276.088485 
L 172.807511 276.601998 
L 169.813358 277.109956 
" style="fill:none;stroke:#ffffff;stroke-linecap:square;"/>
   </g>
   <g id="patch_3">
    <path d="M 57.6 307.584 
L 57.6 41.472 
" style="fill:none;stroke:#000000;stroke-linecap:square;stroke-linejoin:miter;stroke-width:0.8;"/>
   </g>
   <g id="patch_4">
    <path d="M 414.72 307.584 
L 414.72 41.472 
" style="fill:none;stroke:#000000;stroke-linecap:square;stroke-linejoin:miter;stroke-width:0.8;"/>
   </g>
   <g id="patch_5">
    <path d="M 57.6 307.584 
L 414.72 307.584 
" style="fill:none;stroke:#000000;stroke-linecap:square;stroke-linejoin:miter;stroke-width:0.8;"/>
   </g>
   <g id="patch_6">
    <path d="M 57.6 41.472 
L 414.72 41.472 
" style="fill:none;stroke:#000000;stroke-linecap:square;stroke-linejoin:miter;stroke-width:0.8;"/>
   </g>
  </g>
 </g>
 <defs>
  <clipPath id="p99c92f6d8d">
   <rect height="266.112" width="357.12" x="57.6" y="41.472"/>
  </clipPath>
 </defs>
</svg>
