<?xml version="1.0" encoding="utf-8" standalone="no"?>
<!DOCTYPE svg PUBLIC "-//W3C//DTD SVG 1.1//EN"
  "http://www.w3.org/Graphics/SVG/1.1/DTD/svg11.dtd">
<!-- Created with matplotlib (https://matplotlib.org/) -->
<svg height="345.6pt" version="1.1" viewBox="0 0 460.8 345.6" width="460.8pt" xmlns="http://www.w3.org/2000/svg" xmlns:xlink="http://www.w3.org/1999/xlink">
 <metadata>
  <rdf:RDF xmlns:cc="http://creativecommons.org/ns#" xmlns:dc="http://purl.org/dc/elements/1.1/" xmlns:rdf="http://www.w3.org/1999/02/22-rdf-syntax-ns#">
   <cc:Work>
    <dc:type rdf:resource="http://purl.org/dc/dcmitype/StillImage"/>
    <dc:date>2021-07-14T14:21:30.443212</dc:date>
    <dc:format>image/svg+xml</dc:format>
    <dc:creator>
     <cc:Agent>
      <dc:title>Matplotlib v3.3.3, https://matplotlib.org/</dc:title>
     </cc:Agent>
    </dc:creator>
   </cc:Work>
  </rdf:RDF>
 </metadata>
 <defs>
  <style type="text/css">*{stroke-linecap:butt;stroke-linejoin:round;}</style>
 </defs>
 <g id="figure_1">
  <g id="patch_1">
   <path d="M 0 345.6 
L 460.8 345.6 
L 460.8 0 
L 0 0 
z
" style="fill:#ffffff;"/>
  </g>
  <g id="axes_1">
   <g id="patch_2">
    <path d="M 57.6 307.584 
L 414.72 307.584 
L 414.72 41.472 
L 57.6 41.472 
z
" style="fill:#7d9051;"/>
   </g>
   <g id="matplotlib.axis_1">
    <g id="xtick_1">
     <g id="line2d_1">
      <defs>
       <path d="M 0 0 
L 0 3.5 
" id="m7e77d18783" style="stroke:#000000;stroke-width:0.8;"/>
      </defs>
      <g>
       <use style="stroke:#000000;stroke-width:0.8;" x="124.446697" xlink:href="#m7e77d18783" y="307.584"/>
      </g>
     </g>
     <g id="text_1">
      <!-- 0 -->
      <g transform="translate(121.265447 322.182437)scale(0.1 -0.1)">
       <defs>
        <path d="M 31.78125 66.40625 
Q 24.171875 66.40625 20.328125 58.90625 
Q 16.5 51.421875 16.5 36.375 
Q 16.5 21.390625 20.328125 13.890625 
Q 24.171875 6.390625 31.78125 6.390625 
Q 39.453125 6.390625 43.28125 13.890625 
Q 47.125 21.390625 47.125 36.375 
Q 47.125 51.421875 43.28125 58.90625 
Q 39.453125 66.40625 31.78125 66.40625 
z
M 31.78125 74.21875 
Q 44.046875 74.21875 50.515625 64.515625 
Q 56.984375 54.828125 56.984375 36.375 
Q 56.984375 17.96875 50.515625 8.265625 
Q 44.046875 -1.421875 31.78125 -1.421875 
Q 19.53125 -1.421875 13.0625 8.265625 
Q 6.59375 17.96875 6.59375 36.375 
Q 6.59375 54.828125 13.0625 64.515625 
Q 19.53125 74.21875 31.78125 74.21875 
z
" id="DejaVuSans-48"/>
       </defs>
       <use xlink:href="#DejaVuSans-48"/>
      </g>
     </g>
    </g>
    <g id="xtick_2">
     <g id="line2d_2">
      <g>
       <use style="stroke:#000000;stroke-width:0.8;" x="203.465338" xlink:href="#m7e77d18783" y="307.584"/>
      </g>
     </g>
     <g id="text_2">
      <!-- 50 -->
      <g transform="translate(197.102838 322.182437)scale(0.1 -0.1)">
       <defs>
        <path d="M 10.796875 72.90625 
L 49.515625 72.90625 
L 49.515625 64.59375 
L 19.828125 64.59375 
L 19.828125 46.734375 
Q 21.96875 47.46875 24.109375 47.828125 
Q 26.265625 48.1875 28.421875 48.1875 
Q 40.625 48.1875 47.75 41.5 
Q 54.890625 34.8125 54.890625 23.390625 
Q 54.890625 11.625 47.5625 5.09375 
Q 40.234375 -1.421875 26.90625 -1.421875 
Q 22.3125 -1.421875 17.546875 -0.640625 
Q 12.796875 0.140625 7.71875 1.703125 
L 7.71875 11.625 
Q 12.109375 9.234375 16.796875 8.0625 
Q 21.484375 6.890625 26.703125 6.890625 
Q 35.15625 6.890625 40.078125 11.328125 
Q 45.015625 15.765625 45.015625 23.390625 
Q 45.015625 31 40.078125 35.4375 
Q 35.15625 39.890625 26.703125 39.890625 
Q 22.75 39.890625 18.8125 39.015625 
Q 14.890625 38.140625 10.796875 36.28125 
z
" id="DejaVuSans-53"/>
       </defs>
       <use xlink:href="#DejaVuSans-53"/>
       <use x="63.623047" xlink:href="#DejaVuSans-48"/>
      </g>
     </g>
    </g>
    <g id="xtick_3">
     <g id="line2d_3">
      <g>
       <use style="stroke:#000000;stroke-width:0.8;" x="282.483979" xlink:href="#m7e77d18783" y="307.584"/>
      </g>
     </g>
     <g id="text_3">
      <!-- 100 -->
      <g transform="translate(272.940229 322.182437)scale(0.1 -0.1)">
       <defs>
        <path d="M 12.40625 8.296875 
L 28.515625 8.296875 
L 28.515625 63.921875 
L 10.984375 60.40625 
L 10.984375 69.390625 
L 28.421875 72.90625 
L 38.28125 72.90625 
L 38.28125 8.296875 
L 54.390625 8.296875 
L 54.390625 0 
L 12.40625 0 
z
" id="DejaVuSans-49"/>
       </defs>
       <use xlink:href="#DejaVuSans-49"/>
       <use x="63.623047" xlink:href="#DejaVuSans-48"/>
       <use x="127.246094" xlink:href="#DejaVuSans-48"/>
      </g>
     </g>
    </g>
    <g id="xtick_4">
     <g id="line2d_4">
      <g>
       <use style="stroke:#000000;stroke-width:0.8;" x="361.50262" xlink:href="#m7e77d18783" y="307.584"/>
      </g>
     </g>
     <g id="text_4">
      <!-- 150 -->
      <g transform="translate(351.95887 322.182437)scale(0.1 -0.1)">
       <use xlink:href="#DejaVuSans-49"/>
       <use x="63.623047" xlink:href="#DejaVuSans-53"/>
       <use x="127.246094" xlink:href="#DejaVuSans-48"/>
      </g>
     </g>
    </g>
   </g>
   <g id="matplotlib.axis_2">
    <g id="ytick_1">
     <g id="line2d_5">
      <defs>
       <path d="M 0 0 
L -3.5 0 
" id="mb0c5ac6851" style="stroke:#000000;stroke-width:0.8;"/>
      </defs>
      <g>
       <use style="stroke:#000000;stroke-width:0.8;" x="57.6" xlink:href="#mb0c5ac6851" y="303.320332"/>
      </g>
     </g>
     <g id="text_5">
      <!-- 20 -->
      <g transform="translate(37.875 307.119551)scale(0.1 -0.1)">
       <defs>
        <path d="M 19.1875 8.296875 
L 53.609375 8.296875 
L 53.609375 0 
L 7.328125 0 
L 7.328125 8.296875 
Q 12.9375 14.109375 22.625 23.890625 
Q 32.328125 33.6875 34.8125 36.53125 
Q 39.546875 41.84375 41.421875 45.53125 
Q 43.3125 49.21875 43.3125 52.78125 
Q 43.3125 58.59375 39.234375 62.25 
Q 35.15625 65.921875 28.609375 65.921875 
Q 23.96875 65.921875 18.8125 64.3125 
Q 13.671875 62.703125 7.8125 59.421875 
L 7.8125 69.390625 
Q 13.765625 71.78125 18.9375 73 
Q 24.125 74.21875 28.421875 74.21875 
Q 39.75 74.21875 46.484375 68.546875 
Q 53.21875 62.890625 53.21875 53.421875 
Q 53.21875 48.921875 51.53125 44.890625 
Q 49.859375 40.875 45.40625 35.40625 
Q 44.1875 33.984375 37.640625 27.21875 
Q 31.109375 20.453125 19.1875 8.296875 
z
" id="DejaVuSans-50"/>
       </defs>
       <use xlink:href="#DejaVuSans-50"/>
       <use x="63.623047" xlink:href="#DejaVuSans-48"/>
      </g>
     </g>
    </g>
    <g id="ytick_2">
     <g id="line2d_6">
      <g>
       <use style="stroke:#000000;stroke-width:0.8;" x="57.6" xlink:href="#mb0c5ac6851" y="271.712876"/>
      </g>
     </g>
     <g id="text_6">
      <!-- 40 -->
      <g transform="translate(37.875 275.512094)scale(0.1 -0.1)">
       <defs>
        <path d="M 37.796875 64.3125 
L 12.890625 25.390625 
L 37.796875 25.390625 
z
M 35.203125 72.90625 
L 47.609375 72.90625 
L 47.609375 25.390625 
L 58.015625 25.390625 
L 58.015625 17.1875 
L 47.609375 17.1875 
L 47.609375 0 
L 37.796875 0 
L 37.796875 17.1875 
L 4.890625 17.1875 
L 4.890625 26.703125 
z
" id="DejaVuSans-52"/>
       </defs>
       <use xlink:href="#DejaVuSans-52"/>
       <use x="63.623047" xlink:href="#DejaVuSans-48"/>
      </g>
     </g>
    </g>
    <g id="ytick_3">
     <g id="line2d_7">
      <g>
       <use style="stroke:#000000;stroke-width:0.8;" x="57.6" xlink:href="#mb0c5ac6851" y="240.105419"/>
      </g>
     </g>
     <g id="text_7">
      <!-- 60 -->
      <g transform="translate(37.875 243.904638)scale(0.1 -0.1)">
       <defs>
        <path d="M 33.015625 40.375 
Q 26.375 40.375 22.484375 35.828125 
Q 18.609375 31.296875 18.609375 23.390625 
Q 18.609375 15.53125 22.484375 10.953125 
Q 26.375 6.390625 33.015625 6.390625 
Q 39.65625 6.390625 43.53125 10.953125 
Q 47.40625 15.53125 47.40625 23.390625 
Q 47.40625 31.296875 43.53125 35.828125 
Q 39.65625 40.375 33.015625 40.375 
z
M 52.59375 71.296875 
L 52.59375 62.3125 
Q 48.875 64.0625 45.09375 64.984375 
Q 41.3125 65.921875 37.59375 65.921875 
Q 27.828125 65.921875 22.671875 59.328125 
Q 17.53125 52.734375 16.796875 39.40625 
Q 19.671875 43.65625 24.015625 45.921875 
Q 28.375 48.1875 33.59375 48.1875 
Q 44.578125 48.1875 50.953125 41.515625 
Q 57.328125 34.859375 57.328125 23.390625 
Q 57.328125 12.15625 50.6875 5.359375 
Q 44.046875 -1.421875 33.015625 -1.421875 
Q 20.359375 -1.421875 13.671875 8.265625 
Q 6.984375 17.96875 6.984375 36.375 
Q 6.984375 53.65625 15.1875 63.9375 
Q 23.390625 74.21875 37.203125 74.21875 
Q 40.921875 74.21875 44.703125 73.484375 
Q 48.484375 72.75 52.59375 71.296875 
z
" id="DejaVuSans-54"/>
       </defs>
       <use xlink:href="#DejaVuSans-54"/>
       <use x="63.623047" xlink:href="#DejaVuSans-48"/>
      </g>
     </g>
    </g>
    <g id="ytick_4">
     <g id="line2d_8">
      <g>
       <use style="stroke:#000000;stroke-width:0.8;" x="57.6" xlink:href="#mb0c5ac6851" y="208.497963"/>
      </g>
     </g>
     <g id="text_8">
      <!-- 80 -->
      <g transform="translate(37.875 212.297182)scale(0.1 -0.1)">
       <defs>
        <path d="M 31.78125 34.625 
Q 24.75 34.625 20.71875 30.859375 
Q 16.703125 27.09375 16.703125 20.515625 
Q 16.703125 13.921875 20.71875 10.15625 
Q 24.75 6.390625 31.78125 6.390625 
Q 38.8125 6.390625 42.859375 10.171875 
Q 46.921875 13.96875 46.921875 20.515625 
Q 46.921875 27.09375 42.890625 30.859375 
Q 38.875 34.625 31.78125 34.625 
z
M 21.921875 38.8125 
Q 15.578125 40.375 12.03125 44.71875 
Q 8.5 49.078125 8.5 55.328125 
Q 8.5 64.0625 14.71875 69.140625 
Q 20.953125 74.21875 31.78125 74.21875 
Q 42.671875 74.21875 48.875 69.140625 
Q 55.078125 64.0625 55.078125 55.328125 
Q 55.078125 49.078125 51.53125 44.71875 
Q 48 40.375 41.703125 38.8125 
Q 48.828125 37.15625 52.796875 32.3125 
Q 56.78125 27.484375 56.78125 20.515625 
Q 56.78125 9.90625 50.3125 4.234375 
Q 43.84375 -1.421875 31.78125 -1.421875 
Q 19.734375 -1.421875 13.25 4.234375 
Q 6.78125 9.90625 6.78125 20.515625 
Q 6.78125 27.484375 10.78125 32.3125 
Q 14.796875 37.15625 21.921875 38.8125 
z
M 18.3125 54.390625 
Q 18.3125 48.734375 21.84375 45.5625 
Q 25.390625 42.390625 31.78125 42.390625 
Q 38.140625 42.390625 41.71875 45.5625 
Q 45.3125 48.734375 45.3125 54.390625 
Q 45.3125 60.0625 41.71875 63.234375 
Q 38.140625 66.40625 31.78125 66.40625 
Q 25.390625 66.40625 21.84375 63.234375 
Q 18.3125 60.0625 18.3125 54.390625 
z
" id="DejaVuSans-56"/>
       </defs>
       <use xlink:href="#DejaVuSans-56"/>
       <use x="63.623047" xlink:href="#DejaVuSans-48"/>
      </g>
     </g>
    </g>
    <g id="ytick_5">
     <g id="line2d_9">
      <g>
       <use style="stroke:#000000;stroke-width:0.8;" x="57.6" xlink:href="#mb0c5ac6851" y="176.890506"/>
      </g>
     </g>
     <g id="text_9">
      <!-- 100 -->
      <g transform="translate(31.5125 180.689725)scale(0.1 -0.1)">
       <use xlink:href="#DejaVuSans-49"/>
       <use x="63.623047" xlink:href="#DejaVuSans-48"/>
       <use x="127.246094" xlink:href="#DejaVuSans-48"/>
      </g>
     </g>
    </g>
    <g id="ytick_6">
     <g id="line2d_10">
      <g>
       <use style="stroke:#000000;stroke-width:0.8;" x="57.6" xlink:href="#mb0c5ac6851" y="145.28305"/>
      </g>
     </g>
     <g id="text_10">
      <!-- 120 -->
      <g transform="translate(31.5125 149.082269)scale(0.1 -0.1)">
       <use xlink:href="#DejaVuSans-49"/>
       <use x="63.623047" xlink:href="#DejaVuSans-50"/>
       <use x="127.246094" xlink:href="#DejaVuSans-48"/>
      </g>
     </g>
    </g>
    <g id="ytick_7">
     <g id="line2d_11">
      <g>
       <use style="stroke:#000000;stroke-width:0.8;" x="57.6" xlink:href="#mb0c5ac6851" y="113.675594"/>
      </g>
     </g>
     <g id="text_11">
      <!-- 140 -->
      <g transform="translate(31.5125 117.474812)scale(0.1 -0.1)">
       <use xlink:href="#DejaVuSans-49"/>
       <use x="63.623047" xlink:href="#DejaVuSans-52"/>
       <use x="127.246094" xlink:href="#DejaVuSans-48"/>
      </g>
     </g>
    </g>
    <g id="ytick_8">
     <g id="line2d_12">
      <g>
       <use style="stroke:#000000;stroke-width:0.8;" x="57.6" xlink:href="#mb0c5ac6851" y="82.068137"/>
      </g>
     </g>
     <g id="text_12">
      <!-- 160 -->
      <g transform="translate(31.5125 85.867356)scale(0.1 -0.1)">
       <use xlink:href="#DejaVuSans-49"/>
       <use x="63.623047" xlink:href="#DejaVuSans-54"/>
       <use x="127.246094" xlink:href="#DejaVuSans-48"/>
      </g>
     </g>
    </g>
    <g id="ytick_9">
     <g id="line2d_13">
      <g>
       <use style="stroke:#000000;stroke-width:0.8;" x="57.6" xlink:href="#mb0c5ac6851" y="50.460681"/>
      </g>
     </g>
     <g id="text_13">
      <!-- 180 -->
      <g transform="translate(31.5125 54.2599)scale(0.1 -0.1)">
       <use xlink:href="#DejaVuSans-49"/>
       <use x="63.623047" xlink:href="#DejaVuSans-56"/>
       <use x="127.246094" xlink:href="#DejaVuSans-48"/>
      </g>
     </g>
    </g>
   </g>
   <g id="line2d_14">
    <path clip-path="url(#pec4a96404f)" d="M 321.9933 295.418468 
L 322.133953 290.68051 
L 322.612806 284.376403 
L 323.527842 273.351722 
L 323.671656 268.613764 
L 323.595798 265.454599 
L 323.331876 262.304916 
L 322.834058 259.18368 
L 322.059675 256.119337 
L 320.964477 253.156138 
L 319.573749 250.317788 
L 317.953867 247.604288 
L 316.164885 244.999834 
L 313.26332 241.249609 
L 308.168198 235.211005 
L 304.130346 230.346617 
L 301.288836 226.552142 
L 299.553586 223.909758 
L 297.192509 219.799209 
L 294.298847 214.179403 
L 290.251512 205.60272 
L 286.170989 197.045001 
L 283.983753 192.838048 
L 281.627417 188.724338 
L 277.429947 182.029879 
L 273.052314 175.450787 
L 268.461331 169.02025 
L 264.613124 164.005727 
L 260.589494 159.128696 
L 254.293289 152.039144 
L 247.886458 145.049155 
L 244.556612 141.673478 
L 241.089274 138.441616 
L 237.443354 135.410461 
L 234.895793 133.5393 
L 232.245508 131.818274 
L 229.486177 130.27583 
L 226.594095 129.00521 
L 223.56452 128.105978 
L 220.462248 127.507017 
L 217.325208 127.124566 
L 212.595152 126.806911 
L 203.123978 126.340701 
L 199.979036 126.021466 
L 196.86096 125.507845 
L 193.801359 124.717659 
L 192.309487 124.194555 
L 189.456914 122.837015 
L 186.762378 121.183945 
L 184.192692 119.345971 
L 181.741534 117.351541 
L 179.401001 115.225939 
L 176.082219 111.840781 
L 172.967304 108.267558 
L 170.030971 104.54578 
L 167.249515 100.705474 
L 163.748989 95.442832 
L 162.092758 92.751457 
L 160.578761 89.976323 
L 158.566947 85.68403 
L 156.806411 81.282692 
L 154.72506 75.313624 
L 148.797082 57.300534 
L 148.232889 55.822886 
L 148.232889 55.822886 
" style="fill:none;stroke:#fea952;stroke-linecap:square;"/>
   </g>
   <g id="line2d_15">
    <path clip-path="url(#pec4a96404f)" d="M 315.672191 295.348936 
L 315.824601 290.288939 
L 316.317535 283.801233 
L 317.213635 273.048337 
L 317.350547 268.683297 
L 317.200108 264.509528 
L 316.89483 261.864026 
L 316.395921 259.34189 
L 315.684764 256.974827 
L 314.691803 254.633816 
L 313.420244 252.284465 
L 311.915287 249.939136 
L 309.322551 246.439007 
L 305.413887 241.718281 
L 299.144549 234.232885 
L 296.055439 230.097958 
L 294.127937 227.153766 
L 291.622969 222.789439 
L 289.33634 218.402227 
L 285.8534 211.138627 
L 280.528295 199.894783 
L 277.734566 194.596323 
L 275.434403 190.71472 
L 270.438916 182.883452 
L 266.094509 176.527282 
L 262.481877 171.57956 
L 258.730401 166.77343 
L 254.820902 162.12547 
L 245.421696 151.659168 
L 241.232455 147.278088 
L 238.025376 144.19227 
L 234.744893 141.341749 
L 231.373223 138.788371 
L 229.06501 137.281394 
L 226.7659 135.982085 
L 224.627345 135.012967 
L 222.236096 134.286313 
L 219.608977 133.770656 
L 216.80076 133.424265 
L 212.317275 133.122292 
L 202.561347 132.637105 
L 199.068221 132.276997 
L 195.439513 131.66745 
L 191.709674 130.683068 
L 189.792643 129.993413 
L 187.947628 129.176064 
L 184.68934 127.361668 
L 181.698249 125.365413 
L 178.891509 123.211019 
L 176.248619 120.928893 
L 173.75703 118.546754 
L 170.257358 114.821021 
L 167.006194 110.955393 
L 163.96579 106.982068 
L 161.107298 102.930173 
L 157.488249 97.361936 
L 155.727325 94.326181 
L 154.151556 91.239801 
L 152.085549 86.571998 
L 150.300428 81.903633 
L 148.214477 75.737556 
L 143.405019 60.959036 
L 142.327235 58.077772 
L 142.327235 58.077772 
" style="fill:none;stroke:#ffffff;stroke-linecap:square;"/>
   </g>
   <g id="line2d_16">
    <path clip-path="url(#pec4a96404f)" d="M 328.314409 295.488 
L 328.443305 291.072081 
L 328.908077 284.951573 
L 329.842049 273.655107 
L 329.992765 268.544232 
L 329.903092 265.031164 
L 329.593813 261.43924 
L 328.999158 257.786257 
L 328.046577 254.089986 
L 326.704319 250.507466 
L 325.059616 247.176687 
L 323.212693 244.096297 
L 321.237954 241.2282 
L 318.147992 237.236975 
L 312.983855 231.1158 
L 309.116143 226.460349 
L 306.522232 223.006326 
L 304.979235 220.665751 
L 302.762049 216.808979 
L 299.985434 211.418249 
L 295.984298 202.938809 
L 291.813683 194.195219 
L 289.518064 189.783109 
L 287.019399 185.424673 
L 282.734058 178.590742 
L 278.247064 171.848588 
L 274.488123 166.543194 
L 270.555269 161.332115 
L 266.433418 156.246106 
L 262.159027 151.355897 
L 252.437849 140.662119 
L 248.940368 137.118927 
L 245.235424 133.669751 
L 242.616679 131.448317 
L 239.858899 129.316775 
L 236.946389 127.305888 
L 233.867663 125.452393 
L 230.423666 123.733032 
L 228.560845 122.997453 
L 224.892944 121.925643 
L 221.315519 121.243377 
L 217.849656 120.824867 
L 212.873029 120.49153 
L 202.263968 119.919013 
L 199.559656 119.576706 
L 197.05925 119.074712 
L 194.82633 118.395697 
L 192.661761 117.388143 
L 190.35307 115.981235 
L 188.110792 114.385151 
L 185.931488 112.618093 
L 182.78504 109.695763 
L 179.78938 106.515267 
L 176.933983 103.126984 
L 174.209187 99.571413 
L 170.753671 94.618652 
L 167.601065 89.649876 
L 166.242953 87.169513 
L 164.396736 83.239687 
L 162.740079 79.10259 
L 160.735293 73.354452 
L 154.702735 55.045649 
L 154.138542 53.568 
L 154.138542 53.568 
" style="fill:none;stroke:#ffffff;stroke-linecap:square;"/>
   </g>
   <g id="patch_3">
    <path d="M 57.6 307.584 
L 57.6 41.472 
" style="fill:none;stroke:#000000;stroke-linecap:square;stroke-linejoin:miter;stroke-width:0.8;"/>
   </g>
   <g id="patch_4">
    <path d="M 414.72 307.584 
L 414.72 41.472 
" style="fill:none;stroke:#000000;stroke-linecap:square;stroke-linejoin:miter;stroke-width:0.8;"/>
   </g>
   <g id="patch_5">
    <path d="M 57.6 307.584 
L 414.72 307.584 
" style="fill:none;stroke:#000000;stroke-linecap:square;stroke-linejoin:miter;stroke-width:0.8;"/>
   </g>
   <g id="patch_6">
    <path d="M 57.6 41.472 
L 414.72 41.472 
" style="fill:none;stroke:#000000;stroke-linecap:square;stroke-linejoin:miter;stroke-width:0.8;"/>
   </g>
  </g>
 </g>
 <defs>
  <clipPath id="pec4a96404f">
   <rect height="266.112" width="357.12" x="57.6" y="41.472"/>
  </clipPath>
 </defs>
</svg>
