<?xml version="1.0" encoding="utf-8" standalone="no"?>
<!DOCTYPE svg PUBLIC "-//W3C//DTD SVG 1.1//EN"
  "http://www.w3.org/Graphics/SVG/1.1/DTD/svg11.dtd">
<!-- Created with matplotlib (https://matplotlib.org/) -->
<svg height="345.6pt" version="1.1" viewBox="0 0 460.8 345.6" width="460.8pt" xmlns="http://www.w3.org/2000/svg" xmlns:xlink="http://www.w3.org/1999/xlink">
 <metadata>
  <rdf:RDF xmlns:cc="http://creativecommons.org/ns#" xmlns:dc="http://purl.org/dc/elements/1.1/" xmlns:rdf="http://www.w3.org/1999/02/22-rdf-syntax-ns#">
   <cc:Work>
    <dc:type rdf:resource="http://purl.org/dc/dcmitype/StillImage"/>
    <dc:date>2021-07-12T19:59:23.824210</dc:date>
    <dc:format>image/svg+xml</dc:format>
    <dc:creator>
     <cc:Agent>
      <dc:title>Matplotlib v3.3.3, https://matplotlib.org/</dc:title>
     </cc:Agent>
    </dc:creator>
   </cc:Work>
  </rdf:RDF>
 </metadata>
 <defs>
  <style type="text/css">*{stroke-linecap:butt;stroke-linejoin:round;}</style>
 </defs>
 <g id="figure_1">
  <g id="patch_1">
   <path d="M 0 345.6 
L 460.8 345.6 
L 460.8 0 
L 0 0 
z
" style="fill:#ffffff;"/>
  </g>
  <g id="axes_1">
   <g id="patch_2">
    <path d="M 57.6 307.584 
L 414.72 307.584 
L 414.72 41.472 
L 57.6 41.472 
z
" style="fill:#7d9051;"/>
   </g>
   <g id="matplotlib.axis_1">
    <g id="xtick_1">
     <g id="line2d_1">
      <defs>
       <path d="M 0 0 
L 0 3.5 
" id="mc537b0caa4" style="stroke:#000000;stroke-width:0.8;"/>
      </defs>
      <g>
       <use style="stroke:#000000;stroke-width:0.8;" x="91.339365" xlink:href="#mc537b0caa4" y="307.584"/>
      </g>
     </g>
     <g id="text_1">
      <!-- 100 -->
      <g transform="translate(81.795615 322.182437)scale(0.1 -0.1)">
       <defs>
        <path d="M 12.40625 8.296875 
L 28.515625 8.296875 
L 28.515625 63.921875 
L 10.984375 60.40625 
L 10.984375 69.390625 
L 28.421875 72.90625 
L 38.28125 72.90625 
L 38.28125 8.296875 
L 54.390625 8.296875 
L 54.390625 0 
L 12.40625 0 
z
" id="DejaVuSans-49"/>
        <path d="M 31.78125 66.40625 
Q 24.171875 66.40625 20.328125 58.90625 
Q 16.5 51.421875 16.5 36.375 
Q 16.5 21.390625 20.328125 13.890625 
Q 24.171875 6.390625 31.78125 6.390625 
Q 39.453125 6.390625 43.28125 13.890625 
Q 47.125 21.390625 47.125 36.375 
Q 47.125 51.421875 43.28125 58.90625 
Q 39.453125 66.40625 31.78125 66.40625 
z
M 31.78125 74.21875 
Q 44.046875 74.21875 50.515625 64.515625 
Q 56.984375 54.828125 56.984375 36.375 
Q 56.984375 17.96875 50.515625 8.265625 
Q 44.046875 -1.421875 31.78125 -1.421875 
Q 19.53125 -1.421875 13.0625 8.265625 
Q 6.59375 17.96875 6.59375 36.375 
Q 6.59375 54.828125 13.0625 64.515625 
Q 19.53125 74.21875 31.78125 74.21875 
z
" id="DejaVuSans-48"/>
       </defs>
       <use xlink:href="#DejaVuSans-49"/>
       <use x="63.623047" xlink:href="#DejaVuSans-48"/>
       <use x="127.246094" xlink:href="#DejaVuSans-48"/>
      </g>
     </g>
    </g>
    <g id="xtick_2">
     <g id="line2d_2">
      <g>
       <use style="stroke:#000000;stroke-width:0.8;" x="150.62808" xlink:href="#mc537b0caa4" y="307.584"/>
      </g>
     </g>
     <g id="text_2">
      <!-- 120 -->
      <g transform="translate(141.08433 322.182437)scale(0.1 -0.1)">
       <defs>
        <path d="M 19.1875 8.296875 
L 53.609375 8.296875 
L 53.609375 0 
L 7.328125 0 
L 7.328125 8.296875 
Q 12.9375 14.109375 22.625 23.890625 
Q 32.328125 33.6875 34.8125 36.53125 
Q 39.546875 41.84375 41.421875 45.53125 
Q 43.3125 49.21875 43.3125 52.78125 
Q 43.3125 58.59375 39.234375 62.25 
Q 35.15625 65.921875 28.609375 65.921875 
Q 23.96875 65.921875 18.8125 64.3125 
Q 13.671875 62.703125 7.8125 59.421875 
L 7.8125 69.390625 
Q 13.765625 71.78125 18.9375 73 
Q 24.125 74.21875 28.421875 74.21875 
Q 39.75 74.21875 46.484375 68.546875 
Q 53.21875 62.890625 53.21875 53.421875 
Q 53.21875 48.921875 51.53125 44.890625 
Q 49.859375 40.875 45.40625 35.40625 
Q 44.1875 33.984375 37.640625 27.21875 
Q 31.109375 20.453125 19.1875 8.296875 
z
" id="DejaVuSans-50"/>
       </defs>
       <use xlink:href="#DejaVuSans-49"/>
       <use x="63.623047" xlink:href="#DejaVuSans-50"/>
       <use x="127.246094" xlink:href="#DejaVuSans-48"/>
      </g>
     </g>
    </g>
    <g id="xtick_3">
     <g id="line2d_3">
      <g>
       <use style="stroke:#000000;stroke-width:0.8;" x="209.916795" xlink:href="#mc537b0caa4" y="307.584"/>
      </g>
     </g>
     <g id="text_3">
      <!-- 140 -->
      <g transform="translate(200.373045 322.182437)scale(0.1 -0.1)">
       <defs>
        <path d="M 37.796875 64.3125 
L 12.890625 25.390625 
L 37.796875 25.390625 
z
M 35.203125 72.90625 
L 47.609375 72.90625 
L 47.609375 25.390625 
L 58.015625 25.390625 
L 58.015625 17.1875 
L 47.609375 17.1875 
L 47.609375 0 
L 37.796875 0 
L 37.796875 17.1875 
L 4.890625 17.1875 
L 4.890625 26.703125 
z
" id="DejaVuSans-52"/>
       </defs>
       <use xlink:href="#DejaVuSans-49"/>
       <use x="63.623047" xlink:href="#DejaVuSans-52"/>
       <use x="127.246094" xlink:href="#DejaVuSans-48"/>
      </g>
     </g>
    </g>
    <g id="xtick_4">
     <g id="line2d_4">
      <g>
       <use style="stroke:#000000;stroke-width:0.8;" x="269.20551" xlink:href="#mc537b0caa4" y="307.584"/>
      </g>
     </g>
     <g id="text_4">
      <!-- 160 -->
      <g transform="translate(259.66176 322.182437)scale(0.1 -0.1)">
       <defs>
        <path d="M 33.015625 40.375 
Q 26.375 40.375 22.484375 35.828125 
Q 18.609375 31.296875 18.609375 23.390625 
Q 18.609375 15.53125 22.484375 10.953125 
Q 26.375 6.390625 33.015625 6.390625 
Q 39.65625 6.390625 43.53125 10.953125 
Q 47.40625 15.53125 47.40625 23.390625 
Q 47.40625 31.296875 43.53125 35.828125 
Q 39.65625 40.375 33.015625 40.375 
z
M 52.59375 71.296875 
L 52.59375 62.3125 
Q 48.875 64.0625 45.09375 64.984375 
Q 41.3125 65.921875 37.59375 65.921875 
Q 27.828125 65.921875 22.671875 59.328125 
Q 17.53125 52.734375 16.796875 39.40625 
Q 19.671875 43.65625 24.015625 45.921875 
Q 28.375 48.1875 33.59375 48.1875 
Q 44.578125 48.1875 50.953125 41.515625 
Q 57.328125 34.859375 57.328125 23.390625 
Q 57.328125 12.15625 50.6875 5.359375 
Q 44.046875 -1.421875 33.015625 -1.421875 
Q 20.359375 -1.421875 13.671875 8.265625 
Q 6.984375 17.96875 6.984375 36.375 
Q 6.984375 53.65625 15.1875 63.9375 
Q 23.390625 74.21875 37.203125 74.21875 
Q 40.921875 74.21875 44.703125 73.484375 
Q 48.484375 72.75 52.59375 71.296875 
z
" id="DejaVuSans-54"/>
       </defs>
       <use xlink:href="#DejaVuSans-49"/>
       <use x="63.623047" xlink:href="#DejaVuSans-54"/>
       <use x="127.246094" xlink:href="#DejaVuSans-48"/>
      </g>
     </g>
    </g>
    <g id="xtick_5">
     <g id="line2d_5">
      <g>
       <use style="stroke:#000000;stroke-width:0.8;" x="328.494226" xlink:href="#mc537b0caa4" y="307.584"/>
      </g>
     </g>
     <g id="text_5">
      <!-- 180 -->
      <g transform="translate(318.950476 322.182437)scale(0.1 -0.1)">
       <defs>
        <path d="M 31.78125 34.625 
Q 24.75 34.625 20.71875 30.859375 
Q 16.703125 27.09375 16.703125 20.515625 
Q 16.703125 13.921875 20.71875 10.15625 
Q 24.75 6.390625 31.78125 6.390625 
Q 38.8125 6.390625 42.859375 10.171875 
Q 46.921875 13.96875 46.921875 20.515625 
Q 46.921875 27.09375 42.890625 30.859375 
Q 38.875 34.625 31.78125 34.625 
z
M 21.921875 38.8125 
Q 15.578125 40.375 12.03125 44.71875 
Q 8.5 49.078125 8.5 55.328125 
Q 8.5 64.0625 14.71875 69.140625 
Q 20.953125 74.21875 31.78125 74.21875 
Q 42.671875 74.21875 48.875 69.140625 
Q 55.078125 64.0625 55.078125 55.328125 
Q 55.078125 49.078125 51.53125 44.71875 
Q 48 40.375 41.703125 38.8125 
Q 48.828125 37.15625 52.796875 32.3125 
Q 56.78125 27.484375 56.78125 20.515625 
Q 56.78125 9.90625 50.3125 4.234375 
Q 43.84375 -1.421875 31.78125 -1.421875 
Q 19.734375 -1.421875 13.25 4.234375 
Q 6.78125 9.90625 6.78125 20.515625 
Q 6.78125 27.484375 10.78125 32.3125 
Q 14.796875 37.15625 21.921875 38.8125 
z
M 18.3125 54.390625 
Q 18.3125 48.734375 21.84375 45.5625 
Q 25.390625 42.390625 31.78125 42.390625 
Q 38.140625 42.390625 41.71875 45.5625 
Q 45.3125 48.734375 45.3125 54.390625 
Q 45.3125 60.0625 41.71875 63.234375 
Q 38.140625 66.40625 31.78125 66.40625 
Q 25.390625 66.40625 21.84375 63.234375 
Q 18.3125 60.0625 18.3125 54.390625 
z
" id="DejaVuSans-56"/>
       </defs>
       <use xlink:href="#DejaVuSans-49"/>
       <use x="63.623047" xlink:href="#DejaVuSans-56"/>
       <use x="127.246094" xlink:href="#DejaVuSans-48"/>
      </g>
     </g>
    </g>
    <g id="xtick_6">
     <g id="line2d_6">
      <g>
       <use style="stroke:#000000;stroke-width:0.8;" x="387.782941" xlink:href="#mc537b0caa4" y="307.584"/>
      </g>
     </g>
     <g id="text_6">
      <!-- 200 -->
      <g transform="translate(378.239191 322.182437)scale(0.1 -0.1)">
       <use xlink:href="#DejaVuSans-50"/>
       <use x="63.623047" xlink:href="#DejaVuSans-48"/>
       <use x="127.246094" xlink:href="#DejaVuSans-48"/>
      </g>
     </g>
    </g>
   </g>
   <g id="matplotlib.axis_2">
    <g id="ytick_1">
     <g id="line2d_7">
      <defs>
       <path d="M 0 0 
L -3.5 0 
" id="m49150fed3b" style="stroke:#000000;stroke-width:0.8;"/>
      </defs>
      <g>
       <use style="stroke:#000000;stroke-width:0.8;" x="57.6" xlink:href="#m49150fed3b" y="282.59769"/>
      </g>
     </g>
     <g id="text_7">
      <!-- 10 -->
      <g transform="translate(37.875 286.396909)scale(0.1 -0.1)">
       <use xlink:href="#DejaVuSans-49"/>
       <use x="63.623047" xlink:href="#DejaVuSans-48"/>
      </g>
     </g>
    </g>
    <g id="ytick_2">
     <g id="line2d_8">
      <g>
       <use style="stroke:#000000;stroke-width:0.8;" x="57.6" xlink:href="#m49150fed3b" y="252.953332"/>
      </g>
     </g>
     <g id="text_8">
      <!-- 20 -->
      <g transform="translate(37.875 256.752551)scale(0.1 -0.1)">
       <use xlink:href="#DejaVuSans-50"/>
       <use x="63.623047" xlink:href="#DejaVuSans-48"/>
      </g>
     </g>
    </g>
    <g id="ytick_3">
     <g id="line2d_9">
      <g>
       <use style="stroke:#000000;stroke-width:0.8;" x="57.6" xlink:href="#m49150fed3b" y="223.308975"/>
      </g>
     </g>
     <g id="text_9">
      <!-- 30 -->
      <g transform="translate(37.875 227.108193)scale(0.1 -0.1)">
       <defs>
        <path d="M 40.578125 39.3125 
Q 47.65625 37.796875 51.625 33 
Q 55.609375 28.21875 55.609375 21.1875 
Q 55.609375 10.40625 48.1875 4.484375 
Q 40.765625 -1.421875 27.09375 -1.421875 
Q 22.515625 -1.421875 17.65625 -0.515625 
Q 12.796875 0.390625 7.625 2.203125 
L 7.625 11.71875 
Q 11.71875 9.328125 16.59375 8.109375 
Q 21.484375 6.890625 26.8125 6.890625 
Q 36.078125 6.890625 40.9375 10.546875 
Q 45.796875 14.203125 45.796875 21.1875 
Q 45.796875 27.640625 41.28125 31.265625 
Q 36.765625 34.90625 28.71875 34.90625 
L 20.21875 34.90625 
L 20.21875 43.015625 
L 29.109375 43.015625 
Q 36.375 43.015625 40.234375 45.921875 
Q 44.09375 48.828125 44.09375 54.296875 
Q 44.09375 59.90625 40.109375 62.90625 
Q 36.140625 65.921875 28.71875 65.921875 
Q 24.65625 65.921875 20.015625 65.03125 
Q 15.375 64.15625 9.8125 62.3125 
L 9.8125 71.09375 
Q 15.4375 72.65625 20.34375 73.4375 
Q 25.25 74.21875 29.59375 74.21875 
Q 40.828125 74.21875 47.359375 69.109375 
Q 53.90625 64.015625 53.90625 55.328125 
Q 53.90625 49.265625 50.4375 45.09375 
Q 46.96875 40.921875 40.578125 39.3125 
z
" id="DejaVuSans-51"/>
       </defs>
       <use xlink:href="#DejaVuSans-51"/>
       <use x="63.623047" xlink:href="#DejaVuSans-48"/>
      </g>
     </g>
    </g>
    <g id="ytick_4">
     <g id="line2d_10">
      <g>
       <use style="stroke:#000000;stroke-width:0.8;" x="57.6" xlink:href="#m49150fed3b" y="193.664617"/>
      </g>
     </g>
     <g id="text_10">
      <!-- 40 -->
      <g transform="translate(37.875 197.463836)scale(0.1 -0.1)">
       <use xlink:href="#DejaVuSans-52"/>
       <use x="63.623047" xlink:href="#DejaVuSans-48"/>
      </g>
     </g>
    </g>
    <g id="ytick_5">
     <g id="line2d_11">
      <g>
       <use style="stroke:#000000;stroke-width:0.8;" x="57.6" xlink:href="#m49150fed3b" y="164.020259"/>
      </g>
     </g>
     <g id="text_11">
      <!-- 50 -->
      <g transform="translate(37.875 167.819478)scale(0.1 -0.1)">
       <defs>
        <path d="M 10.796875 72.90625 
L 49.515625 72.90625 
L 49.515625 64.59375 
L 19.828125 64.59375 
L 19.828125 46.734375 
Q 21.96875 47.46875 24.109375 47.828125 
Q 26.265625 48.1875 28.421875 48.1875 
Q 40.625 48.1875 47.75 41.5 
Q 54.890625 34.8125 54.890625 23.390625 
Q 54.890625 11.625 47.5625 5.09375 
Q 40.234375 -1.421875 26.90625 -1.421875 
Q 22.3125 -1.421875 17.546875 -0.640625 
Q 12.796875 0.140625 7.71875 1.703125 
L 7.71875 11.625 
Q 12.109375 9.234375 16.796875 8.0625 
Q 21.484375 6.890625 26.703125 6.890625 
Q 35.15625 6.890625 40.078125 11.328125 
Q 45.015625 15.765625 45.015625 23.390625 
Q 45.015625 31 40.078125 35.4375 
Q 35.15625 39.890625 26.703125 39.890625 
Q 22.75 39.890625 18.8125 39.015625 
Q 14.890625 38.140625 10.796875 36.28125 
z
" id="DejaVuSans-53"/>
       </defs>
       <use xlink:href="#DejaVuSans-53"/>
       <use x="63.623047" xlink:href="#DejaVuSans-48"/>
      </g>
     </g>
    </g>
    <g id="ytick_6">
     <g id="line2d_12">
      <g>
       <use style="stroke:#000000;stroke-width:0.8;" x="57.6" xlink:href="#m49150fed3b" y="134.375902"/>
      </g>
     </g>
     <g id="text_12">
      <!-- 60 -->
      <g transform="translate(37.875 138.175121)scale(0.1 -0.1)">
       <use xlink:href="#DejaVuSans-54"/>
       <use x="63.623047" xlink:href="#DejaVuSans-48"/>
      </g>
     </g>
    </g>
    <g id="ytick_7">
     <g id="line2d_13">
      <g>
       <use style="stroke:#000000;stroke-width:0.8;" x="57.6" xlink:href="#m49150fed3b" y="104.731544"/>
      </g>
     </g>
     <g id="text_13">
      <!-- 70 -->
      <g transform="translate(37.875 108.530763)scale(0.1 -0.1)">
       <defs>
        <path d="M 8.203125 72.90625 
L 55.078125 72.90625 
L 55.078125 68.703125 
L 28.609375 0 
L 18.3125 0 
L 43.21875 64.59375 
L 8.203125 64.59375 
z
" id="DejaVuSans-55"/>
       </defs>
       <use xlink:href="#DejaVuSans-55"/>
       <use x="63.623047" xlink:href="#DejaVuSans-48"/>
      </g>
     </g>
    </g>
    <g id="ytick_8">
     <g id="line2d_14">
      <g>
       <use style="stroke:#000000;stroke-width:0.8;" x="57.6" xlink:href="#m49150fed3b" y="75.087187"/>
      </g>
     </g>
     <g id="text_14">
      <!-- 80 -->
      <g transform="translate(37.875 78.886405)scale(0.1 -0.1)">
       <use xlink:href="#DejaVuSans-56"/>
       <use x="63.623047" xlink:href="#DejaVuSans-48"/>
      </g>
     </g>
    </g>
    <g id="ytick_9">
     <g id="line2d_15">
      <g>
       <use style="stroke:#000000;stroke-width:0.8;" x="57.6" xlink:href="#m49150fed3b" y="45.442829"/>
      </g>
     </g>
     <g id="text_15">
      <!-- 90 -->
      <g transform="translate(37.875 49.242048)scale(0.1 -0.1)">
       <defs>
        <path d="M 10.984375 1.515625 
L 10.984375 10.5 
Q 14.703125 8.734375 18.5 7.8125 
Q 22.3125 6.890625 25.984375 6.890625 
Q 35.75 6.890625 40.890625 13.453125 
Q 46.046875 20.015625 46.78125 33.40625 
Q 43.953125 29.203125 39.59375 26.953125 
Q 35.25 24.703125 29.984375 24.703125 
Q 19.046875 24.703125 12.671875 31.3125 
Q 6.296875 37.9375 6.296875 49.421875 
Q 6.296875 60.640625 12.9375 67.421875 
Q 19.578125 74.21875 30.609375 74.21875 
Q 43.265625 74.21875 49.921875 64.515625 
Q 56.59375 54.828125 56.59375 36.375 
Q 56.59375 19.140625 48.40625 8.859375 
Q 40.234375 -1.421875 26.421875 -1.421875 
Q 22.703125 -1.421875 18.890625 -0.6875 
Q 15.09375 0.046875 10.984375 1.515625 
z
M 30.609375 32.421875 
Q 37.25 32.421875 41.125 36.953125 
Q 45.015625 41.5 45.015625 49.421875 
Q 45.015625 57.28125 41.125 61.84375 
Q 37.25 66.40625 30.609375 66.40625 
Q 23.96875 66.40625 20.09375 61.84375 
Q 16.21875 57.28125 16.21875 49.421875 
Q 16.21875 41.5 20.09375 36.953125 
Q 23.96875 32.421875 30.609375 32.421875 
z
" id="DejaVuSans-57"/>
       </defs>
       <use xlink:href="#DejaVuSans-57"/>
       <use x="63.623047" xlink:href="#DejaVuSans-48"/>
      </g>
     </g>
    </g>
   </g>
   <g id="line2d_16">
    <path clip-path="url(#pa26c02dde7)" d="M 298.849868 285.562126 
L 294.477325 282.704409 
L 290.184822 279.861516 
L 285.972359 277.030479 
L 281.8429 274.21723 
L 277.793481 271.418803 
L 273.827066 268.635197 
L 269.94069 265.869379 
L 266.134355 263.115418 
L 262.411024 260.376279 
L 258.767732 257.651963 
L 255.207445 254.945433 
L 251.724233 252.250761 
L 248.326989 249.573875 
L 245.006821 246.911812 
L 241.769657 244.261607 
L 238.615498 241.629188 
L 235.541378 239.011591 
L 232.547298 236.408816 
L 229.633257 233.820864 
L 226.802221 231.247734 
L 224.054189 228.689426 
L 221.383233 226.14594 
L 218.79528 223.617276 
L 216.290332 221.106399 
L 213.865424 218.607379 
L 211.520555 216.126147 
L 209.25869 213.656772 
L 207.076866 211.205183 
L 204.975081 208.768417 
L 202.9563 206.343509 
L 201.017559 203.936387 
L 199.158858 201.544087 
L 197.383161 199.16661 
L 195.690468 196.803954 
L 194.074851 194.456121 
L 192.542237 192.12311 
L 191.092628 189.804922 
L 189.723059 187.504519 
L 188.433529 185.215975 
L 187.227004 182.945217 
L 186.100518 180.686317 
L 185.054073 178.445204 
L 184.090631 176.215948 
L 183.207229 174.004479 
L 182.403867 171.807832 
L 181.683509 169.626007 
L 181.043191 167.459005 
L 180.485877 165.306825 
L 180.008603 163.169466 
L 179.614333 161.04693 
L 179.297138 158.939217 
L 179.065912 156.846325 
L 178.911762 154.77122 
L 178.840615 152.707973 
L 178.849508 150.662512 
L 178.941406 148.628909 
L 179.113343 146.613093 
L 179.368285 144.612098 
L 179.703266 142.622962 
L 180.118287 140.651612 
L 180.616312 138.695085 
L 181.194377 136.753379 
L 181.852482 134.826496 
L 182.593591 132.914435 
L 183.41474 131.017196 
L 184.315928 129.137744 
L 185.300121 127.270149 
L 186.367318 125.417377 
L 187.51159 123.582391 
L 188.738866 121.759263 
L 190.049147 119.953922 
L 191.439467 118.163403 
L 192.909827 116.384741 
L 194.463192 114.623866 
L 196.096596 112.877814 
L 197.81004 111.146583 
L 199.606488 109.430175 
L 201.482975 107.728589 
L 203.439503 106.041825 
L 205.479035 104.372847 
L 207.601571 102.715728 
L 209.801182 101.07343 
L 212.083798 99.44892 
L 214.449418 97.836267 
L 216.892113 96.2414 
L 219.420776 94.658392 
L 222.026515 93.093169 
L 224.715259 91.54277 
L 227.487006 90.007192 
L 230.335829 88.486436 
L 233.267656 86.980503 
L 236.282487 85.489392 
L 239.377358 84.013103 
L 242.552269 82.551636 
L 245.810183 81.104991 
L 249.148138 79.676133 
L 252.566133 78.259133 
L 256.067131 76.859919 
L 259.64817 75.472563 
L 263.312212 74.102994 
L 267.056294 72.745282 
L 270.880417 71.405357 
L 274.787543 70.080255 
L 278.774709 68.769974 
L 282.841915 67.474516 
L 286.992125 66.193879 
L 291.222375 64.928065 
" style="fill:none;stroke:#fea952;stroke-linecap:square;"/>
   </g>
   <g id="line2d_17">
    <path clip-path="url(#pa26c02dde7)" d="M 292.36272 295.488 
L 287.929799 292.59056 
L 283.570615 289.703179 
L 279.296167 286.8302 
L 275.101526 283.972226 
L 270.981832 281.124858 
L 266.951633 278.296175 
L 262.989901 275.476282 
L 259.107619 272.666912 
L 255.309985 269.872664 
L 251.591615 267.091741 
L 247.951834 264.324248 
L 244.385349 261.56456 
L 240.909447 258.825153 
L 237.495305 256.086952 
L 234.171785 253.365364 
L 230.928018 250.657406 
L 227.761896 247.960654 
L 224.673362 245.274886 
L 221.657791 242.595715 
L 218.722481 239.926666 
L 215.876912 237.27652 
L 213.096256 234.627218 
L 210.400685 231.99205 
L 207.780406 229.363955 
L 205.247259 226.751906 
L 202.776521 224.135388 
L 200.400832 221.539945 
L 198.097742 218.94995 
L 195.862059 216.355175 
L 193.721419 213.781455 
L 191.653876 211.211516 
L 189.658467 208.639765 
L 187.743934 206.072505 
L 185.922071 203.525895 
L 184.164279 200.966624 
L 182.488336 198.410013 
L 180.903904 195.870889 
L 179.392431 193.325534 
L 177.962124 190.779764 
L 176.615552 188.237018 
L 175.356321 185.703118 
L 174.169362 183.149367 
L 173.078958 180.614713 
L 172.070879 178.077287 
L 171.143961 175.525437 
L 170.31182 172.986178 
L 169.564079 170.431557 
L 168.913151 167.891025 
L 168.350287 165.335047 
L 167.888628 162.811558 
L 167.511108 160.241356 
L 167.240752 157.724765 
L 167.061062 155.179865 
L 166.982984 152.656418 
L 167.003854 150.127213 
L 167.126562 147.621172 
L 167.350685 145.114443 
L 167.675193 142.642919 
L 168.099874 140.180143 
L 168.626982 137.726553 
L 169.251516 135.311672 
L 169.973061 132.920868 
L 170.796192 130.541112 
L 171.711385 128.20448 
L 172.722606 125.890369 
L 173.825686 123.609553 
L 175.025012 121.351686 
L 176.305584 119.143017 
L 177.674979 116.960673 
L 179.142272 114.794247 
L 180.683369 112.681489 
L 182.300203 110.608277 
L 184.017569 108.540392 
L 185.803821 106.523165 
L 187.668723 104.536529 
L 189.618519 102.573074 
L 191.641164 100.646116 
L 193.740316 98.747648 
L 195.930006 96.865032 
L 198.181926 95.026283 
L 200.50743 93.214189 
L 202.925635 91.412534 
L 205.404656 89.651209 
L 207.96677 87.907453 
L 210.600109 86.190691 
L 213.314917 84.493523 
L 216.103223 82.820844 
L 218.968878 81.170442 
L 221.902937 79.546587 
L 224.918016 77.938765 
L 228.010747 76.351722 
L 231.177283 74.786917 
L 234.419118 73.241755 
L 237.740043 71.714267 
L 241.143864 70.204004 
L 244.607038 68.722391 
L 248.165492 67.248209 
L 251.783475 65.80296 
L 255.496458 64.365387 
L 259.269834 62.955562 
L 263.13522 61.554606 
L 267.071932 60.175864 
L 271.08557 58.8152 
L 275.175999 57.471507 
L 279.345622 56.143937 
L 283.592862 54.833814 
L 287.823112 53.568 
" style="fill:none;stroke:#ffffff;stroke-linecap:square;"/>
   </g>
   <g id="line2d_18">
    <path clip-path="url(#pa26c02dde7)" d="M 305.337016 275.636251 
L 301.024852 272.818259 
L 296.799029 270.019852 
L 292.648551 267.230758 
L 288.584274 264.462234 
L 284.60513 261.712747 
L 280.702499 258.974219 
L 276.89148 256.262475 
L 273.161091 253.563924 
L 269.512063 250.879895 
L 265.94385 248.212185 
L 262.463056 245.566618 
L 259.063116 242.936962 
L 255.744532 240.322598 
L 252.518337 237.736672 
L 249.36753 235.157849 
L 246.302978 232.600969 
L 243.32086 230.062528 
L 240.421234 227.542746 
L 237.608724 225.046013 
L 234.881961 222.568801 
L 232.231467 220.102331 
L 229.670209 217.664661 
L 227.189876 215.242502 
L 224.800258 212.848843 
L 222.483588 210.462853 
L 220.264589 208.116906 
L 218.116549 205.773599 
L 216.055989 203.460416 
L 214.088103 201.181659 
L 212.191181 198.905563 
L 210.381242 196.661258 
L 208.659248 194.448409 
L 207.022387 192.260715 
L 205.458866 190.082014 
L 203.985422 187.945619 
L 202.596138 185.836208 
L 201.281353 183.738954 
L 200.053686 181.683505 
L 198.904935 179.652187 
L 197.838456 177.653417 
L 196.844716 175.669516 
L 195.938783 173.74104 
L 195.102304 171.817183 
L 194.34358 169.931671 
L 193.663773 168.090227 
L 193.055199 166.265837 
L 192.522303 164.486453 
L 192.058603 162.722624 
L 191.666919 161.003885 
L 191.340038 159.282302 
L 191.083168 157.637077 
L 190.891072 155.967884 
L 190.762461 154.362575 
L 190.698246 152.759527 
L 190.695163 151.197811 
L 190.75625 149.636646 
L 190.876001 148.111742 
L 191.061377 146.581278 
L 191.306658 145.065781 
L 191.609592 143.576672 
L 191.981108 142.078497 
L 192.415693 140.58589 
L 192.908772 139.11188 
L 193.475796 137.62439 
L 194.106873 136.144023 
L 194.80617 134.665935 
L 195.57523 133.188612 
L 196.429051 131.691737 
L 197.348201 130.20411 
L 198.335461 128.724279 
L 199.414924 127.226355 
L 200.578732 125.718528 
L 201.802086 124.22909 
L 203.122562 122.724568 
L 204.524468 121.219099 
L 206.00156 119.720092 
L 207.571811 118.214234 
L 209.225635 116.709529 
L 210.949 115.218617 
L 212.776144 113.719412 
L 214.695712 112.217267 
L 216.676729 110.734327 
L 218.762939 109.246631 
L 220.932065 107.765081 
L 223.184116 106.29211 
L 225.526636 104.82326 
L 227.949808 103.365495 
L 230.461639 101.915097 
L 233.071075 100.467796 
L 235.753642 99.034108 
L 238.524565 97.609283 
L 241.38769 96.191867 
L 244.335597 94.78445 
L 247.364494 93.389004 
L 250.476503 92.005979 
L 253.689239 90.629876 
L 256.966773 89.270056 
L 260.350788 87.916879 
L 263.799881 86.579739 
L 267.354591 85.250426 
L 270.977369 83.935959 
L 274.688902 82.63485 
L 278.489516 81.34531 
L 282.373419 80.068441 
L 286.338208 78.805094 
L 290.391388 77.553945 
L 294.621638 76.288131 
" style="fill:none;stroke:#ffffff;stroke-linecap:square;"/>
   </g>
   <g id="patch_3">
    <path d="M 57.6 307.584 
L 57.6 41.472 
" style="fill:none;stroke:#000000;stroke-linecap:square;stroke-linejoin:miter;stroke-width:0.8;"/>
   </g>
   <g id="patch_4">
    <path d="M 414.72 307.584 
L 414.72 41.472 
" style="fill:none;stroke:#000000;stroke-linecap:square;stroke-linejoin:miter;stroke-width:0.8;"/>
   </g>
   <g id="patch_5">
    <path d="M 57.6 307.584 
L 414.72 307.584 
" style="fill:none;stroke:#000000;stroke-linecap:square;stroke-linejoin:miter;stroke-width:0.8;"/>
   </g>
   <g id="patch_6">
    <path d="M 57.6 41.472 
L 414.72 41.472 
" style="fill:none;stroke:#000000;stroke-linecap:square;stroke-linejoin:miter;stroke-width:0.8;"/>
   </g>
  </g>
 </g>
 <defs>
  <clipPath id="pa26c02dde7">
   <rect height="266.112" width="357.12" x="57.6" y="41.472"/>
  </clipPath>
 </defs>
</svg>
