<?xml version="1.0" encoding="utf-8" standalone="no"?>
<!DOCTYPE svg PUBLIC "-//W3C//DTD SVG 1.1//EN"
  "http://www.w3.org/Graphics/SVG/1.1/DTD/svg11.dtd">
<!-- Created with matplotlib (https://matplotlib.org/) -->
<svg height="345.6pt" version="1.1" viewBox="0 0 460.8 345.6" width="460.8pt" xmlns="http://www.w3.org/2000/svg" xmlns:xlink="http://www.w3.org/1999/xlink">
 <metadata>
  <rdf:RDF xmlns:cc="http://creativecommons.org/ns#" xmlns:dc="http://purl.org/dc/elements/1.1/" xmlns:rdf="http://www.w3.org/1999/02/22-rdf-syntax-ns#">
   <cc:Work>
    <dc:type rdf:resource="http://purl.org/dc/dcmitype/StillImage"/>
    <dc:date>2021-07-14T14:09:09.360495</dc:date>
    <dc:format>image/svg+xml</dc:format>
    <dc:creator>
     <cc:Agent>
      <dc:title>Matplotlib v3.3.3, https://matplotlib.org/</dc:title>
     </cc:Agent>
    </dc:creator>
   </cc:Work>
  </rdf:RDF>
 </metadata>
 <defs>
  <style type="text/css">*{stroke-linecap:butt;stroke-linejoin:round;}</style>
 </defs>
 <g id="figure_1">
  <g id="patch_1">
   <path d="M 0 345.6 
L 460.8 345.6 
L 460.8 0 
L 0 0 
z
" style="fill:#ffffff;"/>
  </g>
  <g id="axes_1">
   <g id="patch_2">
    <path d="M 57.6 307.584 
L 414.72 307.584 
L 414.72 41.472 
L 57.6 41.472 
z
" style="fill:#7d9051;"/>
   </g>
   <g id="matplotlib.axis_1">
    <g id="xtick_1">
     <g id="line2d_1">
      <defs>
       <path d="M 0 0 
L 0 3.5 
" id="m07e281c836" style="stroke:#000000;stroke-width:0.8;"/>
      </defs>
      <g>
       <use style="stroke:#000000;stroke-width:0.8;" x="105.265643" xlink:href="#m07e281c836" y="307.584"/>
      </g>
     </g>
     <g id="text_1">
      <!-- 20 -->
      <g transform="translate(98.903143 322.182437)scale(0.1 -0.1)">
       <defs>
        <path d="M 19.1875 8.296875 
L 53.609375 8.296875 
L 53.609375 0 
L 7.328125 0 
L 7.328125 8.296875 
Q 12.9375 14.109375 22.625 23.890625 
Q 32.328125 33.6875 34.8125 36.53125 
Q 39.546875 41.84375 41.421875 45.53125 
Q 43.3125 49.21875 43.3125 52.78125 
Q 43.3125 58.59375 39.234375 62.25 
Q 35.15625 65.921875 28.609375 65.921875 
Q 23.96875 65.921875 18.8125 64.3125 
Q 13.671875 62.703125 7.8125 59.421875 
L 7.8125 69.390625 
Q 13.765625 71.78125 18.9375 73 
Q 24.125 74.21875 28.421875 74.21875 
Q 39.75 74.21875 46.484375 68.546875 
Q 53.21875 62.890625 53.21875 53.421875 
Q 53.21875 48.921875 51.53125 44.890625 
Q 49.859375 40.875 45.40625 35.40625 
Q 44.1875 33.984375 37.640625 27.21875 
Q 31.109375 20.453125 19.1875 8.296875 
z
" id="DejaVuSans-50"/>
        <path d="M 31.78125 66.40625 
Q 24.171875 66.40625 20.328125 58.90625 
Q 16.5 51.421875 16.5 36.375 
Q 16.5 21.390625 20.328125 13.890625 
Q 24.171875 6.390625 31.78125 6.390625 
Q 39.453125 6.390625 43.28125 13.890625 
Q 47.125 21.390625 47.125 36.375 
Q 47.125 51.421875 43.28125 58.90625 
Q 39.453125 66.40625 31.78125 66.40625 
z
M 31.78125 74.21875 
Q 44.046875 74.21875 50.515625 64.515625 
Q 56.984375 54.828125 56.984375 36.375 
Q 56.984375 17.96875 50.515625 8.265625 
Q 44.046875 -1.421875 31.78125 -1.421875 
Q 19.53125 -1.421875 13.0625 8.265625 
Q 6.59375 17.96875 6.59375 36.375 
Q 6.59375 54.828125 13.0625 64.515625 
Q 19.53125 74.21875 31.78125 74.21875 
z
" id="DejaVuSans-48"/>
       </defs>
       <use xlink:href="#DejaVuSans-50"/>
       <use x="63.623047" xlink:href="#DejaVuSans-48"/>
      </g>
     </g>
    </g>
    <g id="xtick_2">
     <g id="line2d_2">
      <g>
       <use style="stroke:#000000;stroke-width:0.8;" x="158.742617" xlink:href="#m07e281c836" y="307.584"/>
      </g>
     </g>
     <g id="text_2">
      <!-- 40 -->
      <g transform="translate(152.380117 322.182437)scale(0.1 -0.1)">
       <defs>
        <path d="M 37.796875 64.3125 
L 12.890625 25.390625 
L 37.796875 25.390625 
z
M 35.203125 72.90625 
L 47.609375 72.90625 
L 47.609375 25.390625 
L 58.015625 25.390625 
L 58.015625 17.1875 
L 47.609375 17.1875 
L 47.609375 0 
L 37.796875 0 
L 37.796875 17.1875 
L 4.890625 17.1875 
L 4.890625 26.703125 
z
" id="DejaVuSans-52"/>
       </defs>
       <use xlink:href="#DejaVuSans-52"/>
       <use x="63.623047" xlink:href="#DejaVuSans-48"/>
      </g>
     </g>
    </g>
    <g id="xtick_3">
     <g id="line2d_3">
      <g>
       <use style="stroke:#000000;stroke-width:0.8;" x="212.219592" xlink:href="#m07e281c836" y="307.584"/>
      </g>
     </g>
     <g id="text_3">
      <!-- 60 -->
      <g transform="translate(205.857092 322.182437)scale(0.1 -0.1)">
       <defs>
        <path d="M 33.015625 40.375 
Q 26.375 40.375 22.484375 35.828125 
Q 18.609375 31.296875 18.609375 23.390625 
Q 18.609375 15.53125 22.484375 10.953125 
Q 26.375 6.390625 33.015625 6.390625 
Q 39.65625 6.390625 43.53125 10.953125 
Q 47.40625 15.53125 47.40625 23.390625 
Q 47.40625 31.296875 43.53125 35.828125 
Q 39.65625 40.375 33.015625 40.375 
z
M 52.59375 71.296875 
L 52.59375 62.3125 
Q 48.875 64.0625 45.09375 64.984375 
Q 41.3125 65.921875 37.59375 65.921875 
Q 27.828125 65.921875 22.671875 59.328125 
Q 17.53125 52.734375 16.796875 39.40625 
Q 19.671875 43.65625 24.015625 45.921875 
Q 28.375 48.1875 33.59375 48.1875 
Q 44.578125 48.1875 50.953125 41.515625 
Q 57.328125 34.859375 57.328125 23.390625 
Q 57.328125 12.15625 50.6875 5.359375 
Q 44.046875 -1.421875 33.015625 -1.421875 
Q 20.359375 -1.421875 13.671875 8.265625 
Q 6.984375 17.96875 6.984375 36.375 
Q 6.984375 53.65625 15.1875 63.9375 
Q 23.390625 74.21875 37.203125 74.21875 
Q 40.921875 74.21875 44.703125 73.484375 
Q 48.484375 72.75 52.59375 71.296875 
z
" id="DejaVuSans-54"/>
       </defs>
       <use xlink:href="#DejaVuSans-54"/>
       <use x="63.623047" xlink:href="#DejaVuSans-48"/>
      </g>
     </g>
    </g>
    <g id="xtick_4">
     <g id="line2d_4">
      <g>
       <use style="stroke:#000000;stroke-width:0.8;" x="265.696567" xlink:href="#m07e281c836" y="307.584"/>
      </g>
     </g>
     <g id="text_4">
      <!-- 80 -->
      <g transform="translate(259.334067 322.182437)scale(0.1 -0.1)">
       <defs>
        <path d="M 31.78125 34.625 
Q 24.75 34.625 20.71875 30.859375 
Q 16.703125 27.09375 16.703125 20.515625 
Q 16.703125 13.921875 20.71875 10.15625 
Q 24.75 6.390625 31.78125 6.390625 
Q 38.8125 6.390625 42.859375 10.171875 
Q 46.921875 13.96875 46.921875 20.515625 
Q 46.921875 27.09375 42.890625 30.859375 
Q 38.875 34.625 31.78125 34.625 
z
M 21.921875 38.8125 
Q 15.578125 40.375 12.03125 44.71875 
Q 8.5 49.078125 8.5 55.328125 
Q 8.5 64.0625 14.71875 69.140625 
Q 20.953125 74.21875 31.78125 74.21875 
Q 42.671875 74.21875 48.875 69.140625 
Q 55.078125 64.0625 55.078125 55.328125 
Q 55.078125 49.078125 51.53125 44.71875 
Q 48 40.375 41.703125 38.8125 
Q 48.828125 37.15625 52.796875 32.3125 
Q 56.78125 27.484375 56.78125 20.515625 
Q 56.78125 9.90625 50.3125 4.234375 
Q 43.84375 -1.421875 31.78125 -1.421875 
Q 19.734375 -1.421875 13.25 4.234375 
Q 6.78125 9.90625 6.78125 20.515625 
Q 6.78125 27.484375 10.78125 32.3125 
Q 14.796875 37.15625 21.921875 38.8125 
z
M 18.3125 54.390625 
Q 18.3125 48.734375 21.84375 45.5625 
Q 25.390625 42.390625 31.78125 42.390625 
Q 38.140625 42.390625 41.71875 45.5625 
Q 45.3125 48.734375 45.3125 54.390625 
Q 45.3125 60.0625 41.71875 63.234375 
Q 38.140625 66.40625 31.78125 66.40625 
Q 25.390625 66.40625 21.84375 63.234375 
Q 18.3125 60.0625 18.3125 54.390625 
z
" id="DejaVuSans-56"/>
       </defs>
       <use xlink:href="#DejaVuSans-56"/>
       <use x="63.623047" xlink:href="#DejaVuSans-48"/>
      </g>
     </g>
    </g>
    <g id="xtick_5">
     <g id="line2d_5">
      <g>
       <use style="stroke:#000000;stroke-width:0.8;" x="319.173542" xlink:href="#m07e281c836" y="307.584"/>
      </g>
     </g>
     <g id="text_5">
      <!-- 100 -->
      <g transform="translate(309.629792 322.182437)scale(0.1 -0.1)">
       <defs>
        <path d="M 12.40625 8.296875 
L 28.515625 8.296875 
L 28.515625 63.921875 
L 10.984375 60.40625 
L 10.984375 69.390625 
L 28.421875 72.90625 
L 38.28125 72.90625 
L 38.28125 8.296875 
L 54.390625 8.296875 
L 54.390625 0 
L 12.40625 0 
z
" id="DejaVuSans-49"/>
       </defs>
       <use xlink:href="#DejaVuSans-49"/>
       <use x="63.623047" xlink:href="#DejaVuSans-48"/>
       <use x="127.246094" xlink:href="#DejaVuSans-48"/>
      </g>
     </g>
    </g>
    <g id="xtick_6">
     <g id="line2d_6">
      <g>
       <use style="stroke:#000000;stroke-width:0.8;" x="372.650517" xlink:href="#m07e281c836" y="307.584"/>
      </g>
     </g>
     <g id="text_6">
      <!-- 120 -->
      <g transform="translate(363.106767 322.182437)scale(0.1 -0.1)">
       <use xlink:href="#DejaVuSans-49"/>
       <use x="63.623047" xlink:href="#DejaVuSans-50"/>
       <use x="127.246094" xlink:href="#DejaVuSans-48"/>
      </g>
     </g>
    </g>
   </g>
   <g id="matplotlib.axis_2">
    <g id="ytick_1">
     <g id="line2d_7">
      <defs>
       <path d="M 0 0 
L -3.5 0 
" id="m78f30641d4" style="stroke:#000000;stroke-width:0.8;"/>
      </defs>
      <g>
       <use style="stroke:#000000;stroke-width:0.8;" x="57.6" xlink:href="#m78f30641d4" y="259.219532"/>
      </g>
     </g>
     <g id="text_7">
      <!-- 40 -->
      <g transform="translate(37.875 263.01875)scale(0.1 -0.1)">
       <use xlink:href="#DejaVuSans-52"/>
       <use x="63.623047" xlink:href="#DejaVuSans-48"/>
      </g>
     </g>
    </g>
    <g id="ytick_2">
     <g id="line2d_8">
      <g>
       <use style="stroke:#000000;stroke-width:0.8;" x="57.6" xlink:href="#m78f30641d4" y="205.742557"/>
      </g>
     </g>
     <g id="text_8">
      <!-- 60 -->
      <g transform="translate(37.875 209.541775)scale(0.1 -0.1)">
       <use xlink:href="#DejaVuSans-54"/>
       <use x="63.623047" xlink:href="#DejaVuSans-48"/>
      </g>
     </g>
    </g>
    <g id="ytick_3">
     <g id="line2d_9">
      <g>
       <use style="stroke:#000000;stroke-width:0.8;" x="57.6" xlink:href="#m78f30641d4" y="152.265582"/>
      </g>
     </g>
     <g id="text_9">
      <!-- 80 -->
      <g transform="translate(37.875 156.064801)scale(0.1 -0.1)">
       <use xlink:href="#DejaVuSans-56"/>
       <use x="63.623047" xlink:href="#DejaVuSans-48"/>
      </g>
     </g>
    </g>
    <g id="ytick_4">
     <g id="line2d_10">
      <g>
       <use style="stroke:#000000;stroke-width:0.8;" x="57.6" xlink:href="#m78f30641d4" y="98.788607"/>
      </g>
     </g>
     <g id="text_10">
      <!-- 100 -->
      <g transform="translate(31.5125 102.587826)scale(0.1 -0.1)">
       <use xlink:href="#DejaVuSans-49"/>
       <use x="63.623047" xlink:href="#DejaVuSans-48"/>
       <use x="127.246094" xlink:href="#DejaVuSans-48"/>
      </g>
     </g>
    </g>
    <g id="ytick_5">
     <g id="line2d_11">
      <g>
       <use style="stroke:#000000;stroke-width:0.8;" x="57.6" xlink:href="#m78f30641d4" y="45.311632"/>
      </g>
     </g>
     <g id="text_11">
      <!-- 120 -->
      <g transform="translate(31.5125 49.110851)scale(0.1 -0.1)">
       <use xlink:href="#DejaVuSans-49"/>
       <use x="63.623047" xlink:href="#DejaVuSans-50"/>
       <use x="127.246094" xlink:href="#DejaVuSans-48"/>
      </g>
     </g>
    </g>
   </g>
   <g id="line2d_12">
    <path clip-path="url(#pf428e1f28f)" d="M 386.01976 299.327263 
L 386.17217 291.284326 
L 386.690897 280.572888 
L 387.565245 264.508404 
L 387.784501 256.468141 
L 387.76311 251.107074 
L 387.562571 245.746008 
L 387.142777 240.400984 
L 386.460946 235.082699 
L 385.511729 229.804521 
L 383.867312 221.930037 
L 381.974227 214.114377 
L 379.787019 206.373585 
L 378.142602 201.269208 
L 376.327059 196.223655 
L 374.318998 191.250296 
L 372.102378 186.367849 
L 369.650458 181.600376 
L 366.936502 176.974618 
L 363.93377 172.533355 
L 362.316091 170.391602 
L 360.602154 168.332739 
L 358.775916 166.370134 
L 356.845397 164.506461 
L 354.829315 162.739047 
L 350.588591 159.458235 
L 346.144654 156.458177 
L 341.561677 153.672026 
L 334.540151 149.746816 
L 320.432925 142.014046 
L 315.839253 139.249286 
L 311.371251 136.283988 
L 307.090419 133.056652 
L 303.031517 129.551237 
L 299.165132 125.837261 
L 295.448482 121.970876 
L 290.074046 115.984128 
L 277.726213 101.852838 
L 274.052344 97.943671 
L 270.239436 94.176218 
L 266.244706 90.598608 
L 262.033394 87.277688 
L 257.602827 84.258913 
L 250.797882 79.970059 
L 243.853897 75.911157 
L 239.137227 73.357632 
L 234.348364 70.943146 
L 229.48196 68.694439 
L 224.532666 66.630228 
L 219.497808 64.785272 
L 214.377388 63.194332 
L 209.171405 61.902864 
L 203.893227 60.961669 
L 201.230074 60.643481 
L 198.556225 60.440268 
L 193.195158 60.362727 
L 187.842113 60.662198 
L 182.515807 61.290552 
L 177.232281 62.205008 
L 172.002233 63.38685 
L 166.833684 64.817359 
L 161.737328 66.480493 
L 156.718514 68.373578 
L 151.793284 70.49394 
L 146.975009 72.844253 
L 142.279731 75.435212 
L 137.731514 78.277513 
L 133.367793 81.392547 
L 129.247392 84.823095 
L 125.391702 88.547766 
L 121.776658 92.507736 
L 118.386218 96.662897 
L 115.204338 100.978489 
L 112.209628 105.427773 
L 109.388717 109.989359 
L 106.725564 114.64453 
L 104.212146 119.379916 
L 100.698709 126.615351 
L 97.463352 133.97913 
L 95.484704 138.963184 
L 93.802853 144.054192 
L 92.407104 149.233437 
L 91.257349 154.471507 
L 90.308133 159.747011 
L 89.158378 167.709732 
L 87.925733 178.362346 
L 86.412335 191.68346 
L 85.283971 199.646182 
L 84.350798 204.929707 
L 84.350798 204.929707 
" style="fill:none;stroke:#fea952;stroke-linecap:square;"/>
   </g>
   <g id="line2d_13">
    <path clip-path="url(#pf428e1f28f)" d="M 375.324626 299.252621 
L 375.484867 290.868353 
L 376.01341 279.954212 
L 376.972956 261.530451 
L 377.097772 253.903678 
L 377.004594 248.926333 
L 376.731169 244.031821 
L 376.248781 239.24143 
L 375.504028 234.433127 
L 373.995251 226.842339 
L 372.269373 219.347376 
L 370.300682 211.993937 
L 368.83088 207.174486 
L 367.22745 202.450347 
L 365.472605 197.83232 
L 363.551962 193.329724 
L 361.45886 188.981488 
L 359.180225 184.812222 
L 356.710728 180.86414 
L 354.096162 177.234426 
L 352.772242 175.618611 
L 351.347524 174.064968 
L 348.132361 171.078248 
L 344.477394 168.235748 
L 340.502973 165.54459 
L 336.240353 162.949686 
L 329.4523 159.154539 
L 314.999418 151.226455 
L 310.03516 148.232826 
L 305.079255 144.932817 
L 300.223487 141.256452 
L 295.712594 137.350264 
L 291.517498 133.314236 
L 287.567427 129.201397 
L 282.006459 123.005917 
L 268.168748 107.269796 
L 264.733561 103.729577 
L 261.244347 100.425588 
L 257.692005 97.41331 
L 253.937476 94.657941 
L 247.464912 90.480192 
L 240.898276 86.533372 
L 234.251977 82.872136 
L 229.771188 80.609631 
L 225.26112 78.521748 
L 220.73757 76.629664 
L 216.182854 74.953977 
L 211.638173 73.533006 
L 207.102584 72.396264 
L 202.624388 71.581533 
L 198.193516 71.129511 
L 193.62178 71.04961 
L 188.940114 71.301082 
L 184.201416 71.852285 
L 179.473278 72.662991 
L 174.734119 73.727463 
L 170.036006 75.022093 
L 165.406103 76.526963 
L 160.837431 78.244038 
L 156.370461 80.160424 
L 152.020866 82.274565 
L 147.815369 84.586615 
L 143.791669 87.090344 
L 140.046551 89.746329 
L 136.544295 92.642729 
L 133.185408 95.872357 
L 129.976458 99.374669 
L 126.922005 103.107416 
L 124.012188 107.045882 
L 121.255253 111.134624 
L 118.627948 115.377132 
L 116.137749 119.724122 
L 112.629988 126.447559 
L 109.386256 133.346849 
L 106.430686 140.290589 
L 104.810698 144.694595 
L 103.433726 149.288621 
L 102.275182 154.031416 
L 101.302292 158.908533 
L 100.113643 166.45988 
L 99.145062 174.228527 
L 96.655391 195.834409 
L 95.830073 201.426969 
L 94.868868 206.869209 
L 94.868868 206.869209 
" style="fill:none;stroke:#ffffff;stroke-linecap:square;"/>
   </g>
   <g id="line2d_14">
    <path clip-path="url(#pf428e1f28f)" d="M 396.714895 299.401905 
L 396.859473 291.700298 
L 397.368383 281.191563 
L 398.253356 264.903075 
L 398.479848 256.500131 
L 398.45434 250.808615 
L 398.234041 245.031019 
L 397.768795 239.184753 
L 397.005292 233.291546 
L 396.000656 227.713138 
L 394.289889 219.529751 
L 392.304233 211.342652 
L 390.802798 205.89237 
L 389.138848 200.454938 
L 387.287666 195.023799 
L 385.224255 189.620241 
L 382.925565 184.261683 
L 380.355475 178.957325 
L 377.473582 173.725339 
L 374.231738 168.593031 
L 372.468301 166.087174 
L 370.53602 163.548778 
L 368.432067 161.046866 
L 366.204308 158.6753 
L 363.895912 156.463967 
L 361.526269 154.399846 
L 356.699788 150.680721 
L 351.786336 147.371763 
L 346.883002 144.394366 
L 339.628001 140.339093 
L 325.866431 132.801637 
L 321.643345 130.265746 
L 317.663248 127.635158 
L 313.957352 124.856853 
L 310.35044 121.752209 
L 306.812766 118.360285 
L 303.329537 114.740354 
L 298.141633 108.96234 
L 285.576633 94.589066 
L 281.652398 90.418337 
L 277.486824 86.31067 
L 273.01279 82.317032 
L 268.176102 78.522197 
L 263.389674 75.264255 
L 256.300617 70.798834 
L 249.012708 66.542158 
L 244.022478 63.843127 
L 238.925541 61.276661 
L 233.702799 58.867131 
L 228.327761 56.630792 
L 222.812763 54.616568 
L 217.116604 52.855659 
L 211.240225 51.409463 
L 208.225947 50.822404 
L 205.162066 50.341804 
L 202.040587 49.978841 
L 198.918934 49.751025 
L 195.823712 49.654095 
L 189.747882 49.801901 
L 183.765659 50.335286 
L 177.906672 51.199128 
L 172.13848 52.361056 
L 166.43785 53.797591 
L 160.844167 55.49016 
L 155.338456 57.433539 
L 149.906339 59.629911 
L 144.570592 62.083317 
L 139.323306 64.812301 
L 134.186336 67.836262 
L 129.156976 71.201709 
L 126.689035 73.038765 
L 124.269023 74.984335 
L 121.950489 77.003461 
L 117.597996 81.223176 
L 113.576859 85.640804 
L 109.850432 90.218378 
L 106.396489 94.911096 
L 103.164003 99.720923 
L 100.149487 104.601586 
L 97.313379 109.564938 
L 94.654443 114.57973 
L 92.155065 119.64473 
L 88.673656 127.321218 
L 86.458545 132.630335 
L 84.399318 138.296043 
L 82.712058 143.980292 
L 81.335794 149.660159 
L 80.217734 155.301964 
L 79.307498 160.872298 
L 78.207138 169.122405 
L 74.737869 197.865394 
L 73.832727 202.990204 
L 73.832727 202.990204 
" style="fill:none;stroke:#ffffff;stroke-linecap:square;"/>
   </g>
   <g id="patch_3">
    <path d="M 57.6 307.584 
L 57.6 41.472 
" style="fill:none;stroke:#000000;stroke-linecap:square;stroke-linejoin:miter;stroke-width:0.8;"/>
   </g>
   <g id="patch_4">
    <path d="M 414.72 307.584 
L 414.72 41.472 
" style="fill:none;stroke:#000000;stroke-linecap:square;stroke-linejoin:miter;stroke-width:0.8;"/>
   </g>
   <g id="patch_5">
    <path d="M 57.6 307.584 
L 414.72 307.584 
" style="fill:none;stroke:#000000;stroke-linecap:square;stroke-linejoin:miter;stroke-width:0.8;"/>
   </g>
   <g id="patch_6">
    <path d="M 57.6 41.472 
L 414.72 41.472 
" style="fill:none;stroke:#000000;stroke-linecap:square;stroke-linejoin:miter;stroke-width:0.8;"/>
   </g>
  </g>
 </g>
 <defs>
  <clipPath id="pf428e1f28f">
   <rect height="266.112" width="357.12" x="57.6" y="41.472"/>
  </clipPath>
 </defs>
</svg>
