<?xml version="1.0" encoding="utf-8" standalone="no"?>
<!DOCTYPE svg PUBLIC "-//W3C//DTD SVG 1.1//EN"
  "http://www.w3.org/Graphics/SVG/1.1/DTD/svg11.dtd">
<!-- Created with matplotlib (https://matplotlib.org/) -->
<svg height="345.6pt" version="1.1" viewBox="0 0 460.8 345.6" width="460.8pt" xmlns="http://www.w3.org/2000/svg" xmlns:xlink="http://www.w3.org/1999/xlink">
 <metadata>
  <rdf:RDF xmlns:cc="http://creativecommons.org/ns#" xmlns:dc="http://purl.org/dc/elements/1.1/" xmlns:rdf="http://www.w3.org/1999/02/22-rdf-syntax-ns#">
   <cc:Work>
    <dc:type rdf:resource="http://purl.org/dc/dcmitype/StillImage"/>
    <dc:date>2021-07-12T19:59:55.845436</dc:date>
    <dc:format>image/svg+xml</dc:format>
    <dc:creator>
     <cc:Agent>
      <dc:title>Matplotlib v3.3.3, https://matplotlib.org/</dc:title>
     </cc:Agent>
    </dc:creator>
   </cc:Work>
  </rdf:RDF>
 </metadata>
 <defs>
  <style type="text/css">*{stroke-linecap:butt;stroke-linejoin:round;}</style>
 </defs>
 <g id="figure_1">
  <g id="patch_1">
   <path d="M 0 345.6 
L 460.8 345.6 
L 460.8 0 
L 0 0 
z
" style="fill:#ffffff;"/>
  </g>
  <g id="axes_1">
   <g id="patch_2">
    <path d="M 57.6 307.584 
L 414.72 307.584 
L 414.72 41.472 
L 57.6 41.472 
z
" style="fill:#7d9051;"/>
   </g>
   <g id="matplotlib.axis_1">
    <g id="xtick_1">
     <g id="line2d_1">
      <defs>
       <path d="M 0 0 
L 0 3.5 
" id="m2c9652faca" style="stroke:#000000;stroke-width:0.8;"/>
      </defs>
      <g>
       <use style="stroke:#000000;stroke-width:0.8;" x="114.977357" xlink:href="#m2c9652faca" y="307.584"/>
      </g>
     </g>
     <g id="text_1">
      <!-- 20 -->
      <g transform="translate(108.614857 322.182437)scale(0.1 -0.1)">
       <defs>
        <path d="M 19.1875 8.296875 
L 53.609375 8.296875 
L 53.609375 0 
L 7.328125 0 
L 7.328125 8.296875 
Q 12.9375 14.109375 22.625 23.890625 
Q 32.328125 33.6875 34.8125 36.53125 
Q 39.546875 41.84375 41.421875 45.53125 
Q 43.3125 49.21875 43.3125 52.78125 
Q 43.3125 58.59375 39.234375 62.25 
Q 35.15625 65.921875 28.609375 65.921875 
Q 23.96875 65.921875 18.8125 64.3125 
Q 13.671875 62.703125 7.8125 59.421875 
L 7.8125 69.390625 
Q 13.765625 71.78125 18.9375 73 
Q 24.125 74.21875 28.421875 74.21875 
Q 39.75 74.21875 46.484375 68.546875 
Q 53.21875 62.890625 53.21875 53.421875 
Q 53.21875 48.921875 51.53125 44.890625 
Q 49.859375 40.875 45.40625 35.40625 
Q 44.1875 33.984375 37.640625 27.21875 
Q 31.109375 20.453125 19.1875 8.296875 
z
" id="DejaVuSans-50"/>
        <path d="M 31.78125 66.40625 
Q 24.171875 66.40625 20.328125 58.90625 
Q 16.5 51.421875 16.5 36.375 
Q 16.5 21.390625 20.328125 13.890625 
Q 24.171875 6.390625 31.78125 6.390625 
Q 39.453125 6.390625 43.28125 13.890625 
Q 47.125 21.390625 47.125 36.375 
Q 47.125 51.421875 43.28125 58.90625 
Q 39.453125 66.40625 31.78125 66.40625 
z
M 31.78125 74.21875 
Q 44.046875 74.21875 50.515625 64.515625 
Q 56.984375 54.828125 56.984375 36.375 
Q 56.984375 17.96875 50.515625 8.265625 
Q 44.046875 -1.421875 31.78125 -1.421875 
Q 19.53125 -1.421875 13.0625 8.265625 
Q 6.59375 17.96875 6.59375 36.375 
Q 6.59375 54.828125 13.0625 64.515625 
Q 19.53125 74.21875 31.78125 74.21875 
z
" id="DejaVuSans-48"/>
       </defs>
       <use xlink:href="#DejaVuSans-50"/>
       <use x="63.623047" xlink:href="#DejaVuSans-48"/>
      </g>
     </g>
    </g>
    <g id="xtick_2">
     <g id="line2d_2">
      <g>
       <use style="stroke:#000000;stroke-width:0.8;" x="175.769181" xlink:href="#m2c9652faca" y="307.584"/>
      </g>
     </g>
     <g id="text_2">
      <!-- 40 -->
      <g transform="translate(169.406681 322.182437)scale(0.1 -0.1)">
       <defs>
        <path d="M 37.796875 64.3125 
L 12.890625 25.390625 
L 37.796875 25.390625 
z
M 35.203125 72.90625 
L 47.609375 72.90625 
L 47.609375 25.390625 
L 58.015625 25.390625 
L 58.015625 17.1875 
L 47.609375 17.1875 
L 47.609375 0 
L 37.796875 0 
L 37.796875 17.1875 
L 4.890625 17.1875 
L 4.890625 26.703125 
z
" id="DejaVuSans-52"/>
       </defs>
       <use xlink:href="#DejaVuSans-52"/>
       <use x="63.623047" xlink:href="#DejaVuSans-48"/>
      </g>
     </g>
    </g>
    <g id="xtick_3">
     <g id="line2d_3">
      <g>
       <use style="stroke:#000000;stroke-width:0.8;" x="236.561006" xlink:href="#m2c9652faca" y="307.584"/>
      </g>
     </g>
     <g id="text_3">
      <!-- 60 -->
      <g transform="translate(230.198506 322.182437)scale(0.1 -0.1)">
       <defs>
        <path d="M 33.015625 40.375 
Q 26.375 40.375 22.484375 35.828125 
Q 18.609375 31.296875 18.609375 23.390625 
Q 18.609375 15.53125 22.484375 10.953125 
Q 26.375 6.390625 33.015625 6.390625 
Q 39.65625 6.390625 43.53125 10.953125 
Q 47.40625 15.53125 47.40625 23.390625 
Q 47.40625 31.296875 43.53125 35.828125 
Q 39.65625 40.375 33.015625 40.375 
z
M 52.59375 71.296875 
L 52.59375 62.3125 
Q 48.875 64.0625 45.09375 64.984375 
Q 41.3125 65.921875 37.59375 65.921875 
Q 27.828125 65.921875 22.671875 59.328125 
Q 17.53125 52.734375 16.796875 39.40625 
Q 19.671875 43.65625 24.015625 45.921875 
Q 28.375 48.1875 33.59375 48.1875 
Q 44.578125 48.1875 50.953125 41.515625 
Q 57.328125 34.859375 57.328125 23.390625 
Q 57.328125 12.15625 50.6875 5.359375 
Q 44.046875 -1.421875 33.015625 -1.421875 
Q 20.359375 -1.421875 13.671875 8.265625 
Q 6.984375 17.96875 6.984375 36.375 
Q 6.984375 53.65625 15.1875 63.9375 
Q 23.390625 74.21875 37.203125 74.21875 
Q 40.921875 74.21875 44.703125 73.484375 
Q 48.484375 72.75 52.59375 71.296875 
z
" id="DejaVuSans-54"/>
       </defs>
       <use xlink:href="#DejaVuSans-54"/>
       <use x="63.623047" xlink:href="#DejaVuSans-48"/>
      </g>
     </g>
    </g>
    <g id="xtick_4">
     <g id="line2d_4">
      <g>
       <use style="stroke:#000000;stroke-width:0.8;" x="297.35283" xlink:href="#m2c9652faca" y="307.584"/>
      </g>
     </g>
     <g id="text_4">
      <!-- 80 -->
      <g transform="translate(290.99033 322.182437)scale(0.1 -0.1)">
       <defs>
        <path d="M 31.78125 34.625 
Q 24.75 34.625 20.71875 30.859375 
Q 16.703125 27.09375 16.703125 20.515625 
Q 16.703125 13.921875 20.71875 10.15625 
Q 24.75 6.390625 31.78125 6.390625 
Q 38.8125 6.390625 42.859375 10.171875 
Q 46.921875 13.96875 46.921875 20.515625 
Q 46.921875 27.09375 42.890625 30.859375 
Q 38.875 34.625 31.78125 34.625 
z
M 21.921875 38.8125 
Q 15.578125 40.375 12.03125 44.71875 
Q 8.5 49.078125 8.5 55.328125 
Q 8.5 64.0625 14.71875 69.140625 
Q 20.953125 74.21875 31.78125 74.21875 
Q 42.671875 74.21875 48.875 69.140625 
Q 55.078125 64.0625 55.078125 55.328125 
Q 55.078125 49.078125 51.53125 44.71875 
Q 48 40.375 41.703125 38.8125 
Q 48.828125 37.15625 52.796875 32.3125 
Q 56.78125 27.484375 56.78125 20.515625 
Q 56.78125 9.90625 50.3125 4.234375 
Q 43.84375 -1.421875 31.78125 -1.421875 
Q 19.734375 -1.421875 13.25 4.234375 
Q 6.78125 9.90625 6.78125 20.515625 
Q 6.78125 27.484375 10.78125 32.3125 
Q 14.796875 37.15625 21.921875 38.8125 
z
M 18.3125 54.390625 
Q 18.3125 48.734375 21.84375 45.5625 
Q 25.390625 42.390625 31.78125 42.390625 
Q 38.140625 42.390625 41.71875 45.5625 
Q 45.3125 48.734375 45.3125 54.390625 
Q 45.3125 60.0625 41.71875 63.234375 
Q 38.140625 66.40625 31.78125 66.40625 
Q 25.390625 66.40625 21.84375 63.234375 
Q 18.3125 60.0625 18.3125 54.390625 
z
" id="DejaVuSans-56"/>
       </defs>
       <use xlink:href="#DejaVuSans-56"/>
       <use x="63.623047" xlink:href="#DejaVuSans-48"/>
      </g>
     </g>
    </g>
    <g id="xtick_5">
     <g id="line2d_5">
      <g>
       <use style="stroke:#000000;stroke-width:0.8;" x="358.144654" xlink:href="#m2c9652faca" y="307.584"/>
      </g>
     </g>
     <g id="text_5">
      <!-- 100 -->
      <g transform="translate(348.600904 322.182437)scale(0.1 -0.1)">
       <defs>
        <path d="M 12.40625 8.296875 
L 28.515625 8.296875 
L 28.515625 63.921875 
L 10.984375 60.40625 
L 10.984375 69.390625 
L 28.421875 72.90625 
L 38.28125 72.90625 
L 38.28125 8.296875 
L 54.390625 8.296875 
L 54.390625 0 
L 12.40625 0 
z
" id="DejaVuSans-49"/>
       </defs>
       <use xlink:href="#DejaVuSans-49"/>
       <use x="63.623047" xlink:href="#DejaVuSans-48"/>
       <use x="127.246094" xlink:href="#DejaVuSans-48"/>
      </g>
     </g>
    </g>
   </g>
   <g id="matplotlib.axis_2">
    <g id="ytick_1">
     <g id="line2d_6">
      <defs>
       <path d="M 0 0 
L -3.5 0 
" id="mad681ea28d" style="stroke:#000000;stroke-width:0.8;"/>
      </defs>
      <g>
       <use style="stroke:#000000;stroke-width:0.8;" x="57.6" xlink:href="#mad681ea28d" y="304.769382"/>
      </g>
     </g>
     <g id="text_6">
      <!-- 50 -->
      <g transform="translate(37.875 308.568601)scale(0.1 -0.1)">
       <defs>
        <path d="M 10.796875 72.90625 
L 49.515625 72.90625 
L 49.515625 64.59375 
L 19.828125 64.59375 
L 19.828125 46.734375 
Q 21.96875 47.46875 24.109375 47.828125 
Q 26.265625 48.1875 28.421875 48.1875 
Q 40.625 48.1875 47.75 41.5 
Q 54.890625 34.8125 54.890625 23.390625 
Q 54.890625 11.625 47.5625 5.09375 
Q 40.234375 -1.421875 26.90625 -1.421875 
Q 22.3125 -1.421875 17.546875 -0.640625 
Q 12.796875 0.140625 7.71875 1.703125 
L 7.71875 11.625 
Q 12.109375 9.234375 16.796875 8.0625 
Q 21.484375 6.890625 26.703125 6.890625 
Q 35.15625 6.890625 40.078125 11.328125 
Q 45.015625 15.765625 45.015625 23.390625 
Q 45.015625 31 40.078125 35.4375 
Q 35.15625 39.890625 26.703125 39.890625 
Q 22.75 39.890625 18.8125 39.015625 
Q 14.890625 38.140625 10.796875 36.28125 
z
" id="DejaVuSans-53"/>
       </defs>
       <use xlink:href="#DejaVuSans-53"/>
       <use x="63.623047" xlink:href="#DejaVuSans-48"/>
      </g>
     </g>
    </g>
    <g id="ytick_2">
     <g id="line2d_7">
      <g>
       <use style="stroke:#000000;stroke-width:0.8;" x="57.6" xlink:href="#mad681ea28d" y="274.37347"/>
      </g>
     </g>
     <g id="text_7">
      <!-- 60 -->
      <g transform="translate(37.875 278.172688)scale(0.1 -0.1)">
       <use xlink:href="#DejaVuSans-54"/>
       <use x="63.623047" xlink:href="#DejaVuSans-48"/>
      </g>
     </g>
    </g>
    <g id="ytick_3">
     <g id="line2d_8">
      <g>
       <use style="stroke:#000000;stroke-width:0.8;" x="57.6" xlink:href="#mad681ea28d" y="243.977558"/>
      </g>
     </g>
     <g id="text_8">
      <!-- 70 -->
      <g transform="translate(37.875 247.776776)scale(0.1 -0.1)">
       <defs>
        <path d="M 8.203125 72.90625 
L 55.078125 72.90625 
L 55.078125 68.703125 
L 28.609375 0 
L 18.3125 0 
L 43.21875 64.59375 
L 8.203125 64.59375 
z
" id="DejaVuSans-55"/>
       </defs>
       <use xlink:href="#DejaVuSans-55"/>
       <use x="63.623047" xlink:href="#DejaVuSans-48"/>
      </g>
     </g>
    </g>
    <g id="ytick_4">
     <g id="line2d_9">
      <g>
       <use style="stroke:#000000;stroke-width:0.8;" x="57.6" xlink:href="#mad681ea28d" y="213.581645"/>
      </g>
     </g>
     <g id="text_9">
      <!-- 80 -->
      <g transform="translate(37.875 217.380864)scale(0.1 -0.1)">
       <use xlink:href="#DejaVuSans-56"/>
       <use x="63.623047" xlink:href="#DejaVuSans-48"/>
      </g>
     </g>
    </g>
    <g id="ytick_5">
     <g id="line2d_10">
      <g>
       <use style="stroke:#000000;stroke-width:0.8;" x="57.6" xlink:href="#mad681ea28d" y="183.185733"/>
      </g>
     </g>
     <g id="text_10">
      <!-- 90 -->
      <g transform="translate(37.875 186.984952)scale(0.1 -0.1)">
       <defs>
        <path d="M 10.984375 1.515625 
L 10.984375 10.5 
Q 14.703125 8.734375 18.5 7.8125 
Q 22.3125 6.890625 25.984375 6.890625 
Q 35.75 6.890625 40.890625 13.453125 
Q 46.046875 20.015625 46.78125 33.40625 
Q 43.953125 29.203125 39.59375 26.953125 
Q 35.25 24.703125 29.984375 24.703125 
Q 19.046875 24.703125 12.671875 31.3125 
Q 6.296875 37.9375 6.296875 49.421875 
Q 6.296875 60.640625 12.9375 67.421875 
Q 19.578125 74.21875 30.609375 74.21875 
Q 43.265625 74.21875 49.921875 64.515625 
Q 56.59375 54.828125 56.59375 36.375 
Q 56.59375 19.140625 48.40625 8.859375 
Q 40.234375 -1.421875 26.421875 -1.421875 
Q 22.703125 -1.421875 18.890625 -0.6875 
Q 15.09375 0.046875 10.984375 1.515625 
z
M 30.609375 32.421875 
Q 37.25 32.421875 41.125 36.953125 
Q 45.015625 41.5 45.015625 49.421875 
Q 45.015625 57.28125 41.125 61.84375 
Q 37.25 66.40625 30.609375 66.40625 
Q 23.96875 66.40625 20.09375 61.84375 
Q 16.21875 57.28125 16.21875 49.421875 
Q 16.21875 41.5 20.09375 36.953125 
Q 23.96875 32.421875 30.609375 32.421875 
z
" id="DejaVuSans-57"/>
       </defs>
       <use xlink:href="#DejaVuSans-57"/>
       <use x="63.623047" xlink:href="#DejaVuSans-48"/>
      </g>
     </g>
    </g>
    <g id="ytick_6">
     <g id="line2d_11">
      <g>
       <use style="stroke:#000000;stroke-width:0.8;" x="57.6" xlink:href="#mad681ea28d" y="152.789821"/>
      </g>
     </g>
     <g id="text_11">
      <!-- 100 -->
      <g transform="translate(31.5125 156.58904)scale(0.1 -0.1)">
       <use xlink:href="#DejaVuSans-49"/>
       <use x="63.623047" xlink:href="#DejaVuSans-48"/>
       <use x="127.246094" xlink:href="#DejaVuSans-48"/>
      </g>
     </g>
    </g>
    <g id="ytick_7">
     <g id="line2d_12">
      <g>
       <use style="stroke:#000000;stroke-width:0.8;" x="57.6" xlink:href="#mad681ea28d" y="122.393909"/>
      </g>
     </g>
     <g id="text_12">
      <!-- 110 -->
      <g transform="translate(31.5125 126.193128)scale(0.1 -0.1)">
       <use xlink:href="#DejaVuSans-49"/>
       <use x="63.623047" xlink:href="#DejaVuSans-49"/>
       <use x="127.246094" xlink:href="#DejaVuSans-48"/>
      </g>
     </g>
    </g>
    <g id="ytick_8">
     <g id="line2d_13">
      <g>
       <use style="stroke:#000000;stroke-width:0.8;" x="57.6" xlink:href="#mad681ea28d" y="91.997997"/>
      </g>
     </g>
     <g id="text_13">
      <!-- 120 -->
      <g transform="translate(31.5125 95.797216)scale(0.1 -0.1)">
       <use xlink:href="#DejaVuSans-49"/>
       <use x="63.623047" xlink:href="#DejaVuSans-50"/>
       <use x="127.246094" xlink:href="#DejaVuSans-48"/>
      </g>
     </g>
    </g>
    <g id="ytick_9">
     <g id="line2d_14">
      <g>
       <use style="stroke:#000000;stroke-width:0.8;" x="57.6" xlink:href="#mad681ea28d" y="61.602085"/>
      </g>
     </g>
     <g id="text_14">
      <!-- 130 -->
      <g transform="translate(31.5125 65.401304)scale(0.1 -0.1)">
       <defs>
        <path d="M 40.578125 39.3125 
Q 47.65625 37.796875 51.625 33 
Q 55.609375 28.21875 55.609375 21.1875 
Q 55.609375 10.40625 48.1875 4.484375 
Q 40.765625 -1.421875 27.09375 -1.421875 
Q 22.515625 -1.421875 17.65625 -0.515625 
Q 12.796875 0.390625 7.625 2.203125 
L 7.625 11.71875 
Q 11.71875 9.328125 16.59375 8.109375 
Q 21.484375 6.890625 26.8125 6.890625 
Q 36.078125 6.890625 40.9375 10.546875 
Q 45.796875 14.203125 45.796875 21.1875 
Q 45.796875 27.640625 41.28125 31.265625 
Q 36.765625 34.90625 28.71875 34.90625 
L 20.21875 34.90625 
L 20.21875 43.015625 
L 29.109375 43.015625 
Q 36.375 43.015625 40.234375 45.921875 
Q 44.09375 48.828125 44.09375 54.296875 
Q 44.09375 59.90625 40.109375 62.90625 
Q 36.140625 65.921875 28.71875 65.921875 
Q 24.65625 65.921875 20.015625 65.03125 
Q 15.375 64.15625 9.8125 62.3125 
L 9.8125 71.09375 
Q 15.4375 72.65625 20.34375 73.4375 
Q 25.25 74.21875 29.59375 74.21875 
Q 40.828125 74.21875 47.359375 69.109375 
Q 53.90625 64.015625 53.90625 55.328125 
Q 53.90625 49.265625 50.4375 45.09375 
Q 46.96875 40.921875 40.578125 39.3125 
z
" id="DejaVuSans-51"/>
       </defs>
       <use xlink:href="#DejaVuSans-49"/>
       <use x="63.623047" xlink:href="#DejaVuSans-51"/>
       <use x="127.246094" xlink:href="#DejaVuSans-48"/>
      </g>
     </g>
    </g>
   </g>
   <g id="line2d_15">
    <path clip-path="url(#p8800ec18b4)" d="M 260.877735 61.602085 
L 257.455156 65.489722 
L 254.111605 69.340884 
L 250.847084 73.16165 
L 247.661593 76.948981 
L 244.555131 80.702876 
L 241.527698 84.420296 
L 238.579294 88.10732 
L 235.70992 91.760909 
L 232.919575 95.381062 
L 230.2113 98.96778 
L 227.579014 102.521062 
L 225.025757 106.040908 
L 222.55153 109.52732 
L 220.159371 112.980295 
L 217.843203 116.402875 
L 215.609103 119.788979 
L 213.450994 123.141649 
L 211.374953 126.463922 
L 209.374902 129.74972 
L 207.45692 133.002082 
L 205.617967 136.224049 
L 203.855004 139.409541 
L 202.17411 142.564636 
L 200.572246 145.683257 
L 199.046371 148.771482 
L 197.602565 151.826271 
L 196.237789 154.844585 
L 194.952042 157.832503 
L 193.745324 160.786986 
L 192.617636 163.708033 
L 191.568977 166.592605 
L 190.599347 169.446781 
L 189.708747 172.267522 
L 188.897176 175.054827 
L 188.167674 177.808697 
L 187.514162 180.529131 
L 186.939679 183.216129 
L 186.444226 185.869692 
L 186.030841 188.49286 
L 185.693447 191.079552 
L 185.435081 193.632808 
L 185.258785 196.152629 
L 185.158479 198.642055 
L 185.140241 201.095005 
L 185.197993 203.514519 
L 185.337815 205.903638 
L 185.556665 208.256282 
L 185.851505 210.578529 
L 186.228415 212.867342 
L 186.684353 215.119679 
L 187.219322 217.34162 
L 187.830279 219.530125 
L 188.523306 221.682156 
L 189.295362 223.803791 
L 190.146448 225.89199 
L 191.076563 227.946754 
L 192.085707 229.968082 
L 193.173881 231.955974 
L 194.341084 233.910431 
L 195.587316 235.831453 
L 196.915618 237.719039 
L 198.319909 239.57319 
L 199.803229 241.393905 
L 201.365579 243.181185 
L 203.009998 244.935029 
L 204.730407 246.658477 
L 206.529844 248.34545 
L 208.411351 249.998988 
L 210.368848 251.622129 
L 212.408414 253.208796 
L 214.523969 254.765067 
L 216.721594 256.284862 
L 218.998248 257.774262 
L 221.350891 259.227187 
L 223.785604 260.649715 
L 226.299346 262.035769 
L 228.889077 263.391427 
L 231.560878 264.713649 
L 234.311708 266.002435 
L 237.141568 267.257787 
L 240.050456 268.476663 
L 243.038375 269.665143 
L 246.105322 270.820188 
L 249.251299 271.941797 
L 252.476305 273.02997 
L 255.780341 274.084709 
L 259.163406 275.109051 
L 262.62854 276.096918 
L 266.169664 277.05135 
L 269.789817 277.972346 
L 273.488999 278.859906 
L 277.270251 279.717071 
L 281.127492 280.537761 
L 285.063763 281.328054 
L 289.082102 282.081873 
L 293.176432 282.802256 
L 297.35283 283.492243 
" style="fill:none;stroke:#fea952;stroke-linecap:square;"/>
   </g>
   <g id="line2d_16">
    <path clip-path="url(#p8800ec18b4)" d="M 270.003485 69.63617 
L 266.636162 73.460604 
L 263.355371 77.238899 
L 260.1518 80.987767 
L 257.028585 84.700451 
L 253.982677 88.380584 
L 251.023313 92.013657 
L 248.141295 95.616912 
L 245.339713 99.183369 
L 242.622534 102.707618 
L 239.980945 106.205173 
L 237.420735 109.660134 
L 234.94099 113.077526 
L 232.545825 116.451184 
L 230.228723 119.794545 
L 227.991694 123.098692 
L 225.832541 126.369796 
L 223.761796 129.584721 
L 221.760611 132.785626 
L 219.847813 135.925801 
L 218.016401 139.028956 
L 216.255852 142.111428 
L 214.585548 145.126295 
L 212.989212 148.119762 
L 211.472645 151.069084 
L 210.038796 153.966906 
L 208.681045 156.835574 
L 207.406025 159.650449 
L 206.20776 162.429746 
L 205.087796 165.165817 
L 204.044338 167.862103 
L 203.081156 170.503558 
L 202.193542 173.107448 
L 201.382344 175.666486 
L 200.650164 178.168201 
L 199.989714 180.648628 
L 199.40382 183.07115 
L 198.891499 185.447683 
L 198.454372 187.762369 
L 198.087081 190.065413 
L 197.790038 192.303612 
L 197.563798 194.48138 
L 197.407292 196.64213 
L 197.316508 198.732449 
L 197.295144 200.804875 
L 197.33559 202.804177 
L 197.443913 204.777489 
L 197.618204 206.724908 
L 197.848296 208.602962 
L 198.145073 210.455063 
L 198.504935 212.273684 
L 198.92992 214.072411 
L 199.403347 215.803205 
L 199.948701 217.524491 
L 200.554495 219.214916 
L 201.222858 220.878112 
L 201.954605 222.515912 
L 202.750745 224.130034 
L 203.612462 225.722047 
L 204.541083 227.293343 
L 205.530505 228.834394 
L 206.607882 230.378341 
L 207.746069 231.89378 
L 208.957188 233.391975 
L 210.235079 234.865068 
L 211.614845 236.345358 
L 213.046012 237.788498 
L 214.556011 239.212735 
L 216.172052 240.639641 
L 217.834352 242.025667 
L 219.613062 243.414978 
L 221.439597 244.76507 
L 223.377813 246.110356 
L 225.386813 247.429598 
L 227.484471 248.729328 
L 229.656311 250.002621 
L 231.938077 251.264022 
L 234.281788 252.494431 
L 236.719118 253.703726 
L 239.241933 254.888538 
L 241.840317 256.044063 
L 244.544155 257.179207 
L 247.323523 258.286947 
L 250.188314 259.367894 
L 253.138431 260.421552 
L 256.17376 261.447455 
L 259.303745 262.448066 
L 262.496792 263.416559 
L 265.792644 264.357485 
L 269.16736 265.268326 
L 272.626515 266.14953 
L 276.176957 267.002389 
L 279.800499 267.824902 
L 283.520794 268.617277 
L 287.305501 269.37814 
L 291.188962 270.107443 
L 295.158263 270.806499 
L 299.334662 271.496487 
" style="fill:none;stroke:#ffffff;stroke-linecap:square;"/>
   </g>
   <g id="line2d_17">
    <path clip-path="url(#p8800ec18b4)" d="M 251.751985 53.568 
L 248.274149 57.51884 
L 244.86784 61.44287 
L 241.542369 65.335533 
L 238.294601 69.197511 
L 235.127584 73.025168 
L 232.032083 76.826935 
L 229.017293 80.597729 
L 226.080127 84.338449 
L 223.216617 88.054506 
L 220.441654 91.730386 
L 217.737292 95.381989 
L 215.110524 99.004291 
L 212.557235 102.603455 
L 210.09002 106.166045 
L 207.694712 109.707057 
L 205.385665 113.208163 
L 203.140191 116.698576 
L 200.989295 120.142217 
L 198.901991 123.573639 
L 196.897439 126.975209 
L 194.980082 130.33667 
L 193.124461 133.692787 
L 191.359009 137.009511 
L 189.671847 140.29743 
L 188.053946 143.576057 
L 186.524085 146.816968 
L 185.069552 150.038721 
L 183.696323 153.23526 
L 182.402852 156.408154 
L 181.190933 159.553963 
L 180.056797 162.681651 
L 179.005152 165.786114 
L 178.035149 168.868557 
L 177.144188 171.941452 
L 176.345634 174.968765 
L 175.624504 177.987111 
L 174.987859 180.984575 
L 174.43408 183.977016 
L 173.974602 186.920307 
L 173.596856 189.855492 
L 173.306365 192.784237 
L 173.110278 195.663129 
L 173.00045 198.55166 
L 172.985338 201.385134 
L 173.060397 204.224862 
L 173.231716 207.029787 
L 173.495126 209.787655 
L 173.854715 212.554096 
L 174.311756 215.279621 
L 174.863772 217.965674 
L 175.508723 220.610828 
L 176.257211 223.257046 
L 177.097911 225.839821 
L 178.03623 228.392666 
L 179.070038 230.905868 
L 180.198521 233.377595 
L 181.420669 235.80613 
L 182.735299 238.189902 
L 184.141085 240.52752 
L 185.644127 242.828512 
L 187.223353 245.059738 
L 188.893748 247.2526 
L 190.649271 249.395835 
L 192.496079 251.497302 
L 194.405151 253.5247 
L 196.414801 255.528457 
L 198.503678 257.478165 
L 200.650651 259.358334 
L 202.903344 261.218592 
L 205.203766 263.002615 
L 207.608342 264.765064 
L 210.065375 266.459369 
L 212.609683 268.118926 
L 215.217311 269.725045 
L 217.914896 271.29681 
L 220.660614 272.807516 
L 223.496367 274.288422 
L 226.402638 275.723571 
L 229.381483 277.116333 
L 232.442818 278.47151 
L 235.556758 279.774119 
L 238.753226 281.043339 
L 242.022331 282.272481 
L 245.364166 283.462041 
L 248.778851 284.612486 
L 252.256937 285.721351 
L 255.83002 286.801543 
L 259.464435 287.83635 
L 263.171967 288.834373 
L 266.953118 289.795162 
L 270.801041 290.717424 
L 274.740002 291.60924 
L 278.73419 292.458245 
L 282.822024 293.277968 
L 286.975243 294.056303 
L 291.1946 294.798013 
L 295.370998 295.488 
" style="fill:none;stroke:#ffffff;stroke-linecap:square;"/>
   </g>
   <g id="patch_3">
    <path d="M 57.6 307.584 
L 57.6 41.472 
" style="fill:none;stroke:#000000;stroke-linecap:square;stroke-linejoin:miter;stroke-width:0.8;"/>
   </g>
   <g id="patch_4">
    <path d="M 414.72 307.584 
L 414.72 41.472 
" style="fill:none;stroke:#000000;stroke-linecap:square;stroke-linejoin:miter;stroke-width:0.8;"/>
   </g>
   <g id="patch_5">
    <path d="M 57.6 307.584 
L 414.72 307.584 
" style="fill:none;stroke:#000000;stroke-linecap:square;stroke-linejoin:miter;stroke-width:0.8;"/>
   </g>
   <g id="patch_6">
    <path d="M 57.6 41.472 
L 414.72 41.472 
" style="fill:none;stroke:#000000;stroke-linecap:square;stroke-linejoin:miter;stroke-width:0.8;"/>
   </g>
  </g>
 </g>
 <defs>
  <clipPath id="p8800ec18b4">
   <rect height="266.112" width="357.12" x="57.6" y="41.472"/>
  </clipPath>
 </defs>
</svg>
