<?xml version="1.0" encoding="utf-8" standalone="no"?>
<!DOCTYPE svg PUBLIC "-//W3C//DTD SVG 1.1//EN"
  "http://www.w3.org/Graphics/SVG/1.1/DTD/svg11.dtd">
<!-- Created with matplotlib (https://matplotlib.org/) -->
<svg height="345.6pt" version="1.1" viewBox="0 0 460.8 345.6" width="460.8pt" xmlns="http://www.w3.org/2000/svg" xmlns:xlink="http://www.w3.org/1999/xlink">
 <metadata>
  <rdf:RDF xmlns:cc="http://creativecommons.org/ns#" xmlns:dc="http://purl.org/dc/elements/1.1/" xmlns:rdf="http://www.w3.org/1999/02/22-rdf-syntax-ns#">
   <cc:Work>
    <dc:type rdf:resource="http://purl.org/dc/dcmitype/StillImage"/>
    <dc:date>2021-07-06T17:55:17.217324</dc:date>
    <dc:format>image/svg+xml</dc:format>
    <dc:creator>
     <cc:Agent>
      <dc:title>Matplotlib v3.3.3, https://matplotlib.org/</dc:title>
     </cc:Agent>
    </dc:creator>
   </cc:Work>
  </rdf:RDF>
 </metadata>
 <defs>
  <style type="text/css">*{stroke-linecap:butt;stroke-linejoin:round;}</style>
 </defs>
 <g id="figure_1">
  <g id="patch_1">
   <path d="M 0 345.6 
L 460.8 345.6 
L 460.8 0 
L 0 0 
z
" style="fill:#ffffff;"/>
  </g>
  <g id="axes_1">
   <g id="patch_2">
    <path d="M 57.6 307.584 
L 414.72 307.584 
L 414.72 41.472 
L 57.6 41.472 
z
" style="fill:#7d9051;"/>
   </g>
   <g id="matplotlib.axis_1">
    <g id="xtick_1">
     <g id="line2d_1">
      <defs>
       <path d="M 0 0 
L 0 3.5 
" id="m673d425160" style="stroke:#000000;stroke-width:0.8;"/>
      </defs>
      <g>
       <use style="stroke:#000000;stroke-width:0.8;" x="95.079925" xlink:href="#m673d425160" y="307.584"/>
      </g>
     </g>
     <g id="text_1">
      <!-- 20 -->
      <g transform="translate(88.717425 322.182437)scale(0.1 -0.1)">
       <defs>
        <path d="M 19.1875 8.296875 
L 53.609375 8.296875 
L 53.609375 0 
L 7.328125 0 
L 7.328125 8.296875 
Q 12.9375 14.109375 22.625 23.890625 
Q 32.328125 33.6875 34.8125 36.53125 
Q 39.546875 41.84375 41.421875 45.53125 
Q 43.3125 49.21875 43.3125 52.78125 
Q 43.3125 58.59375 39.234375 62.25 
Q 35.15625 65.921875 28.609375 65.921875 
Q 23.96875 65.921875 18.8125 64.3125 
Q 13.671875 62.703125 7.8125 59.421875 
L 7.8125 69.390625 
Q 13.765625 71.78125 18.9375 73 
Q 24.125 74.21875 28.421875 74.21875 
Q 39.75 74.21875 46.484375 68.546875 
Q 53.21875 62.890625 53.21875 53.421875 
Q 53.21875 48.921875 51.53125 44.890625 
Q 49.859375 40.875 45.40625 35.40625 
Q 44.1875 33.984375 37.640625 27.21875 
Q 31.109375 20.453125 19.1875 8.296875 
z
" id="DejaVuSans-50"/>
        <path d="M 31.78125 66.40625 
Q 24.171875 66.40625 20.328125 58.90625 
Q 16.5 51.421875 16.5 36.375 
Q 16.5 21.390625 20.328125 13.890625 
Q 24.171875 6.390625 31.78125 6.390625 
Q 39.453125 6.390625 43.28125 13.890625 
Q 47.125 21.390625 47.125 36.375 
Q 47.125 51.421875 43.28125 58.90625 
Q 39.453125 66.40625 31.78125 66.40625 
z
M 31.78125 74.21875 
Q 44.046875 74.21875 50.515625 64.515625 
Q 56.984375 54.828125 56.984375 36.375 
Q 56.984375 17.96875 50.515625 8.265625 
Q 44.046875 -1.421875 31.78125 -1.421875 
Q 19.53125 -1.421875 13.0625 8.265625 
Q 6.59375 17.96875 6.59375 36.375 
Q 6.59375 54.828125 13.0625 64.515625 
Q 19.53125 74.21875 31.78125 74.21875 
z
" id="DejaVuSans-48"/>
       </defs>
       <use xlink:href="#DejaVuSans-50"/>
       <use x="63.623047" xlink:href="#DejaVuSans-48"/>
      </g>
     </g>
    </g>
    <g id="xtick_2">
     <g id="line2d_2">
      <g>
       <use style="stroke:#000000;stroke-width:0.8;" x="152.44428" xlink:href="#m673d425160" y="307.584"/>
      </g>
     </g>
     <g id="text_2">
      <!-- 40 -->
      <g transform="translate(146.08178 322.182437)scale(0.1 -0.1)">
       <defs>
        <path d="M 37.796875 64.3125 
L 12.890625 25.390625 
L 37.796875 25.390625 
z
M 35.203125 72.90625 
L 47.609375 72.90625 
L 47.609375 25.390625 
L 58.015625 25.390625 
L 58.015625 17.1875 
L 47.609375 17.1875 
L 47.609375 0 
L 37.796875 0 
L 37.796875 17.1875 
L 4.890625 17.1875 
L 4.890625 26.703125 
z
" id="DejaVuSans-52"/>
       </defs>
       <use xlink:href="#DejaVuSans-52"/>
       <use x="63.623047" xlink:href="#DejaVuSans-48"/>
      </g>
     </g>
    </g>
    <g id="xtick_3">
     <g id="line2d_3">
      <g>
       <use style="stroke:#000000;stroke-width:0.8;" x="209.808635" xlink:href="#m673d425160" y="307.584"/>
      </g>
     </g>
     <g id="text_3">
      <!-- 60 -->
      <g transform="translate(203.446135 322.182437)scale(0.1 -0.1)">
       <defs>
        <path d="M 33.015625 40.375 
Q 26.375 40.375 22.484375 35.828125 
Q 18.609375 31.296875 18.609375 23.390625 
Q 18.609375 15.53125 22.484375 10.953125 
Q 26.375 6.390625 33.015625 6.390625 
Q 39.65625 6.390625 43.53125 10.953125 
Q 47.40625 15.53125 47.40625 23.390625 
Q 47.40625 31.296875 43.53125 35.828125 
Q 39.65625 40.375 33.015625 40.375 
z
M 52.59375 71.296875 
L 52.59375 62.3125 
Q 48.875 64.0625 45.09375 64.984375 
Q 41.3125 65.921875 37.59375 65.921875 
Q 27.828125 65.921875 22.671875 59.328125 
Q 17.53125 52.734375 16.796875 39.40625 
Q 19.671875 43.65625 24.015625 45.921875 
Q 28.375 48.1875 33.59375 48.1875 
Q 44.578125 48.1875 50.953125 41.515625 
Q 57.328125 34.859375 57.328125 23.390625 
Q 57.328125 12.15625 50.6875 5.359375 
Q 44.046875 -1.421875 33.015625 -1.421875 
Q 20.359375 -1.421875 13.671875 8.265625 
Q 6.984375 17.96875 6.984375 36.375 
Q 6.984375 53.65625 15.1875 63.9375 
Q 23.390625 74.21875 37.203125 74.21875 
Q 40.921875 74.21875 44.703125 73.484375 
Q 48.484375 72.75 52.59375 71.296875 
z
" id="DejaVuSans-54"/>
       </defs>
       <use xlink:href="#DejaVuSans-54"/>
       <use x="63.623047" xlink:href="#DejaVuSans-48"/>
      </g>
     </g>
    </g>
    <g id="xtick_4">
     <g id="line2d_4">
      <g>
       <use style="stroke:#000000;stroke-width:0.8;" x="267.17299" xlink:href="#m673d425160" y="307.584"/>
      </g>
     </g>
     <g id="text_4">
      <!-- 80 -->
      <g transform="translate(260.81049 322.182437)scale(0.1 -0.1)">
       <defs>
        <path d="M 31.78125 34.625 
Q 24.75 34.625 20.71875 30.859375 
Q 16.703125 27.09375 16.703125 20.515625 
Q 16.703125 13.921875 20.71875 10.15625 
Q 24.75 6.390625 31.78125 6.390625 
Q 38.8125 6.390625 42.859375 10.171875 
Q 46.921875 13.96875 46.921875 20.515625 
Q 46.921875 27.09375 42.890625 30.859375 
Q 38.875 34.625 31.78125 34.625 
z
M 21.921875 38.8125 
Q 15.578125 40.375 12.03125 44.71875 
Q 8.5 49.078125 8.5 55.328125 
Q 8.5 64.0625 14.71875 69.140625 
Q 20.953125 74.21875 31.78125 74.21875 
Q 42.671875 74.21875 48.875 69.140625 
Q 55.078125 64.0625 55.078125 55.328125 
Q 55.078125 49.078125 51.53125 44.71875 
Q 48 40.375 41.703125 38.8125 
Q 48.828125 37.15625 52.796875 32.3125 
Q 56.78125 27.484375 56.78125 20.515625 
Q 56.78125 9.90625 50.3125 4.234375 
Q 43.84375 -1.421875 31.78125 -1.421875 
Q 19.734375 -1.421875 13.25 4.234375 
Q 6.78125 9.90625 6.78125 20.515625 
Q 6.78125 27.484375 10.78125 32.3125 
Q 14.796875 37.15625 21.921875 38.8125 
z
M 18.3125 54.390625 
Q 18.3125 48.734375 21.84375 45.5625 
Q 25.390625 42.390625 31.78125 42.390625 
Q 38.140625 42.390625 41.71875 45.5625 
Q 45.3125 48.734375 45.3125 54.390625 
Q 45.3125 60.0625 41.71875 63.234375 
Q 38.140625 66.40625 31.78125 66.40625 
Q 25.390625 66.40625 21.84375 63.234375 
Q 18.3125 60.0625 18.3125 54.390625 
z
" id="DejaVuSans-56"/>
       </defs>
       <use xlink:href="#DejaVuSans-56"/>
       <use x="63.623047" xlink:href="#DejaVuSans-48"/>
      </g>
     </g>
    </g>
    <g id="xtick_5">
     <g id="line2d_5">
      <g>
       <use style="stroke:#000000;stroke-width:0.8;" x="324.537345" xlink:href="#m673d425160" y="307.584"/>
      </g>
     </g>
     <g id="text_5">
      <!-- 100 -->
      <g transform="translate(314.993595 322.182437)scale(0.1 -0.1)">
       <defs>
        <path d="M 12.40625 8.296875 
L 28.515625 8.296875 
L 28.515625 63.921875 
L 10.984375 60.40625 
L 10.984375 69.390625 
L 28.421875 72.90625 
L 38.28125 72.90625 
L 38.28125 8.296875 
L 54.390625 8.296875 
L 54.390625 0 
L 12.40625 0 
z
" id="DejaVuSans-49"/>
       </defs>
       <use xlink:href="#DejaVuSans-49"/>
       <use x="63.623047" xlink:href="#DejaVuSans-48"/>
       <use x="127.246094" xlink:href="#DejaVuSans-48"/>
      </g>
     </g>
    </g>
    <g id="xtick_6">
     <g id="line2d_6">
      <g>
       <use style="stroke:#000000;stroke-width:0.8;" x="381.901699" xlink:href="#m673d425160" y="307.584"/>
      </g>
     </g>
     <g id="text_6">
      <!-- 120 -->
      <g transform="translate(372.357949 322.182437)scale(0.1 -0.1)">
       <use xlink:href="#DejaVuSans-49"/>
       <use x="63.623047" xlink:href="#DejaVuSans-50"/>
       <use x="127.246094" xlink:href="#DejaVuSans-48"/>
      </g>
     </g>
    </g>
   </g>
   <g id="matplotlib.axis_2">
    <g id="ytick_1">
     <g id="line2d_7">
      <defs>
       <path d="M 0 0 
L -3.5 0 
" id="m3dd7a9c77c" style="stroke:#000000;stroke-width:0.8;"/>
      </defs>
      <g>
       <use style="stroke:#000000;stroke-width:0.8;" x="57.6" xlink:href="#m3dd7a9c77c" y="283.170255"/>
      </g>
     </g>
     <g id="text_7">
      <!-- 120 -->
      <g transform="translate(31.5125 286.969474)scale(0.1 -0.1)">
       <use xlink:href="#DejaVuSans-49"/>
       <use x="63.623047" xlink:href="#DejaVuSans-50"/>
       <use x="127.246094" xlink:href="#DejaVuSans-48"/>
      </g>
     </g>
    </g>
    <g id="ytick_2">
     <g id="line2d_8">
      <g>
       <use style="stroke:#000000;stroke-width:0.8;" x="57.6" xlink:href="#m3dd7a9c77c" y="225.805901"/>
      </g>
     </g>
     <g id="text_8">
      <!-- 140 -->
      <g transform="translate(31.5125 229.605119)scale(0.1 -0.1)">
       <use xlink:href="#DejaVuSans-49"/>
       <use x="63.623047" xlink:href="#DejaVuSans-52"/>
       <use x="127.246094" xlink:href="#DejaVuSans-48"/>
      </g>
     </g>
    </g>
    <g id="ytick_3">
     <g id="line2d_9">
      <g>
       <use style="stroke:#000000;stroke-width:0.8;" x="57.6" xlink:href="#m3dd7a9c77c" y="168.441546"/>
      </g>
     </g>
     <g id="text_9">
      <!-- 160 -->
      <g transform="translate(31.5125 172.240764)scale(0.1 -0.1)">
       <use xlink:href="#DejaVuSans-49"/>
       <use x="63.623047" xlink:href="#DejaVuSans-54"/>
       <use x="127.246094" xlink:href="#DejaVuSans-48"/>
      </g>
     </g>
    </g>
    <g id="ytick_4">
     <g id="line2d_10">
      <g>
       <use style="stroke:#000000;stroke-width:0.8;" x="57.6" xlink:href="#m3dd7a9c77c" y="111.077191"/>
      </g>
     </g>
     <g id="text_10">
      <!-- 180 -->
      <g transform="translate(31.5125 114.876409)scale(0.1 -0.1)">
       <use xlink:href="#DejaVuSans-49"/>
       <use x="63.623047" xlink:href="#DejaVuSans-56"/>
       <use x="127.246094" xlink:href="#DejaVuSans-48"/>
      </g>
     </g>
    </g>
    <g id="ytick_5">
     <g id="line2d_11">
      <g>
       <use style="stroke:#000000;stroke-width:0.8;" x="57.6" xlink:href="#m3dd7a9c77c" y="53.712836"/>
      </g>
     </g>
     <g id="text_11">
      <!-- 200 -->
      <g transform="translate(31.5125 57.512054)scale(0.1 -0.1)">
       <use xlink:href="#DejaVuSans-50"/>
       <use x="63.623047" xlink:href="#DejaVuSans-48"/>
       <use x="127.246094" xlink:href="#DejaVuSans-48"/>
      </g>
     </g>
    </g>
   </g>
   <g id="line2d_12">
    <path clip-path="url(#pc01ba31366)" d="M 387.638135 82.395013 
L 383.505033 94.166179 
L 379.262939 105.532926 
L 374.903248 116.492386 
L 370.431697 127.047427 
L 365.848285 137.195181 
L 361.150144 146.935649 
L 356.340143 156.268829 
L 351.418281 165.20046 
L 346.381691 173.721934 
L 341.230372 181.838991 
L 335.967192 189.54876 
L 332.396261 194.462017 
L 328.77657 199.197444 
L 325.102383 203.752174 
L 321.382305 208.123338 
L 317.610599 212.316672 
L 313.787264 216.329309 
L 309.912302 220.15838 
L 305.991449 223.809621 
L 302.016099 227.280164 
L 297.991989 230.57001 
L 293.91912 233.679158 
L 289.794623 236.607609 
L 285.621366 239.358229 
L 281.396481 241.925284 
L 277.119969 244.311641 
L 272.794696 246.517301 
L 268.420664 248.545131 
L 263.995004 250.389395 
L 259.517716 252.055829 
L 254.991669 253.538698 
L 250.413993 254.843737 
L 245.787558 255.968078 
L 241.109495 256.911722 
L 236.382672 257.6718 
L 231.604221 258.254048 
L 226.777011 258.655598 
L 221.898172 258.876451 
L 216.970574 258.916606 
L 211.991348 258.776064 
L 206.963363 258.457691 
L 201.883749 257.955753 
L 196.755376 257.273117 
L 191.575374 256.412652 
L 186.343745 255.368621 
L 181.063356 254.143892 
L 175.734208 252.741333 
L 170.353431 251.158077 
L 164.921027 249.391255 
L 159.439863 247.446603 
L 151.122031 244.191176 
L 142.695208 240.528462 
L 134.150787 236.458461 
L 125.494506 231.984042 
L 116.726364 227.102335 
L 107.846362 221.813341 
L 98.848763 216.119929 
L 89.742172 210.01923 
L 80.520851 203.514112 
L 80.520851 203.514112 
" style="fill:none;stroke:#fea952;stroke-linecap:square;"/>
   </g>
   <g id="line2d_13">
    <path clip-path="url(#pc01ba31366)" d="M 398.487273 86.126364 
L 394.282447 98.099895 
L 389.951972 109.70082 
L 385.501149 120.886845 
L 380.925854 131.684176 
L 376.224843 142.089443 
L 371.396844 152.09626 
L 366.439828 161.711544 
L 361.353285 170.93827 
L 356.135156 179.763184 
L 350.781208 188.195743 
L 347.132957 193.603988 
L 343.424378 198.836579 
L 337.755003 206.339889 
L 333.891712 211.126079 
L 329.962358 215.739732 
L 325.967572 220.177192 
L 321.911837 224.429809 
L 317.80169 228.488105 
L 313.605125 232.392085 
L 309.357129 236.096969 
L 305.030334 239.630279 
L 300.646312 242.972793 
L 296.191934 246.131326 
L 291.660165 249.113212 
L 287.082841 251.889825 
L 282.433859 254.479696 
L 277.71721 256.880487 
L 272.928471 259.095318 
L 268.098756 261.103217 
L 263.1913 262.924664 
L 258.25286 264.538307 
L 253.23561 265.964225 
L 248.162221 267.192505 
L 243.038053 268.221339 
L 237.889993 269.045223 
L 232.666249 269.677658 
L 227.411915 270.110888 
L 222.09895 270.347565 
L 216.758641 270.38752 
L 211.362207 270.231671 
L 205.928158 269.883763 
L 200.466998 269.340813 
L 194.969267 268.606104 
L 189.420695 267.681376 
L 183.843308 266.5657 
L 178.232827 265.262114 
L 172.576143 263.770993 
L 166.88198 262.093149 
L 161.156804 260.229032 
L 155.389467 258.180711 
L 149.593351 255.952274 
L 143.747843 253.535266 
L 134.93326 249.57669 
L 128.991319 246.705737 
L 120.009054 242.060578 
L 110.950314 237.015156 
L 101.796928 231.561732 
L 92.545757 225.70632 
L 83.203891 219.446724 
L 73.832727 212.835902 
L 73.832727 212.835902 
" style="fill:none;stroke:#ffffff;stroke-linecap:square;"/>
   </g>
   <g id="line2d_14">
    <path clip-path="url(#pc01ba31366)" d="M 376.788997 78.663662 
L 372.727619 90.232463 
L 368.573906 101.365031 
L 364.305348 112.097926 
L 359.93754 122.410678 
L 355.471726 132.30092 
L 350.903444 141.775038 
L 346.240458 150.826115 
L 341.483277 159.462649 
L 336.628226 167.680685 
L 331.679535 175.482239 
L 326.642272 182.865002 
L 321.522882 189.827369 
L 316.313055 196.37827 
L 312.802252 200.506944 
L 307.448812 206.376361 
L 303.854271 210.044418 
L 298.377772 215.227157 
L 294.675068 218.46336 
L 290.953645 221.509741 
L 287.191928 224.385523 
L 283.397312 227.083892 
L 279.582568 229.603247 
L 275.710121 231.960743 
L 271.806078 234.143587 
L 267.872183 236.154115 
L 263.912857 237.994944 
L 259.891252 239.675573 
L 255.844133 241.186995 
L 251.730478 242.539089 
L 247.592377 243.723249 
L 243.412895 244.743652 
L 239.180937 245.602105 
L 234.875351 246.298377 
L 230.542193 246.830438 
L 226.142107 247.200309 
L 221.697395 247.405337 
L 217.182508 247.445693 
L 212.620489 247.320456 
L 207.998567 247.031619 
L 203.3005 246.570693 
L 198.541485 245.940131 
L 193.730053 245.143929 
L 188.844182 244.171542 
L 183.893886 243.025669 
L 178.892273 241.711674 
L 173.824883 240.223005 
L 168.685249 238.553479 
L 163.490259 236.712496 
L 155.56931 233.615332 
L 147.516355 230.117732 
L 139.310255 226.211185 
L 130.979958 221.907505 
L 122.502414 217.189514 
L 113.895796 212.064951 
L 105.151769 206.533539 
L 96.280453 200.591736 
L 87.208976 194.192322 
L 87.208976 194.192322 
" style="fill:none;stroke:#ffffff;stroke-linecap:square;"/>
   </g>
   <g id="patch_3">
    <path d="M 57.6 307.584 
L 57.6 41.472 
" style="fill:none;stroke:#000000;stroke-linecap:square;stroke-linejoin:miter;stroke-width:0.8;"/>
   </g>
   <g id="patch_4">
    <path d="M 414.72 307.584 
L 414.72 41.472 
" style="fill:none;stroke:#000000;stroke-linecap:square;stroke-linejoin:miter;stroke-width:0.8;"/>
   </g>
   <g id="patch_5">
    <path d="M 57.6 307.584 
L 414.72 307.584 
" style="fill:none;stroke:#000000;stroke-linecap:square;stroke-linejoin:miter;stroke-width:0.8;"/>
   </g>
   <g id="patch_6">
    <path d="M 57.6 41.472 
L 414.72 41.472 
" style="fill:none;stroke:#000000;stroke-linecap:square;stroke-linejoin:miter;stroke-width:0.8;"/>
   </g>
  </g>
 </g>
 <defs>
  <clipPath id="pc01ba31366">
   <rect height="266.112" width="357.12" x="57.6" y="41.472"/>
  </clipPath>
 </defs>
</svg>
