<?xml version="1.0" encoding="utf-8" standalone="no"?>
<!DOCTYPE svg PUBLIC "-//W3C//DTD SVG 1.1//EN"
  "http://www.w3.org/Graphics/SVG/1.1/DTD/svg11.dtd">
<!-- Created with matplotlib (https://matplotlib.org/) -->
<svg height="345.6pt" version="1.1" viewBox="0 0 460.8 345.6" width="460.8pt" xmlns="http://www.w3.org/2000/svg" xmlns:xlink="http://www.w3.org/1999/xlink">
 <metadata>
  <rdf:RDF xmlns:cc="http://creativecommons.org/ns#" xmlns:dc="http://purl.org/dc/elements/1.1/" xmlns:rdf="http://www.w3.org/1999/02/22-rdf-syntax-ns#">
   <cc:Work>
    <dc:type rdf:resource="http://purl.org/dc/dcmitype/StillImage"/>
    <dc:date>2021-07-06T17:46:34.160099</dc:date>
    <dc:format>image/svg+xml</dc:format>
    <dc:creator>
     <cc:Agent>
      <dc:title>Matplotlib v3.3.3, https://matplotlib.org/</dc:title>
     </cc:Agent>
    </dc:creator>
   </cc:Work>
  </rdf:RDF>
 </metadata>
 <defs>
  <style type="text/css">*{stroke-linecap:butt;stroke-linejoin:round;}</style>
 </defs>
 <g id="figure_1">
  <g id="patch_1">
   <path d="M 0 345.6 
L 460.8 345.6 
L 460.8 0 
L 0 0 
z
" style="fill:#ffffff;"/>
  </g>
  <g id="axes_1">
   <g id="patch_2">
    <path d="M 57.6 307.584 
L 414.72 307.584 
L 414.72 41.472 
L 57.6 41.472 
z
" style="fill:#7d9051;"/>
   </g>
   <g id="matplotlib.axis_1">
    <g id="xtick_1">
     <g id="line2d_1">
      <defs>
       <path d="M 0 0 
L 0 3.5 
" id="ma8b445c874" style="stroke:#000000;stroke-width:0.8;"/>
      </defs>
      <g>
       <use style="stroke:#000000;stroke-width:0.8;" x="99.22941" xlink:href="#ma8b445c874" y="307.584"/>
      </g>
     </g>
     <g id="text_1">
      <!-- 100 -->
      <g transform="translate(89.68566 322.182437)scale(0.1 -0.1)">
       <defs>
        <path d="M 12.40625 8.296875 
L 28.515625 8.296875 
L 28.515625 63.921875 
L 10.984375 60.40625 
L 10.984375 69.390625 
L 28.421875 72.90625 
L 38.28125 72.90625 
L 38.28125 8.296875 
L 54.390625 8.296875 
L 54.390625 0 
L 12.40625 0 
z
" id="DejaVuSans-49"/>
        <path d="M 31.78125 66.40625 
Q 24.171875 66.40625 20.328125 58.90625 
Q 16.5 51.421875 16.5 36.375 
Q 16.5 21.390625 20.328125 13.890625 
Q 24.171875 6.390625 31.78125 6.390625 
Q 39.453125 6.390625 43.28125 13.890625 
Q 47.125 21.390625 47.125 36.375 
Q 47.125 51.421875 43.28125 58.90625 
Q 39.453125 66.40625 31.78125 66.40625 
z
M 31.78125 74.21875 
Q 44.046875 74.21875 50.515625 64.515625 
Q 56.984375 54.828125 56.984375 36.375 
Q 56.984375 17.96875 50.515625 8.265625 
Q 44.046875 -1.421875 31.78125 -1.421875 
Q 19.53125 -1.421875 13.0625 8.265625 
Q 6.59375 17.96875 6.59375 36.375 
Q 6.59375 54.828125 13.0625 64.515625 
Q 19.53125 74.21875 31.78125 74.21875 
z
" id="DejaVuSans-48"/>
       </defs>
       <use xlink:href="#DejaVuSans-49"/>
       <use x="63.623047" xlink:href="#DejaVuSans-48"/>
       <use x="127.246094" xlink:href="#DejaVuSans-48"/>
      </g>
     </g>
    </g>
    <g id="xtick_2">
     <g id="line2d_2">
      <g>
       <use style="stroke:#000000;stroke-width:0.8;" x="160.360098" xlink:href="#ma8b445c874" y="307.584"/>
      </g>
     </g>
     <g id="text_2">
      <!-- 120 -->
      <g transform="translate(150.816348 322.182437)scale(0.1 -0.1)">
       <defs>
        <path d="M 19.1875 8.296875 
L 53.609375 8.296875 
L 53.609375 0 
L 7.328125 0 
L 7.328125 8.296875 
Q 12.9375 14.109375 22.625 23.890625 
Q 32.328125 33.6875 34.8125 36.53125 
Q 39.546875 41.84375 41.421875 45.53125 
Q 43.3125 49.21875 43.3125 52.78125 
Q 43.3125 58.59375 39.234375 62.25 
Q 35.15625 65.921875 28.609375 65.921875 
Q 23.96875 65.921875 18.8125 64.3125 
Q 13.671875 62.703125 7.8125 59.421875 
L 7.8125 69.390625 
Q 13.765625 71.78125 18.9375 73 
Q 24.125 74.21875 28.421875 74.21875 
Q 39.75 74.21875 46.484375 68.546875 
Q 53.21875 62.890625 53.21875 53.421875 
Q 53.21875 48.921875 51.53125 44.890625 
Q 49.859375 40.875 45.40625 35.40625 
Q 44.1875 33.984375 37.640625 27.21875 
Q 31.109375 20.453125 19.1875 8.296875 
z
" id="DejaVuSans-50"/>
       </defs>
       <use xlink:href="#DejaVuSans-49"/>
       <use x="63.623047" xlink:href="#DejaVuSans-50"/>
       <use x="127.246094" xlink:href="#DejaVuSans-48"/>
      </g>
     </g>
    </g>
    <g id="xtick_3">
     <g id="line2d_3">
      <g>
       <use style="stroke:#000000;stroke-width:0.8;" x="221.490786" xlink:href="#ma8b445c874" y="307.584"/>
      </g>
     </g>
     <g id="text_3">
      <!-- 140 -->
      <g transform="translate(211.947036 322.182437)scale(0.1 -0.1)">
       <defs>
        <path d="M 37.796875 64.3125 
L 12.890625 25.390625 
L 37.796875 25.390625 
z
M 35.203125 72.90625 
L 47.609375 72.90625 
L 47.609375 25.390625 
L 58.015625 25.390625 
L 58.015625 17.1875 
L 47.609375 17.1875 
L 47.609375 0 
L 37.796875 0 
L 37.796875 17.1875 
L 4.890625 17.1875 
L 4.890625 26.703125 
z
" id="DejaVuSans-52"/>
       </defs>
       <use xlink:href="#DejaVuSans-49"/>
       <use x="63.623047" xlink:href="#DejaVuSans-52"/>
       <use x="127.246094" xlink:href="#DejaVuSans-48"/>
      </g>
     </g>
    </g>
    <g id="xtick_4">
     <g id="line2d_4">
      <g>
       <use style="stroke:#000000;stroke-width:0.8;" x="282.621474" xlink:href="#ma8b445c874" y="307.584"/>
      </g>
     </g>
     <g id="text_4">
      <!-- 160 -->
      <g transform="translate(273.077724 322.182437)scale(0.1 -0.1)">
       <defs>
        <path d="M 33.015625 40.375 
Q 26.375 40.375 22.484375 35.828125 
Q 18.609375 31.296875 18.609375 23.390625 
Q 18.609375 15.53125 22.484375 10.953125 
Q 26.375 6.390625 33.015625 6.390625 
Q 39.65625 6.390625 43.53125 10.953125 
Q 47.40625 15.53125 47.40625 23.390625 
Q 47.40625 31.296875 43.53125 35.828125 
Q 39.65625 40.375 33.015625 40.375 
z
M 52.59375 71.296875 
L 52.59375 62.3125 
Q 48.875 64.0625 45.09375 64.984375 
Q 41.3125 65.921875 37.59375 65.921875 
Q 27.828125 65.921875 22.671875 59.328125 
Q 17.53125 52.734375 16.796875 39.40625 
Q 19.671875 43.65625 24.015625 45.921875 
Q 28.375 48.1875 33.59375 48.1875 
Q 44.578125 48.1875 50.953125 41.515625 
Q 57.328125 34.859375 57.328125 23.390625 
Q 57.328125 12.15625 50.6875 5.359375 
Q 44.046875 -1.421875 33.015625 -1.421875 
Q 20.359375 -1.421875 13.671875 8.265625 
Q 6.984375 17.96875 6.984375 36.375 
Q 6.984375 53.65625 15.1875 63.9375 
Q 23.390625 74.21875 37.203125 74.21875 
Q 40.921875 74.21875 44.703125 73.484375 
Q 48.484375 72.75 52.59375 71.296875 
z
" id="DejaVuSans-54"/>
       </defs>
       <use xlink:href="#DejaVuSans-49"/>
       <use x="63.623047" xlink:href="#DejaVuSans-54"/>
       <use x="127.246094" xlink:href="#DejaVuSans-48"/>
      </g>
     </g>
    </g>
    <g id="xtick_5">
     <g id="line2d_5">
      <g>
       <use style="stroke:#000000;stroke-width:0.8;" x="343.752162" xlink:href="#ma8b445c874" y="307.584"/>
      </g>
     </g>
     <g id="text_5">
      <!-- 180 -->
      <g transform="translate(334.208412 322.182437)scale(0.1 -0.1)">
       <defs>
        <path d="M 31.78125 34.625 
Q 24.75 34.625 20.71875 30.859375 
Q 16.703125 27.09375 16.703125 20.515625 
Q 16.703125 13.921875 20.71875 10.15625 
Q 24.75 6.390625 31.78125 6.390625 
Q 38.8125 6.390625 42.859375 10.171875 
Q 46.921875 13.96875 46.921875 20.515625 
Q 46.921875 27.09375 42.890625 30.859375 
Q 38.875 34.625 31.78125 34.625 
z
M 21.921875 38.8125 
Q 15.578125 40.375 12.03125 44.71875 
Q 8.5 49.078125 8.5 55.328125 
Q 8.5 64.0625 14.71875 69.140625 
Q 20.953125 74.21875 31.78125 74.21875 
Q 42.671875 74.21875 48.875 69.140625 
Q 55.078125 64.0625 55.078125 55.328125 
Q 55.078125 49.078125 51.53125 44.71875 
Q 48 40.375 41.703125 38.8125 
Q 48.828125 37.15625 52.796875 32.3125 
Q 56.78125 27.484375 56.78125 20.515625 
Q 56.78125 9.90625 50.3125 4.234375 
Q 43.84375 -1.421875 31.78125 -1.421875 
Q 19.734375 -1.421875 13.25 4.234375 
Q 6.78125 9.90625 6.78125 20.515625 
Q 6.78125 27.484375 10.78125 32.3125 
Q 14.796875 37.15625 21.921875 38.8125 
z
M 18.3125 54.390625 
Q 18.3125 48.734375 21.84375 45.5625 
Q 25.390625 42.390625 31.78125 42.390625 
Q 38.140625 42.390625 41.71875 45.5625 
Q 45.3125 48.734375 45.3125 54.390625 
Q 45.3125 60.0625 41.71875 63.234375 
Q 38.140625 66.40625 31.78125 66.40625 
Q 25.390625 66.40625 21.84375 63.234375 
Q 18.3125 60.0625 18.3125 54.390625 
z
" id="DejaVuSans-56"/>
       </defs>
       <use xlink:href="#DejaVuSans-49"/>
       <use x="63.623047" xlink:href="#DejaVuSans-56"/>
       <use x="127.246094" xlink:href="#DejaVuSans-48"/>
      </g>
     </g>
    </g>
    <g id="xtick_6">
     <g id="line2d_6">
      <g>
       <use style="stroke:#000000;stroke-width:0.8;" x="404.88285" xlink:href="#ma8b445c874" y="307.584"/>
      </g>
     </g>
     <g id="text_6">
      <!-- 200 -->
      <g transform="translate(395.3391 322.182437)scale(0.1 -0.1)">
       <use xlink:href="#DejaVuSans-50"/>
       <use x="63.623047" xlink:href="#DejaVuSans-48"/>
       <use x="127.246094" xlink:href="#DejaVuSans-48"/>
      </g>
     </g>
    </g>
   </g>
   <g id="matplotlib.axis_2">
    <g id="ytick_1">
     <g id="line2d_7">
      <defs>
       <path d="M 0 0 
L -3.5 0 
" id="mc0d26ebd23" style="stroke:#000000;stroke-width:0.8;"/>
      </defs>
      <g>
       <use style="stroke:#000000;stroke-width:0.8;" x="57.6" xlink:href="#mc0d26ebd23" y="304.042081"/>
      </g>
     </g>
     <g id="text_7">
      <!-- 80 -->
      <g transform="translate(37.875 307.8413)scale(0.1 -0.1)">
       <use xlink:href="#DejaVuSans-56"/>
       <use x="63.623047" xlink:href="#DejaVuSans-48"/>
      </g>
     </g>
    </g>
    <g id="ytick_2">
     <g id="line2d_8">
      <g>
       <use style="stroke:#000000;stroke-width:0.8;" x="57.6" xlink:href="#mc0d26ebd23" y="273.476737"/>
      </g>
     </g>
     <g id="text_8">
      <!-- 90 -->
      <g transform="translate(37.875 277.275956)scale(0.1 -0.1)">
       <defs>
        <path d="M 10.984375 1.515625 
L 10.984375 10.5 
Q 14.703125 8.734375 18.5 7.8125 
Q 22.3125 6.890625 25.984375 6.890625 
Q 35.75 6.890625 40.890625 13.453125 
Q 46.046875 20.015625 46.78125 33.40625 
Q 43.953125 29.203125 39.59375 26.953125 
Q 35.25 24.703125 29.984375 24.703125 
Q 19.046875 24.703125 12.671875 31.3125 
Q 6.296875 37.9375 6.296875 49.421875 
Q 6.296875 60.640625 12.9375 67.421875 
Q 19.578125 74.21875 30.609375 74.21875 
Q 43.265625 74.21875 49.921875 64.515625 
Q 56.59375 54.828125 56.59375 36.375 
Q 56.59375 19.140625 48.40625 8.859375 
Q 40.234375 -1.421875 26.421875 -1.421875 
Q 22.703125 -1.421875 18.890625 -0.6875 
Q 15.09375 0.046875 10.984375 1.515625 
z
M 30.609375 32.421875 
Q 37.25 32.421875 41.125 36.953125 
Q 45.015625 41.5 45.015625 49.421875 
Q 45.015625 57.28125 41.125 61.84375 
Q 37.25 66.40625 30.609375 66.40625 
Q 23.96875 66.40625 20.09375 61.84375 
Q 16.21875 57.28125 16.21875 49.421875 
Q 16.21875 41.5 20.09375 36.953125 
Q 23.96875 32.421875 30.609375 32.421875 
z
" id="DejaVuSans-57"/>
       </defs>
       <use xlink:href="#DejaVuSans-57"/>
       <use x="63.623047" xlink:href="#DejaVuSans-48"/>
      </g>
     </g>
    </g>
    <g id="ytick_3">
     <g id="line2d_9">
      <g>
       <use style="stroke:#000000;stroke-width:0.8;" x="57.6" xlink:href="#mc0d26ebd23" y="242.911393"/>
      </g>
     </g>
     <g id="text_9">
      <!-- 100 -->
      <g transform="translate(31.5125 246.710612)scale(0.1 -0.1)">
       <use xlink:href="#DejaVuSans-49"/>
       <use x="63.623047" xlink:href="#DejaVuSans-48"/>
       <use x="127.246094" xlink:href="#DejaVuSans-48"/>
      </g>
     </g>
    </g>
    <g id="ytick_4">
     <g id="line2d_10">
      <g>
       <use style="stroke:#000000;stroke-width:0.8;" x="57.6" xlink:href="#mc0d26ebd23" y="212.346049"/>
      </g>
     </g>
     <g id="text_10">
      <!-- 110 -->
      <g transform="translate(31.5125 216.145268)scale(0.1 -0.1)">
       <use xlink:href="#DejaVuSans-49"/>
       <use x="63.623047" xlink:href="#DejaVuSans-49"/>
       <use x="127.246094" xlink:href="#DejaVuSans-48"/>
      </g>
     </g>
    </g>
    <g id="ytick_5">
     <g id="line2d_11">
      <g>
       <use style="stroke:#000000;stroke-width:0.8;" x="57.6" xlink:href="#mc0d26ebd23" y="181.780705"/>
      </g>
     </g>
     <g id="text_11">
      <!-- 120 -->
      <g transform="translate(31.5125 185.579924)scale(0.1 -0.1)">
       <use xlink:href="#DejaVuSans-49"/>
       <use x="63.623047" xlink:href="#DejaVuSans-50"/>
       <use x="127.246094" xlink:href="#DejaVuSans-48"/>
      </g>
     </g>
    </g>
    <g id="ytick_6">
     <g id="line2d_12">
      <g>
       <use style="stroke:#000000;stroke-width:0.8;" x="57.6" xlink:href="#mc0d26ebd23" y="151.215361"/>
      </g>
     </g>
     <g id="text_12">
      <!-- 130 -->
      <g transform="translate(31.5125 155.01458)scale(0.1 -0.1)">
       <defs>
        <path d="M 40.578125 39.3125 
Q 47.65625 37.796875 51.625 33 
Q 55.609375 28.21875 55.609375 21.1875 
Q 55.609375 10.40625 48.1875 4.484375 
Q 40.765625 -1.421875 27.09375 -1.421875 
Q 22.515625 -1.421875 17.65625 -0.515625 
Q 12.796875 0.390625 7.625 2.203125 
L 7.625 11.71875 
Q 11.71875 9.328125 16.59375 8.109375 
Q 21.484375 6.890625 26.8125 6.890625 
Q 36.078125 6.890625 40.9375 10.546875 
Q 45.796875 14.203125 45.796875 21.1875 
Q 45.796875 27.640625 41.28125 31.265625 
Q 36.765625 34.90625 28.71875 34.90625 
L 20.21875 34.90625 
L 20.21875 43.015625 
L 29.109375 43.015625 
Q 36.375 43.015625 40.234375 45.921875 
Q 44.09375 48.828125 44.09375 54.296875 
Q 44.09375 59.90625 40.109375 62.90625 
Q 36.140625 65.921875 28.71875 65.921875 
Q 24.65625 65.921875 20.015625 65.03125 
Q 15.375 64.15625 9.8125 62.3125 
L 9.8125 71.09375 
Q 15.4375 72.65625 20.34375 73.4375 
Q 25.25 74.21875 29.59375 74.21875 
Q 40.828125 74.21875 47.359375 69.109375 
Q 53.90625 64.015625 53.90625 55.328125 
Q 53.90625 49.265625 50.4375 45.09375 
Q 46.96875 40.921875 40.578125 39.3125 
z
" id="DejaVuSans-51"/>
       </defs>
       <use xlink:href="#DejaVuSans-49"/>
       <use x="63.623047" xlink:href="#DejaVuSans-51"/>
       <use x="127.246094" xlink:href="#DejaVuSans-48"/>
      </g>
     </g>
    </g>
    <g id="ytick_7">
     <g id="line2d_13">
      <g>
       <use style="stroke:#000000;stroke-width:0.8;" x="57.6" xlink:href="#mc0d26ebd23" y="120.650017"/>
      </g>
     </g>
     <g id="text_13">
      <!-- 140 -->
      <g transform="translate(31.5125 124.449236)scale(0.1 -0.1)">
       <use xlink:href="#DejaVuSans-49"/>
       <use x="63.623047" xlink:href="#DejaVuSans-52"/>
       <use x="127.246094" xlink:href="#DejaVuSans-48"/>
      </g>
     </g>
    </g>
    <g id="ytick_8">
     <g id="line2d_14">
      <g>
       <use style="stroke:#000000;stroke-width:0.8;" x="57.6" xlink:href="#mc0d26ebd23" y="90.084673"/>
      </g>
     </g>
     <g id="text_14">
      <!-- 150 -->
      <g transform="translate(31.5125 93.883892)scale(0.1 -0.1)">
       <defs>
        <path d="M 10.796875 72.90625 
L 49.515625 72.90625 
L 49.515625 64.59375 
L 19.828125 64.59375 
L 19.828125 46.734375 
Q 21.96875 47.46875 24.109375 47.828125 
Q 26.265625 48.1875 28.421875 48.1875 
Q 40.625 48.1875 47.75 41.5 
Q 54.890625 34.8125 54.890625 23.390625 
Q 54.890625 11.625 47.5625 5.09375 
Q 40.234375 -1.421875 26.90625 -1.421875 
Q 22.3125 -1.421875 17.546875 -0.640625 
Q 12.796875 0.140625 7.71875 1.703125 
L 7.71875 11.625 
Q 12.109375 9.234375 16.796875 8.0625 
Q 21.484375 6.890625 26.703125 6.890625 
Q 35.15625 6.890625 40.078125 11.328125 
Q 45.015625 15.765625 45.015625 23.390625 
Q 45.015625 31 40.078125 35.4375 
Q 35.15625 39.890625 26.703125 39.890625 
Q 22.75 39.890625 18.8125 39.015625 
Q 14.890625 38.140625 10.796875 36.28125 
z
" id="DejaVuSans-53"/>
       </defs>
       <use xlink:href="#DejaVuSans-49"/>
       <use x="63.623047" xlink:href="#DejaVuSans-53"/>
       <use x="127.246094" xlink:href="#DejaVuSans-48"/>
      </g>
     </g>
    </g>
    <g id="ytick_9">
     <g id="line2d_15">
      <g>
       <use style="stroke:#000000;stroke-width:0.8;" x="57.6" xlink:href="#mc0d26ebd23" y="59.519329"/>
      </g>
     </g>
     <g id="text_15">
      <!-- 160 -->
      <g transform="translate(31.5125 63.318548)scale(0.1 -0.1)">
       <use xlink:href="#DejaVuSans-49"/>
       <use x="63.623047" xlink:href="#DejaVuSans-54"/>
       <use x="127.246094" xlink:href="#DejaVuSans-48"/>
      </g>
     </g>
    </g>
   </g>
   <g id="line2d_16">
    <path clip-path="url(#p788972ad8d)" d="M 163.416632 288.759409 
L 165.113009 286.185807 
L 166.806329 283.615262 
L 168.499649 281.04166 
L 170.189913 278.468058 
L 171.880176 275.891399 
L 173.57044 273.317797 
L 175.260703 270.741139 
L 176.94791 268.16448 
L 178.635117 265.587822 
L 180.319268 263.008107 
L 182.003418 260.428392 
L 183.687568 257.851733 
L 185.371719 255.272018 
L 187.052813 252.689246 
L 188.733907 250.109531 
L 190.411944 247.52676 
L 192.093038 244.943988 
L 193.768019 242.361217 
L 195.446056 239.778445 
L 197.121037 237.192617 
L 198.796018 234.609845 
L 200.470999 232.024017 
L 202.142923 229.435133 
L 203.814848 226.849305 
L 205.483715 224.26042 
L 207.152583 221.674592 
L 208.821451 219.085707 
L 210.490319 216.493766 
L 212.15613 213.904881 
L 213.821941 211.31294 
L 215.484696 208.724056 
L 217.150507 206.129058 
L 218.813262 203.537117 
L 220.47296 200.945176 
L 222.132658 198.350178 
L 223.792356 195.75518 
L 225.452055 193.160182 
L 227.108696 190.565185 
L 228.765338 187.967131 
L 230.418923 185.369076 
L 232.075565 182.774079 
L 233.72915 180.172968 
L 235.379678 177.574914 
L 237.030207 174.973803 
L 238.680735 172.375749 
L 240.331264 169.774638 
L 241.978736 167.17047 
L 243.626208 164.56936 
L 245.270624 161.965192 
L 246.918096 159.364082 
L 248.562511 156.759914 
L 250.20387 154.15269 
L 251.845229 151.548523 
L 253.486588 148.941299 
L 255.127947 146.334075 
L 256.766249 143.726852 
L 258.404552 141.119628 
L 260.042854 138.509347 
L 261.6781 135.902124 
L 263.313346 133.291843 
L 264.945536 130.681563 
L 266.580781 128.068226 
L 268.212971 125.457945 
L 269.842104 122.844609 
L 271.471236 120.231272 
L 273.100369 117.617935 
L 274.729502 115.001541 
L 276.355578 112.388204 
L 277.981655 109.771811 
L 279.607731 107.155417 
L 281.230751 104.539024 
L 282.853771 101.919574 
L 284.47679 99.300124 
L 286.096754 96.683731 
L 287.716717 94.061224 
L 289.333624 91.441774 
L 290.953587 88.822324 
L 292.570493 86.199818 
L 294.184344 83.577311 
L 295.798194 80.954805 
L 297.412044 78.329242 
L 299.025894 75.706735 
L 300.636688 73.081172 
L 302.247481 70.455609 
L 303.858275 67.830046 
L 305.466012 65.204483 
L 307.073749 62.575863 
L 308.681486 59.947244 
" style="fill:none;stroke:#fea952;stroke-linecap:square;"/>
   </g>
   <g id="line2d_17">
    <path clip-path="url(#p788972ad8d)" d="M 153.208572 282.030818 
L 154.903047 279.460101 
L 156.592698 276.895129 
L 158.280449 274.329999 
L 159.967059 271.761963 
L 161.660976 269.179739 
L 163.347586 266.611702 
L 165.032288 264.043529 
L 166.719495 261.466871 
L 168.397513 258.904267 
L 170.081663 256.324552 
L 171.769443 253.739281 
L 173.449964 251.168179 
L 175.12495 248.602523 
L 176.809657 246.014204 
L 178.481594 243.448561 
L 180.165175 240.857265 
L 181.835183 238.291557 
L 183.515706 235.700247 
L 185.184612 233.131552 
L 186.863182 230.540185 
L 188.534573 227.962952 
L 190.200447 225.391205 
L 191.875944 222.796791 
L 193.53877 220.225056 
L 195.211204 217.630643 
L 196.876505 215.050343 
L 198.541816 212.46698 
L 200.208717 209.878095 
L 201.870978 207.294731 
L 203.534816 204.705861 
L 205.196003 202.119418 
L 206.859839 199.527498 
L 208.51708 196.94416 
L 210.173252 194.35773 
L 211.83295 191.762732 
L 213.492648 189.167734 
L 215.14684 186.581353 
L 216.799972 183.991857 
L 218.451116 181.402432 
L 220.113709 178.790247 
L 221.757849 176.214873 
L 223.409432 173.616912 
L 225.056474 171.024349 
L 226.710489 168.417747 
L 228.357531 165.825184 
L 229.999102 163.238211 
L 231.650045 160.628561 
L 233.288568 158.041601 
L 234.941932 155.423283 
L 236.580455 152.836323 
L 238.215947 150.246309 
L 239.860753 147.633613 
L 241.498665 145.034918 
L 243.140024 142.427694 
L 244.775915 139.829164 
L 246.414217 137.22194 
L 248.049089 134.62018 
L 249.685356 132.013144 
L 251.317178 129.411382 
L 252.946966 126.809821 
L 254.581198 124.196276 
L 256.214402 121.586204 
L 257.837735 118.990108 
L 259.466868 116.376771 
L 261.096 113.763434 
L 262.721742 111.155541 
L 264.348819 108.54245 
L 265.971511 105.934555 
L 267.597588 103.318162 
L 269.218226 100.710526 
L 270.837877 98.099566 
L 272.460897 95.480116 
L 274.081849 92.864004 
L 275.695099 90.258466 
L 277.312988 87.639319 
L 278.935321 85.011086 
L 280.546513 82.405841 
L 282.158002 79.79213 
L 283.771852 77.169624 
L 285.382373 74.55253 
L 286.999552 71.921554 
L 288.604665 69.313268 
L 290.215458 66.687705 
L 291.826252 64.062142 
L 293.431639 61.4454 
L 295.03607 58.825239 
L 296.643807 56.19662 
L 298.251544 53.568 
" style="fill:none;stroke:#ffffff;stroke-linecap:square;"/>
   </g>
   <g id="line2d_18">
    <path clip-path="url(#p788972ad8d)" d="M 173.624693 295.488 
L 175.322971 292.911513 
L 177.01996 290.335394 
L 178.71885 287.75332 
L 180.412766 285.174152 
L 182.099377 282.603059 
L 183.793293 280.023892 
L 185.489118 277.438748 
L 187.176325 274.86209 
L 188.872721 272.271376 
L 190.556872 269.691661 
L 192.237393 267.117502 
L 193.925173 264.535287 
L 195.618488 261.941513 
L 197.295969 259.364289 
L 198.98622 256.770502 
L 200.658713 254.196255 
L 202.350893 251.59642 
L 204.020332 249.022187 
L 205.707501 246.425338 
L 207.378892 243.845049 
L 209.057463 241.256739 
L 210.741551 238.65683 
L 212.409902 236.073475 
L 214.090925 233.473553 
L 215.756227 230.890197 
L 217.428661 228.29884 
L 219.101086 225.704434 
L 220.771921 223.109437 
L 222.441282 220.515032 
L 224.109066 217.920019 
L 225.773389 215.328694 
L 227.441175 212.730618 
L 229.109444 210.130073 
L 230.772668 207.532622 
L 232.432367 204.937624 
L 234.092065 202.342626 
L 235.757269 199.739012 
L 237.417421 197.138513 
L 239.07956 194.531829 
L 240.724137 191.947906 
L 242.39328 189.333284 
L 244.048867 186.729024 
L 245.702883 184.125478 
L 247.349924 181.529859 
L 249.00394 178.926313 
L 250.663426 176.311064 
L 252.307427 173.71238 
L 253.963848 171.097118 
L 255.599315 168.507101 
L 257.255736 165.89184 
L 258.909075 163.273519 
L 260.546987 160.671768 
L 262.191793 158.062128 
L 263.833152 155.454904 
L 265.479979 152.838987 
L 267.118282 150.231763 
L 268.760015 147.619075 
L 270.400353 145.005551 
L 272.039023 142.392865 
L 273.679726 139.773865 
L 275.309873 137.16685 
L 276.947161 134.550248 
L 278.588207 131.925783 
L 280.21734 129.312446 
L 281.846473 126.699109 
L 283.478997 124.080328 
L 285.110185 121.460633 
L 286.739646 118.841854 
L 288.365722 116.22546 
L 289.997236 113.600309 
L 291.623624 110.978482 
L 293.246644 108.359032 
L 294.871731 105.736244 
L 296.498408 103.108995 
L 298.120446 100.483129 
L 299.731926 97.872463 
L 301.360661 95.238807 
L 302.982985 92.607505 
L 304.596835 89.984998 
L 306.214015 87.357079 
L 307.824536 84.736929 
L 309.447124 82.100202 
L 311.057917 79.474639 
L 312.668711 76.849076 
L 314.284911 74.214691 
L 315.895954 71.583726 
L 317.503691 68.955107 
L 319.111428 66.326487 
" style="fill:none;stroke:#ffffff;stroke-linecap:square;"/>
   </g>
   <g id="patch_3">
    <path d="M 57.6 307.584 
L 57.6 41.472 
" style="fill:none;stroke:#000000;stroke-linecap:square;stroke-linejoin:miter;stroke-width:0.8;"/>
   </g>
   <g id="patch_4">
    <path d="M 414.72 307.584 
L 414.72 41.472 
" style="fill:none;stroke:#000000;stroke-linecap:square;stroke-linejoin:miter;stroke-width:0.8;"/>
   </g>
   <g id="patch_5">
    <path d="M 57.6 307.584 
L 414.72 307.584 
" style="fill:none;stroke:#000000;stroke-linecap:square;stroke-linejoin:miter;stroke-width:0.8;"/>
   </g>
   <g id="patch_6">
    <path d="M 57.6 41.472 
L 414.72 41.472 
" style="fill:none;stroke:#000000;stroke-linecap:square;stroke-linejoin:miter;stroke-width:0.8;"/>
   </g>
  </g>
 </g>
 <defs>
  <clipPath id="p788972ad8d">
   <rect height="266.112" width="357.12" x="57.6" y="41.472"/>
  </clipPath>
 </defs>
</svg>
