<?xml version="1.0" encoding="utf-8" standalone="no"?>
<!DOCTYPE svg PUBLIC "-//W3C//DTD SVG 1.1//EN"
  "http://www.w3.org/Graphics/SVG/1.1/DTD/svg11.dtd">
<!-- Created with matplotlib (https://matplotlib.org/) -->
<svg height="345.6pt" version="1.1" viewBox="0 0 460.8 345.6" width="460.8pt" xmlns="http://www.w3.org/2000/svg" xmlns:xlink="http://www.w3.org/1999/xlink">
 <metadata>
  <rdf:RDF xmlns:cc="http://creativecommons.org/ns#" xmlns:dc="http://purl.org/dc/elements/1.1/" xmlns:rdf="http://www.w3.org/1999/02/22-rdf-syntax-ns#">
   <cc:Work>
    <dc:type rdf:resource="http://purl.org/dc/dcmitype/StillImage"/>
    <dc:date>2021-07-12T19:51:26.527395</dc:date>
    <dc:format>image/svg+xml</dc:format>
    <dc:creator>
     <cc:Agent>
      <dc:title>Matplotlib v3.3.3, https://matplotlib.org/</dc:title>
     </cc:Agent>
    </dc:creator>
   </cc:Work>
  </rdf:RDF>
 </metadata>
 <defs>
  <style type="text/css">*{stroke-linecap:butt;stroke-linejoin:round;}</style>
 </defs>
 <g id="figure_1">
  <g id="patch_1">
   <path d="M 0 345.6 
L 460.8 345.6 
L 460.8 0 
L 0 0 
z
" style="fill:#ffffff;"/>
  </g>
  <g id="axes_1">
   <g id="patch_2">
    <path d="M 57.6 307.584 
L 414.72 307.584 
L 414.72 41.472 
L 57.6 41.472 
z
" style="fill:#7d9051;"/>
   </g>
   <g id="matplotlib.axis_1">
    <g id="xtick_1">
     <g id="line2d_1">
      <defs>
       <path d="M 0 0 
L 0 3.5 
" id="m492c5612ed" style="stroke:#000000;stroke-width:0.8;"/>
      </defs>
      <g>
       <use style="stroke:#000000;stroke-width:0.8;" x="111.062397" xlink:href="#m492c5612ed" y="307.584"/>
      </g>
     </g>
     <g id="text_1">
      <!-- 80 -->
      <g transform="translate(104.699897 322.182437)scale(0.1 -0.1)">
       <defs>
        <path d="M 31.78125 34.625 
Q 24.75 34.625 20.71875 30.859375 
Q 16.703125 27.09375 16.703125 20.515625 
Q 16.703125 13.921875 20.71875 10.15625 
Q 24.75 6.390625 31.78125 6.390625 
Q 38.8125 6.390625 42.859375 10.171875 
Q 46.921875 13.96875 46.921875 20.515625 
Q 46.921875 27.09375 42.890625 30.859375 
Q 38.875 34.625 31.78125 34.625 
z
M 21.921875 38.8125 
Q 15.578125 40.375 12.03125 44.71875 
Q 8.5 49.078125 8.5 55.328125 
Q 8.5 64.0625 14.71875 69.140625 
Q 20.953125 74.21875 31.78125 74.21875 
Q 42.671875 74.21875 48.875 69.140625 
Q 55.078125 64.0625 55.078125 55.328125 
Q 55.078125 49.078125 51.53125 44.71875 
Q 48 40.375 41.703125 38.8125 
Q 48.828125 37.15625 52.796875 32.3125 
Q 56.78125 27.484375 56.78125 20.515625 
Q 56.78125 9.90625 50.3125 4.234375 
Q 43.84375 -1.421875 31.78125 -1.421875 
Q 19.734375 -1.421875 13.25 4.234375 
Q 6.78125 9.90625 6.78125 20.515625 
Q 6.78125 27.484375 10.78125 32.3125 
Q 14.796875 37.15625 21.921875 38.8125 
z
M 18.3125 54.390625 
Q 18.3125 48.734375 21.84375 45.5625 
Q 25.390625 42.390625 31.78125 42.390625 
Q 38.140625 42.390625 41.71875 45.5625 
Q 45.3125 48.734375 45.3125 54.390625 
Q 45.3125 60.0625 41.71875 63.234375 
Q 38.140625 66.40625 31.78125 66.40625 
Q 25.390625 66.40625 21.84375 63.234375 
Q 18.3125 60.0625 18.3125 54.390625 
z
" id="DejaVuSans-56"/>
        <path d="M 31.78125 66.40625 
Q 24.171875 66.40625 20.328125 58.90625 
Q 16.5 51.421875 16.5 36.375 
Q 16.5 21.390625 20.328125 13.890625 
Q 24.171875 6.390625 31.78125 6.390625 
Q 39.453125 6.390625 43.28125 13.890625 
Q 47.125 21.390625 47.125 36.375 
Q 47.125 51.421875 43.28125 58.90625 
Q 39.453125 66.40625 31.78125 66.40625 
z
M 31.78125 74.21875 
Q 44.046875 74.21875 50.515625 64.515625 
Q 56.984375 54.828125 56.984375 36.375 
Q 56.984375 17.96875 50.515625 8.265625 
Q 44.046875 -1.421875 31.78125 -1.421875 
Q 19.53125 -1.421875 13.0625 8.265625 
Q 6.59375 17.96875 6.59375 36.375 
Q 6.59375 54.828125 13.0625 64.515625 
Q 19.53125 74.21875 31.78125 74.21875 
z
" id="DejaVuSans-48"/>
       </defs>
       <use xlink:href="#DejaVuSans-56"/>
       <use x="63.623047" xlink:href="#DejaVuSans-48"/>
      </g>
     </g>
    </g>
    <g id="xtick_2">
     <g id="line2d_2">
      <g>
       <use style="stroke:#000000;stroke-width:0.8;" x="166.061015" xlink:href="#m492c5612ed" y="307.584"/>
      </g>
     </g>
     <g id="text_2">
      <!-- 100 -->
      <g transform="translate(156.517265 322.182437)scale(0.1 -0.1)">
       <defs>
        <path d="M 12.40625 8.296875 
L 28.515625 8.296875 
L 28.515625 63.921875 
L 10.984375 60.40625 
L 10.984375 69.390625 
L 28.421875 72.90625 
L 38.28125 72.90625 
L 38.28125 8.296875 
L 54.390625 8.296875 
L 54.390625 0 
L 12.40625 0 
z
" id="DejaVuSans-49"/>
       </defs>
       <use xlink:href="#DejaVuSans-49"/>
       <use x="63.623047" xlink:href="#DejaVuSans-48"/>
       <use x="127.246094" xlink:href="#DejaVuSans-48"/>
      </g>
     </g>
    </g>
    <g id="xtick_3">
     <g id="line2d_3">
      <g>
       <use style="stroke:#000000;stroke-width:0.8;" x="221.059633" xlink:href="#m492c5612ed" y="307.584"/>
      </g>
     </g>
     <g id="text_3">
      <!-- 120 -->
      <g transform="translate(211.515883 322.182437)scale(0.1 -0.1)">
       <defs>
        <path d="M 19.1875 8.296875 
L 53.609375 8.296875 
L 53.609375 0 
L 7.328125 0 
L 7.328125 8.296875 
Q 12.9375 14.109375 22.625 23.890625 
Q 32.328125 33.6875 34.8125 36.53125 
Q 39.546875 41.84375 41.421875 45.53125 
Q 43.3125 49.21875 43.3125 52.78125 
Q 43.3125 58.59375 39.234375 62.25 
Q 35.15625 65.921875 28.609375 65.921875 
Q 23.96875 65.921875 18.8125 64.3125 
Q 13.671875 62.703125 7.8125 59.421875 
L 7.8125 69.390625 
Q 13.765625 71.78125 18.9375 73 
Q 24.125 74.21875 28.421875 74.21875 
Q 39.75 74.21875 46.484375 68.546875 
Q 53.21875 62.890625 53.21875 53.421875 
Q 53.21875 48.921875 51.53125 44.890625 
Q 49.859375 40.875 45.40625 35.40625 
Q 44.1875 33.984375 37.640625 27.21875 
Q 31.109375 20.453125 19.1875 8.296875 
z
" id="DejaVuSans-50"/>
       </defs>
       <use xlink:href="#DejaVuSans-49"/>
       <use x="63.623047" xlink:href="#DejaVuSans-50"/>
       <use x="127.246094" xlink:href="#DejaVuSans-48"/>
      </g>
     </g>
    </g>
    <g id="xtick_4">
     <g id="line2d_4">
      <g>
       <use style="stroke:#000000;stroke-width:0.8;" x="276.058251" xlink:href="#m492c5612ed" y="307.584"/>
      </g>
     </g>
     <g id="text_4">
      <!-- 140 -->
      <g transform="translate(266.514501 322.182437)scale(0.1 -0.1)">
       <defs>
        <path d="M 37.796875 64.3125 
L 12.890625 25.390625 
L 37.796875 25.390625 
z
M 35.203125 72.90625 
L 47.609375 72.90625 
L 47.609375 25.390625 
L 58.015625 25.390625 
L 58.015625 17.1875 
L 47.609375 17.1875 
L 47.609375 0 
L 37.796875 0 
L 37.796875 17.1875 
L 4.890625 17.1875 
L 4.890625 26.703125 
z
" id="DejaVuSans-52"/>
       </defs>
       <use xlink:href="#DejaVuSans-49"/>
       <use x="63.623047" xlink:href="#DejaVuSans-52"/>
       <use x="127.246094" xlink:href="#DejaVuSans-48"/>
      </g>
     </g>
    </g>
    <g id="xtick_5">
     <g id="line2d_5">
      <g>
       <use style="stroke:#000000;stroke-width:0.8;" x="331.05687" xlink:href="#m492c5612ed" y="307.584"/>
      </g>
     </g>
     <g id="text_5">
      <!-- 160 -->
      <g transform="translate(321.51312 322.182437)scale(0.1 -0.1)">
       <defs>
        <path d="M 33.015625 40.375 
Q 26.375 40.375 22.484375 35.828125 
Q 18.609375 31.296875 18.609375 23.390625 
Q 18.609375 15.53125 22.484375 10.953125 
Q 26.375 6.390625 33.015625 6.390625 
Q 39.65625 6.390625 43.53125 10.953125 
Q 47.40625 15.53125 47.40625 23.390625 
Q 47.40625 31.296875 43.53125 35.828125 
Q 39.65625 40.375 33.015625 40.375 
z
M 52.59375 71.296875 
L 52.59375 62.3125 
Q 48.875 64.0625 45.09375 64.984375 
Q 41.3125 65.921875 37.59375 65.921875 
Q 27.828125 65.921875 22.671875 59.328125 
Q 17.53125 52.734375 16.796875 39.40625 
Q 19.671875 43.65625 24.015625 45.921875 
Q 28.375 48.1875 33.59375 48.1875 
Q 44.578125 48.1875 50.953125 41.515625 
Q 57.328125 34.859375 57.328125 23.390625 
Q 57.328125 12.15625 50.6875 5.359375 
Q 44.046875 -1.421875 33.015625 -1.421875 
Q 20.359375 -1.421875 13.671875 8.265625 
Q 6.984375 17.96875 6.984375 36.375 
Q 6.984375 53.65625 15.1875 63.9375 
Q 23.390625 74.21875 37.203125 74.21875 
Q 40.921875 74.21875 44.703125 73.484375 
Q 48.484375 72.75 52.59375 71.296875 
z
" id="DejaVuSans-54"/>
       </defs>
       <use xlink:href="#DejaVuSans-49"/>
       <use x="63.623047" xlink:href="#DejaVuSans-54"/>
       <use x="127.246094" xlink:href="#DejaVuSans-48"/>
      </g>
     </g>
    </g>
    <g id="xtick_6">
     <g id="line2d_6">
      <g>
       <use style="stroke:#000000;stroke-width:0.8;" x="386.055488" xlink:href="#m492c5612ed" y="307.584"/>
      </g>
     </g>
     <g id="text_6">
      <!-- 180 -->
      <g transform="translate(376.511738 322.182437)scale(0.1 -0.1)">
       <use xlink:href="#DejaVuSans-49"/>
       <use x="63.623047" xlink:href="#DejaVuSans-56"/>
       <use x="127.246094" xlink:href="#DejaVuSans-48"/>
      </g>
     </g>
    </g>
   </g>
   <g id="matplotlib.axis_2">
    <g id="ytick_1">
     <g id="line2d_7">
      <defs>
       <path d="M 0 0 
L -3.5 0 
" id="mf9a08e2f63" style="stroke:#000000;stroke-width:0.8;"/>
      </defs>
      <g>
       <use style="stroke:#000000;stroke-width:0.8;" x="57.6" xlink:href="#mf9a08e2f63" y="260.878709"/>
      </g>
     </g>
     <g id="text_7">
      <!-- 40 -->
      <g transform="translate(37.875 264.677928)scale(0.1 -0.1)">
       <use xlink:href="#DejaVuSans-52"/>
       <use x="63.623047" xlink:href="#DejaVuSans-48"/>
      </g>
     </g>
    </g>
    <g id="ytick_2">
     <g id="line2d_8">
      <g>
       <use style="stroke:#000000;stroke-width:0.8;" x="57.6" xlink:href="#mf9a08e2f63" y="205.880091"/>
      </g>
     </g>
     <g id="text_8">
      <!-- 60 -->
      <g transform="translate(37.875 209.67931)scale(0.1 -0.1)">
       <use xlink:href="#DejaVuSans-54"/>
       <use x="63.623047" xlink:href="#DejaVuSans-48"/>
      </g>
     </g>
    </g>
    <g id="ytick_3">
     <g id="line2d_9">
      <g>
       <use style="stroke:#000000;stroke-width:0.8;" x="57.6" xlink:href="#mf9a08e2f63" y="150.881473"/>
      </g>
     </g>
     <g id="text_9">
      <!-- 80 -->
      <g transform="translate(37.875 154.680691)scale(0.1 -0.1)">
       <use xlink:href="#DejaVuSans-56"/>
       <use x="63.623047" xlink:href="#DejaVuSans-48"/>
      </g>
     </g>
    </g>
    <g id="ytick_4">
     <g id="line2d_10">
      <g>
       <use style="stroke:#000000;stroke-width:0.8;" x="57.6" xlink:href="#mf9a08e2f63" y="95.882854"/>
      </g>
     </g>
     <g id="text_10">
      <!-- 100 -->
      <g transform="translate(31.5125 99.682073)scale(0.1 -0.1)">
       <use xlink:href="#DejaVuSans-49"/>
       <use x="63.623047" xlink:href="#DejaVuSans-48"/>
       <use x="127.246094" xlink:href="#DejaVuSans-48"/>
      </g>
     </g>
    </g>
   </g>
   <g id="line2d_11">
    <path clip-path="url(#p88435390eb)" d="M 75.313295 73.883407 
L 94.989051 71.317722 
L 109.32444 69.640264 
L 123.302339 68.177301 
L 136.917247 66.926082 
L 150.171914 65.886608 
L 163.06909 65.058879 
L 175.603275 64.442894 
L 187.779969 64.041404 
L 199.593673 63.851659 
L 211.047135 63.873659 
L 222.143106 64.107403 
L 232.876086 64.555642 
L 243.251576 65.212875 
L 253.264074 66.084603 
L 262.919082 67.170826 
L 272.211098 68.466043 
L 281.145624 69.973005 
L 289.717158 71.694462 
L 297.931202 73.627664 
L 305.782255 75.77261 
L 313.273067 78.13205 
L 320.406387 80.700486 
L 327.179467 83.483416 
L 331.491359 85.455116 
L 335.646504 87.523065 
L 339.642154 89.68451 
L 343.475558 91.942203 
L 347.149465 94.290644 
L 350.663877 96.735333 
L 354.016043 99.276269 
L 357.211463 101.907953 
L 360.244636 104.635885 
L 363.118314 107.457314 
L 365.829746 110.37499 
L 368.384432 113.386165 
L 370.776872 116.490837 
L 373.009816 119.691756 
L 375.083264 122.983424 
L 376.997216 126.374088 
L 378.748922 129.855501 
L 380.341132 133.433161 
L 381.773846 137.104319 
L 383.047064 140.868974 
L 384.158036 144.729877 
L 385.112262 148.684278 
L 385.904242 152.734926 
L 386.536726 156.876322 
L 387.006964 161.113966 
L 387.320456 165.447857 
L 387.471702 169.872496 
L 387.463453 174.393382 
L 387.295707 179.007766 
L 386.742971 186.108088 
L 386.173735 190.958966 
L 385.021514 198.414029 
L 383.506302 206.078086 
L 381.633599 213.956638 
L 379.400655 222.046935 
L 376.80472 230.348976 
L 373.851295 238.865512 
L 370.537628 247.593793 
L 366.86097 256.531068 
L 362.826822 265.685588 
L 358.432432 275.049103 
L 353.677801 284.624363 
L 350.306386 291.127949 
L 350.306386 291.127949 
" style="fill:none;stroke:#fea952;stroke-linecap:square;"/>
   </g>
   <g id="line2d_12">
    <path clip-path="url(#p88435390eb)" d="M 73.832727 62.983782 
L 93.667672 60.397654 
L 108.134307 58.705114 
L 122.250156 57.228016 
L 136.004329 55.964307 
L 149.413917 54.913033 
L 162.474798 54.075221 
L 175.18307 53.4512 
L 187.544206 53.044208 
L 199.546632 52.852036 
L 211.208878 52.875124 
L 222.52736 53.114393 
L 233.48911 53.573013 
L 244.126622 54.248012 
L 254.399716 55.14366 
L 264.334011 56.262485 
L 273.934271 57.602131 
L 283.198146 59.166476 
L 292.119085 60.960187 
L 300.707773 62.984141 
L 308.944049 65.2371 
L 314.267713 66.876248 
L 321.944476 69.526132 
L 326.879499 71.429395 
L 331.672773 73.44329 
L 336.311855 75.567916 
L 340.797398 77.803897 
L 345.137401 80.155807 
L 349.316566 82.621445 
L 353.341647 85.199396 
L 357.220113 87.903024 
L 360.919438 90.712564 
L 364.486183 93.657355 
L 367.871335 96.709512 
L 371.090837 99.87887 
L 374.131515 103.15872 
L 377.018715 106.571249 
L 379.726669 110.095913 
L 382.247358 113.720012 
L 384.598098 117.464198 
L 386.76321 121.31254 
L 388.743005 125.260698 
L 390.5392 129.310865 
L 392.151259 133.456963 
L 393.584549 137.713767 
L 394.821393 142.030482 
L 395.885163 146.461999 
L 396.760889 150.966554 
L 397.456265 155.550582 
L 397.970219 160.219006 
L 398.309668 164.967079 
L 398.47113 169.791815 
L 398.459006 174.696254 
L 398.274209 179.690701 
L 397.917964 184.739263 
L 397.39338 189.889907 
L 396.700136 195.103583 
L 395.840218 200.401378 
L 394.240343 208.48106 
L 392.967116 213.98931 
L 390.754 222.373098 
L 388.173208 230.949498 
L 385.232088 239.713152 
L 381.929964 248.655231 
L 378.262974 257.798324 
L 374.240648 267.131776 
L 369.860312 276.648153 
L 365.119532 286.372537 
L 360.05623 296.220538 
L 360.05623 296.220538 
" style="fill:none;stroke:#ffffff;stroke-linecap:square;"/>
   </g>
   <g id="line2d_13">
    <path clip-path="url(#p88435390eb)" d="M 76.793862 84.783033 
L 96.310429 82.237789 
L 110.514574 80.575414 
L 124.354523 79.126585 
L 137.830165 77.887857 
L 150.929911 76.860184 
L 163.663382 76.042537 
L 176.023481 75.434589 
L 188.015732 75.038601 
L 199.640713 74.851282 
L 210.885392 74.872193 
L 221.758852 75.100413 
L 232.263062 75.53827 
L 242.37653 76.177738 
L 252.128432 77.025546 
L 261.504152 78.079166 
L 270.487925 79.329956 
L 279.093101 80.779535 
L 287.315231 82.428738 
L 295.154631 84.271186 
L 302.62046 86.30812 
L 309.691994 88.532524 
L 316.374076 90.934468 
L 322.686162 93.523542 
L 328.6075 96.284876 
L 334.146908 99.213214 
L 339.323817 102.319464 
L 342.555299 104.467726 
L 345.627431 106.692995 
L 349.936742 110.158551 
L 352.617938 112.562257 
L 355.145792 115.035757 
L 357.527977 117.591261 
L 359.750149 120.201081 
L 361.827075 122.885761 
L 363.772273 125.663501 
L 365.56843 128.502649 
L 367.231221 131.435637 
L 368.754838 134.450304 
L 370.143063 137.555457 
L 371.396432 140.751675 
L 372.509579 144.024181 
L 373.494678 147.429273 
L 374.339361 150.906557 
L 375.047595 154.503299 
L 375.617187 158.202063 
L 376.043709 162.008925 
L 376.331245 165.928635 
L 376.472275 169.953176 
L 376.467899 174.090511 
L 376.317204 178.324831 
L 375.808415 184.91251 
L 374.959852 191.736725 
L 373.766657 198.806848 
L 372.221756 206.138549 
L 370.327016 213.700616 
L 368.078518 221.504483 
L 365.469305 229.559863 
L 362.504581 237.843232 
L 359.181399 246.361354 
L 355.491297 255.124171 
L 351.445828 264.106389 
L 347.033289 273.328375 
L 342.261499 282.771192 
L 340.556542 286.03536 
L 340.556542 286.03536 
" style="fill:none;stroke:#ffffff;stroke-linecap:square;"/>
   </g>
   <g id="patch_3">
    <path d="M 57.6 307.584 
L 57.6 41.472 
" style="fill:none;stroke:#000000;stroke-linecap:square;stroke-linejoin:miter;stroke-width:0.8;"/>
   </g>
   <g id="patch_4">
    <path d="M 414.72 307.584 
L 414.72 41.472 
" style="fill:none;stroke:#000000;stroke-linecap:square;stroke-linejoin:miter;stroke-width:0.8;"/>
   </g>
   <g id="patch_5">
    <path d="M 57.6 307.584 
L 414.72 307.584 
" style="fill:none;stroke:#000000;stroke-linecap:square;stroke-linejoin:miter;stroke-width:0.8;"/>
   </g>
   <g id="patch_6">
    <path d="M 57.6 41.472 
L 414.72 41.472 
" style="fill:none;stroke:#000000;stroke-linecap:square;stroke-linejoin:miter;stroke-width:0.8;"/>
   </g>
  </g>
 </g>
 <defs>
  <clipPath id="p88435390eb">
   <rect height="266.112" width="357.12" x="57.6" y="41.472"/>
  </clipPath>
 </defs>
</svg>
