<?xml version="1.0" encoding="utf-8" standalone="no"?>
<!DOCTYPE svg PUBLIC "-//W3C//DTD SVG 1.1//EN"
  "http://www.w3.org/Graphics/SVG/1.1/DTD/svg11.dtd">
<!-- Created with matplotlib (https://matplotlib.org/) -->
<svg height="345.6pt" version="1.1" viewBox="0 0 460.8 345.6" width="460.8pt" xmlns="http://www.w3.org/2000/svg" xmlns:xlink="http://www.w3.org/1999/xlink">
 <metadata>
  <rdf:RDF xmlns:cc="http://creativecommons.org/ns#" xmlns:dc="http://purl.org/dc/elements/1.1/" xmlns:rdf="http://www.w3.org/1999/02/22-rdf-syntax-ns#">
   <cc:Work>
    <dc:type rdf:resource="http://purl.org/dc/dcmitype/StillImage"/>
    <dc:date>2021-07-12T19:33:01.173982</dc:date>
    <dc:format>image/svg+xml</dc:format>
    <dc:creator>
     <cc:Agent>
      <dc:title>Matplotlib v3.3.3, https://matplotlib.org/</dc:title>
     </cc:Agent>
    </dc:creator>
   </cc:Work>
  </rdf:RDF>
 </metadata>
 <defs>
  <style type="text/css">*{stroke-linecap:butt;stroke-linejoin:round;}</style>
 </defs>
 <g id="figure_1">
  <g id="patch_1">
   <path d="M 0 345.6 
L 460.8 345.6 
L 460.8 0 
L 0 0 
z
" style="fill:#ffffff;"/>
  </g>
  <g id="axes_1">
   <g id="patch_2">
    <path d="M 57.6 307.584 
L 414.72 307.584 
L 414.72 41.472 
L 57.6 41.472 
z
" style="fill:#7d9051;"/>
   </g>
   <g id="matplotlib.axis_1">
    <g id="xtick_1">
     <g id="line2d_1">
      <defs>
       <path d="M 0 0 
L 0 3.5 
" id="ma259cffa25" style="stroke:#000000;stroke-width:0.8;"/>
      </defs>
      <g>
       <use style="stroke:#000000;stroke-width:0.8;" x="59.221676" xlink:href="#ma259cffa25" y="307.584"/>
      </g>
     </g>
     <g id="text_1">
      <!-- 0 -->
      <g transform="translate(56.040426 322.182437)scale(0.1 -0.1)">
       <defs>
        <path d="M 31.78125 66.40625 
Q 24.171875 66.40625 20.328125 58.90625 
Q 16.5 51.421875 16.5 36.375 
Q 16.5 21.390625 20.328125 13.890625 
Q 24.171875 6.390625 31.78125 6.390625 
Q 39.453125 6.390625 43.28125 13.890625 
Q 47.125 21.390625 47.125 36.375 
Q 47.125 51.421875 43.28125 58.90625 
Q 39.453125 66.40625 31.78125 66.40625 
z
M 31.78125 74.21875 
Q 44.046875 74.21875 50.515625 64.515625 
Q 56.984375 54.828125 56.984375 36.375 
Q 56.984375 17.96875 50.515625 8.265625 
Q 44.046875 -1.421875 31.78125 -1.421875 
Q 19.53125 -1.421875 13.0625 8.265625 
Q 6.59375 17.96875 6.59375 36.375 
Q 6.59375 54.828125 13.0625 64.515625 
Q 19.53125 74.21875 31.78125 74.21875 
z
" id="DejaVuSans-48"/>
       </defs>
       <use xlink:href="#DejaVuSans-48"/>
      </g>
     </g>
    </g>
    <g id="xtick_2">
     <g id="line2d_2">
      <g>
       <use style="stroke:#000000;stroke-width:0.8;" x="117.595497" xlink:href="#ma259cffa25" y="307.584"/>
      </g>
     </g>
     <g id="text_2">
      <!-- 20 -->
      <g transform="translate(111.232997 322.182437)scale(0.1 -0.1)">
       <defs>
        <path d="M 19.1875 8.296875 
L 53.609375 8.296875 
L 53.609375 0 
L 7.328125 0 
L 7.328125 8.296875 
Q 12.9375 14.109375 22.625 23.890625 
Q 32.328125 33.6875 34.8125 36.53125 
Q 39.546875 41.84375 41.421875 45.53125 
Q 43.3125 49.21875 43.3125 52.78125 
Q 43.3125 58.59375 39.234375 62.25 
Q 35.15625 65.921875 28.609375 65.921875 
Q 23.96875 65.921875 18.8125 64.3125 
Q 13.671875 62.703125 7.8125 59.421875 
L 7.8125 69.390625 
Q 13.765625 71.78125 18.9375 73 
Q 24.125 74.21875 28.421875 74.21875 
Q 39.75 74.21875 46.484375 68.546875 
Q 53.21875 62.890625 53.21875 53.421875 
Q 53.21875 48.921875 51.53125 44.890625 
Q 49.859375 40.875 45.40625 35.40625 
Q 44.1875 33.984375 37.640625 27.21875 
Q 31.109375 20.453125 19.1875 8.296875 
z
" id="DejaVuSans-50"/>
       </defs>
       <use xlink:href="#DejaVuSans-50"/>
       <use x="63.623047" xlink:href="#DejaVuSans-48"/>
      </g>
     </g>
    </g>
    <g id="xtick_3">
     <g id="line2d_3">
      <g>
       <use style="stroke:#000000;stroke-width:0.8;" x="175.969318" xlink:href="#ma259cffa25" y="307.584"/>
      </g>
     </g>
     <g id="text_3">
      <!-- 40 -->
      <g transform="translate(169.606818 322.182437)scale(0.1 -0.1)">
       <defs>
        <path d="M 37.796875 64.3125 
L 12.890625 25.390625 
L 37.796875 25.390625 
z
M 35.203125 72.90625 
L 47.609375 72.90625 
L 47.609375 25.390625 
L 58.015625 25.390625 
L 58.015625 17.1875 
L 47.609375 17.1875 
L 47.609375 0 
L 37.796875 0 
L 37.796875 17.1875 
L 4.890625 17.1875 
L 4.890625 26.703125 
z
" id="DejaVuSans-52"/>
       </defs>
       <use xlink:href="#DejaVuSans-52"/>
       <use x="63.623047" xlink:href="#DejaVuSans-48"/>
      </g>
     </g>
    </g>
    <g id="xtick_4">
     <g id="line2d_4">
      <g>
       <use style="stroke:#000000;stroke-width:0.8;" x="234.343139" xlink:href="#ma259cffa25" y="307.584"/>
      </g>
     </g>
     <g id="text_4">
      <!-- 60 -->
      <g transform="translate(227.980639 322.182437)scale(0.1 -0.1)">
       <defs>
        <path d="M 33.015625 40.375 
Q 26.375 40.375 22.484375 35.828125 
Q 18.609375 31.296875 18.609375 23.390625 
Q 18.609375 15.53125 22.484375 10.953125 
Q 26.375 6.390625 33.015625 6.390625 
Q 39.65625 6.390625 43.53125 10.953125 
Q 47.40625 15.53125 47.40625 23.390625 
Q 47.40625 31.296875 43.53125 35.828125 
Q 39.65625 40.375 33.015625 40.375 
z
M 52.59375 71.296875 
L 52.59375 62.3125 
Q 48.875 64.0625 45.09375 64.984375 
Q 41.3125 65.921875 37.59375 65.921875 
Q 27.828125 65.921875 22.671875 59.328125 
Q 17.53125 52.734375 16.796875 39.40625 
Q 19.671875 43.65625 24.015625 45.921875 
Q 28.375 48.1875 33.59375 48.1875 
Q 44.578125 48.1875 50.953125 41.515625 
Q 57.328125 34.859375 57.328125 23.390625 
Q 57.328125 12.15625 50.6875 5.359375 
Q 44.046875 -1.421875 33.015625 -1.421875 
Q 20.359375 -1.421875 13.671875 8.265625 
Q 6.984375 17.96875 6.984375 36.375 
Q 6.984375 53.65625 15.1875 63.9375 
Q 23.390625 74.21875 37.203125 74.21875 
Q 40.921875 74.21875 44.703125 73.484375 
Q 48.484375 72.75 52.59375 71.296875 
z
" id="DejaVuSans-54"/>
       </defs>
       <use xlink:href="#DejaVuSans-54"/>
       <use x="63.623047" xlink:href="#DejaVuSans-48"/>
      </g>
     </g>
    </g>
    <g id="xtick_5">
     <g id="line2d_5">
      <g>
       <use style="stroke:#000000;stroke-width:0.8;" x="292.71696" xlink:href="#ma259cffa25" y="307.584"/>
      </g>
     </g>
     <g id="text_5">
      <!-- 80 -->
      <g transform="translate(286.35446 322.182437)scale(0.1 -0.1)">
       <defs>
        <path d="M 31.78125 34.625 
Q 24.75 34.625 20.71875 30.859375 
Q 16.703125 27.09375 16.703125 20.515625 
Q 16.703125 13.921875 20.71875 10.15625 
Q 24.75 6.390625 31.78125 6.390625 
Q 38.8125 6.390625 42.859375 10.171875 
Q 46.921875 13.96875 46.921875 20.515625 
Q 46.921875 27.09375 42.890625 30.859375 
Q 38.875 34.625 31.78125 34.625 
z
M 21.921875 38.8125 
Q 15.578125 40.375 12.03125 44.71875 
Q 8.5 49.078125 8.5 55.328125 
Q 8.5 64.0625 14.71875 69.140625 
Q 20.953125 74.21875 31.78125 74.21875 
Q 42.671875 74.21875 48.875 69.140625 
Q 55.078125 64.0625 55.078125 55.328125 
Q 55.078125 49.078125 51.53125 44.71875 
Q 48 40.375 41.703125 38.8125 
Q 48.828125 37.15625 52.796875 32.3125 
Q 56.78125 27.484375 56.78125 20.515625 
Q 56.78125 9.90625 50.3125 4.234375 
Q 43.84375 -1.421875 31.78125 -1.421875 
Q 19.734375 -1.421875 13.25 4.234375 
Q 6.78125 9.90625 6.78125 20.515625 
Q 6.78125 27.484375 10.78125 32.3125 
Q 14.796875 37.15625 21.921875 38.8125 
z
M 18.3125 54.390625 
Q 18.3125 48.734375 21.84375 45.5625 
Q 25.390625 42.390625 31.78125 42.390625 
Q 38.140625 42.390625 41.71875 45.5625 
Q 45.3125 48.734375 45.3125 54.390625 
Q 45.3125 60.0625 41.71875 63.234375 
Q 38.140625 66.40625 31.78125 66.40625 
Q 25.390625 66.40625 21.84375 63.234375 
Q 18.3125 60.0625 18.3125 54.390625 
z
" id="DejaVuSans-56"/>
       </defs>
       <use xlink:href="#DejaVuSans-56"/>
       <use x="63.623047" xlink:href="#DejaVuSans-48"/>
      </g>
     </g>
    </g>
    <g id="xtick_6">
     <g id="line2d_6">
      <g>
       <use style="stroke:#000000;stroke-width:0.8;" x="351.090781" xlink:href="#ma259cffa25" y="307.584"/>
      </g>
     </g>
     <g id="text_6">
      <!-- 100 -->
      <g transform="translate(341.547031 322.182437)scale(0.1 -0.1)">
       <defs>
        <path d="M 12.40625 8.296875 
L 28.515625 8.296875 
L 28.515625 63.921875 
L 10.984375 60.40625 
L 10.984375 69.390625 
L 28.421875 72.90625 
L 38.28125 72.90625 
L 38.28125 8.296875 
L 54.390625 8.296875 
L 54.390625 0 
L 12.40625 0 
z
" id="DejaVuSans-49"/>
       </defs>
       <use xlink:href="#DejaVuSans-49"/>
       <use x="63.623047" xlink:href="#DejaVuSans-48"/>
       <use x="127.246094" xlink:href="#DejaVuSans-48"/>
      </g>
     </g>
    </g>
    <g id="xtick_7">
     <g id="line2d_7">
      <g>
       <use style="stroke:#000000;stroke-width:0.8;" x="409.464602" xlink:href="#ma259cffa25" y="307.584"/>
      </g>
     </g>
     <g id="text_7">
      <!-- 120 -->
      <g transform="translate(399.920852 322.182437)scale(0.1 -0.1)">
       <use xlink:href="#DejaVuSans-49"/>
       <use x="63.623047" xlink:href="#DejaVuSans-50"/>
       <use x="127.246094" xlink:href="#DejaVuSans-48"/>
      </g>
     </g>
    </g>
   </g>
   <g id="matplotlib.axis_2">
    <g id="ytick_1">
     <g id="line2d_8">
      <defs>
       <path d="M 0 0 
L -3.5 0 
" id="mcdefd5ad44" style="stroke:#000000;stroke-width:0.8;"/>
      </defs>
      <g>
       <use style="stroke:#000000;stroke-width:0.8;" x="57.6" xlink:href="#mcdefd5ad44" y="257.187597"/>
      </g>
     </g>
     <g id="text_8">
      <!-- 120 -->
      <g transform="translate(31.5125 260.986816)scale(0.1 -0.1)">
       <use xlink:href="#DejaVuSans-49"/>
       <use x="63.623047" xlink:href="#DejaVuSans-50"/>
       <use x="127.246094" xlink:href="#DejaVuSans-48"/>
      </g>
     </g>
    </g>
    <g id="ytick_2">
     <g id="line2d_9">
      <g>
       <use style="stroke:#000000;stroke-width:0.8;" x="57.6" xlink:href="#mcdefd5ad44" y="198.813776"/>
      </g>
     </g>
     <g id="text_9">
      <!-- 140 -->
      <g transform="translate(31.5125 202.612995)scale(0.1 -0.1)">
       <use xlink:href="#DejaVuSans-49"/>
       <use x="63.623047" xlink:href="#DejaVuSans-52"/>
       <use x="127.246094" xlink:href="#DejaVuSans-48"/>
      </g>
     </g>
    </g>
    <g id="ytick_3">
     <g id="line2d_10">
      <g>
       <use style="stroke:#000000;stroke-width:0.8;" x="57.6" xlink:href="#mcdefd5ad44" y="140.439955"/>
      </g>
     </g>
     <g id="text_10">
      <!-- 160 -->
      <g transform="translate(31.5125 144.239174)scale(0.1 -0.1)">
       <use xlink:href="#DejaVuSans-49"/>
       <use x="63.623047" xlink:href="#DejaVuSans-54"/>
       <use x="127.246094" xlink:href="#DejaVuSans-48"/>
      </g>
     </g>
    </g>
    <g id="ytick_4">
     <g id="line2d_11">
      <g>
       <use style="stroke:#000000;stroke-width:0.8;" x="57.6" xlink:href="#mcdefd5ad44" y="82.066134"/>
      </g>
     </g>
     <g id="text_11">
      <!-- 180 -->
      <g transform="translate(31.5125 85.865353)scale(0.1 -0.1)">
       <use xlink:href="#DejaVuSans-49"/>
       <use x="63.623047" xlink:href="#DejaVuSans-56"/>
       <use x="127.246094" xlink:href="#DejaVuSans-48"/>
      </g>
     </g>
    </g>
   </g>
   <g id="line2d_12">
    <path clip-path="url(#p7077b12228)" d="M 85.489895 61.635297 
L 86.312966 75.504917 
L 87.28489 88.910465 
L 88.405668 101.851941 
L 89.678217 114.332264 
L 91.096701 126.348515 
L 92.664038 137.903613 
L 94.383147 148.994639 
L 96.248191 159.621593 
L 98.265006 169.787394 
L 100.427756 179.492041 
L 102.742278 188.729699 
L 105.205653 197.509121 
L 107.814963 205.821553 
L 110.576045 213.672832 
L 113.48598 221.060039 
L 116.544768 227.986093 
L 119.75241 234.448075 
L 121.973533 238.502137 
L 124.261787 242.346053 
L 126.614252 245.985661 
L 129.033847 249.42096 
L 131.520572 252.649033 
L 134.071508 255.669878 
L 136.692492 258.489333 
L 139.374769 261.098643 
L 142.127095 263.503645 
L 144.943632 265.704338 
L 147.827299 267.697804 
L 150.778095 269.486961 
L 153.793103 271.068892 
L 156.875241 272.446514 
L 160.024509 273.616909 
L 163.237987 274.582996 
L 166.518596 275.341855 
L 169.866335 275.896407 
L 173.281203 276.243731 
L 176.760283 276.386747 
L 180.306493 276.322536 
L 183.916914 276.054016 
L 187.594464 275.581188 
L 191.339145 274.901133 
L 195.150955 274.013851 
L 199.026977 272.922261 
L 202.970129 271.623443 
L 206.98041 270.120317 
L 211.054903 268.412883 
L 215.196526 266.498222 
L 221.535923 263.240962 
L 228.021254 259.519631 
L 234.655439 255.334228 
L 241.438477 250.690591 
L 248.373287 245.579963 
L 255.454031 240.008182 
L 262.686548 233.972328 
L 270.064999 227.475322 
L 277.595221 220.514244 
L 285.274298 213.092013 
L 293.099308 205.205709 
L 301.076091 196.855334 
L 309.201727 188.043806 
L 317.476216 178.768206 
L 325.899558 169.028534 
L 334.471754 158.827709 
L 343.192803 148.16573 
L 352.062705 137.03968 
L 364.122736 121.483057 
L 373.339963 109.277091 
L 385.861147 92.281553 
L 389.033764 87.903516 
L 389.033764 87.903516 
" style="fill:none;stroke:#fea952;stroke-linecap:square;"/>
   </g>
   <g id="line2d_13">
    <path clip-path="url(#p7077b12228)" d="M 97.147063 60.994553 
L 97.960966 74.714839 
L 98.92034 87.953167 
L 100.02587 100.724548 
L 101.280143 113.030177 
L 102.674941 124.850358 
L 104.211739 136.185847 
L 105.896271 147.058638 
L 107.715995 157.43308 
L 109.681212 167.343961 
L 111.776587 176.752668 
L 114.014547 185.690607 
L 116.381987 194.134261 
L 118.87111 202.071657 
L 121.491776 209.531946 
L 124.22979 216.491596 
L 127.080036 222.955363 
L 130.034988 228.919178 
L 133.085914 234.385952 
L 136.222992 239.354504 
L 139.435655 243.831982 
L 141.619501 246.549341 
L 143.822295 249.048973 
L 146.058642 251.347822 
L 148.305867 253.432876 
L 150.584976 255.329713 
L 152.875203 257.026926 
L 155.202608 258.547186 
L 157.539539 259.882126 
L 159.914569 261.048991 
L 162.340916 262.051836 
L 164.812475 262.893847 
L 167.314359 263.572786 
L 169.909166 264.098627 
L 172.573833 264.463781 
L 175.323723 264.669446 
L 178.141224 264.712395 
L 181.074441 264.585301 
L 184.103541 264.28535 
L 187.23496 263.805101 
L 190.453576 263.14548 
L 193.788713 262.293156 
L 197.226105 261.246699 
L 200.75332 260.011581 
L 206.253355 257.771207 
L 210.022107 256.032778 
L 215.869694 253.033418 
L 221.929163 249.560387 
L 228.176531 245.622181 
L 234.616222 241.216576 
L 241.245601 236.333546 
L 248.053936 230.978303 
L 255.048826 225.142531 
L 262.20818 218.8399 
L 269.541237 212.062412 
L 277.042332 204.813434 
L 284.710665 197.085933 
L 292.5366 188.894353 
L 300.528911 180.228284 
L 308.681608 171.089991 
L 316.996632 161.476182 
L 325.466153 151.398088 
L 334.092663 140.85221 
L 342.875305 129.836083 
L 354.831765 114.413546 
L 363.973495 102.307915 
L 376.407639 85.43091 
L 379.580256 81.052874 
L 379.580256 81.052874 
" style="fill:none;stroke:#ffffff;stroke-linecap:square;"/>
   </g>
   <g id="line2d_14">
    <path clip-path="url(#p7077b12228)" d="M 73.832727 62.276041 
L 74.664966 76.294994 
L 75.64944 89.867763 
L 76.785465 102.979334 
L 78.076291 115.63435 
L 79.518461 127.846671 
L 81.116337 139.621378 
L 82.870023 150.930639 
L 84.780386 161.810105 
L 86.8488 172.230827 
L 89.078926 182.231414 
L 91.47001 191.768791 
L 94.029319 200.883981 
L 96.758816 209.57145 
L 99.660314 217.813719 
L 102.74217 225.628482 
L 104.899201 230.602323 
L 107.139238 235.379696 
L 109.469831 239.976972 
L 111.88857 244.383772 
L 114.396843 248.589689 
L 117.005513 252.616818 
L 119.706 256.441742 
L 122.515391 260.079163 
L 125.421753 263.510915 
L 128.446234 266.753675 
L 131.576028 269.786552 
L 134.810837 272.601583 
L 138.166974 275.211021 
L 141.630848 277.592454 
L 145.1932 279.739233 
L 148.856015 281.648366 
L 152.640833 283.326308 
L 156.491383 284.744224 
L 160.42075 285.912748 
L 164.426611 286.82766 
L 168.511489 287.49229 
L 172.632515 287.90046 
L 176.798941 288.061447 
L 181.006475 287.976297 
L 185.248804 287.652559 
L 189.540071 287.092693 
L 193.847606 286.303227 
L 198.186696 285.287023 
L 202.564761 284.048095 
L 206.94959 282.599053 
L 211.396621 280.927593 
L 215.856451 279.054558 
L 220.370944 276.963665 
L 224.895622 274.679549 
L 229.495552 272.174018 
L 236.443488 268.052249 
L 243.490235 263.473732 
L 250.661264 258.435063 
L 257.932421 252.951405 
L 265.325629 247.012064 
L 272.843104 240.622774 
L 280.482529 233.780421 
L 288.252775 226.484634 
L 296.153531 218.737858 
L 304.191462 210.532007 
L 312.348397 201.884675 
L 320.653213 192.775655 
L 329.095784 183.210536 
L 337.677357 173.19171 
L 346.39901 162.715757 
L 355.261684 151.785122 
L 364.266196 140.396445 
L 376.499943 124.496362 
L 388.980995 107.789752 
L 398.487273 94.754159 
L 398.487273 94.754159 
" style="fill:none;stroke:#ffffff;stroke-linecap:square;"/>
   </g>
   <g id="patch_3">
    <path d="M 57.6 307.584 
L 57.6 41.472 
" style="fill:none;stroke:#000000;stroke-linecap:square;stroke-linejoin:miter;stroke-width:0.8;"/>
   </g>
   <g id="patch_4">
    <path d="M 414.72 307.584 
L 414.72 41.472 
" style="fill:none;stroke:#000000;stroke-linecap:square;stroke-linejoin:miter;stroke-width:0.8;"/>
   </g>
   <g id="patch_5">
    <path d="M 57.6 307.584 
L 414.72 307.584 
" style="fill:none;stroke:#000000;stroke-linecap:square;stroke-linejoin:miter;stroke-width:0.8;"/>
   </g>
   <g id="patch_6">
    <path d="M 57.6 41.472 
L 414.72 41.472 
" style="fill:none;stroke:#000000;stroke-linecap:square;stroke-linejoin:miter;stroke-width:0.8;"/>
   </g>
  </g>
 </g>
 <defs>
  <clipPath id="p7077b12228">
   <rect height="266.112" width="357.12" x="57.6" y="41.472"/>
  </clipPath>
 </defs>
</svg>
