<?xml version="1.0" encoding="utf-8" standalone="no"?>
<!DOCTYPE svg PUBLIC "-//W3C//DTD SVG 1.1//EN"
  "http://www.w3.org/Graphics/SVG/1.1/DTD/svg11.dtd">
<!-- Created with matplotlib (https://matplotlib.org/) -->
<svg height="345.6pt" version="1.1" viewBox="0 0 460.8 345.6" width="460.8pt" xmlns="http://www.w3.org/2000/svg" xmlns:xlink="http://www.w3.org/1999/xlink">
 <metadata>
  <rdf:RDF xmlns:cc="http://creativecommons.org/ns#" xmlns:dc="http://purl.org/dc/elements/1.1/" xmlns:rdf="http://www.w3.org/1999/02/22-rdf-syntax-ns#">
   <cc:Work>
    <dc:type rdf:resource="http://purl.org/dc/dcmitype/StillImage"/>
    <dc:date>2021-07-12T19:35:06.294875</dc:date>
    <dc:format>image/svg+xml</dc:format>
    <dc:creator>
     <cc:Agent>
      <dc:title>Matplotlib v3.3.3, https://matplotlib.org/</dc:title>
     </cc:Agent>
    </dc:creator>
   </cc:Work>
  </rdf:RDF>
 </metadata>
 <defs>
  <style type="text/css">*{stroke-linecap:butt;stroke-linejoin:round;}</style>
 </defs>
 <g id="figure_1">
  <g id="patch_1">
   <path d="M 0 345.6 
L 460.8 345.6 
L 460.8 0 
L 0 0 
z
" style="fill:#ffffff;"/>
  </g>
  <g id="axes_1">
   <g id="patch_2">
    <path d="M 57.6 307.584 
L 414.72 307.584 
L 414.72 41.472 
L 57.6 41.472 
z
" style="fill:#7d9051;"/>
   </g>
   <g id="matplotlib.axis_1">
    <g id="xtick_1">
     <g id="line2d_1">
      <defs>
       <path d="M 0 0 
L 0 3.5 
" id="mbe7cb7b1e4" style="stroke:#000000;stroke-width:0.8;"/>
      </defs>
      <g>
       <use style="stroke:#000000;stroke-width:0.8;" x="60.012175" xlink:href="#mbe7cb7b1e4" y="307.584"/>
      </g>
     </g>
     <g id="text_1">
      <!-- 0 -->
      <g transform="translate(56.830925 322.182437)scale(0.1 -0.1)">
       <defs>
        <path d="M 31.78125 66.40625 
Q 24.171875 66.40625 20.328125 58.90625 
Q 16.5 51.421875 16.5 36.375 
Q 16.5 21.390625 20.328125 13.890625 
Q 24.171875 6.390625 31.78125 6.390625 
Q 39.453125 6.390625 43.28125 13.890625 
Q 47.125 21.390625 47.125 36.375 
Q 47.125 51.421875 43.28125 58.90625 
Q 39.453125 66.40625 31.78125 66.40625 
z
M 31.78125 74.21875 
Q 44.046875 74.21875 50.515625 64.515625 
Q 56.984375 54.828125 56.984375 36.375 
Q 56.984375 17.96875 50.515625 8.265625 
Q 44.046875 -1.421875 31.78125 -1.421875 
Q 19.53125 -1.421875 13.0625 8.265625 
Q 6.59375 17.96875 6.59375 36.375 
Q 6.59375 54.828125 13.0625 64.515625 
Q 19.53125 74.21875 31.78125 74.21875 
z
" id="DejaVuSans-48"/>
       </defs>
       <use xlink:href="#DejaVuSans-48"/>
      </g>
     </g>
    </g>
    <g id="xtick_2">
     <g id="line2d_2">
      <g>
       <use style="stroke:#000000;stroke-width:0.8;" x="127.070254" xlink:href="#mbe7cb7b1e4" y="307.584"/>
      </g>
     </g>
     <g id="text_2">
      <!-- 50 -->
      <g transform="translate(120.707754 322.182437)scale(0.1 -0.1)">
       <defs>
        <path d="M 10.796875 72.90625 
L 49.515625 72.90625 
L 49.515625 64.59375 
L 19.828125 64.59375 
L 19.828125 46.734375 
Q 21.96875 47.46875 24.109375 47.828125 
Q 26.265625 48.1875 28.421875 48.1875 
Q 40.625 48.1875 47.75 41.5 
Q 54.890625 34.8125 54.890625 23.390625 
Q 54.890625 11.625 47.5625 5.09375 
Q 40.234375 -1.421875 26.90625 -1.421875 
Q 22.3125 -1.421875 17.546875 -0.640625 
Q 12.796875 0.140625 7.71875 1.703125 
L 7.71875 11.625 
Q 12.109375 9.234375 16.796875 8.0625 
Q 21.484375 6.890625 26.703125 6.890625 
Q 35.15625 6.890625 40.078125 11.328125 
Q 45.015625 15.765625 45.015625 23.390625 
Q 45.015625 31 40.078125 35.4375 
Q 35.15625 39.890625 26.703125 39.890625 
Q 22.75 39.890625 18.8125 39.015625 
Q 14.890625 38.140625 10.796875 36.28125 
z
" id="DejaVuSans-53"/>
       </defs>
       <use xlink:href="#DejaVuSans-53"/>
       <use x="63.623047" xlink:href="#DejaVuSans-48"/>
      </g>
     </g>
    </g>
    <g id="xtick_3">
     <g id="line2d_3">
      <g>
       <use style="stroke:#000000;stroke-width:0.8;" x="194.128334" xlink:href="#mbe7cb7b1e4" y="307.584"/>
      </g>
     </g>
     <g id="text_3">
      <!-- 100 -->
      <g transform="translate(184.584584 322.182437)scale(0.1 -0.1)">
       <defs>
        <path d="M 12.40625 8.296875 
L 28.515625 8.296875 
L 28.515625 63.921875 
L 10.984375 60.40625 
L 10.984375 69.390625 
L 28.421875 72.90625 
L 38.28125 72.90625 
L 38.28125 8.296875 
L 54.390625 8.296875 
L 54.390625 0 
L 12.40625 0 
z
" id="DejaVuSans-49"/>
       </defs>
       <use xlink:href="#DejaVuSans-49"/>
       <use x="63.623047" xlink:href="#DejaVuSans-48"/>
       <use x="127.246094" xlink:href="#DejaVuSans-48"/>
      </g>
     </g>
    </g>
    <g id="xtick_4">
     <g id="line2d_4">
      <g>
       <use style="stroke:#000000;stroke-width:0.8;" x="261.186413" xlink:href="#mbe7cb7b1e4" y="307.584"/>
      </g>
     </g>
     <g id="text_4">
      <!-- 150 -->
      <g transform="translate(251.642663 322.182437)scale(0.1 -0.1)">
       <use xlink:href="#DejaVuSans-49"/>
       <use x="63.623047" xlink:href="#DejaVuSans-53"/>
       <use x="127.246094" xlink:href="#DejaVuSans-48"/>
      </g>
     </g>
    </g>
    <g id="xtick_5">
     <g id="line2d_5">
      <g>
       <use style="stroke:#000000;stroke-width:0.8;" x="328.244493" xlink:href="#mbe7cb7b1e4" y="307.584"/>
      </g>
     </g>
     <g id="text_5">
      <!-- 200 -->
      <g transform="translate(318.700743 322.182437)scale(0.1 -0.1)">
       <defs>
        <path d="M 19.1875 8.296875 
L 53.609375 8.296875 
L 53.609375 0 
L 7.328125 0 
L 7.328125 8.296875 
Q 12.9375 14.109375 22.625 23.890625 
Q 32.328125 33.6875 34.8125 36.53125 
Q 39.546875 41.84375 41.421875 45.53125 
Q 43.3125 49.21875 43.3125 52.78125 
Q 43.3125 58.59375 39.234375 62.25 
Q 35.15625 65.921875 28.609375 65.921875 
Q 23.96875 65.921875 18.8125 64.3125 
Q 13.671875 62.703125 7.8125 59.421875 
L 7.8125 69.390625 
Q 13.765625 71.78125 18.9375 73 
Q 24.125 74.21875 28.421875 74.21875 
Q 39.75 74.21875 46.484375 68.546875 
Q 53.21875 62.890625 53.21875 53.421875 
Q 53.21875 48.921875 51.53125 44.890625 
Q 49.859375 40.875 45.40625 35.40625 
Q 44.1875 33.984375 37.640625 27.21875 
Q 31.109375 20.453125 19.1875 8.296875 
z
" id="DejaVuSans-50"/>
       </defs>
       <use xlink:href="#DejaVuSans-50"/>
       <use x="63.623047" xlink:href="#DejaVuSans-48"/>
       <use x="127.246094" xlink:href="#DejaVuSans-48"/>
      </g>
     </g>
    </g>
    <g id="xtick_6">
     <g id="line2d_6">
      <g>
       <use style="stroke:#000000;stroke-width:0.8;" x="395.302573" xlink:href="#mbe7cb7b1e4" y="307.584"/>
      </g>
     </g>
     <g id="text_6">
      <!-- 250 -->
      <g transform="translate(385.758823 322.182437)scale(0.1 -0.1)">
       <use xlink:href="#DejaVuSans-50"/>
       <use x="63.623047" xlink:href="#DejaVuSans-53"/>
       <use x="127.246094" xlink:href="#DejaVuSans-48"/>
      </g>
     </g>
    </g>
   </g>
   <g id="matplotlib.axis_2">
    <g id="ytick_1">
     <g id="line2d_7">
      <defs>
       <path d="M 0 0 
L -3.5 0 
" id="mab4c19bdee" style="stroke:#000000;stroke-width:0.8;"/>
      </defs>
      <g>
       <use style="stroke:#000000;stroke-width:0.8;" x="57.6" xlink:href="#mab4c19bdee" y="302.720932"/>
      </g>
     </g>
     <g id="text_7">
      <!-- 0 -->
      <g transform="translate(44.2375 306.520151)scale(0.1 -0.1)">
       <use xlink:href="#DejaVuSans-48"/>
      </g>
     </g>
    </g>
    <g id="ytick_2">
     <g id="line2d_8">
      <g>
       <use style="stroke:#000000;stroke-width:0.8;" x="57.6" xlink:href="#mab4c19bdee" y="269.191892"/>
      </g>
     </g>
     <g id="text_8">
      <!-- 25 -->
      <g transform="translate(37.875 272.991111)scale(0.1 -0.1)">
       <use xlink:href="#DejaVuSans-50"/>
       <use x="63.623047" xlink:href="#DejaVuSans-53"/>
      </g>
     </g>
    </g>
    <g id="ytick_3">
     <g id="line2d_9">
      <g>
       <use style="stroke:#000000;stroke-width:0.8;" x="57.6" xlink:href="#mab4c19bdee" y="235.662853"/>
      </g>
     </g>
     <g id="text_9">
      <!-- 50 -->
      <g transform="translate(37.875 239.462071)scale(0.1 -0.1)">
       <use xlink:href="#DejaVuSans-53"/>
       <use x="63.623047" xlink:href="#DejaVuSans-48"/>
      </g>
     </g>
    </g>
    <g id="ytick_4">
     <g id="line2d_10">
      <g>
       <use style="stroke:#000000;stroke-width:0.8;" x="57.6" xlink:href="#mab4c19bdee" y="202.133813"/>
      </g>
     </g>
     <g id="text_10">
      <!-- 75 -->
      <g transform="translate(37.875 205.933032)scale(0.1 -0.1)">
       <defs>
        <path d="M 8.203125 72.90625 
L 55.078125 72.90625 
L 55.078125 68.703125 
L 28.609375 0 
L 18.3125 0 
L 43.21875 64.59375 
L 8.203125 64.59375 
z
" id="DejaVuSans-55"/>
       </defs>
       <use xlink:href="#DejaVuSans-55"/>
       <use x="63.623047" xlink:href="#DejaVuSans-53"/>
      </g>
     </g>
    </g>
    <g id="ytick_5">
     <g id="line2d_11">
      <g>
       <use style="stroke:#000000;stroke-width:0.8;" x="57.6" xlink:href="#mab4c19bdee" y="168.604773"/>
      </g>
     </g>
     <g id="text_11">
      <!-- 100 -->
      <g transform="translate(31.5125 172.403992)scale(0.1 -0.1)">
       <use xlink:href="#DejaVuSans-49"/>
       <use x="63.623047" xlink:href="#DejaVuSans-48"/>
       <use x="127.246094" xlink:href="#DejaVuSans-48"/>
      </g>
     </g>
    </g>
    <g id="ytick_6">
     <g id="line2d_12">
      <g>
       <use style="stroke:#000000;stroke-width:0.8;" x="57.6" xlink:href="#mab4c19bdee" y="135.075733"/>
      </g>
     </g>
     <g id="text_12">
      <!-- 125 -->
      <g transform="translate(31.5125 138.874952)scale(0.1 -0.1)">
       <use xlink:href="#DejaVuSans-49"/>
       <use x="63.623047" xlink:href="#DejaVuSans-50"/>
       <use x="127.246094" xlink:href="#DejaVuSans-53"/>
      </g>
     </g>
    </g>
    <g id="ytick_7">
     <g id="line2d_13">
      <g>
       <use style="stroke:#000000;stroke-width:0.8;" x="57.6" xlink:href="#mab4c19bdee" y="101.546693"/>
      </g>
     </g>
     <g id="text_13">
      <!-- 150 -->
      <g transform="translate(31.5125 105.345912)scale(0.1 -0.1)">
       <use xlink:href="#DejaVuSans-49"/>
       <use x="63.623047" xlink:href="#DejaVuSans-53"/>
       <use x="127.246094" xlink:href="#DejaVuSans-48"/>
      </g>
     </g>
    </g>
    <g id="ytick_8">
     <g id="line2d_14">
      <g>
       <use style="stroke:#000000;stroke-width:0.8;" x="57.6" xlink:href="#mab4c19bdee" y="68.017654"/>
      </g>
     </g>
     <g id="text_14">
      <!-- 175 -->
      <g transform="translate(31.5125 71.816872)scale(0.1 -0.1)">
       <use xlink:href="#DejaVuSans-49"/>
       <use x="63.623047" xlink:href="#DejaVuSans-55"/>
       <use x="127.246094" xlink:href="#DejaVuSans-53"/>
      </g>
     </g>
    </g>
   </g>
   <g id="line2d_15">
    <path clip-path="url(#p4d145fe6e0)" d="M 304.103584 63.994169 
L 295.148648 62.500115 
L 286.508885 61.266246 
L 278.185637 60.293904 
L 270.178902 59.581747 
L 262.48734 59.129776 
L 255.110951 58.939331 
L 248.051077 59.009071 
L 241.307716 59.338997 
L 234.879529 59.930449 
L 229.964172 60.591642 
L 225.25133 61.417797 
L 220.741003 62.412939 
L 216.433192 63.573044 
L 212.326556 64.900794 
L 208.422434 66.394848 
L 204.720828 68.056547 
L 201.220396 69.884551 
L 197.92248 71.880199 
L 194.827079 74.042151 
L 191.934194 76.370408 
L 189.242482 78.864969 
L 186.753286 81.527174 
L 184.466606 84.357025 
L 182.382441 87.351839 
L 180.49945 90.514298 
L 178.820315 93.844402 
L 177.341014 97.340811 
L 176.06557 101.003523 
L 174.991299 104.832539 
L 174.119544 108.829201 
L 173.450304 112.993508 
L 172.98358 117.322777 
L 172.71803 121.821033 
L 172.654996 126.484252 
L 172.794476 131.315116 
L 173.135131 136.312284 
L 173.845947 142.794118 
L 174.873277 149.536137 
L 176.21578 156.538342 
L 177.874797 163.802073 
L 179.848986 171.32599 
L 182.13969 179.110092 
L 184.745567 187.15572 
L 187.667958 195.461534 
L 190.906864 204.027533 
L 194.459601 212.855059 
L 199.141596 223.79089 
L 204.278245 235.102247 
L 209.869547 246.79047 
L 215.916845 258.852878 
L 222.417455 271.289469 
L 229.37406 284.102927 
L 234.263936 292.854006 
L 234.263936 292.854006 
" style="fill:none;stroke:#fea952;stroke-linecap:square;"/>
   </g>
   <g id="line2d_16">
    <path clip-path="url(#p4d145fe6e0)" d="M 303.17485 69.277812 
L 294.341149 67.80364 
L 285.833087 66.588156 
L 277.648785 65.631621 
L 269.797991 64.932853 
L 262.276561 64.49028 
L 255.085907 64.303919 
L 248.229102 64.370763 
L 241.707441 64.688731 
L 235.520959 65.256611 
L 229.666306 66.070964 
L 225.228262 66.896815 
L 221.012753 67.873967 
L 217.007635 69.003583 
L 213.218074 70.28083 
L 209.634068 71.708279 
L 206.274693 73.271119 
L 203.118247 74.978652 
L 200.16327 76.829276 
L 197.412097 78.816759 
L 194.859371 80.939668 
L 192.488405 83.21282 
L 190.303165 85.630945 
L 188.301886 88.194749 
L 186.477805 90.91239 
L 184.829447 93.788766 
L 183.355955 96.830649 
L 182.056331 100.041755 
L 180.932668 103.433176 
L 179.98864 106.996406 
L 179.224406 110.739355 
L 178.644713 114.669616 
L 178.251182 118.778543 
L 178.046891 123.069508 
L 178.034263 127.550845 
L 178.214007 132.208235 
L 178.591121 137.053375 
L 179.161302 142.068564 
L 180.155774 148.600909 
L 181.4612 155.413622 
L 183.079821 162.50317 
L 185.012128 169.869488 
L 187.260138 177.509952 
L 189.823173 185.424435 
L 192.702587 193.608982 
L 195.900156 202.066294 
L 199.410159 210.788321 
L 204.045184 221.615056 
L 209.136648 232.827307 
L 214.68271 244.421314 
L 220.688577 256.401346 
L 227.148383 268.760092 
L 234.06729 281.504268 
L 238.937426 290.220013 
L 238.937426 290.220013 
" style="fill:none;stroke:#ffffff;stroke-linecap:square;"/>
   </g>
   <g id="line2d_17">
    <path clip-path="url(#p4d145fe6e0)" d="M 305.032319 58.710526 
L 295.956148 57.19659 
L 287.184684 55.944336 
L 278.722489 54.956187 
L 270.559813 54.230641 
L 262.69812 53.769272 
L 255.135996 53.574743 
L 247.873052 53.64738 
L 240.907992 53.989263 
L 235.550285 54.458858 
L 230.379831 55.105033 
L 225.406245 55.926874 
L 220.607013 56.930105 
L 216.002065 58.113484 
L 211.584735 59.481913 
L 207.361267 61.035594 
L 203.3263 62.779992 
L 199.484518 64.715297 
L 195.840102 66.84452 
L 192.399065 69.167308 
L 189.165029 71.683754 
L 186.151102 74.386275 
L 184.025734 76.543115 
L 182.023185 78.807482 
L 179.553031 81.98385 
L 177.308028 85.341671 
L 175.292333 88.873365 
L 173.506802 92.574842 
L 171.949752 96.439705 
L 170.624454 100.456861 
L 169.52187 104.637498 
L 168.641839 108.971024 
L 167.984981 113.449846 
L 167.544309 118.085292 
L 167.319429 122.87131 
L 167.307916 127.802244 
L 167.50638 132.889734 
L 167.915186 138.122082 
L 168.530592 143.519672 
L 169.590779 150.471366 
L 170.970359 157.663062 
L 172.669772 165.100976 
L 174.685845 172.782492 
L 177.019243 180.710232 
L 179.667961 188.887005 
L 182.63333 197.314085 
L 185.913571 205.988772 
L 189.509043 214.921796 
L 194.238008 225.966725 
L 199.419842 237.377187 
L 205.056385 249.159626 
L 211.145113 261.304409 
L 217.686527 273.818846 
L 224.680831 286.701586 
L 229.590446 295.488 
L 229.590446 295.488 
" style="fill:none;stroke:#ffffff;stroke-linecap:square;"/>
   </g>
   <g id="patch_3">
    <path d="M 57.6 307.584 
L 57.6 41.472 
" style="fill:none;stroke:#000000;stroke-linecap:square;stroke-linejoin:miter;stroke-width:0.8;"/>
   </g>
   <g id="patch_4">
    <path d="M 414.72 307.584 
L 414.72 41.472 
" style="fill:none;stroke:#000000;stroke-linecap:square;stroke-linejoin:miter;stroke-width:0.8;"/>
   </g>
   <g id="patch_5">
    <path d="M 57.6 307.584 
L 414.72 307.584 
" style="fill:none;stroke:#000000;stroke-linecap:square;stroke-linejoin:miter;stroke-width:0.8;"/>
   </g>
   <g id="patch_6">
    <path d="M 57.6 41.472 
L 414.72 41.472 
" style="fill:none;stroke:#000000;stroke-linecap:square;stroke-linejoin:miter;stroke-width:0.8;"/>
   </g>
  </g>
 </g>
 <defs>
  <clipPath id="p4d145fe6e0">
   <rect height="266.112" width="357.12" x="57.6" y="41.472"/>
  </clipPath>
 </defs>
</svg>
