<?xml version="1.0" encoding="utf-8" standalone="no"?>
<!DOCTYPE svg PUBLIC "-//W3C//DTD SVG 1.1//EN"
  "http://www.w3.org/Graphics/SVG/1.1/DTD/svg11.dtd">
<!-- Created with matplotlib (https://matplotlib.org/) -->
<svg height="345.6pt" version="1.1" viewBox="0 0 460.8 345.6" width="460.8pt" xmlns="http://www.w3.org/2000/svg" xmlns:xlink="http://www.w3.org/1999/xlink">
 <metadata>
  <rdf:RDF xmlns:cc="http://creativecommons.org/ns#" xmlns:dc="http://purl.org/dc/elements/1.1/" xmlns:rdf="http://www.w3.org/1999/02/22-rdf-syntax-ns#">
   <cc:Work>
    <dc:type rdf:resource="http://purl.org/dc/dcmitype/StillImage"/>
    <dc:date>2021-07-12T20:02:16.206006</dc:date>
    <dc:format>image/svg+xml</dc:format>
    <dc:creator>
     <cc:Agent>
      <dc:title>Matplotlib v3.3.3, https://matplotlib.org/</dc:title>
     </cc:Agent>
    </dc:creator>
   </cc:Work>
  </rdf:RDF>
 </metadata>
 <defs>
  <style type="text/css">*{stroke-linecap:butt;stroke-linejoin:round;}</style>
 </defs>
 <g id="figure_1">
  <g id="patch_1">
   <path d="M 0 345.6 
L 460.8 345.6 
L 460.8 0 
L 0 0 
z
" style="fill:#ffffff;"/>
  </g>
  <g id="axes_1">
   <g id="patch_2">
    <path d="M 57.6 307.584 
L 414.72 307.584 
L 414.72 41.472 
L 57.6 41.472 
z
" style="fill:#7d9051;"/>
   </g>
   <g id="matplotlib.axis_1">
    <g id="xtick_1">
     <g id="line2d_1">
      <defs>
       <path d="M 0 0 
L 0 3.5 
" id="m63b8952a81" style="stroke:#000000;stroke-width:0.8;"/>
      </defs>
      <g>
       <use style="stroke:#000000;stroke-width:0.8;" x="90.000139" xlink:href="#m63b8952a81" y="307.584"/>
      </g>
     </g>
     <g id="text_1">
      <!-- 90 -->
      <g transform="translate(83.637639 322.182437)scale(0.1 -0.1)">
       <defs>
        <path d="M 10.984375 1.515625 
L 10.984375 10.5 
Q 14.703125 8.734375 18.5 7.8125 
Q 22.3125 6.890625 25.984375 6.890625 
Q 35.75 6.890625 40.890625 13.453125 
Q 46.046875 20.015625 46.78125 33.40625 
Q 43.953125 29.203125 39.59375 26.953125 
Q 35.25 24.703125 29.984375 24.703125 
Q 19.046875 24.703125 12.671875 31.3125 
Q 6.296875 37.9375 6.296875 49.421875 
Q 6.296875 60.640625 12.9375 67.421875 
Q 19.578125 74.21875 30.609375 74.21875 
Q 43.265625 74.21875 49.921875 64.515625 
Q 56.59375 54.828125 56.59375 36.375 
Q 56.59375 19.140625 48.40625 8.859375 
Q 40.234375 -1.421875 26.421875 -1.421875 
Q 22.703125 -1.421875 18.890625 -0.6875 
Q 15.09375 0.046875 10.984375 1.515625 
z
M 30.609375 32.421875 
Q 37.25 32.421875 41.125 36.953125 
Q 45.015625 41.5 45.015625 49.421875 
Q 45.015625 57.28125 41.125 61.84375 
Q 37.25 66.40625 30.609375 66.40625 
Q 23.96875 66.40625 20.09375 61.84375 
Q 16.21875 57.28125 16.21875 49.421875 
Q 16.21875 41.5 20.09375 36.953125 
Q 23.96875 32.421875 30.609375 32.421875 
z
" id="DejaVuSans-57"/>
        <path d="M 31.78125 66.40625 
Q 24.171875 66.40625 20.328125 58.90625 
Q 16.5 51.421875 16.5 36.375 
Q 16.5 21.390625 20.328125 13.890625 
Q 24.171875 6.390625 31.78125 6.390625 
Q 39.453125 6.390625 43.28125 13.890625 
Q 47.125 21.390625 47.125 36.375 
Q 47.125 51.421875 43.28125 58.90625 
Q 39.453125 66.40625 31.78125 66.40625 
z
M 31.78125 74.21875 
Q 44.046875 74.21875 50.515625 64.515625 
Q 56.984375 54.828125 56.984375 36.375 
Q 56.984375 17.96875 50.515625 8.265625 
Q 44.046875 -1.421875 31.78125 -1.421875 
Q 19.53125 -1.421875 13.0625 8.265625 
Q 6.59375 17.96875 6.59375 36.375 
Q 6.59375 54.828125 13.0625 64.515625 
Q 19.53125 74.21875 31.78125 74.21875 
z
" id="DejaVuSans-48"/>
       </defs>
       <use xlink:href="#DejaVuSans-57"/>
       <use x="63.623047" xlink:href="#DejaVuSans-48"/>
      </g>
     </g>
    </g>
    <g id="xtick_2">
     <g id="line2d_2">
      <g>
       <use style="stroke:#000000;stroke-width:0.8;" x="130.401318" xlink:href="#m63b8952a81" y="307.584"/>
      </g>
     </g>
     <g id="text_2">
      <!-- 100 -->
      <g transform="translate(120.857568 322.182437)scale(0.1 -0.1)">
       <defs>
        <path d="M 12.40625 8.296875 
L 28.515625 8.296875 
L 28.515625 63.921875 
L 10.984375 60.40625 
L 10.984375 69.390625 
L 28.421875 72.90625 
L 38.28125 72.90625 
L 38.28125 8.296875 
L 54.390625 8.296875 
L 54.390625 0 
L 12.40625 0 
z
" id="DejaVuSans-49"/>
       </defs>
       <use xlink:href="#DejaVuSans-49"/>
       <use x="63.623047" xlink:href="#DejaVuSans-48"/>
       <use x="127.246094" xlink:href="#DejaVuSans-48"/>
      </g>
     </g>
    </g>
    <g id="xtick_3">
     <g id="line2d_3">
      <g>
       <use style="stroke:#000000;stroke-width:0.8;" x="170.802498" xlink:href="#m63b8952a81" y="307.584"/>
      </g>
     </g>
     <g id="text_3">
      <!-- 110 -->
      <g transform="translate(161.258748 322.182437)scale(0.1 -0.1)">
       <use xlink:href="#DejaVuSans-49"/>
       <use x="63.623047" xlink:href="#DejaVuSans-49"/>
       <use x="127.246094" xlink:href="#DejaVuSans-48"/>
      </g>
     </g>
    </g>
    <g id="xtick_4">
     <g id="line2d_4">
      <g>
       <use style="stroke:#000000;stroke-width:0.8;" x="211.203677" xlink:href="#m63b8952a81" y="307.584"/>
      </g>
     </g>
     <g id="text_4">
      <!-- 120 -->
      <g transform="translate(201.659927 322.182437)scale(0.1 -0.1)">
       <defs>
        <path d="M 19.1875 8.296875 
L 53.609375 8.296875 
L 53.609375 0 
L 7.328125 0 
L 7.328125 8.296875 
Q 12.9375 14.109375 22.625 23.890625 
Q 32.328125 33.6875 34.8125 36.53125 
Q 39.546875 41.84375 41.421875 45.53125 
Q 43.3125 49.21875 43.3125 52.78125 
Q 43.3125 58.59375 39.234375 62.25 
Q 35.15625 65.921875 28.609375 65.921875 
Q 23.96875 65.921875 18.8125 64.3125 
Q 13.671875 62.703125 7.8125 59.421875 
L 7.8125 69.390625 
Q 13.765625 71.78125 18.9375 73 
Q 24.125 74.21875 28.421875 74.21875 
Q 39.75 74.21875 46.484375 68.546875 
Q 53.21875 62.890625 53.21875 53.421875 
Q 53.21875 48.921875 51.53125 44.890625 
Q 49.859375 40.875 45.40625 35.40625 
Q 44.1875 33.984375 37.640625 27.21875 
Q 31.109375 20.453125 19.1875 8.296875 
z
" id="DejaVuSans-50"/>
       </defs>
       <use xlink:href="#DejaVuSans-49"/>
       <use x="63.623047" xlink:href="#DejaVuSans-50"/>
       <use x="127.246094" xlink:href="#DejaVuSans-48"/>
      </g>
     </g>
    </g>
    <g id="xtick_5">
     <g id="line2d_5">
      <g>
       <use style="stroke:#000000;stroke-width:0.8;" x="251.604856" xlink:href="#m63b8952a81" y="307.584"/>
      </g>
     </g>
     <g id="text_5">
      <!-- 130 -->
      <g transform="translate(242.061106 322.182437)scale(0.1 -0.1)">
       <defs>
        <path d="M 40.578125 39.3125 
Q 47.65625 37.796875 51.625 33 
Q 55.609375 28.21875 55.609375 21.1875 
Q 55.609375 10.40625 48.1875 4.484375 
Q 40.765625 -1.421875 27.09375 -1.421875 
Q 22.515625 -1.421875 17.65625 -0.515625 
Q 12.796875 0.390625 7.625 2.203125 
L 7.625 11.71875 
Q 11.71875 9.328125 16.59375 8.109375 
Q 21.484375 6.890625 26.8125 6.890625 
Q 36.078125 6.890625 40.9375 10.546875 
Q 45.796875 14.203125 45.796875 21.1875 
Q 45.796875 27.640625 41.28125 31.265625 
Q 36.765625 34.90625 28.71875 34.90625 
L 20.21875 34.90625 
L 20.21875 43.015625 
L 29.109375 43.015625 
Q 36.375 43.015625 40.234375 45.921875 
Q 44.09375 48.828125 44.09375 54.296875 
Q 44.09375 59.90625 40.109375 62.90625 
Q 36.140625 65.921875 28.71875 65.921875 
Q 24.65625 65.921875 20.015625 65.03125 
Q 15.375 64.15625 9.8125 62.3125 
L 9.8125 71.09375 
Q 15.4375 72.65625 20.34375 73.4375 
Q 25.25 74.21875 29.59375 74.21875 
Q 40.828125 74.21875 47.359375 69.109375 
Q 53.90625 64.015625 53.90625 55.328125 
Q 53.90625 49.265625 50.4375 45.09375 
Q 46.96875 40.921875 40.578125 39.3125 
z
" id="DejaVuSans-51"/>
       </defs>
       <use xlink:href="#DejaVuSans-49"/>
       <use x="63.623047" xlink:href="#DejaVuSans-51"/>
       <use x="127.246094" xlink:href="#DejaVuSans-48"/>
      </g>
     </g>
    </g>
    <g id="xtick_6">
     <g id="line2d_6">
      <g>
       <use style="stroke:#000000;stroke-width:0.8;" x="292.006036" xlink:href="#m63b8952a81" y="307.584"/>
      </g>
     </g>
     <g id="text_6">
      <!-- 140 -->
      <g transform="translate(282.462286 322.182437)scale(0.1 -0.1)">
       <defs>
        <path d="M 37.796875 64.3125 
L 12.890625 25.390625 
L 37.796875 25.390625 
z
M 35.203125 72.90625 
L 47.609375 72.90625 
L 47.609375 25.390625 
L 58.015625 25.390625 
L 58.015625 17.1875 
L 47.609375 17.1875 
L 47.609375 0 
L 37.796875 0 
L 37.796875 17.1875 
L 4.890625 17.1875 
L 4.890625 26.703125 
z
" id="DejaVuSans-52"/>
       </defs>
       <use xlink:href="#DejaVuSans-49"/>
       <use x="63.623047" xlink:href="#DejaVuSans-52"/>
       <use x="127.246094" xlink:href="#DejaVuSans-48"/>
      </g>
     </g>
    </g>
    <g id="xtick_7">
     <g id="line2d_7">
      <g>
       <use style="stroke:#000000;stroke-width:0.8;" x="332.407215" xlink:href="#m63b8952a81" y="307.584"/>
      </g>
     </g>
     <g id="text_7">
      <!-- 150 -->
      <g transform="translate(322.863465 322.182437)scale(0.1 -0.1)">
       <defs>
        <path d="M 10.796875 72.90625 
L 49.515625 72.90625 
L 49.515625 64.59375 
L 19.828125 64.59375 
L 19.828125 46.734375 
Q 21.96875 47.46875 24.109375 47.828125 
Q 26.265625 48.1875 28.421875 48.1875 
Q 40.625 48.1875 47.75 41.5 
Q 54.890625 34.8125 54.890625 23.390625 
Q 54.890625 11.625 47.5625 5.09375 
Q 40.234375 -1.421875 26.90625 -1.421875 
Q 22.3125 -1.421875 17.546875 -0.640625 
Q 12.796875 0.140625 7.71875 1.703125 
L 7.71875 11.625 
Q 12.109375 9.234375 16.796875 8.0625 
Q 21.484375 6.890625 26.703125 6.890625 
Q 35.15625 6.890625 40.078125 11.328125 
Q 45.015625 15.765625 45.015625 23.390625 
Q 45.015625 31 40.078125 35.4375 
Q 35.15625 39.890625 26.703125 39.890625 
Q 22.75 39.890625 18.8125 39.015625 
Q 14.890625 38.140625 10.796875 36.28125 
z
" id="DejaVuSans-53"/>
       </defs>
       <use xlink:href="#DejaVuSans-49"/>
       <use x="63.623047" xlink:href="#DejaVuSans-53"/>
       <use x="127.246094" xlink:href="#DejaVuSans-48"/>
      </g>
     </g>
    </g>
    <g id="xtick_8">
     <g id="line2d_8">
      <g>
       <use style="stroke:#000000;stroke-width:0.8;" x="372.808395" xlink:href="#m63b8952a81" y="307.584"/>
      </g>
     </g>
     <g id="text_8">
      <!-- 160 -->
      <g transform="translate(363.264645 322.182437)scale(0.1 -0.1)">
       <defs>
        <path d="M 33.015625 40.375 
Q 26.375 40.375 22.484375 35.828125 
Q 18.609375 31.296875 18.609375 23.390625 
Q 18.609375 15.53125 22.484375 10.953125 
Q 26.375 6.390625 33.015625 6.390625 
Q 39.65625 6.390625 43.53125 10.953125 
Q 47.40625 15.53125 47.40625 23.390625 
Q 47.40625 31.296875 43.53125 35.828125 
Q 39.65625 40.375 33.015625 40.375 
z
M 52.59375 71.296875 
L 52.59375 62.3125 
Q 48.875 64.0625 45.09375 64.984375 
Q 41.3125 65.921875 37.59375 65.921875 
Q 27.828125 65.921875 22.671875 59.328125 
Q 17.53125 52.734375 16.796875 39.40625 
Q 19.671875 43.65625 24.015625 45.921875 
Q 28.375 48.1875 33.59375 48.1875 
Q 44.578125 48.1875 50.953125 41.515625 
Q 57.328125 34.859375 57.328125 23.390625 
Q 57.328125 12.15625 50.6875 5.359375 
Q 44.046875 -1.421875 33.015625 -1.421875 
Q 20.359375 -1.421875 13.671875 8.265625 
Q 6.984375 17.96875 6.984375 36.375 
Q 6.984375 53.65625 15.1875 63.9375 
Q 23.390625 74.21875 37.203125 74.21875 
Q 40.921875 74.21875 44.703125 73.484375 
Q 48.484375 72.75 52.59375 71.296875 
z
" id="DejaVuSans-54"/>
       </defs>
       <use xlink:href="#DejaVuSans-49"/>
       <use x="63.623047" xlink:href="#DejaVuSans-54"/>
       <use x="127.246094" xlink:href="#DejaVuSans-48"/>
      </g>
     </g>
    </g>
    <g id="xtick_9">
     <g id="line2d_9">
      <g>
       <use style="stroke:#000000;stroke-width:0.8;" x="413.209574" xlink:href="#m63b8952a81" y="307.584"/>
      </g>
     </g>
     <g id="text_9">
      <!-- 170 -->
      <g transform="translate(403.665824 322.182437)scale(0.1 -0.1)">
       <defs>
        <path d="M 8.203125 72.90625 
L 55.078125 72.90625 
L 55.078125 68.703125 
L 28.609375 0 
L 18.3125 0 
L 43.21875 64.59375 
L 8.203125 64.59375 
z
" id="DejaVuSans-55"/>
       </defs>
       <use xlink:href="#DejaVuSans-49"/>
       <use x="63.623047" xlink:href="#DejaVuSans-55"/>
       <use x="127.246094" xlink:href="#DejaVuSans-48"/>
      </g>
     </g>
    </g>
   </g>
   <g id="matplotlib.axis_2">
    <g id="ytick_1">
     <g id="line2d_10">
      <defs>
       <path d="M 0 0 
L -3.5 0 
" id="mb42a028bfb" style="stroke:#000000;stroke-width:0.8;"/>
      </defs>
      <g>
       <use style="stroke:#000000;stroke-width:0.8;" x="57.6" xlink:href="#mb42a028bfb" y="270.987871"/>
      </g>
     </g>
     <g id="text_10">
      <!-- 110 -->
      <g transform="translate(31.5125 274.787089)scale(0.1 -0.1)">
       <use xlink:href="#DejaVuSans-49"/>
       <use x="63.623047" xlink:href="#DejaVuSans-49"/>
       <use x="127.246094" xlink:href="#DejaVuSans-48"/>
      </g>
     </g>
    </g>
    <g id="ytick_2">
     <g id="line2d_11">
      <g>
       <use style="stroke:#000000;stroke-width:0.8;" x="57.6" xlink:href="#mb42a028bfb" y="230.586691"/>
      </g>
     </g>
     <g id="text_11">
      <!-- 120 -->
      <g transform="translate(31.5125 234.38591)scale(0.1 -0.1)">
       <use xlink:href="#DejaVuSans-49"/>
       <use x="63.623047" xlink:href="#DejaVuSans-50"/>
       <use x="127.246094" xlink:href="#DejaVuSans-48"/>
      </g>
     </g>
    </g>
    <g id="ytick_3">
     <g id="line2d_12">
      <g>
       <use style="stroke:#000000;stroke-width:0.8;" x="57.6" xlink:href="#mb42a028bfb" y="190.185512"/>
      </g>
     </g>
     <g id="text_12">
      <!-- 130 -->
      <g transform="translate(31.5125 193.984731)scale(0.1 -0.1)">
       <use xlink:href="#DejaVuSans-49"/>
       <use x="63.623047" xlink:href="#DejaVuSans-51"/>
       <use x="127.246094" xlink:href="#DejaVuSans-48"/>
      </g>
     </g>
    </g>
    <g id="ytick_4">
     <g id="line2d_13">
      <g>
       <use style="stroke:#000000;stroke-width:0.8;" x="57.6" xlink:href="#mb42a028bfb" y="149.784332"/>
      </g>
     </g>
     <g id="text_13">
      <!-- 140 -->
      <g transform="translate(31.5125 153.583551)scale(0.1 -0.1)">
       <use xlink:href="#DejaVuSans-49"/>
       <use x="63.623047" xlink:href="#DejaVuSans-52"/>
       <use x="127.246094" xlink:href="#DejaVuSans-48"/>
      </g>
     </g>
    </g>
    <g id="ytick_5">
     <g id="line2d_14">
      <g>
       <use style="stroke:#000000;stroke-width:0.8;" x="57.6" xlink:href="#mb42a028bfb" y="109.383153"/>
      </g>
     </g>
     <g id="text_14">
      <!-- 150 -->
      <g transform="translate(31.5125 113.182372)scale(0.1 -0.1)">
       <use xlink:href="#DejaVuSans-49"/>
       <use x="63.623047" xlink:href="#DejaVuSans-53"/>
       <use x="127.246094" xlink:href="#DejaVuSans-48"/>
      </g>
     </g>
    </g>
    <g id="ytick_6">
     <g id="line2d_15">
      <g>
       <use style="stroke:#000000;stroke-width:0.8;" x="57.6" xlink:href="#mb42a028bfb" y="68.981974"/>
      </g>
     </g>
     <g id="text_15">
      <!-- 160 -->
      <g transform="translate(31.5125 72.781192)scale(0.1 -0.1)">
       <use xlink:href="#DejaVuSans-49"/>
       <use x="63.623047" xlink:href="#DejaVuSans-54"/>
       <use x="127.246094" xlink:href="#DejaVuSans-48"/>
      </g>
     </g>
    </g>
   </g>
   <g id="line2d_16">
    <path clip-path="url(#p26278de967)" d="M 384.928748 190.185512 
L 382.371354 186.242357 
L 379.793758 182.408285 
L 377.191922 178.679256 
L 374.565846 175.05931 
L 371.915528 171.544408 
L 369.24501 168.142628 
L 366.554292 164.841852 
L 363.835293 161.650159 
L 361.096093 158.567549 
L 358.332652 155.594022 
L 355.549011 152.725538 
L 352.741129 149.966138 
L 349.909006 147.31178 
L 347.056683 144.766506 
L 344.180119 142.326275 
L 341.279314 139.995127 
L 338.358309 137.773062 
L 335.413063 135.65604 
L 332.443576 133.648101 
L 329.453889 131.745206 
L 326.439961 129.951393 
L 323.401792 128.266664 
L 320.343423 126.686978 
L 317.260813 125.216375 
L 314.153962 123.850815 
L 311.026911 122.598379 
L 307.875619 121.446945 
L 304.700086 120.404595 
L 301.504353 119.471328 
L 298.284379 118.647143 
L 295.040164 117.928002 
L 291.775749 117.313905 
L 288.487093 116.80889 
L 285.174196 116.412958 
L 281.841099 116.12611 
L 278.483761 115.944305 
L 275.102182 115.867542 
L 271.700403 115.899863 
L 268.274383 116.041267 
L 264.824122 116.291755 
L 261.353661 116.647285 
L 257.858959 117.107859 
L 254.344056 117.677515 
L 250.800873 118.356255 
L 247.237489 119.140038 
L 243.653904 120.032904 
L 240.046079 121.034853 
L 236.414013 122.141845 
L 232.757706 123.357921 
L 229.081199 124.67904 
L 225.380451 126.109241 
L 221.659502 127.648526 
L 217.910273 129.292854 
L 214.140843 131.046265 
L 210.351212 132.90472 
L 206.537341 134.872257 
L 202.699229 136.944838 
L 198.836876 139.130541 
L 194.954323 141.417248 
L 191.047529 143.817078 
L 187.120534 146.321951 
L 183.169299 148.931868 
L 179.193823 151.650867 
L 175.194106 154.478949 
L 171.174189 157.412075 
L 167.13003 160.454284 
L 163.065672 163.605576 
L 158.977072 166.861911 
L 154.864232 170.227329 
L 150.727152 173.69779 
L 146.56987 177.277335 
L 142.392388 180.961923 
L 138.186626 184.755593 
L 133.960662 188.658347 
L 129.710458 192.666144 
L 125.440053 196.783024 
L 121.145408 201.008988 
L 116.826522 205.339994 
L 112.483395 209.776044 
L 108.120068 214.325216 
L 103.73654 218.979432 
L 99.324731 223.738691 
L 94.892722 228.607033 
L 90.436472 233.584459 
L 85.960021 238.666927 
" style="fill:none;stroke:#fea952;stroke-linecap:square;"/>
   </g>
   <g id="line2d_17">
    <path clip-path="url(#p26278de967)" d="M 371.370224 198.979104 
L 368.959917 195.258686 
L 366.540433 191.655458 
L 364.111011 188.168756 
L 361.662428 184.788784 
L 359.204063 181.523361 
L 356.719072 178.353491 
L 354.252527 175.32171 
L 351.755059 172.384626 
L 349.258388 169.568894 
L 346.735249 166.848403 
L 344.221772 164.251791 
L 341.689996 161.757377 
L 339.149271 159.369515 
L 336.602442 157.090048 
L 334.056962 154.923201 
L 331.49502 152.857026 
L 328.926104 150.895347 
L 326.360772 149.043231 
L 323.766223 147.28131 
L 321.188723 145.632174 
L 318.602914 144.084389 
L 315.985558 142.624948 
L 313.385107 141.272679 
L 310.75817 140.01085 
L 308.145431 138.852762 
L 305.480751 137.777343 
L 302.835609 136.801395 
L 300.169883 135.917109 
L 297.497107 135.127088 
L 294.787003 134.424634 
L 292.052481 133.809898 
L 289.322857 133.287137 
L 286.569367 132.855172 
L 283.788538 132.513915 
L 280.967264 132.262939 
L 278.117011 132.100614 
L 275.255719 132.027285 
L 272.366836 132.046588 
L 269.444546 132.159318 
L 266.471057 132.368087 
L 263.465221 132.669213 
L 260.444336 133.060184 
L 257.384507 133.549393 
L 254.272458 134.13944 
L 251.144499 134.821113 
L 247.978256 135.604058 
L 244.757546 136.493279 
L 241.514235 137.476401 
L 238.222695 138.566299 
L 234.906723 139.752994 
L 231.558004 141.042382 
L 228.150307 142.448199 
L 224.726241 143.945616 
L 221.256436 145.555889 
L 217.760385 147.266649 
L 214.215971 149.091943 
L 210.658377 151.009432 
L 207.038158 153.055333 
L 203.412859 155.187289 
L 199.738197 157.441803 
L 196.027398 159.806336 
L 192.292427 162.270884 
L 188.523758 164.846061 
L 184.71951 167.533739 
L 180.88904 170.326505 
L 177.032253 173.225612 
L 173.133595 176.24669 
L 169.211163 179.368879 
L 165.250295 182.608386 
L 161.271664 185.944182 
L 157.259662 189.397121 
L 153.216542 192.961862 
L 149.15078 196.627752 
L 145.04763 200.415898 
L 140.92659 204.300542 
L 136.774753 208.30194 
L 132.588588 212.420144 
L 128.374005 216.64559 
L 124.146321 220.962509 
L 119.884225 225.405174 
L 115.588141 229.965806 
L 111.27488 234.61779 
L 106.93285 239.386466 
L 102.563765 244.265732 
L 98.087315 249.3482 
" style="fill:none;stroke:#ffffff;stroke-linecap:square;"/>
   </g>
   <g id="line2d_18">
    <path clip-path="url(#p26278de967)" d="M 398.487273 181.39192 
L 395.782791 177.226027 
L 393.047083 173.161111 
L 390.272834 169.189756 
L 387.469264 165.329837 
L 384.626994 161.565455 
L 381.770949 157.931766 
L 378.856057 154.361994 
L 375.915527 150.915691 
L 372.933797 147.566204 
L 369.930055 144.339641 
L 366.876249 141.199285 
L 363.792261 138.174899 
L 360.668741 135.254046 
L 357.510924 132.442964 
L 354.303275 129.729349 
L 351.063608 127.133228 
L 347.790514 124.650777 
L 344.465354 122.268849 
L 341.120929 120.014892 
L 337.719055 117.858238 
L 334.277007 115.818398 
L 330.818026 113.90838 
L 327.301739 112.101277 
L 323.763456 110.421901 
L 320.162494 108.848869 
L 316.573071 107.419415 
L 312.915629 106.092495 
L 309.23029 104.89208 
L 305.511599 103.815567 
L 301.781756 102.869653 
L 298.027848 102.046107 
L 294.228641 101.340672 
L 290.404819 100.762608 
L 286.559854 100.312002 
L 282.714935 99.989281 
L 278.850511 99.787995 
L 274.948646 99.7078 
L 271.03397 99.753139 
L 267.10422 99.923216 
L 263.177187 100.215423 
L 259.242101 100.625358 
L 255.273582 101.155534 
L 251.303605 101.805637 
L 247.329288 102.573069 
L 243.330479 103.458963 
L 239.329553 104.46175 
L 235.334612 105.576427 
L 231.313791 106.80729 
L 227.292718 108.149543 
L 223.255675 109.605085 
L 219.202898 111.176101 
L 215.168698 112.848854 
L 211.094304 114.640093 
L 207.025249 116.536642 
L 202.942039 118.542791 
L 198.85871 120.652571 
L 194.740081 122.880243 
L 190.635594 125.20575 
L 186.495787 127.647208 
L 182.35686 130.192353 
L 178.213671 132.837567 
L 174.04617 135.592851 
L 169.863887 138.455673 
L 165.668702 141.42416 
L 161.459337 144.497645 
L 157.227808 147.682955 
L 152.997749 150.964462 
L 148.742982 154.354943 
L 144.47817 157.846273 
L 140.182639 161.451399 
L 135.880079 165.157549 
L 131.568235 168.961983 
L 127.222471 172.883434 
L 122.873694 176.900797 
L 118.494326 181.031746 
L 114.105354 185.264108 
L 109.702228 189.597832 
L 105.279039 194.034399 
L 100.820469 198.589578 
L 96.355911 203.245259 
L 91.884939 207.993059 
L 87.374582 212.859593 
L 82.852594 217.827601 
L 78.309178 222.903186 
L 73.832727 227.985654 
" style="fill:none;stroke:#ffffff;stroke-linecap:square;"/>
   </g>
   <g id="patch_3">
    <path d="M 57.6 307.584 
L 57.6 41.472 
" style="fill:none;stroke:#000000;stroke-linecap:square;stroke-linejoin:miter;stroke-width:0.8;"/>
   </g>
   <g id="patch_4">
    <path d="M 414.72 307.584 
L 414.72 41.472 
" style="fill:none;stroke:#000000;stroke-linecap:square;stroke-linejoin:miter;stroke-width:0.8;"/>
   </g>
   <g id="patch_5">
    <path d="M 57.6 307.584 
L 414.72 307.584 
" style="fill:none;stroke:#000000;stroke-linecap:square;stroke-linejoin:miter;stroke-width:0.8;"/>
   </g>
   <g id="patch_6">
    <path d="M 57.6 41.472 
L 414.72 41.472 
" style="fill:none;stroke:#000000;stroke-linecap:square;stroke-linejoin:miter;stroke-width:0.8;"/>
   </g>
  </g>
 </g>
 <defs>
  <clipPath id="p26278de967">
   <rect height="266.112" width="357.12" x="57.6" y="41.472"/>
  </clipPath>
 </defs>
</svg>
