<?xml version="1.0" encoding="utf-8" standalone="no"?>
<!DOCTYPE svg PUBLIC "-//W3C//DTD SVG 1.1//EN"
  "http://www.w3.org/Graphics/SVG/1.1/DTD/svg11.dtd">
<!-- Created with matplotlib (https://matplotlib.org/) -->
<svg height="345.6pt" version="1.1" viewBox="0 0 460.8 345.6" width="460.8pt" xmlns="http://www.w3.org/2000/svg" xmlns:xlink="http://www.w3.org/1999/xlink">
 <metadata>
  <rdf:RDF xmlns:cc="http://creativecommons.org/ns#" xmlns:dc="http://purl.org/dc/elements/1.1/" xmlns:rdf="http://www.w3.org/1999/02/22-rdf-syntax-ns#">
   <cc:Work>
    <dc:type rdf:resource="http://purl.org/dc/dcmitype/StillImage"/>
    <dc:date>2021-07-14T13:59:14.500429</dc:date>
    <dc:format>image/svg+xml</dc:format>
    <dc:creator>
     <cc:Agent>
      <dc:title>Matplotlib v3.3.3, https://matplotlib.org/</dc:title>
     </cc:Agent>
    </dc:creator>
   </cc:Work>
  </rdf:RDF>
 </metadata>
 <defs>
  <style type="text/css">*{stroke-linecap:butt;stroke-linejoin:round;}</style>
 </defs>
 <g id="figure_1">
  <g id="patch_1">
   <path d="M 0 345.6 
L 460.8 345.6 
L 460.8 0 
L 0 0 
z
" style="fill:#ffffff;"/>
  </g>
  <g id="axes_1">
   <g id="patch_2">
    <path d="M 57.6 307.584 
L 414.72 307.584 
L 414.72 41.472 
L 57.6 41.472 
z
" style="fill:#7d9051;"/>
   </g>
   <g id="matplotlib.axis_1">
    <g id="xtick_1">
     <g id="line2d_1">
      <defs>
       <path d="M 0 0 
L 0 3.5 
" id="mae39a367d9" style="stroke:#000000;stroke-width:0.8;"/>
      </defs>
      <g>
       <use style="stroke:#000000;stroke-width:0.8;" x="103.930774" xlink:href="#mae39a367d9" y="307.584"/>
      </g>
     </g>
     <g id="text_1">
      <!-- 50 -->
      <g transform="translate(97.568274 322.182437)scale(0.1 -0.1)">
       <defs>
        <path d="M 10.796875 72.90625 
L 49.515625 72.90625 
L 49.515625 64.59375 
L 19.828125 64.59375 
L 19.828125 46.734375 
Q 21.96875 47.46875 24.109375 47.828125 
Q 26.265625 48.1875 28.421875 48.1875 
Q 40.625 48.1875 47.75 41.5 
Q 54.890625 34.8125 54.890625 23.390625 
Q 54.890625 11.625 47.5625 5.09375 
Q 40.234375 -1.421875 26.90625 -1.421875 
Q 22.3125 -1.421875 17.546875 -0.640625 
Q 12.796875 0.140625 7.71875 1.703125 
L 7.71875 11.625 
Q 12.109375 9.234375 16.796875 8.0625 
Q 21.484375 6.890625 26.703125 6.890625 
Q 35.15625 6.890625 40.078125 11.328125 
Q 45.015625 15.765625 45.015625 23.390625 
Q 45.015625 31 40.078125 35.4375 
Q 35.15625 39.890625 26.703125 39.890625 
Q 22.75 39.890625 18.8125 39.015625 
Q 14.890625 38.140625 10.796875 36.28125 
z
" id="DejaVuSans-53"/>
        <path d="M 31.78125 66.40625 
Q 24.171875 66.40625 20.328125 58.90625 
Q 16.5 51.421875 16.5 36.375 
Q 16.5 21.390625 20.328125 13.890625 
Q 24.171875 6.390625 31.78125 6.390625 
Q 39.453125 6.390625 43.28125 13.890625 
Q 47.125 21.390625 47.125 36.375 
Q 47.125 51.421875 43.28125 58.90625 
Q 39.453125 66.40625 31.78125 66.40625 
z
M 31.78125 74.21875 
Q 44.046875 74.21875 50.515625 64.515625 
Q 56.984375 54.828125 56.984375 36.375 
Q 56.984375 17.96875 50.515625 8.265625 
Q 44.046875 -1.421875 31.78125 -1.421875 
Q 19.53125 -1.421875 13.0625 8.265625 
Q 6.59375 17.96875 6.59375 36.375 
Q 6.59375 54.828125 13.0625 64.515625 
Q 19.53125 74.21875 31.78125 74.21875 
z
" id="DejaVuSans-48"/>
       </defs>
       <use xlink:href="#DejaVuSans-53"/>
       <use x="63.623047" xlink:href="#DejaVuSans-48"/>
      </g>
     </g>
    </g>
    <g id="xtick_2">
     <g id="line2d_2">
      <g>
       <use style="stroke:#000000;stroke-width:0.8;" x="176.455763" xlink:href="#mae39a367d9" y="307.584"/>
      </g>
     </g>
     <g id="text_2">
      <!-- 100 -->
      <g transform="translate(166.912013 322.182437)scale(0.1 -0.1)">
       <defs>
        <path d="M 12.40625 8.296875 
L 28.515625 8.296875 
L 28.515625 63.921875 
L 10.984375 60.40625 
L 10.984375 69.390625 
L 28.421875 72.90625 
L 38.28125 72.90625 
L 38.28125 8.296875 
L 54.390625 8.296875 
L 54.390625 0 
L 12.40625 0 
z
" id="DejaVuSans-49"/>
       </defs>
       <use xlink:href="#DejaVuSans-49"/>
       <use x="63.623047" xlink:href="#DejaVuSans-48"/>
       <use x="127.246094" xlink:href="#DejaVuSans-48"/>
      </g>
     </g>
    </g>
    <g id="xtick_3">
     <g id="line2d_3">
      <g>
       <use style="stroke:#000000;stroke-width:0.8;" x="248.980753" xlink:href="#mae39a367d9" y="307.584"/>
      </g>
     </g>
     <g id="text_3">
      <!-- 150 -->
      <g transform="translate(239.437003 322.182437)scale(0.1 -0.1)">
       <use xlink:href="#DejaVuSans-49"/>
       <use x="63.623047" xlink:href="#DejaVuSans-53"/>
       <use x="127.246094" xlink:href="#DejaVuSans-48"/>
      </g>
     </g>
    </g>
    <g id="xtick_4">
     <g id="line2d_4">
      <g>
       <use style="stroke:#000000;stroke-width:0.8;" x="321.505742" xlink:href="#mae39a367d9" y="307.584"/>
      </g>
     </g>
     <g id="text_4">
      <!-- 200 -->
      <g transform="translate(311.961992 322.182437)scale(0.1 -0.1)">
       <defs>
        <path d="M 19.1875 8.296875 
L 53.609375 8.296875 
L 53.609375 0 
L 7.328125 0 
L 7.328125 8.296875 
Q 12.9375 14.109375 22.625 23.890625 
Q 32.328125 33.6875 34.8125 36.53125 
Q 39.546875 41.84375 41.421875 45.53125 
Q 43.3125 49.21875 43.3125 52.78125 
Q 43.3125 58.59375 39.234375 62.25 
Q 35.15625 65.921875 28.609375 65.921875 
Q 23.96875 65.921875 18.8125 64.3125 
Q 13.671875 62.703125 7.8125 59.421875 
L 7.8125 69.390625 
Q 13.765625 71.78125 18.9375 73 
Q 24.125 74.21875 28.421875 74.21875 
Q 39.75 74.21875 46.484375 68.546875 
Q 53.21875 62.890625 53.21875 53.421875 
Q 53.21875 48.921875 51.53125 44.890625 
Q 49.859375 40.875 45.40625 35.40625 
Q 44.1875 33.984375 37.640625 27.21875 
Q 31.109375 20.453125 19.1875 8.296875 
z
" id="DejaVuSans-50"/>
       </defs>
       <use xlink:href="#DejaVuSans-50"/>
       <use x="63.623047" xlink:href="#DejaVuSans-48"/>
       <use x="127.246094" xlink:href="#DejaVuSans-48"/>
      </g>
     </g>
    </g>
    <g id="xtick_5">
     <g id="line2d_5">
      <g>
       <use style="stroke:#000000;stroke-width:0.8;" x="394.030732" xlink:href="#mae39a367d9" y="307.584"/>
      </g>
     </g>
     <g id="text_5">
      <!-- 250 -->
      <g transform="translate(384.486982 322.182437)scale(0.1 -0.1)">
       <use xlink:href="#DejaVuSans-50"/>
       <use x="63.623047" xlink:href="#DejaVuSans-53"/>
       <use x="127.246094" xlink:href="#DejaVuSans-48"/>
      </g>
     </g>
    </g>
   </g>
   <g id="matplotlib.axis_2">
    <g id="ytick_1">
     <g id="line2d_6">
      <defs>
       <path d="M 0 0 
L -3.5 0 
" id="md110276793" style="stroke:#000000;stroke-width:0.8;"/>
      </defs>
      <g>
       <use style="stroke:#000000;stroke-width:0.8;" x="57.6" xlink:href="#md110276793" y="295.435836"/>
      </g>
     </g>
     <g id="text_6">
      <!-- 25 -->
      <g transform="translate(37.875 299.235055)scale(0.1 -0.1)">
       <use xlink:href="#DejaVuSans-50"/>
       <use x="63.623047" xlink:href="#DejaVuSans-53"/>
      </g>
     </g>
    </g>
    <g id="ytick_2">
     <g id="line2d_7">
      <g>
       <use style="stroke:#000000;stroke-width:0.8;" x="57.6" xlink:href="#md110276793" y="259.173342"/>
      </g>
     </g>
     <g id="text_7">
      <!-- 50 -->
      <g transform="translate(37.875 262.97256)scale(0.1 -0.1)">
       <use xlink:href="#DejaVuSans-53"/>
       <use x="63.623047" xlink:href="#DejaVuSans-48"/>
      </g>
     </g>
    </g>
    <g id="ytick_3">
     <g id="line2d_8">
      <g>
       <use style="stroke:#000000;stroke-width:0.8;" x="57.6" xlink:href="#md110276793" y="222.910847"/>
      </g>
     </g>
     <g id="text_8">
      <!-- 75 -->
      <g transform="translate(37.875 226.710066)scale(0.1 -0.1)">
       <defs>
        <path d="M 8.203125 72.90625 
L 55.078125 72.90625 
L 55.078125 68.703125 
L 28.609375 0 
L 18.3125 0 
L 43.21875 64.59375 
L 8.203125 64.59375 
z
" id="DejaVuSans-55"/>
       </defs>
       <use xlink:href="#DejaVuSans-55"/>
       <use x="63.623047" xlink:href="#DejaVuSans-53"/>
      </g>
     </g>
    </g>
    <g id="ytick_4">
     <g id="line2d_9">
      <g>
       <use style="stroke:#000000;stroke-width:0.8;" x="57.6" xlink:href="#md110276793" y="186.648352"/>
      </g>
     </g>
     <g id="text_9">
      <!-- 100 -->
      <g transform="translate(31.5125 190.447571)scale(0.1 -0.1)">
       <use xlink:href="#DejaVuSans-49"/>
       <use x="63.623047" xlink:href="#DejaVuSans-48"/>
       <use x="127.246094" xlink:href="#DejaVuSans-48"/>
      </g>
     </g>
    </g>
    <g id="ytick_5">
     <g id="line2d_10">
      <g>
       <use style="stroke:#000000;stroke-width:0.8;" x="57.6" xlink:href="#md110276793" y="150.385857"/>
      </g>
     </g>
     <g id="text_10">
      <!-- 125 -->
      <g transform="translate(31.5125 154.185076)scale(0.1 -0.1)">
       <use xlink:href="#DejaVuSans-49"/>
       <use x="63.623047" xlink:href="#DejaVuSans-50"/>
       <use x="127.246094" xlink:href="#DejaVuSans-53"/>
      </g>
     </g>
    </g>
    <g id="ytick_6">
     <g id="line2d_11">
      <g>
       <use style="stroke:#000000;stroke-width:0.8;" x="57.6" xlink:href="#md110276793" y="114.123363"/>
      </g>
     </g>
     <g id="text_11">
      <!-- 150 -->
      <g transform="translate(31.5125 117.922581)scale(0.1 -0.1)">
       <use xlink:href="#DejaVuSans-49"/>
       <use x="63.623047" xlink:href="#DejaVuSans-53"/>
       <use x="127.246094" xlink:href="#DejaVuSans-48"/>
      </g>
     </g>
    </g>
    <g id="ytick_7">
     <g id="line2d_12">
      <g>
       <use style="stroke:#000000;stroke-width:0.8;" x="57.6" xlink:href="#md110276793" y="77.860868"/>
      </g>
     </g>
     <g id="text_12">
      <!-- 175 -->
      <g transform="translate(31.5125 81.660087)scale(0.1 -0.1)">
       <use xlink:href="#DejaVuSans-49"/>
       <use x="63.623047" xlink:href="#DejaVuSans-55"/>
       <use x="127.246094" xlink:href="#DejaVuSans-53"/>
      </g>
     </g>
    </g>
    <g id="ytick_8">
     <g id="line2d_13">
      <g>
       <use style="stroke:#000000;stroke-width:0.8;" x="57.6" xlink:href="#md110276793" y="41.598373"/>
      </g>
     </g>
     <g id="text_13">
      <!-- 200 -->
      <g transform="translate(31.5125 45.397592)scale(0.1 -0.1)">
       <use xlink:href="#DejaVuSans-50"/>
       <use x="63.623047" xlink:href="#DejaVuSans-48"/>
       <use x="127.246094" xlink:href="#DejaVuSans-48"/>
      </g>
     </g>
    </g>
   </g>
   <g id="line2d_14">
    <path clip-path="url(#p61ed14b112)" d="M 212.718258 295.435836 
L 212.821244 291.079985 
L 213.281052 283.834739 
L 213.842395 275.138993 
L 213.938128 270.783142 
L 213.790177 266.430192 
L 213.508781 263.539346 
L 213.046071 260.673158 
L 212.371589 257.847585 
L 211.480982 255.084383 
L 210.404711 252.386453 
L 208.524863 248.457049 
L 206.42599 244.639334 
L 202.695305 238.409437 
L 198.997981 232.160684 
L 196.955677 228.313959 
L 193.722513 221.811368 
L 186.293053 207.671896 
L 184.580013 203.667066 
L 183.612529 200.929973 
L 182.83216 198.131959 
L 182.286773 195.280276 
L 182.014079 192.38943 
L 181.953158 189.48553 
L 182.061945 186.58308 
L 182.507249 182.250437 
L 183.260058 177.959858 
L 184.292814 173.7273 
L 185.595363 169.570168 
L 187.167704 165.507318 
L 189.019993 161.56631 
L 190.421175 159.022133 
L 192.015275 156.593997 
L 193.880617 154.36893 
L 195.950481 152.332428 
L 198.162493 150.45113 
L 201.643692 147.832978 
L 212.280207 140.241062 
L 214.503823 138.371368 
L 216.593994 136.356623 
L 218.49995 134.164918 
L 220.179629 131.796252 
L 221.659139 129.297041 
L 223.601358 125.398098 
L 225.897499 120.063159 
L 228.768038 113.393761 
L 230.05028 110.787213 
L 231.480473 108.260443 
L 233.106483 105.854063 
L 234.971826 103.628997 
L 237.105511 101.659218 
L 239.474177 99.98099 
L 242.005299 98.556599 
L 244.637956 97.330927 
L 248.693554 95.742629 
L 260.961881 91.243179 
L 263.584385 89.994299 
L 266.101002 88.5467 
L 268.456614 86.849615 
L 270.642517 84.936406 
L 272.697875 82.883949 
L 275.566963 79.60727 
L 278.230081 76.159432 
L 281.574934 71.410495 
L 288.973933 60.637634 
L 291.629798 57.183994 
L 291.629798 57.183994 
" style="fill:none;stroke:#fea952;stroke-linecap:square;"/>
   </g>
   <g id="line2d_15">
    <path clip-path="url(#p61ed14b112)" d="M 206.916493 295.383673 
L 207.026483 290.790247 
L 207.494905 283.406136 
L 208.044152 274.930256 
L 208.136546 270.852691 
L 208.00814 266.911063 
L 207.589819 263.12244 
L 207.121894 260.713424 
L 206.464576 258.341365 
L 205.607462 255.958253 
L 204.003839 252.372553 
L 202.1011 248.770498 
L 199.242512 243.899327 
L 193.919572 234.966563 
L 191.731929 230.838963 
L 188.603262 224.542021 
L 181.008726 210.067535 
L 179.139615 205.683316 
L 178.053631 202.591852 
L 177.159206 199.348834 
L 176.524474 195.957853 
L 176.215828 192.597959 
L 176.152825 189.346461 
L 176.277586 186.130995 
L 176.567914 182.95473 
L 177.011571 179.811761 
L 177.936183 175.168184 
L 179.16054 170.598357 
L 180.676704 166.113524 
L 182.501711 161.709861 
L 183.90315 158.831146 
L 185.486827 155.970019 
L 187.470006 152.987929 
L 189.726168 150.318776 
L 192.126147 147.969211 
L 194.588391 145.880682 
L 198.295503 143.094537 
L 208.609316 135.747984 
L 211.462959 133.283845 
L 213.102154 131.58862 
L 214.557698 129.755101 
L 215.896838 127.693687 
L 217.14042 125.434853 
L 218.871913 121.768011 
L 224.218891 109.45769 
L 225.743571 106.568974 
L 227.534807 103.680155 
L 229.671095 100.858972 
L 230.892437 99.503251 
L 232.217258 98.212464 
L 233.614113 97.025285 
L 236.517258 94.989014 
L 239.471053 93.337328 
L 242.418357 91.970276 
L 246.741029 90.279037 
L 258.551834 85.965408 
L 260.80365 84.902078 
L 262.845296 83.744245 
L 264.71613 82.414305 
L 266.607103 80.767638 
L 268.427888 78.955793 
L 271.034667 75.98491 
L 273.537545 72.747205 
L 276.772478 68.15479 
L 284.318474 57.174991 
L 287.092422 53.568 
L 287.092422 53.568 
" style="fill:none;stroke:#ffffff;stroke-linecap:square;"/>
   </g>
   <g id="line2d_16">
    <path clip-path="url(#p61ed14b112)" d="M 218.520023 295.488 
L 218.616004 291.369723 
L 219.067199 284.263342 
L 219.640639 275.347729 
L 219.739711 270.713592 
L 219.572215 265.949321 
L 219.251302 262.710708 
L 218.715438 259.43968 
L 217.926336 256.171883 
L 216.902053 253.016731 
L 215.695353 250.004795 
L 213.651472 245.740236 
L 211.439105 241.718397 
L 207.656617 235.401352 
L 204.07639 229.354805 
L 202.179425 225.788954 
L 198.841763 219.080715 
L 191.57738 205.276257 
L 190.020411 201.650816 
L 189.171428 199.268094 
L 188.505115 196.915084 
L 188.049071 194.6027 
L 187.812329 192.180902 
L 187.75349 189.624599 
L 187.946896 185.72657 
L 188.440977 181.817123 
L 189.210549 177.914355 
L 190.234466 174.065481 
L 191.500361 170.296971 
L 193.002801 166.647459 
L 194.751419 163.147877 
L 195.948008 161.100302 
L 197.261615 159.302807 
L 198.876604 157.548658 
L 200.735345 155.850321 
L 203.873422 153.382469 
L 208.507919 150.119911 
L 213.44293 146.649064 
L 217.20217 143.709011 
L 219.674022 141.48331 
L 222.046909 138.980788 
L 224.177 136.245233 
L 225.985445 133.427166 
L 227.535525 130.591845 
L 229.520213 126.379571 
L 235.147371 113.55901 
L 236.360802 111.39821 
L 237.659038 109.450929 
L 239.051215 107.754743 
L 240.59691 106.293151 
L 242.431097 104.972965 
L 244.539545 103.77587 
L 246.857556 102.691577 
L 250.646078 101.206222 
L 261.884833 97.152485 
L 264.861782 95.837324 
L 267.863218 94.26194 
L 270.828106 92.340218 
L 273.468523 90.207559 
L 275.848403 87.968246 
L 278.052787 85.629824 
L 281.066725 82.017794 
L 283.816262 78.342043 
L 288.017771 72.23852 
L 292.822532 65.215869 
L 295.262063 61.935728 
L 296.167175 60.799987 
L 296.167175 60.799987 
" style="fill:none;stroke:#ffffff;stroke-linecap:square;"/>
   </g>
   <g id="patch_3">
    <path d="M 57.6 307.584 
L 57.6 41.472 
" style="fill:none;stroke:#000000;stroke-linecap:square;stroke-linejoin:miter;stroke-width:0.8;"/>
   </g>
   <g id="patch_4">
    <path d="M 414.72 307.584 
L 414.72 41.472 
" style="fill:none;stroke:#000000;stroke-linecap:square;stroke-linejoin:miter;stroke-width:0.8;"/>
   </g>
   <g id="patch_5">
    <path d="M 57.6 307.584 
L 414.72 307.584 
" style="fill:none;stroke:#000000;stroke-linecap:square;stroke-linejoin:miter;stroke-width:0.8;"/>
   </g>
   <g id="patch_6">
    <path d="M 57.6 41.472 
L 414.72 41.472 
" style="fill:none;stroke:#000000;stroke-linecap:square;stroke-linejoin:miter;stroke-width:0.8;"/>
   </g>
  </g>
 </g>
 <defs>
  <clipPath id="p61ed14b112">
   <rect height="266.112" width="357.12" x="57.6" y="41.472"/>
  </clipPath>
 </defs>
</svg>
