<?xml version="1.0" encoding="utf-8" standalone="no"?>
<!DOCTYPE svg PUBLIC "-//W3C//DTD SVG 1.1//EN"
  "http://www.w3.org/Graphics/SVG/1.1/DTD/svg11.dtd">
<!-- Created with matplotlib (https://matplotlib.org/) -->
<svg height="345.6pt" version="1.1" viewBox="0 0 460.8 345.6" width="460.8pt" xmlns="http://www.w3.org/2000/svg" xmlns:xlink="http://www.w3.org/1999/xlink">
 <metadata>
  <rdf:RDF xmlns:cc="http://creativecommons.org/ns#" xmlns:dc="http://purl.org/dc/elements/1.1/" xmlns:rdf="http://www.w3.org/1999/02/22-rdf-syntax-ns#">
   <cc:Work>
    <dc:type rdf:resource="http://purl.org/dc/dcmitype/StillImage"/>
    <dc:date>2021-07-14T13:49:50.821525</dc:date>
    <dc:format>image/svg+xml</dc:format>
    <dc:creator>
     <cc:Agent>
      <dc:title>Matplotlib v3.3.3, https://matplotlib.org/</dc:title>
     </cc:Agent>
    </dc:creator>
   </cc:Work>
  </rdf:RDF>
 </metadata>
 <defs>
  <style type="text/css">*{stroke-linecap:butt;stroke-linejoin:round;}</style>
 </defs>
 <g id="figure_1">
  <g id="patch_1">
   <path d="M 0 345.6 
L 460.8 345.6 
L 460.8 0 
L 0 0 
z
" style="fill:#ffffff;"/>
  </g>
  <g id="axes_1">
   <g id="patch_2">
    <path d="M 57.6 307.584 
L 414.72 307.584 
L 414.72 41.472 
L 57.6 41.472 
z
" style="fill:#7d9051;"/>
   </g>
   <g id="matplotlib.axis_1">
    <g id="xtick_1">
     <g id="line2d_1">
      <defs>
       <path d="M 0 0 
L 0 3.5 
" id="m5da3a5eba8" style="stroke:#000000;stroke-width:0.8;"/>
      </defs>
      <g>
       <use style="stroke:#000000;stroke-width:0.8;" x="126.948132" xlink:href="#m5da3a5eba8" y="307.584"/>
      </g>
     </g>
     <g id="text_1">
      <!-- 50 -->
      <g transform="translate(120.585632 322.182437)scale(0.1 -0.1)">
       <defs>
        <path d="M 10.796875 72.90625 
L 49.515625 72.90625 
L 49.515625 64.59375 
L 19.828125 64.59375 
L 19.828125 46.734375 
Q 21.96875 47.46875 24.109375 47.828125 
Q 26.265625 48.1875 28.421875 48.1875 
Q 40.625 48.1875 47.75 41.5 
Q 54.890625 34.8125 54.890625 23.390625 
Q 54.890625 11.625 47.5625 5.09375 
Q 40.234375 -1.421875 26.90625 -1.421875 
Q 22.3125 -1.421875 17.546875 -0.640625 
Q 12.796875 0.140625 7.71875 1.703125 
L 7.71875 11.625 
Q 12.109375 9.234375 16.796875 8.0625 
Q 21.484375 6.890625 26.703125 6.890625 
Q 35.15625 6.890625 40.078125 11.328125 
Q 45.015625 15.765625 45.015625 23.390625 
Q 45.015625 31 40.078125 35.4375 
Q 35.15625 39.890625 26.703125 39.890625 
Q 22.75 39.890625 18.8125 39.015625 
Q 14.890625 38.140625 10.796875 36.28125 
z
" id="DejaVuSans-53"/>
        <path d="M 31.78125 66.40625 
Q 24.171875 66.40625 20.328125 58.90625 
Q 16.5 51.421875 16.5 36.375 
Q 16.5 21.390625 20.328125 13.890625 
Q 24.171875 6.390625 31.78125 6.390625 
Q 39.453125 6.390625 43.28125 13.890625 
Q 47.125 21.390625 47.125 36.375 
Q 47.125 51.421875 43.28125 58.90625 
Q 39.453125 66.40625 31.78125 66.40625 
z
M 31.78125 74.21875 
Q 44.046875 74.21875 50.515625 64.515625 
Q 56.984375 54.828125 56.984375 36.375 
Q 56.984375 17.96875 50.515625 8.265625 
Q 44.046875 -1.421875 31.78125 -1.421875 
Q 19.53125 -1.421875 13.0625 8.265625 
Q 6.59375 17.96875 6.59375 36.375 
Q 6.59375 54.828125 13.0625 64.515625 
Q 19.53125 74.21875 31.78125 74.21875 
z
" id="DejaVuSans-48"/>
       </defs>
       <use xlink:href="#DejaVuSans-53"/>
       <use x="63.623047" xlink:href="#DejaVuSans-48"/>
      </g>
     </g>
    </g>
    <g id="xtick_2">
     <g id="line2d_2">
      <g>
       <use style="stroke:#000000;stroke-width:0.8;" x="198.974729" xlink:href="#m5da3a5eba8" y="307.584"/>
      </g>
     </g>
     <g id="text_2">
      <!-- 100 -->
      <g transform="translate(189.430979 322.182437)scale(0.1 -0.1)">
       <defs>
        <path d="M 12.40625 8.296875 
L 28.515625 8.296875 
L 28.515625 63.921875 
L 10.984375 60.40625 
L 10.984375 69.390625 
L 28.421875 72.90625 
L 38.28125 72.90625 
L 38.28125 8.296875 
L 54.390625 8.296875 
L 54.390625 0 
L 12.40625 0 
z
" id="DejaVuSans-49"/>
       </defs>
       <use xlink:href="#DejaVuSans-49"/>
       <use x="63.623047" xlink:href="#DejaVuSans-48"/>
       <use x="127.246094" xlink:href="#DejaVuSans-48"/>
      </g>
     </g>
    </g>
    <g id="xtick_3">
     <g id="line2d_3">
      <g>
       <use style="stroke:#000000;stroke-width:0.8;" x="271.001326" xlink:href="#m5da3a5eba8" y="307.584"/>
      </g>
     </g>
     <g id="text_3">
      <!-- 150 -->
      <g transform="translate(261.457576 322.182437)scale(0.1 -0.1)">
       <use xlink:href="#DejaVuSans-49"/>
       <use x="63.623047" xlink:href="#DejaVuSans-53"/>
       <use x="127.246094" xlink:href="#DejaVuSans-48"/>
      </g>
     </g>
    </g>
    <g id="xtick_4">
     <g id="line2d_4">
      <g>
       <use style="stroke:#000000;stroke-width:0.8;" x="343.027923" xlink:href="#m5da3a5eba8" y="307.584"/>
      </g>
     </g>
     <g id="text_4">
      <!-- 200 -->
      <g transform="translate(333.484173 322.182437)scale(0.1 -0.1)">
       <defs>
        <path d="M 19.1875 8.296875 
L 53.609375 8.296875 
L 53.609375 0 
L 7.328125 0 
L 7.328125 8.296875 
Q 12.9375 14.109375 22.625 23.890625 
Q 32.328125 33.6875 34.8125 36.53125 
Q 39.546875 41.84375 41.421875 45.53125 
Q 43.3125 49.21875 43.3125 52.78125 
Q 43.3125 58.59375 39.234375 62.25 
Q 35.15625 65.921875 28.609375 65.921875 
Q 23.96875 65.921875 18.8125 64.3125 
Q 13.671875 62.703125 7.8125 59.421875 
L 7.8125 69.390625 
Q 13.765625 71.78125 18.9375 73 
Q 24.125 74.21875 28.421875 74.21875 
Q 39.75 74.21875 46.484375 68.546875 
Q 53.21875 62.890625 53.21875 53.421875 
Q 53.21875 48.921875 51.53125 44.890625 
Q 49.859375 40.875 45.40625 35.40625 
Q 44.1875 33.984375 37.640625 27.21875 
Q 31.109375 20.453125 19.1875 8.296875 
z
" id="DejaVuSans-50"/>
       </defs>
       <use xlink:href="#DejaVuSans-50"/>
       <use x="63.623047" xlink:href="#DejaVuSans-48"/>
       <use x="127.246094" xlink:href="#DejaVuSans-48"/>
      </g>
     </g>
    </g>
   </g>
   <g id="matplotlib.axis_2">
    <g id="ytick_1">
     <g id="line2d_5">
      <defs>
       <path d="M 0 0 
L -3.5 0 
" id="mc942dcc8bd" style="stroke:#000000;stroke-width:0.8;"/>
      </defs>
      <g>
       <use style="stroke:#000000;stroke-width:0.8;" x="57.6" xlink:href="#mc942dcc8bd" y="295.418929"/>
      </g>
     </g>
     <g id="text_5">
      <!-- 25 -->
      <g transform="translate(37.875 299.218147)scale(0.1 -0.1)">
       <use xlink:href="#DejaVuSans-50"/>
       <use x="63.623047" xlink:href="#DejaVuSans-53"/>
      </g>
     </g>
    </g>
    <g id="ytick_2">
     <g id="line2d_6">
      <g>
       <use style="stroke:#000000;stroke-width:0.8;" x="57.6" xlink:href="#mc942dcc8bd" y="259.40563"/>
      </g>
     </g>
     <g id="text_6">
      <!-- 50 -->
      <g transform="translate(37.875 263.204849)scale(0.1 -0.1)">
       <use xlink:href="#DejaVuSans-53"/>
       <use x="63.623047" xlink:href="#DejaVuSans-48"/>
      </g>
     </g>
    </g>
    <g id="ytick_3">
     <g id="line2d_7">
      <g>
       <use style="stroke:#000000;stroke-width:0.8;" x="57.6" xlink:href="#mc942dcc8bd" y="223.392332"/>
      </g>
     </g>
     <g id="text_7">
      <!-- 75 -->
      <g transform="translate(37.875 227.19155)scale(0.1 -0.1)">
       <defs>
        <path d="M 8.203125 72.90625 
L 55.078125 72.90625 
L 55.078125 68.703125 
L 28.609375 0 
L 18.3125 0 
L 43.21875 64.59375 
L 8.203125 64.59375 
z
" id="DejaVuSans-55"/>
       </defs>
       <use xlink:href="#DejaVuSans-55"/>
       <use x="63.623047" xlink:href="#DejaVuSans-53"/>
      </g>
     </g>
    </g>
    <g id="ytick_4">
     <g id="line2d_8">
      <g>
       <use style="stroke:#000000;stroke-width:0.8;" x="57.6" xlink:href="#mc942dcc8bd" y="187.379033"/>
      </g>
     </g>
     <g id="text_8">
      <!-- 100 -->
      <g transform="translate(31.5125 191.178252)scale(0.1 -0.1)">
       <use xlink:href="#DejaVuSans-49"/>
       <use x="63.623047" xlink:href="#DejaVuSans-48"/>
       <use x="127.246094" xlink:href="#DejaVuSans-48"/>
      </g>
     </g>
    </g>
    <g id="ytick_5">
     <g id="line2d_9">
      <g>
       <use style="stroke:#000000;stroke-width:0.8;" x="57.6" xlink:href="#mc942dcc8bd" y="151.365735"/>
      </g>
     </g>
     <g id="text_9">
      <!-- 125 -->
      <g transform="translate(31.5125 155.164954)scale(0.1 -0.1)">
       <use xlink:href="#DejaVuSans-49"/>
       <use x="63.623047" xlink:href="#DejaVuSans-50"/>
       <use x="127.246094" xlink:href="#DejaVuSans-53"/>
      </g>
     </g>
    </g>
    <g id="ytick_6">
     <g id="line2d_10">
      <g>
       <use style="stroke:#000000;stroke-width:0.8;" x="57.6" xlink:href="#mc942dcc8bd" y="115.352436"/>
      </g>
     </g>
     <g id="text_10">
      <!-- 150 -->
      <g transform="translate(31.5125 119.151655)scale(0.1 -0.1)">
       <use xlink:href="#DejaVuSans-49"/>
       <use x="63.623047" xlink:href="#DejaVuSans-53"/>
       <use x="127.246094" xlink:href="#DejaVuSans-48"/>
      </g>
     </g>
    </g>
    <g id="ytick_7">
     <g id="line2d_11">
      <g>
       <use style="stroke:#000000;stroke-width:0.8;" x="57.6" xlink:href="#mc942dcc8bd" y="79.339138"/>
      </g>
     </g>
     <g id="text_11">
      <!-- 175 -->
      <g transform="translate(31.5125 83.138357)scale(0.1 -0.1)">
       <use xlink:href="#DejaVuSans-49"/>
       <use x="63.623047" xlink:href="#DejaVuSans-55"/>
       <use x="127.246094" xlink:href="#DejaVuSans-53"/>
      </g>
     </g>
    </g>
    <g id="ytick_8">
     <g id="line2d_12">
      <g>
       <use style="stroke:#000000;stroke-width:0.8;" x="57.6" xlink:href="#mc942dcc8bd" y="43.325839"/>
      </g>
     </g>
     <g id="text_12">
      <!-- 200 -->
      <g transform="translate(31.5125 47.125058)scale(0.1 -0.1)">
       <use xlink:href="#DejaVuSans-50"/>
       <use x="63.623047" xlink:href="#DejaVuSans-48"/>
       <use x="127.246094" xlink:href="#DejaVuSans-48"/>
      </g>
     </g>
    </g>
   </g>
   <g id="line2d_13">
    <path clip-path="url(#p7540d469f4)" d="M 234.988027 295.418929 
L 235.1292 291.095892 
L 235.604575 285.34961 
L 236.516432 275.299019 
L 236.666247 270.977423 
L 236.595661 268.094919 
L 236.336365 265.223939 
L 235.840822 262.38321 
L 235.058613 259.608745 
L 233.952285 256.948083 
L 232.549207 254.428592 
L 230.921406 252.048833 
L 229.130825 249.790079 
L 226.241118 246.571931 
L 221.18341 241.436435 
L 217.165766 237.299227 
L 214.317835 234.045065 
L 212.566148 231.75462 
L 208.309376 225.937752 
L 202.302358 217.827557 
L 199.885145 214.242073 
L 197.671048 210.526941 
L 196.357282 207.959913 
L 195.214941 205.313656 
L 194.287238 202.583848 
L 193.626034 199.777692 
L 193.281747 196.915355 
L 193.227007 194.03285 
L 193.402751 191.156108 
L 193.986167 186.870525 
L 194.811592 182.625278 
L 197.506827 169.934191 
L 198.090242 165.648609 
L 198.281833 162.771867 
L 198.302001 158.44739 
L 198.032621 152.686703 
L 197.560127 144.050714 
L 197.545721 139.724796 
L 197.709942 136.846613 
L 198.068634 133.985717 
L 198.672217 131.166596 
L 199.566788 128.426704 
L 200.713451 125.781888 
L 202.045943 123.224943 
L 203.535453 120.755872 
L 206.008846 117.209282 
L 208.714165 113.835556 
L 211.602432 110.615967 
L 214.636192 107.533229 
L 218.859832 103.607779 
L 223.260657 99.881123 
L 225.607283 98.205785 
L 228.054747 96.683142 
L 231.856311 94.621741 
L 237.058072 92.132502 
L 246.182401 87.82099 
L 249.971 85.733659 
L 252.405499 84.190849 
L 255.885824 81.622381 
L 259.216334 78.863762 
L 263.478868 74.980088 
L 268.620127 69.926702 
L 277.816482 60.773562 
L 280.989974 57.836318 
L 280.989974 57.836318 
" style="fill:none;stroke:#fea952;stroke-linecap:square;"/>
   </g>
   <g id="line2d_14">
    <path clip-path="url(#p7540d469f4)" d="M 229.226314 295.349857 
L 229.380013 290.709925 
L 229.870703 284.779677 
L 230.762704 274.988007 
L 230.904407 271.034984 
L 230.765522 267.284742 
L 230.469951 264.920109 
L 229.986829 262.70066 
L 229.298231 260.638859 
L 228.320752 258.600143 
L 227.07057 256.571491 
L 225.579963 254.551525 
L 223.011993 251.55739 
L 219.143004 247.547787 
L 212.905786 241.179263 
L 209.798779 237.620013 
L 207.874202 235.09943 
L 203.710056 229.408828 
L 197.569969 221.114898 
L 194.999841 217.297546 
L 192.580932 213.227466 
L 191.111437 210.343865 
L 189.801244 207.28698 
L 188.715204 204.051687 
L 187.926396 200.624002 
L 187.524695 197.157151 
L 187.470209 193.78506 
L 187.675516 190.522946 
L 188.068192 187.378245 
L 188.876521 182.862708 
L 190.748989 174.36902 
L 191.816996 169.024279 
L 192.347038 165.18201 
L 192.521652 162.622102 
L 192.54264 158.62593 
L 192.281917 153.04936 
L 191.799519 144.183075 
L 191.788669 139.483 
L 191.979632 136.241907 
L 192.406968 132.914435 
L 193.148838 129.525133 
L 194.238913 126.232196 
L 195.560799 123.202683 
L 197.068739 120.321574 
L 198.72871 117.57824 
L 200.509992 114.96353 
L 203.367029 111.249662 
L 206.397341 107.754238 
L 209.562091 104.445651 
L 213.936747 100.28425 
L 218.531818 96.286802 
L 221.155166 94.273828 
L 223.848001 92.490053 
L 227.927642 90.166767 
L 231.987623 88.141434 
L 244.683382 82.101424 
L 248.043505 80.159464 
L 250.155306 78.733569 
L 253.334539 76.283645 
L 256.442242 73.62976 
L 260.502442 69.850224 
L 266.552442 63.828351 
L 273.858886 56.585538 
L 277.119111 53.568 
L 277.119111 53.568 
" style="fill:none;stroke:#ffffff;stroke-linecap:square;"/>
   </g>
   <g id="line2d_15">
    <path clip-path="url(#p7540d469f4)" d="M 240.749741 295.488 
L 240.878386 291.48186 
L 241.338447 285.919543 
L 242.27016 275.610031 
L 242.428087 270.919862 
L 242.343262 267.686021 
L 242.03432 264.366368 
L 241.427503 260.972141 
L 240.44553 257.563445 
L 239.055658 254.272695 
L 237.370004 251.272324 
L 235.488606 248.535602 
L 233.493547 246.025937 
L 230.403822 242.587711 
L 225.269343 237.373521 
L 221.425747 233.419191 
L 218.836891 230.470118 
L 217.258094 228.409809 
L 212.908696 222.466675 
L 207.034747 214.540216 
L 204.77045 211.1866 
L 202.761163 207.826416 
L 201.093655 204.464961 
L 200.215938 202.224336 
L 199.561104 200.015122 
L 199.152027 197.822103 
L 198.983326 195.497848 
L 199.033109 193.048457 
L 199.269938 190.505427 
L 199.896192 186.557273 
L 201.050877 181.081567 
L 202.925584 172.366641 
L 203.656947 167.720785 
L 203.961279 164.511625 
L 204.081389 161.348604 
L 204.013902 156.753569 
L 203.60253 149.458773 
L 203.289076 142.585716 
L 203.353414 138.698891 
L 203.56344 136.241864 
L 203.940584 133.910264 
L 204.510637 131.719128 
L 205.359305 129.482933 
L 206.424598 127.238499 
L 207.661475 125.029073 
L 209.802111 121.780053 
L 212.214539 118.634107 
L 214.845519 115.592398 
L 217.658976 112.646195 
L 221.636524 108.858741 
L 225.739385 105.27899 
L 227.682523 103.771305 
L 229.792422 102.362861 
L 233.223715 100.402004 
L 236.905152 98.563831 
L 250.234042 92.200861 
L 252.98288 90.64596 
L 255.713723 88.908664 
L 259.489608 86.118475 
L 263.023346 83.189127 
L 267.468965 79.137159 
L 272.708938 73.986719 
L 281.774079 64.961586 
L 284.860837 62.104635 
L 284.860837 62.104635 
" style="fill:none;stroke:#ffffff;stroke-linecap:square;"/>
   </g>
   <g id="patch_3">
    <path d="M 57.6 307.584 
L 57.6 41.472 
" style="fill:none;stroke:#000000;stroke-linecap:square;stroke-linejoin:miter;stroke-width:0.8;"/>
   </g>
   <g id="patch_4">
    <path d="M 414.72 307.584 
L 414.72 41.472 
" style="fill:none;stroke:#000000;stroke-linecap:square;stroke-linejoin:miter;stroke-width:0.8;"/>
   </g>
   <g id="patch_5">
    <path d="M 57.6 307.584 
L 414.72 307.584 
" style="fill:none;stroke:#000000;stroke-linecap:square;stroke-linejoin:miter;stroke-width:0.8;"/>
   </g>
   <g id="patch_6">
    <path d="M 57.6 41.472 
L 414.72 41.472 
" style="fill:none;stroke:#000000;stroke-linecap:square;stroke-linejoin:miter;stroke-width:0.8;"/>
   </g>
  </g>
 </g>
 <defs>
  <clipPath id="p7540d469f4">
   <rect height="266.112" width="357.12" x="57.6" y="41.472"/>
  </clipPath>
 </defs>
</svg>
