<?xml version="1.0" encoding="utf-8" standalone="no"?>
<!DOCTYPE svg PUBLIC "-//W3C//DTD SVG 1.1//EN"
  "http://www.w3.org/Graphics/SVG/1.1/DTD/svg11.dtd">
<!-- Created with matplotlib (https://matplotlib.org/) -->
<svg height="345.6pt" version="1.1" viewBox="0 0 460.8 345.6" width="460.8pt" xmlns="http://www.w3.org/2000/svg" xmlns:xlink="http://www.w3.org/1999/xlink">
 <metadata>
  <rdf:RDF xmlns:cc="http://creativecommons.org/ns#" xmlns:dc="http://purl.org/dc/elements/1.1/" xmlns:rdf="http://www.w3.org/1999/02/22-rdf-syntax-ns#">
   <cc:Work>
    <dc:type rdf:resource="http://purl.org/dc/dcmitype/StillImage"/>
    <dc:date>2021-07-06T17:45:21.708752</dc:date>
    <dc:format>image/svg+xml</dc:format>
    <dc:creator>
     <cc:Agent>
      <dc:title>Matplotlib v3.3.3, https://matplotlib.org/</dc:title>
     </cc:Agent>
    </dc:creator>
   </cc:Work>
  </rdf:RDF>
 </metadata>
 <defs>
  <style type="text/css">*{stroke-linecap:butt;stroke-linejoin:round;}</style>
 </defs>
 <g id="figure_1">
  <g id="patch_1">
   <path d="M 0 345.6 
L 460.8 345.6 
L 460.8 0 
L 0 0 
z
" style="fill:#ffffff;"/>
  </g>
  <g id="axes_1">
   <g id="patch_2">
    <path d="M 57.6 307.584 
L 414.72 307.584 
L 414.72 41.472 
L 57.6 41.472 
z
" style="fill:#7d9051;"/>
   </g>
   <g id="matplotlib.axis_1">
    <g id="xtick_1">
     <g id="line2d_1">
      <defs>
       <path d="M 0 0 
L 0 3.5 
" id="m4d93dac103" style="stroke:#000000;stroke-width:0.8;"/>
      </defs>
      <g>
       <use style="stroke:#000000;stroke-width:0.8;" x="67.961911" xlink:href="#m4d93dac103" y="307.584"/>
      </g>
     </g>
     <g id="text_1">
      <!-- −25 -->
      <g transform="translate(57.409567 322.182437)scale(0.1 -0.1)">
       <defs>
        <path d="M 10.59375 35.5 
L 73.1875 35.5 
L 73.1875 27.203125 
L 10.59375 27.203125 
z
" id="DejaVuSans-8722"/>
        <path d="M 19.1875 8.296875 
L 53.609375 8.296875 
L 53.609375 0 
L 7.328125 0 
L 7.328125 8.296875 
Q 12.9375 14.109375 22.625 23.890625 
Q 32.328125 33.6875 34.8125 36.53125 
Q 39.546875 41.84375 41.421875 45.53125 
Q 43.3125 49.21875 43.3125 52.78125 
Q 43.3125 58.59375 39.234375 62.25 
Q 35.15625 65.921875 28.609375 65.921875 
Q 23.96875 65.921875 18.8125 64.3125 
Q 13.671875 62.703125 7.8125 59.421875 
L 7.8125 69.390625 
Q 13.765625 71.78125 18.9375 73 
Q 24.125 74.21875 28.421875 74.21875 
Q 39.75 74.21875 46.484375 68.546875 
Q 53.21875 62.890625 53.21875 53.421875 
Q 53.21875 48.921875 51.53125 44.890625 
Q 49.859375 40.875 45.40625 35.40625 
Q 44.1875 33.984375 37.640625 27.21875 
Q 31.109375 20.453125 19.1875 8.296875 
z
" id="DejaVuSans-50"/>
        <path d="M 10.796875 72.90625 
L 49.515625 72.90625 
L 49.515625 64.59375 
L 19.828125 64.59375 
L 19.828125 46.734375 
Q 21.96875 47.46875 24.109375 47.828125 
Q 26.265625 48.1875 28.421875 48.1875 
Q 40.625 48.1875 47.75 41.5 
Q 54.890625 34.8125 54.890625 23.390625 
Q 54.890625 11.625 47.5625 5.09375 
Q 40.234375 -1.421875 26.90625 -1.421875 
Q 22.3125 -1.421875 17.546875 -0.640625 
Q 12.796875 0.140625 7.71875 1.703125 
L 7.71875 11.625 
Q 12.109375 9.234375 16.796875 8.0625 
Q 21.484375 6.890625 26.703125 6.890625 
Q 35.15625 6.890625 40.078125 11.328125 
Q 45.015625 15.765625 45.015625 23.390625 
Q 45.015625 31 40.078125 35.4375 
Q 35.15625 39.890625 26.703125 39.890625 
Q 22.75 39.890625 18.8125 39.015625 
Q 14.890625 38.140625 10.796875 36.28125 
z
" id="DejaVuSans-53"/>
       </defs>
       <use xlink:href="#DejaVuSans-8722"/>
       <use x="83.789062" xlink:href="#DejaVuSans-50"/>
       <use x="147.412109" xlink:href="#DejaVuSans-53"/>
      </g>
     </g>
    </g>
    <g id="xtick_2">
     <g id="line2d_2">
      <g>
       <use style="stroke:#000000;stroke-width:0.8;" x="117.099764" xlink:href="#m4d93dac103" y="307.584"/>
      </g>
     </g>
     <g id="text_2">
      <!-- 0 -->
      <g transform="translate(113.918514 322.182437)scale(0.1 -0.1)">
       <defs>
        <path d="M 31.78125 66.40625 
Q 24.171875 66.40625 20.328125 58.90625 
Q 16.5 51.421875 16.5 36.375 
Q 16.5 21.390625 20.328125 13.890625 
Q 24.171875 6.390625 31.78125 6.390625 
Q 39.453125 6.390625 43.28125 13.890625 
Q 47.125 21.390625 47.125 36.375 
Q 47.125 51.421875 43.28125 58.90625 
Q 39.453125 66.40625 31.78125 66.40625 
z
M 31.78125 74.21875 
Q 44.046875 74.21875 50.515625 64.515625 
Q 56.984375 54.828125 56.984375 36.375 
Q 56.984375 17.96875 50.515625 8.265625 
Q 44.046875 -1.421875 31.78125 -1.421875 
Q 19.53125 -1.421875 13.0625 8.265625 
Q 6.59375 17.96875 6.59375 36.375 
Q 6.59375 54.828125 13.0625 64.515625 
Q 19.53125 74.21875 31.78125 74.21875 
z
" id="DejaVuSans-48"/>
       </defs>
       <use xlink:href="#DejaVuSans-48"/>
      </g>
     </g>
    </g>
    <g id="xtick_3">
     <g id="line2d_3">
      <g>
       <use style="stroke:#000000;stroke-width:0.8;" x="166.237617" xlink:href="#m4d93dac103" y="307.584"/>
      </g>
     </g>
     <g id="text_3">
      <!-- 25 -->
      <g transform="translate(159.875117 322.182437)scale(0.1 -0.1)">
       <use xlink:href="#DejaVuSans-50"/>
       <use x="63.623047" xlink:href="#DejaVuSans-53"/>
      </g>
     </g>
    </g>
    <g id="xtick_4">
     <g id="line2d_4">
      <g>
       <use style="stroke:#000000;stroke-width:0.8;" x="215.37547" xlink:href="#m4d93dac103" y="307.584"/>
      </g>
     </g>
     <g id="text_4">
      <!-- 50 -->
      <g transform="translate(209.01297 322.182437)scale(0.1 -0.1)">
       <use xlink:href="#DejaVuSans-53"/>
       <use x="63.623047" xlink:href="#DejaVuSans-48"/>
      </g>
     </g>
    </g>
    <g id="xtick_5">
     <g id="line2d_5">
      <g>
       <use style="stroke:#000000;stroke-width:0.8;" x="264.513323" xlink:href="#m4d93dac103" y="307.584"/>
      </g>
     </g>
     <g id="text_5">
      <!-- 75 -->
      <g transform="translate(258.150823 322.182437)scale(0.1 -0.1)">
       <defs>
        <path d="M 8.203125 72.90625 
L 55.078125 72.90625 
L 55.078125 68.703125 
L 28.609375 0 
L 18.3125 0 
L 43.21875 64.59375 
L 8.203125 64.59375 
z
" id="DejaVuSans-55"/>
       </defs>
       <use xlink:href="#DejaVuSans-55"/>
       <use x="63.623047" xlink:href="#DejaVuSans-53"/>
      </g>
     </g>
    </g>
    <g id="xtick_6">
     <g id="line2d_6">
      <g>
       <use style="stroke:#000000;stroke-width:0.8;" x="313.651176" xlink:href="#m4d93dac103" y="307.584"/>
      </g>
     </g>
     <g id="text_6">
      <!-- 100 -->
      <g transform="translate(304.107426 322.182437)scale(0.1 -0.1)">
       <defs>
        <path d="M 12.40625 8.296875 
L 28.515625 8.296875 
L 28.515625 63.921875 
L 10.984375 60.40625 
L 10.984375 69.390625 
L 28.421875 72.90625 
L 38.28125 72.90625 
L 38.28125 8.296875 
L 54.390625 8.296875 
L 54.390625 0 
L 12.40625 0 
z
" id="DejaVuSans-49"/>
       </defs>
       <use xlink:href="#DejaVuSans-49"/>
       <use x="63.623047" xlink:href="#DejaVuSans-48"/>
       <use x="127.246094" xlink:href="#DejaVuSans-48"/>
      </g>
     </g>
    </g>
    <g id="xtick_7">
     <g id="line2d_7">
      <g>
       <use style="stroke:#000000;stroke-width:0.8;" x="362.789029" xlink:href="#m4d93dac103" y="307.584"/>
      </g>
     </g>
     <g id="text_7">
      <!-- 125 -->
      <g transform="translate(353.245279 322.182437)scale(0.1 -0.1)">
       <use xlink:href="#DejaVuSans-49"/>
       <use x="63.623047" xlink:href="#DejaVuSans-50"/>
       <use x="127.246094" xlink:href="#DejaVuSans-53"/>
      </g>
     </g>
    </g>
    <g id="xtick_8">
     <g id="line2d_8">
      <g>
       <use style="stroke:#000000;stroke-width:0.8;" x="411.926882" xlink:href="#m4d93dac103" y="307.584"/>
      </g>
     </g>
     <g id="text_8">
      <!-- 150 -->
      <g transform="translate(402.383132 322.182437)scale(0.1 -0.1)">
       <use xlink:href="#DejaVuSans-49"/>
       <use x="63.623047" xlink:href="#DejaVuSans-53"/>
       <use x="127.246094" xlink:href="#DejaVuSans-48"/>
      </g>
     </g>
    </g>
   </g>
   <g id="matplotlib.axis_2">
    <g id="ytick_1">
     <g id="line2d_9">
      <defs>
       <path d="M 0 0 
L -3.5 0 
" id="mbe95542ff8" style="stroke:#000000;stroke-width:0.8;"/>
      </defs>
      <g>
       <use style="stroke:#000000;stroke-width:0.8;" x="57.6" xlink:href="#mbe95542ff8" y="285.660429"/>
      </g>
     </g>
     <g id="text_9">
      <!-- 60 -->
      <g transform="translate(37.875 289.459648)scale(0.1 -0.1)">
       <defs>
        <path d="M 33.015625 40.375 
Q 26.375 40.375 22.484375 35.828125 
Q 18.609375 31.296875 18.609375 23.390625 
Q 18.609375 15.53125 22.484375 10.953125 
Q 26.375 6.390625 33.015625 6.390625 
Q 39.65625 6.390625 43.53125 10.953125 
Q 47.40625 15.53125 47.40625 23.390625 
Q 47.40625 31.296875 43.53125 35.828125 
Q 39.65625 40.375 33.015625 40.375 
z
M 52.59375 71.296875 
L 52.59375 62.3125 
Q 48.875 64.0625 45.09375 64.984375 
Q 41.3125 65.921875 37.59375 65.921875 
Q 27.828125 65.921875 22.671875 59.328125 
Q 17.53125 52.734375 16.796875 39.40625 
Q 19.671875 43.65625 24.015625 45.921875 
Q 28.375 48.1875 33.59375 48.1875 
Q 44.578125 48.1875 50.953125 41.515625 
Q 57.328125 34.859375 57.328125 23.390625 
Q 57.328125 12.15625 50.6875 5.359375 
Q 44.046875 -1.421875 33.015625 -1.421875 
Q 20.359375 -1.421875 13.671875 8.265625 
Q 6.984375 17.96875 6.984375 36.375 
Q 6.984375 53.65625 15.1875 63.9375 
Q 23.390625 74.21875 37.203125 74.21875 
Q 40.921875 74.21875 44.703125 73.484375 
Q 48.484375 72.75 52.59375 71.296875 
z
" id="DejaVuSans-54"/>
       </defs>
       <use xlink:href="#DejaVuSans-54"/>
       <use x="63.623047" xlink:href="#DejaVuSans-48"/>
      </g>
     </g>
    </g>
    <g id="ytick_2">
     <g id="line2d_10">
      <g>
       <use style="stroke:#000000;stroke-width:0.8;" x="57.6" xlink:href="#mbe95542ff8" y="246.350147"/>
      </g>
     </g>
     <g id="text_10">
      <!-- 80 -->
      <g transform="translate(37.875 250.149366)scale(0.1 -0.1)">
       <defs>
        <path d="M 31.78125 34.625 
Q 24.75 34.625 20.71875 30.859375 
Q 16.703125 27.09375 16.703125 20.515625 
Q 16.703125 13.921875 20.71875 10.15625 
Q 24.75 6.390625 31.78125 6.390625 
Q 38.8125 6.390625 42.859375 10.171875 
Q 46.921875 13.96875 46.921875 20.515625 
Q 46.921875 27.09375 42.890625 30.859375 
Q 38.875 34.625 31.78125 34.625 
z
M 21.921875 38.8125 
Q 15.578125 40.375 12.03125 44.71875 
Q 8.5 49.078125 8.5 55.328125 
Q 8.5 64.0625 14.71875 69.140625 
Q 20.953125 74.21875 31.78125 74.21875 
Q 42.671875 74.21875 48.875 69.140625 
Q 55.078125 64.0625 55.078125 55.328125 
Q 55.078125 49.078125 51.53125 44.71875 
Q 48 40.375 41.703125 38.8125 
Q 48.828125 37.15625 52.796875 32.3125 
Q 56.78125 27.484375 56.78125 20.515625 
Q 56.78125 9.90625 50.3125 4.234375 
Q 43.84375 -1.421875 31.78125 -1.421875 
Q 19.734375 -1.421875 13.25 4.234375 
Q 6.78125 9.90625 6.78125 20.515625 
Q 6.78125 27.484375 10.78125 32.3125 
Q 14.796875 37.15625 21.921875 38.8125 
z
M 18.3125 54.390625 
Q 18.3125 48.734375 21.84375 45.5625 
Q 25.390625 42.390625 31.78125 42.390625 
Q 38.140625 42.390625 41.71875 45.5625 
Q 45.3125 48.734375 45.3125 54.390625 
Q 45.3125 60.0625 41.71875 63.234375 
Q 38.140625 66.40625 31.78125 66.40625 
Q 25.390625 66.40625 21.84375 63.234375 
Q 18.3125 60.0625 18.3125 54.390625 
z
" id="DejaVuSans-56"/>
       </defs>
       <use xlink:href="#DejaVuSans-56"/>
       <use x="63.623047" xlink:href="#DejaVuSans-48"/>
      </g>
     </g>
    </g>
    <g id="ytick_3">
     <g id="line2d_11">
      <g>
       <use style="stroke:#000000;stroke-width:0.8;" x="57.6" xlink:href="#mbe95542ff8" y="207.039865"/>
      </g>
     </g>
     <g id="text_11">
      <!-- 100 -->
      <g transform="translate(31.5125 210.839083)scale(0.1 -0.1)">
       <use xlink:href="#DejaVuSans-49"/>
       <use x="63.623047" xlink:href="#DejaVuSans-48"/>
       <use x="127.246094" xlink:href="#DejaVuSans-48"/>
      </g>
     </g>
    </g>
    <g id="ytick_4">
     <g id="line2d_12">
      <g>
       <use style="stroke:#000000;stroke-width:0.8;" x="57.6" xlink:href="#mbe95542ff8" y="167.729582"/>
      </g>
     </g>
     <g id="text_12">
      <!-- 120 -->
      <g transform="translate(31.5125 171.528801)scale(0.1 -0.1)">
       <use xlink:href="#DejaVuSans-49"/>
       <use x="63.623047" xlink:href="#DejaVuSans-50"/>
       <use x="127.246094" xlink:href="#DejaVuSans-48"/>
      </g>
     </g>
    </g>
    <g id="ytick_5">
     <g id="line2d_13">
      <g>
       <use style="stroke:#000000;stroke-width:0.8;" x="57.6" xlink:href="#mbe95542ff8" y="128.4193"/>
      </g>
     </g>
     <g id="text_13">
      <!-- 140 -->
      <g transform="translate(31.5125 132.218519)scale(0.1 -0.1)">
       <defs>
        <path d="M 37.796875 64.3125 
L 12.890625 25.390625 
L 37.796875 25.390625 
z
M 35.203125 72.90625 
L 47.609375 72.90625 
L 47.609375 25.390625 
L 58.015625 25.390625 
L 58.015625 17.1875 
L 47.609375 17.1875 
L 47.609375 0 
L 37.796875 0 
L 37.796875 17.1875 
L 4.890625 17.1875 
L 4.890625 26.703125 
z
" id="DejaVuSans-52"/>
       </defs>
       <use xlink:href="#DejaVuSans-49"/>
       <use x="63.623047" xlink:href="#DejaVuSans-52"/>
       <use x="127.246094" xlink:href="#DejaVuSans-48"/>
      </g>
     </g>
    </g>
    <g id="ytick_6">
     <g id="line2d_14">
      <g>
       <use style="stroke:#000000;stroke-width:0.8;" x="57.6" xlink:href="#mbe95542ff8" y="89.109018"/>
      </g>
     </g>
     <g id="text_14">
      <!-- 160 -->
      <g transform="translate(31.5125 92.908236)scale(0.1 -0.1)">
       <use xlink:href="#DejaVuSans-49"/>
       <use x="63.623047" xlink:href="#DejaVuSans-54"/>
       <use x="127.246094" xlink:href="#DejaVuSans-48"/>
      </g>
     </g>
    </g>
    <g id="ytick_7">
     <g id="line2d_15">
      <g>
       <use style="stroke:#000000;stroke-width:0.8;" x="57.6" xlink:href="#mbe95542ff8" y="49.798735"/>
      </g>
     </g>
     <g id="text_15">
      <!-- 180 -->
      <g transform="translate(31.5125 53.597954)scale(0.1 -0.1)">
       <use xlink:href="#DejaVuSans-49"/>
       <use x="63.623047" xlink:href="#DejaVuSans-56"/>
       <use x="127.246094" xlink:href="#DejaVuSans-48"/>
      </g>
     </g>
    </g>
   </g>
   <g id="line2d_16">
    <path clip-path="url(#p794e973fca)" d="M 219.306498 55.695278 
L 219.84898 57.625413 
L 220.389496 59.557513 
L 220.922151 61.487648 
L 221.452839 63.419748 
L 221.977632 65.351849 
L 222.500459 67.283949 
L 223.015423 69.216049 
L 223.528422 71.14815 
L 224.035525 73.082216 
L 224.538697 75.014316 
L 225.037937 76.948382 
L 225.533247 78.882448 
L 226.02266 80.816514 
L 226.508142 82.75058 
L 226.987727 84.686611 
L 227.465347 86.620677 
L 227.937071 88.556708 
L 228.404863 90.49274 
L 228.868724 92.428771 
L 229.326689 94.364802 
L 229.780723 96.302799 
L 230.230826 98.238831 
L 230.675032 100.176828 
L 231.117272 102.114825 
L 231.553617 104.052822 
L 231.98603 105.990818 
L 232.412546 107.928815 
L 232.835132 109.868778 
L 233.253786 111.806775 
L 233.66851 113.746737 
L 234.077337 115.6867 
L 234.484198 117.626662 
L 234.885163 119.56859 
L 235.280231 121.508552 
L 235.673334 123.45048 
L 236.06054 125.390443 
L 236.443816 127.332371 
L 236.821194 129.274299 
L 237.196608 131.216227 
L 237.566124 133.16012 
L 237.929744 135.102048 
L 238.291399 137.045942 
L 238.647157 138.989835 
L 238.998984 140.933728 
L 239.34688 142.877622 
L 239.688879 144.823481 
L 240.028913 146.767374 
L 240.361085 148.713233 
L 240.691292 150.657127 
L 241.017567 152.602986 
L 241.337946 154.55081 
L 241.654394 156.496669 
L 241.964945 158.442528 
L 242.271565 160.390353 
L 242.57622 162.338177 
L 242.873012 164.286002 
L 243.167839 166.233826 
L 243.45677 168.181651 
L 243.74177 170.129475 
L 244.022838 172.079265 
L 244.29801 174.029055 
L 244.571217 175.97688 
L 244.838526 177.92667 
L 245.09994 179.878425 
L 245.359388 181.828215 
L 245.612939 183.778005 
L 245.862559 185.729761 
L 246.106283 187.681516 
L 246.348041 189.633272 
L 246.583903 191.585027 
L 246.815834 193.536783 
L 247.041868 195.490504 
L 247.263971 197.442259 
L 247.482143 199.39598 
L 247.696384 201.349701 
L 247.906694 203.303422 
L 248.111107 205.257143 
L 248.31159 207.21283 
L 248.508141 209.166551 
L 248.698796 211.122238 
L 248.88552 213.077924 
L 249.068313 215.033611 
L 249.247175 216.989297 
L 249.42014 218.946949 
L 249.589174 220.902636 
L 249.754277 222.860288 
L 249.915449 224.81794 
L 250.070725 226.775592 
L 250.22207 228.733244 
L 250.369483 230.690896 
L 250.511 232.650514 
L 250.648586 234.608166 
L 250.782241 236.567783 
L 250.911965 238.527401 
L 251.037758 240.487018 
L 251.157654 242.446636 
L 251.27362 244.408219 
L 251.383688 246.367837 
L 251.491792 248.32942 
L 251.593998 250.291003 
L 251.692274 252.252586 
L 251.784653 254.214169 
L 251.873101 256.175752 
L 251.959584 258.139301 
L 252.038205 260.102849 
L 252.11486 262.066398 
L 252.185618 264.029947 
L 252.252446 265.993495 
L 252.315342 267.957044 
L 252.372342 269.920592 
L 252.425411 271.886106 
L 252.474549 273.851621 
L 252.519756 275.817135 
L 252.559066 277.782649 
L 252.596411 279.748163 
L 252.625893 281.715643 
L 252.653411 283.681157 
L 252.675031 285.648636 
L 252.692721 287.616116 
L 252.706479 289.583596 
L 252.716307 291.551075 
L 252.720238 293.518555 
L 252.720238 295.488 
" style="fill:none;stroke:#fea952;stroke-linecap:square;"/>
   </g>
   <g id="line2d_17">
    <path clip-path="url(#p794e973fca)" d="M 226.875291 53.568 
L 227.420337 55.507281 
L 227.968256 57.466022 
L 228.503428 59.405303 
L 229.04 61.358943 
L 229.566742 63.298234 
L 230.097309 65.259153 
L 230.614194 67.198471 
L 231.133416 69.154158 
L 231.643808 71.100811 
L 232.151227 73.049293 
L 232.6542 74.997876 
L 233.155063 76.953757 
L 233.648148 78.902392 
L 234.139541 80.860162 
L 234.620486 82.801692 
L 235.10393 84.759499 
L 235.579208 86.710182 
L 236.050531 88.660884 
L 236.51964 90.61896 
L 236.981477 92.571439 
L 237.438549 94.522452 
L 237.894156 96.482327 
L 238.340051 98.427711 
L 238.787321 100.387897 
L 239.226987 102.340711 
L 239.664333 104.300969 
L 240.094459 106.25545 
L 240.519922 108.208676 
L 240.942121 110.163169 
L 241.361592 112.1255 
L 241.771989 114.072928 
L 242.183838 116.036858 
L 242.589093 117.999705 
L 242.985991 119.948682 
L 243.383315 121.911609 
L 243.7738 123.868089 
L 244.161494 125.832579 
L 244.540332 127.782036 
L 244.920355 129.748012 
L 245.293875 131.713122 
L 245.659168 133.664016 
L 246.025008 135.630589 
L 246.383522 137.589623 
L 246.738077 139.548673 
L 247.090247 141.516667 
L 247.433344 143.468787 
L 247.778861 145.444404 
L 248.112108 147.396578 
L 248.445103 149.356993 
L 248.775385 151.326977 
L 249.098055 153.288813 
L 249.418196 155.257598 
L 249.731364 157.219964 
L 250.039185 159.175437 
L 250.348568 161.153894 
L 250.646525 163.109385 
L 250.944802 165.08023 
L 251.235996 167.043419 
L 251.52339 169.007729 
L 251.807749 170.980588 
L 252.083852 172.936995 
L 252.360413 174.909006 
L 252.630998 176.882965 
L 252.893304 178.841405 
L 253.1558 180.814367 
L 253.411473 182.78061 
L 253.664025 184.75556 
L 253.908711 186.715052 
L 254.153311 188.690037 
L 254.39103 190.657292 
L 254.625795 192.633216 
L 254.853508 194.601566 
L 255.07746 196.569727 
L 255.297351 198.538981 
L 255.513281 200.508245 
L 255.726068 202.485299 
L 255.932176 204.455386 
L 256.13416 206.425851 
L 256.333102 208.403716 
L 256.525261 210.374987 
L 256.713458 212.346268 
L 256.897693 214.317557 
L 257.078723 216.297353 
L 257.252993 218.269939 
L 257.423418 220.241916 
L 257.589823 222.215193 
L 257.752891 224.196295 
L 257.909392 226.169591 
L 258.06193 228.142893 
L 258.211118 230.1246 
L 258.353711 232.099319 
L 258.49242 234.07318 
L 258.627127 236.048463 
L 258.757873 238.023752 
L 258.88514 240.006888 
L 259.006008 241.982655 
L 259.123303 243.967314 
L 259.233833 245.935214 
L 259.343198 247.920329 
L 259.446206 249.897606 
L 259.545627 251.882739 
L 259.63873 253.860027 
L 259.727543 255.829811 
L 259.815346 257.824756 
L 259.894277 259.796156 
L 259.971816 261.783264 
L 260.043125 263.762524 
L 260.110472 265.741787 
L 260.174088 267.728912 
L 260.231534 269.708394 
L 260.285012 271.689616 
L 260.334527 273.670841 
L 260.38024 275.659925 
L 260.419704 277.633297 
L 260.457585 279.630363 
L 260.487179 281.605585 
L 260.514992 283.594766 
L 260.53677 285.577951 
L 260.554585 287.561138 
L 260.568438 289.544325 
L 260.578348 291.535367 
L 260.582295 293.518555 
L 260.582295 295.488 
" style="fill:none;stroke:#ffffff;stroke-linecap:square;"/>
   </g>
   <g id="line2d_18">
    <path clip-path="url(#p794e973fca)" d="M 211.737705 57.822556 
L 212.277623 59.743544 
L 212.810737 61.649004 
L 213.340873 63.569993 
L 213.865678 65.480554 
L 214.388521 67.405463 
L 214.903608 69.308745 
L 215.416653 71.233627 
L 215.923429 73.142142 
L 216.427242 75.06362 
L 216.926166 76.979339 
L 217.421675 78.898888 
L 217.911431 80.811139 
L 218.397172 82.730635 
L 218.876743 84.640997 
L 219.354968 86.57153 
L 219.826764 88.481854 
L 220.294933 90.403235 
L 220.759195 92.324595 
L 221.217808 94.238582 
L 221.671901 96.158166 
L 222.122897 98.083147 
L 222.567496 99.995334 
L 223.010012 101.925945 
L 223.447223 103.841753 
L 223.880246 105.764933 
L 224.307726 107.680668 
L 224.730634 109.60218 
L 225.150342 111.528879 
L 225.565451 113.45038 
L 225.975427 115.367974 
L 226.382685 117.300472 
L 226.784558 119.216466 
L 227.181233 121.137475 
L 227.574471 123.068423 
L 227.963353 124.989352 
L 228.347281 126.912797 
L 228.726137 128.832162 
L 229.102057 130.766561 
L 229.47286 132.684442 
L 229.838374 134.607118 
L 230.20032 136.54008 
L 230.55779 138.461294 
L 230.910792 140.390047 
L 231.259891 142.318783 
L 231.603513 144.238577 
L 231.944415 146.178175 
L 232.278966 148.090345 
L 232.610063 150.029888 
L 232.937481 151.957261 
L 233.259749 153.878994 
L 233.577837 155.812808 
L 233.890591 157.735741 
L 234.198526 159.665093 
L 234.503946 161.605268 
L 234.803871 163.52246 
L 235.099499 165.462618 
L 235.390877 167.387422 
L 235.677544 169.319883 
L 235.960149 171.251221 
L 236.237927 173.177942 
L 236.512168 175.121116 
L 236.78202 177.044753 
L 237.046055 178.970374 
L 237.306576 180.915445 
L 237.562975 182.842063 
L 237.814405 184.775401 
L 238.061094 186.703962 
L 238.303855 188.64798 
L 238.542771 190.576507 
L 238.776776 192.512762 
L 239.005872 194.44035 
L 239.230228 196.379442 
L 239.450481 198.314792 
L 239.666934 200.25298 
L 239.879487 202.191158 
L 240.08732 204.121546 
L 240.290039 206.058901 
L 240.48902 207.999809 
L 240.68318 209.929386 
L 240.872332 211.869488 
L 241.057582 213.809581 
L 241.238932 215.749665 
L 241.415627 217.681241 
L 241.587287 219.62396 
L 241.75493 221.563355 
L 241.918731 223.505383 
L 242.078008 225.439584 
L 242.232058 227.381593 
L 242.382209 229.323595 
L 242.527848 231.257193 
L 242.668289 233.201708 
L 242.804753 235.143151 
L 242.937355 237.087104 
L 243.066057 239.03105 
L 243.190376 240.967149 
L 243.309301 242.910617 
L 243.423936 244.849124 
L 243.533544 246.80046 
L 243.640386 248.738511 
L 243.74179 250.6844 
L 243.838922 252.622433 
L 243.930577 254.568311 
L 244.01866 256.521694 
L 244.103822 258.453846 
L 244.182132 260.409543 
L 244.257903 262.349532 
L 244.328111 264.297369 
L 244.39442 266.245204 
L 244.456596 268.185176 
L 244.51315 270.132791 
L 244.56581 272.082597 
L 244.614571 274.0324 
L 244.659271 275.974344 
L 244.698428 277.932001 
L 244.735237 279.865963 
L 244.764607 281.825701 
L 244.791829 283.767548 
L 244.813293 285.719321 
L 244.830857 287.671094 
L 244.844521 289.622866 
L 244.854266 291.566784 
L 244.858182 293.518555 
L 244.858182 295.488 
" style="fill:none;stroke:#ffffff;stroke-linecap:square;"/>
   </g>
   <g id="patch_3">
    <path d="M 57.6 307.584 
L 57.6 41.472 
" style="fill:none;stroke:#000000;stroke-linecap:square;stroke-linejoin:miter;stroke-width:0.8;"/>
   </g>
   <g id="patch_4">
    <path d="M 414.72 307.584 
L 414.72 41.472 
" style="fill:none;stroke:#000000;stroke-linecap:square;stroke-linejoin:miter;stroke-width:0.8;"/>
   </g>
   <g id="patch_5">
    <path d="M 57.6 307.584 
L 414.72 307.584 
" style="fill:none;stroke:#000000;stroke-linecap:square;stroke-linejoin:miter;stroke-width:0.8;"/>
   </g>
   <g id="patch_6">
    <path d="M 57.6 41.472 
L 414.72 41.472 
" style="fill:none;stroke:#000000;stroke-linecap:square;stroke-linejoin:miter;stroke-width:0.8;"/>
   </g>
  </g>
 </g>
 <defs>
  <clipPath id="p794e973fca">
   <rect height="266.112" width="357.12" x="57.6" y="41.472"/>
  </clipPath>
 </defs>
</svg>
