<?xml version="1.0" encoding="utf-8" standalone="no"?>
<!DOCTYPE svg PUBLIC "-//W3C//DTD SVG 1.1//EN"
  "http://www.w3.org/Graphics/SVG/1.1/DTD/svg11.dtd">
<!-- Created with matplotlib (https://matplotlib.org/) -->
<svg height="345.6pt" version="1.1" viewBox="0 0 460.8 345.6" width="460.8pt" xmlns="http://www.w3.org/2000/svg" xmlns:xlink="http://www.w3.org/1999/xlink">
 <metadata>
  <rdf:RDF xmlns:cc="http://creativecommons.org/ns#" xmlns:dc="http://purl.org/dc/elements/1.1/" xmlns:rdf="http://www.w3.org/1999/02/22-rdf-syntax-ns#">
   <cc:Work>
    <dc:type rdf:resource="http://purl.org/dc/dcmitype/StillImage"/>
    <dc:date>2021-07-12T19:26:40.401588</dc:date>
    <dc:format>image/svg+xml</dc:format>
    <dc:creator>
     <cc:Agent>
      <dc:title>Matplotlib v3.3.3, https://matplotlib.org/</dc:title>
     </cc:Agent>
    </dc:creator>
   </cc:Work>
  </rdf:RDF>
 </metadata>
 <defs>
  <style type="text/css">*{stroke-linecap:butt;stroke-linejoin:round;}</style>
 </defs>
 <g id="figure_1">
  <g id="patch_1">
   <path d="M 0 345.6 
L 460.8 345.6 
L 460.8 0 
L 0 0 
z
" style="fill:#ffffff;"/>
  </g>
  <g id="axes_1">
   <g id="patch_2">
    <path d="M 57.6 307.584 
L 414.72 307.584 
L 414.72 41.472 
L 57.6 41.472 
z
" style="fill:#7d9051;"/>
   </g>
   <g id="matplotlib.axis_1">
    <g id="xtick_1">
     <g id="line2d_1">
      <defs>
       <path d="M 0 0 
L 0 3.5 
" id="m56a78bd9ab" style="stroke:#000000;stroke-width:0.8;"/>
      </defs>
      <g>
       <use style="stroke:#000000;stroke-width:0.8;" x="87.895309" xlink:href="#m56a78bd9ab" y="307.584"/>
      </g>
     </g>
     <g id="text_1">
      <!-- 30 -->
      <g transform="translate(81.532809 322.182437)scale(0.1 -0.1)">
       <defs>
        <path d="M 40.578125 39.3125 
Q 47.65625 37.796875 51.625 33 
Q 55.609375 28.21875 55.609375 21.1875 
Q 55.609375 10.40625 48.1875 4.484375 
Q 40.765625 -1.421875 27.09375 -1.421875 
Q 22.515625 -1.421875 17.65625 -0.515625 
Q 12.796875 0.390625 7.625 2.203125 
L 7.625 11.71875 
Q 11.71875 9.328125 16.59375 8.109375 
Q 21.484375 6.890625 26.8125 6.890625 
Q 36.078125 6.890625 40.9375 10.546875 
Q 45.796875 14.203125 45.796875 21.1875 
Q 45.796875 27.640625 41.28125 31.265625 
Q 36.765625 34.90625 28.71875 34.90625 
L 20.21875 34.90625 
L 20.21875 43.015625 
L 29.109375 43.015625 
Q 36.375 43.015625 40.234375 45.921875 
Q 44.09375 48.828125 44.09375 54.296875 
Q 44.09375 59.90625 40.109375 62.90625 
Q 36.140625 65.921875 28.71875 65.921875 
Q 24.65625 65.921875 20.015625 65.03125 
Q 15.375 64.15625 9.8125 62.3125 
L 9.8125 71.09375 
Q 15.4375 72.65625 20.34375 73.4375 
Q 25.25 74.21875 29.59375 74.21875 
Q 40.828125 74.21875 47.359375 69.109375 
Q 53.90625 64.015625 53.90625 55.328125 
Q 53.90625 49.265625 50.4375 45.09375 
Q 46.96875 40.921875 40.578125 39.3125 
z
" id="DejaVuSans-51"/>
        <path d="M 31.78125 66.40625 
Q 24.171875 66.40625 20.328125 58.90625 
Q 16.5 51.421875 16.5 36.375 
Q 16.5 21.390625 20.328125 13.890625 
Q 24.171875 6.390625 31.78125 6.390625 
Q 39.453125 6.390625 43.28125 13.890625 
Q 47.125 21.390625 47.125 36.375 
Q 47.125 51.421875 43.28125 58.90625 
Q 39.453125 66.40625 31.78125 66.40625 
z
M 31.78125 74.21875 
Q 44.046875 74.21875 50.515625 64.515625 
Q 56.984375 54.828125 56.984375 36.375 
Q 56.984375 17.96875 50.515625 8.265625 
Q 44.046875 -1.421875 31.78125 -1.421875 
Q 19.53125 -1.421875 13.0625 8.265625 
Q 6.59375 17.96875 6.59375 36.375 
Q 6.59375 54.828125 13.0625 64.515625 
Q 19.53125 74.21875 31.78125 74.21875 
z
" id="DejaVuSans-48"/>
       </defs>
       <use xlink:href="#DejaVuSans-51"/>
       <use x="63.623047" xlink:href="#DejaVuSans-48"/>
      </g>
     </g>
    </g>
    <g id="xtick_2">
     <g id="line2d_2">
      <g>
       <use style="stroke:#000000;stroke-width:0.8;" x="128.44023" xlink:href="#m56a78bd9ab" y="307.584"/>
      </g>
     </g>
     <g id="text_2">
      <!-- 40 -->
      <g transform="translate(122.07773 322.182437)scale(0.1 -0.1)">
       <defs>
        <path d="M 37.796875 64.3125 
L 12.890625 25.390625 
L 37.796875 25.390625 
z
M 35.203125 72.90625 
L 47.609375 72.90625 
L 47.609375 25.390625 
L 58.015625 25.390625 
L 58.015625 17.1875 
L 47.609375 17.1875 
L 47.609375 0 
L 37.796875 0 
L 37.796875 17.1875 
L 4.890625 17.1875 
L 4.890625 26.703125 
z
" id="DejaVuSans-52"/>
       </defs>
       <use xlink:href="#DejaVuSans-52"/>
       <use x="63.623047" xlink:href="#DejaVuSans-48"/>
      </g>
     </g>
    </g>
    <g id="xtick_3">
     <g id="line2d_3">
      <g>
       <use style="stroke:#000000;stroke-width:0.8;" x="168.985151" xlink:href="#m56a78bd9ab" y="307.584"/>
      </g>
     </g>
     <g id="text_3">
      <!-- 50 -->
      <g transform="translate(162.622651 322.182437)scale(0.1 -0.1)">
       <defs>
        <path d="M 10.796875 72.90625 
L 49.515625 72.90625 
L 49.515625 64.59375 
L 19.828125 64.59375 
L 19.828125 46.734375 
Q 21.96875 47.46875 24.109375 47.828125 
Q 26.265625 48.1875 28.421875 48.1875 
Q 40.625 48.1875 47.75 41.5 
Q 54.890625 34.8125 54.890625 23.390625 
Q 54.890625 11.625 47.5625 5.09375 
Q 40.234375 -1.421875 26.90625 -1.421875 
Q 22.3125 -1.421875 17.546875 -0.640625 
Q 12.796875 0.140625 7.71875 1.703125 
L 7.71875 11.625 
Q 12.109375 9.234375 16.796875 8.0625 
Q 21.484375 6.890625 26.703125 6.890625 
Q 35.15625 6.890625 40.078125 11.328125 
Q 45.015625 15.765625 45.015625 23.390625 
Q 45.015625 31 40.078125 35.4375 
Q 35.15625 39.890625 26.703125 39.890625 
Q 22.75 39.890625 18.8125 39.015625 
Q 14.890625 38.140625 10.796875 36.28125 
z
" id="DejaVuSans-53"/>
       </defs>
       <use xlink:href="#DejaVuSans-53"/>
       <use x="63.623047" xlink:href="#DejaVuSans-48"/>
      </g>
     </g>
    </g>
    <g id="xtick_4">
     <g id="line2d_4">
      <g>
       <use style="stroke:#000000;stroke-width:0.8;" x="209.530073" xlink:href="#m56a78bd9ab" y="307.584"/>
      </g>
     </g>
     <g id="text_4">
      <!-- 60 -->
      <g transform="translate(203.167573 322.182437)scale(0.1 -0.1)">
       <defs>
        <path d="M 33.015625 40.375 
Q 26.375 40.375 22.484375 35.828125 
Q 18.609375 31.296875 18.609375 23.390625 
Q 18.609375 15.53125 22.484375 10.953125 
Q 26.375 6.390625 33.015625 6.390625 
Q 39.65625 6.390625 43.53125 10.953125 
Q 47.40625 15.53125 47.40625 23.390625 
Q 47.40625 31.296875 43.53125 35.828125 
Q 39.65625 40.375 33.015625 40.375 
z
M 52.59375 71.296875 
L 52.59375 62.3125 
Q 48.875 64.0625 45.09375 64.984375 
Q 41.3125 65.921875 37.59375 65.921875 
Q 27.828125 65.921875 22.671875 59.328125 
Q 17.53125 52.734375 16.796875 39.40625 
Q 19.671875 43.65625 24.015625 45.921875 
Q 28.375 48.1875 33.59375 48.1875 
Q 44.578125 48.1875 50.953125 41.515625 
Q 57.328125 34.859375 57.328125 23.390625 
Q 57.328125 12.15625 50.6875 5.359375 
Q 44.046875 -1.421875 33.015625 -1.421875 
Q 20.359375 -1.421875 13.671875 8.265625 
Q 6.984375 17.96875 6.984375 36.375 
Q 6.984375 53.65625 15.1875 63.9375 
Q 23.390625 74.21875 37.203125 74.21875 
Q 40.921875 74.21875 44.703125 73.484375 
Q 48.484375 72.75 52.59375 71.296875 
z
" id="DejaVuSans-54"/>
       </defs>
       <use xlink:href="#DejaVuSans-54"/>
       <use x="63.623047" xlink:href="#DejaVuSans-48"/>
      </g>
     </g>
    </g>
    <g id="xtick_5">
     <g id="line2d_5">
      <g>
       <use style="stroke:#000000;stroke-width:0.8;" x="250.074994" xlink:href="#m56a78bd9ab" y="307.584"/>
      </g>
     </g>
     <g id="text_5">
      <!-- 70 -->
      <g transform="translate(243.712494 322.182437)scale(0.1 -0.1)">
       <defs>
        <path d="M 8.203125 72.90625 
L 55.078125 72.90625 
L 55.078125 68.703125 
L 28.609375 0 
L 18.3125 0 
L 43.21875 64.59375 
L 8.203125 64.59375 
z
" id="DejaVuSans-55"/>
       </defs>
       <use xlink:href="#DejaVuSans-55"/>
       <use x="63.623047" xlink:href="#DejaVuSans-48"/>
      </g>
     </g>
    </g>
    <g id="xtick_6">
     <g id="line2d_6">
      <g>
       <use style="stroke:#000000;stroke-width:0.8;" x="290.619916" xlink:href="#m56a78bd9ab" y="307.584"/>
      </g>
     </g>
     <g id="text_6">
      <!-- 80 -->
      <g transform="translate(284.257416 322.182437)scale(0.1 -0.1)">
       <defs>
        <path d="M 31.78125 34.625 
Q 24.75 34.625 20.71875 30.859375 
Q 16.703125 27.09375 16.703125 20.515625 
Q 16.703125 13.921875 20.71875 10.15625 
Q 24.75 6.390625 31.78125 6.390625 
Q 38.8125 6.390625 42.859375 10.171875 
Q 46.921875 13.96875 46.921875 20.515625 
Q 46.921875 27.09375 42.890625 30.859375 
Q 38.875 34.625 31.78125 34.625 
z
M 21.921875 38.8125 
Q 15.578125 40.375 12.03125 44.71875 
Q 8.5 49.078125 8.5 55.328125 
Q 8.5 64.0625 14.71875 69.140625 
Q 20.953125 74.21875 31.78125 74.21875 
Q 42.671875 74.21875 48.875 69.140625 
Q 55.078125 64.0625 55.078125 55.328125 
Q 55.078125 49.078125 51.53125 44.71875 
Q 48 40.375 41.703125 38.8125 
Q 48.828125 37.15625 52.796875 32.3125 
Q 56.78125 27.484375 56.78125 20.515625 
Q 56.78125 9.90625 50.3125 4.234375 
Q 43.84375 -1.421875 31.78125 -1.421875 
Q 19.734375 -1.421875 13.25 4.234375 
Q 6.78125 9.90625 6.78125 20.515625 
Q 6.78125 27.484375 10.78125 32.3125 
Q 14.796875 37.15625 21.921875 38.8125 
z
M 18.3125 54.390625 
Q 18.3125 48.734375 21.84375 45.5625 
Q 25.390625 42.390625 31.78125 42.390625 
Q 38.140625 42.390625 41.71875 45.5625 
Q 45.3125 48.734375 45.3125 54.390625 
Q 45.3125 60.0625 41.71875 63.234375 
Q 38.140625 66.40625 31.78125 66.40625 
Q 25.390625 66.40625 21.84375 63.234375 
Q 18.3125 60.0625 18.3125 54.390625 
z
" id="DejaVuSans-56"/>
       </defs>
       <use xlink:href="#DejaVuSans-56"/>
       <use x="63.623047" xlink:href="#DejaVuSans-48"/>
      </g>
     </g>
    </g>
    <g id="xtick_7">
     <g id="line2d_7">
      <g>
       <use style="stroke:#000000;stroke-width:0.8;" x="331.164837" xlink:href="#m56a78bd9ab" y="307.584"/>
      </g>
     </g>
     <g id="text_7">
      <!-- 90 -->
      <g transform="translate(324.802337 322.182437)scale(0.1 -0.1)">
       <defs>
        <path d="M 10.984375 1.515625 
L 10.984375 10.5 
Q 14.703125 8.734375 18.5 7.8125 
Q 22.3125 6.890625 25.984375 6.890625 
Q 35.75 6.890625 40.890625 13.453125 
Q 46.046875 20.015625 46.78125 33.40625 
Q 43.953125 29.203125 39.59375 26.953125 
Q 35.25 24.703125 29.984375 24.703125 
Q 19.046875 24.703125 12.671875 31.3125 
Q 6.296875 37.9375 6.296875 49.421875 
Q 6.296875 60.640625 12.9375 67.421875 
Q 19.578125 74.21875 30.609375 74.21875 
Q 43.265625 74.21875 49.921875 64.515625 
Q 56.59375 54.828125 56.59375 36.375 
Q 56.59375 19.140625 48.40625 8.859375 
Q 40.234375 -1.421875 26.421875 -1.421875 
Q 22.703125 -1.421875 18.890625 -0.6875 
Q 15.09375 0.046875 10.984375 1.515625 
z
M 30.609375 32.421875 
Q 37.25 32.421875 41.125 36.953125 
Q 45.015625 41.5 45.015625 49.421875 
Q 45.015625 57.28125 41.125 61.84375 
Q 37.25 66.40625 30.609375 66.40625 
Q 23.96875 66.40625 20.09375 61.84375 
Q 16.21875 57.28125 16.21875 49.421875 
Q 16.21875 41.5 20.09375 36.953125 
Q 23.96875 32.421875 30.609375 32.421875 
z
" id="DejaVuSans-57"/>
       </defs>
       <use xlink:href="#DejaVuSans-57"/>
       <use x="63.623047" xlink:href="#DejaVuSans-48"/>
      </g>
     </g>
    </g>
    <g id="xtick_8">
     <g id="line2d_8">
      <g>
       <use style="stroke:#000000;stroke-width:0.8;" x="371.709759" xlink:href="#m56a78bd9ab" y="307.584"/>
      </g>
     </g>
     <g id="text_8">
      <!-- 100 -->
      <g transform="translate(362.166009 322.182437)scale(0.1 -0.1)">
       <defs>
        <path d="M 12.40625 8.296875 
L 28.515625 8.296875 
L 28.515625 63.921875 
L 10.984375 60.40625 
L 10.984375 69.390625 
L 28.421875 72.90625 
L 38.28125 72.90625 
L 38.28125 8.296875 
L 54.390625 8.296875 
L 54.390625 0 
L 12.40625 0 
z
" id="DejaVuSans-49"/>
       </defs>
       <use xlink:href="#DejaVuSans-49"/>
       <use x="63.623047" xlink:href="#DejaVuSans-48"/>
       <use x="127.246094" xlink:href="#DejaVuSans-48"/>
      </g>
     </g>
    </g>
    <g id="xtick_9">
     <g id="line2d_9">
      <g>
       <use style="stroke:#000000;stroke-width:0.8;" x="412.25468" xlink:href="#m56a78bd9ab" y="307.584"/>
      </g>
     </g>
     <g id="text_9">
      <!-- 110 -->
      <g transform="translate(402.71093 322.182437)scale(0.1 -0.1)">
       <use xlink:href="#DejaVuSans-49"/>
       <use x="63.623047" xlink:href="#DejaVuSans-49"/>
       <use x="127.246094" xlink:href="#DejaVuSans-48"/>
      </g>
     </g>
    </g>
   </g>
   <g id="matplotlib.axis_2">
    <g id="ytick_1">
     <g id="line2d_10">
      <defs>
       <path d="M 0 0 
L -3.5 0 
" id="m30c1c5d3ae" style="stroke:#000000;stroke-width:0.8;"/>
      </defs>
      <g>
       <use style="stroke:#000000;stroke-width:0.8;" x="57.6" xlink:href="#m30c1c5d3ae" y="279.468006"/>
      </g>
     </g>
     <g id="text_10">
      <!-- 140 -->
      <g transform="translate(31.5125 283.267225)scale(0.1 -0.1)">
       <use xlink:href="#DejaVuSans-49"/>
       <use x="63.623047" xlink:href="#DejaVuSans-52"/>
       <use x="127.246094" xlink:href="#DejaVuSans-48"/>
      </g>
     </g>
    </g>
    <g id="ytick_2">
     <g id="line2d_11">
      <g>
       <use style="stroke:#000000;stroke-width:0.8;" x="57.6" xlink:href="#m30c1c5d3ae" y="238.923085"/>
      </g>
     </g>
     <g id="text_11">
      <!-- 150 -->
      <g transform="translate(31.5125 242.722304)scale(0.1 -0.1)">
       <use xlink:href="#DejaVuSans-49"/>
       <use x="63.623047" xlink:href="#DejaVuSans-53"/>
       <use x="127.246094" xlink:href="#DejaVuSans-48"/>
      </g>
     </g>
    </g>
    <g id="ytick_3">
     <g id="line2d_12">
      <g>
       <use style="stroke:#000000;stroke-width:0.8;" x="57.6" xlink:href="#m30c1c5d3ae" y="198.378163"/>
      </g>
     </g>
     <g id="text_12">
      <!-- 160 -->
      <g transform="translate(31.5125 202.177382)scale(0.1 -0.1)">
       <use xlink:href="#DejaVuSans-49"/>
       <use x="63.623047" xlink:href="#DejaVuSans-54"/>
       <use x="127.246094" xlink:href="#DejaVuSans-48"/>
      </g>
     </g>
    </g>
    <g id="ytick_4">
     <g id="line2d_13">
      <g>
       <use style="stroke:#000000;stroke-width:0.8;" x="57.6" xlink:href="#m30c1c5d3ae" y="157.833242"/>
      </g>
     </g>
     <g id="text_13">
      <!-- 170 -->
      <g transform="translate(31.5125 161.632461)scale(0.1 -0.1)">
       <use xlink:href="#DejaVuSans-49"/>
       <use x="63.623047" xlink:href="#DejaVuSans-55"/>
       <use x="127.246094" xlink:href="#DejaVuSans-48"/>
      </g>
     </g>
    </g>
    <g id="ytick_5">
     <g id="line2d_14">
      <g>
       <use style="stroke:#000000;stroke-width:0.8;" x="57.6" xlink:href="#m30c1c5d3ae" y="117.288321"/>
      </g>
     </g>
     <g id="text_14">
      <!-- 180 -->
      <g transform="translate(31.5125 121.087539)scale(0.1 -0.1)">
       <use xlink:href="#DejaVuSans-49"/>
       <use x="63.623047" xlink:href="#DejaVuSans-56"/>
       <use x="127.246094" xlink:href="#DejaVuSans-48"/>
      </g>
     </g>
    </g>
    <g id="ytick_6">
     <g id="line2d_15">
      <g>
       <use style="stroke:#000000;stroke-width:0.8;" x="57.6" xlink:href="#m30c1c5d3ae" y="76.743399"/>
      </g>
     </g>
     <g id="text_15">
      <!-- 190 -->
      <g transform="translate(31.5125 80.542618)scale(0.1 -0.1)">
       <use xlink:href="#DejaVuSans-49"/>
       <use x="63.623047" xlink:href="#DejaVuSans-57"/>
       <use x="127.246094" xlink:href="#DejaVuSans-48"/>
      </g>
     </g>
    </g>
   </g>
   <g id="line2d_16">
    <path clip-path="url(#p7dfe29e242)" d="M 375.764251 60.525431 
L 372.309824 67.799189 
L 368.86756 74.951314 
L 365.433405 81.977748 
L 362.011413 88.882549 
L 358.597531 95.665714 
L 355.199867 102.32319 
L 351.810311 108.859031 
L 348.428865 115.273238 
L 345.063636 121.561755 
L 341.706517 127.728638 
L 338.357506 133.773886 
L 335.024714 139.697499 
L 331.70003 145.495422 
L 328.383456 151.167657 
L 325.083099 156.722311 
L 321.790851 162.151276 
L 318.506713 167.454552 
L 315.238792 172.640247 
L 311.97898 177.700253 
L 308.731332 182.638625 
L 305.491793 187.451307 
L 302.264417 192.142354 
L 299.049205 196.711767 
L 295.846156 201.155491 
L 292.651216 205.477579 
L 289.464386 209.678033 
L 286.293773 213.752798 
L 283.131269 217.705927 
L 279.980928 221.537423 
L 276.842751 225.247283 
L 273.712684 228.831454 
L 270.594779 232.289936 
L 267.484984 235.630837 
L 264.387352 238.846049 
L 261.301883 241.939627 
L 258.228578 244.907515 
L 255.163382 247.753769 
L 252.110349 250.478387 
L 249.06948 253.077317 
L 246.03672 255.554612 
L 243.016124 257.910272 
L 240.003636 260.144297 
L 237.007366 262.252633 
L 234.019205 264.235279 
L 231.039154 266.100346 
L 228.07532 267.839723 
L 225.119595 269.457465 
L 222.171979 270.949518 
L 219.240582 272.319937 
L 216.317293 273.56872 
L 213.406167 274.691815 
L 210.503151 275.693274 
L 207.612298 276.573099 
L 204.733609 277.331289 
L 201.863028 277.96379 
L 199.004611 278.470601 
L 196.158358 278.859832 
L 193.320213 279.123374 
L 190.498287 279.265282 
L 187.680415 279.2815 
L 184.878761 279.176083 
L 182.085216 278.949031 
L 179.303834 278.59629 
L 176.530561 278.125969 
L 173.769452 277.525905 
L 171.020507 276.808259 
L 168.283724 275.964925 
L 165.555051 274.999956 
L 162.838541 273.909298 
L 160.130141 272.697004 
L 157.437958 271.363076 
L 154.753884 269.903459 
L 152.077919 268.326262 
L 149.414118 266.619321 
L 146.76248 264.794799 
L 144.123006 262.844588 
L 141.49164 260.772743 
L 138.872438 258.575208 
L 136.2654 256.256039 
L 133.66647 253.815234 
L 131.079704 251.252795 
L 128.505102 248.564667 
L 125.938608 245.75085 
L 123.384278 242.819452 
L 120.842112 239.762365 
L 118.308054 236.583643 
L 115.78616 233.279232 
L 113.276429 229.853186 
L 110.774808 226.305505 
L 108.28535 222.63619 
L 105.808055 218.841185 
L 103.342924 214.924546 
L 100.885901 210.882217 
L 98.441043 206.718254 
L 96.004293 202.432656 
" style="fill:none;stroke:#fea952;stroke-linecap:square;"/>
   </g>
   <g id="line2d_17">
    <path clip-path="url(#p7dfe29e242)" d="M 390.414052 67.482861 
L 386.923319 74.832556 
L 383.43834 82.072751 
L 379.964705 89.179403 
L 376.498105 96.17352 
L 373.043007 103.038009 
L 369.596901 109.789642 
L 366.156769 116.422208 
L 362.728104 122.925313 
L 359.307756 129.315951 
L 355.892987 135.587809 
L 352.491916 141.726305 
L 349.093729 147.765046 
L 345.700414 153.681494 
L 342.326039 159.45179 
L 338.950444 165.131784 
L 335.579077 170.689856 
L 332.227486 176.101106 
L 328.872473 181.423484 
L 325.529361 186.611465 
L 322.185257 191.694805 
L 318.853046 196.643664 
L 315.527986 201.475105 
L 312.205633 206.194959 
L 308.887751 210.795994 
L 305.571516 215.280046 
L 302.264017 219.637548 
L 298.957878 223.884082 
L 295.658441 228.006047 
L 292.363043 232.011474 
L 289.058283 235.915145 
L 285.758272 239.690842 
L 282.465851 243.339829 
L 279.164388 246.883126 
L 275.870227 250.298826 
L 272.567894 253.605796 
L 269.264113 256.791937 
L 265.961931 259.853928 
L 262.647254 262.807059 
L 259.329249 265.637558 
L 256.010219 268.34335 
L 252.676632 270.937055 
L 249.336525 273.407768 
L 245.973835 275.766512 
L 242.623116 277.982833 
L 239.247771 280.087523 
L 235.86183 282.066204 
L 232.444055 283.927254 
L 229.040333 285.641292 
L 225.611672 287.234081 
L 222.154735 288.699707 
L 218.695054 290.023161 
L 215.225201 291.208581 
L 211.742924 292.256225 
L 208.223351 293.169351 
L 204.694394 293.932693 
L 201.202001 294.539017 
L 197.657861 295.008331 
L 194.134743 295.320876 
L 190.591626 295.482982 
L 187.070619 295.488 
L 183.564942 295.340748 
L 180.044762 295.038129 
L 176.592137 294.58595 
L 173.08635 293.973995 
L 169.672855 293.217953 
L 166.244578 292.307066 
L 162.876552 291.254954 
L 159.512489 290.050203 
L 156.212758 288.712051 
L 152.929817 287.228964 
L 149.69005 285.610618 
L 146.519024 283.875202 
L 143.327898 281.981284 
L 140.22097 279.980029 
L 137.124918 277.838568 
L 134.090194 275.586849 
L 131.06759 273.19698 
L 128.093129 270.692509 
L 125.162839 268.077868 
L 122.252941 265.33712 
L 119.367214 262.470641 
L 116.522762 259.493804 
L 113.711369 256.405291 
L 110.914452 253.188923 
L 108.160666 249.871936 
L 105.415761 246.422915 
L 102.702989 242.863236 
L 100.022254 239.199273 
L 97.354093 235.41083 
L 94.704761 231.501296 
L 92.082454 227.480073 
L 89.484193 223.348208 
L 86.900433 219.093744 
L 84.342698 214.734436 
L 81.905948 210.448838 
" style="fill:none;stroke:#ffffff;stroke-linecap:square;"/>
   </g>
   <g id="line2d_18">
    <path clip-path="url(#p7dfe29e242)" d="M 361.11445 53.568 
L 357.696328 60.765823 
L 354.296779 67.829876 
L 350.902105 74.776094 
L 347.524721 81.591577 
L 344.152055 88.293419 
L 340.802832 94.856738 
L 337.463853 101.295854 
L 334.129625 107.621163 
L 330.819516 113.80756 
L 327.520047 119.869467 
L 324.223097 125.821466 
L 320.955699 131.629951 
L 317.699647 137.309351 
L 314.440872 142.883523 
L 311.215754 148.312838 
L 308.002626 153.612696 
L 304.78594 158.807998 
L 301.605111 163.857011 
L 298.4286 168.789042 
L 295.277407 173.582444 
L 292.13054 178.25895 
L 289.000848 182.809604 
L 285.892777 187.228576 
L 282.804561 191.514987 
L 279.730917 195.675112 
L 276.664754 199.718518 
L 273.629667 203.621513 
L 270.604097 207.405808 
L 267.598814 211.063372 
L 264.62722 214.57942 
L 261.667095 217.972066 
L 258.723707 221.240042 
L 255.805579 224.378548 
L 252.904476 227.393273 
L 250.035873 230.273458 
L 247.193044 233.023093 
L 244.364833 235.653609 
L 241.573445 238.149716 
L 238.809711 240.517076 
L 236.063221 242.765874 
L 233.355615 244.883488 
L 230.670746 246.880825 
L 228.040898 248.738753 
L 225.415295 250.487726 
L 222.830537 252.113169 
L 220.28881 253.613242 
L 217.795135 254.987676 
L 215.303626 256.257744 
L 212.869491 257.405792 
L 210.479851 258.437733 
L 208.117281 259.360468 
L 205.781101 260.177967 
L 203.481672 260.889973 
L 201.243866 261.493227 
L 199.031662 261.994886 
L 196.807221 262.402186 
L 194.658854 262.711334 
L 192.505684 262.925873 
L 190.404948 263.047582 
L 188.290211 263.074999 
L 186.19258 263.011418 
L 184.12567 262.859934 
L 182.015531 262.606631 
L 179.974772 262.277944 
L 177.866049 261.833856 
L 175.796435 261.309453 
L 173.690897 260.674896 
L 171.597613 259.949708 
L 169.464325 259.106544 
L 167.330464 258.165045 
L 165.185865 257.115535 
L 162.988744 255.931717 
L 160.827941 254.67124 
L 158.607266 253.258612 
L 156.400042 251.75103 
L 154.155817 250.102328 
L 151.915691 248.348506 
L 149.651748 246.457907 
L 147.36796 244.434209 
L 145.08 242.293349 
L 142.792195 240.03495 
L 140.487442 237.63553 
L 138.165848 235.096408 
L 135.854105 232.449981 
L 133.523558 229.652794 
L 131.200348 226.744371 
L 128.869332 223.695228 
L 126.530605 220.507099 
L 124.195522 217.200181 
L 121.865938 213.771083 
L 119.533656 210.202298 
L 117.201655 206.500884 
L 114.87137 202.670691 
L 112.539387 198.702071 
L 110.102637 194.416473 
" style="fill:none;stroke:#ffffff;stroke-linecap:square;"/>
   </g>
   <g id="patch_3">
    <path d="M 57.6 307.584 
L 57.6 41.472 
" style="fill:none;stroke:#000000;stroke-linecap:square;stroke-linejoin:miter;stroke-width:0.8;"/>
   </g>
   <g id="patch_4">
    <path d="M 414.72 307.584 
L 414.72 41.472 
" style="fill:none;stroke:#000000;stroke-linecap:square;stroke-linejoin:miter;stroke-width:0.8;"/>
   </g>
   <g id="patch_5">
    <path d="M 57.6 307.584 
L 414.72 307.584 
" style="fill:none;stroke:#000000;stroke-linecap:square;stroke-linejoin:miter;stroke-width:0.8;"/>
   </g>
   <g id="patch_6">
    <path d="M 57.6 41.472 
L 414.72 41.472 
" style="fill:none;stroke:#000000;stroke-linecap:square;stroke-linejoin:miter;stroke-width:0.8;"/>
   </g>
  </g>
 </g>
 <defs>
  <clipPath id="p7dfe29e242">
   <rect height="266.112" width="357.12" x="57.6" y="41.472"/>
  </clipPath>
 </defs>
</svg>
