<?xml version="1.0" encoding="utf-8" standalone="no"?>
<!DOCTYPE svg PUBLIC "-//W3C//DTD SVG 1.1//EN"
  "http://www.w3.org/Graphics/SVG/1.1/DTD/svg11.dtd">
<!-- Created with matplotlib (https://matplotlib.org/) -->
<svg height="345.6pt" version="1.1" viewBox="0 0 460.8 345.6" width="460.8pt" xmlns="http://www.w3.org/2000/svg" xmlns:xlink="http://www.w3.org/1999/xlink">
 <metadata>
  <rdf:RDF xmlns:cc="http://creativecommons.org/ns#" xmlns:dc="http://purl.org/dc/elements/1.1/" xmlns:rdf="http://www.w3.org/1999/02/22-rdf-syntax-ns#">
   <cc:Work>
    <dc:type rdf:resource="http://purl.org/dc/dcmitype/StillImage"/>
    <dc:date>2021-07-12T19:28:24.432785</dc:date>
    <dc:format>image/svg+xml</dc:format>
    <dc:creator>
     <cc:Agent>
      <dc:title>Matplotlib v3.3.3, https://matplotlib.org/</dc:title>
     </cc:Agent>
    </dc:creator>
   </cc:Work>
  </rdf:RDF>
 </metadata>
 <defs>
  <style type="text/css">*{stroke-linecap:butt;stroke-linejoin:round;}</style>
 </defs>
 <g id="figure_1">
  <g id="patch_1">
   <path d="M 0 345.6 
L 460.8 345.6 
L 460.8 0 
L 0 0 
z
" style="fill:#ffffff;"/>
  </g>
  <g id="axes_1">
   <g id="patch_2">
    <path d="M 57.6 307.584 
L 414.72 307.584 
L 414.72 41.472 
L 57.6 41.472 
z
" style="fill:#7d9051;"/>
   </g>
   <g id="matplotlib.axis_1">
    <g id="xtick_1">
     <g id="line2d_1">
      <defs>
       <path d="M 0 0 
L 0 3.5 
" id="mdb70c3bf3a" style="stroke:#000000;stroke-width:0.8;"/>
      </defs>
      <g>
       <use style="stroke:#000000;stroke-width:0.8;" x="85.164771" xlink:href="#mdb70c3bf3a" y="307.584"/>
      </g>
     </g>
     <g id="text_1">
      <!-- 60 -->
      <g transform="translate(78.802271 322.182437)scale(0.1 -0.1)">
       <defs>
        <path d="M 33.015625 40.375 
Q 26.375 40.375 22.484375 35.828125 
Q 18.609375 31.296875 18.609375 23.390625 
Q 18.609375 15.53125 22.484375 10.953125 
Q 26.375 6.390625 33.015625 6.390625 
Q 39.65625 6.390625 43.53125 10.953125 
Q 47.40625 15.53125 47.40625 23.390625 
Q 47.40625 31.296875 43.53125 35.828125 
Q 39.65625 40.375 33.015625 40.375 
z
M 52.59375 71.296875 
L 52.59375 62.3125 
Q 48.875 64.0625 45.09375 64.984375 
Q 41.3125 65.921875 37.59375 65.921875 
Q 27.828125 65.921875 22.671875 59.328125 
Q 17.53125 52.734375 16.796875 39.40625 
Q 19.671875 43.65625 24.015625 45.921875 
Q 28.375 48.1875 33.59375 48.1875 
Q 44.578125 48.1875 50.953125 41.515625 
Q 57.328125 34.859375 57.328125 23.390625 
Q 57.328125 12.15625 50.6875 5.359375 
Q 44.046875 -1.421875 33.015625 -1.421875 
Q 20.359375 -1.421875 13.671875 8.265625 
Q 6.984375 17.96875 6.984375 36.375 
Q 6.984375 53.65625 15.1875 63.9375 
Q 23.390625 74.21875 37.203125 74.21875 
Q 40.921875 74.21875 44.703125 73.484375 
Q 48.484375 72.75 52.59375 71.296875 
z
" id="DejaVuSans-54"/>
        <path d="M 31.78125 66.40625 
Q 24.171875 66.40625 20.328125 58.90625 
Q 16.5 51.421875 16.5 36.375 
Q 16.5 21.390625 20.328125 13.890625 
Q 24.171875 6.390625 31.78125 6.390625 
Q 39.453125 6.390625 43.28125 13.890625 
Q 47.125 21.390625 47.125 36.375 
Q 47.125 51.421875 43.28125 58.90625 
Q 39.453125 66.40625 31.78125 66.40625 
z
M 31.78125 74.21875 
Q 44.046875 74.21875 50.515625 64.515625 
Q 56.984375 54.828125 56.984375 36.375 
Q 56.984375 17.96875 50.515625 8.265625 
Q 44.046875 -1.421875 31.78125 -1.421875 
Q 19.53125 -1.421875 13.0625 8.265625 
Q 6.59375 17.96875 6.59375 36.375 
Q 6.59375 54.828125 13.0625 64.515625 
Q 19.53125 74.21875 31.78125 74.21875 
z
" id="DejaVuSans-48"/>
       </defs>
       <use xlink:href="#DejaVuSans-54"/>
       <use x="63.623047" xlink:href="#DejaVuSans-48"/>
      </g>
     </g>
    </g>
    <g id="xtick_2">
     <g id="line2d_2">
      <g>
       <use style="stroke:#000000;stroke-width:0.8;" x="125.159432" xlink:href="#mdb70c3bf3a" y="307.584"/>
      </g>
     </g>
     <g id="text_2">
      <!-- 80 -->
      <g transform="translate(118.796932 322.182437)scale(0.1 -0.1)">
       <defs>
        <path d="M 31.78125 34.625 
Q 24.75 34.625 20.71875 30.859375 
Q 16.703125 27.09375 16.703125 20.515625 
Q 16.703125 13.921875 20.71875 10.15625 
Q 24.75 6.390625 31.78125 6.390625 
Q 38.8125 6.390625 42.859375 10.171875 
Q 46.921875 13.96875 46.921875 20.515625 
Q 46.921875 27.09375 42.890625 30.859375 
Q 38.875 34.625 31.78125 34.625 
z
M 21.921875 38.8125 
Q 15.578125 40.375 12.03125 44.71875 
Q 8.5 49.078125 8.5 55.328125 
Q 8.5 64.0625 14.71875 69.140625 
Q 20.953125 74.21875 31.78125 74.21875 
Q 42.671875 74.21875 48.875 69.140625 
Q 55.078125 64.0625 55.078125 55.328125 
Q 55.078125 49.078125 51.53125 44.71875 
Q 48 40.375 41.703125 38.8125 
Q 48.828125 37.15625 52.796875 32.3125 
Q 56.78125 27.484375 56.78125 20.515625 
Q 56.78125 9.90625 50.3125 4.234375 
Q 43.84375 -1.421875 31.78125 -1.421875 
Q 19.734375 -1.421875 13.25 4.234375 
Q 6.78125 9.90625 6.78125 20.515625 
Q 6.78125 27.484375 10.78125 32.3125 
Q 14.796875 37.15625 21.921875 38.8125 
z
M 18.3125 54.390625 
Q 18.3125 48.734375 21.84375 45.5625 
Q 25.390625 42.390625 31.78125 42.390625 
Q 38.140625 42.390625 41.71875 45.5625 
Q 45.3125 48.734375 45.3125 54.390625 
Q 45.3125 60.0625 41.71875 63.234375 
Q 38.140625 66.40625 31.78125 66.40625 
Q 25.390625 66.40625 21.84375 63.234375 
Q 18.3125 60.0625 18.3125 54.390625 
z
" id="DejaVuSans-56"/>
       </defs>
       <use xlink:href="#DejaVuSans-56"/>
       <use x="63.623047" xlink:href="#DejaVuSans-48"/>
      </g>
     </g>
    </g>
    <g id="xtick_3">
     <g id="line2d_3">
      <g>
       <use style="stroke:#000000;stroke-width:0.8;" x="165.154093" xlink:href="#mdb70c3bf3a" y="307.584"/>
      </g>
     </g>
     <g id="text_3">
      <!-- 100 -->
      <g transform="translate(155.610343 322.182437)scale(0.1 -0.1)">
       <defs>
        <path d="M 12.40625 8.296875 
L 28.515625 8.296875 
L 28.515625 63.921875 
L 10.984375 60.40625 
L 10.984375 69.390625 
L 28.421875 72.90625 
L 38.28125 72.90625 
L 38.28125 8.296875 
L 54.390625 8.296875 
L 54.390625 0 
L 12.40625 0 
z
" id="DejaVuSans-49"/>
       </defs>
       <use xlink:href="#DejaVuSans-49"/>
       <use x="63.623047" xlink:href="#DejaVuSans-48"/>
       <use x="127.246094" xlink:href="#DejaVuSans-48"/>
      </g>
     </g>
    </g>
    <g id="xtick_4">
     <g id="line2d_4">
      <g>
       <use style="stroke:#000000;stroke-width:0.8;" x="205.148754" xlink:href="#mdb70c3bf3a" y="307.584"/>
      </g>
     </g>
     <g id="text_4">
      <!-- 120 -->
      <g transform="translate(195.605004 322.182437)scale(0.1 -0.1)">
       <defs>
        <path d="M 19.1875 8.296875 
L 53.609375 8.296875 
L 53.609375 0 
L 7.328125 0 
L 7.328125 8.296875 
Q 12.9375 14.109375 22.625 23.890625 
Q 32.328125 33.6875 34.8125 36.53125 
Q 39.546875 41.84375 41.421875 45.53125 
Q 43.3125 49.21875 43.3125 52.78125 
Q 43.3125 58.59375 39.234375 62.25 
Q 35.15625 65.921875 28.609375 65.921875 
Q 23.96875 65.921875 18.8125 64.3125 
Q 13.671875 62.703125 7.8125 59.421875 
L 7.8125 69.390625 
Q 13.765625 71.78125 18.9375 73 
Q 24.125 74.21875 28.421875 74.21875 
Q 39.75 74.21875 46.484375 68.546875 
Q 53.21875 62.890625 53.21875 53.421875 
Q 53.21875 48.921875 51.53125 44.890625 
Q 49.859375 40.875 45.40625 35.40625 
Q 44.1875 33.984375 37.640625 27.21875 
Q 31.109375 20.453125 19.1875 8.296875 
z
" id="DejaVuSans-50"/>
       </defs>
       <use xlink:href="#DejaVuSans-49"/>
       <use x="63.623047" xlink:href="#DejaVuSans-50"/>
       <use x="127.246094" xlink:href="#DejaVuSans-48"/>
      </g>
     </g>
    </g>
    <g id="xtick_5">
     <g id="line2d_5">
      <g>
       <use style="stroke:#000000;stroke-width:0.8;" x="245.143415" xlink:href="#mdb70c3bf3a" y="307.584"/>
      </g>
     </g>
     <g id="text_5">
      <!-- 140 -->
      <g transform="translate(235.599665 322.182437)scale(0.1 -0.1)">
       <defs>
        <path d="M 37.796875 64.3125 
L 12.890625 25.390625 
L 37.796875 25.390625 
z
M 35.203125 72.90625 
L 47.609375 72.90625 
L 47.609375 25.390625 
L 58.015625 25.390625 
L 58.015625 17.1875 
L 47.609375 17.1875 
L 47.609375 0 
L 37.796875 0 
L 37.796875 17.1875 
L 4.890625 17.1875 
L 4.890625 26.703125 
z
" id="DejaVuSans-52"/>
       </defs>
       <use xlink:href="#DejaVuSans-49"/>
       <use x="63.623047" xlink:href="#DejaVuSans-52"/>
       <use x="127.246094" xlink:href="#DejaVuSans-48"/>
      </g>
     </g>
    </g>
    <g id="xtick_6">
     <g id="line2d_6">
      <g>
       <use style="stroke:#000000;stroke-width:0.8;" x="285.138076" xlink:href="#mdb70c3bf3a" y="307.584"/>
      </g>
     </g>
     <g id="text_6">
      <!-- 160 -->
      <g transform="translate(275.594326 322.182437)scale(0.1 -0.1)">
       <use xlink:href="#DejaVuSans-49"/>
       <use x="63.623047" xlink:href="#DejaVuSans-54"/>
       <use x="127.246094" xlink:href="#DejaVuSans-48"/>
      </g>
     </g>
    </g>
    <g id="xtick_7">
     <g id="line2d_7">
      <g>
       <use style="stroke:#000000;stroke-width:0.8;" x="325.132737" xlink:href="#mdb70c3bf3a" y="307.584"/>
      </g>
     </g>
     <g id="text_7">
      <!-- 180 -->
      <g transform="translate(315.588987 322.182437)scale(0.1 -0.1)">
       <use xlink:href="#DejaVuSans-49"/>
       <use x="63.623047" xlink:href="#DejaVuSans-56"/>
       <use x="127.246094" xlink:href="#DejaVuSans-48"/>
      </g>
     </g>
    </g>
    <g id="xtick_8">
     <g id="line2d_8">
      <g>
       <use style="stroke:#000000;stroke-width:0.8;" x="365.127398" xlink:href="#mdb70c3bf3a" y="307.584"/>
      </g>
     </g>
     <g id="text_8">
      <!-- 200 -->
      <g transform="translate(355.583648 322.182437)scale(0.1 -0.1)">
       <use xlink:href="#DejaVuSans-50"/>
       <use x="63.623047" xlink:href="#DejaVuSans-48"/>
       <use x="127.246094" xlink:href="#DejaVuSans-48"/>
      </g>
     </g>
    </g>
    <g id="xtick_9">
     <g id="line2d_9">
      <g>
       <use style="stroke:#000000;stroke-width:0.8;" x="405.122059" xlink:href="#mdb70c3bf3a" y="307.584"/>
      </g>
     </g>
     <g id="text_9">
      <!-- 220 -->
      <g transform="translate(395.578309 322.182437)scale(0.1 -0.1)">
       <use xlink:href="#DejaVuSans-50"/>
       <use x="63.623047" xlink:href="#DejaVuSans-50"/>
       <use x="127.246094" xlink:href="#DejaVuSans-48"/>
      </g>
     </g>
    </g>
   </g>
   <g id="matplotlib.axis_2">
    <g id="ytick_1">
     <g id="line2d_10">
      <defs>
       <path d="M 0 0 
L -3.5 0 
" id="m29aae718ab" style="stroke:#000000;stroke-width:0.8;"/>
      </defs>
      <g>
       <use style="stroke:#000000;stroke-width:0.8;" x="57.6" xlink:href="#m29aae718ab" y="301.58891"/>
      </g>
     </g>
     <g id="text_10">
      <!-- 0 -->
      <g transform="translate(44.2375 305.388128)scale(0.1 -0.1)">
       <use xlink:href="#DejaVuSans-48"/>
      </g>
     </g>
    </g>
    <g id="ytick_2">
     <g id="line2d_11">
      <g>
       <use style="stroke:#000000;stroke-width:0.8;" x="57.6" xlink:href="#m29aae718ab" y="261.594249"/>
      </g>
     </g>
     <g id="text_11">
      <!-- 20 -->
      <g transform="translate(37.875 265.393467)scale(0.1 -0.1)">
       <use xlink:href="#DejaVuSans-50"/>
       <use x="63.623047" xlink:href="#DejaVuSans-48"/>
      </g>
     </g>
    </g>
    <g id="ytick_3">
     <g id="line2d_12">
      <g>
       <use style="stroke:#000000;stroke-width:0.8;" x="57.6" xlink:href="#m29aae718ab" y="221.599588"/>
      </g>
     </g>
     <g id="text_12">
      <!-- 40 -->
      <g transform="translate(37.875 225.398806)scale(0.1 -0.1)">
       <use xlink:href="#DejaVuSans-52"/>
       <use x="63.623047" xlink:href="#DejaVuSans-48"/>
      </g>
     </g>
    </g>
    <g id="ytick_4">
     <g id="line2d_13">
      <g>
       <use style="stroke:#000000;stroke-width:0.8;" x="57.6" xlink:href="#m29aae718ab" y="181.604927"/>
      </g>
     </g>
     <g id="text_13">
      <!-- 60 -->
      <g transform="translate(37.875 185.404146)scale(0.1 -0.1)">
       <use xlink:href="#DejaVuSans-54"/>
       <use x="63.623047" xlink:href="#DejaVuSans-48"/>
      </g>
     </g>
    </g>
    <g id="ytick_5">
     <g id="line2d_14">
      <g>
       <use style="stroke:#000000;stroke-width:0.8;" x="57.6" xlink:href="#m29aae718ab" y="141.610266"/>
      </g>
     </g>
     <g id="text_14">
      <!-- 80 -->
      <g transform="translate(37.875 145.409485)scale(0.1 -0.1)">
       <use xlink:href="#DejaVuSans-56"/>
       <use x="63.623047" xlink:href="#DejaVuSans-48"/>
      </g>
     </g>
    </g>
    <g id="ytick_6">
     <g id="line2d_15">
      <g>
       <use style="stroke:#000000;stroke-width:0.8;" x="57.6" xlink:href="#m29aae718ab" y="101.615605"/>
      </g>
     </g>
     <g id="text_15">
      <!-- 100 -->
      <g transform="translate(31.5125 105.414824)scale(0.1 -0.1)">
       <use xlink:href="#DejaVuSans-49"/>
       <use x="63.623047" xlink:href="#DejaVuSans-48"/>
       <use x="127.246094" xlink:href="#DejaVuSans-48"/>
      </g>
     </g>
    </g>
    <g id="ytick_7">
     <g id="line2d_16">
      <g>
       <use style="stroke:#000000;stroke-width:0.8;" x="57.6" xlink:href="#m29aae718ab" y="61.620944"/>
      </g>
     </g>
     <g id="text_16">
      <!-- 120 -->
      <g transform="translate(31.5125 65.420163)scale(0.1 -0.1)">
       <use xlink:href="#DejaVuSans-49"/>
       <use x="63.623047" xlink:href="#DejaVuSans-50"/>
       <use x="127.246094" xlink:href="#DejaVuSans-48"/>
      </g>
     </g>
    </g>
   </g>
   <g id="line2d_17">
    <path clip-path="url(#p7552c91b85)" d="M 255.14208 57.621478 
L 253.984235 59.591215 
L 252.846387 61.562952 
L 251.724536 63.532689 
L 250.622683 65.500426 
L 249.538828 67.468163 
L 248.47297 69.435901 
L 247.42711 71.403638 
L 246.399247 73.369376 
L 245.389382 75.335113 
L 244.397514 77.300851 
L 243.425644 79.264589 
L 242.469772 81.228326 
L 241.533897 83.192064 
L 240.618019 85.155802 
L 239.718139 87.11754 
L 238.838257 89.079278 
L 237.976372 91.039017 
L 237.132484 93.000755 
L 236.306594 94.958494 
L 235.500702 96.918232 
L 234.712807 98.875971 
L 233.94291 100.833709 
L 233.19101 102.791448 
L 232.459108 104.747187 
L 231.743204 106.702926 
L 231.047297 108.658665 
L 230.371387 110.614404 
L 229.711475 112.568143 
L 229.07156 114.521882 
L 228.449643 116.473621 
L 227.845724 118.425361 
L 227.259802 120.3771 
L 226.693878 122.32884 
L 226.145951 124.278579 
L 225.616022 126.228319 
L 225.10409 128.178059 
L 224.612156 130.125799 
L 224.138219 132.073539 
L 223.68228 134.021279 
L 223.244338 135.967019 
L 222.826394 137.914759 
L 222.424448 139.8585 
L 222.042499 141.80424 
L 221.680547 143.74798 
L 221.334593 145.691721 
L 221.008637 147.635461 
L 220.700678 149.577202 
L 220.410716 151.518943 
L 220.138753 153.458684 
L 219.886786 155.400425 
L 219.652818 157.340166 
L 219.436846 159.279907 
L 219.238873 161.217648 
L 219.060897 163.15539 
L 218.900918 165.093131 
L 218.758937 167.028873 
L 218.634954 168.966614 
L 218.528968 170.900356 
L 218.442979 172.836097 
L 218.374988 174.769839 
L 218.324995 176.703581 
L 218.294999 178.637323 
L 218.281001 180.569065 
L 218.287 182.500807 
L 218.310997 184.432549 
L 218.354991 186.362292 
L 218.414983 188.292034 
L 218.494972 190.221776 
L 218.592959 192.151519 
L 218.710943 194.079262 
L 218.844925 196.007004 
L 218.998905 197.932747 
L 219.170882 199.85849 
L 219.360857 201.784233 
L 219.570829 203.709976 
L 219.796798 205.633719 
L 220.042766 207.557462 
L 220.30873 209.481205 
L 220.590692 211.402949 
L 220.892652 213.324692 
L 221.212609 215.246436 
L 221.550564 217.168179 
L 221.906517 219.087923 
L 222.282467 221.005667 
L 222.674414 222.925411 
L 223.086359 224.843155 
L 223.518302 226.760899 
L 223.966242 228.678643 
L 224.434179 230.594387 
L 224.920114 232.510131 
L 225.424047 234.425875 
L 225.947977 236.33962 
L 226.487905 238.253365 
L 227.04783 240.167109 
L 227.627753 242.078854 
L 228.223673 243.990599 
L 228.839591 245.902343 
L 229.471507 247.814088 
L 230.12542 249.723833 
L 230.79533 251.633578 
L 231.483238 253.541324 
L 232.191144 255.451069 
L 232.917047 257.358814 
L 233.662947 259.26456 
L 234.424846 261.172305 
L 235.206741 263.078051 
L 236.006635 264.981796 
L 236.824525 266.887542 
L 237.660414 268.791288 
L 238.516299 270.695034 
L 239.390183 272.59678 
L 240.282064 274.498526 
L 241.193942 276.400272 
L 242.121818 278.302018 
L 243.069692 280.201765 
L 244.035563 282.101511 
L 245.019431 284.001257 
L 246.023297 285.899004 
L 247.045161 287.796751 
L 248.085022 289.694497 
L 249.142881 291.590244 
" style="fill:none;stroke:#fea952;stroke-linecap:square;"/>
   </g>
   <g id="line2d_18">
    <path clip-path="url(#p7552c91b85)" d="M 262.037893 61.674956 
L 260.912326 63.589272 
L 259.797043 65.52165 
L 258.703774 67.440778 
L 257.629068 69.359634 
L 256.572225 71.27792 
L 255.536209 73.190041 
L 254.515496 75.110078 
L 253.514197 77.024564 
L 252.53072 78.938474 
L 251.566518 80.84885 
L 250.617786 82.765448 
L 249.690604 84.669619 
L 248.783148 86.57308 
L 247.888514 88.490891 
L 247.016569 90.391046 
L 246.16035 92.299505 
L 245.324282 94.199892 
L 244.502456 96.109844 
L 243.704438 98.000668 
L 242.921235 99.904636 
L 242.156808 101.803387 
L 241.410053 103.70158 
L 240.682531 105.595023 
L 239.970604 107.496794 
L 239.279266 109.384469 
L 238.607462 111.271482 
L 237.949696 113.174119 
L 237.313051 115.057912 
L 236.692923 116.95041 
L 236.091121 118.838095 
L 235.506879 120.725277 
L 234.942294 122.604708 
L 234.394507 124.492914 
L 233.864855 126.376538 
L 233.352715 128.259697 
L 232.859488 130.136814 
L 232.38431 132.01697 
L 231.926609 133.896694 
L 231.485987 135.777715 
L 231.065243 137.645222 
L 230.659597 139.534588 
L 230.273581 141.399285 
L 229.906252 143.268581 
L 229.555716 145.149631 
L 229.223371 147.014633 
L 228.908826 148.888427 
L 228.611888 150.758588 
L 228.332169 152.62958 
L 228.071179 154.488021 
L 227.828158 156.358302 
L 227.602626 158.225299 
L 227.394356 160.092903 
L 227.204278 161.949249 
L 227.032707 163.813537 
L 226.87842 165.678258 
L 226.741546 167.539628 
L 226.621898 169.404368 
L 226.52002 171.25533 
L 226.436972 173.117168 
L 226.371249 174.976568 
L 226.322965 176.827645 
L 226.293721 178.695285 
L 226.279894 180.544224 
L 226.285315 182.401449 
L 226.307851 184.250238 
L 226.350061 186.11374 
L 226.407052 187.960757 
L 226.483612 189.816136 
L 226.576952 191.662872 
L 226.690626 193.524657 
L 226.81841 195.369457 
L 226.96613 197.22124 
L 227.131174 199.073207 
L 227.312661 200.917214 
L 227.515142 202.776808 
L 227.731139 204.619245 
L 227.96633 206.462001 
L 228.22293 208.320017 
L 228.492673 210.161327 
L 228.782972 212.011007 
L 229.09065 213.861016 
L 229.415444 215.709899 
L 229.75604 217.549122 
L 230.119722 219.405561 
L 230.494953 221.245504 
L 230.889803 223.085549 
L 231.307572 224.941507 
L 231.736729 226.780632 
L 232.187573 228.627712 
L 232.655887 230.475252 
L 233.139078 232.313715 
L 233.646385 234.167655 
L 234.164991 236.007195 
L 234.70233 237.845137 
L 235.264277 239.698431 
L 235.837226 241.537697 
L 236.434376 243.391933 
L 237.039106 245.222879 
L 237.673428 247.076102 
L 238.320016 248.920274 
L 238.983469 250.761134 
L 239.667165 252.606419 
L 240.365764 254.443419 
L 241.091379 256.297859 
L 241.825137 258.136089 
L 242.581171 259.979551 
L 243.357217 261.82714 
L 244.148562 263.671736 
L 244.955959 265.511358 
L 245.784587 267.355137 
L 246.632247 269.200396 
L 247.494705 271.040099 
L 248.382839 272.892756 
L 249.279292 274.730816 
L 250.199975 276.576579 
L 251.138461 278.422958 
L 252.090059 280.261052 
L 253.066126 282.106712 
L 254.06003 283.952987 
L 255.070036 285.796742 
L 256.127895 287.692489 
" style="fill:none;stroke:#ffffff;stroke-linecap:square;"/>
   </g>
   <g id="line2d_19">
    <path clip-path="url(#p7552c91b85)" d="M 248.246267 53.568 
L 247.056143 55.593158 
L 245.89573 57.604253 
L 244.745299 59.624599 
L 243.616298 61.641218 
L 242.505431 63.658407 
L 241.409731 65.68176 
L 240.338724 67.697198 
L 239.284297 69.714187 
L 238.248044 71.731752 
L 237.228511 73.752851 
L 236.233502 75.763729 
L 235.248939 77.787034 
L 234.284645 79.811049 
L 233.347524 81.820713 
L 232.419709 83.844035 
L 231.516163 85.859051 
L 230.628461 87.878142 
L 229.762513 89.891666 
L 228.908751 91.916319 
L 228.080169 93.931828 
L 227.268806 95.948554 
L 226.475767 97.965838 
L 225.69949 99.987873 
L 224.947612 101.99758 
L 224.207141 104.021382 
L 223.487131 106.045847 
L 222.793077 108.054688 
L 222.109898 110.078374 
L 221.450198 112.093354 
L 220.808166 114.109148 
L 220.184569 116.125444 
L 219.57731 118.149493 
L 218.993248 120.164765 
L 218.427046 122.180621 
L 217.879328 124.196941 
L 217.348692 126.219303 
L 216.840001 128.234628 
L 216.349829 130.250384 
L 215.878572 132.264843 
L 215.423433 134.288817 
L 214.993191 136.29493 
L 214.575314 138.317714 
L 214.178745 140.339899 
L 213.805378 142.34633 
L 213.445815 144.368809 
L 213.108447 146.382496 
L 212.789468 148.395817 
L 212.489264 150.408306 
L 212.206327 152.429348 
L 211.945414 154.442548 
L 211.703009 156.455033 
L 211.479337 158.466911 
L 211.273468 160.486048 
L 211.089086 162.497242 
L 210.923416 164.508004 
L 210.776328 166.518117 
L 210.648009 168.52886 
L 210.537916 170.545381 
L 210.448987 172.555026 
L 210.378728 174.563111 
L 210.327025 176.579517 
L 210.296277 178.579361 
L 210.282107 180.593906 
L 210.288685 182.600165 
L 210.314142 184.614861 
L 210.359921 186.610843 
L 210.422914 188.623312 
L 210.506332 190.627417 
L 210.608966 192.640166 
L 210.731261 194.633866 
L 210.871441 196.644552 
L 211.03168 198.644254 
L 211.21059 200.643773 
L 211.409052 202.651252 
L 211.626515 204.643144 
L 211.862458 206.648193 
L 212.119201 208.652924 
L 212.39453 210.642394 
L 212.688712 212.644571 
L 213.002332 214.638377 
L 213.334569 216.631856 
L 213.685684 218.626459 
L 214.056994 220.626724 
L 214.445211 222.605773 
L 214.853875 224.605318 
L 215.282915 226.60076 
L 215.729031 228.58029 
L 216.195755 230.576653 
L 216.680786 232.561062 
L 217.184342 234.545011 
L 217.709017 236.538036 
L 218.249569 238.511585 
L 218.81082 240.499534 
L 219.393331 242.489081 
L 219.991229 244.459277 
L 220.610121 246.443501 
L 221.244806 248.412754 
L 221.903908 250.405297 
L 222.577411 252.371564 
L 223.270644 254.346882 
L 223.983008 256.321514 
L 224.715123 258.295718 
L 225.46833 260.274209 
L 226.234515 262.231261 
L 227.024555 264.208521 
L 227.832312 266.176551 
L 228.656052 268.136453 
L 229.500489 270.103348 
L 230.364869 272.071218 
L 231.248012 274.03493 
L 232.148119 275.993163 
L 233.069422 277.956953 
L 234.005045 279.907789 
L 234.964345 281.873221 
L 235.939408 283.826951 
L 236.932665 285.780065 
L 237.948804 287.741463 
L 238.980469 289.691296 
L 240.030291 291.640515 
L 241.100008 293.592253 
L 242.157867 295.488 
" style="fill:none;stroke:#ffffff;stroke-linecap:square;"/>
   </g>
   <g id="patch_3">
    <path d="M 57.6 307.584 
L 57.6 41.472 
" style="fill:none;stroke:#000000;stroke-linecap:square;stroke-linejoin:miter;stroke-width:0.8;"/>
   </g>
   <g id="patch_4">
    <path d="M 414.72 307.584 
L 414.72 41.472 
" style="fill:none;stroke:#000000;stroke-linecap:square;stroke-linejoin:miter;stroke-width:0.8;"/>
   </g>
   <g id="patch_5">
    <path d="M 57.6 307.584 
L 414.72 307.584 
" style="fill:none;stroke:#000000;stroke-linecap:square;stroke-linejoin:miter;stroke-width:0.8;"/>
   </g>
   <g id="patch_6">
    <path d="M 57.6 41.472 
L 414.72 41.472 
" style="fill:none;stroke:#000000;stroke-linecap:square;stroke-linejoin:miter;stroke-width:0.8;"/>
   </g>
  </g>
 </g>
 <defs>
  <clipPath id="p7552c91b85">
   <rect height="266.112" width="357.12" x="57.6" y="41.472"/>
  </clipPath>
 </defs>
</svg>
