<?xml version="1.0" encoding="utf-8" standalone="no"?>
<!DOCTYPE svg PUBLIC "-//W3C//DTD SVG 1.1//EN"
  "http://www.w3.org/Graphics/SVG/1.1/DTD/svg11.dtd">
<!-- Created with matplotlib (https://matplotlib.org/) -->
<svg height="345.6pt" version="1.1" viewBox="0 0 460.8 345.6" width="460.8pt" xmlns="http://www.w3.org/2000/svg" xmlns:xlink="http://www.w3.org/1999/xlink">
 <metadata>
  <rdf:RDF xmlns:cc="http://creativecommons.org/ns#" xmlns:dc="http://purl.org/dc/elements/1.1/" xmlns:rdf="http://www.w3.org/1999/02/22-rdf-syntax-ns#">
   <cc:Work>
    <dc:type rdf:resource="http://purl.org/dc/dcmitype/StillImage"/>
    <dc:date>2021-07-06T17:47:39.890072</dc:date>
    <dc:format>image/svg+xml</dc:format>
    <dc:creator>
     <cc:Agent>
      <dc:title>Matplotlib v3.3.3, https://matplotlib.org/</dc:title>
     </cc:Agent>
    </dc:creator>
   </cc:Work>
  </rdf:RDF>
 </metadata>
 <defs>
  <style type="text/css">*{stroke-linecap:butt;stroke-linejoin:round;}</style>
 </defs>
 <g id="figure_1">
  <g id="patch_1">
   <path d="M 0 345.6 
L 460.8 345.6 
L 460.8 0 
L 0 0 
z
" style="fill:#ffffff;"/>
  </g>
  <g id="axes_1">
   <g id="patch_2">
    <path d="M 57.6 307.584 
L 414.72 307.584 
L 414.72 41.472 
L 57.6 41.472 
z
" style="fill:#7d9051;"/>
   </g>
   <g id="matplotlib.axis_1">
    <g id="xtick_1">
     <g id="line2d_1">
      <defs>
       <path d="M 0 0 
L 0 3.5 
" id="md8a8414336" style="stroke:#000000;stroke-width:0.8;"/>
      </defs>
      <g>
       <use style="stroke:#000000;stroke-width:0.8;" x="102.116928" xlink:href="#md8a8414336" y="307.584"/>
      </g>
     </g>
     <g id="text_1">
      <!-- 40 -->
      <g transform="translate(95.754428 322.182437)scale(0.1 -0.1)">
       <defs>
        <path d="M 37.796875 64.3125 
L 12.890625 25.390625 
L 37.796875 25.390625 
z
M 35.203125 72.90625 
L 47.609375 72.90625 
L 47.609375 25.390625 
L 58.015625 25.390625 
L 58.015625 17.1875 
L 47.609375 17.1875 
L 47.609375 0 
L 37.796875 0 
L 37.796875 17.1875 
L 4.890625 17.1875 
L 4.890625 26.703125 
z
" id="DejaVuSans-52"/>
        <path d="M 31.78125 66.40625 
Q 24.171875 66.40625 20.328125 58.90625 
Q 16.5 51.421875 16.5 36.375 
Q 16.5 21.390625 20.328125 13.890625 
Q 24.171875 6.390625 31.78125 6.390625 
Q 39.453125 6.390625 43.28125 13.890625 
Q 47.125 21.390625 47.125 36.375 
Q 47.125 51.421875 43.28125 58.90625 
Q 39.453125 66.40625 31.78125 66.40625 
z
M 31.78125 74.21875 
Q 44.046875 74.21875 50.515625 64.515625 
Q 56.984375 54.828125 56.984375 36.375 
Q 56.984375 17.96875 50.515625 8.265625 
Q 44.046875 -1.421875 31.78125 -1.421875 
Q 19.53125 -1.421875 13.0625 8.265625 
Q 6.59375 17.96875 6.59375 36.375 
Q 6.59375 54.828125 13.0625 64.515625 
Q 19.53125 74.21875 31.78125 74.21875 
z
" id="DejaVuSans-48"/>
       </defs>
       <use xlink:href="#DejaVuSans-52"/>
       <use x="63.623047" xlink:href="#DejaVuSans-48"/>
      </g>
     </g>
    </g>
    <g id="xtick_2">
     <g id="line2d_2">
      <g>
       <use style="stroke:#000000;stroke-width:0.8;" x="180.894308" xlink:href="#md8a8414336" y="307.584"/>
      </g>
     </g>
     <g id="text_2">
      <!-- 60 -->
      <g transform="translate(174.531808 322.182437)scale(0.1 -0.1)">
       <defs>
        <path d="M 33.015625 40.375 
Q 26.375 40.375 22.484375 35.828125 
Q 18.609375 31.296875 18.609375 23.390625 
Q 18.609375 15.53125 22.484375 10.953125 
Q 26.375 6.390625 33.015625 6.390625 
Q 39.65625 6.390625 43.53125 10.953125 
Q 47.40625 15.53125 47.40625 23.390625 
Q 47.40625 31.296875 43.53125 35.828125 
Q 39.65625 40.375 33.015625 40.375 
z
M 52.59375 71.296875 
L 52.59375 62.3125 
Q 48.875 64.0625 45.09375 64.984375 
Q 41.3125 65.921875 37.59375 65.921875 
Q 27.828125 65.921875 22.671875 59.328125 
Q 17.53125 52.734375 16.796875 39.40625 
Q 19.671875 43.65625 24.015625 45.921875 
Q 28.375 48.1875 33.59375 48.1875 
Q 44.578125 48.1875 50.953125 41.515625 
Q 57.328125 34.859375 57.328125 23.390625 
Q 57.328125 12.15625 50.6875 5.359375 
Q 44.046875 -1.421875 33.015625 -1.421875 
Q 20.359375 -1.421875 13.671875 8.265625 
Q 6.984375 17.96875 6.984375 36.375 
Q 6.984375 53.65625 15.1875 63.9375 
Q 23.390625 74.21875 37.203125 74.21875 
Q 40.921875 74.21875 44.703125 73.484375 
Q 48.484375 72.75 52.59375 71.296875 
z
" id="DejaVuSans-54"/>
       </defs>
       <use xlink:href="#DejaVuSans-54"/>
       <use x="63.623047" xlink:href="#DejaVuSans-48"/>
      </g>
     </g>
    </g>
    <g id="xtick_3">
     <g id="line2d_3">
      <g>
       <use style="stroke:#000000;stroke-width:0.8;" x="259.671688" xlink:href="#md8a8414336" y="307.584"/>
      </g>
     </g>
     <g id="text_3">
      <!-- 80 -->
      <g transform="translate(253.309188 322.182437)scale(0.1 -0.1)">
       <defs>
        <path d="M 31.78125 34.625 
Q 24.75 34.625 20.71875 30.859375 
Q 16.703125 27.09375 16.703125 20.515625 
Q 16.703125 13.921875 20.71875 10.15625 
Q 24.75 6.390625 31.78125 6.390625 
Q 38.8125 6.390625 42.859375 10.171875 
Q 46.921875 13.96875 46.921875 20.515625 
Q 46.921875 27.09375 42.890625 30.859375 
Q 38.875 34.625 31.78125 34.625 
z
M 21.921875 38.8125 
Q 15.578125 40.375 12.03125 44.71875 
Q 8.5 49.078125 8.5 55.328125 
Q 8.5 64.0625 14.71875 69.140625 
Q 20.953125 74.21875 31.78125 74.21875 
Q 42.671875 74.21875 48.875 69.140625 
Q 55.078125 64.0625 55.078125 55.328125 
Q 55.078125 49.078125 51.53125 44.71875 
Q 48 40.375 41.703125 38.8125 
Q 48.828125 37.15625 52.796875 32.3125 
Q 56.78125 27.484375 56.78125 20.515625 
Q 56.78125 9.90625 50.3125 4.234375 
Q 43.84375 -1.421875 31.78125 -1.421875 
Q 19.734375 -1.421875 13.25 4.234375 
Q 6.78125 9.90625 6.78125 20.515625 
Q 6.78125 27.484375 10.78125 32.3125 
Q 14.796875 37.15625 21.921875 38.8125 
z
M 18.3125 54.390625 
Q 18.3125 48.734375 21.84375 45.5625 
Q 25.390625 42.390625 31.78125 42.390625 
Q 38.140625 42.390625 41.71875 45.5625 
Q 45.3125 48.734375 45.3125 54.390625 
Q 45.3125 60.0625 41.71875 63.234375 
Q 38.140625 66.40625 31.78125 66.40625 
Q 25.390625 66.40625 21.84375 63.234375 
Q 18.3125 60.0625 18.3125 54.390625 
z
" id="DejaVuSans-56"/>
       </defs>
       <use xlink:href="#DejaVuSans-56"/>
       <use x="63.623047" xlink:href="#DejaVuSans-48"/>
      </g>
     </g>
    </g>
    <g id="xtick_4">
     <g id="line2d_4">
      <g>
       <use style="stroke:#000000;stroke-width:0.8;" x="338.449068" xlink:href="#md8a8414336" y="307.584"/>
      </g>
     </g>
     <g id="text_4">
      <!-- 100 -->
      <g transform="translate(328.905318 322.182437)scale(0.1 -0.1)">
       <defs>
        <path d="M 12.40625 8.296875 
L 28.515625 8.296875 
L 28.515625 63.921875 
L 10.984375 60.40625 
L 10.984375 69.390625 
L 28.421875 72.90625 
L 38.28125 72.90625 
L 38.28125 8.296875 
L 54.390625 8.296875 
L 54.390625 0 
L 12.40625 0 
z
" id="DejaVuSans-49"/>
       </defs>
       <use xlink:href="#DejaVuSans-49"/>
       <use x="63.623047" xlink:href="#DejaVuSans-48"/>
       <use x="127.246094" xlink:href="#DejaVuSans-48"/>
      </g>
     </g>
    </g>
   </g>
   <g id="matplotlib.axis_2">
    <g id="ytick_1">
     <g id="line2d_5">
      <defs>
       <path d="M 0 0 
L -3.5 0 
" id="m8db5973d6c" style="stroke:#000000;stroke-width:0.8;"/>
      </defs>
      <g>
       <use style="stroke:#000000;stroke-width:0.8;" x="57.6" xlink:href="#m8db5973d6c" y="271.515929"/>
      </g>
     </g>
     <g id="text_5">
      <!-- 80 -->
      <g transform="translate(37.875 275.315147)scale(0.1 -0.1)">
       <use xlink:href="#DejaVuSans-56"/>
       <use x="63.623047" xlink:href="#DejaVuSans-48"/>
      </g>
     </g>
    </g>
    <g id="ytick_2">
     <g id="line2d_6">
      <g>
       <use style="stroke:#000000;stroke-width:0.8;" x="57.6" xlink:href="#m8db5973d6c" y="232.127238"/>
      </g>
     </g>
     <g id="text_6">
      <!-- 90 -->
      <g transform="translate(37.875 235.926457)scale(0.1 -0.1)">
       <defs>
        <path d="M 10.984375 1.515625 
L 10.984375 10.5 
Q 14.703125 8.734375 18.5 7.8125 
Q 22.3125 6.890625 25.984375 6.890625 
Q 35.75 6.890625 40.890625 13.453125 
Q 46.046875 20.015625 46.78125 33.40625 
Q 43.953125 29.203125 39.59375 26.953125 
Q 35.25 24.703125 29.984375 24.703125 
Q 19.046875 24.703125 12.671875 31.3125 
Q 6.296875 37.9375 6.296875 49.421875 
Q 6.296875 60.640625 12.9375 67.421875 
Q 19.578125 74.21875 30.609375 74.21875 
Q 43.265625 74.21875 49.921875 64.515625 
Q 56.59375 54.828125 56.59375 36.375 
Q 56.59375 19.140625 48.40625 8.859375 
Q 40.234375 -1.421875 26.421875 -1.421875 
Q 22.703125 -1.421875 18.890625 -0.6875 
Q 15.09375 0.046875 10.984375 1.515625 
z
M 30.609375 32.421875 
Q 37.25 32.421875 41.125 36.953125 
Q 45.015625 41.5 45.015625 49.421875 
Q 45.015625 57.28125 41.125 61.84375 
Q 37.25 66.40625 30.609375 66.40625 
Q 23.96875 66.40625 20.09375 61.84375 
Q 16.21875 57.28125 16.21875 49.421875 
Q 16.21875 41.5 20.09375 36.953125 
Q 23.96875 32.421875 30.609375 32.421875 
z
" id="DejaVuSans-57"/>
       </defs>
       <use xlink:href="#DejaVuSans-57"/>
       <use x="63.623047" xlink:href="#DejaVuSans-48"/>
      </g>
     </g>
    </g>
    <g id="ytick_3">
     <g id="line2d_7">
      <g>
       <use style="stroke:#000000;stroke-width:0.8;" x="57.6" xlink:href="#m8db5973d6c" y="192.738548"/>
      </g>
     </g>
     <g id="text_7">
      <!-- 100 -->
      <g transform="translate(31.5125 196.537767)scale(0.1 -0.1)">
       <use xlink:href="#DejaVuSans-49"/>
       <use x="63.623047" xlink:href="#DejaVuSans-48"/>
       <use x="127.246094" xlink:href="#DejaVuSans-48"/>
      </g>
     </g>
    </g>
    <g id="ytick_4">
     <g id="line2d_8">
      <g>
       <use style="stroke:#000000;stroke-width:0.8;" x="57.6" xlink:href="#m8db5973d6c" y="153.349858"/>
      </g>
     </g>
     <g id="text_8">
      <!-- 110 -->
      <g transform="translate(31.5125 157.149077)scale(0.1 -0.1)">
       <use xlink:href="#DejaVuSans-49"/>
       <use x="63.623047" xlink:href="#DejaVuSans-49"/>
       <use x="127.246094" xlink:href="#DejaVuSans-48"/>
      </g>
     </g>
    </g>
    <g id="ytick_5">
     <g id="line2d_9">
      <g>
       <use style="stroke:#000000;stroke-width:0.8;" x="57.6" xlink:href="#m8db5973d6c" y="113.961168"/>
      </g>
     </g>
     <g id="text_9">
      <!-- 120 -->
      <g transform="translate(31.5125 117.760387)scale(0.1 -0.1)">
       <defs>
        <path d="M 19.1875 8.296875 
L 53.609375 8.296875 
L 53.609375 0 
L 7.328125 0 
L 7.328125 8.296875 
Q 12.9375 14.109375 22.625 23.890625 
Q 32.328125 33.6875 34.8125 36.53125 
Q 39.546875 41.84375 41.421875 45.53125 
Q 43.3125 49.21875 43.3125 52.78125 
Q 43.3125 58.59375 39.234375 62.25 
Q 35.15625 65.921875 28.609375 65.921875 
Q 23.96875 65.921875 18.8125 64.3125 
Q 13.671875 62.703125 7.8125 59.421875 
L 7.8125 69.390625 
Q 13.765625 71.78125 18.9375 73 
Q 24.125 74.21875 28.421875 74.21875 
Q 39.75 74.21875 46.484375 68.546875 
Q 53.21875 62.890625 53.21875 53.421875 
Q 53.21875 48.921875 51.53125 44.890625 
Q 49.859375 40.875 45.40625 35.40625 
Q 44.1875 33.984375 37.640625 27.21875 
Q 31.109375 20.453125 19.1875 8.296875 
z
" id="DejaVuSans-50"/>
       </defs>
       <use xlink:href="#DejaVuSans-49"/>
       <use x="63.623047" xlink:href="#DejaVuSans-50"/>
       <use x="127.246094" xlink:href="#DejaVuSans-48"/>
      </g>
     </g>
    </g>
    <g id="ytick_6">
     <g id="line2d_10">
      <g>
       <use style="stroke:#000000;stroke-width:0.8;" x="57.6" xlink:href="#m8db5973d6c" y="74.572478"/>
      </g>
     </g>
     <g id="text_10">
      <!-- 130 -->
      <g transform="translate(31.5125 78.371697)scale(0.1 -0.1)">
       <defs>
        <path d="M 40.578125 39.3125 
Q 47.65625 37.796875 51.625 33 
Q 55.609375 28.21875 55.609375 21.1875 
Q 55.609375 10.40625 48.1875 4.484375 
Q 40.765625 -1.421875 27.09375 -1.421875 
Q 22.515625 -1.421875 17.65625 -0.515625 
Q 12.796875 0.390625 7.625 2.203125 
L 7.625 11.71875 
Q 11.71875 9.328125 16.59375 8.109375 
Q 21.484375 6.890625 26.8125 6.890625 
Q 36.078125 6.890625 40.9375 10.546875 
Q 45.796875 14.203125 45.796875 21.1875 
Q 45.796875 27.640625 41.28125 31.265625 
Q 36.765625 34.90625 28.71875 34.90625 
L 20.21875 34.90625 
L 20.21875 43.015625 
L 29.109375 43.015625 
Q 36.375 43.015625 40.234375 45.921875 
Q 44.09375 48.828125 44.09375 54.296875 
Q 44.09375 59.90625 40.109375 62.90625 
Q 36.140625 65.921875 28.71875 65.921875 
Q 24.65625 65.921875 20.015625 65.03125 
Q 15.375 64.15625 9.8125 62.3125 
L 9.8125 71.09375 
Q 15.4375 72.65625 20.34375 73.4375 
Q 25.25 74.21875 29.59375 74.21875 
Q 40.828125 74.21875 47.359375 69.109375 
Q 53.90625 64.015625 53.90625 55.328125 
Q 53.90625 49.265625 50.4375 45.09375 
Q 46.96875 40.921875 40.578125 39.3125 
z
" id="DejaVuSans-51"/>
       </defs>
       <use xlink:href="#DejaVuSans-49"/>
       <use x="63.623047" xlink:href="#DejaVuSans-51"/>
       <use x="127.246094" xlink:href="#DejaVuSans-48"/>
      </g>
     </g>
    </g>
   </g>
   <g id="line2d_11">
    <path clip-path="url(#p7e63205d76)" d="M 389.654365 208.494024 
L 386.105444 206.091314 
L 382.548646 203.731932 
L 378.987908 201.419816 
L 375.419293 199.151027 
L 371.846739 196.929505 
L 368.266307 194.75131 
L 364.681936 192.620382 
L 361.089687 190.532782 
L 357.4935 188.488509 
L 353.889435 186.491502 
L 350.277492 184.541762 
L 346.66161 182.631411 
L 343.04179 180.772264 
L 339.414091 178.956446 
L 335.778515 177.183955 
L 332.139 175.454791 
L 328.491607 173.776833 
L 324.840276 172.138263 
L 321.181067 170.54696 
L 317.517918 169.002924 
L 313.846892 167.498276 
L 310.171928 166.044833 
L 306.489085 164.634718 
L 302.798365 163.26793 
L 299.103706 161.948409 
L 295.405108 160.672216 
L 291.694693 159.43935 
L 287.984279 158.25375 
L 284.265986 157.115417 
L 280.539816 156.020411 
L 276.809707 154.968733 
L 273.07172 153.964322 
L 269.329795 153.007177 
L 265.579992 152.08942 
L 261.822311 151.222869 
L 258.060691 150.395707 
L 254.295132 149.61581 
L 250.521695 148.883181 
L 246.740381 148.193879 
L 242.955128 147.551843 
L 239.165936 146.949196 
L 235.364927 146.397754 
L 231.563919 145.88964 
L 227.751094 145.424854 
L 223.938268 145.007334 
L 220.113627 144.633141 
L 216.285046 144.306215 
L 212.452526 144.022616 
L 208.612129 143.782345 
L 204.763854 143.589341 
L 200.91164 143.443603 
L 197.055487 143.337253 
L 193.191457 143.282109 
L 189.319549 143.270292 
L 185.443702 143.301803 
L 181.559977 143.380581 
L 177.672313 143.502686 
L 173.776772 143.668118 
L 169.877291 143.880817 
L 165.969933 144.140783 
L 162.054697 144.444075 
L 158.135523 144.790696 
L 154.212409 145.184583 
L 150.281418 145.621797 
L 146.342549 146.106278 
L 142.399741 146.634087 
L 138.452994 147.209162 
L 134.494431 147.827564 
L 130.535868 148.493233 
L 126.565488 149.202229 
L 122.595108 149.954553 
L 118.612911 150.754144 
L 114.626776 151.597062 
L 110.636701 152.487246 
L 106.638749 153.424697 
L 102.63292 154.401536 
L 98.623151 155.425642 
L 94.609443 156.497015 
L 90.587858 157.611715 
L 86.558395 158.773681 
L 82.524993 159.978975 
L 78.483714 161.227596 
" style="fill:none;stroke:#fea952;stroke-linecap:square;"/>
   </g>
   <g id="line2d_12">
    <path clip-path="url(#p7e63205d76)" d="M 380.821458 221.540663 
L 377.3961 219.22076 
L 373.968261 216.946016 
L 370.534878 214.715729 
L 367.099427 212.53067 
L 363.658016 210.389811 
L 360.214962 208.294238 
L 356.765508 206.242614 
L 353.303499 204.229872 
L 349.857315 202.26979 
L 346.405345 200.355968 
L 342.917554 198.472531 
L 339.463456 196.64646 
L 335.989608 194.86133 
L 332.509541 193.118445 
L 329.017264 191.414925 
L 325.554188 189.768256 
L 322.040949 188.151256 
L 318.557019 186.586644 
L 315.061461 185.065413 
L 311.542634 183.581367 
L 308.052357 182.1495 
L 304.538193 180.758638 
L 301.017496 179.409586 
L 297.499225 178.105523 
L 293.964635 176.842199 
L 290.437076 175.623928 
L 286.899166 174.447279 
L 283.372128 173.319045 
L 279.823782 172.231695 
L 276.264353 171.184693 
L 272.721177 170.18448 
L 269.16734 169.228359 
L 265.584226 168.310959 
L 262.039574 167.44196 
L 258.438598 166.610706 
L 254.865341 165.823758 
L 251.292211 165.082468 
L 247.696166 164.383226 
L 244.105647 163.727494 
L 240.480423 163.111755 
L 236.903849 162.541437 
L 233.277325 162.014314 
L 229.657426 161.529343 
L 226.036056 161.086708 
L 222.404121 160.68794 
L 218.77313 160.331488 
L 215.122352 160.018731 
L 211.468723 159.747347 
L 207.822928 159.518043 
L 204.168214 159.333554 
L 200.477283 159.19309 
L 196.830662 159.091125 
L 193.143373 159.037512 
L 189.447638 159.025248 
L 185.76322 159.054039 
L 182.054586 159.128291 
L 178.340801 159.243974 
L 174.634886 159.400209 
L 170.923226 159.601537 
L 167.186782 159.849198 
L 163.442729 160.138291 
L 159.709485 160.467356 
L 155.954033 160.843503 
L 152.204846 161.259427 
L 148.433026 161.722453 
L 144.67146 162.224927 
L 140.884803 162.775835 
L 137.107176 163.364893 
L 133.305533 164.003358 
L 129.498707 164.682257 
L 125.696763 165.401713 
L 121.872521 166.168746 
L 118.057476 166.974491 
L 114.233531 167.826667 
L 110.371414 168.731631 
L 106.531758 169.66699 
L 102.686468 170.648141 
L 98.817862 171.680039 
L 94.953342 172.750326 
L 91.069465 173.86955 
L 87.17598 175.032325 
L 83.1347 176.280946 
" style="fill:none;stroke:#ffffff;stroke-linecap:square;"/>
   </g>
   <g id="line2d_13">
    <path clip-path="url(#p7e63205d76)" d="M 398.487273 195.447386 
L 394.814789 192.961869 
L 391.12903 190.517847 
L 387.440939 188.123903 
L 383.739159 185.771384 
L 380.035462 183.469199 
L 376.317651 181.208383 
L 372.598364 178.998151 
L 368.875876 176.835691 
L 365.129685 174.707228 
L 361.373525 172.627036 
L 357.63743 170.610993 
L 353.859764 168.616361 
L 350.093971 166.683199 
L 346.318641 164.794447 
L 342.539766 162.952985 
L 338.723812 161.141326 
L 334.942265 159.40241 
L 331.123533 157.689883 
L 327.300672 156.028508 
L 323.493203 154.424481 
L 319.641428 152.847051 
L 315.805663 151.331028 
L 311.960675 149.85985 
L 308.097505 148.430338 
L 304.242777 147.05462 
L 300.373139 145.720504 
L 296.49022 144.43142 
L 292.596429 143.188456 
L 288.70819 141.99914 
L 284.815279 140.85613 
L 280.898238 139.752987 
L 276.976101 138.700284 
L 273.075363 137.703395 
L 269.12041 136.736881 
L 265.206023 135.835032 
L 261.25604 134.967655 
L 257.298053 134.149153 
L 253.347225 133.383135 
L 249.375115 132.660264 
L 245.429833 131.991931 
L 241.428023 131.356955 
L 237.45253 130.781195 
L 233.470412 130.249937 
L 229.466131 129.763 
L 225.472416 129.326727 
L 221.454123 128.934794 
L 217.44774 128.593699 
L 213.43633 128.297886 
L 209.40133 128.046648 
L 205.359494 127.845128 
L 201.345998 127.694115 
L 197.280313 127.583381 
L 193.239541 127.526706 
L 189.19146 127.515337 
L 185.124184 127.549568 
L 181.065368 127.63287 
L 177.003826 127.761398 
L 172.918658 127.936028 
L 168.831356 128.160097 
L 164.753084 128.432367 
L 160.666666 128.74986 
L 156.561561 129.114036 
L 152.470786 129.525663 
L 148.35799 129.984168 
L 144.252072 130.490103 
L 140.128022 131.043246 
L 136.021186 131.642488 
L 131.881686 132.290235 
L 127.766202 132.983108 
L 123.632268 133.722202 
L 119.493452 134.507393 
L 115.353301 135.339541 
L 111.196076 136.219633 
L 107.039872 137.147825 
L 102.906085 138.117762 
L 98.734081 139.136082 
L 94.559834 140.203143 
L 90.401024 141.31399 
L 86.222374 142.473103 
L 82.047325 143.677812 
L 77.874007 144.925625 
L 73.832727 146.174246 
" style="fill:none;stroke:#ffffff;stroke-linecap:square;"/>
   </g>
   <g id="patch_3">
    <path d="M 57.6 307.584 
L 57.6 41.472 
" style="fill:none;stroke:#000000;stroke-linecap:square;stroke-linejoin:miter;stroke-width:0.8;"/>
   </g>
   <g id="patch_4">
    <path d="M 414.72 307.584 
L 414.72 41.472 
" style="fill:none;stroke:#000000;stroke-linecap:square;stroke-linejoin:miter;stroke-width:0.8;"/>
   </g>
   <g id="patch_5">
    <path d="M 57.6 307.584 
L 414.72 307.584 
" style="fill:none;stroke:#000000;stroke-linecap:square;stroke-linejoin:miter;stroke-width:0.8;"/>
   </g>
   <g id="patch_6">
    <path d="M 57.6 41.472 
L 414.72 41.472 
" style="fill:none;stroke:#000000;stroke-linecap:square;stroke-linejoin:miter;stroke-width:0.8;"/>
   </g>
  </g>
 </g>
 <defs>
  <clipPath id="p7e63205d76">
   <rect height="266.112" width="357.12" x="57.6" y="41.472"/>
  </clipPath>
 </defs>
</svg>
