<?xml version="1.0" encoding="utf-8" standalone="no"?>
<!DOCTYPE svg PUBLIC "-//W3C//DTD SVG 1.1//EN"
  "http://www.w3.org/Graphics/SVG/1.1/DTD/svg11.dtd">
<!-- Created with matplotlib (https://matplotlib.org/) -->
<svg height="345.6pt" version="1.1" viewBox="0 0 460.8 345.6" width="460.8pt" xmlns="http://www.w3.org/2000/svg" xmlns:xlink="http://www.w3.org/1999/xlink">
 <metadata>
  <rdf:RDF xmlns:cc="http://creativecommons.org/ns#" xmlns:dc="http://purl.org/dc/elements/1.1/" xmlns:rdf="http://www.w3.org/1999/02/22-rdf-syntax-ns#">
   <cc:Work>
    <dc:type rdf:resource="http://purl.org/dc/dcmitype/StillImage"/>
    <dc:date>2021-07-12T19:16:25.881044</dc:date>
    <dc:format>image/svg+xml</dc:format>
    <dc:creator>
     <cc:Agent>
      <dc:title>Matplotlib v3.3.3, https://matplotlib.org/</dc:title>
     </cc:Agent>
    </dc:creator>
   </cc:Work>
  </rdf:RDF>
 </metadata>
 <defs>
  <style type="text/css">*{stroke-linecap:butt;stroke-linejoin:round;}</style>
 </defs>
 <g id="figure_1">
  <g id="patch_1">
   <path d="M 0 345.6 
L 460.8 345.6 
L 460.8 0 
L 0 0 
z
" style="fill:#ffffff;"/>
  </g>
  <g id="axes_1">
   <g id="patch_2">
    <path d="M 57.6 307.584 
L 414.72 307.584 
L 414.72 41.472 
L 57.6 41.472 
z
" style="fill:#7d9051;"/>
   </g>
   <g id="matplotlib.axis_1">
    <g id="xtick_1">
     <g id="line2d_1">
      <defs>
       <path d="M 0 0 
L 0 3.5 
" id="mb037dc7490" style="stroke:#000000;stroke-width:0.8;"/>
      </defs>
      <g>
       <use style="stroke:#000000;stroke-width:0.8;" x="102.351594" xlink:href="#mb037dc7490" y="307.584"/>
      </g>
     </g>
     <g id="text_1">
      <!-- 20 -->
      <g transform="translate(95.989094 322.182437)scale(0.1 -0.1)">
       <defs>
        <path d="M 19.1875 8.296875 
L 53.609375 8.296875 
L 53.609375 0 
L 7.328125 0 
L 7.328125 8.296875 
Q 12.9375 14.109375 22.625 23.890625 
Q 32.328125 33.6875 34.8125 36.53125 
Q 39.546875 41.84375 41.421875 45.53125 
Q 43.3125 49.21875 43.3125 52.78125 
Q 43.3125 58.59375 39.234375 62.25 
Q 35.15625 65.921875 28.609375 65.921875 
Q 23.96875 65.921875 18.8125 64.3125 
Q 13.671875 62.703125 7.8125 59.421875 
L 7.8125 69.390625 
Q 13.765625 71.78125 18.9375 73 
Q 24.125 74.21875 28.421875 74.21875 
Q 39.75 74.21875 46.484375 68.546875 
Q 53.21875 62.890625 53.21875 53.421875 
Q 53.21875 48.921875 51.53125 44.890625 
Q 49.859375 40.875 45.40625 35.40625 
Q 44.1875 33.984375 37.640625 27.21875 
Q 31.109375 20.453125 19.1875 8.296875 
z
" id="DejaVuSans-50"/>
        <path d="M 31.78125 66.40625 
Q 24.171875 66.40625 20.328125 58.90625 
Q 16.5 51.421875 16.5 36.375 
Q 16.5 21.390625 20.328125 13.890625 
Q 24.171875 6.390625 31.78125 6.390625 
Q 39.453125 6.390625 43.28125 13.890625 
Q 47.125 21.390625 47.125 36.375 
Q 47.125 51.421875 43.28125 58.90625 
Q 39.453125 66.40625 31.78125 66.40625 
z
M 31.78125 74.21875 
Q 44.046875 74.21875 50.515625 64.515625 
Q 56.984375 54.828125 56.984375 36.375 
Q 56.984375 17.96875 50.515625 8.265625 
Q 44.046875 -1.421875 31.78125 -1.421875 
Q 19.53125 -1.421875 13.0625 8.265625 
Q 6.59375 17.96875 6.59375 36.375 
Q 6.59375 54.828125 13.0625 64.515625 
Q 19.53125 74.21875 31.78125 74.21875 
z
" id="DejaVuSans-48"/>
       </defs>
       <use xlink:href="#DejaVuSans-50"/>
       <use x="63.623047" xlink:href="#DejaVuSans-48"/>
      </g>
     </g>
    </g>
    <g id="xtick_2">
     <g id="line2d_2">
      <g>
       <use style="stroke:#000000;stroke-width:0.8;" x="159.989409" xlink:href="#mb037dc7490" y="307.584"/>
      </g>
     </g>
     <g id="text_2">
      <!-- 40 -->
      <g transform="translate(153.626909 322.182437)scale(0.1 -0.1)">
       <defs>
        <path d="M 37.796875 64.3125 
L 12.890625 25.390625 
L 37.796875 25.390625 
z
M 35.203125 72.90625 
L 47.609375 72.90625 
L 47.609375 25.390625 
L 58.015625 25.390625 
L 58.015625 17.1875 
L 47.609375 17.1875 
L 47.609375 0 
L 37.796875 0 
L 37.796875 17.1875 
L 4.890625 17.1875 
L 4.890625 26.703125 
z
" id="DejaVuSans-52"/>
       </defs>
       <use xlink:href="#DejaVuSans-52"/>
       <use x="63.623047" xlink:href="#DejaVuSans-48"/>
      </g>
     </g>
    </g>
    <g id="xtick_3">
     <g id="line2d_3">
      <g>
       <use style="stroke:#000000;stroke-width:0.8;" x="217.627225" xlink:href="#mb037dc7490" y="307.584"/>
      </g>
     </g>
     <g id="text_3">
      <!-- 60 -->
      <g transform="translate(211.264725 322.182437)scale(0.1 -0.1)">
       <defs>
        <path d="M 33.015625 40.375 
Q 26.375 40.375 22.484375 35.828125 
Q 18.609375 31.296875 18.609375 23.390625 
Q 18.609375 15.53125 22.484375 10.953125 
Q 26.375 6.390625 33.015625 6.390625 
Q 39.65625 6.390625 43.53125 10.953125 
Q 47.40625 15.53125 47.40625 23.390625 
Q 47.40625 31.296875 43.53125 35.828125 
Q 39.65625 40.375 33.015625 40.375 
z
M 52.59375 71.296875 
L 52.59375 62.3125 
Q 48.875 64.0625 45.09375 64.984375 
Q 41.3125 65.921875 37.59375 65.921875 
Q 27.828125 65.921875 22.671875 59.328125 
Q 17.53125 52.734375 16.796875 39.40625 
Q 19.671875 43.65625 24.015625 45.921875 
Q 28.375 48.1875 33.59375 48.1875 
Q 44.578125 48.1875 50.953125 41.515625 
Q 57.328125 34.859375 57.328125 23.390625 
Q 57.328125 12.15625 50.6875 5.359375 
Q 44.046875 -1.421875 33.015625 -1.421875 
Q 20.359375 -1.421875 13.671875 8.265625 
Q 6.984375 17.96875 6.984375 36.375 
Q 6.984375 53.65625 15.1875 63.9375 
Q 23.390625 74.21875 37.203125 74.21875 
Q 40.921875 74.21875 44.703125 73.484375 
Q 48.484375 72.75 52.59375 71.296875 
z
" id="DejaVuSans-54"/>
       </defs>
       <use xlink:href="#DejaVuSans-54"/>
       <use x="63.623047" xlink:href="#DejaVuSans-48"/>
      </g>
     </g>
    </g>
    <g id="xtick_4">
     <g id="line2d_4">
      <g>
       <use style="stroke:#000000;stroke-width:0.8;" x="275.26504" xlink:href="#mb037dc7490" y="307.584"/>
      </g>
     </g>
     <g id="text_4">
      <!-- 80 -->
      <g transform="translate(268.90254 322.182437)scale(0.1 -0.1)">
       <defs>
        <path d="M 31.78125 34.625 
Q 24.75 34.625 20.71875 30.859375 
Q 16.703125 27.09375 16.703125 20.515625 
Q 16.703125 13.921875 20.71875 10.15625 
Q 24.75 6.390625 31.78125 6.390625 
Q 38.8125 6.390625 42.859375 10.171875 
Q 46.921875 13.96875 46.921875 20.515625 
Q 46.921875 27.09375 42.890625 30.859375 
Q 38.875 34.625 31.78125 34.625 
z
M 21.921875 38.8125 
Q 15.578125 40.375 12.03125 44.71875 
Q 8.5 49.078125 8.5 55.328125 
Q 8.5 64.0625 14.71875 69.140625 
Q 20.953125 74.21875 31.78125 74.21875 
Q 42.671875 74.21875 48.875 69.140625 
Q 55.078125 64.0625 55.078125 55.328125 
Q 55.078125 49.078125 51.53125 44.71875 
Q 48 40.375 41.703125 38.8125 
Q 48.828125 37.15625 52.796875 32.3125 
Q 56.78125 27.484375 56.78125 20.515625 
Q 56.78125 9.90625 50.3125 4.234375 
Q 43.84375 -1.421875 31.78125 -1.421875 
Q 19.734375 -1.421875 13.25 4.234375 
Q 6.78125 9.90625 6.78125 20.515625 
Q 6.78125 27.484375 10.78125 32.3125 
Q 14.796875 37.15625 21.921875 38.8125 
z
M 18.3125 54.390625 
Q 18.3125 48.734375 21.84375 45.5625 
Q 25.390625 42.390625 31.78125 42.390625 
Q 38.140625 42.390625 41.71875 45.5625 
Q 45.3125 48.734375 45.3125 54.390625 
Q 45.3125 60.0625 41.71875 63.234375 
Q 38.140625 66.40625 31.78125 66.40625 
Q 25.390625 66.40625 21.84375 63.234375 
Q 18.3125 60.0625 18.3125 54.390625 
z
" id="DejaVuSans-56"/>
       </defs>
       <use xlink:href="#DejaVuSans-56"/>
       <use x="63.623047" xlink:href="#DejaVuSans-48"/>
      </g>
     </g>
    </g>
    <g id="xtick_5">
     <g id="line2d_5">
      <g>
       <use style="stroke:#000000;stroke-width:0.8;" x="332.902855" xlink:href="#mb037dc7490" y="307.584"/>
      </g>
     </g>
     <g id="text_5">
      <!-- 100 -->
      <g transform="translate(323.359105 322.182437)scale(0.1 -0.1)">
       <defs>
        <path d="M 12.40625 8.296875 
L 28.515625 8.296875 
L 28.515625 63.921875 
L 10.984375 60.40625 
L 10.984375 69.390625 
L 28.421875 72.90625 
L 38.28125 72.90625 
L 38.28125 8.296875 
L 54.390625 8.296875 
L 54.390625 0 
L 12.40625 0 
z
" id="DejaVuSans-49"/>
       </defs>
       <use xlink:href="#DejaVuSans-49"/>
       <use x="63.623047" xlink:href="#DejaVuSans-48"/>
       <use x="127.246094" xlink:href="#DejaVuSans-48"/>
      </g>
     </g>
    </g>
    <g id="xtick_6">
     <g id="line2d_6">
      <g>
       <use style="stroke:#000000;stroke-width:0.8;" x="390.540671" xlink:href="#mb037dc7490" y="307.584"/>
      </g>
     </g>
     <g id="text_6">
      <!-- 120 -->
      <g transform="translate(380.996921 322.182437)scale(0.1 -0.1)">
       <use xlink:href="#DejaVuSans-49"/>
       <use x="63.623047" xlink:href="#DejaVuSans-50"/>
       <use x="127.246094" xlink:href="#DejaVuSans-48"/>
      </g>
     </g>
    </g>
   </g>
   <g id="matplotlib.axis_2">
    <g id="ytick_1">
     <g id="line2d_7">
      <defs>
       <path d="M 0 0 
L -3.5 0 
" id="ma8bbc2665f" style="stroke:#000000;stroke-width:0.8;"/>
      </defs>
      <g>
       <use style="stroke:#000000;stroke-width:0.8;" x="57.6" xlink:href="#ma8bbc2665f" y="277.92067"/>
      </g>
     </g>
     <g id="text_7">
      <!-- 120 -->
      <g transform="translate(31.5125 281.719888)scale(0.1 -0.1)">
       <use xlink:href="#DejaVuSans-49"/>
       <use x="63.623047" xlink:href="#DejaVuSans-50"/>
       <use x="127.246094" xlink:href="#DejaVuSans-48"/>
      </g>
     </g>
    </g>
    <g id="ytick_2">
     <g id="line2d_8">
      <g>
       <use style="stroke:#000000;stroke-width:0.8;" x="57.6" xlink:href="#ma8bbc2665f" y="220.282854"/>
      </g>
     </g>
     <g id="text_8">
      <!-- 140 -->
      <g transform="translate(31.5125 224.082073)scale(0.1 -0.1)">
       <use xlink:href="#DejaVuSans-49"/>
       <use x="63.623047" xlink:href="#DejaVuSans-52"/>
       <use x="127.246094" xlink:href="#DejaVuSans-48"/>
      </g>
     </g>
    </g>
    <g id="ytick_3">
     <g id="line2d_9">
      <g>
       <use style="stroke:#000000;stroke-width:0.8;" x="57.6" xlink:href="#ma8bbc2665f" y="162.645039"/>
      </g>
     </g>
     <g id="text_9">
      <!-- 160 -->
      <g transform="translate(31.5125 166.444258)scale(0.1 -0.1)">
       <use xlink:href="#DejaVuSans-49"/>
       <use x="63.623047" xlink:href="#DejaVuSans-54"/>
       <use x="127.246094" xlink:href="#DejaVuSans-48"/>
      </g>
     </g>
    </g>
    <g id="ytick_4">
     <g id="line2d_10">
      <g>
       <use style="stroke:#000000;stroke-width:0.8;" x="57.6" xlink:href="#ma8bbc2665f" y="105.007223"/>
      </g>
     </g>
     <g id="text_10">
      <!-- 180 -->
      <g transform="translate(31.5125 108.806442)scale(0.1 -0.1)">
       <use xlink:href="#DejaVuSans-49"/>
       <use x="63.623047" xlink:href="#DejaVuSans-56"/>
       <use x="127.246094" xlink:href="#DejaVuSans-48"/>
      </g>
     </g>
    </g>
    <g id="ytick_5">
     <g id="line2d_11">
      <g>
       <use style="stroke:#000000;stroke-width:0.8;" x="57.6" xlink:href="#ma8bbc2665f" y="47.369408"/>
      </g>
     </g>
     <g id="text_11">
      <!-- 200 -->
      <g transform="translate(31.5125 51.168627)scale(0.1 -0.1)">
       <use xlink:href="#DejaVuSans-50"/>
       <use x="63.623047" xlink:href="#DejaVuSans-48"/>
       <use x="127.246094" xlink:href="#DejaVuSans-48"/>
      </g>
     </g>
    </g>
   </g>
   <g id="line2d_12">
    <path clip-path="url(#pf267c9cdad)" d="M 390.540671 142.471803 
L 387.921032 144.964639 
L 385.301393 147.414246 
L 382.681755 149.820625 
L 380.064998 152.183775 
L 377.445359 154.500815 
L 374.828602 156.774627 
L 372.211846 159.005211 
L 369.595089 161.192566 
L 366.978332 163.333811 
L 364.364457 165.431827 
L 361.7477 167.486615 
L 359.133825 169.498175 
L 356.51995 171.463625 
L 353.906075 173.388728 
L 351.295082 175.26772 
L 348.681207 177.100603 
L 346.070214 178.893139 
L 343.456339 180.639565 
L 340.845346 182.342762 
L 338.234353 184.002731 
L 335.626242 185.619472 
L 333.015249 187.190102 
L 330.407138 188.717505 
L 327.799027 190.201678 
L 325.190916 191.642624 
L 322.582805 193.037459 
L 319.974693 194.389066 
L 317.366582 195.697444 
L 314.761353 196.962594 
L 312.156124 198.181634 
L 309.550894 199.360327 
L 306.945665 200.49291 
L 304.340436 201.579383 
L 301.738089 202.625509 
L 299.132859 203.625526 
L 296.530512 204.582313 
L 293.928165 205.495873 
L 291.325817 206.363322 
L 288.726352 207.190424 
L 286.124004 207.971417 
L 283.524539 208.709181 
L 280.925073 209.400835 
L 278.325608 210.052142 
L 275.726142 210.657339 
L 273.126677 211.219308 
L 270.530093 211.738048 
L 267.930628 212.210678 
L 265.334044 212.64008 
L 262.737461 213.026253 
L 260.140877 213.369198 
L 257.544294 213.666033 
L 254.950592 213.922521 
L 252.35689 214.132899 
L 249.760307 214.300049 
L 247.166605 214.421088 
L 244.575785 214.498899 
L 241.982083 214.536364 
L 239.388382 214.524836 
L 236.797562 214.472962 
L 234.206742 214.374978 
L 231.615922 214.236647 
L 229.025103 214.052206 
L 226.437165 213.821655 
L 223.846345 213.550757 
L 221.258407 213.233749 
L 218.670469 212.873513 
L 216.082531 212.470048 
L 213.494593 212.020473 
L 210.906655 211.52767 
L 208.321599 210.991638 
L 205.733661 210.412378 
L 203.148605 209.78989 
L 200.563549 209.121291 
L 197.978493 208.409464 
L 195.396319 207.654409 
L 192.811263 206.856125 
L 190.229089 206.011731 
L 187.646915 205.124109 
L 185.064741 204.193258 
L 182.482567 203.219179 
L 179.900392 202.19899 
L 177.3211 201.135572 
L 174.741808 200.028926 
L 172.162516 198.879051 
L 169.583223 197.683067 
L 167.003931 196.446736 
L 164.424639 195.164294 
L 161.848229 193.838624 
L 159.268936 192.466844 
L 156.692526 191.051836 
L 154.116116 189.593599 
L 151.542587 188.092134 
L 148.966177 186.547441 
L 146.392648 184.956637 
L 143.816238 183.322605 
L 141.24271 181.645345 
L 138.669181 179.924856 
L 136.095653 178.158257 
L 133.525006 176.351311 
L 130.951478 174.498256 
L 128.380831 172.599089 
L 125.810185 170.659577 
L 123.239538 168.673954 
L 120.668891 166.645103 
L 118.101127 164.573024 
L 115.53048 162.454834 
L 112.962715 160.296298 
L 110.394951 158.091651 
L 107.827186 155.843777 
L 105.259421 153.549791 
L 102.694539 151.21546 
L 100.126774 148.835018 
L 97.561891 146.411348 
L 94.997008 143.941568 
L 92.432126 141.431441 
L 89.867243 138.875204 
L 87.305242 136.275738 
L 84.740359 133.633044 
L 82.178358 130.94424 
" style="fill:none;stroke:#fea952;stroke-linecap:square;"/>
   </g>
   <g id="line2d_13">
    <path clip-path="url(#pf267c9cdad)" d="M 398.487273 150.822625 
L 395.794416 153.384528 
L 393.099729 155.903691 
L 390.407852 158.375865 
L 387.702245 160.818424 
L 385.006416 163.20226 
L 382.306743 165.547433 
L 379.605017 167.849742 
L 376.895312 170.11397 
L 374.194039 172.32371 
L 371.483788 174.49824 
L 368.778126 176.62214 
L 366.061735 178.711686 
L 363.355995 180.7455 
L 360.639508 182.745308 
L 357.913386 184.706087 
L 355.20567 186.604081 
L 352.474307 188.478143 
L 349.754451 190.294538 
L 347.030043 192.070775 
L 344.307902 193.800523 
L 341.568344 195.497535 
L 338.840731 197.137387 
L 336.108518 198.736435 
L 333.373625 200.291701 
L 330.627307 201.807778 
L 327.886829 203.272303 
L 325.143634 204.692791 
L 322.402225 206.066967 
L 319.646938 207.403656 
L 316.907874 208.68428 
L 314.146807 209.932096 
L 311.382686 211.132344 
L 308.640039 212.275089 
L 305.869062 213.387469 
L 303.110781 214.444992 
L 300.34884 215.459127 
L 297.5735 216.431879 
L 294.821017 217.348234 
L 292.039894 218.231491 
L 289.271379 219.060995 
L 286.488611 219.849153 
L 283.726752 220.582754 
L 280.939503 221.279442 
L 278.161972 221.924612 
L 275.385005 222.523496 
L 272.592207 223.079671 
L 269.811418 223.583775 
L 267.029814 224.042232 
L 264.246861 224.45457 
L 261.450151 224.822168 
L 258.678708 225.137642 
L 255.882545 225.41235 
L 253.09742 225.636652 
L 250.297675 225.81508 
L 247.51266 225.943456 
L 244.742277 226.02526 
L 241.93085 226.063813 
L 239.15762 226.05009 
L 236.361903 225.99229 
L 233.59213 225.886145 
L 230.797344 225.73511 
L 228.002199 225.534296 
L 225.238371 225.286715 
L 222.444759 224.992797 
L 219.669114 224.65123 
L 216.894749 224.263488 
L 214.10952 223.82751 
L 211.338226 223.344554 
L 208.566113 222.815122 
L 205.80368 222.240851 
L 203.034935 221.61959 
L 200.2621 220.950212 
L 197.503198 220.2352 
L 194.743189 219.473709 
L 191.995011 218.668755 
L 189.228352 217.812742 
L 186.481711 216.913193 
L 183.737591 215.96855 
L 180.996044 214.978916 
L 178.246762 213.940311 
L 175.506484 212.856301 
L 172.775885 211.729237 
L 170.048018 210.557603 
L 167.313279 209.337044 
L 164.600553 208.078148 
L 161.871727 206.768809 
L 159.150458 205.414549 
L 156.435301 204.016293 
L 153.719663 202.570818 
L 151.01439 201.083958 
L 148.307017 199.550461 
L 145.614958 197.978889 
L 142.905018 196.352902 
L 140.218586 194.691403 
L 137.522071 192.98015 
L 134.835991 191.228594 
L 132.145261 189.428707 
L 129.466593 187.589072 
L 126.789121 185.706126 
L 124.101643 183.769959 
L 121.437912 181.801295 
L 118.763431 179.782514 
L 116.097865 177.722778 
L 113.429681 175.616086 
L 110.770524 173.469483 
L 108.112792 171.278813 
L 105.453404 169.042437 
L 102.80193 166.765217 
L 100.147155 164.440394 
L 97.500377 162.075162 
L 94.857513 159.669201 
L 92.209467 157.213619 
L 89.566072 154.715057 
L 86.934206 152.180252 
L 84.29468 149.596408 
L 81.657075 146.967043 
L 79.033153 144.304265 
L 76.394728 141.585098 
L 73.832727 138.896294 
" style="fill:none;stroke:#ffffff;stroke-linecap:square;"/>
   </g>
   <g id="line2d_14">
    <path clip-path="url(#pf267c9cdad)" d="M 382.594069 134.120981 
L 380.047648 136.54475 
L 377.503058 138.924801 
L 374.955657 141.265385 
L 372.427751 143.549126 
L 369.884302 145.799371 
L 367.350462 148.001821 
L 364.818675 150.160679 
L 362.294865 152.271162 
L 359.762625 154.343912 
L 357.245126 156.365414 
L 354.717274 158.35109 
L 352.205915 160.284664 
L 349.683906 162.181749 
L 347.172642 164.032147 
L 344.676779 165.829353 
L 342.156745 167.597125 
L 339.666121 169.308135 
L 337.158228 170.984592 
L 334.660649 172.614749 
L 332.160805 174.20494 
L 329.68414 175.741409 
L 327.189767 177.242818 
L 324.705758 178.698574 
L 322.224429 180.111655 
L 319.754524 181.47747 
L 317.27878 182.802615 
L 314.805753 184.08534 
L 312.33094 185.327921 
L 309.875768 186.521532 
L 307.404373 187.678988 
L 304.954982 188.788558 
L 302.508645 189.853476 
L 300.040833 190.883677 
L 297.607115 191.86355 
L 295.154938 192.806059 
L 292.712184 193.705499 
L 290.282829 194.559866 
L 287.830618 195.37841 
L 285.412809 196.149358 
L 282.97663 196.881839 
L 280.560466 197.569208 
L 278.123395 198.218916 
L 275.711713 198.824842 
L 273.290313 199.390066 
L 270.868349 199.91512 
L 268.46798 200.396426 
L 266.049838 200.837581 
L 263.638275 201.237928 
L 261.22806 201.597937 
L 258.831603 201.916229 
L 256.409879 202.194424 
L 254.018639 202.432692 
L 251.61636 202.629147 
L 249.222939 202.785018 
L 246.820549 202.898721 
L 244.409293 202.972539 
L 242.033317 203.008915 
L 239.619143 202.999583 
L 237.233221 202.953635 
L 234.821354 202.863811 
L 232.4345 202.738185 
L 230.048006 202.570117 
L 227.635958 202.356595 
L 225.247931 202.108718 
L 222.8477 201.816269 
L 220.446189 201.483538 
L 218.055542 201.112587 
L 215.65096 200.696393 
L 213.247197 200.240218 
L 210.839519 199.742425 
L 208.432388 199.205167 
L 206.03511 198.629567 
L 203.623901 198.007383 
L 201.213797 197.345219 
L 198.797628 196.640063 
L 196.394175 195.899508 
L 193.976466 195.110269 
L 191.556239 194.279668 
L 189.133438 193.4076 
L 186.718371 192.498047 
L 184.294301 191.541678 
L 181.866315 190.541907 
L 179.435598 189.500249 
L 177.011753 188.421059 
L 174.565894 187.287986 
L 172.136135 186.124663 
L 169.698819 184.914039 
L 167.261156 183.660956 
L 164.81821 182.362871 
L 162.370662 181.019714 
L 159.925214 179.636738 
L 157.470217 178.205379 
L 155.027335 176.74198 
L 152.566711 175.221872 
L 150.110405 173.66506 
L 147.649428 172.062095 
L 145.193101 170.421005 
L 142.724712 168.727441 
L 140.260892 166.996497 
L 137.801312 165.226552 
L 135.32375 163.396884 
L 132.856938 161.53664 
L 130.381211 159.62513 
L 127.908102 157.67412 
L 125.431729 155.676565 
L 122.948169 153.630855 
L 120.472027 151.550159 
L 117.987972 149.418085 
L 115.507217 147.247159 
L 113.018466 145.024421 
L 110.531564 142.761719 
L 108.044081 140.456417 
L 105.55771 138.107639 
L 103.059811 135.702883 
L 100.569571 133.266473 
L 98.07741 130.783365 
L 95.577331 128.247211 
L 93.08599 125.680991 
L 90.523989 122.992187 
" style="fill:none;stroke:#ffffff;stroke-linecap:square;"/>
   </g>
   <g id="patch_3">
    <path d="M 57.6 307.584 
L 57.6 41.472 
" style="fill:none;stroke:#000000;stroke-linecap:square;stroke-linejoin:miter;stroke-width:0.8;"/>
   </g>
   <g id="patch_4">
    <path d="M 414.72 307.584 
L 414.72 41.472 
" style="fill:none;stroke:#000000;stroke-linecap:square;stroke-linejoin:miter;stroke-width:0.8;"/>
   </g>
   <g id="patch_5">
    <path d="M 57.6 307.584 
L 414.72 307.584 
" style="fill:none;stroke:#000000;stroke-linecap:square;stroke-linejoin:miter;stroke-width:0.8;"/>
   </g>
   <g id="patch_6">
    <path d="M 57.6 41.472 
L 414.72 41.472 
" style="fill:none;stroke:#000000;stroke-linecap:square;stroke-linejoin:miter;stroke-width:0.8;"/>
   </g>
  </g>
 </g>
 <defs>
  <clipPath id="pf267c9cdad">
   <rect height="266.112" width="357.12" x="57.6" y="41.472"/>
  </clipPath>
 </defs>
</svg>
