<?xml version="1.0" encoding="utf-8" standalone="no"?>
<!DOCTYPE svg PUBLIC "-//W3C//DTD SVG 1.1//EN"
  "http://www.w3.org/Graphics/SVG/1.1/DTD/svg11.dtd">
<!-- Created with matplotlib (https://matplotlib.org/) -->
<svg height="345.6pt" version="1.1" viewBox="0 0 460.8 345.6" width="460.8pt" xmlns="http://www.w3.org/2000/svg" xmlns:xlink="http://www.w3.org/1999/xlink">
 <metadata>
  <rdf:RDF xmlns:cc="http://creativecommons.org/ns#" xmlns:dc="http://purl.org/dc/elements/1.1/" xmlns:rdf="http://www.w3.org/1999/02/22-rdf-syntax-ns#">
   <cc:Work>
    <dc:type rdf:resource="http://purl.org/dc/dcmitype/StillImage"/>
    <dc:date>2021-07-12T20:02:49.285540</dc:date>
    <dc:format>image/svg+xml</dc:format>
    <dc:creator>
     <cc:Agent>
      <dc:title>Matplotlib v3.3.3, https://matplotlib.org/</dc:title>
     </cc:Agent>
    </dc:creator>
   </cc:Work>
  </rdf:RDF>
 </metadata>
 <defs>
  <style type="text/css">*{stroke-linecap:butt;stroke-linejoin:round;}</style>
 </defs>
 <g id="figure_1">
  <g id="patch_1">
   <path d="M 0 345.6 
L 460.8 345.6 
L 460.8 0 
L 0 0 
z
" style="fill:#ffffff;"/>
  </g>
  <g id="axes_1">
   <g id="patch_2">
    <path d="M 57.6 307.584 
L 414.72 307.584 
L 414.72 41.472 
L 57.6 41.472 
z
" style="fill:#7d9051;"/>
   </g>
   <g id="matplotlib.axis_1">
    <g id="xtick_1">
     <g id="line2d_1">
      <defs>
       <path d="M 0 0 
L 0 3.5 
" id="me56af67ee3" style="stroke:#000000;stroke-width:0.8;"/>
      </defs>
      <g>
       <use style="stroke:#000000;stroke-width:0.8;" x="67.792241" xlink:href="#me56af67ee3" y="307.584"/>
      </g>
     </g>
     <g id="text_1">
      <!-- 80 -->
      <g transform="translate(61.429741 322.182437)scale(0.1 -0.1)">
       <defs>
        <path d="M 31.78125 34.625 
Q 24.75 34.625 20.71875 30.859375 
Q 16.703125 27.09375 16.703125 20.515625 
Q 16.703125 13.921875 20.71875 10.15625 
Q 24.75 6.390625 31.78125 6.390625 
Q 38.8125 6.390625 42.859375 10.171875 
Q 46.921875 13.96875 46.921875 20.515625 
Q 46.921875 27.09375 42.890625 30.859375 
Q 38.875 34.625 31.78125 34.625 
z
M 21.921875 38.8125 
Q 15.578125 40.375 12.03125 44.71875 
Q 8.5 49.078125 8.5 55.328125 
Q 8.5 64.0625 14.71875 69.140625 
Q 20.953125 74.21875 31.78125 74.21875 
Q 42.671875 74.21875 48.875 69.140625 
Q 55.078125 64.0625 55.078125 55.328125 
Q 55.078125 49.078125 51.53125 44.71875 
Q 48 40.375 41.703125 38.8125 
Q 48.828125 37.15625 52.796875 32.3125 
Q 56.78125 27.484375 56.78125 20.515625 
Q 56.78125 9.90625 50.3125 4.234375 
Q 43.84375 -1.421875 31.78125 -1.421875 
Q 19.734375 -1.421875 13.25 4.234375 
Q 6.78125 9.90625 6.78125 20.515625 
Q 6.78125 27.484375 10.78125 32.3125 
Q 14.796875 37.15625 21.921875 38.8125 
z
M 18.3125 54.390625 
Q 18.3125 48.734375 21.84375 45.5625 
Q 25.390625 42.390625 31.78125 42.390625 
Q 38.140625 42.390625 41.71875 45.5625 
Q 45.3125 48.734375 45.3125 54.390625 
Q 45.3125 60.0625 41.71875 63.234375 
Q 38.140625 66.40625 31.78125 66.40625 
Q 25.390625 66.40625 21.84375 63.234375 
Q 18.3125 60.0625 18.3125 54.390625 
z
" id="DejaVuSans-56"/>
        <path d="M 31.78125 66.40625 
Q 24.171875 66.40625 20.328125 58.90625 
Q 16.5 51.421875 16.5 36.375 
Q 16.5 21.390625 20.328125 13.890625 
Q 24.171875 6.390625 31.78125 6.390625 
Q 39.453125 6.390625 43.28125 13.890625 
Q 47.125 21.390625 47.125 36.375 
Q 47.125 51.421875 43.28125 58.90625 
Q 39.453125 66.40625 31.78125 66.40625 
z
M 31.78125 74.21875 
Q 44.046875 74.21875 50.515625 64.515625 
Q 56.984375 54.828125 56.984375 36.375 
Q 56.984375 17.96875 50.515625 8.265625 
Q 44.046875 -1.421875 31.78125 -1.421875 
Q 19.53125 -1.421875 13.0625 8.265625 
Q 6.59375 17.96875 6.59375 36.375 
Q 6.59375 54.828125 13.0625 64.515625 
Q 19.53125 74.21875 31.78125 74.21875 
z
" id="DejaVuSans-48"/>
       </defs>
       <use xlink:href="#DejaVuSans-56"/>
       <use x="63.623047" xlink:href="#DejaVuSans-48"/>
      </g>
     </g>
    </g>
    <g id="xtick_2">
     <g id="line2d_2">
      <g>
       <use style="stroke:#000000;stroke-width:0.8;" x="126.788841" xlink:href="#me56af67ee3" y="307.584"/>
      </g>
     </g>
     <g id="text_2">
      <!-- 100 -->
      <g transform="translate(117.245091 322.182437)scale(0.1 -0.1)">
       <defs>
        <path d="M 12.40625 8.296875 
L 28.515625 8.296875 
L 28.515625 63.921875 
L 10.984375 60.40625 
L 10.984375 69.390625 
L 28.421875 72.90625 
L 38.28125 72.90625 
L 38.28125 8.296875 
L 54.390625 8.296875 
L 54.390625 0 
L 12.40625 0 
z
" id="DejaVuSans-49"/>
       </defs>
       <use xlink:href="#DejaVuSans-49"/>
       <use x="63.623047" xlink:href="#DejaVuSans-48"/>
       <use x="127.246094" xlink:href="#DejaVuSans-48"/>
      </g>
     </g>
    </g>
    <g id="xtick_3">
     <g id="line2d_3">
      <g>
       <use style="stroke:#000000;stroke-width:0.8;" x="185.785441" xlink:href="#me56af67ee3" y="307.584"/>
      </g>
     </g>
     <g id="text_3">
      <!-- 120 -->
      <g transform="translate(176.241691 322.182437)scale(0.1 -0.1)">
       <defs>
        <path d="M 19.1875 8.296875 
L 53.609375 8.296875 
L 53.609375 0 
L 7.328125 0 
L 7.328125 8.296875 
Q 12.9375 14.109375 22.625 23.890625 
Q 32.328125 33.6875 34.8125 36.53125 
Q 39.546875 41.84375 41.421875 45.53125 
Q 43.3125 49.21875 43.3125 52.78125 
Q 43.3125 58.59375 39.234375 62.25 
Q 35.15625 65.921875 28.609375 65.921875 
Q 23.96875 65.921875 18.8125 64.3125 
Q 13.671875 62.703125 7.8125 59.421875 
L 7.8125 69.390625 
Q 13.765625 71.78125 18.9375 73 
Q 24.125 74.21875 28.421875 74.21875 
Q 39.75 74.21875 46.484375 68.546875 
Q 53.21875 62.890625 53.21875 53.421875 
Q 53.21875 48.921875 51.53125 44.890625 
Q 49.859375 40.875 45.40625 35.40625 
Q 44.1875 33.984375 37.640625 27.21875 
Q 31.109375 20.453125 19.1875 8.296875 
z
" id="DejaVuSans-50"/>
       </defs>
       <use xlink:href="#DejaVuSans-49"/>
       <use x="63.623047" xlink:href="#DejaVuSans-50"/>
       <use x="127.246094" xlink:href="#DejaVuSans-48"/>
      </g>
     </g>
    </g>
    <g id="xtick_4">
     <g id="line2d_4">
      <g>
       <use style="stroke:#000000;stroke-width:0.8;" x="244.782041" xlink:href="#me56af67ee3" y="307.584"/>
      </g>
     </g>
     <g id="text_4">
      <!-- 140 -->
      <g transform="translate(235.238291 322.182437)scale(0.1 -0.1)">
       <defs>
        <path d="M 37.796875 64.3125 
L 12.890625 25.390625 
L 37.796875 25.390625 
z
M 35.203125 72.90625 
L 47.609375 72.90625 
L 47.609375 25.390625 
L 58.015625 25.390625 
L 58.015625 17.1875 
L 47.609375 17.1875 
L 47.609375 0 
L 37.796875 0 
L 37.796875 17.1875 
L 4.890625 17.1875 
L 4.890625 26.703125 
z
" id="DejaVuSans-52"/>
       </defs>
       <use xlink:href="#DejaVuSans-49"/>
       <use x="63.623047" xlink:href="#DejaVuSans-52"/>
       <use x="127.246094" xlink:href="#DejaVuSans-48"/>
      </g>
     </g>
    </g>
    <g id="xtick_5">
     <g id="line2d_5">
      <g>
       <use style="stroke:#000000;stroke-width:0.8;" x="303.778641" xlink:href="#me56af67ee3" y="307.584"/>
      </g>
     </g>
     <g id="text_5">
      <!-- 160 -->
      <g transform="translate(294.234891 322.182437)scale(0.1 -0.1)">
       <defs>
        <path d="M 33.015625 40.375 
Q 26.375 40.375 22.484375 35.828125 
Q 18.609375 31.296875 18.609375 23.390625 
Q 18.609375 15.53125 22.484375 10.953125 
Q 26.375 6.390625 33.015625 6.390625 
Q 39.65625 6.390625 43.53125 10.953125 
Q 47.40625 15.53125 47.40625 23.390625 
Q 47.40625 31.296875 43.53125 35.828125 
Q 39.65625 40.375 33.015625 40.375 
z
M 52.59375 71.296875 
L 52.59375 62.3125 
Q 48.875 64.0625 45.09375 64.984375 
Q 41.3125 65.921875 37.59375 65.921875 
Q 27.828125 65.921875 22.671875 59.328125 
Q 17.53125 52.734375 16.796875 39.40625 
Q 19.671875 43.65625 24.015625 45.921875 
Q 28.375 48.1875 33.59375 48.1875 
Q 44.578125 48.1875 50.953125 41.515625 
Q 57.328125 34.859375 57.328125 23.390625 
Q 57.328125 12.15625 50.6875 5.359375 
Q 44.046875 -1.421875 33.015625 -1.421875 
Q 20.359375 -1.421875 13.671875 8.265625 
Q 6.984375 17.96875 6.984375 36.375 
Q 6.984375 53.65625 15.1875 63.9375 
Q 23.390625 74.21875 37.203125 74.21875 
Q 40.921875 74.21875 44.703125 73.484375 
Q 48.484375 72.75 52.59375 71.296875 
z
" id="DejaVuSans-54"/>
       </defs>
       <use xlink:href="#DejaVuSans-49"/>
       <use x="63.623047" xlink:href="#DejaVuSans-54"/>
       <use x="127.246094" xlink:href="#DejaVuSans-48"/>
      </g>
     </g>
    </g>
    <g id="xtick_6">
     <g id="line2d_6">
      <g>
       <use style="stroke:#000000;stroke-width:0.8;" x="362.775241" xlink:href="#me56af67ee3" y="307.584"/>
      </g>
     </g>
     <g id="text_6">
      <!-- 180 -->
      <g transform="translate(353.231491 322.182437)scale(0.1 -0.1)">
       <use xlink:href="#DejaVuSans-49"/>
       <use x="63.623047" xlink:href="#DejaVuSans-56"/>
       <use x="127.246094" xlink:href="#DejaVuSans-48"/>
      </g>
     </g>
    </g>
   </g>
   <g id="matplotlib.axis_2">
    <g id="ytick_1">
     <g id="line2d_7">
      <defs>
       <path d="M 0 0 
L -3.5 0 
" id="m86adc0020b" style="stroke:#000000;stroke-width:0.8;"/>
      </defs>
      <g>
       <use style="stroke:#000000;stroke-width:0.8;" x="57.6" xlink:href="#m86adc0020b" y="265.031807"/>
      </g>
     </g>
     <g id="text_7">
      <!-- 40 -->
      <g transform="translate(37.875 268.831026)scale(0.1 -0.1)">
       <use xlink:href="#DejaVuSans-52"/>
       <use x="63.623047" xlink:href="#DejaVuSans-48"/>
      </g>
     </g>
    </g>
    <g id="ytick_2">
     <g id="line2d_8">
      <g>
       <use style="stroke:#000000;stroke-width:0.8;" x="57.6" xlink:href="#m86adc0020b" y="206.035207"/>
      </g>
     </g>
     <g id="text_8">
      <!-- 60 -->
      <g transform="translate(37.875 209.834426)scale(0.1 -0.1)">
       <use xlink:href="#DejaVuSans-54"/>
       <use x="63.623047" xlink:href="#DejaVuSans-48"/>
      </g>
     </g>
    </g>
    <g id="ytick_3">
     <g id="line2d_9">
      <g>
       <use style="stroke:#000000;stroke-width:0.8;" x="57.6" xlink:href="#m86adc0020b" y="147.038607"/>
      </g>
     </g>
     <g id="text_9">
      <!-- 80 -->
      <g transform="translate(37.875 150.837826)scale(0.1 -0.1)">
       <use xlink:href="#DejaVuSans-56"/>
       <use x="63.623047" xlink:href="#DejaVuSans-48"/>
      </g>
     </g>
    </g>
    <g id="ytick_4">
     <g id="line2d_10">
      <g>
       <use style="stroke:#000000;stroke-width:0.8;" x="57.6" xlink:href="#m86adc0020b" y="88.042007"/>
      </g>
     </g>
     <g id="text_10">
      <!-- 100 -->
      <g transform="translate(31.5125 91.841226)scale(0.1 -0.1)">
       <use xlink:href="#DejaVuSans-49"/>
       <use x="63.623047" xlink:href="#DejaVuSans-48"/>
       <use x="127.246094" xlink:href="#DejaVuSans-48"/>
      </g>
     </g>
    </g>
   </g>
   <g id="line2d_11">
    <path clip-path="url(#p920e0f386a)" d="M 398.173201 102.791157 
L 395.182073 102.711512 
L 392.196845 102.655465 
L 389.214567 102.623017 
L 386.241139 102.611217 
L 383.27066 102.623017 
L 380.306081 102.658415 
L 377.347401 102.717411 
L 374.394621 102.797057 
L 371.444791 102.900301 
L 368.503811 103.024194 
L 365.56578 103.174635 
L 362.633649 103.345725 
L 359.707418 103.537464 
L 356.787086 103.755751 
L 353.869704 103.994688 
L 350.961172 104.257222 
L 348.055589 104.540406 
L 345.155906 104.847188 
L 342.262123 105.177569 
L 339.37424 105.531549 
L 336.492256 105.906177 
L 333.613222 106.304404 
L 330.740087 106.72623 
L 327.872852 107.168705 
L 325.011517 107.634778 
L 322.156082 108.12445 
L 319.306546 108.63477 
L 316.45996 109.171639 
L 313.619274 109.726207 
L 310.787437 110.307324 
L 307.95855 110.909089 
L 305.132613 111.534453 
L 302.315525 112.183416 
L 299.501387 112.853027 
L 296.696099 113.546237 
L 293.893761 114.263046 
L 291.097322 115.003453 
L 288.306783 115.764509 
L 285.519193 116.549164 
L 282.740453 117.354468 
L 279.964663 118.18632 
L 277.194773 119.038821 
L 274.430782 119.91197 
L 271.672691 120.811668 
L 268.91755 121.732015 
L 266.171258 122.675961 
L 263.427916 123.640555 
L 260.690474 124.628748 
L 257.958931 125.64054 
L 255.233289 126.67593 
L 252.513545 127.73197 
L 249.796752 128.811607 
L 247.085858 129.914844 
L 244.383814 131.038729 
L 241.684719 132.186213 
L 238.988575 133.357295 
L 236.30128 134.549027 
L 233.616934 135.764357 
L 230.941438 137.003285 
L 228.268892 138.265813 
L 225.602246 139.548989 
L 222.9415 140.855763 
L 220.283703 142.186137 
L 217.634755 143.537159 
L 214.988758 144.91178 
L 212.34866 146.309999 
L 209.714462 147.731817 
L 207.086163 149.174284 
L 204.463764 150.640349 
L 201.844315 152.127064 
L 199.230766 153.640327 
L 196.626066 155.171288 
L 194.024316 156.728799 
L 191.425516 158.309907 
L 188.835565 159.911665 
L 186.251514 161.534072 
L 183.670413 163.183027 
L 181.095211 164.85263 
L 178.525909 166.545833 
L 175.962507 168.259684 
L 173.402054 170.000084 
L 170.850451 171.761132 
L 168.301798 173.54283 
L 165.759045 175.351075 
L 163.222191 177.17997 
L 160.691237 179.032463 
L 158.166182 180.905605 
L 155.644078 182.802346 
L 153.130823 184.722685 
L 150.620517 186.666623 
L 148.116112 188.63121 
L 145.617606 190.619395 
L 143.122049 192.63118 
L 140.635343 194.663612 
L 138.151586 196.719644 
L 135.673729 198.799274 
L 133.201771 200.899553 
L 130.735713 203.02638 
L 128.275555 205.170907 
L 125.818347 207.341982 
L 123.369988 209.533705 
L 120.924579 211.749028 
L 118.485069 213.987949 
L 116.05146 216.247519 
L 113.6208 218.530687 
L 111.198989 220.837454 
L 108.780129 223.16782 
L 106.367168 225.518834 
L 103.960106 227.893447 
L 101.558945 230.288709 
L 99.163683 232.70757 
L 96.771371 235.150029 
L 94.387908 237.616087 
L 92.007395 240.105744 
L 89.632782 242.616049 
L 87.264069 245.147003 
L 84.898305 247.704506 
L 82.541391 250.282657 
" style="fill:none;stroke:#fea952;stroke-linecap:square;"/>
   </g>
   <g id="line2d_12">
    <path clip-path="url(#p920e0f386a)" d="M 397.859129 114.586296 
L 394.960584 114.508753 
L 392.068473 114.454086 
L 389.167745 114.422244 
L 386.288007 114.410444 
L 383.411537 114.421496 
L 380.541314 114.45539 
L 377.665549 114.512441 
L 374.807345 114.589156 
L 371.941413 114.689165 
L 369.107202 114.808075 
L 366.253103 114.953919 
L 363.405136 115.119797 
L 360.586934 115.303959 
L 357.750236 115.515696 
L 354.930442 115.746232 
L 352.105733 116.000899 
L 349.297012 116.274239 
L 346.494331 116.570352 
L 343.69767 116.889237 
L 340.895234 117.232426 
L 338.108941 117.594217 
L 335.327191 117.978575 
L 332.539667 118.387511 
L 329.769803 118.814542 
L 327.005842 119.264336 
L 324.236117 119.738984 
L 321.493357 120.229675 
L 318.720782 120.75234 
L 315.991167 121.284671 
L 313.242476 121.848413 
L 310.507994 122.429692 
L 307.781405 123.03262 
L 305.046863 123.662255 
L 302.331957 124.3078 
L 299.6201 124.977517 
L 296.91378 125.669335 
L 294.201928 126.38701 
L 291.503833 127.12245 
L 288.803595 127.882154 
L 286.127657 128.657158 
L 283.43552 129.463602 
L 280.749068 130.290085 
L 278.089993 131.129551 
L 275.411152 132.003088 
L 272.752935 132.890589 
L 270.085159 133.807238 
L 267.434314 134.738876 
L 264.788936 135.693402 
L 262.149008 136.670826 
L 259.50415 137.675189 
L 256.871059 138.697189 
L 254.244443 139.74056 
L 251.617301 140.809337 
L 249.000264 141.897474 
L 246.385519 143.00871 
L 243.771942 144.143553 
L 241.167848 145.298002 
L 238.575007 146.471432 
L 235.981427 147.672047 
L 233.385146 148.898211 
L 230.803782 150.139927 
L 228.223 151.407053 
L 225.644627 152.697295 
L 223.074361 154.007815 
L 220.511121 155.339026 
L 217.953113 156.693354 
L 215.391414 158.075712 
L 212.843941 159.473408 
L 210.287974 160.902052 
L 207.756657 162.338242 
L 205.209734 163.812637 
L 202.686635 165.295193 
L 200.157158 166.809086 
L 197.631813 168.345136 
L 195.109687 169.90463 
L 192.603917 171.477458 
L 190.08934 173.083598 
L 187.587997 174.704924 
L 185.084013 176.354769 
L 182.595538 178.018109 
L 180.104327 179.711082 
L 177.610906 181.431717 
L 175.13995 183.158631 
L 172.659306 184.922405 
L 170.191218 186.701347 
L 167.721134 188.508986 
L 165.258121 190.335788 
L 162.807899 192.178039 
L 160.355156 194.051831 
L 157.903145 195.950334 
L 155.463135 197.864042 
L 153.02296 199.805509 
L 150.589103 201.767211 
L 148.159313 203.752827 
L 145.73703 205.757619 
L 143.313671 207.791228 
L 140.907917 209.834835 
L 138.488996 211.920792 
L 136.088207 214.013215 
L 133.68824 216.133383 
L 131.291831 218.278324 
L 128.902904 220.442144 
L 126.513528 222.634787 
L 124.129828 224.847746 
L 121.758781 227.074527 
L 119.385481 229.334825 
L 117.014322 231.618974 
L 114.653738 233.918638 
L 112.293217 236.247083 
L 109.943122 238.59109 
L 107.593148 240.963966 
L 105.255621 243.350118 
L 102.916127 245.770438 
L 100.579229 248.214235 
L 98.24771 250.678738 
L 95.925818 253.159371 
L 93.606968 255.665858 
L 91.250054 258.24401 
" style="fill:none;stroke:#ffffff;stroke-linecap:square;"/>
   </g>
   <g id="line2d_13">
    <path clip-path="url(#p920e0f386a)" d="M 398.487273 90.996018 
L 395.403563 90.914271 
L 392.325218 90.856843 
L 389.26139 90.82379 
L 386.19427 90.81199 
L 383.129782 90.824538 
L 380.070847 90.86144 
L 377.029253 90.922381 
L 373.981898 91.004957 
L 370.948169 91.111436 
L 367.900419 91.240312 
L 364.878458 91.39535 
L 361.862163 91.571653 
L 358.827902 91.770969 
L 355.823936 91.995807 
L 352.808966 92.243144 
L 349.81661 92.513546 
L 346.814166 92.806574 
L 343.817482 93.124025 
L 340.826577 93.465902 
L 337.853245 93.830672 
L 334.87557 94.218137 
L 331.899252 94.630234 
L 328.940507 95.06495 
L 325.975902 95.522867 
L 323.017192 96.00522 
L 320.076046 96.509915 
L 317.119735 97.039866 
L 314.199138 97.590938 
L 311.247381 98.167744 
L 308.332398 98.766235 
L 305.409106 99.388486 
L 302.48382 100.036286 
L 299.584187 100.704577 
L 296.670818 101.398254 
L 293.772098 102.114957 
L 290.873741 102.856757 
L 287.992715 103.619896 
L 285.109732 104.406568 
L 282.234792 105.216174 
L 279.35325 106.051778 
L 276.493806 106.909037 
L 273.640478 107.787557 
L 270.771571 108.694389 
L 267.93423 109.620249 
L 265.082165 110.573441 
L 262.257357 111.544684 
L 259.421518 112.542235 
L 256.592012 113.564095 
L 253.768855 114.610254 
L 250.962427 115.676672 
L 248.156032 116.766751 
L 245.349061 117.882655 
L 242.554415 119.020351 
L 239.767364 120.179984 
L 236.983919 121.363716 
L 234.205207 122.571038 
L 231.434711 123.800052 
L 228.658862 125.057281 
L 225.90145 126.334524 
L 223.152639 127.633414 
L 220.40071 128.95805 
L 217.659999 130.304474 
L 214.922778 131.674979 
L 212.19515 133.066502 
L 209.466395 134.484533 
L 206.744207 135.926644 
L 204.037509 137.387922 
L 201.328385 138.87516 
L 198.639555 140.378647 
L 195.931974 141.915885 
L 193.251798 143.468016 
L 190.565497 145.047383 
L 187.891474 146.648511 
L 185.219218 148.274678 
L 182.561443 149.9187 
L 179.899111 151.590686 
L 177.251485 153.282455 
L 174.602425 155.000337 
L 171.967806 156.736897 
L 169.329476 158.501259 
L 166.699782 160.289085 
L 164.089997 162.090548 
L 161.463647 163.927028 
L 158.858784 165.779746 
L 156.253165 167.658593 
L 153.661339 169.55594 
L 151.074244 171.475422 
L 148.480256 173.426653 
L 145.90649 175.393539 
L 143.337889 177.382913 
L 140.769088 179.398378 
L 138.212252 181.433282 
L 135.654996 183.495148 
L 133.111373 185.574397 
L 130.566142 187.681669 
L 128.033787 189.80732 
L 125.495625 191.964271 
L 122.982431 194.131968 
L 120.462903 196.328598 
L 117.948454 198.55058 
L 115.448144 200.789087 
L 112.946253 203.055911 
L 110.456611 205.341111 
L 107.973091 207.647291 
L 105.482818 209.986847 
L 103.012498 212.340083 
L 100.545935 214.716665 
L 98.080597 217.119031 
L 95.626996 219.539812 
L 93.174767 221.986329 
L 90.734218 224.451174 
L 88.287121 226.949941 
L 85.85969 229.461736 
L 83.435562 231.997253 
L 81.017854 234.553359 
L 78.602319 237.134635 
L 76.189641 239.743153 
L 73.832727 242.321305 
" style="fill:none;stroke:#ffffff;stroke-linecap:square;"/>
   </g>
   <g id="patch_3">
    <path d="M 57.6 307.584 
L 57.6 41.472 
" style="fill:none;stroke:#000000;stroke-linecap:square;stroke-linejoin:miter;stroke-width:0.8;"/>
   </g>
   <g id="patch_4">
    <path d="M 414.72 307.584 
L 414.72 41.472 
" style="fill:none;stroke:#000000;stroke-linecap:square;stroke-linejoin:miter;stroke-width:0.8;"/>
   </g>
   <g id="patch_5">
    <path d="M 57.6 307.584 
L 414.72 307.584 
" style="fill:none;stroke:#000000;stroke-linecap:square;stroke-linejoin:miter;stroke-width:0.8;"/>
   </g>
   <g id="patch_6">
    <path d="M 57.6 41.472 
L 414.72 41.472 
" style="fill:none;stroke:#000000;stroke-linecap:square;stroke-linejoin:miter;stroke-width:0.8;"/>
   </g>
  </g>
 </g>
 <defs>
  <clipPath id="p920e0f386a">
   <rect height="266.112" width="357.12" x="57.6" y="41.472"/>
  </clipPath>
 </defs>
</svg>
