<?xml version="1.0" encoding="utf-8" standalone="no"?>
<!DOCTYPE svg PUBLIC "-//W3C//DTD SVG 1.1//EN"
  "http://www.w3.org/Graphics/SVG/1.1/DTD/svg11.dtd">
<!-- Created with matplotlib (https://matplotlib.org/) -->
<svg height="345.6pt" version="1.1" viewBox="0 0 460.8 345.6" width="460.8pt" xmlns="http://www.w3.org/2000/svg" xmlns:xlink="http://www.w3.org/1999/xlink">
 <metadata>
  <rdf:RDF xmlns:cc="http://creativecommons.org/ns#" xmlns:dc="http://purl.org/dc/elements/1.1/" xmlns:rdf="http://www.w3.org/1999/02/22-rdf-syntax-ns#">
   <cc:Work>
    <dc:type rdf:resource="http://purl.org/dc/dcmitype/StillImage"/>
    <dc:date>2021-07-12T19:37:14.460885</dc:date>
    <dc:format>image/svg+xml</dc:format>
    <dc:creator>
     <cc:Agent>
      <dc:title>Matplotlib v3.3.3, https://matplotlib.org/</dc:title>
     </cc:Agent>
    </dc:creator>
   </cc:Work>
  </rdf:RDF>
 </metadata>
 <defs>
  <style type="text/css">*{stroke-linecap:butt;stroke-linejoin:round;}</style>
 </defs>
 <g id="figure_1">
  <g id="patch_1">
   <path d="M 0 345.6 
L 460.8 345.6 
L 460.8 0 
L 0 0 
z
" style="fill:#ffffff;"/>
  </g>
  <g id="axes_1">
   <g id="patch_2">
    <path d="M 57.6 307.584 
L 414.72 307.584 
L 414.72 41.472 
L 57.6 41.472 
z
" style="fill:#7d9051;"/>
   </g>
   <g id="matplotlib.axis_1">
    <g id="xtick_1">
     <g id="line2d_1">
      <defs>
       <path d="M 0 0 
L 0 3.5 
" id="m5da849b66b" style="stroke:#000000;stroke-width:0.8;"/>
      </defs>
      <g>
       <use style="stroke:#000000;stroke-width:0.8;" x="90.816081" xlink:href="#m5da849b66b" y="307.584"/>
      </g>
     </g>
     <g id="text_1">
      <!-- 120 -->
      <g transform="translate(81.272331 322.182437)scale(0.1 -0.1)">
       <defs>
        <path d="M 12.40625 8.296875 
L 28.515625 8.296875 
L 28.515625 63.921875 
L 10.984375 60.40625 
L 10.984375 69.390625 
L 28.421875 72.90625 
L 38.28125 72.90625 
L 38.28125 8.296875 
L 54.390625 8.296875 
L 54.390625 0 
L 12.40625 0 
z
" id="DejaVuSans-49"/>
        <path d="M 19.1875 8.296875 
L 53.609375 8.296875 
L 53.609375 0 
L 7.328125 0 
L 7.328125 8.296875 
Q 12.9375 14.109375 22.625 23.890625 
Q 32.328125 33.6875 34.8125 36.53125 
Q 39.546875 41.84375 41.421875 45.53125 
Q 43.3125 49.21875 43.3125 52.78125 
Q 43.3125 58.59375 39.234375 62.25 
Q 35.15625 65.921875 28.609375 65.921875 
Q 23.96875 65.921875 18.8125 64.3125 
Q 13.671875 62.703125 7.8125 59.421875 
L 7.8125 69.390625 
Q 13.765625 71.78125 18.9375 73 
Q 24.125 74.21875 28.421875 74.21875 
Q 39.75 74.21875 46.484375 68.546875 
Q 53.21875 62.890625 53.21875 53.421875 
Q 53.21875 48.921875 51.53125 44.890625 
Q 49.859375 40.875 45.40625 35.40625 
Q 44.1875 33.984375 37.640625 27.21875 
Q 31.109375 20.453125 19.1875 8.296875 
z
" id="DejaVuSans-50"/>
        <path d="M 31.78125 66.40625 
Q 24.171875 66.40625 20.328125 58.90625 
Q 16.5 51.421875 16.5 36.375 
Q 16.5 21.390625 20.328125 13.890625 
Q 24.171875 6.390625 31.78125 6.390625 
Q 39.453125 6.390625 43.28125 13.890625 
Q 47.125 21.390625 47.125 36.375 
Q 47.125 51.421875 43.28125 58.90625 
Q 39.453125 66.40625 31.78125 66.40625 
z
M 31.78125 74.21875 
Q 44.046875 74.21875 50.515625 64.515625 
Q 56.984375 54.828125 56.984375 36.375 
Q 56.984375 17.96875 50.515625 8.265625 
Q 44.046875 -1.421875 31.78125 -1.421875 
Q 19.53125 -1.421875 13.0625 8.265625 
Q 6.59375 17.96875 6.59375 36.375 
Q 6.59375 54.828125 13.0625 64.515625 
Q 19.53125 74.21875 31.78125 74.21875 
z
" id="DejaVuSans-48"/>
       </defs>
       <use xlink:href="#DejaVuSans-49"/>
       <use x="63.623047" xlink:href="#DejaVuSans-50"/>
       <use x="127.246094" xlink:href="#DejaVuSans-48"/>
      </g>
     </g>
    </g>
    <g id="xtick_2">
     <g id="line2d_2">
      <g>
       <use style="stroke:#000000;stroke-width:0.8;" x="137.432928" xlink:href="#m5da849b66b" y="307.584"/>
      </g>
     </g>
     <g id="text_2">
      <!-- 130 -->
      <g transform="translate(127.889178 322.182437)scale(0.1 -0.1)">
       <defs>
        <path d="M 40.578125 39.3125 
Q 47.65625 37.796875 51.625 33 
Q 55.609375 28.21875 55.609375 21.1875 
Q 55.609375 10.40625 48.1875 4.484375 
Q 40.765625 -1.421875 27.09375 -1.421875 
Q 22.515625 -1.421875 17.65625 -0.515625 
Q 12.796875 0.390625 7.625 2.203125 
L 7.625 11.71875 
Q 11.71875 9.328125 16.59375 8.109375 
Q 21.484375 6.890625 26.8125 6.890625 
Q 36.078125 6.890625 40.9375 10.546875 
Q 45.796875 14.203125 45.796875 21.1875 
Q 45.796875 27.640625 41.28125 31.265625 
Q 36.765625 34.90625 28.71875 34.90625 
L 20.21875 34.90625 
L 20.21875 43.015625 
L 29.109375 43.015625 
Q 36.375 43.015625 40.234375 45.921875 
Q 44.09375 48.828125 44.09375 54.296875 
Q 44.09375 59.90625 40.109375 62.90625 
Q 36.140625 65.921875 28.71875 65.921875 
Q 24.65625 65.921875 20.015625 65.03125 
Q 15.375 64.15625 9.8125 62.3125 
L 9.8125 71.09375 
Q 15.4375 72.65625 20.34375 73.4375 
Q 25.25 74.21875 29.59375 74.21875 
Q 40.828125 74.21875 47.359375 69.109375 
Q 53.90625 64.015625 53.90625 55.328125 
Q 53.90625 49.265625 50.4375 45.09375 
Q 46.96875 40.921875 40.578125 39.3125 
z
" id="DejaVuSans-51"/>
       </defs>
       <use xlink:href="#DejaVuSans-49"/>
       <use x="63.623047" xlink:href="#DejaVuSans-51"/>
       <use x="127.246094" xlink:href="#DejaVuSans-48"/>
      </g>
     </g>
    </g>
    <g id="xtick_3">
     <g id="line2d_3">
      <g>
       <use style="stroke:#000000;stroke-width:0.8;" x="184.049775" xlink:href="#m5da849b66b" y="307.584"/>
      </g>
     </g>
     <g id="text_3">
      <!-- 140 -->
      <g transform="translate(174.506025 322.182437)scale(0.1 -0.1)">
       <defs>
        <path d="M 37.796875 64.3125 
L 12.890625 25.390625 
L 37.796875 25.390625 
z
M 35.203125 72.90625 
L 47.609375 72.90625 
L 47.609375 25.390625 
L 58.015625 25.390625 
L 58.015625 17.1875 
L 47.609375 17.1875 
L 47.609375 0 
L 37.796875 0 
L 37.796875 17.1875 
L 4.890625 17.1875 
L 4.890625 26.703125 
z
" id="DejaVuSans-52"/>
       </defs>
       <use xlink:href="#DejaVuSans-49"/>
       <use x="63.623047" xlink:href="#DejaVuSans-52"/>
       <use x="127.246094" xlink:href="#DejaVuSans-48"/>
      </g>
     </g>
    </g>
    <g id="xtick_4">
     <g id="line2d_4">
      <g>
       <use style="stroke:#000000;stroke-width:0.8;" x="230.666622" xlink:href="#m5da849b66b" y="307.584"/>
      </g>
     </g>
     <g id="text_4">
      <!-- 150 -->
      <g transform="translate(221.122872 322.182437)scale(0.1 -0.1)">
       <defs>
        <path d="M 10.796875 72.90625 
L 49.515625 72.90625 
L 49.515625 64.59375 
L 19.828125 64.59375 
L 19.828125 46.734375 
Q 21.96875 47.46875 24.109375 47.828125 
Q 26.265625 48.1875 28.421875 48.1875 
Q 40.625 48.1875 47.75 41.5 
Q 54.890625 34.8125 54.890625 23.390625 
Q 54.890625 11.625 47.5625 5.09375 
Q 40.234375 -1.421875 26.90625 -1.421875 
Q 22.3125 -1.421875 17.546875 -0.640625 
Q 12.796875 0.140625 7.71875 1.703125 
L 7.71875 11.625 
Q 12.109375 9.234375 16.796875 8.0625 
Q 21.484375 6.890625 26.703125 6.890625 
Q 35.15625 6.890625 40.078125 11.328125 
Q 45.015625 15.765625 45.015625 23.390625 
Q 45.015625 31 40.078125 35.4375 
Q 35.15625 39.890625 26.703125 39.890625 
Q 22.75 39.890625 18.8125 39.015625 
Q 14.890625 38.140625 10.796875 36.28125 
z
" id="DejaVuSans-53"/>
       </defs>
       <use xlink:href="#DejaVuSans-49"/>
       <use x="63.623047" xlink:href="#DejaVuSans-53"/>
       <use x="127.246094" xlink:href="#DejaVuSans-48"/>
      </g>
     </g>
    </g>
    <g id="xtick_5">
     <g id="line2d_5">
      <g>
       <use style="stroke:#000000;stroke-width:0.8;" x="277.28347" xlink:href="#m5da849b66b" y="307.584"/>
      </g>
     </g>
     <g id="text_5">
      <!-- 160 -->
      <g transform="translate(267.73972 322.182437)scale(0.1 -0.1)">
       <defs>
        <path d="M 33.015625 40.375 
Q 26.375 40.375 22.484375 35.828125 
Q 18.609375 31.296875 18.609375 23.390625 
Q 18.609375 15.53125 22.484375 10.953125 
Q 26.375 6.390625 33.015625 6.390625 
Q 39.65625 6.390625 43.53125 10.953125 
Q 47.40625 15.53125 47.40625 23.390625 
Q 47.40625 31.296875 43.53125 35.828125 
Q 39.65625 40.375 33.015625 40.375 
z
M 52.59375 71.296875 
L 52.59375 62.3125 
Q 48.875 64.0625 45.09375 64.984375 
Q 41.3125 65.921875 37.59375 65.921875 
Q 27.828125 65.921875 22.671875 59.328125 
Q 17.53125 52.734375 16.796875 39.40625 
Q 19.671875 43.65625 24.015625 45.921875 
Q 28.375 48.1875 33.59375 48.1875 
Q 44.578125 48.1875 50.953125 41.515625 
Q 57.328125 34.859375 57.328125 23.390625 
Q 57.328125 12.15625 50.6875 5.359375 
Q 44.046875 -1.421875 33.015625 -1.421875 
Q 20.359375 -1.421875 13.671875 8.265625 
Q 6.984375 17.96875 6.984375 36.375 
Q 6.984375 53.65625 15.1875 63.9375 
Q 23.390625 74.21875 37.203125 74.21875 
Q 40.921875 74.21875 44.703125 73.484375 
Q 48.484375 72.75 52.59375 71.296875 
z
" id="DejaVuSans-54"/>
       </defs>
       <use xlink:href="#DejaVuSans-49"/>
       <use x="63.623047" xlink:href="#DejaVuSans-54"/>
       <use x="127.246094" xlink:href="#DejaVuSans-48"/>
      </g>
     </g>
    </g>
    <g id="xtick_6">
     <g id="line2d_6">
      <g>
       <use style="stroke:#000000;stroke-width:0.8;" x="323.900317" xlink:href="#m5da849b66b" y="307.584"/>
      </g>
     </g>
     <g id="text_6">
      <!-- 170 -->
      <g transform="translate(314.356567 322.182437)scale(0.1 -0.1)">
       <defs>
        <path d="M 8.203125 72.90625 
L 55.078125 72.90625 
L 55.078125 68.703125 
L 28.609375 0 
L 18.3125 0 
L 43.21875 64.59375 
L 8.203125 64.59375 
z
" id="DejaVuSans-55"/>
       </defs>
       <use xlink:href="#DejaVuSans-49"/>
       <use x="63.623047" xlink:href="#DejaVuSans-55"/>
       <use x="127.246094" xlink:href="#DejaVuSans-48"/>
      </g>
     </g>
    </g>
    <g id="xtick_7">
     <g id="line2d_7">
      <g>
       <use style="stroke:#000000;stroke-width:0.8;" x="370.517164" xlink:href="#m5da849b66b" y="307.584"/>
      </g>
     </g>
     <g id="text_7">
      <!-- 180 -->
      <g transform="translate(360.973414 322.182437)scale(0.1 -0.1)">
       <defs>
        <path d="M 31.78125 34.625 
Q 24.75 34.625 20.71875 30.859375 
Q 16.703125 27.09375 16.703125 20.515625 
Q 16.703125 13.921875 20.71875 10.15625 
Q 24.75 6.390625 31.78125 6.390625 
Q 38.8125 6.390625 42.859375 10.171875 
Q 46.921875 13.96875 46.921875 20.515625 
Q 46.921875 27.09375 42.890625 30.859375 
Q 38.875 34.625 31.78125 34.625 
z
M 21.921875 38.8125 
Q 15.578125 40.375 12.03125 44.71875 
Q 8.5 49.078125 8.5 55.328125 
Q 8.5 64.0625 14.71875 69.140625 
Q 20.953125 74.21875 31.78125 74.21875 
Q 42.671875 74.21875 48.875 69.140625 
Q 55.078125 64.0625 55.078125 55.328125 
Q 55.078125 49.078125 51.53125 44.71875 
Q 48 40.375 41.703125 38.8125 
Q 48.828125 37.15625 52.796875 32.3125 
Q 56.78125 27.484375 56.78125 20.515625 
Q 56.78125 9.90625 50.3125 4.234375 
Q 43.84375 -1.421875 31.78125 -1.421875 
Q 19.734375 -1.421875 13.25 4.234375 
Q 6.78125 9.90625 6.78125 20.515625 
Q 6.78125 27.484375 10.78125 32.3125 
Q 14.796875 37.15625 21.921875 38.8125 
z
M 18.3125 54.390625 
Q 18.3125 48.734375 21.84375 45.5625 
Q 25.390625 42.390625 31.78125 42.390625 
Q 38.140625 42.390625 41.71875 45.5625 
Q 45.3125 48.734375 45.3125 54.390625 
Q 45.3125 60.0625 41.71875 63.234375 
Q 38.140625 66.40625 31.78125 66.40625 
Q 25.390625 66.40625 21.84375 63.234375 
Q 18.3125 60.0625 18.3125 54.390625 
z
" id="DejaVuSans-56"/>
       </defs>
       <use xlink:href="#DejaVuSans-49"/>
       <use x="63.623047" xlink:href="#DejaVuSans-56"/>
       <use x="127.246094" xlink:href="#DejaVuSans-48"/>
      </g>
     </g>
    </g>
   </g>
   <g id="matplotlib.axis_2">
    <g id="ytick_1">
     <g id="line2d_8">
      <defs>
       <path d="M 0 0 
L -3.5 0 
" id="m356a18a185" style="stroke:#000000;stroke-width:0.8;"/>
      </defs>
      <g>
       <use style="stroke:#000000;stroke-width:0.8;" x="57.6" xlink:href="#m356a18a185" y="261.386578"/>
      </g>
     </g>
     <g id="text_8">
      <!-- 20 -->
      <g transform="translate(37.875 265.185797)scale(0.1 -0.1)">
       <use xlink:href="#DejaVuSans-50"/>
       <use x="63.623047" xlink:href="#DejaVuSans-48"/>
      </g>
     </g>
    </g>
    <g id="ytick_2">
     <g id="line2d_9">
      <g>
       <use style="stroke:#000000;stroke-width:0.8;" x="57.6" xlink:href="#m356a18a185" y="214.769731"/>
      </g>
     </g>
     <g id="text_9">
      <!-- 30 -->
      <g transform="translate(37.875 218.56895)scale(0.1 -0.1)">
       <use xlink:href="#DejaVuSans-51"/>
       <use x="63.623047" xlink:href="#DejaVuSans-48"/>
      </g>
     </g>
    </g>
    <g id="ytick_3">
     <g id="line2d_10">
      <g>
       <use style="stroke:#000000;stroke-width:0.8;" x="57.6" xlink:href="#m356a18a185" y="168.152884"/>
      </g>
     </g>
     <g id="text_10">
      <!-- 40 -->
      <g transform="translate(37.875 171.952103)scale(0.1 -0.1)">
       <use xlink:href="#DejaVuSans-52"/>
       <use x="63.623047" xlink:href="#DejaVuSans-48"/>
      </g>
     </g>
    </g>
    <g id="ytick_4">
     <g id="line2d_11">
      <g>
       <use style="stroke:#000000;stroke-width:0.8;" x="57.6" xlink:href="#m356a18a185" y="121.536036"/>
      </g>
     </g>
     <g id="text_11">
      <!-- 50 -->
      <g transform="translate(37.875 125.335255)scale(0.1 -0.1)">
       <use xlink:href="#DejaVuSans-53"/>
       <use x="63.623047" xlink:href="#DejaVuSans-48"/>
      </g>
     </g>
    </g>
    <g id="ytick_5">
     <g id="line2d_12">
      <g>
       <use style="stroke:#000000;stroke-width:0.8;" x="57.6" xlink:href="#m356a18a185" y="74.919189"/>
      </g>
     </g>
     <g id="text_12">
      <!-- 60 -->
      <g transform="translate(37.875 78.718408)scale(0.1 -0.1)">
       <use xlink:href="#DejaVuSans-54"/>
       <use x="63.623047" xlink:href="#DejaVuSans-48"/>
      </g>
     </g>
    </g>
   </g>
   <g id="line2d_13">
    <path clip-path="url(#pfdd7a34e4f)" d="M 76.831026 116.874352 
L 84.69995 115.592388 
L 92.466317 114.389674 
L 100.130127 113.270869 
L 107.691379 112.240637 
L 115.145413 111.289653 
L 122.49689 110.417918 
L 129.74581 109.634755 
L 136.892172 108.935503 
L 143.931316 108.315499 
L 150.867903 107.779405 
L 157.706595 107.327221 
L 164.433406 106.958948 
L 171.062321 106.674586 
L 177.58868 106.469471 
L 184.00782 106.352929 
L 190.324403 106.315636 
L 196.538429 106.362253 
L 202.645236 106.49278 
L 208.654147 106.707217 
L 214.55584 107.005565 
L 220.354976 107.383162 
L 226.051555 107.844668 
L 231.640915 108.390086 
L 237.127717 109.019413 
L 242.516625 109.732651 
L 247.793652 110.529799 
L 252.972784 111.406196 
L 258.049359 112.371164 
L 263.018714 113.415382 
L 267.885513 114.543509 
L 272.649755 115.755547 
L 277.306778 117.051496 
L 281.865906 118.426693 
L 286.317815 119.890462 
L 290.667167 121.433479 
L 294.913961 123.060407 
L 299.053537 124.771246 
L 303.095218 126.565994 
L 307.02968 128.439992 
L 310.861585 130.402561 
L 314.590933 132.444379 
L 318.213062 134.570107 
L 321.732634 136.779746 
L 325.15431 139.073294 
L 328.464106 141.446092 
L 331.676007 143.907462 
L 334.785351 146.44808 
L 337.787476 149.072608 
L 340.687044 151.781047 
L 343.484055 154.573396 
L 346.173847 157.449656 
L 348.765743 160.405164 
L 351.250421 163.449244 
L 353.632542 166.572573 
L 355.912106 169.779812 
L 358.084451 173.070961 
L 360.158901 176.446021 
L 362.126132 179.900329 
L 363.990806 183.44321 
L 365.748261 187.065339 
L 367.407821 190.771378 
L 368.960162 194.561328 
L 370.409946 198.435188 
L 371.757172 202.388296 
L 373.001842 206.429977 
L 374.139293 210.550906 
L 375.174187 214.755746 
L 376.106524 219.044496 
L 376.936304 223.417156 
L 377.663527 227.873727 
L 378.283531 232.409546 
L 378.800978 237.033937 
L 379.215868 241.737577 
L 379.528201 246.525127 
L 379.737977 251.396588 
L 379.840534 256.347297 
L 379.840534 261.386578 
" style="fill:none;stroke:#fea952;stroke-linecap:square;"/>
   </g>
   <g id="line2d_14">
    <path clip-path="url(#pfdd7a34e4f)" d="M 73.832727 98.470247 
L 81.846296 97.165302 
L 89.772717 95.938512 
L 97.612739 94.794841 
L 105.331561 93.743823 
L 112.949674 92.772645 
L 120.493978 91.879061 
L 127.929947 91.076643 
L 135.256112 90.360676 
L 142.494489 89.7242 
L 149.637642 89.173295 
L 156.687267 88.708364 
L 163.634245 88.329342 
L 170.47657 88.037049 
L 177.250197 87.825805 
L 183.89773 87.706515 
L 190.464284 87.669422 
L 196.936894 87.719772 
L 203.310251 87.857903 
L 209.595592 88.08426 
L 215.767411 88.398229 
L 221.860703 88.797316 
L 227.862526 89.286079 
L 233.765734 89.864805 
L 239.574332 90.533879 
L 245.301804 91.29509 
L 250.904768 92.144429 
L 256.454857 93.087461 
L 261.88388 94.12295 
L 267.229399 95.250278 
L 272.482862 96.472393 
L 277.648787 97.791401 
L 282.691668 99.199218 
L 287.690134 100.712878 
L 292.552389 102.316875 
L 297.337895 104.020776 
L 302.036147 105.827435 
L 306.621224 107.729209 
L 311.113626 109.731327 
L 315.529888 111.843386 
L 319.816388 114.046756 
L 324.028919 116.362548 
L 328.127757 118.777713 
L 332.114909 121.290742 
L 336.018739 123.91859 
L 339.806213 126.645501 
L 343.474393 129.467969 
L 347.05814 132.409578 
L 350.515949 135.445912 
L 353.861278 138.584819 
L 357.103366 141.837022 
L 360.193241 145.155045 
L 363.211312 148.614217 
L 366.077039 152.141182 
L 368.831351 155.769931 
L 371.474444 159.507787 
L 373.970373 163.306824 
L 376.362243 167.218206 
L 378.626971 171.215677 
L 380.767092 175.303364 
L 382.766614 179.444542 
L 384.663209 183.703673 
L 386.423962 188.025537 
L 388.059852 192.420066 
L 389.578 196.900221 
L 390.976442 201.468662 
L 392.245698 206.094563 
L 393.39534 210.794626 
L 394.426324 215.568031 
L 395.339634 220.414102 
L 396.138469 225.348375 
L 396.814621 230.336007 
L 397.375599 235.395542 
L 397.823052 240.523671 
L 398.157675 245.722901 
L 398.380716 251.010392 
L 398.487273 256.347297 
L 398.487273 261.386578 
" style="fill:none;stroke:#ffffff;stroke-linecap:square;"/>
   </g>
   <g id="line2d_15">
    <path clip-path="url(#pfdd7a34e4f)" d="M 79.829325 135.278457 
L 87.553605 134.019475 
L 95.159917 132.840836 
L 102.647514 131.746898 
L 110.051198 130.737451 
L 117.341152 129.806662 
L 124.499802 128.956775 
L 131.561672 128.192867 
L 138.528233 127.510329 
L 145.368144 126.906798 
L 152.098164 126.385515 
L 158.725922 125.946079 
L 165.232566 125.588554 
L 171.648073 125.312122 
L 177.927164 125.113138 
L 184.11791 124.999343 
L 190.184521 124.96185 
L 196.139963 125.004734 
L 201.980221 125.127657 
L 207.712702 125.330175 
L 213.344269 125.612902 
L 218.849249 125.969007 
L 224.240583 126.403258 
L 229.516095 126.915366 
L 234.681103 127.504946 
L 239.731446 128.170212 
L 244.682536 128.915169 
L 249.49071 129.72493 
L 254.214837 130.619378 
L 258.808029 131.580486 
L 263.288165 132.614626 
L 267.650723 133.719694 
L 271.921889 134.903774 
L 276.041678 136.140508 
L 280.083241 137.464049 
L 283.996438 138.846183 
L 287.791776 140.29338 
L 291.485851 141.813282 
L 295.07681 143.400661 
L 298.529472 145.036598 
L 301.906781 146.758366 
L 305.152947 148.52621 
L 308.298367 150.362501 
L 311.350359 152.268749 
L 314.289881 154.227999 
L 317.121999 156.246682 
L 319.877621 158.346954 
L 322.512562 160.486581 
L 325.059003 162.699304 
L 327.51281 164.977275 
L 329.864743 167.30977 
L 332.154452 169.744266 
L 334.320175 172.19611 
L 336.423803 174.757306 
L 338.433733 177.375215 
L 340.349768 180.051837 
L 342.19853 182.835098 
L 343.955558 185.673835 
L 345.625293 188.584981 
L 347.214519 191.583055 
L 348.729908 194.686136 
L 350.152433 197.839083 
L 351.496361 201.097118 
L 352.760039 204.450309 
L 353.936345 207.876371 
L 355.027243 211.391292 
L 356.032889 215.00725 
L 356.953035 218.716866 
L 357.786725 222.520961 
L 358.532975 226.42021 
L 359.188585 230.399079 
L 359.752441 234.483085 
L 360.226357 238.672333 
L 360.608684 242.951483 
L 360.898727 247.327354 
L 361.095238 251.782784 
L 361.193795 256.347297 
L 361.193795 261.386578 
" style="fill:none;stroke:#ffffff;stroke-linecap:square;"/>
   </g>
   <g id="patch_3">
    <path d="M 57.6 307.584 
L 57.6 41.472 
" style="fill:none;stroke:#000000;stroke-linecap:square;stroke-linejoin:miter;stroke-width:0.8;"/>
   </g>
   <g id="patch_4">
    <path d="M 414.72 307.584 
L 414.72 41.472 
" style="fill:none;stroke:#000000;stroke-linecap:square;stroke-linejoin:miter;stroke-width:0.8;"/>
   </g>
   <g id="patch_5">
    <path d="M 57.6 307.584 
L 414.72 307.584 
" style="fill:none;stroke:#000000;stroke-linecap:square;stroke-linejoin:miter;stroke-width:0.8;"/>
   </g>
   <g id="patch_6">
    <path d="M 57.6 41.472 
L 414.72 41.472 
" style="fill:none;stroke:#000000;stroke-linecap:square;stroke-linejoin:miter;stroke-width:0.8;"/>
   </g>
  </g>
 </g>
 <defs>
  <clipPath id="pfdd7a34e4f">
   <rect height="266.112" width="357.12" x="57.6" y="41.472"/>
  </clipPath>
 </defs>
</svg>
