<?xml version="1.0" encoding="utf-8" standalone="no"?>
<!DOCTYPE svg PUBLIC "-//W3C//DTD SVG 1.1//EN"
  "http://www.w3.org/Graphics/SVG/1.1/DTD/svg11.dtd">
<!-- Created with matplotlib (https://matplotlib.org/) -->
<svg height="345.6pt" version="1.1" viewBox="0 0 460.8 345.6" width="460.8pt" xmlns="http://www.w3.org/2000/svg" xmlns:xlink="http://www.w3.org/1999/xlink">
 <metadata>
  <rdf:RDF xmlns:cc="http://creativecommons.org/ns#" xmlns:dc="http://purl.org/dc/elements/1.1/" xmlns:rdf="http://www.w3.org/1999/02/22-rdf-syntax-ns#">
   <cc:Work>
    <dc:type rdf:resource="http://purl.org/dc/dcmitype/StillImage"/>
    <dc:date>2021-07-06T17:54:12.917187</dc:date>
    <dc:format>image/svg+xml</dc:format>
    <dc:creator>
     <cc:Agent>
      <dc:title>Matplotlib v3.3.3, https://matplotlib.org/</dc:title>
     </cc:Agent>
    </dc:creator>
   </cc:Work>
  </rdf:RDF>
 </metadata>
 <defs>
  <style type="text/css">*{stroke-linecap:butt;stroke-linejoin:round;}</style>
 </defs>
 <g id="figure_1">
  <g id="patch_1">
   <path d="M 0 345.6 
L 460.8 345.6 
L 460.8 0 
L 0 0 
z
" style="fill:#ffffff;"/>
  </g>
  <g id="axes_1">
   <g id="patch_2">
    <path d="M 57.6 307.584 
L 414.72 307.584 
L 414.72 41.472 
L 57.6 41.472 
z
" style="fill:#7d9051;"/>
   </g>
   <g id="matplotlib.axis_1">
    <g id="xtick_1">
     <g id="line2d_1">
      <defs>
       <path d="M 0 0 
L 0 3.5 
" id="m16ef140317" style="stroke:#000000;stroke-width:0.8;"/>
      </defs>
      <g>
       <use style="stroke:#000000;stroke-width:0.8;" x="108.151679" xlink:href="#m16ef140317" y="307.584"/>
      </g>
     </g>
     <g id="text_1">
      <!-- 20 -->
      <g transform="translate(101.789179 322.182437)scale(0.1 -0.1)">
       <defs>
        <path d="M 19.1875 8.296875 
L 53.609375 8.296875 
L 53.609375 0 
L 7.328125 0 
L 7.328125 8.296875 
Q 12.9375 14.109375 22.625 23.890625 
Q 32.328125 33.6875 34.8125 36.53125 
Q 39.546875 41.84375 41.421875 45.53125 
Q 43.3125 49.21875 43.3125 52.78125 
Q 43.3125 58.59375 39.234375 62.25 
Q 35.15625 65.921875 28.609375 65.921875 
Q 23.96875 65.921875 18.8125 64.3125 
Q 13.671875 62.703125 7.8125 59.421875 
L 7.8125 69.390625 
Q 13.765625 71.78125 18.9375 73 
Q 24.125 74.21875 28.421875 74.21875 
Q 39.75 74.21875 46.484375 68.546875 
Q 53.21875 62.890625 53.21875 53.421875 
Q 53.21875 48.921875 51.53125 44.890625 
Q 49.859375 40.875 45.40625 35.40625 
Q 44.1875 33.984375 37.640625 27.21875 
Q 31.109375 20.453125 19.1875 8.296875 
z
" id="DejaVuSans-50"/>
        <path d="M 31.78125 66.40625 
Q 24.171875 66.40625 20.328125 58.90625 
Q 16.5 51.421875 16.5 36.375 
Q 16.5 21.390625 20.328125 13.890625 
Q 24.171875 6.390625 31.78125 6.390625 
Q 39.453125 6.390625 43.28125 13.890625 
Q 47.125 21.390625 47.125 36.375 
Q 47.125 51.421875 43.28125 58.90625 
Q 39.453125 66.40625 31.78125 66.40625 
z
M 31.78125 74.21875 
Q 44.046875 74.21875 50.515625 64.515625 
Q 56.984375 54.828125 56.984375 36.375 
Q 56.984375 17.96875 50.515625 8.265625 
Q 44.046875 -1.421875 31.78125 -1.421875 
Q 19.53125 -1.421875 13.0625 8.265625 
Q 6.59375 17.96875 6.59375 36.375 
Q 6.59375 54.828125 13.0625 64.515625 
Q 19.53125 74.21875 31.78125 74.21875 
z
" id="DejaVuSans-48"/>
       </defs>
       <use xlink:href="#DejaVuSans-50"/>
       <use x="63.623047" xlink:href="#DejaVuSans-48"/>
      </g>
     </g>
    </g>
    <g id="xtick_2">
     <g id="line2d_2">
      <g>
       <use style="stroke:#000000;stroke-width:0.8;" x="160.357117" xlink:href="#m16ef140317" y="307.584"/>
      </g>
     </g>
     <g id="text_2">
      <!-- 40 -->
      <g transform="translate(153.994617 322.182437)scale(0.1 -0.1)">
       <defs>
        <path d="M 37.796875 64.3125 
L 12.890625 25.390625 
L 37.796875 25.390625 
z
M 35.203125 72.90625 
L 47.609375 72.90625 
L 47.609375 25.390625 
L 58.015625 25.390625 
L 58.015625 17.1875 
L 47.609375 17.1875 
L 47.609375 0 
L 37.796875 0 
L 37.796875 17.1875 
L 4.890625 17.1875 
L 4.890625 26.703125 
z
" id="DejaVuSans-52"/>
       </defs>
       <use xlink:href="#DejaVuSans-52"/>
       <use x="63.623047" xlink:href="#DejaVuSans-48"/>
      </g>
     </g>
    </g>
    <g id="xtick_3">
     <g id="line2d_3">
      <g>
       <use style="stroke:#000000;stroke-width:0.8;" x="212.562554" xlink:href="#m16ef140317" y="307.584"/>
      </g>
     </g>
     <g id="text_3">
      <!-- 60 -->
      <g transform="translate(206.200054 322.182437)scale(0.1 -0.1)">
       <defs>
        <path d="M 33.015625 40.375 
Q 26.375 40.375 22.484375 35.828125 
Q 18.609375 31.296875 18.609375 23.390625 
Q 18.609375 15.53125 22.484375 10.953125 
Q 26.375 6.390625 33.015625 6.390625 
Q 39.65625 6.390625 43.53125 10.953125 
Q 47.40625 15.53125 47.40625 23.390625 
Q 47.40625 31.296875 43.53125 35.828125 
Q 39.65625 40.375 33.015625 40.375 
z
M 52.59375 71.296875 
L 52.59375 62.3125 
Q 48.875 64.0625 45.09375 64.984375 
Q 41.3125 65.921875 37.59375 65.921875 
Q 27.828125 65.921875 22.671875 59.328125 
Q 17.53125 52.734375 16.796875 39.40625 
Q 19.671875 43.65625 24.015625 45.921875 
Q 28.375 48.1875 33.59375 48.1875 
Q 44.578125 48.1875 50.953125 41.515625 
Q 57.328125 34.859375 57.328125 23.390625 
Q 57.328125 12.15625 50.6875 5.359375 
Q 44.046875 -1.421875 33.015625 -1.421875 
Q 20.359375 -1.421875 13.671875 8.265625 
Q 6.984375 17.96875 6.984375 36.375 
Q 6.984375 53.65625 15.1875 63.9375 
Q 23.390625 74.21875 37.203125 74.21875 
Q 40.921875 74.21875 44.703125 73.484375 
Q 48.484375 72.75 52.59375 71.296875 
z
" id="DejaVuSans-54"/>
       </defs>
       <use xlink:href="#DejaVuSans-54"/>
       <use x="63.623047" xlink:href="#DejaVuSans-48"/>
      </g>
     </g>
    </g>
    <g id="xtick_4">
     <g id="line2d_4">
      <g>
       <use style="stroke:#000000;stroke-width:0.8;" x="264.767992" xlink:href="#m16ef140317" y="307.584"/>
      </g>
     </g>
     <g id="text_4">
      <!-- 80 -->
      <g transform="translate(258.405492 322.182437)scale(0.1 -0.1)">
       <defs>
        <path d="M 31.78125 34.625 
Q 24.75 34.625 20.71875 30.859375 
Q 16.703125 27.09375 16.703125 20.515625 
Q 16.703125 13.921875 20.71875 10.15625 
Q 24.75 6.390625 31.78125 6.390625 
Q 38.8125 6.390625 42.859375 10.171875 
Q 46.921875 13.96875 46.921875 20.515625 
Q 46.921875 27.09375 42.890625 30.859375 
Q 38.875 34.625 31.78125 34.625 
z
M 21.921875 38.8125 
Q 15.578125 40.375 12.03125 44.71875 
Q 8.5 49.078125 8.5 55.328125 
Q 8.5 64.0625 14.71875 69.140625 
Q 20.953125 74.21875 31.78125 74.21875 
Q 42.671875 74.21875 48.875 69.140625 
Q 55.078125 64.0625 55.078125 55.328125 
Q 55.078125 49.078125 51.53125 44.71875 
Q 48 40.375 41.703125 38.8125 
Q 48.828125 37.15625 52.796875 32.3125 
Q 56.78125 27.484375 56.78125 20.515625 
Q 56.78125 9.90625 50.3125 4.234375 
Q 43.84375 -1.421875 31.78125 -1.421875 
Q 19.734375 -1.421875 13.25 4.234375 
Q 6.78125 9.90625 6.78125 20.515625 
Q 6.78125 27.484375 10.78125 32.3125 
Q 14.796875 37.15625 21.921875 38.8125 
z
M 18.3125 54.390625 
Q 18.3125 48.734375 21.84375 45.5625 
Q 25.390625 42.390625 31.78125 42.390625 
Q 38.140625 42.390625 41.71875 45.5625 
Q 45.3125 48.734375 45.3125 54.390625 
Q 45.3125 60.0625 41.71875 63.234375 
Q 38.140625 66.40625 31.78125 66.40625 
Q 25.390625 66.40625 21.84375 63.234375 
Q 18.3125 60.0625 18.3125 54.390625 
z
" id="DejaVuSans-56"/>
       </defs>
       <use xlink:href="#DejaVuSans-56"/>
       <use x="63.623047" xlink:href="#DejaVuSans-48"/>
      </g>
     </g>
    </g>
    <g id="xtick_5">
     <g id="line2d_5">
      <g>
       <use style="stroke:#000000;stroke-width:0.8;" x="316.973429" xlink:href="#m16ef140317" y="307.584"/>
      </g>
     </g>
     <g id="text_5">
      <!-- 100 -->
      <g transform="translate(307.429679 322.182437)scale(0.1 -0.1)">
       <defs>
        <path d="M 12.40625 8.296875 
L 28.515625 8.296875 
L 28.515625 63.921875 
L 10.984375 60.40625 
L 10.984375 69.390625 
L 28.421875 72.90625 
L 38.28125 72.90625 
L 38.28125 8.296875 
L 54.390625 8.296875 
L 54.390625 0 
L 12.40625 0 
z
" id="DejaVuSans-49"/>
       </defs>
       <use xlink:href="#DejaVuSans-49"/>
       <use x="63.623047" xlink:href="#DejaVuSans-48"/>
       <use x="127.246094" xlink:href="#DejaVuSans-48"/>
      </g>
     </g>
    </g>
    <g id="xtick_6">
     <g id="line2d_6">
      <g>
       <use style="stroke:#000000;stroke-width:0.8;" x="369.178867" xlink:href="#m16ef140317" y="307.584"/>
      </g>
     </g>
     <g id="text_6">
      <!-- 120 -->
      <g transform="translate(359.635117 322.182437)scale(0.1 -0.1)">
       <use xlink:href="#DejaVuSans-49"/>
       <use x="63.623047" xlink:href="#DejaVuSans-50"/>
       <use x="127.246094" xlink:href="#DejaVuSans-48"/>
      </g>
     </g>
    </g>
   </g>
   <g id="matplotlib.axis_2">
    <g id="ytick_1">
     <g id="line2d_7">
      <defs>
       <path d="M 0 0 
L -3.5 0 
" id="m03d8e971c3" style="stroke:#000000;stroke-width:0.8;"/>
      </defs>
      <g>
       <use style="stroke:#000000;stroke-width:0.8;" x="57.6" xlink:href="#m03d8e971c3" y="297.570603"/>
      </g>
     </g>
     <g id="text_7">
      <!-- 100 -->
      <g transform="translate(31.5125 301.369822)scale(0.1 -0.1)">
       <use xlink:href="#DejaVuSans-49"/>
       <use x="63.623047" xlink:href="#DejaVuSans-48"/>
       <use x="127.246094" xlink:href="#DejaVuSans-48"/>
      </g>
     </g>
    </g>
    <g id="ytick_2">
     <g id="line2d_8">
      <g>
       <use style="stroke:#000000;stroke-width:0.8;" x="57.6" xlink:href="#m03d8e971c3" y="245.365165"/>
      </g>
     </g>
     <g id="text_8">
      <!-- 120 -->
      <g transform="translate(31.5125 249.164384)scale(0.1 -0.1)">
       <use xlink:href="#DejaVuSans-49"/>
       <use x="63.623047" xlink:href="#DejaVuSans-50"/>
       <use x="127.246094" xlink:href="#DejaVuSans-48"/>
      </g>
     </g>
    </g>
    <g id="ytick_3">
     <g id="line2d_9">
      <g>
       <use style="stroke:#000000;stroke-width:0.8;" x="57.6" xlink:href="#m03d8e971c3" y="193.159728"/>
      </g>
     </g>
     <g id="text_9">
      <!-- 140 -->
      <g transform="translate(31.5125 196.958947)scale(0.1 -0.1)">
       <use xlink:href="#DejaVuSans-49"/>
       <use x="63.623047" xlink:href="#DejaVuSans-52"/>
       <use x="127.246094" xlink:href="#DejaVuSans-48"/>
      </g>
     </g>
    </g>
    <g id="ytick_4">
     <g id="line2d_10">
      <g>
       <use style="stroke:#000000;stroke-width:0.8;" x="57.6" xlink:href="#m03d8e971c3" y="140.95429"/>
      </g>
     </g>
     <g id="text_10">
      <!-- 160 -->
      <g transform="translate(31.5125 144.753509)scale(0.1 -0.1)">
       <use xlink:href="#DejaVuSans-49"/>
       <use x="63.623047" xlink:href="#DejaVuSans-54"/>
       <use x="127.246094" xlink:href="#DejaVuSans-48"/>
      </g>
     </g>
    </g>
    <g id="ytick_5">
     <g id="line2d_11">
      <g>
       <use style="stroke:#000000;stroke-width:0.8;" x="57.6" xlink:href="#m03d8e971c3" y="88.748853"/>
      </g>
     </g>
     <g id="text_11">
      <!-- 180 -->
      <g transform="translate(31.5125 92.548072)scale(0.1 -0.1)">
       <use xlink:href="#DejaVuSans-49"/>
       <use x="63.623047" xlink:href="#DejaVuSans-56"/>
       <use x="127.246094" xlink:href="#DejaVuSans-48"/>
      </g>
     </g>
    </g>
   </g>
   <g id="line2d_12">
    <path clip-path="url(#pde682cac6e)" d="M 379.619954 294.960331 
L 378.654153 277.873491 
L 377.448208 261.44444 
L 376.002117 245.673177 
L 374.759628 234.27412 
L 373.381404 223.245722 
L 371.870057 212.585371 
L 370.222975 202.295679 
L 368.44277 192.374036 
L 366.52422 182.820441 
L 364.472546 173.637505 
L 362.287749 164.825227 
L 359.964607 156.380997 
L 357.508341 148.304816 
L 354.918951 140.599293 
L 352.191217 133.261819 
L 349.330359 126.295004 
L 346.333767 119.698847 
L 343.204051 113.468128 
L 339.938601 107.610678 
L 336.537417 102.118666 
L 333.003109 96.999922 
L 330.570335 93.789288 
L 326.808934 89.283959 
L 324.227375 86.485747 
L 321.58578 83.851983 
L 318.884148 81.382666 
L 316.12248 79.075185 
L 313.300777 76.934762 
L 310.419036 74.956176 
L 307.47726 73.142037 
L 304.475447 71.492346 
L 301.413598 70.007101 
L 298.291713 68.686303 
L 295.109792 67.529953 
L 291.867834 66.535439 
L 288.568451 65.707983 
L 285.20642 65.042364 
L 281.784354 64.541192 
L 278.302251 64.207077 
L 274.762723 64.034799 
L 271.160547 64.024358 
L 267.498336 64.180974 
L 263.778699 64.502038 
L 259.996415 64.984938 
L 256.156705 65.634896 
L 252.254348 66.44669 
L 246.289877 67.971089 
L 240.192282 69.868757 
L 233.958953 72.131862 
L 227.589889 74.765627 
L 221.085092 77.770049 
L 214.44717 81.142521 
L 207.673515 84.885651 
L 200.764125 88.996829 
L 193.721612 93.476055 
L 186.543364 98.32594 
L 179.229382 103.546484 
L 171.782277 109.135076 
L 164.199437 115.091717 
L 156.480863 121.419016 
L 148.626555 128.114363 
L 140.639123 135.180369 
L 132.515957 142.614423 
L 124.259667 150.419136 
L 115.867643 158.591897 
L 104.465975 170.064042 
L 92.826773 182.193976 
L 89.879776 185.328912 
L 89.879776 185.328912 
" style="fill:none;stroke:#fea952;stroke-linecap:square;"/>
   </g>
   <g id="line2d_13">
    <path clip-path="url(#pde682cac6e)" d="M 369.192209 295.488 
L 368.236423 278.571486 
L 367.044413 262.326118 
L 365.617053 246.753337 
L 364.392158 235.51181 
L 363.035284 224.65075 
L 361.55083 214.175929 
L 359.934767 204.075868 
L 358.191571 194.356266 
L 356.317421 185.019886 
L 354.318071 176.067103 
L 352.197523 167.50919 
L 349.94794 159.327638 
L 347.578511 151.532011 
L 345.094801 144.135163 
L 342.485857 137.111791 
L 339.771341 130.495179 
L 336.940106 124.256855 
L 334.009044 118.414656 
L 330.978834 112.971543 
L 327.849907 107.910339 
L 324.622878 103.227927 
L 321.315106 98.937692 
L 317.924934 95.02343 
L 314.458996 91.482531 
L 310.911055 88.298477 
L 307.285071 85.468671 
L 304.835879 83.779138 
L 301.061639 81.506789 
L 298.507582 80.178528 
L 295.919053 78.994398 
L 291.924099 77.473175 
L 287.810487 76.259975 
L 283.579624 75.355939 
L 279.181478 74.758059 
L 274.610758 74.47478 
L 269.900544 74.507737 
L 264.999482 74.871512 
L 259.934913 75.563285 
L 254.659998 76.606865 
L 249.23179 77.989145 
L 243.598671 79.73855 
L 237.813889 81.835252 
L 231.843282 84.301085 
L 225.701023 87.135384 
L 219.392819 90.338002 
L 212.914617 93.915997 
L 206.278265 97.863089 
L 199.491223 102.178233 
L 192.539586 106.87355 
L 185.432722 111.944989 
L 178.17109 117.393368 
L 170.762274 123.212399 
L 163.203626 129.407806 
L 155.500962 135.973042 
L 147.649099 142.918362 
L 139.651237 150.237027 
L 131.507458 157.934842 
L 123.223212 166.002155 
L 111.956655 177.337696 
L 100.434249 189.345383 
L 97.487252 192.480319 
L 97.487252 192.480319 
" style="fill:none;stroke:#ffffff;stroke-linecap:square;"/>
   </g>
   <g id="line2d_14">
    <path clip-path="url(#pde682cac6e)" d="M 390.047699 294.432662 
L 389.071884 277.175497 
L 387.852003 260.562763 
L 386.387182 244.593018 
L 385.127098 233.036431 
L 383.727524 221.840693 
L 382.189283 210.994814 
L 380.511184 200.515491 
L 378.693968 190.391806 
L 376.731019 180.620996 
L 374.627021 171.207906 
L 372.377974 162.141264 
L 369.981274 153.434356 
L 367.438171 145.077621 
L 364.743102 137.063424 
L 361.896578 129.411847 
L 358.889378 122.094829 
L 355.727428 115.140839 
L 352.399059 108.521599 
L 348.898369 102.249812 
L 345.224927 96.326992 
L 342.684167 92.585196 
L 340.056728 88.989934 
L 337.345806 85.555543 
L 334.5534 82.281135 
L 331.67551 79.168536 
L 328.712563 76.221435 
L 325.671662 73.448816 
L 322.528443 70.83019 
L 319.316482 68.400854 
L 316.002194 66.133214 
L 312.611206 64.050343 
L 309.144844 62.153553 
L 305.607854 60.445484 
L 301.98254 58.919313 
L 298.295484 57.586731 
L 294.532131 56.440003 
L 290.720227 55.491028 
L 286.833217 54.728788 
L 282.909922 54.160951 
L 278.935284 53.785197 
L 274.914687 53.594817 
L 270.831622 53.588453 
L 266.706512 53.769955 
L 262.557916 54.132563 
L 258.364384 54.672189 
L 254.135488 55.391313 
L 249.848698 56.286515 
L 245.540677 57.351566 
L 241.174589 58.592587 
L 236.785893 59.998963 
L 232.334322 61.578082 
L 225.604863 64.254183 
L 218.769994 67.305668 
L 211.835887 70.725688 
L 204.796055 74.514137 
L 197.649732 78.668043 
L 190.395337 83.185847 
L 183.027735 88.069425 
L 175.551512 93.315202 
L 167.947853 98.927991 
L 160.235719 104.899955 
L 152.39219 111.239786 
L 144.437653 117.937176 
L 136.355198 125.00301 
L 128.147643 132.431539 
L 119.81656 140.22557 
L 111.358418 148.382704 
L 102.778363 156.902383 
L 94.063639 165.789009 
L 85.219298 175.042569 
L 82.272301 178.177505 
L 82.272301 178.177505 
" style="fill:none;stroke:#ffffff;stroke-linecap:square;"/>
   </g>
   <g id="patch_3">
    <path d="M 57.6 307.584 
L 57.6 41.472 
" style="fill:none;stroke:#000000;stroke-linecap:square;stroke-linejoin:miter;stroke-width:0.8;"/>
   </g>
   <g id="patch_4">
    <path d="M 414.72 307.584 
L 414.72 41.472 
" style="fill:none;stroke:#000000;stroke-linecap:square;stroke-linejoin:miter;stroke-width:0.8;"/>
   </g>
   <g id="patch_5">
    <path d="M 57.6 307.584 
L 414.72 307.584 
" style="fill:none;stroke:#000000;stroke-linecap:square;stroke-linejoin:miter;stroke-width:0.8;"/>
   </g>
   <g id="patch_6">
    <path d="M 57.6 41.472 
L 414.72 41.472 
" style="fill:none;stroke:#000000;stroke-linecap:square;stroke-linejoin:miter;stroke-width:0.8;"/>
   </g>
  </g>
 </g>
 <defs>
  <clipPath id="pde682cac6e">
   <rect height="266.112" width="357.12" x="57.6" y="41.472"/>
  </clipPath>
 </defs>
</svg>
