<?xml version="1.0" encoding="utf-8" standalone="no"?>
<!DOCTYPE svg PUBLIC "-//W3C//DTD SVG 1.1//EN"
  "http://www.w3.org/Graphics/SVG/1.1/DTD/svg11.dtd">
<!-- Created with matplotlib (https://matplotlib.org/) -->
<svg height="345.6pt" version="1.1" viewBox="0 0 460.8 345.6" width="460.8pt" xmlns="http://www.w3.org/2000/svg" xmlns:xlink="http://www.w3.org/1999/xlink">
 <metadata>
  <rdf:RDF xmlns:cc="http://creativecommons.org/ns#" xmlns:dc="http://purl.org/dc/elements/1.1/" xmlns:rdf="http://www.w3.org/1999/02/22-rdf-syntax-ns#">
   <cc:Work>
    <dc:type rdf:resource="http://purl.org/dc/dcmitype/StillImage"/>
    <dc:date>2021-07-06T17:47:06.335173</dc:date>
    <dc:format>image/svg+xml</dc:format>
    <dc:creator>
     <cc:Agent>
      <dc:title>Matplotlib v3.3.3, https://matplotlib.org/</dc:title>
     </cc:Agent>
    </dc:creator>
   </cc:Work>
  </rdf:RDF>
 </metadata>
 <defs>
  <style type="text/css">*{stroke-linecap:butt;stroke-linejoin:round;}</style>
 </defs>
 <g id="figure_1">
  <g id="patch_1">
   <path d="M 0 345.6 
L 460.8 345.6 
L 460.8 0 
L 0 0 
z
" style="fill:#ffffff;"/>
  </g>
  <g id="axes_1">
   <g id="patch_2">
    <path d="M 57.6 307.584 
L 414.72 307.584 
L 414.72 41.472 
L 57.6 41.472 
z
" style="fill:#7d9051;"/>
   </g>
   <g id="matplotlib.axis_1">
    <g id="xtick_1">
     <g id="line2d_1">
      <defs>
       <path d="M 0 0 
L 0 3.5 
" id="m0b0d55530e" style="stroke:#000000;stroke-width:0.8;"/>
      </defs>
      <g>
       <use style="stroke:#000000;stroke-width:0.8;" x="112.278926" xlink:href="#m0b0d55530e" y="307.584"/>
      </g>
     </g>
     <g id="text_1">
      <!-- 20 -->
      <g transform="translate(105.916426 322.182437)scale(0.1 -0.1)">
       <defs>
        <path d="M 19.1875 8.296875 
L 53.609375 8.296875 
L 53.609375 0 
L 7.328125 0 
L 7.328125 8.296875 
Q 12.9375 14.109375 22.625 23.890625 
Q 32.328125 33.6875 34.8125 36.53125 
Q 39.546875 41.84375 41.421875 45.53125 
Q 43.3125 49.21875 43.3125 52.78125 
Q 43.3125 58.59375 39.234375 62.25 
Q 35.15625 65.921875 28.609375 65.921875 
Q 23.96875 65.921875 18.8125 64.3125 
Q 13.671875 62.703125 7.8125 59.421875 
L 7.8125 69.390625 
Q 13.765625 71.78125 18.9375 73 
Q 24.125 74.21875 28.421875 74.21875 
Q 39.75 74.21875 46.484375 68.546875 
Q 53.21875 62.890625 53.21875 53.421875 
Q 53.21875 48.921875 51.53125 44.890625 
Q 49.859375 40.875 45.40625 35.40625 
Q 44.1875 33.984375 37.640625 27.21875 
Q 31.109375 20.453125 19.1875 8.296875 
z
" id="DejaVuSans-50"/>
        <path d="M 31.78125 66.40625 
Q 24.171875 66.40625 20.328125 58.90625 
Q 16.5 51.421875 16.5 36.375 
Q 16.5 21.390625 20.328125 13.890625 
Q 24.171875 6.390625 31.78125 6.390625 
Q 39.453125 6.390625 43.28125 13.890625 
Q 47.125 21.390625 47.125 36.375 
Q 47.125 51.421875 43.28125 58.90625 
Q 39.453125 66.40625 31.78125 66.40625 
z
M 31.78125 74.21875 
Q 44.046875 74.21875 50.515625 64.515625 
Q 56.984375 54.828125 56.984375 36.375 
Q 56.984375 17.96875 50.515625 8.265625 
Q 44.046875 -1.421875 31.78125 -1.421875 
Q 19.53125 -1.421875 13.0625 8.265625 
Q 6.59375 17.96875 6.59375 36.375 
Q 6.59375 54.828125 13.0625 64.515625 
Q 19.53125 74.21875 31.78125 74.21875 
z
" id="DejaVuSans-48"/>
       </defs>
       <use xlink:href="#DejaVuSans-50"/>
       <use x="63.623047" xlink:href="#DejaVuSans-48"/>
      </g>
     </g>
    </g>
    <g id="xtick_2">
     <g id="line2d_2">
      <g>
       <use style="stroke:#000000;stroke-width:0.8;" x="179.291023" xlink:href="#m0b0d55530e" y="307.584"/>
      </g>
     </g>
     <g id="text_2">
      <!-- 40 -->
      <g transform="translate(172.928523 322.182437)scale(0.1 -0.1)">
       <defs>
        <path d="M 37.796875 64.3125 
L 12.890625 25.390625 
L 37.796875 25.390625 
z
M 35.203125 72.90625 
L 47.609375 72.90625 
L 47.609375 25.390625 
L 58.015625 25.390625 
L 58.015625 17.1875 
L 47.609375 17.1875 
L 47.609375 0 
L 37.796875 0 
L 37.796875 17.1875 
L 4.890625 17.1875 
L 4.890625 26.703125 
z
" id="DejaVuSans-52"/>
       </defs>
       <use xlink:href="#DejaVuSans-52"/>
       <use x="63.623047" xlink:href="#DejaVuSans-48"/>
      </g>
     </g>
    </g>
    <g id="xtick_3">
     <g id="line2d_3">
      <g>
       <use style="stroke:#000000;stroke-width:0.8;" x="246.30312" xlink:href="#m0b0d55530e" y="307.584"/>
      </g>
     </g>
     <g id="text_3">
      <!-- 60 -->
      <g transform="translate(239.94062 322.182437)scale(0.1 -0.1)">
       <defs>
        <path d="M 33.015625 40.375 
Q 26.375 40.375 22.484375 35.828125 
Q 18.609375 31.296875 18.609375 23.390625 
Q 18.609375 15.53125 22.484375 10.953125 
Q 26.375 6.390625 33.015625 6.390625 
Q 39.65625 6.390625 43.53125 10.953125 
Q 47.40625 15.53125 47.40625 23.390625 
Q 47.40625 31.296875 43.53125 35.828125 
Q 39.65625 40.375 33.015625 40.375 
z
M 52.59375 71.296875 
L 52.59375 62.3125 
Q 48.875 64.0625 45.09375 64.984375 
Q 41.3125 65.921875 37.59375 65.921875 
Q 27.828125 65.921875 22.671875 59.328125 
Q 17.53125 52.734375 16.796875 39.40625 
Q 19.671875 43.65625 24.015625 45.921875 
Q 28.375 48.1875 33.59375 48.1875 
Q 44.578125 48.1875 50.953125 41.515625 
Q 57.328125 34.859375 57.328125 23.390625 
Q 57.328125 12.15625 50.6875 5.359375 
Q 44.046875 -1.421875 33.015625 -1.421875 
Q 20.359375 -1.421875 13.671875 8.265625 
Q 6.984375 17.96875 6.984375 36.375 
Q 6.984375 53.65625 15.1875 63.9375 
Q 23.390625 74.21875 37.203125 74.21875 
Q 40.921875 74.21875 44.703125 73.484375 
Q 48.484375 72.75 52.59375 71.296875 
z
" id="DejaVuSans-54"/>
       </defs>
       <use xlink:href="#DejaVuSans-54"/>
       <use x="63.623047" xlink:href="#DejaVuSans-48"/>
      </g>
     </g>
    </g>
    <g id="xtick_4">
     <g id="line2d_4">
      <g>
       <use style="stroke:#000000;stroke-width:0.8;" x="313.315217" xlink:href="#m0b0d55530e" y="307.584"/>
      </g>
     </g>
     <g id="text_4">
      <!-- 80 -->
      <g transform="translate(306.952717 322.182437)scale(0.1 -0.1)">
       <defs>
        <path d="M 31.78125 34.625 
Q 24.75 34.625 20.71875 30.859375 
Q 16.703125 27.09375 16.703125 20.515625 
Q 16.703125 13.921875 20.71875 10.15625 
Q 24.75 6.390625 31.78125 6.390625 
Q 38.8125 6.390625 42.859375 10.171875 
Q 46.921875 13.96875 46.921875 20.515625 
Q 46.921875 27.09375 42.890625 30.859375 
Q 38.875 34.625 31.78125 34.625 
z
M 21.921875 38.8125 
Q 15.578125 40.375 12.03125 44.71875 
Q 8.5 49.078125 8.5 55.328125 
Q 8.5 64.0625 14.71875 69.140625 
Q 20.953125 74.21875 31.78125 74.21875 
Q 42.671875 74.21875 48.875 69.140625 
Q 55.078125 64.0625 55.078125 55.328125 
Q 55.078125 49.078125 51.53125 44.71875 
Q 48 40.375 41.703125 38.8125 
Q 48.828125 37.15625 52.796875 32.3125 
Q 56.78125 27.484375 56.78125 20.515625 
Q 56.78125 9.90625 50.3125 4.234375 
Q 43.84375 -1.421875 31.78125 -1.421875 
Q 19.734375 -1.421875 13.25 4.234375 
Q 6.78125 9.90625 6.78125 20.515625 
Q 6.78125 27.484375 10.78125 32.3125 
Q 14.796875 37.15625 21.921875 38.8125 
z
M 18.3125 54.390625 
Q 18.3125 48.734375 21.84375 45.5625 
Q 25.390625 42.390625 31.78125 42.390625 
Q 38.140625 42.390625 41.71875 45.5625 
Q 45.3125 48.734375 45.3125 54.390625 
Q 45.3125 60.0625 41.71875 63.234375 
Q 38.140625 66.40625 31.78125 66.40625 
Q 25.390625 66.40625 21.84375 63.234375 
Q 18.3125 60.0625 18.3125 54.390625 
z
" id="DejaVuSans-56"/>
       </defs>
       <use xlink:href="#DejaVuSans-56"/>
       <use x="63.623047" xlink:href="#DejaVuSans-48"/>
      </g>
     </g>
    </g>
    <g id="xtick_5">
     <g id="line2d_5">
      <g>
       <use style="stroke:#000000;stroke-width:0.8;" x="380.327313" xlink:href="#m0b0d55530e" y="307.584"/>
      </g>
     </g>
     <g id="text_5">
      <!-- 100 -->
      <g transform="translate(370.783563 322.182437)scale(0.1 -0.1)">
       <defs>
        <path d="M 12.40625 8.296875 
L 28.515625 8.296875 
L 28.515625 63.921875 
L 10.984375 60.40625 
L 10.984375 69.390625 
L 28.421875 72.90625 
L 38.28125 72.90625 
L 38.28125 8.296875 
L 54.390625 8.296875 
L 54.390625 0 
L 12.40625 0 
z
" id="DejaVuSans-49"/>
       </defs>
       <use xlink:href="#DejaVuSans-49"/>
       <use x="63.623047" xlink:href="#DejaVuSans-48"/>
       <use x="127.246094" xlink:href="#DejaVuSans-48"/>
      </g>
     </g>
    </g>
   </g>
   <g id="matplotlib.axis_2">
    <g id="ytick_1">
     <g id="line2d_6">
      <defs>
       <path d="M 0 0 
L -3.5 0 
" id="m52b4ffb0ea" style="stroke:#000000;stroke-width:0.8;"/>
      </defs>
      <g>
       <use style="stroke:#000000;stroke-width:0.8;" x="57.6" xlink:href="#m52b4ffb0ea" y="288.276174"/>
      </g>
     </g>
     <g id="text_6">
      <!-- 110 -->
      <g transform="translate(31.5125 292.075393)scale(0.1 -0.1)">
       <use xlink:href="#DejaVuSans-49"/>
       <use x="63.623047" xlink:href="#DejaVuSans-49"/>
       <use x="127.246094" xlink:href="#DejaVuSans-48"/>
      </g>
     </g>
    </g>
    <g id="ytick_2">
     <g id="line2d_7">
      <g>
       <use style="stroke:#000000;stroke-width:0.8;" x="57.6" xlink:href="#m52b4ffb0ea" y="254.770126"/>
      </g>
     </g>
     <g id="text_7">
      <!-- 120 -->
      <g transform="translate(31.5125 258.569344)scale(0.1 -0.1)">
       <use xlink:href="#DejaVuSans-49"/>
       <use x="63.623047" xlink:href="#DejaVuSans-50"/>
       <use x="127.246094" xlink:href="#DejaVuSans-48"/>
      </g>
     </g>
    </g>
    <g id="ytick_3">
     <g id="line2d_8">
      <g>
       <use style="stroke:#000000;stroke-width:0.8;" x="57.6" xlink:href="#m52b4ffb0ea" y="221.264077"/>
      </g>
     </g>
     <g id="text_8">
      <!-- 130 -->
      <g transform="translate(31.5125 225.063296)scale(0.1 -0.1)">
       <defs>
        <path d="M 40.578125 39.3125 
Q 47.65625 37.796875 51.625 33 
Q 55.609375 28.21875 55.609375 21.1875 
Q 55.609375 10.40625 48.1875 4.484375 
Q 40.765625 -1.421875 27.09375 -1.421875 
Q 22.515625 -1.421875 17.65625 -0.515625 
Q 12.796875 0.390625 7.625 2.203125 
L 7.625 11.71875 
Q 11.71875 9.328125 16.59375 8.109375 
Q 21.484375 6.890625 26.8125 6.890625 
Q 36.078125 6.890625 40.9375 10.546875 
Q 45.796875 14.203125 45.796875 21.1875 
Q 45.796875 27.640625 41.28125 31.265625 
Q 36.765625 34.90625 28.71875 34.90625 
L 20.21875 34.90625 
L 20.21875 43.015625 
L 29.109375 43.015625 
Q 36.375 43.015625 40.234375 45.921875 
Q 44.09375 48.828125 44.09375 54.296875 
Q 44.09375 59.90625 40.109375 62.90625 
Q 36.140625 65.921875 28.71875 65.921875 
Q 24.65625 65.921875 20.015625 65.03125 
Q 15.375 64.15625 9.8125 62.3125 
L 9.8125 71.09375 
Q 15.4375 72.65625 20.34375 73.4375 
Q 25.25 74.21875 29.59375 74.21875 
Q 40.828125 74.21875 47.359375 69.109375 
Q 53.90625 64.015625 53.90625 55.328125 
Q 53.90625 49.265625 50.4375 45.09375 
Q 46.96875 40.921875 40.578125 39.3125 
z
" id="DejaVuSans-51"/>
       </defs>
       <use xlink:href="#DejaVuSans-49"/>
       <use x="63.623047" xlink:href="#DejaVuSans-51"/>
       <use x="127.246094" xlink:href="#DejaVuSans-48"/>
      </g>
     </g>
    </g>
    <g id="ytick_4">
     <g id="line2d_9">
      <g>
       <use style="stroke:#000000;stroke-width:0.8;" x="57.6" xlink:href="#m52b4ffb0ea" y="187.758029"/>
      </g>
     </g>
     <g id="text_9">
      <!-- 140 -->
      <g transform="translate(31.5125 191.557248)scale(0.1 -0.1)">
       <use xlink:href="#DejaVuSans-49"/>
       <use x="63.623047" xlink:href="#DejaVuSans-52"/>
       <use x="127.246094" xlink:href="#DejaVuSans-48"/>
      </g>
     </g>
    </g>
    <g id="ytick_5">
     <g id="line2d_10">
      <g>
       <use style="stroke:#000000;stroke-width:0.8;" x="57.6" xlink:href="#m52b4ffb0ea" y="154.25198"/>
      </g>
     </g>
     <g id="text_10">
      <!-- 150 -->
      <g transform="translate(31.5125 158.051199)scale(0.1 -0.1)">
       <defs>
        <path d="M 10.796875 72.90625 
L 49.515625 72.90625 
L 49.515625 64.59375 
L 19.828125 64.59375 
L 19.828125 46.734375 
Q 21.96875 47.46875 24.109375 47.828125 
Q 26.265625 48.1875 28.421875 48.1875 
Q 40.625 48.1875 47.75 41.5 
Q 54.890625 34.8125 54.890625 23.390625 
Q 54.890625 11.625 47.5625 5.09375 
Q 40.234375 -1.421875 26.90625 -1.421875 
Q 22.3125 -1.421875 17.546875 -0.640625 
Q 12.796875 0.140625 7.71875 1.703125 
L 7.71875 11.625 
Q 12.109375 9.234375 16.796875 8.0625 
Q 21.484375 6.890625 26.703125 6.890625 
Q 35.15625 6.890625 40.078125 11.328125 
Q 45.015625 15.765625 45.015625 23.390625 
Q 45.015625 31 40.078125 35.4375 
Q 35.15625 39.890625 26.703125 39.890625 
Q 22.75 39.890625 18.8125 39.015625 
Q 14.890625 38.140625 10.796875 36.28125 
z
" id="DejaVuSans-53"/>
       </defs>
       <use xlink:href="#DejaVuSans-49"/>
       <use x="63.623047" xlink:href="#DejaVuSans-53"/>
       <use x="127.246094" xlink:href="#DejaVuSans-48"/>
      </g>
     </g>
    </g>
    <g id="ytick_6">
     <g id="line2d_11">
      <g>
       <use style="stroke:#000000;stroke-width:0.8;" x="57.6" xlink:href="#m52b4ffb0ea" y="120.745932"/>
      </g>
     </g>
     <g id="text_11">
      <!-- 160 -->
      <g transform="translate(31.5125 124.545151)scale(0.1 -0.1)">
       <use xlink:href="#DejaVuSans-49"/>
       <use x="63.623047" xlink:href="#DejaVuSans-54"/>
       <use x="127.246094" xlink:href="#DejaVuSans-48"/>
      </g>
     </g>
    </g>
    <g id="ytick_7">
     <g id="line2d_12">
      <g>
       <use style="stroke:#000000;stroke-width:0.8;" x="57.6" xlink:href="#m52b4ffb0ea" y="87.239884"/>
      </g>
     </g>
     <g id="text_12">
      <!-- 170 -->
      <g transform="translate(31.5125 91.039102)scale(0.1 -0.1)">
       <defs>
        <path d="M 8.203125 72.90625 
L 55.078125 72.90625 
L 55.078125 68.703125 
L 28.609375 0 
L 18.3125 0 
L 43.21875 64.59375 
L 8.203125 64.59375 
z
" id="DejaVuSans-55"/>
       </defs>
       <use xlink:href="#DejaVuSans-49"/>
       <use x="63.623047" xlink:href="#DejaVuSans-55"/>
       <use x="127.246094" xlink:href="#DejaVuSans-48"/>
      </g>
     </g>
    </g>
    <g id="ytick_8">
     <g id="line2d_13">
      <g>
       <use style="stroke:#000000;stroke-width:0.8;" x="57.6" xlink:href="#m52b4ffb0ea" y="53.733835"/>
      </g>
     </g>
     <g id="text_13">
      <!-- 180 -->
      <g transform="translate(31.5125 57.533054)scale(0.1 -0.1)">
       <use xlink:href="#DejaVuSans-49"/>
       <use x="63.623047" xlink:href="#DejaVuSans-56"/>
       <use x="127.246094" xlink:href="#DejaVuSans-48"/>
      </g>
     </g>
    </g>
   </g>
   <g id="line2d_14">
    <path clip-path="url(#pb0923f36a4)" d="M 387.028523 278.22436 
L 385.132081 275.098245 
L 383.222236 271.992235 
L 381.295638 268.913029 
L 379.352287 265.860628 
L 377.395534 262.82833 
L 375.422028 259.819487 
L 373.435119 256.837449 
L 371.431458 253.878865 
L 369.411043 250.943735 
L 367.377226 248.032059 
L 365.326656 245.147189 
L 363.262683 242.282421 
L 361.181957 239.444459 
L 359.084479 236.629951 
L 356.973598 233.842248 
L 354.845964 231.074648 
L 352.704927 228.330503 
L 350.547138 225.613162 
L 348.372595 222.919276 
L 346.18465 220.248844 
L 343.983303 217.605217 
L 341.761852 214.981693 
L 339.526998 212.384974 
L 337.278742 209.81171 
L 335.013734 207.2619 
L 332.731972 204.735544 
L 330.436807 202.232642 
L 328.12489 199.756545 
L 325.79957 197.303902 
L 323.457498 194.874714 
L 321.098672 192.468979 
L 318.726443 190.086699 
L 316.337462 187.731224 
L 313.935079 185.399203 
L 311.515942 183.090636 
L 309.080052 180.805524 
L 306.63076 178.543866 
L 304.164715 176.309012 
L 301.685267 174.094262 
L 299.189067 171.906317 
L 296.676113 169.741827 
L 294.149757 167.60079 
L 291.606648 165.486558 
L 289.050136 163.39243 
L 286.476872 161.325107 
L 283.890205 159.281238 
L 281.286785 157.260824 
L 278.666612 155.267214 
L 276.033037 153.293707 
L 273.382708 151.347006 
L 270.715627 149.423759 
L 268.035143 147.523966 
L 265.341257 145.647627 
L 262.627267 143.798093 
L 259.903225 141.968663 
L 257.15908 140.166038 
L 254.401532 138.386866 
L 251.630582 136.63115 
L 248.839528 134.902237 
L 246.038422 133.193429 
L 243.217213 131.511425 
L 240.382601 129.852876 
L 237.534587 128.217781 
L 234.66982 126.60949 
L 231.7883 125.021304 
L 228.890026 123.459922 
L 225.981701 121.921994 
L 223.053273 120.407521 
L 220.111442 118.916502 
L 217.152858 117.452287 
L 214.180871 116.008177 
L 211.192132 114.590871 
L 208.18999 113.197019 
L 205.167744 111.826622 
L 202.135447 110.483029 
L 199.086396 109.15954 
L 196.020593 107.862856 
L 192.938037 106.589627 
L 189.842078 105.339851 
L 186.732716 104.11353 
L 183.603251 102.914013 
L 180.463735 101.7346 
L 177.304114 100.581992 
L 174.131092 99.452838 
L 170.944666 98.350489 
L 167.738138 97.268244 
L 164.521557 96.212803 
L 161.284873 95.177466 
L 158.034786 94.168934 
L 154.771297 93.187207 
L 151.491055 92.225584 
L 148.194059 91.290765 
L 144.883662 90.37605 
L 141.556511 89.488139 
L 138.212608 88.623683 
L 134.855302 87.786032 
L 131.481243 86.968485 
L 128.093781 86.177742 
L 124.689567 85.410453 
L 121.27195 84.666619 
L 117.83758 83.946239 
L 114.386457 83.249313 
L 110.921931 82.579192 
L 107.440653 81.932526 
L 103.945972 81.309313 
L 100.434538 80.709555 
L 96.906351 80.133251 
L 93.364762 79.583752 
L 89.80642 79.054356 
L 86.234675 78.551765 
L 82.646177 78.072629 
L 79.040926 77.620297 
L 75.422273 77.188069 
" style="fill:none;stroke:#fea952;stroke-linecap:square;"/>
   </g>
   <g id="line2d_15">
    <path clip-path="url(#pb0923f36a4)" d="M 375.569774 285.175755 
L 373.715262 282.118295 
L 371.860481 279.101058 
L 369.990066 276.110868 
L 368.091011 273.127573 
L 366.188681 270.178928 
L 364.268613 267.25092 
L 362.338065 264.352781 
L 360.391717 261.478139 
L 358.423637 258.618482 
L 356.453255 255.796833 
L 354.452545 252.981636 
L 352.454094 250.207019 
L 350.435509 247.453122 
L 348.399643 244.720632 
L 346.348128 242.010738 
L 344.279251 239.319006 
L 342.209162 236.664995 
L 340.118406 234.03138 
L 338.005493 231.413276 
L 335.885417 228.825011 
L 333.755053 226.265919 
L 331.603576 223.724364 
L 329.43414 221.203084 
L 327.258744 218.712523 
L 325.067551 216.245123 
L 322.85397 213.793685 
L 320.640662 211.379246 
L 318.39886 208.977672 
L 316.151203 206.606259 
L 313.887716 204.257897 
L 311.601715 201.925864 
L 309.316664 199.63033 
L 307.002398 197.34795 
L 304.682311 195.095137 
L 302.346346 192.865264 
L 299.98778 190.652118 
L 297.630775 188.474883 
L 295.236345 186.304464 
L 292.851096 184.173065 
L 290.442382 182.061137 
L 288.011024 179.96636 
L 285.581763 177.906824 
L 283.113811 175.854614 
L 280.656161 173.840685 
L 278.167723 171.840948 
L 275.673241 169.869267 
L 273.171327 167.926853 
L 270.629528 165.992423 
L 268.099047 164.095404 
L 265.543698 162.217828 
L 262.965762 160.358312 
L 260.375086 158.521619 
L 257.793726 156.722808 
L 255.155087 154.924251 
L 252.544823 153.170394 
L 249.892956 151.427845 
L 247.22826 149.708042 
L 244.57286 148.024719 
L 241.859696 146.343688 
L 239.17513 144.705165 
L 236.448825 143.079216 
L 233.709591 141.475947 
L 230.973637 139.904473 
L 228.200467 138.347136 
L 225.431775 136.820432 
L 222.624844 135.307805 
L 219.825064 133.826643 
L 216.994262 132.362153 
L 214.16672 130.928376 
L 211.295403 129.506957 
L 208.438227 128.117961 
L 205.548221 126.746985 
L 202.655247 125.403225 
L 199.738328 124.080041 
L 196.798963 122.777206 
L 193.865598 121.503288 
L 190.904083 120.250196 
L 187.921105 119.017629 
L 184.924829 117.80763 
L 181.935897 116.628136 
L 178.890012 115.460336 
L 175.870689 114.325421 
L 172.810755 113.208732 
L 169.749306 112.118729 
L 166.65871 111.049128 
L 163.55966 110.002653 
L 160.438263 108.978051 
L 157.312821 107.977765 
L 154.173959 107.003219 
L 151.000967 106.048368 
L 147.835095 105.119722 
L 144.624521 104.209094 
L 141.427924 103.325286 
L 138.202036 102.463976 
L 134.968151 101.627465 
L 131.699172 100.811534 
L 128.434592 100.020027 
L 125.146887 99.25217 
L 121.839297 98.506285 
L 118.520586 97.783587 
L 115.184625 97.083464 
L 111.841286 96.407845 
L 108.474229 95.756202 
L 105.087698 95.126784 
L 101.689496 94.520413 
L 98.273982 93.93668 
L 94.851471 93.377205 
L 91.392513 92.840262 
L 87.938923 92.326029 
L 84.460924 91.836292 
L 80.977727 91.370791 
L 77.451381 90.928121 
L 73.832727 90.495893 
" style="fill:none;stroke:#ffffff;stroke-linecap:square;"/>
   </g>
   <g id="line2d_16">
    <path clip-path="url(#pb0923f36a4)" d="M 398.487273 271.272964 
L 396.548899 268.078195 
L 394.583991 264.883411 
L 392.60121 261.715189 
L 390.613564 258.593682 
L 388.602388 255.477733 
L 386.575443 252.388055 
L 384.532174 249.322116 
L 382.471199 246.279591 
L 380.398449 243.268987 
L 378.301196 240.267286 
L 376.200766 237.312741 
L 374.071272 234.357824 
L 371.928406 231.435796 
L 369.769315 228.53927 
L 367.599067 225.673757 
L 365.412676 222.83029 
L 363.200693 219.996011 
L 360.97587 217.194944 
L 358.739697 214.425276 
L 356.483883 211.672677 
L 354.211552 208.944515 
L 351.920127 206.239023 
L 349.619857 203.566865 
L 347.298741 200.910897 
L 344.959916 198.278676 
L 342.609974 195.677402 
L 340.232953 193.086037 
L 337.85092 190.535418 
L 335.447938 188.001545 
L 333.027279 185.49153 
L 330.595628 183.012095 
L 328.136223 180.543068 
L 325.672527 178.114498 
L 323.187846 175.703269 
L 320.685538 173.316008 
L 318.172325 170.958929 
L 315.630745 168.612848 
L 313.093085 166.31356 
L 310.519439 164.01546 
L 307.935751 161.751498 
L 305.341202 159.517293 
L 302.717751 157.294756 
L 300.099485 155.118503 
L 297.444112 152.944176 
L 294.78602 150.809267 
L 292.107169 148.69321 
L 289.402243 146.594794 
L 286.703696 144.542004 
L 283.967026 142.492011 
L 281.221718 140.476184 
L 278.465491 138.489206 
L 275.6952 136.526313 
L 272.888787 134.572446 
L 270.099446 132.671936 
L 267.261627 130.766932 
L 264.425203 128.904231 
L 261.574804 127.065691 
L 258.688303 125.23758 
L 255.81936 123.460787 
L 252.901714 121.681693 
L 249.985601 119.943635 
L 247.055611 118.229805 
L 244.095537 116.531088 
L 241.139173 114.871845 
L 238.144824 113.222175 
L 235.155209 111.612039 
L 232.138339 110.017346 
L 229.112284 108.452889 
L 226.056163 106.904627 
L 223.010313 105.397618 
L 219.923516 103.898392 
L 216.836042 102.434756 
L 213.724733 100.990813 
L 210.59716 99.573202 
L 207.47193 98.188852 
L 204.307195 96.815793 
L 201.137103 95.475517 
L 197.954968 94.161624 
L 194.759327 92.872072 
L 191.529536 91.598923 
L 188.316491 90.36769 
L 185.056781 89.143779 
L 181.797474 87.955252 
L 178.512877 86.786947 
L 175.230623 85.651851 
L 171.916615 84.533835 
L 168.604851 83.447555 
L 165.256924 82.377168 
L 161.895613 81.33465 
L 158.541627 80.326046 
L 155.147015 79.331445 
L 151.763598 78.372435 
L 148.3394 77.426813 
L 144.910986 76.512303 
L 141.457064 75.619901 
L 138.011431 74.760531 
L 134.527893 73.916942 
L 131.040675 73.103314 
L 127.539836 72.314622 
L 124.023314 71.549651 
L 120.490534 70.809014 
L 116.931627 70.090782 
L 113.369634 69.402182 
L 109.793608 68.738267 
L 106.202448 68.098213 
L 102.595094 67.48243 
L 98.961231 66.889297 
L 95.337011 66.327241 
L 91.673916 65.782683 
L 88.008426 65.267238 
L 84.314627 64.774466 
L 80.630472 64.312473 
L 77.011819 63.880245 
" style="fill:none;stroke:#ffffff;stroke-linecap:square;"/>
   </g>
   <g id="patch_3">
    <path d="M 57.6 307.584 
L 57.6 41.472 
" style="fill:none;stroke:#000000;stroke-linecap:square;stroke-linejoin:miter;stroke-width:0.8;"/>
   </g>
   <g id="patch_4">
    <path d="M 414.72 307.584 
L 414.72 41.472 
" style="fill:none;stroke:#000000;stroke-linecap:square;stroke-linejoin:miter;stroke-width:0.8;"/>
   </g>
   <g id="patch_5">
    <path d="M 57.6 307.584 
L 414.72 307.584 
" style="fill:none;stroke:#000000;stroke-linecap:square;stroke-linejoin:miter;stroke-width:0.8;"/>
   </g>
   <g id="patch_6">
    <path d="M 57.6 41.472 
L 414.72 41.472 
" style="fill:none;stroke:#000000;stroke-linecap:square;stroke-linejoin:miter;stroke-width:0.8;"/>
   </g>
  </g>
 </g>
 <defs>
  <clipPath id="pb0923f36a4">
   <rect height="266.112" width="357.12" x="57.6" y="41.472"/>
  </clipPath>
 </defs>
</svg>
