<?xml version="1.0" encoding="utf-8" standalone="no"?>
<!DOCTYPE svg PUBLIC "-//W3C//DTD SVG 1.1//EN"
  "http://www.w3.org/Graphics/SVG/1.1/DTD/svg11.dtd">
<!-- Created with matplotlib (https://matplotlib.org/) -->
<svg height="345.6pt" version="1.1" viewBox="0 0 460.8 345.6" width="460.8pt" xmlns="http://www.w3.org/2000/svg" xmlns:xlink="http://www.w3.org/1999/xlink">
 <metadata>
  <rdf:RDF xmlns:cc="http://creativecommons.org/ns#" xmlns:dc="http://purl.org/dc/elements/1.1/" xmlns:rdf="http://www.w3.org/1999/02/22-rdf-syntax-ns#">
   <cc:Work>
    <dc:type rdf:resource="http://purl.org/dc/dcmitype/StillImage"/>
    <dc:date>2021-07-12T19:46:45.536447</dc:date>
    <dc:format>image/svg+xml</dc:format>
    <dc:creator>
     <cc:Agent>
      <dc:title>Matplotlib v3.3.3, https://matplotlib.org/</dc:title>
     </cc:Agent>
    </dc:creator>
   </cc:Work>
  </rdf:RDF>
 </metadata>
 <defs>
  <style type="text/css">*{stroke-linecap:butt;stroke-linejoin:round;}</style>
 </defs>
 <g id="figure_1">
  <g id="patch_1">
   <path d="M 0 345.6 
L 460.8 345.6 
L 460.8 0 
L 0 0 
z
" style="fill:#ffffff;"/>
  </g>
  <g id="axes_1">
   <g id="patch_2">
    <path d="M 57.6 307.584 
L 414.72 307.584 
L 414.72 41.472 
L 57.6 41.472 
z
" style="fill:#7d9051;"/>
   </g>
   <g id="matplotlib.axis_1">
    <g id="xtick_1">
     <g id="line2d_1">
      <defs>
       <path d="M 0 0 
L 0 3.5 
" id="mc99379c10e" style="stroke:#000000;stroke-width:0.8;"/>
      </defs>
      <g>
       <use style="stroke:#000000;stroke-width:0.8;" x="105.643931" xlink:href="#mc99379c10e" y="307.584"/>
      </g>
     </g>
     <g id="text_1">
      <!-- 80 -->
      <g transform="translate(99.281431 322.182437)scale(0.1 -0.1)">
       <defs>
        <path d="M 31.78125 34.625 
Q 24.75 34.625 20.71875 30.859375 
Q 16.703125 27.09375 16.703125 20.515625 
Q 16.703125 13.921875 20.71875 10.15625 
Q 24.75 6.390625 31.78125 6.390625 
Q 38.8125 6.390625 42.859375 10.171875 
Q 46.921875 13.96875 46.921875 20.515625 
Q 46.921875 27.09375 42.890625 30.859375 
Q 38.875 34.625 31.78125 34.625 
z
M 21.921875 38.8125 
Q 15.578125 40.375 12.03125 44.71875 
Q 8.5 49.078125 8.5 55.328125 
Q 8.5 64.0625 14.71875 69.140625 
Q 20.953125 74.21875 31.78125 74.21875 
Q 42.671875 74.21875 48.875 69.140625 
Q 55.078125 64.0625 55.078125 55.328125 
Q 55.078125 49.078125 51.53125 44.71875 
Q 48 40.375 41.703125 38.8125 
Q 48.828125 37.15625 52.796875 32.3125 
Q 56.78125 27.484375 56.78125 20.515625 
Q 56.78125 9.90625 50.3125 4.234375 
Q 43.84375 -1.421875 31.78125 -1.421875 
Q 19.734375 -1.421875 13.25 4.234375 
Q 6.78125 9.90625 6.78125 20.515625 
Q 6.78125 27.484375 10.78125 32.3125 
Q 14.796875 37.15625 21.921875 38.8125 
z
M 18.3125 54.390625 
Q 18.3125 48.734375 21.84375 45.5625 
Q 25.390625 42.390625 31.78125 42.390625 
Q 38.140625 42.390625 41.71875 45.5625 
Q 45.3125 48.734375 45.3125 54.390625 
Q 45.3125 60.0625 41.71875 63.234375 
Q 38.140625 66.40625 31.78125 66.40625 
Q 25.390625 66.40625 21.84375 63.234375 
Q 18.3125 60.0625 18.3125 54.390625 
z
" id="DejaVuSans-56"/>
        <path d="M 31.78125 66.40625 
Q 24.171875 66.40625 20.328125 58.90625 
Q 16.5 51.421875 16.5 36.375 
Q 16.5 21.390625 20.328125 13.890625 
Q 24.171875 6.390625 31.78125 6.390625 
Q 39.453125 6.390625 43.28125 13.890625 
Q 47.125 21.390625 47.125 36.375 
Q 47.125 51.421875 43.28125 58.90625 
Q 39.453125 66.40625 31.78125 66.40625 
z
M 31.78125 74.21875 
Q 44.046875 74.21875 50.515625 64.515625 
Q 56.984375 54.828125 56.984375 36.375 
Q 56.984375 17.96875 50.515625 8.265625 
Q 44.046875 -1.421875 31.78125 -1.421875 
Q 19.53125 -1.421875 13.0625 8.265625 
Q 6.59375 17.96875 6.59375 36.375 
Q 6.59375 54.828125 13.0625 64.515625 
Q 19.53125 74.21875 31.78125 74.21875 
z
" id="DejaVuSans-48"/>
       </defs>
       <use xlink:href="#DejaVuSans-56"/>
       <use x="63.623047" xlink:href="#DejaVuSans-48"/>
      </g>
     </g>
    </g>
    <g id="xtick_2">
     <g id="line2d_2">
      <g>
       <use style="stroke:#000000;stroke-width:0.8;" x="166.034244" xlink:href="#mc99379c10e" y="307.584"/>
      </g>
     </g>
     <g id="text_2">
      <!-- 100 -->
      <g transform="translate(156.490494 322.182437)scale(0.1 -0.1)">
       <defs>
        <path d="M 12.40625 8.296875 
L 28.515625 8.296875 
L 28.515625 63.921875 
L 10.984375 60.40625 
L 10.984375 69.390625 
L 28.421875 72.90625 
L 38.28125 72.90625 
L 38.28125 8.296875 
L 54.390625 8.296875 
L 54.390625 0 
L 12.40625 0 
z
" id="DejaVuSans-49"/>
       </defs>
       <use xlink:href="#DejaVuSans-49"/>
       <use x="63.623047" xlink:href="#DejaVuSans-48"/>
       <use x="127.246094" xlink:href="#DejaVuSans-48"/>
      </g>
     </g>
    </g>
    <g id="xtick_3">
     <g id="line2d_3">
      <g>
       <use style="stroke:#000000;stroke-width:0.8;" x="226.424557" xlink:href="#mc99379c10e" y="307.584"/>
      </g>
     </g>
     <g id="text_3">
      <!-- 120 -->
      <g transform="translate(216.880807 322.182437)scale(0.1 -0.1)">
       <defs>
        <path d="M 19.1875 8.296875 
L 53.609375 8.296875 
L 53.609375 0 
L 7.328125 0 
L 7.328125 8.296875 
Q 12.9375 14.109375 22.625 23.890625 
Q 32.328125 33.6875 34.8125 36.53125 
Q 39.546875 41.84375 41.421875 45.53125 
Q 43.3125 49.21875 43.3125 52.78125 
Q 43.3125 58.59375 39.234375 62.25 
Q 35.15625 65.921875 28.609375 65.921875 
Q 23.96875 65.921875 18.8125 64.3125 
Q 13.671875 62.703125 7.8125 59.421875 
L 7.8125 69.390625 
Q 13.765625 71.78125 18.9375 73 
Q 24.125 74.21875 28.421875 74.21875 
Q 39.75 74.21875 46.484375 68.546875 
Q 53.21875 62.890625 53.21875 53.421875 
Q 53.21875 48.921875 51.53125 44.890625 
Q 49.859375 40.875 45.40625 35.40625 
Q 44.1875 33.984375 37.640625 27.21875 
Q 31.109375 20.453125 19.1875 8.296875 
z
" id="DejaVuSans-50"/>
       </defs>
       <use xlink:href="#DejaVuSans-49"/>
       <use x="63.623047" xlink:href="#DejaVuSans-50"/>
       <use x="127.246094" xlink:href="#DejaVuSans-48"/>
      </g>
     </g>
    </g>
    <g id="xtick_4">
     <g id="line2d_4">
      <g>
       <use style="stroke:#000000;stroke-width:0.8;" x="286.81487" xlink:href="#mc99379c10e" y="307.584"/>
      </g>
     </g>
     <g id="text_4">
      <!-- 140 -->
      <g transform="translate(277.27112 322.182437)scale(0.1 -0.1)">
       <defs>
        <path d="M 37.796875 64.3125 
L 12.890625 25.390625 
L 37.796875 25.390625 
z
M 35.203125 72.90625 
L 47.609375 72.90625 
L 47.609375 25.390625 
L 58.015625 25.390625 
L 58.015625 17.1875 
L 47.609375 17.1875 
L 47.609375 0 
L 37.796875 0 
L 37.796875 17.1875 
L 4.890625 17.1875 
L 4.890625 26.703125 
z
" id="DejaVuSans-52"/>
       </defs>
       <use xlink:href="#DejaVuSans-49"/>
       <use x="63.623047" xlink:href="#DejaVuSans-52"/>
       <use x="127.246094" xlink:href="#DejaVuSans-48"/>
      </g>
     </g>
    </g>
    <g id="xtick_5">
     <g id="line2d_5">
      <g>
       <use style="stroke:#000000;stroke-width:0.8;" x="347.205183" xlink:href="#mc99379c10e" y="307.584"/>
      </g>
     </g>
     <g id="text_5">
      <!-- 160 -->
      <g transform="translate(337.661433 322.182437)scale(0.1 -0.1)">
       <defs>
        <path d="M 33.015625 40.375 
Q 26.375 40.375 22.484375 35.828125 
Q 18.609375 31.296875 18.609375 23.390625 
Q 18.609375 15.53125 22.484375 10.953125 
Q 26.375 6.390625 33.015625 6.390625 
Q 39.65625 6.390625 43.53125 10.953125 
Q 47.40625 15.53125 47.40625 23.390625 
Q 47.40625 31.296875 43.53125 35.828125 
Q 39.65625 40.375 33.015625 40.375 
z
M 52.59375 71.296875 
L 52.59375 62.3125 
Q 48.875 64.0625 45.09375 64.984375 
Q 41.3125 65.921875 37.59375 65.921875 
Q 27.828125 65.921875 22.671875 59.328125 
Q 17.53125 52.734375 16.796875 39.40625 
Q 19.671875 43.65625 24.015625 45.921875 
Q 28.375 48.1875 33.59375 48.1875 
Q 44.578125 48.1875 50.953125 41.515625 
Q 57.328125 34.859375 57.328125 23.390625 
Q 57.328125 12.15625 50.6875 5.359375 
Q 44.046875 -1.421875 33.015625 -1.421875 
Q 20.359375 -1.421875 13.671875 8.265625 
Q 6.984375 17.96875 6.984375 36.375 
Q 6.984375 53.65625 15.1875 63.9375 
Q 23.390625 74.21875 37.203125 74.21875 
Q 40.921875 74.21875 44.703125 73.484375 
Q 48.484375 72.75 52.59375 71.296875 
z
" id="DejaVuSans-54"/>
       </defs>
       <use xlink:href="#DejaVuSans-49"/>
       <use x="63.623047" xlink:href="#DejaVuSans-54"/>
       <use x="127.246094" xlink:href="#DejaVuSans-48"/>
      </g>
     </g>
    </g>
    <g id="xtick_6">
     <g id="line2d_6">
      <g>
       <use style="stroke:#000000;stroke-width:0.8;" x="407.595496" xlink:href="#mc99379c10e" y="307.584"/>
      </g>
     </g>
     <g id="text_6">
      <!-- 180 -->
      <g transform="translate(398.051746 322.182437)scale(0.1 -0.1)">
       <use xlink:href="#DejaVuSans-49"/>
       <use x="63.623047" xlink:href="#DejaVuSans-56"/>
       <use x="127.246094" xlink:href="#DejaVuSans-48"/>
      </g>
     </g>
    </g>
   </g>
   <g id="matplotlib.axis_2">
    <g id="ytick_1">
     <g id="line2d_7">
      <defs>
       <path d="M 0 0 
L -3.5 0 
" id="md7115c8edd" style="stroke:#000000;stroke-width:0.8;"/>
      </defs>
      <g>
       <use style="stroke:#000000;stroke-width:0.8;" x="57.6" xlink:href="#md7115c8edd" y="287.067555"/>
      </g>
     </g>
     <g id="text_7">
      <!-- 80 -->
      <g transform="translate(37.875 290.866774)scale(0.1 -0.1)">
       <use xlink:href="#DejaVuSans-56"/>
       <use x="63.623047" xlink:href="#DejaVuSans-48"/>
      </g>
     </g>
    </g>
    <g id="ytick_2">
     <g id="line2d_8">
      <g>
       <use style="stroke:#000000;stroke-width:0.8;" x="57.6" xlink:href="#md7115c8edd" y="256.872398"/>
      </g>
     </g>
     <g id="text_8">
      <!-- 90 -->
      <g transform="translate(37.875 260.671617)scale(0.1 -0.1)">
       <defs>
        <path d="M 10.984375 1.515625 
L 10.984375 10.5 
Q 14.703125 8.734375 18.5 7.8125 
Q 22.3125 6.890625 25.984375 6.890625 
Q 35.75 6.890625 40.890625 13.453125 
Q 46.046875 20.015625 46.78125 33.40625 
Q 43.953125 29.203125 39.59375 26.953125 
Q 35.25 24.703125 29.984375 24.703125 
Q 19.046875 24.703125 12.671875 31.3125 
Q 6.296875 37.9375 6.296875 49.421875 
Q 6.296875 60.640625 12.9375 67.421875 
Q 19.578125 74.21875 30.609375 74.21875 
Q 43.265625 74.21875 49.921875 64.515625 
Q 56.59375 54.828125 56.59375 36.375 
Q 56.59375 19.140625 48.40625 8.859375 
Q 40.234375 -1.421875 26.421875 -1.421875 
Q 22.703125 -1.421875 18.890625 -0.6875 
Q 15.09375 0.046875 10.984375 1.515625 
z
M 30.609375 32.421875 
Q 37.25 32.421875 41.125 36.953125 
Q 45.015625 41.5 45.015625 49.421875 
Q 45.015625 57.28125 41.125 61.84375 
Q 37.25 66.40625 30.609375 66.40625 
Q 23.96875 66.40625 20.09375 61.84375 
Q 16.21875 57.28125 16.21875 49.421875 
Q 16.21875 41.5 20.09375 36.953125 
Q 23.96875 32.421875 30.609375 32.421875 
z
" id="DejaVuSans-57"/>
       </defs>
       <use xlink:href="#DejaVuSans-57"/>
       <use x="63.623047" xlink:href="#DejaVuSans-48"/>
      </g>
     </g>
    </g>
    <g id="ytick_3">
     <g id="line2d_9">
      <g>
       <use style="stroke:#000000;stroke-width:0.8;" x="57.6" xlink:href="#md7115c8edd" y="226.677242"/>
      </g>
     </g>
     <g id="text_9">
      <!-- 100 -->
      <g transform="translate(31.5125 230.476461)scale(0.1 -0.1)">
       <use xlink:href="#DejaVuSans-49"/>
       <use x="63.623047" xlink:href="#DejaVuSans-48"/>
       <use x="127.246094" xlink:href="#DejaVuSans-48"/>
      </g>
     </g>
    </g>
    <g id="ytick_4">
     <g id="line2d_10">
      <g>
       <use style="stroke:#000000;stroke-width:0.8;" x="57.6" xlink:href="#md7115c8edd" y="196.482085"/>
      </g>
     </g>
     <g id="text_10">
      <!-- 110 -->
      <g transform="translate(31.5125 200.281304)scale(0.1 -0.1)">
       <use xlink:href="#DejaVuSans-49"/>
       <use x="63.623047" xlink:href="#DejaVuSans-49"/>
       <use x="127.246094" xlink:href="#DejaVuSans-48"/>
      </g>
     </g>
    </g>
    <g id="ytick_5">
     <g id="line2d_11">
      <g>
       <use style="stroke:#000000;stroke-width:0.8;" x="57.6" xlink:href="#md7115c8edd" y="166.286929"/>
      </g>
     </g>
     <g id="text_11">
      <!-- 120 -->
      <g transform="translate(31.5125 170.086148)scale(0.1 -0.1)">
       <use xlink:href="#DejaVuSans-49"/>
       <use x="63.623047" xlink:href="#DejaVuSans-50"/>
       <use x="127.246094" xlink:href="#DejaVuSans-48"/>
      </g>
     </g>
    </g>
    <g id="ytick_6">
     <g id="line2d_12">
      <g>
       <use style="stroke:#000000;stroke-width:0.8;" x="57.6" xlink:href="#md7115c8edd" y="136.091772"/>
      </g>
     </g>
     <g id="text_12">
      <!-- 130 -->
      <g transform="translate(31.5125 139.890991)scale(0.1 -0.1)">
       <defs>
        <path d="M 40.578125 39.3125 
Q 47.65625 37.796875 51.625 33 
Q 55.609375 28.21875 55.609375 21.1875 
Q 55.609375 10.40625 48.1875 4.484375 
Q 40.765625 -1.421875 27.09375 -1.421875 
Q 22.515625 -1.421875 17.65625 -0.515625 
Q 12.796875 0.390625 7.625 2.203125 
L 7.625 11.71875 
Q 11.71875 9.328125 16.59375 8.109375 
Q 21.484375 6.890625 26.8125 6.890625 
Q 36.078125 6.890625 40.9375 10.546875 
Q 45.796875 14.203125 45.796875 21.1875 
Q 45.796875 27.640625 41.28125 31.265625 
Q 36.765625 34.90625 28.71875 34.90625 
L 20.21875 34.90625 
L 20.21875 43.015625 
L 29.109375 43.015625 
Q 36.375 43.015625 40.234375 45.921875 
Q 44.09375 48.828125 44.09375 54.296875 
Q 44.09375 59.90625 40.109375 62.90625 
Q 36.140625 65.921875 28.71875 65.921875 
Q 24.65625 65.921875 20.015625 65.03125 
Q 15.375 64.15625 9.8125 62.3125 
L 9.8125 71.09375 
Q 15.4375 72.65625 20.34375 73.4375 
Q 25.25 74.21875 29.59375 74.21875 
Q 40.828125 74.21875 47.359375 69.109375 
Q 53.90625 64.015625 53.90625 55.328125 
Q 53.90625 49.265625 50.4375 45.09375 
Q 46.96875 40.921875 40.578125 39.3125 
z
" id="DejaVuSans-51"/>
       </defs>
       <use xlink:href="#DejaVuSans-49"/>
       <use x="63.623047" xlink:href="#DejaVuSans-51"/>
       <use x="127.246094" xlink:href="#DejaVuSans-48"/>
      </g>
     </g>
    </g>
    <g id="ytick_7">
     <g id="line2d_13">
      <g>
       <use style="stroke:#000000;stroke-width:0.8;" x="57.6" xlink:href="#md7115c8edd" y="105.896616"/>
      </g>
     </g>
     <g id="text_13">
      <!-- 140 -->
      <g transform="translate(31.5125 109.695835)scale(0.1 -0.1)">
       <use xlink:href="#DejaVuSans-49"/>
       <use x="63.623047" xlink:href="#DejaVuSans-52"/>
       <use x="127.246094" xlink:href="#DejaVuSans-48"/>
      </g>
     </g>
    </g>
    <g id="ytick_8">
     <g id="line2d_14">
      <g>
       <use style="stroke:#000000;stroke-width:0.8;" x="57.6" xlink:href="#md7115c8edd" y="75.701459"/>
      </g>
     </g>
     <g id="text_14">
      <!-- 150 -->
      <g transform="translate(31.5125 79.500678)scale(0.1 -0.1)">
       <defs>
        <path d="M 10.796875 72.90625 
L 49.515625 72.90625 
L 49.515625 64.59375 
L 19.828125 64.59375 
L 19.828125 46.734375 
Q 21.96875 47.46875 24.109375 47.828125 
Q 26.265625 48.1875 28.421875 48.1875 
Q 40.625 48.1875 47.75 41.5 
Q 54.890625 34.8125 54.890625 23.390625 
Q 54.890625 11.625 47.5625 5.09375 
Q 40.234375 -1.421875 26.90625 -1.421875 
Q 22.3125 -1.421875 17.546875 -0.640625 
Q 12.796875 0.140625 7.71875 1.703125 
L 7.71875 11.625 
Q 12.109375 9.234375 16.796875 8.0625 
Q 21.484375 6.890625 26.703125 6.890625 
Q 35.15625 6.890625 40.078125 11.328125 
Q 45.015625 15.765625 45.015625 23.390625 
Q 45.015625 31 40.078125 35.4375 
Q 35.15625 39.890625 26.703125 39.890625 
Q 22.75 39.890625 18.8125 39.015625 
Q 14.890625 38.140625 10.796875 36.28125 
z
" id="DejaVuSans-53"/>
       </defs>
       <use xlink:href="#DejaVuSans-49"/>
       <use x="63.623047" xlink:href="#DejaVuSans-53"/>
       <use x="127.246094" xlink:href="#DejaVuSans-48"/>
      </g>
     </g>
    </g>
    <g id="ytick_9">
     <g id="line2d_15">
      <g>
       <use style="stroke:#000000;stroke-width:0.8;" x="57.6" xlink:href="#md7115c8edd" y="45.506303"/>
      </g>
     </g>
     <g id="text_15">
      <!-- 160 -->
      <g transform="translate(31.5125 49.305522)scale(0.1 -0.1)">
       <use xlink:href="#DejaVuSans-49"/>
       <use x="63.623047" xlink:href="#DejaVuSans-54"/>
       <use x="127.246094" xlink:href="#DejaVuSans-48"/>
      </g>
     </g>
    </g>
   </g>
   <g id="line2d_16">
    <path clip-path="url(#p9eddcb18ee)" d="M 84.507321 57.584366 
L 87.309432 62.877576 
L 90.105503 68.107378 
L 92.895536 73.276788 
L 95.682549 78.382789 
L 98.460503 83.42538 
L 101.235438 88.407581 
L 104.004334 93.326372 
L 106.767191 98.181753 
L 109.524008 102.976744 
L 112.274787 107.708325 
L 115.019527 112.379516 
L 117.761247 116.987297 
L 120.496928 121.531668 
L 123.22657 126.015649 
L 125.950173 130.43622 
L 128.667738 134.793381 
L 131.379263 139.090151 
L 134.087768 143.323512 
L 136.790235 147.493464 
L 139.486662 151.603024 
L 142.177051 155.649175 
L 144.8614 159.634936 
L 147.53971 163.557287 
L 150.215001 167.416228 
L 152.881234 171.214778 
L 155.544446 174.949919 
L 158.20162 178.62165 
L 160.852755 182.232991 
L 163.497851 185.780922 
L 166.139927 189.268463 
L 168.772944 192.689574 
L 171.402943 196.053314 
L 174.026902 199.350625 
L 176.644822 202.587546 
L 179.256703 205.761057 
L 181.865564 208.874178 
L 184.465367 211.923888 
L 187.062151 214.913209 
L 189.652895 217.8361 
L 192.237601 220.70162 
L 194.816267 223.500711 
L 197.388894 226.239412 
L 199.958502 228.914703 
L 202.519051 231.529604 
L 205.076581 234.081094 
L 207.628072 236.569175 
L 210.173524 238.996866 
L 212.712936 241.361147 
L 215.249329 243.662017 
L 217.776664 245.902498 
L 220.300979 248.079569 
L 222.819255 250.196249 
L 225.331492 252.24952 
L 227.83769 254.239381 
L 230.340869 256.168851 
L 232.834988 258.034912 
L 235.326089 259.837563 
L 237.808131 261.579823 
L 240.287153 263.258674 
L 242.763156 264.874115 
L 245.2301 266.429165 
L 247.691005 267.920806 
L 250.148891 269.352057 
L 252.600738 270.719897 
L 255.046546 272.024328 
L 257.486314 273.268368 
L 259.920044 274.448999 
L 262.347734 275.56622 
L 264.772405 276.62305 
L 267.188018 277.616471 
L 269.600611 278.546482 
L 272.007165 279.416102 
L 274.40768 280.222313 
L 276.805175 280.968133 
L 279.193612 281.650544 
L 281.57903 282.269545 
L 283.958408 282.828155 
L 286.331747 283.323356 
L 288.699048 283.755146 
L 291.060309 284.126547 
L 293.415531 284.434537 
L 295.767734 284.682138 
L 298.113897 284.866328 
L 300.451002 284.987109 
L 302.788108 285.044479 
L 305.116154 285.04146 
L 307.438162 284.97805 
L 309.75715 284.848211 
L 312.067079 284.661001 
L 314.373989 284.407362 
L 316.67486 284.093332 
L 318.969692 283.715893 
L 321.258485 283.275043 
L 323.544258 282.773804 
L 325.823992 282.212174 
L 328.094668 281.584115 
L 330.362324 280.895665 
L 332.623942 280.146825 
L 334.87952 279.331556 
L 337.132079 278.455896 
L 339.375579 277.519846 
L 341.616059 276.520387 
L 343.850501 275.457517 
L 346.078903 274.331238 
L 348.301267 273.144568 
L 350.517591 271.894489 
L 352.730896 270.584019 
L 354.938162 269.210139 
L 357.13637 267.775869 
L 359.331558 266.27517 
L 361.520706 264.714081 
L 363.706836 263.092601 
L 365.883907 261.407711 
L 368.057958 259.659411 
L 370.222951 257.847702 
L 372.384924 255.975602 
L 374.540858 254.043112 
L 376.693773 252.044193 
L 378.837629 249.984883 
L 380.975446 247.865183 
L 383.110243 245.682073 
L 385.239002 243.435554 
L 387.361721 241.125624 
L 389.478402 238.755305 
" style="fill:none;stroke:#fea952;stroke-linecap:square;"/>
   </g>
   <g id="line2d_17">
    <path clip-path="url(#p9eddcb18ee)" d="M 95.181915 51.933468 
L 97.960752 57.182933 
L 100.734301 62.370807 
L 103.497136 67.490108 
L 106.261524 72.554851 
L 109.012288 77.548356 
L 111.760483 82.482801 
L 114.501859 87.352967 
L 117.238024 92.161684 
L 119.965715 96.906295 
L 122.688223 101.589506 
L 125.399116 106.203456 
L 128.108989 110.758025 
L 130.813724 115.251275 
L 133.509575 119.680082 
L 136.19833 124.044438 
L 138.881993 128.347561 
L 141.553192 132.580869 
L 144.223421 136.754788 
L 146.888605 140.867567 
L 149.544293 144.91545 
L 152.19497 148.902258 
L 154.835912 152.82401 
L 157.465723 156.675872 
L 160.100867 160.477262 
L 162.715463 164.202822 
L 165.329087 167.86893 
L 167.937806 171.474183 
L 170.535933 175.013873 
L 173.125179 178.487491 
L 175.711404 181.901888 
L 178.287903 185.250141 
L 180.853714 188.532508 
L 183.417981 191.755415 
L 185.970548 194.912234 
L 188.513949 198.003287 
L 191.057079 201.038639 
L 193.583505 204.003082 
L 196.100732 206.901739 
L 198.621514 209.746387 
L 201.120681 212.518071 
L 203.619486 215.231315 
L 206.099694 217.872718 
L 208.588196 220.464379 
L 211.04943 222.979034 
L 213.508934 225.433839 
L 215.963981 227.828912 
L 218.403739 230.157005 
L 220.827974 232.415435 
L 223.261486 234.624045 
L 225.664857 236.756133 
L 228.072353 238.83374 
L 230.462643 240.844339 
L 232.841801 242.790405 
L 235.211291 244.673316 
L 237.576461 246.497978 
L 239.915671 248.250049 
L 242.265311 249.951877 
L 244.580743 251.579257 
L 246.886891 253.143188 
L 249.203814 254.656605 
L 251.490743 256.100373 
L 253.768817 257.483383 
L 256.033257 258.804363 
L 258.284532 260.062783 
L 260.533079 261.26433 
L 262.757968 262.40148 
L 264.969336 263.477024 
L 267.173655 264.494179 
L 269.366209 265.452707 
L 271.532295 266.346739 
L 273.70531 267.187298 
L 275.852498 267.966517 
L 277.995374 268.689401 
L 280.123274 269.354787 
L 282.227317 269.959683 
L 284.339559 270.511183 
L 286.425384 271.00472 
L 288.499005 271.441327 
L 290.575721 271.823772 
L 292.626414 272.150449 
L 294.67992 272.422838 
L 296.713038 272.641125 
L 298.737255 272.804362 
L 300.747403 272.912683 
L 302.772442 272.966427 
L 304.786447 272.967898 
L 306.762973 272.918874 
L 308.781473 272.809621 
L 310.747079 272.655286 
L 312.740682 272.440244 
L 314.714673 272.175393 
L 316.685299 271.855827 
L 318.671399 271.477307 
L 320.655118 271.04638 
L 322.604149 270.571203 
L 324.585962 270.026927 
L 326.565876 269.429778 
L 328.518332 268.787971 
L 330.503328 268.074179 
L 332.481344 267.309136 
L 334.455045 266.489527 
L 336.427872 265.613402 
L 338.402337 264.678041 
L 340.389851 263.67693 
L 342.367616 262.624521 
L 344.364053 261.501531 
L 346.34846 260.330039 
L 348.338187 259.094808 
L 350.320016 257.805066 
L 352.319027 256.44135 
L 354.325424 255.013178 
L 356.314573 253.540949 
L 358.314912 251.995489 
L 360.306726 250.39669 
L 362.316543 248.717077 
L 364.323237 246.981782 
L 366.322803 245.191944 
L 368.326776 243.333684 
L 370.333568 241.408138 
L 372.339949 239.42079 
L 374.34307 237.37447 
L 376.345749 235.263061 
L 378.352851 233.08076 
L 380.469531 230.71044 
" style="fill:none;stroke:#ffffff;stroke-linecap:square;"/>
   </g>
   <g id="line2d_18">
    <path clip-path="url(#p9eddcb18ee)" d="M 73.832727 63.235263 
L 76.658111 68.57222 
L 79.476705 73.843949 
L 82.293936 79.063469 
L 85.103573 84.210728 
L 87.908718 89.302405 
L 90.710393 94.332361 
L 93.506809 99.299777 
L 96.296357 104.201823 
L 99.082302 109.047194 
L 101.861351 113.827144 
L 104.639937 118.555576 
L 107.413505 123.216569 
L 110.180133 127.812061 
L 112.943566 132.351216 
L 115.702017 136.828001 
L 118.453482 141.2392 
L 121.205333 145.599434 
L 123.952116 149.892237 
L 126.691864 154.11936 
L 129.429031 158.290599 
L 132.159131 162.396092 
L 134.886888 166.445861 
L 137.613697 170.438701 
L 140.329135 174.355194 
L 143.047004 178.226735 
L 145.759806 182.030909 
L 148.465435 185.769118 
L 151.169577 189.452109 
L 153.870522 193.074353 
L 156.568449 196.635037 
L 159.257986 200.129007 
L 161.952171 203.57412 
L 164.635822 206.945836 
L 167.319095 210.262859 
L 169.999457 213.518827 
L 172.67405 216.709716 
L 175.34723 219.844695 
L 178.02357 222.924679 
L 180.684276 225.925814 
L 183.35452 228.88517 
L 186.013047 231.770108 
L 188.678094 234.606106 
L 191.328808 237.365027 
L 193.988672 240.080173 
L 196.644228 242.728349 
L 199.292162 245.309439 
L 201.943308 247.836727 
L 204.597898 250.306858 
L 207.237172 252.69999 
L 209.888471 255.048864 
L 212.529605 257.325397 
L 215.175867 259.548159 
L 217.821183 261.708635 
L 220.464089 263.805446 
L 223.105276 265.839725 
L 225.754306 267.819774 
L 228.386866 269.723249 
L 231.035518 271.580389 
L 233.687415 273.37416 
L 236.322498 275.091625 
L 238.969458 276.757958 
L 241.613194 278.358229 
L 244.264525 279.89975 
L 246.916944 281.377011 
L 249.560012 282.784326 
L 252.21466 284.135257 
L 254.870752 285.420974 
L 257.521814 286.638261 
L 260.178602 287.793393 
L 262.843741 288.886203 
L 265.495912 289.905665 
L 268.161832 290.865688 
L 270.819986 291.755224 
L 273.487076 292.58148 
L 276.159908 293.341405 
L 278.8185 294.027906 
L 281.491432 294.65159 
L 284.16449 295.205384 
L 286.822374 295.68652 
L 289.494204 296.102644 
L 292.151142 296.446236 
L 294.822429 296.723151 
L 297.49054 296.928294 
L 300.154602 297.061534 
L 302.803773 297.122532 
L 305.445861 297.115022 
L 308.11335 297.037226 
L 310.732826 296.886801 
L 313.387079 296.666716 
L 316.007296 296.374479 
L 318.635047 296.011271 
L 321.254084 295.575958 
L 323.845571 295.07278 
L 326.433398 294.501227 
L 329.043835 293.853145 
L 331.603375 293.141302 
L 334.158773 292.361552 
L 336.729552 291.505679 
L 339.255712 290.588933 
L 341.782813 289.602657 
L 344.296112 288.550166 
L 346.804246 287.427371 
L 349.298664 286.236994 
L 351.767956 284.985546 
L 354.234917 283.664615 
L 356.67113 282.287446 
L 359.113333 280.837999 
L 361.538138 279.32547 
L 363.952724 277.746673 
L 366.344088 276.10899 
L 368.715989 274.414983 
L 371.099099 272.644252 
L 373.452901 270.819932 
L 375.809189 268.922133 
L 378.129358 266.978327 
L 380.446611 264.969422 
L 382.758913 262.89428 
L 385.060769 260.754702 
L 387.341689 258.561628 
L 389.610943 256.309577 
L 391.877416 253.989677 
L 394.132255 251.608047 
L 396.370592 249.170489 
L 398.487273 246.800169 
" style="fill:none;stroke:#ffffff;stroke-linecap:square;"/>
   </g>
   <g id="patch_3">
    <path d="M 57.6 307.584 
L 57.6 41.472 
" style="fill:none;stroke:#000000;stroke-linecap:square;stroke-linejoin:miter;stroke-width:0.8;"/>
   </g>
   <g id="patch_4">
    <path d="M 414.72 307.584 
L 414.72 41.472 
" style="fill:none;stroke:#000000;stroke-linecap:square;stroke-linejoin:miter;stroke-width:0.8;"/>
   </g>
   <g id="patch_5">
    <path d="M 57.6 307.584 
L 414.72 307.584 
" style="fill:none;stroke:#000000;stroke-linecap:square;stroke-linejoin:miter;stroke-width:0.8;"/>
   </g>
   <g id="patch_6">
    <path d="M 57.6 41.472 
L 414.72 41.472 
" style="fill:none;stroke:#000000;stroke-linecap:square;stroke-linejoin:miter;stroke-width:0.8;"/>
   </g>
  </g>
 </g>
 <defs>
  <clipPath id="p9eddcb18ee">
   <rect height="266.112" width="357.12" x="57.6" y="41.472"/>
  </clipPath>
 </defs>
</svg>
