<?xml version="1.0" encoding="utf-8" standalone="no"?>
<!DOCTYPE svg PUBLIC "-//W3C//DTD SVG 1.1//EN"
  "http://www.w3.org/Graphics/SVG/1.1/DTD/svg11.dtd">
<!-- Created with matplotlib (https://matplotlib.org/) -->
<svg height="345.6pt" version="1.1" viewBox="0 0 460.8 345.6" width="460.8pt" xmlns="http://www.w3.org/2000/svg" xmlns:xlink="http://www.w3.org/1999/xlink">
 <metadata>
  <rdf:RDF xmlns:cc="http://creativecommons.org/ns#" xmlns:dc="http://purl.org/dc/elements/1.1/" xmlns:rdf="http://www.w3.org/1999/02/22-rdf-syntax-ns#">
   <cc:Work>
    <dc:type rdf:resource="http://purl.org/dc/dcmitype/StillImage"/>
    <dc:date>2021-07-14T13:54:40.372146</dc:date>
    <dc:format>image/svg+xml</dc:format>
    <dc:creator>
     <cc:Agent>
      <dc:title>Matplotlib v3.3.3, https://matplotlib.org/</dc:title>
     </cc:Agent>
    </dc:creator>
   </cc:Work>
  </rdf:RDF>
 </metadata>
 <defs>
  <style type="text/css">*{stroke-linecap:butt;stroke-linejoin:round;}</style>
 </defs>
 <g id="figure_1">
  <g id="patch_1">
   <path d="M 0 345.6 
L 460.8 345.6 
L 460.8 0 
L 0 0 
z
" style="fill:#ffffff;"/>
  </g>
  <g id="axes_1">
   <g id="patch_2">
    <path d="M 57.6 307.584 
L 414.72 307.584 
L 414.72 41.472 
L 57.6 41.472 
z
" style="fill:#7d9051;"/>
   </g>
   <g id="matplotlib.axis_1">
    <g id="xtick_1">
     <g id="line2d_1">
      <defs>
       <path d="M 0 0 
L 0 3.5 
" id="m9531454f25" style="stroke:#000000;stroke-width:0.8;"/>
      </defs>
      <g>
       <use style="stroke:#000000;stroke-width:0.8;" x="81.683037" xlink:href="#m9531454f25" y="307.584"/>
      </g>
     </g>
     <g id="text_1">
      <!-- −25 -->
      <g transform="translate(71.130693 322.182437)scale(0.1 -0.1)">
       <defs>
        <path d="M 10.59375 35.5 
L 73.1875 35.5 
L 73.1875 27.203125 
L 10.59375 27.203125 
z
" id="DejaVuSans-8722"/>
        <path d="M 19.1875 8.296875 
L 53.609375 8.296875 
L 53.609375 0 
L 7.328125 0 
L 7.328125 8.296875 
Q 12.9375 14.109375 22.625 23.890625 
Q 32.328125 33.6875 34.8125 36.53125 
Q 39.546875 41.84375 41.421875 45.53125 
Q 43.3125 49.21875 43.3125 52.78125 
Q 43.3125 58.59375 39.234375 62.25 
Q 35.15625 65.921875 28.609375 65.921875 
Q 23.96875 65.921875 18.8125 64.3125 
Q 13.671875 62.703125 7.8125 59.421875 
L 7.8125 69.390625 
Q 13.765625 71.78125 18.9375 73 
Q 24.125 74.21875 28.421875 74.21875 
Q 39.75 74.21875 46.484375 68.546875 
Q 53.21875 62.890625 53.21875 53.421875 
Q 53.21875 48.921875 51.53125 44.890625 
Q 49.859375 40.875 45.40625 35.40625 
Q 44.1875 33.984375 37.640625 27.21875 
Q 31.109375 20.453125 19.1875 8.296875 
z
" id="DejaVuSans-50"/>
        <path d="M 10.796875 72.90625 
L 49.515625 72.90625 
L 49.515625 64.59375 
L 19.828125 64.59375 
L 19.828125 46.734375 
Q 21.96875 47.46875 24.109375 47.828125 
Q 26.265625 48.1875 28.421875 48.1875 
Q 40.625 48.1875 47.75 41.5 
Q 54.890625 34.8125 54.890625 23.390625 
Q 54.890625 11.625 47.5625 5.09375 
Q 40.234375 -1.421875 26.90625 -1.421875 
Q 22.3125 -1.421875 17.546875 -0.640625 
Q 12.796875 0.140625 7.71875 1.703125 
L 7.71875 11.625 
Q 12.109375 9.234375 16.796875 8.0625 
Q 21.484375 6.890625 26.703125 6.890625 
Q 35.15625 6.890625 40.078125 11.328125 
Q 45.015625 15.765625 45.015625 23.390625 
Q 45.015625 31 40.078125 35.4375 
Q 35.15625 39.890625 26.703125 39.890625 
Q 22.75 39.890625 18.8125 39.015625 
Q 14.890625 38.140625 10.796875 36.28125 
z
" id="DejaVuSans-53"/>
       </defs>
       <use xlink:href="#DejaVuSans-8722"/>
       <use x="83.789062" xlink:href="#DejaVuSans-50"/>
       <use x="147.412109" xlink:href="#DejaVuSans-53"/>
      </g>
     </g>
    </g>
    <g id="xtick_2">
     <g id="line2d_2">
      <g>
       <use style="stroke:#000000;stroke-width:0.8;" x="123.080808" xlink:href="#m9531454f25" y="307.584"/>
      </g>
     </g>
     <g id="text_2">
      <!-- 0 -->
      <g transform="translate(119.899558 322.182437)scale(0.1 -0.1)">
       <defs>
        <path d="M 31.78125 66.40625 
Q 24.171875 66.40625 20.328125 58.90625 
Q 16.5 51.421875 16.5 36.375 
Q 16.5 21.390625 20.328125 13.890625 
Q 24.171875 6.390625 31.78125 6.390625 
Q 39.453125 6.390625 43.28125 13.890625 
Q 47.125 21.390625 47.125 36.375 
Q 47.125 51.421875 43.28125 58.90625 
Q 39.453125 66.40625 31.78125 66.40625 
z
M 31.78125 74.21875 
Q 44.046875 74.21875 50.515625 64.515625 
Q 56.984375 54.828125 56.984375 36.375 
Q 56.984375 17.96875 50.515625 8.265625 
Q 44.046875 -1.421875 31.78125 -1.421875 
Q 19.53125 -1.421875 13.0625 8.265625 
Q 6.59375 17.96875 6.59375 36.375 
Q 6.59375 54.828125 13.0625 64.515625 
Q 19.53125 74.21875 31.78125 74.21875 
z
" id="DejaVuSans-48"/>
       </defs>
       <use xlink:href="#DejaVuSans-48"/>
      </g>
     </g>
    </g>
    <g id="xtick_3">
     <g id="line2d_3">
      <g>
       <use style="stroke:#000000;stroke-width:0.8;" x="164.47858" xlink:href="#m9531454f25" y="307.584"/>
      </g>
     </g>
     <g id="text_3">
      <!-- 25 -->
      <g transform="translate(158.11608 322.182437)scale(0.1 -0.1)">
       <use xlink:href="#DejaVuSans-50"/>
       <use x="63.623047" xlink:href="#DejaVuSans-53"/>
      </g>
     </g>
    </g>
    <g id="xtick_4">
     <g id="line2d_4">
      <g>
       <use style="stroke:#000000;stroke-width:0.8;" x="205.876352" xlink:href="#m9531454f25" y="307.584"/>
      </g>
     </g>
     <g id="text_4">
      <!-- 50 -->
      <g transform="translate(199.513852 322.182437)scale(0.1 -0.1)">
       <use xlink:href="#DejaVuSans-53"/>
       <use x="63.623047" xlink:href="#DejaVuSans-48"/>
      </g>
     </g>
    </g>
    <g id="xtick_5">
     <g id="line2d_5">
      <g>
       <use style="stroke:#000000;stroke-width:0.8;" x="247.274123" xlink:href="#m9531454f25" y="307.584"/>
      </g>
     </g>
     <g id="text_5">
      <!-- 75 -->
      <g transform="translate(240.911623 322.182437)scale(0.1 -0.1)">
       <defs>
        <path d="M 8.203125 72.90625 
L 55.078125 72.90625 
L 55.078125 68.703125 
L 28.609375 0 
L 18.3125 0 
L 43.21875 64.59375 
L 8.203125 64.59375 
z
" id="DejaVuSans-55"/>
       </defs>
       <use xlink:href="#DejaVuSans-55"/>
       <use x="63.623047" xlink:href="#DejaVuSans-53"/>
      </g>
     </g>
    </g>
    <g id="xtick_6">
     <g id="line2d_6">
      <g>
       <use style="stroke:#000000;stroke-width:0.8;" x="288.671895" xlink:href="#m9531454f25" y="307.584"/>
      </g>
     </g>
     <g id="text_6">
      <!-- 100 -->
      <g transform="translate(279.128145 322.182437)scale(0.1 -0.1)">
       <defs>
        <path d="M 12.40625 8.296875 
L 28.515625 8.296875 
L 28.515625 63.921875 
L 10.984375 60.40625 
L 10.984375 69.390625 
L 28.421875 72.90625 
L 38.28125 72.90625 
L 38.28125 8.296875 
L 54.390625 8.296875 
L 54.390625 0 
L 12.40625 0 
z
" id="DejaVuSans-49"/>
       </defs>
       <use xlink:href="#DejaVuSans-49"/>
       <use x="63.623047" xlink:href="#DejaVuSans-48"/>
       <use x="127.246094" xlink:href="#DejaVuSans-48"/>
      </g>
     </g>
    </g>
    <g id="xtick_7">
     <g id="line2d_7">
      <g>
       <use style="stroke:#000000;stroke-width:0.8;" x="330.069667" xlink:href="#m9531454f25" y="307.584"/>
      </g>
     </g>
     <g id="text_7">
      <!-- 125 -->
      <g transform="translate(320.525917 322.182437)scale(0.1 -0.1)">
       <use xlink:href="#DejaVuSans-49"/>
       <use x="63.623047" xlink:href="#DejaVuSans-50"/>
       <use x="127.246094" xlink:href="#DejaVuSans-53"/>
      </g>
     </g>
    </g>
    <g id="xtick_8">
     <g id="line2d_8">
      <g>
       <use style="stroke:#000000;stroke-width:0.8;" x="371.467438" xlink:href="#m9531454f25" y="307.584"/>
      </g>
     </g>
     <g id="text_8">
      <!-- 150 -->
      <g transform="translate(361.923688 322.182437)scale(0.1 -0.1)">
       <use xlink:href="#DejaVuSans-49"/>
       <use x="63.623047" xlink:href="#DejaVuSans-53"/>
       <use x="127.246094" xlink:href="#DejaVuSans-48"/>
      </g>
     </g>
    </g>
    <g id="xtick_9">
     <g id="line2d_9">
      <g>
       <use style="stroke:#000000;stroke-width:0.8;" x="412.86521" xlink:href="#m9531454f25" y="307.584"/>
      </g>
     </g>
     <g id="text_9">
      <!-- 175 -->
      <g transform="translate(403.32146 322.182437)scale(0.1 -0.1)">
       <use xlink:href="#DejaVuSans-49"/>
       <use x="63.623047" xlink:href="#DejaVuSans-55"/>
       <use x="127.246094" xlink:href="#DejaVuSans-53"/>
      </g>
     </g>
    </g>
   </g>
   <g id="matplotlib.axis_2">
    <g id="ytick_1">
     <g id="line2d_10">
      <defs>
       <path d="M 0 0 
L -3.5 0 
" id="mce6a269f84" style="stroke:#000000;stroke-width:0.8;"/>
      </defs>
      <g>
       <use style="stroke:#000000;stroke-width:0.8;" x="57.6" xlink:href="#mce6a269f84" y="303.708003"/>
      </g>
     </g>
     <g id="text_10">
      <!-- 20 -->
      <g transform="translate(37.875 307.507222)scale(0.1 -0.1)">
       <use xlink:href="#DejaVuSans-50"/>
       <use x="63.623047" xlink:href="#DejaVuSans-48"/>
      </g>
     </g>
    </g>
    <g id="ytick_2">
     <g id="line2d_11">
      <g>
       <use style="stroke:#000000;stroke-width:0.8;" x="57.6" xlink:href="#mce6a269f84" y="270.589786"/>
      </g>
     </g>
     <g id="text_11">
      <!-- 40 -->
      <g transform="translate(37.875 274.389005)scale(0.1 -0.1)">
       <defs>
        <path d="M 37.796875 64.3125 
L 12.890625 25.390625 
L 37.796875 25.390625 
z
M 35.203125 72.90625 
L 47.609375 72.90625 
L 47.609375 25.390625 
L 58.015625 25.390625 
L 58.015625 17.1875 
L 47.609375 17.1875 
L 47.609375 0 
L 37.796875 0 
L 37.796875 17.1875 
L 4.890625 17.1875 
L 4.890625 26.703125 
z
" id="DejaVuSans-52"/>
       </defs>
       <use xlink:href="#DejaVuSans-52"/>
       <use x="63.623047" xlink:href="#DejaVuSans-48"/>
      </g>
     </g>
    </g>
    <g id="ytick_3">
     <g id="line2d_12">
      <g>
       <use style="stroke:#000000;stroke-width:0.8;" x="57.6" xlink:href="#mce6a269f84" y="237.471569"/>
      </g>
     </g>
     <g id="text_12">
      <!-- 60 -->
      <g transform="translate(37.875 241.270788)scale(0.1 -0.1)">
       <defs>
        <path d="M 33.015625 40.375 
Q 26.375 40.375 22.484375 35.828125 
Q 18.609375 31.296875 18.609375 23.390625 
Q 18.609375 15.53125 22.484375 10.953125 
Q 26.375 6.390625 33.015625 6.390625 
Q 39.65625 6.390625 43.53125 10.953125 
Q 47.40625 15.53125 47.40625 23.390625 
Q 47.40625 31.296875 43.53125 35.828125 
Q 39.65625 40.375 33.015625 40.375 
z
M 52.59375 71.296875 
L 52.59375 62.3125 
Q 48.875 64.0625 45.09375 64.984375 
Q 41.3125 65.921875 37.59375 65.921875 
Q 27.828125 65.921875 22.671875 59.328125 
Q 17.53125 52.734375 16.796875 39.40625 
Q 19.671875 43.65625 24.015625 45.921875 
Q 28.375 48.1875 33.59375 48.1875 
Q 44.578125 48.1875 50.953125 41.515625 
Q 57.328125 34.859375 57.328125 23.390625 
Q 57.328125 12.15625 50.6875 5.359375 
Q 44.046875 -1.421875 33.015625 -1.421875 
Q 20.359375 -1.421875 13.671875 8.265625 
Q 6.984375 17.96875 6.984375 36.375 
Q 6.984375 53.65625 15.1875 63.9375 
Q 23.390625 74.21875 37.203125 74.21875 
Q 40.921875 74.21875 44.703125 73.484375 
Q 48.484375 72.75 52.59375 71.296875 
z
" id="DejaVuSans-54"/>
       </defs>
       <use xlink:href="#DejaVuSans-54"/>
       <use x="63.623047" xlink:href="#DejaVuSans-48"/>
      </g>
     </g>
    </g>
    <g id="ytick_4">
     <g id="line2d_13">
      <g>
       <use style="stroke:#000000;stroke-width:0.8;" x="57.6" xlink:href="#mce6a269f84" y="204.353352"/>
      </g>
     </g>
     <g id="text_13">
      <!-- 80 -->
      <g transform="translate(37.875 208.15257)scale(0.1 -0.1)">
       <defs>
        <path d="M 31.78125 34.625 
Q 24.75 34.625 20.71875 30.859375 
Q 16.703125 27.09375 16.703125 20.515625 
Q 16.703125 13.921875 20.71875 10.15625 
Q 24.75 6.390625 31.78125 6.390625 
Q 38.8125 6.390625 42.859375 10.171875 
Q 46.921875 13.96875 46.921875 20.515625 
Q 46.921875 27.09375 42.890625 30.859375 
Q 38.875 34.625 31.78125 34.625 
z
M 21.921875 38.8125 
Q 15.578125 40.375 12.03125 44.71875 
Q 8.5 49.078125 8.5 55.328125 
Q 8.5 64.0625 14.71875 69.140625 
Q 20.953125 74.21875 31.78125 74.21875 
Q 42.671875 74.21875 48.875 69.140625 
Q 55.078125 64.0625 55.078125 55.328125 
Q 55.078125 49.078125 51.53125 44.71875 
Q 48 40.375 41.703125 38.8125 
Q 48.828125 37.15625 52.796875 32.3125 
Q 56.78125 27.484375 56.78125 20.515625 
Q 56.78125 9.90625 50.3125 4.234375 
Q 43.84375 -1.421875 31.78125 -1.421875 
Q 19.734375 -1.421875 13.25 4.234375 
Q 6.78125 9.90625 6.78125 20.515625 
Q 6.78125 27.484375 10.78125 32.3125 
Q 14.796875 37.15625 21.921875 38.8125 
z
M 18.3125 54.390625 
Q 18.3125 48.734375 21.84375 45.5625 
Q 25.390625 42.390625 31.78125 42.390625 
Q 38.140625 42.390625 41.71875 45.5625 
Q 45.3125 48.734375 45.3125 54.390625 
Q 45.3125 60.0625 41.71875 63.234375 
Q 38.140625 66.40625 31.78125 66.40625 
Q 25.390625 66.40625 21.84375 63.234375 
Q 18.3125 60.0625 18.3125 54.390625 
z
" id="DejaVuSans-56"/>
       </defs>
       <use xlink:href="#DejaVuSans-56"/>
       <use x="63.623047" xlink:href="#DejaVuSans-48"/>
      </g>
     </g>
    </g>
    <g id="ytick_5">
     <g id="line2d_14">
      <g>
       <use style="stroke:#000000;stroke-width:0.8;" x="57.6" xlink:href="#mce6a269f84" y="171.235134"/>
      </g>
     </g>
     <g id="text_14">
      <!-- 100 -->
      <g transform="translate(31.5125 175.034353)scale(0.1 -0.1)">
       <use xlink:href="#DejaVuSans-49"/>
       <use x="63.623047" xlink:href="#DejaVuSans-48"/>
       <use x="127.246094" xlink:href="#DejaVuSans-48"/>
      </g>
     </g>
    </g>
    <g id="ytick_6">
     <g id="line2d_15">
      <g>
       <use style="stroke:#000000;stroke-width:0.8;" x="57.6" xlink:href="#mce6a269f84" y="138.116917"/>
      </g>
     </g>
     <g id="text_15">
      <!-- 120 -->
      <g transform="translate(31.5125 141.916136)scale(0.1 -0.1)">
       <use xlink:href="#DejaVuSans-49"/>
       <use x="63.623047" xlink:href="#DejaVuSans-50"/>
       <use x="127.246094" xlink:href="#DejaVuSans-48"/>
      </g>
     </g>
    </g>
    <g id="ytick_7">
     <g id="line2d_16">
      <g>
       <use style="stroke:#000000;stroke-width:0.8;" x="57.6" xlink:href="#mce6a269f84" y="104.9987"/>
      </g>
     </g>
     <g id="text_16">
      <!-- 140 -->
      <g transform="translate(31.5125 108.797918)scale(0.1 -0.1)">
       <use xlink:href="#DejaVuSans-49"/>
       <use x="63.623047" xlink:href="#DejaVuSans-52"/>
       <use x="127.246094" xlink:href="#DejaVuSans-48"/>
      </g>
     </g>
    </g>
    <g id="ytick_8">
     <g id="line2d_17">
      <g>
       <use style="stroke:#000000;stroke-width:0.8;" x="57.6" xlink:href="#mce6a269f84" y="71.880482"/>
      </g>
     </g>
     <g id="text_17">
      <!-- 160 -->
      <g transform="translate(31.5125 75.679701)scale(0.1 -0.1)">
       <use xlink:href="#DejaVuSans-49"/>
       <use x="63.623047" xlink:href="#DejaVuSans-54"/>
       <use x="127.246094" xlink:href="#DejaVuSans-48"/>
      </g>
     </g>
    </g>
   </g>
   <g id="line2d_18">
    <path clip-path="url(#pba4462d1e7)" d="M 330.069667 295.428449 
L 330.192204 290.455749 
L 330.607838 283.838729 
L 331.396051 272.2606 
L 331.508653 267.2879 
L 331.432481 263.972766 
L 331.195686 260.665912 
L 330.761837 257.378929 
L 330.094505 254.131688 
L 328.744938 249.34445 
L 327.11221 244.648287 
L 325.217848 240.049822 
L 323.076755 235.560648 
L 320.693899 231.195667 
L 318.067625 226.973094 
L 315.192964 222.914456 
L 313.131354 220.316332 
L 310.952176 217.819219 
L 308.582567 215.500943 
L 305.971196 213.459205 
L 303.192577 211.649295 
L 300.306325 210.018223 
L 295.86186 207.786055 
L 285.431278 202.702408 
L 282.553304 201.054777 
L 279.789589 199.22334 
L 277.198089 197.155107 
L 274.858287 194.807025 
L 272.82814 192.187374 
L 271.076186 189.373982 
L 269.541157 186.43474 
L 267.517634 181.890921 
L 262.42074 169.648772 
L 260.920485 166.692971 
L 259.206617 163.854739 
L 257.219524 161.20197 
L 254.909528 158.824082 
L 252.354458 156.71114 
L 249.635452 154.813466 
L 246.792253 153.107878 
L 243.857979 151.564569 
L 239.340654 149.484745 
L 233.190602 147.005846 
L 219.275983 141.624136 
L 214.674206 139.736398 
L 209.984667 138.078831 
L 202.076036 135.593309 
L 194.180653 133.071356 
L 189.514297 131.352521 
L 186.460797 130.057599 
L 183.478501 128.608677 
L 180.593905 126.974293 
L 176.447504 124.228792 
L 172.430264 121.296174 
L 168.547153 118.18803 
L 164.81473 114.902702 
L 161.252866 111.431913 
L 157.891367 107.765727 
L 154.771631 103.894207 
L 152.850774 101.191761 
L 151.078949 98.388303 
L 149.494243 95.477212 
L 148.161234 92.441927 
L 147.058398 89.313912 
L 146.152615 86.124628 
L 145.074617 81.271153 
L 144.228446 76.369657 
L 141.372 58.35997 
L 140.625184 55.129288 
L 140.625184 55.129288 
" style="fill:none;stroke:#fea952;stroke-linecap:square;"/>
   </g>
   <g id="line2d_19">
    <path clip-path="url(#pba4462d1e7)" d="M 323.446291 295.368898 
L 323.577175 290.118045 
L 324.003279 283.33628 
L 324.777175 272.009334 
L 324.885486 267.367299 
L 324.736689 262.880614 
L 324.453445 259.991126 
L 323.996963 257.204585 
L 323.304125 254.325794 
L 321.976221 249.945823 
L 320.384036 245.623609 
L 318.557221 241.398141 
L 316.492281 237.261282 
L 314.216091 233.263659 
L 311.729737 229.425802 
L 309.036783 225.780954 
L 306.189853 222.422797 
L 304.377434 220.618512 
L 302.254437 218.941756 
L 299.857995 217.372337 
L 297.244035 215.89147 
L 293.016702 213.767503 
L 283.815113 209.336307 
L 280.612842 207.60116 
L 277.390354 205.615981 
L 274.208983 203.294182 
L 272.65889 201.978833 
L 271.151319 200.541411 
L 269.743386 199.015404 
L 268.453502 197.429922 
L 266.221791 194.175382 
L 264.364268 190.886899 
L 262.782997 187.619261 
L 260.743978 182.831185 
L 257.093888 173.920432 
L 255.17648 169.991312 
L 253.791834 167.66955 
L 252.319622 165.658831 
L 250.575534 163.832989 
L 248.459012 162.068205 
L 246.140412 160.439952 
L 243.635818 158.93107 
L 239.601222 156.863271 
L 235.312933 154.97393 
L 229.307187 152.613056 
L 218.254482 148.374814 
L 210.914207 145.408195 
L 204.857353 143.383992 
L 190.333654 138.741319 
L 185.325428 136.790374 
L 181.985142 135.271577 
L 178.653442 133.520675 
L 175.517472 131.595893 
L 171.191709 128.621646 
L 166.981874 125.450996 
L 162.909138 122.085408 
L 158.987164 118.512745 
L 155.230658 114.71223 
L 152.827443 112.035309 
L 150.531678 109.245851 
L 148.34945 106.325851 
L 146.296429 103.2617 
L 144.377548 99.998487 
L 142.675655 96.50757 
L 141.300243 92.983591 
L 140.186682 89.44573 
L 139.292387 85.943548 
L 138.242954 80.757951 
L 137.179833 74.029528 
L 135.488073 62.820163 
L 134.578974 58.301777 
L 134.188179 56.690576 
L 134.188179 56.690576 
" style="fill:none;stroke:#ffffff;stroke-linecap:square;"/>
   </g>
   <g id="line2d_20">
    <path clip-path="url(#pba4462d1e7)" d="M 336.693042 295.488 
L 336.807233 290.793453 
L 337.212397 284.341178 
L 338.014927 272.511866 
L 338.131821 267.208501 
L 338.04499 263.588857 
L 337.775528 259.905428 
L 337.273823 256.167859 
L 336.506529 252.470782 
L 335.564329 248.99963 
L 333.899799 243.907226 
L 331.953217 238.929655 
L 329.743958 234.087454 
L 327.269418 229.355762 
L 324.524706 224.754224 
L 321.5033 220.306155 
L 319.318997 217.428308 
L 316.994439 214.639658 
L 314.297839 211.764962 
L 312.787701 210.383375 
L 309.687955 207.976655 
L 306.527159 205.926252 
L 303.368615 204.144975 
L 298.707018 201.804606 
L 288.644634 196.910432 
L 286.105951 195.464486 
L 283.791237 193.945133 
L 281.737287 192.331381 
L 279.973187 190.598647 
L 278.371695 188.562233 
L 276.896605 186.212436 
L 275.538991 183.624289 
L 273.645382 179.376294 
L 268.373925 166.74494 
L 266.66449 163.394629 
L 264.6214 160.039929 
L 263.434314 158.374529 
L 262.119426 156.745109 
L 260.70029 155.206122 
L 257.762236 152.542201 
L 254.697986 150.231739 
L 251.546874 148.207021 
L 248.344766 146.417646 
L 243.524062 144.088187 
L 238.719437 142.057039 
L 230.866834 139.048375 
L 223.354295 136.14851 
L 215.321093 132.915399 
L 210.419283 131.252871 
L 193.455185 125.776833 
L 189.273791 124.060957 
L 186.640047 122.788257 
L 184.141835 121.381007 
L 180.277369 118.824647 
L 176.491749 116.063871 
L 172.841938 113.145463 
L 169.353929 110.078977 
L 166.047567 106.862067 
L 162.95529 103.496144 
L 160.123256 99.991291 
L 158.399334 97.574284 
L 156.831511 95.104908 
L 155.500863 92.685589 
L 154.369912 90.134336 
L 153.403971 87.414872 
L 152.58773 84.555572 
L 151.586823 80.061271 
L 150.776362 75.370934 
L 148.192845 58.6769 
L 147.062189 53.568 
L 147.062189 53.568 
" style="fill:none;stroke:#ffffff;stroke-linecap:square;"/>
   </g>
   <g id="patch_3">
    <path d="M 57.6 307.584 
L 57.6 41.472 
" style="fill:none;stroke:#000000;stroke-linecap:square;stroke-linejoin:miter;stroke-width:0.8;"/>
   </g>
   <g id="patch_4">
    <path d="M 414.72 307.584 
L 414.72 41.472 
" style="fill:none;stroke:#000000;stroke-linecap:square;stroke-linejoin:miter;stroke-width:0.8;"/>
   </g>
   <g id="patch_5">
    <path d="M 57.6 307.584 
L 414.72 307.584 
" style="fill:none;stroke:#000000;stroke-linecap:square;stroke-linejoin:miter;stroke-width:0.8;"/>
   </g>
   <g id="patch_6">
    <path d="M 57.6 41.472 
L 414.72 41.472 
" style="fill:none;stroke:#000000;stroke-linecap:square;stroke-linejoin:miter;stroke-width:0.8;"/>
   </g>
  </g>
 </g>
 <defs>
  <clipPath id="pba4462d1e7">
   <rect height="266.112" width="357.12" x="57.6" y="41.472"/>
  </clipPath>
 </defs>
</svg>
