<?xml version="1.0" encoding="utf-8" standalone="no"?>
<!DOCTYPE svg PUBLIC "-//W3C//DTD SVG 1.1//EN"
  "http://www.w3.org/Graphics/SVG/1.1/DTD/svg11.dtd">
<!-- Created with matplotlib (https://matplotlib.org/) -->
<svg height="345.6pt" version="1.1" viewBox="0 0 460.8 345.6" width="460.8pt" xmlns="http://www.w3.org/2000/svg" xmlns:xlink="http://www.w3.org/1999/xlink">
 <metadata>
  <rdf:RDF xmlns:cc="http://creativecommons.org/ns#" xmlns:dc="http://purl.org/dc/elements/1.1/" xmlns:rdf="http://www.w3.org/1999/02/22-rdf-syntax-ns#">
   <cc:Work>
    <dc:type rdf:resource="http://purl.org/dc/dcmitype/StillImage"/>
    <dc:date>2021-07-12T19:48:54.299062</dc:date>
    <dc:format>image/svg+xml</dc:format>
    <dc:creator>
     <cc:Agent>
      <dc:title>Matplotlib v3.3.3, https://matplotlib.org/</dc:title>
     </cc:Agent>
    </dc:creator>
   </cc:Work>
  </rdf:RDF>
 </metadata>
 <defs>
  <style type="text/css">*{stroke-linecap:butt;stroke-linejoin:round;}</style>
 </defs>
 <g id="figure_1">
  <g id="patch_1">
   <path d="M 0 345.6 
L 460.8 345.6 
L 460.8 0 
L 0 0 
z
" style="fill:#ffffff;"/>
  </g>
  <g id="axes_1">
   <g id="patch_2">
    <path d="M 57.6 307.584 
L 414.72 307.584 
L 414.72 41.472 
L 57.6 41.472 
z
" style="fill:#7d9051;"/>
   </g>
   <g id="matplotlib.axis_1">
    <g id="xtick_1">
     <g id="line2d_1">
      <defs>
       <path d="M 0 0 
L 0 3.5 
" id="m0a2a18d35d" style="stroke:#000000;stroke-width:0.8;"/>
      </defs>
      <g>
       <use style="stroke:#000000;stroke-width:0.8;" x="95.259786" xlink:href="#m0a2a18d35d" y="307.584"/>
      </g>
     </g>
     <g id="text_1">
      <!-- 0 -->
      <g transform="translate(92.078536 322.182437)scale(0.1 -0.1)">
       <defs>
        <path d="M 31.78125 66.40625 
Q 24.171875 66.40625 20.328125 58.90625 
Q 16.5 51.421875 16.5 36.375 
Q 16.5 21.390625 20.328125 13.890625 
Q 24.171875 6.390625 31.78125 6.390625 
Q 39.453125 6.390625 43.28125 13.890625 
Q 47.125 21.390625 47.125 36.375 
Q 47.125 51.421875 43.28125 58.90625 
Q 39.453125 66.40625 31.78125 66.40625 
z
M 31.78125 74.21875 
Q 44.046875 74.21875 50.515625 64.515625 
Q 56.984375 54.828125 56.984375 36.375 
Q 56.984375 17.96875 50.515625 8.265625 
Q 44.046875 -1.421875 31.78125 -1.421875 
Q 19.53125 -1.421875 13.0625 8.265625 
Q 6.59375 17.96875 6.59375 36.375 
Q 6.59375 54.828125 13.0625 64.515625 
Q 19.53125 74.21875 31.78125 74.21875 
z
" id="DejaVuSans-48"/>
       </defs>
       <use xlink:href="#DejaVuSans-48"/>
      </g>
     </g>
    </g>
    <g id="xtick_2">
     <g id="line2d_2">
      <g>
       <use style="stroke:#000000;stroke-width:0.8;" x="163.373476" xlink:href="#m0a2a18d35d" y="307.584"/>
      </g>
     </g>
     <g id="text_2">
      <!-- 50 -->
      <g transform="translate(157.010976 322.182437)scale(0.1 -0.1)">
       <defs>
        <path d="M 10.796875 72.90625 
L 49.515625 72.90625 
L 49.515625 64.59375 
L 19.828125 64.59375 
L 19.828125 46.734375 
Q 21.96875 47.46875 24.109375 47.828125 
Q 26.265625 48.1875 28.421875 48.1875 
Q 40.625 48.1875 47.75 41.5 
Q 54.890625 34.8125 54.890625 23.390625 
Q 54.890625 11.625 47.5625 5.09375 
Q 40.234375 -1.421875 26.90625 -1.421875 
Q 22.3125 -1.421875 17.546875 -0.640625 
Q 12.796875 0.140625 7.71875 1.703125 
L 7.71875 11.625 
Q 12.109375 9.234375 16.796875 8.0625 
Q 21.484375 6.890625 26.703125 6.890625 
Q 35.15625 6.890625 40.078125 11.328125 
Q 45.015625 15.765625 45.015625 23.390625 
Q 45.015625 31 40.078125 35.4375 
Q 35.15625 39.890625 26.703125 39.890625 
Q 22.75 39.890625 18.8125 39.015625 
Q 14.890625 38.140625 10.796875 36.28125 
z
" id="DejaVuSans-53"/>
       </defs>
       <use xlink:href="#DejaVuSans-53"/>
       <use x="63.623047" xlink:href="#DejaVuSans-48"/>
      </g>
     </g>
    </g>
    <g id="xtick_3">
     <g id="line2d_3">
      <g>
       <use style="stroke:#000000;stroke-width:0.8;" x="231.487166" xlink:href="#m0a2a18d35d" y="307.584"/>
      </g>
     </g>
     <g id="text_3">
      <!-- 100 -->
      <g transform="translate(221.943416 322.182437)scale(0.1 -0.1)">
       <defs>
        <path d="M 12.40625 8.296875 
L 28.515625 8.296875 
L 28.515625 63.921875 
L 10.984375 60.40625 
L 10.984375 69.390625 
L 28.421875 72.90625 
L 38.28125 72.90625 
L 38.28125 8.296875 
L 54.390625 8.296875 
L 54.390625 0 
L 12.40625 0 
z
" id="DejaVuSans-49"/>
       </defs>
       <use xlink:href="#DejaVuSans-49"/>
       <use x="63.623047" xlink:href="#DejaVuSans-48"/>
       <use x="127.246094" xlink:href="#DejaVuSans-48"/>
      </g>
     </g>
    </g>
    <g id="xtick_4">
     <g id="line2d_4">
      <g>
       <use style="stroke:#000000;stroke-width:0.8;" x="299.600856" xlink:href="#m0a2a18d35d" y="307.584"/>
      </g>
     </g>
     <g id="text_4">
      <!-- 150 -->
      <g transform="translate(290.057106 322.182437)scale(0.1 -0.1)">
       <use xlink:href="#DejaVuSans-49"/>
       <use x="63.623047" xlink:href="#DejaVuSans-53"/>
       <use x="127.246094" xlink:href="#DejaVuSans-48"/>
      </g>
     </g>
    </g>
    <g id="xtick_5">
     <g id="line2d_5">
      <g>
       <use style="stroke:#000000;stroke-width:0.8;" x="367.714546" xlink:href="#m0a2a18d35d" y="307.584"/>
      </g>
     </g>
     <g id="text_5">
      <!-- 200 -->
      <g transform="translate(358.170796 322.182437)scale(0.1 -0.1)">
       <defs>
        <path d="M 19.1875 8.296875 
L 53.609375 8.296875 
L 53.609375 0 
L 7.328125 0 
L 7.328125 8.296875 
Q 12.9375 14.109375 22.625 23.890625 
Q 32.328125 33.6875 34.8125 36.53125 
Q 39.546875 41.84375 41.421875 45.53125 
Q 43.3125 49.21875 43.3125 52.78125 
Q 43.3125 58.59375 39.234375 62.25 
Q 35.15625 65.921875 28.609375 65.921875 
Q 23.96875 65.921875 18.8125 64.3125 
Q 13.671875 62.703125 7.8125 59.421875 
L 7.8125 69.390625 
Q 13.765625 71.78125 18.9375 73 
Q 24.125 74.21875 28.421875 74.21875 
Q 39.75 74.21875 46.484375 68.546875 
Q 53.21875 62.890625 53.21875 53.421875 
Q 53.21875 48.921875 51.53125 44.890625 
Q 49.859375 40.875 45.40625 35.40625 
Q 44.1875 33.984375 37.640625 27.21875 
Q 31.109375 20.453125 19.1875 8.296875 
z
" id="DejaVuSans-50"/>
       </defs>
       <use xlink:href="#DejaVuSans-50"/>
       <use x="63.623047" xlink:href="#DejaVuSans-48"/>
       <use x="127.246094" xlink:href="#DejaVuSans-48"/>
      </g>
     </g>
    </g>
   </g>
   <g id="matplotlib.axis_2">
    <g id="ytick_1">
     <g id="line2d_6">
      <defs>
       <path d="M 0 0 
L -3.5 0 
" id="m1361141d50" style="stroke:#000000;stroke-width:0.8;"/>
      </defs>
      <g>
       <use style="stroke:#000000;stroke-width:0.8;" x="57.6" xlink:href="#m1361141d50" y="283.792258"/>
      </g>
     </g>
     <g id="text_6">
      <!-- 25 -->
      <g transform="translate(37.875 287.591477)scale(0.1 -0.1)">
       <use xlink:href="#DejaVuSans-50"/>
       <use x="63.623047" xlink:href="#DejaVuSans-53"/>
      </g>
     </g>
    </g>
    <g id="ytick_2">
     <g id="line2d_7">
      <g>
       <use style="stroke:#000000;stroke-width:0.8;" x="57.6" xlink:href="#m1361141d50" y="249.735413"/>
      </g>
     </g>
     <g id="text_7">
      <!-- 50 -->
      <g transform="translate(37.875 253.534632)scale(0.1 -0.1)">
       <use xlink:href="#DejaVuSans-53"/>
       <use x="63.623047" xlink:href="#DejaVuSans-48"/>
      </g>
     </g>
    </g>
    <g id="ytick_3">
     <g id="line2d_8">
      <g>
       <use style="stroke:#000000;stroke-width:0.8;" x="57.6" xlink:href="#m1361141d50" y="215.678568"/>
      </g>
     </g>
     <g id="text_8">
      <!-- 75 -->
      <g transform="translate(37.875 219.477787)scale(0.1 -0.1)">
       <defs>
        <path d="M 8.203125 72.90625 
L 55.078125 72.90625 
L 55.078125 68.703125 
L 28.609375 0 
L 18.3125 0 
L 43.21875 64.59375 
L 8.203125 64.59375 
z
" id="DejaVuSans-55"/>
       </defs>
       <use xlink:href="#DejaVuSans-55"/>
       <use x="63.623047" xlink:href="#DejaVuSans-53"/>
      </g>
     </g>
    </g>
    <g id="ytick_4">
     <g id="line2d_9">
      <g>
       <use style="stroke:#000000;stroke-width:0.8;" x="57.6" xlink:href="#m1361141d50" y="181.621723"/>
      </g>
     </g>
     <g id="text_9">
      <!-- 100 -->
      <g transform="translate(31.5125 185.420942)scale(0.1 -0.1)">
       <use xlink:href="#DejaVuSans-49"/>
       <use x="63.623047" xlink:href="#DejaVuSans-48"/>
       <use x="127.246094" xlink:href="#DejaVuSans-48"/>
      </g>
     </g>
    </g>
    <g id="ytick_5">
     <g id="line2d_10">
      <g>
       <use style="stroke:#000000;stroke-width:0.8;" x="57.6" xlink:href="#m1361141d50" y="147.564878"/>
      </g>
     </g>
     <g id="text_10">
      <!-- 125 -->
      <g transform="translate(31.5125 151.364097)scale(0.1 -0.1)">
       <use xlink:href="#DejaVuSans-49"/>
       <use x="63.623047" xlink:href="#DejaVuSans-50"/>
       <use x="127.246094" xlink:href="#DejaVuSans-53"/>
      </g>
     </g>
    </g>
    <g id="ytick_6">
     <g id="line2d_11">
      <g>
       <use style="stroke:#000000;stroke-width:0.8;" x="57.6" xlink:href="#m1361141d50" y="113.508033"/>
      </g>
     </g>
     <g id="text_11">
      <!-- 150 -->
      <g transform="translate(31.5125 117.307252)scale(0.1 -0.1)">
       <use xlink:href="#DejaVuSans-49"/>
       <use x="63.623047" xlink:href="#DejaVuSans-53"/>
       <use x="127.246094" xlink:href="#DejaVuSans-48"/>
      </g>
     </g>
    </g>
    <g id="ytick_7">
     <g id="line2d_12">
      <g>
       <use style="stroke:#000000;stroke-width:0.8;" x="57.6" xlink:href="#m1361141d50" y="79.451188"/>
      </g>
     </g>
     <g id="text_12">
      <!-- 175 -->
      <g transform="translate(31.5125 83.250407)scale(0.1 -0.1)">
       <use xlink:href="#DejaVuSans-49"/>
       <use x="63.623047" xlink:href="#DejaVuSans-55"/>
       <use x="127.246094" xlink:href="#DejaVuSans-53"/>
      </g>
     </g>
    </g>
    <g id="ytick_8">
     <g id="line2d_13">
      <g>
       <use style="stroke:#000000;stroke-width:0.8;" x="57.6" xlink:href="#m1361141d50" y="45.394343"/>
      </g>
     </g>
     <g id="text_13">
      <!-- 200 -->
      <g transform="translate(31.5125 49.193562)scale(0.1 -0.1)">
       <use xlink:href="#DejaVuSans-50"/>
       <use x="63.623047" xlink:href="#DejaVuSans-48"/>
       <use x="127.246094" xlink:href="#DejaVuSans-48"/>
      </g>
     </g>
    </g>
   </g>
   <g id="line2d_14">
    <path clip-path="url(#p11de9d3446)" d="M 354.091808 290.603627 
L 333.059663 280.095047 
L 313.021978 269.831676 
L 296.043959 260.91287 
L 279.851973 252.186144 
L 264.446018 243.652861 
L 249.824734 235.31302 
L 235.989481 227.165261 
L 222.938898 219.209582 
L 210.674347 211.447346 
L 200.586709 204.814435 
L 191.099835 198.327287 
L 182.215085 191.988627 
L 173.931098 185.798455 
L 166.249236 179.754046 
L 160.142163 174.691836 
L 154.477828 169.737247 
L 149.256233 164.891639 
L 144.474652 160.155013 
L 140.13581 155.526006 
L 136.238344 151.00462 
L 133.327165 147.321031 
L 130.72386 143.711006 
L 128.427066 140.177267 
L 126.438146 136.719816 
L 124.754376 133.335928 
L 123.37848 130.028328 
L 122.307732 126.795652 
L 121.544859 123.639263 
L 121.156611 121.166736 
L 120.963168 118.743251 
L 120.965893 116.368808 
L 121.166147 114.042044 
L 121.562569 111.76296 
L 122.155158 109.531556 
L 122.942552 107.349193 
L 123.928838 105.215873 
L 125.10993 103.128869 
L 126.487188 101.090907 
L 128.061977 99.101988 
L 129.831571 97.160748 
L 132.320445 94.801289 
L 135.117193 92.516756 
L 138.220453 90.30851 
L 141.628862 88.17519 
L 145.345145 86.118156 
L 149.369301 84.134685 
L 153.698607 82.227502 
L 159.298915 80.038328 
L 165.341962 77.958136 
L 171.826385 75.985564 
L 178.752185 74.120611 
L 186.120724 72.36464 
L 193.93064 70.717651 
L 202.181932 69.179644 
L 212.367653 67.520394 
L 223.154137 66.009633 
L 234.541384 64.647359 
L 246.530756 63.430848 
L 260.968133 62.222511 
L 276.191543 61.207617 
L 292.200985 60.384804 
L 308.995096 59.754071 
L 326.573877 59.316781 
L 344.940053 59.071572 
L 356.816356 59.017081 
L 356.816356 59.017081 
" style="fill:none;stroke:#fea952;stroke-linecap:square;"/>
   </g>
   <g id="line2d_15">
    <path clip-path="url(#p11de9d3446)" d="M 351.676122 295.488 
L 330.597172 284.955991 
L 310.509938 274.667201 
L 293.482312 265.722298 
L 277.238027 256.967349 
L 261.772732 248.401142 
L 247.089686 240.025997 
L 233.184268 231.836815 
L 220.059874 223.836013 
L 209.209688 216.986913 
L 197.546758 209.33675 
L 187.975921 202.792016 
L 178.99929 196.387638 
L 170.605467 190.11503 
L 162.815146 183.984845 
L 156.5988 178.831549 
L 150.822118 173.77809 
L 145.478127 168.818285 
L 140.557044 163.94249 
L 136.074349 159.158798 
L 132.660681 155.227506 
L 129.557624 151.361863 
L 126.738911 147.528355 
L 124.229223 143.748233 
L 122.026219 140.011684 
L 120.124369 136.303088 
L 118.539712 132.630472 
L 117.49824 129.707483 
L 116.668833 126.803229 
L 116.052523 123.902948 
L 115.662548 121.043192 
L 115.496592 118.195088 
L 115.564659 115.375393 
L 115.867799 112.594246 
L 116.410164 109.860562 
L 117.187654 107.190434 
L 118.20037 104.579198 
L 119.434999 102.056387 
L 120.890435 99.60948 
L 122.558123 97.249058 
L 124.428025 94.974487 
L 126.490995 92.791431 
L 128.75526 90.680355 
L 131.204091 88.65345 
L 134.525787 86.228184 
L 138.131634 83.916413 
L 142.035702 81.703164 
L 146.21674 79.5965 
L 150.689003 77.583146 
L 155.451892 75.661023 
L 160.51162 73.824958 
L 166.952493 71.742375 
L 173.83192 69.77337 
L 181.128658 67.926518 
L 188.85382 66.194758 
L 197.012866 64.575612 
L 207.068657 62.832884 
L 217.718237 61.240222 
L 228.956903 59.800136 
L 240.779035 58.512583 
L 253.201882 57.372315 
L 266.217916 56.382547 
L 281.816441 55.435001 
L 298.197124 54.680887 
L 315.355697 54.120113 
L 333.29435 53.753765 
L 354.403659 53.573449 
L 356.803985 53.568 
L 356.803985 53.568 
" style="fill:none;stroke:#ffffff;stroke-linecap:square;"/>
   </g>
   <g id="line2d_16">
    <path clip-path="url(#p11de9d3446)" d="M 356.507494 285.719254 
L 335.522153 275.234103 
L 315.534017 264.996152 
L 298.605606 256.103441 
L 282.465919 247.404938 
L 267.119304 238.904579 
L 252.559782 230.600044 
L 238.794694 222.493707 
L 225.817921 214.583151 
L 213.6344 206.872335 
L 203.626661 200.29212 
L 194.223748 193.862558 
L 185.43088 187.589615 
L 177.256728 181.48188 
L 169.683326 175.523247 
L 163.685525 170.552124 
L 158.133539 165.696403 
L 153.034338 160.964992 
L 148.39226 156.367535 
L 144.19727 151.893215 
L 140.45916 147.558266 
L 137.17302 143.365168 
L 134.779528 139.983969 
L 132.697497 136.710149 
L 130.924077 133.550015 
L 129.456267 130.505841 
L 128.283088 127.575207 
L 127.404117 124.785869 
L 126.805608 122.130461 
L 126.471171 119.56848 
L 126.393057 117.133809 
L 126.562754 114.796546 
L 126.973805 112.54012 
L 127.629105 110.341218 
L 128.531984 108.191378 
L 129.712141 106.046451 
L 131.168229 103.930123 
L 132.91263 101.835236 
L 134.978084 99.746395 
L 137.352332 97.687239 
L 140.043458 95.662947 
L 143.065446 93.672117 
L 146.41326 91.725038 
L 150.086953 89.828644 
L 154.089998 87.985068 
L 158.410061 86.201866 
L 164.020275 84.142899 
L 170.106872 82.174079 
L 176.637668 80.304197 
L 183.633907 78.53285 
L 191.0872 76.861649 
L 198.989361 75.293075 
L 208.787349 73.594699 
L 219.195798 72.037785 
L 230.216685 70.625269 
L 241.858357 69.357196 
L 254.10084 68.233366 
L 266.95166 67.256009 
L 282.388457 66.318169 
L 298.615159 65.571057 
L 315.633311 65.014767 
L 333.443448 64.650936 
L 354.428399 64.471611 
L 356.828726 64.466162 
L 356.828726 64.466162 
" style="fill:none;stroke:#ffffff;stroke-linecap:square;"/>
   </g>
   <g id="patch_3">
    <path d="M 57.6 307.584 
L 57.6 41.472 
" style="fill:none;stroke:#000000;stroke-linecap:square;stroke-linejoin:miter;stroke-width:0.8;"/>
   </g>
   <g id="patch_4">
    <path d="M 414.72 307.584 
L 414.72 41.472 
" style="fill:none;stroke:#000000;stroke-linecap:square;stroke-linejoin:miter;stroke-width:0.8;"/>
   </g>
   <g id="patch_5">
    <path d="M 57.6 307.584 
L 414.72 307.584 
" style="fill:none;stroke:#000000;stroke-linecap:square;stroke-linejoin:miter;stroke-width:0.8;"/>
   </g>
   <g id="patch_6">
    <path d="M 57.6 41.472 
L 414.72 41.472 
" style="fill:none;stroke:#000000;stroke-linecap:square;stroke-linejoin:miter;stroke-width:0.8;"/>
   </g>
  </g>
 </g>
 <defs>
  <clipPath id="p11de9d3446">
   <rect height="266.112" width="357.12" x="57.6" y="41.472"/>
  </clipPath>
 </defs>
</svg>
