<?xml version="1.0" encoding="utf-8" standalone="no"?>
<!DOCTYPE svg PUBLIC "-//W3C//DTD SVG 1.1//EN"
  "http://www.w3.org/Graphics/SVG/1.1/DTD/svg11.dtd">
<!-- Created with matplotlib (https://matplotlib.org/) -->
<svg height="345.6pt" version="1.1" viewBox="0 0 460.8 345.6" width="460.8pt" xmlns="http://www.w3.org/2000/svg" xmlns:xlink="http://www.w3.org/1999/xlink">
 <metadata>
  <rdf:RDF xmlns:cc="http://creativecommons.org/ns#" xmlns:dc="http://purl.org/dc/elements/1.1/" xmlns:rdf="http://www.w3.org/1999/02/22-rdf-syntax-ns#">
   <cc:Work>
    <dc:type rdf:resource="http://purl.org/dc/dcmitype/StillImage"/>
    <dc:date>2021-07-14T14:27:45.901423</dc:date>
    <dc:format>image/svg+xml</dc:format>
    <dc:creator>
     <cc:Agent>
      <dc:title>Matplotlib v3.3.3, https://matplotlib.org/</dc:title>
     </cc:Agent>
    </dc:creator>
   </cc:Work>
  </rdf:RDF>
 </metadata>
 <defs>
  <style type="text/css">*{stroke-linecap:butt;stroke-linejoin:round;}</style>
 </defs>
 <g id="figure_1">
  <g id="patch_1">
   <path d="M 0 345.6 
L 460.8 345.6 
L 460.8 0 
L 0 0 
z
" style="fill:#ffffff;"/>
  </g>
  <g id="axes_1">
   <g id="patch_2">
    <path d="M 57.6 307.584 
L 414.72 307.584 
L 414.72 41.472 
L 57.6 41.472 
z
" style="fill:#7d9051;"/>
   </g>
   <g id="matplotlib.axis_1">
    <g id="xtick_1">
     <g id="line2d_1">
      <defs>
       <path d="M 0 0 
L 0 3.5 
" id="m0d92eb0415" style="stroke:#000000;stroke-width:0.8;"/>
      </defs>
      <g>
       <use style="stroke:#000000;stroke-width:0.8;" x="88.588436" xlink:href="#m0d92eb0415" y="307.584"/>
      </g>
     </g>
     <g id="text_1">
      <!-- 50 -->
      <g transform="translate(82.225936 322.182437)scale(0.1 -0.1)">
       <defs>
        <path d="M 10.796875 72.90625 
L 49.515625 72.90625 
L 49.515625 64.59375 
L 19.828125 64.59375 
L 19.828125 46.734375 
Q 21.96875 47.46875 24.109375 47.828125 
Q 26.265625 48.1875 28.421875 48.1875 
Q 40.625 48.1875 47.75 41.5 
Q 54.890625 34.8125 54.890625 23.390625 
Q 54.890625 11.625 47.5625 5.09375 
Q 40.234375 -1.421875 26.90625 -1.421875 
Q 22.3125 -1.421875 17.546875 -0.640625 
Q 12.796875 0.140625 7.71875 1.703125 
L 7.71875 11.625 
Q 12.109375 9.234375 16.796875 8.0625 
Q 21.484375 6.890625 26.703125 6.890625 
Q 35.15625 6.890625 40.078125 11.328125 
Q 45.015625 15.765625 45.015625 23.390625 
Q 45.015625 31 40.078125 35.4375 
Q 35.15625 39.890625 26.703125 39.890625 
Q 22.75 39.890625 18.8125 39.015625 
Q 14.890625 38.140625 10.796875 36.28125 
z
" id="DejaVuSans-53"/>
        <path d="M 31.78125 66.40625 
Q 24.171875 66.40625 20.328125 58.90625 
Q 16.5 51.421875 16.5 36.375 
Q 16.5 21.390625 20.328125 13.890625 
Q 24.171875 6.390625 31.78125 6.390625 
Q 39.453125 6.390625 43.28125 13.890625 
Q 47.125 21.390625 47.125 36.375 
Q 47.125 51.421875 43.28125 58.90625 
Q 39.453125 66.40625 31.78125 66.40625 
z
M 31.78125 74.21875 
Q 44.046875 74.21875 50.515625 64.515625 
Q 56.984375 54.828125 56.984375 36.375 
Q 56.984375 17.96875 50.515625 8.265625 
Q 44.046875 -1.421875 31.78125 -1.421875 
Q 19.53125 -1.421875 13.0625 8.265625 
Q 6.59375 17.96875 6.59375 36.375 
Q 6.59375 54.828125 13.0625 64.515625 
Q 19.53125 74.21875 31.78125 74.21875 
z
" id="DejaVuSans-48"/>
       </defs>
       <use xlink:href="#DejaVuSans-53"/>
       <use x="63.623047" xlink:href="#DejaVuSans-48"/>
      </g>
     </g>
    </g>
    <g id="xtick_2">
     <g id="line2d_2">
      <g>
       <use style="stroke:#000000;stroke-width:0.8;" x="161.577527" xlink:href="#m0d92eb0415" y="307.584"/>
      </g>
     </g>
     <g id="text_2">
      <!-- 100 -->
      <g transform="translate(152.033777 322.182437)scale(0.1 -0.1)">
       <defs>
        <path d="M 12.40625 8.296875 
L 28.515625 8.296875 
L 28.515625 63.921875 
L 10.984375 60.40625 
L 10.984375 69.390625 
L 28.421875 72.90625 
L 38.28125 72.90625 
L 38.28125 8.296875 
L 54.390625 8.296875 
L 54.390625 0 
L 12.40625 0 
z
" id="DejaVuSans-49"/>
       </defs>
       <use xlink:href="#DejaVuSans-49"/>
       <use x="63.623047" xlink:href="#DejaVuSans-48"/>
       <use x="127.246094" xlink:href="#DejaVuSans-48"/>
      </g>
     </g>
    </g>
    <g id="xtick_3">
     <g id="line2d_3">
      <g>
       <use style="stroke:#000000;stroke-width:0.8;" x="234.566617" xlink:href="#m0d92eb0415" y="307.584"/>
      </g>
     </g>
     <g id="text_3">
      <!-- 150 -->
      <g transform="translate(225.022867 322.182437)scale(0.1 -0.1)">
       <use xlink:href="#DejaVuSans-49"/>
       <use x="63.623047" xlink:href="#DejaVuSans-53"/>
       <use x="127.246094" xlink:href="#DejaVuSans-48"/>
      </g>
     </g>
    </g>
    <g id="xtick_4">
     <g id="line2d_4">
      <g>
       <use style="stroke:#000000;stroke-width:0.8;" x="307.555708" xlink:href="#m0d92eb0415" y="307.584"/>
      </g>
     </g>
     <g id="text_4">
      <!-- 200 -->
      <g transform="translate(298.011958 322.182437)scale(0.1 -0.1)">
       <defs>
        <path d="M 19.1875 8.296875 
L 53.609375 8.296875 
L 53.609375 0 
L 7.328125 0 
L 7.328125 8.296875 
Q 12.9375 14.109375 22.625 23.890625 
Q 32.328125 33.6875 34.8125 36.53125 
Q 39.546875 41.84375 41.421875 45.53125 
Q 43.3125 49.21875 43.3125 52.78125 
Q 43.3125 58.59375 39.234375 62.25 
Q 35.15625 65.921875 28.609375 65.921875 
Q 23.96875 65.921875 18.8125 64.3125 
Q 13.671875 62.703125 7.8125 59.421875 
L 7.8125 69.390625 
Q 13.765625 71.78125 18.9375 73 
Q 24.125 74.21875 28.421875 74.21875 
Q 39.75 74.21875 46.484375 68.546875 
Q 53.21875 62.890625 53.21875 53.421875 
Q 53.21875 48.921875 51.53125 44.890625 
Q 49.859375 40.875 45.40625 35.40625 
Q 44.1875 33.984375 37.640625 27.21875 
Q 31.109375 20.453125 19.1875 8.296875 
z
" id="DejaVuSans-50"/>
       </defs>
       <use xlink:href="#DejaVuSans-50"/>
       <use x="63.623047" xlink:href="#DejaVuSans-48"/>
       <use x="127.246094" xlink:href="#DejaVuSans-48"/>
      </g>
     </g>
    </g>
    <g id="xtick_5">
     <g id="line2d_5">
      <g>
       <use style="stroke:#000000;stroke-width:0.8;" x="380.544799" xlink:href="#m0d92eb0415" y="307.584"/>
      </g>
     </g>
     <g id="text_5">
      <!-- 250 -->
      <g transform="translate(371.001049 322.182437)scale(0.1 -0.1)">
       <use xlink:href="#DejaVuSans-50"/>
       <use x="63.623047" xlink:href="#DejaVuSans-53"/>
       <use x="127.246094" xlink:href="#DejaVuSans-48"/>
      </g>
     </g>
    </g>
   </g>
   <g id="matplotlib.axis_2">
    <g id="ytick_1">
     <g id="line2d_6">
      <defs>
       <path d="M 0 0 
L -3.5 0 
" id="m72f08b4ad9" style="stroke:#000000;stroke-width:0.8;"/>
      </defs>
      <g>
       <use style="stroke:#000000;stroke-width:0.8;" x="57.6" xlink:href="#m72f08b4ad9" y="295.441288"/>
      </g>
     </g>
     <g id="text_6">
      <!-- 25 -->
      <g transform="translate(37.875 299.240507)scale(0.1 -0.1)">
       <use xlink:href="#DejaVuSans-50"/>
       <use x="63.623047" xlink:href="#DejaVuSans-53"/>
      </g>
     </g>
    </g>
    <g id="ytick_2">
     <g id="line2d_7">
      <g>
       <use style="stroke:#000000;stroke-width:0.8;" x="57.6" xlink:href="#m72f08b4ad9" y="258.946743"/>
      </g>
     </g>
     <g id="text_7">
      <!-- 50 -->
      <g transform="translate(37.875 262.745962)scale(0.1 -0.1)">
       <use xlink:href="#DejaVuSans-53"/>
       <use x="63.623047" xlink:href="#DejaVuSans-48"/>
      </g>
     </g>
    </g>
    <g id="ytick_3">
     <g id="line2d_8">
      <g>
       <use style="stroke:#000000;stroke-width:0.8;" x="57.6" xlink:href="#m72f08b4ad9" y="222.452198"/>
      </g>
     </g>
     <g id="text_8">
      <!-- 75 -->
      <g transform="translate(37.875 226.251416)scale(0.1 -0.1)">
       <defs>
        <path d="M 8.203125 72.90625 
L 55.078125 72.90625 
L 55.078125 68.703125 
L 28.609375 0 
L 18.3125 0 
L 43.21875 64.59375 
L 8.203125 64.59375 
z
" id="DejaVuSans-55"/>
       </defs>
       <use xlink:href="#DejaVuSans-55"/>
       <use x="63.623047" xlink:href="#DejaVuSans-53"/>
      </g>
     </g>
    </g>
    <g id="ytick_4">
     <g id="line2d_9">
      <g>
       <use style="stroke:#000000;stroke-width:0.8;" x="57.6" xlink:href="#m72f08b4ad9" y="185.957652"/>
      </g>
     </g>
     <g id="text_9">
      <!-- 100 -->
      <g transform="translate(31.5125 189.756871)scale(0.1 -0.1)">
       <use xlink:href="#DejaVuSans-49"/>
       <use x="63.623047" xlink:href="#DejaVuSans-48"/>
       <use x="127.246094" xlink:href="#DejaVuSans-48"/>
      </g>
     </g>
    </g>
    <g id="ytick_5">
     <g id="line2d_10">
      <g>
       <use style="stroke:#000000;stroke-width:0.8;" x="57.6" xlink:href="#m72f08b4ad9" y="149.463107"/>
      </g>
     </g>
     <g id="text_10">
      <!-- 125 -->
      <g transform="translate(31.5125 153.262325)scale(0.1 -0.1)">
       <use xlink:href="#DejaVuSans-49"/>
       <use x="63.623047" xlink:href="#DejaVuSans-50"/>
       <use x="127.246094" xlink:href="#DejaVuSans-53"/>
      </g>
     </g>
    </g>
    <g id="ytick_6">
     <g id="line2d_11">
      <g>
       <use style="stroke:#000000;stroke-width:0.8;" x="57.6" xlink:href="#m72f08b4ad9" y="112.968561"/>
      </g>
     </g>
     <g id="text_11">
      <!-- 150 -->
      <g transform="translate(31.5125 116.76778)scale(0.1 -0.1)">
       <use xlink:href="#DejaVuSans-49"/>
       <use x="63.623047" xlink:href="#DejaVuSans-53"/>
       <use x="127.246094" xlink:href="#DejaVuSans-48"/>
      </g>
     </g>
    </g>
    <g id="ytick_7">
     <g id="line2d_12">
      <g>
       <use style="stroke:#000000;stroke-width:0.8;" x="57.6" xlink:href="#m72f08b4ad9" y="76.474016"/>
      </g>
     </g>
     <g id="text_12">
      <!-- 175 -->
      <g transform="translate(31.5125 80.273234)scale(0.1 -0.1)">
       <use xlink:href="#DejaVuSans-49"/>
       <use x="63.623047" xlink:href="#DejaVuSans-55"/>
       <use x="127.246094" xlink:href="#DejaVuSans-53"/>
      </g>
     </g>
    </g>
   </g>
   <g id="line2d_13">
    <path clip-path="url(#pb0bca1c14f)" d="M 198.072072 295.441288 
L 197.975726 291.061943 
L 197.543631 283.771793 
L 197.01811 275.02624 
L 196.930523 270.645434 
L 197.069202 266.267549 
L 197.331963 263.359663 
L 197.764058 260.470755 
L 198.383006 257.616882 
L 199.571268 253.399572 
L 201.019372 249.26547 
L 202.686442 245.214575 
L 204.540365 241.245429 
L 207.257019 236.074881 
L 210.205778 231.032795 
L 213.34139 226.103112 
L 215.877031 222.531026 
L 218.634559 219.128274 
L 221.552663 215.861283 
L 225.597718 211.645433 
L 234.787045 202.248817 
L 238.664225 197.87969 
L 245.433233 190.220215 
L 251.189153 183.613242 
L 254.867803 179.076241 
L 257.483732 175.562546 
L 259.930327 171.927689 
L 263.692184 165.669604 
L 267.275949 159.307875 
L 269.27293 155.408798 
L 271.096198 151.426513 
L 272.690279 147.344963 
L 273.589505 144.566998 
L 274.329614 141.740861 
L 274.879952 138.873849 
L 275.214242 135.971803 
L 275.367519 133.055159 
L 275.326645 128.675813 
L 274.986516 124.308146 
L 274.363189 119.972594 
L 273.459585 115.686675 
L 272.262563 111.472285 
L 271.290349 108.717676 
L 270.167777 106.021459 
L 268.881709 103.399691 
L 267.411708 100.875728 
L 265.708143 98.505043 
L 263.781231 96.310991 
L 261.684984 94.278974 
L 259.458817 92.385637 
L 255.955341 89.75803 
L 251.095727 86.515855 
L 238.802904 78.635952 
L 232.74335 74.560242 
L 225.323279 69.902078 
L 206.608876 58.51432 
L 206.608876 58.51432 
" style="fill:none;stroke:#fea952;stroke-linecap:square;"/>
   </g>
   <g id="line2d_14">
    <path clip-path="url(#pb0bca1c14f)" d="M 192.233132 295.488 
L 192.142767 291.330259 
L 191.71841 284.174538 
L 191.182354 275.224655 
L 191.091749 270.581208 
L 191.247412 265.817922 
L 191.544619 262.583739 
L 192.039222 259.321119 
L 192.72902 256.158165 
L 194.023664 251.577622 
L 195.583106 247.134174 
L 197.359762 242.822529 
L 199.322369 238.624757 
L 201.435204 234.547178 
L 204.455532 229.255256 
L 207.653252 224.134724 
L 210.322992 220.211382 
L 213.22744 216.484536 
L 216.262725 212.990178 
L 220.40345 208.604289 
L 232.349572 196.25235 
L 249.373233 176.618839 
L 252.69548 172.220684 
L 254.970252 168.846607 
L 258.645929 162.731796 
L 262.112985 156.580382 
L 264.594781 151.655906 
L 266.217732 147.953422 
L 267.579531 144.235508 
L 268.615614 140.538528 
L 269.092608 138.097925 
L 269.387842 135.58649 
L 269.550581 131.653765 
L 269.423073 127.66667 
L 269.02991 123.68763 
L 268.379377 119.739679 
L 267.475428 115.864717 
L 266.313077 112.102159 
L 264.882441 108.503523 
L 263.778495 106.237405 
L 262.580359 104.154977 
L 261.23583 102.259217 
L 259.640681 100.428181 
L 257.839479 98.673004 
L 254.813034 96.161153 
L 251.493579 93.767627 
L 246.756468 90.679542 
L 236.699714 84.275238 
L 229.584322 79.471041 
L 222.282245 74.886806 
L 203.50576 63.46064 
L 203.50576 63.46064 
" style="fill:none;stroke:#ffffff;stroke-linecap:square;"/>
   </g>
   <g id="line2d_15">
    <path clip-path="url(#pb0bca1c14f)" d="M 203.911012 295.394577 
L 203.808686 290.793627 
L 203.368852 283.369047 
L 202.853865 274.827824 
L 202.769297 270.709661 
L 202.890992 266.717176 
L 203.287207 262.862987 
L 203.738362 260.364055 
L 204.729949 256.50066 
L 205.98251 252.670927 
L 207.470836 248.866819 
L 209.158863 245.10497 
L 211.018022 241.39319 
L 213.729043 236.513622 
L 216.663947 231.713113 
L 219.685171 227.192159 
L 222.161479 224.005479 
L 224.868975 220.884106 
L 228.748292 216.774065 
L 240.117247 205.078653 
L 245.915548 198.459908 
L 255.672023 187.354804 
L 259.503839 182.626252 
L 262.271985 178.904408 
L 264.890401 175.008771 
L 268.738439 168.607413 
L 272.438912 162.035368 
L 274.54258 157.923991 
L 276.488231 153.667358 
L 278.222121 149.214223 
L 279.215274 146.131009 
L 280.043615 142.943194 
L 280.667296 139.649773 
L 281.040643 136.357116 
L 281.20599 133.142736 
L 281.210769 129.943009 
L 280.942353 125.176724 
L 280.362746 120.456292 
L 279.477849 115.77762 
L 278.71093 112.679575 
L 277.793233 109.599558 
L 276.713049 106.552099 
L 275.453112 103.539396 
L 273.984922 100.561978 
L 272.243057 97.596479 
L 270.180456 94.750869 
L 267.921781 92.193801 
L 265.53049 89.884945 
L 263.061454 87.790377 
L 259.28661 84.962402 
L 255.486558 82.398914 
L 225.848995 63.386696 
L 209.711992 53.568 
L 209.711992 53.568 
" style="fill:none;stroke:#ffffff;stroke-linecap:square;"/>
   </g>
   <g id="patch_3">
    <path d="M 57.6 307.584 
L 57.6 41.472 
" style="fill:none;stroke:#000000;stroke-linecap:square;stroke-linejoin:miter;stroke-width:0.8;"/>
   </g>
   <g id="patch_4">
    <path d="M 414.72 307.584 
L 414.72 41.472 
" style="fill:none;stroke:#000000;stroke-linecap:square;stroke-linejoin:miter;stroke-width:0.8;"/>
   </g>
   <g id="patch_5">
    <path d="M 57.6 307.584 
L 414.72 307.584 
" style="fill:none;stroke:#000000;stroke-linecap:square;stroke-linejoin:miter;stroke-width:0.8;"/>
   </g>
   <g id="patch_6">
    <path d="M 57.6 41.472 
L 414.72 41.472 
" style="fill:none;stroke:#000000;stroke-linecap:square;stroke-linejoin:miter;stroke-width:0.8;"/>
   </g>
  </g>
 </g>
 <defs>
  <clipPath id="pb0bca1c14f">
   <rect height="266.112" width="357.12" x="57.6" y="41.472"/>
  </clipPath>
 </defs>
</svg>
