<?xml version="1.0" encoding="utf-8" standalone="no"?>
<!DOCTYPE svg PUBLIC "-//W3C//DTD SVG 1.1//EN"
  "http://www.w3.org/Graphics/SVG/1.1/DTD/svg11.dtd">
<!-- Created with matplotlib (https://matplotlib.org/) -->
<svg height="345.6pt" version="1.1" viewBox="0 0 460.8 345.6" width="460.8pt" xmlns="http://www.w3.org/2000/svg" xmlns:xlink="http://www.w3.org/1999/xlink">
 <metadata>
  <rdf:RDF xmlns:cc="http://creativecommons.org/ns#" xmlns:dc="http://purl.org/dc/elements/1.1/" xmlns:rdf="http://www.w3.org/1999/02/22-rdf-syntax-ns#">
   <cc:Work>
    <dc:type rdf:resource="http://purl.org/dc/dcmitype/StillImage"/>
    <dc:date>2021-07-27T15:22:31.999636</dc:date>
    <dc:format>image/svg+xml</dc:format>
    <dc:creator>
     <cc:Agent>
      <dc:title>Matplotlib v3.3.3, https://matplotlib.org/</dc:title>
     </cc:Agent>
    </dc:creator>
   </cc:Work>
  </rdf:RDF>
 </metadata>
 <defs>
  <style type="text/css">*{stroke-linecap:butt;stroke-linejoin:round;}</style>
 </defs>
 <g id="figure_1">
  <g id="patch_1">
   <path d="M 0 345.6 
L 460.8 345.6 
L 460.8 0 
L 0 0 
z
" style="fill:#ffffff;"/>
  </g>
  <g id="axes_1">
   <g id="patch_2">
    <path d="M 57.6 307.584 
L 414.72 307.584 
L 414.72 41.472 
L 57.6 41.472 
z
" style="fill:#7d9051;"/>
   </g>
   <g id="matplotlib.axis_1">
    <g id="xtick_1">
     <g id="line2d_1">
      <defs>
       <path d="M 0 0 
L 0 3.5 
" id="m344a140e54" style="stroke:#000000;stroke-width:0.8;"/>
      </defs>
      <g>
       <use style="stroke:#000000;stroke-width:0.8;" x="126.658845" xlink:href="#m344a140e54" y="307.584"/>
      </g>
     </g>
     <g id="text_1">
      <!-- 0 -->
      <g transform="translate(123.477595 322.182437)scale(0.1 -0.1)">
       <defs>
        <path d="M 31.78125 66.40625 
Q 24.171875 66.40625 20.328125 58.90625 
Q 16.5 51.421875 16.5 36.375 
Q 16.5 21.390625 20.328125 13.890625 
Q 24.171875 6.390625 31.78125 6.390625 
Q 39.453125 6.390625 43.28125 13.890625 
Q 47.125 21.390625 47.125 36.375 
Q 47.125 51.421875 43.28125 58.90625 
Q 39.453125 66.40625 31.78125 66.40625 
z
M 31.78125 74.21875 
Q 44.046875 74.21875 50.515625 64.515625 
Q 56.984375 54.828125 56.984375 36.375 
Q 56.984375 17.96875 50.515625 8.265625 
Q 44.046875 -1.421875 31.78125 -1.421875 
Q 19.53125 -1.421875 13.0625 8.265625 
Q 6.59375 17.96875 6.59375 36.375 
Q 6.59375 54.828125 13.0625 64.515625 
Q 19.53125 74.21875 31.78125 74.21875 
z
" id="DejaVuSans-48"/>
       </defs>
       <use xlink:href="#DejaVuSans-48"/>
      </g>
     </g>
    </g>
    <g id="xtick_2">
     <g id="line2d_2">
      <g>
       <use style="stroke:#000000;stroke-width:0.8;" x="200.231744" xlink:href="#m344a140e54" y="307.584"/>
      </g>
     </g>
     <g id="text_2">
      <!-- 50 -->
      <g transform="translate(193.869244 322.182437)scale(0.1 -0.1)">
       <defs>
        <path d="M 10.796875 72.90625 
L 49.515625 72.90625 
L 49.515625 64.59375 
L 19.828125 64.59375 
L 19.828125 46.734375 
Q 21.96875 47.46875 24.109375 47.828125 
Q 26.265625 48.1875 28.421875 48.1875 
Q 40.625 48.1875 47.75 41.5 
Q 54.890625 34.8125 54.890625 23.390625 
Q 54.890625 11.625 47.5625 5.09375 
Q 40.234375 -1.421875 26.90625 -1.421875 
Q 22.3125 -1.421875 17.546875 -0.640625 
Q 12.796875 0.140625 7.71875 1.703125 
L 7.71875 11.625 
Q 12.109375 9.234375 16.796875 8.0625 
Q 21.484375 6.890625 26.703125 6.890625 
Q 35.15625 6.890625 40.078125 11.328125 
Q 45.015625 15.765625 45.015625 23.390625 
Q 45.015625 31 40.078125 35.4375 
Q 35.15625 39.890625 26.703125 39.890625 
Q 22.75 39.890625 18.8125 39.015625 
Q 14.890625 38.140625 10.796875 36.28125 
z
" id="DejaVuSans-53"/>
       </defs>
       <use xlink:href="#DejaVuSans-53"/>
       <use x="63.623047" xlink:href="#DejaVuSans-48"/>
      </g>
     </g>
    </g>
    <g id="xtick_3">
     <g id="line2d_3">
      <g>
       <use style="stroke:#000000;stroke-width:0.8;" x="273.804644" xlink:href="#m344a140e54" y="307.584"/>
      </g>
     </g>
     <g id="text_3">
      <!-- 100 -->
      <g transform="translate(264.260894 322.182437)scale(0.1 -0.1)">
       <defs>
        <path d="M 12.40625 8.296875 
L 28.515625 8.296875 
L 28.515625 63.921875 
L 10.984375 60.40625 
L 10.984375 69.390625 
L 28.421875 72.90625 
L 38.28125 72.90625 
L 38.28125 8.296875 
L 54.390625 8.296875 
L 54.390625 0 
L 12.40625 0 
z
" id="DejaVuSans-49"/>
       </defs>
       <use xlink:href="#DejaVuSans-49"/>
       <use x="63.623047" xlink:href="#DejaVuSans-48"/>
       <use x="127.246094" xlink:href="#DejaVuSans-48"/>
      </g>
     </g>
    </g>
    <g id="xtick_4">
     <g id="line2d_4">
      <g>
       <use style="stroke:#000000;stroke-width:0.8;" x="347.377544" xlink:href="#m344a140e54" y="307.584"/>
      </g>
     </g>
     <g id="text_4">
      <!-- 150 -->
      <g transform="translate(337.833794 322.182437)scale(0.1 -0.1)">
       <use xlink:href="#DejaVuSans-49"/>
       <use x="63.623047" xlink:href="#DejaVuSans-53"/>
       <use x="127.246094" xlink:href="#DejaVuSans-48"/>
      </g>
     </g>
    </g>
   </g>
   <g id="matplotlib.axis_2">
    <g id="ytick_1">
     <g id="line2d_5">
      <defs>
       <path d="M 0 0 
L -3.5 0 
" id="m18f9eb41ed" style="stroke:#000000;stroke-width:0.8;"/>
      </defs>
      <g>
       <use style="stroke:#000000;stroke-width:0.8;" x="57.6" xlink:href="#m18f9eb41ed" y="295.423453"/>
      </g>
     </g>
     <g id="text_5">
      <!-- 25 -->
      <g transform="translate(37.875 299.222672)scale(0.1 -0.1)">
       <defs>
        <path d="M 19.1875 8.296875 
L 53.609375 8.296875 
L 53.609375 0 
L 7.328125 0 
L 7.328125 8.296875 
Q 12.9375 14.109375 22.625 23.890625 
Q 32.328125 33.6875 34.8125 36.53125 
Q 39.546875 41.84375 41.421875 45.53125 
Q 43.3125 49.21875 43.3125 52.78125 
Q 43.3125 58.59375 39.234375 62.25 
Q 35.15625 65.921875 28.609375 65.921875 
Q 23.96875 65.921875 18.8125 64.3125 
Q 13.671875 62.703125 7.8125 59.421875 
L 7.8125 69.390625 
Q 13.765625 71.78125 18.9375 73 
Q 24.125 74.21875 28.421875 74.21875 
Q 39.75 74.21875 46.484375 68.546875 
Q 53.21875 62.890625 53.21875 53.421875 
Q 53.21875 48.921875 51.53125 44.890625 
Q 49.859375 40.875 45.40625 35.40625 
Q 44.1875 33.984375 37.640625 27.21875 
Q 31.109375 20.453125 19.1875 8.296875 
z
" id="DejaVuSans-50"/>
       </defs>
       <use xlink:href="#DejaVuSans-50"/>
       <use x="63.623047" xlink:href="#DejaVuSans-53"/>
      </g>
     </g>
    </g>
    <g id="ytick_2">
     <g id="line2d_6">
      <g>
       <use style="stroke:#000000;stroke-width:0.8;" x="57.6" xlink:href="#m18f9eb41ed" y="258.637003"/>
      </g>
     </g>
     <g id="text_6">
      <!-- 50 -->
      <g transform="translate(37.875 262.436222)scale(0.1 -0.1)">
       <use xlink:href="#DejaVuSans-53"/>
       <use x="63.623047" xlink:href="#DejaVuSans-48"/>
      </g>
     </g>
    </g>
    <g id="ytick_3">
     <g id="line2d_7">
      <g>
       <use style="stroke:#000000;stroke-width:0.8;" x="57.6" xlink:href="#m18f9eb41ed" y="221.850554"/>
      </g>
     </g>
     <g id="text_7">
      <!-- 75 -->
      <g transform="translate(37.875 225.649772)scale(0.1 -0.1)">
       <defs>
        <path d="M 8.203125 72.90625 
L 55.078125 72.90625 
L 55.078125 68.703125 
L 28.609375 0 
L 18.3125 0 
L 43.21875 64.59375 
L 8.203125 64.59375 
z
" id="DejaVuSans-55"/>
       </defs>
       <use xlink:href="#DejaVuSans-55"/>
       <use x="63.623047" xlink:href="#DejaVuSans-53"/>
      </g>
     </g>
    </g>
    <g id="ytick_4">
     <g id="line2d_8">
      <g>
       <use style="stroke:#000000;stroke-width:0.8;" x="57.6" xlink:href="#m18f9eb41ed" y="185.064104"/>
      </g>
     </g>
     <g id="text_8">
      <!-- 100 -->
      <g transform="translate(31.5125 188.863322)scale(0.1 -0.1)">
       <use xlink:href="#DejaVuSans-49"/>
       <use x="63.623047" xlink:href="#DejaVuSans-48"/>
       <use x="127.246094" xlink:href="#DejaVuSans-48"/>
      </g>
     </g>
    </g>
    <g id="ytick_5">
     <g id="line2d_9">
      <g>
       <use style="stroke:#000000;stroke-width:0.8;" x="57.6" xlink:href="#m18f9eb41ed" y="148.277654"/>
      </g>
     </g>
     <g id="text_9">
      <!-- 125 -->
      <g transform="translate(31.5125 152.076872)scale(0.1 -0.1)">
       <use xlink:href="#DejaVuSans-49"/>
       <use x="63.623047" xlink:href="#DejaVuSans-50"/>
       <use x="127.246094" xlink:href="#DejaVuSans-53"/>
      </g>
     </g>
    </g>
    <g id="ytick_6">
     <g id="line2d_10">
      <g>
       <use style="stroke:#000000;stroke-width:0.8;" x="57.6" xlink:href="#m18f9eb41ed" y="111.491204"/>
      </g>
     </g>
     <g id="text_10">
      <!-- 150 -->
      <g transform="translate(31.5125 115.290422)scale(0.1 -0.1)">
       <use xlink:href="#DejaVuSans-49"/>
       <use x="63.623047" xlink:href="#DejaVuSans-53"/>
       <use x="127.246094" xlink:href="#DejaVuSans-48"/>
      </g>
     </g>
    </g>
    <g id="ytick_7">
     <g id="line2d_11">
      <g>
       <use style="stroke:#000000;stroke-width:0.8;" x="57.6" xlink:href="#m18f9eb41ed" y="74.704754"/>
      </g>
     </g>
     <g id="text_11">
      <!-- 175 -->
      <g transform="translate(31.5125 78.503973)scale(0.1 -0.1)">
       <use xlink:href="#DejaVuSans-49"/>
       <use x="63.623047" xlink:href="#DejaVuSans-55"/>
       <use x="127.246094" xlink:href="#DejaVuSans-53"/>
      </g>
     </g>
    </g>
   </g>
   <g id="line2d_12">
    <path clip-path="url(#p7a60473f63)" d="M 310.591094 295.423453 
L 310.720583 290.997308 
L 311.157606 285.107061 
L 311.988979 274.806855 
L 312.115525 270.38071 
L 312.039009 267.428965 
L 311.791804 264.486049 
L 311.329766 261.571091 
L 310.611695 258.707633 
L 309.646418 255.917749 
L 308.483966 253.202909 
L 307.156711 250.566056 
L 304.914209 246.747623 
L 302.434803 243.077807 
L 299.777349 239.534536 
L 296.036903 234.965659 
L 291.16932 229.416791 
L 288.145474 226.181054 
L 285.988317 224.165157 
L 282.586306 221.329657 
L 277.870283 217.774615 
L 269.572731 211.616563 
L 266.167777 208.784007 
L 264.006205 206.772523 
L 261.968236 204.637438 
L 259.090064 201.270742 
L 255.448206 196.622406 
L 252.027066 191.809267 
L 248.832531 186.843096 
L 245.869014 181.735666 
L 243.151231 176.492861 
L 241.29278 172.472838 
L 240.224501 169.721211 
L 238.882532 165.50107 
L 237.768638 161.214712 
L 235.835142 152.569897 
L 234.463743 146.826796 
L 233.230661 142.572811 
L 232.259499 139.784398 
L 229.99934 134.328232 
L 226.976965 127.59484 
L 224.359241 122.302006 
L 221.504613 117.132774 
L 219.176766 113.36437 
L 216.660573 109.719568 
L 213.933961 106.230741 
L 211.971036 104.025026 
L 209.877152 101.942913 
L 206.551657 99.019126 
L 203.07313 96.2778 
L 197.09901 91.941413 
L 189.928596 86.74128 
L 186.458898 83.989654 
L 182.012152 80.103533 
L 175.484764 74.116171 
L 161.566243 60.901006 
L 158.337864 57.868331 
L 158.337864 57.868331 
" style="fill:none;stroke:#fea952;stroke-linecap:square;"/>
   </g>
   <g id="line2d_13">
    <path clip-path="url(#p7a60473f63)" d="M 304.705616 295.358907 
L 304.845274 290.645493 
L 305.294993 284.584767 
L 306.10934 274.536932 
L 306.230186 270.456914 
L 306.082386 266.542278 
L 305.796802 264.06236 
L 305.331039 261.697063 
L 304.631311 259.333618 
L 303.71503 256.955367 
L 302.620342 254.596636 
L 300.690594 251.104848 
L 298.468319 247.670225 
L 296.020434 244.299746 
L 292.489994 239.889334 
L 287.762207 234.437965 
L 284.06947 230.427136 
L 281.109548 227.723872 
L 277.860385 225.109994 
L 272.019956 220.797112 
L 265.893735 216.210908 
L 262.213213 213.143415 
L 259.815047 210.904982 
L 257.545243 208.520755 
L 254.522167 204.982525 
L 250.713619 200.119077 
L 248.005058 196.353161 
L 244.604818 191.196083 
L 241.44388 185.888032 
L 238.531063 180.426781 
L 236.499081 176.193791 
L 235.219529 173.15257 
L 234.134981 170.101415 
L 232.794026 165.555245 
L 231.356902 159.610482 
L 228.781936 148.363054 
L 227.648045 144.437593 
L 226.281113 140.664663 
L 223.446505 134.029012 
L 221.051295 128.842187 
L 218.498173 123.806801 
L 215.739396 118.955342 
L 213.51576 115.477182 
L 211.135292 112.158034 
L 208.636019 109.094678 
L 206.844158 107.198805 
L 203.892991 104.473955 
L 200.668574 101.849347 
L 196.081747 98.444763 
L 186.341927 91.408059 
L 182.651207 88.477918 
L 178.076034 84.479604 
L 171.456862 78.407909 
L 157.52627 65.181384 
L 154.319137 62.168663 
L 154.319137 62.168663 
" style="fill:none;stroke:#ffffff;stroke-linecap:square;"/>
   </g>
   <g id="line2d_14">
    <path clip-path="url(#p7a60473f63)" d="M 316.476572 295.488 
L 316.595891 291.349123 
L 317.020218 285.629356 
L 317.868619 275.076779 
L 318.000863 270.304505 
L 317.911307 267.030048 
L 317.622516 263.68242 
L 317.071129 260.275032 
L 316.209967 256.890393 
L 315.094125 253.689408 
L 313.778584 250.631909 
L 312.302408 247.70864 
L 310.694627 244.900705 
L 308.099349 240.901523 
L 305.338272 237.106 
L 301.487879 232.2992 
L 296.542301 226.596918 
L 293.379773 223.111009 
L 291.040837 220.804556 
L 287.422418 217.664549 
L 283.758858 214.808058 
L 271.136746 205.300575 
L 268.197364 202.640065 
L 266.391229 200.754121 
L 262.771251 196.468418 
L 259.349995 191.99891 
L 256.138782 187.368798 
L 253.144154 182.598469 
L 250.375028 177.698227 
L 247.845238 172.674594 
L 246.256552 169.059136 
L 244.945405 165.250111 
L 243.836572 161.245258 
L 242.218443 154.192672 
L 240.531791 146.801935 
L 239.289547 142.239573 
L 238.295915 139.165253 
L 236.576449 134.760827 
L 233.568298 127.830546 
L 230.957128 122.299873 
L 228.101122 116.825659 
L 225.757171 112.773412 
L 223.204454 108.79128 
L 220.417162 104.917941 
L 218.392449 102.388229 
L 216.176708 99.907339 
L 213.859397 97.608776 
L 210.266311 94.453563 
L 206.597119 91.563511 
L 200.507305 87.142815 
L 193.515264 82.074501 
L 190.266588 79.50139 
L 185.948269 75.727462 
L 179.512666 69.824432 
L 166.681837 57.637228 
L 162.356591 53.568 
L 162.356591 53.568 
" style="fill:none;stroke:#ffffff;stroke-linecap:square;"/>
   </g>
   <g id="patch_3">
    <path d="M 57.6 307.584 
L 57.6 41.472 
" style="fill:none;stroke:#000000;stroke-linecap:square;stroke-linejoin:miter;stroke-width:0.8;"/>
   </g>
   <g id="patch_4">
    <path d="M 414.72 307.584 
L 414.72 41.472 
" style="fill:none;stroke:#000000;stroke-linecap:square;stroke-linejoin:miter;stroke-width:0.8;"/>
   </g>
   <g id="patch_5">
    <path d="M 57.6 307.584 
L 414.72 307.584 
" style="fill:none;stroke:#000000;stroke-linecap:square;stroke-linejoin:miter;stroke-width:0.8;"/>
   </g>
   <g id="patch_6">
    <path d="M 57.6 41.472 
L 414.72 41.472 
" style="fill:none;stroke:#000000;stroke-linecap:square;stroke-linejoin:miter;stroke-width:0.8;"/>
   </g>
  </g>
 </g>
 <defs>
  <clipPath id="p7a60473f63">
   <rect height="266.112" width="357.12" x="57.6" y="41.472"/>
  </clipPath>
 </defs>
</svg>
