<?xml version="1.0" encoding="utf-8" standalone="no"?>
<!DOCTYPE svg PUBLIC "-//W3C//DTD SVG 1.1//EN"
  "http://www.w3.org/Graphics/SVG/1.1/DTD/svg11.dtd">
<!-- Created with matplotlib (https://matplotlib.org/) -->
<svg height="345.6pt" version="1.1" viewBox="0 0 460.8 345.6" width="460.8pt" xmlns="http://www.w3.org/2000/svg" xmlns:xlink="http://www.w3.org/1999/xlink">
 <metadata>
  <rdf:RDF xmlns:cc="http://creativecommons.org/ns#" xmlns:dc="http://purl.org/dc/elements/1.1/" xmlns:rdf="http://www.w3.org/1999/02/22-rdf-syntax-ns#">
   <cc:Work>
    <dc:type rdf:resource="http://purl.org/dc/dcmitype/StillImage"/>
    <dc:date>2021-07-12T19:34:09.867527</dc:date>
    <dc:format>image/svg+xml</dc:format>
    <dc:creator>
     <cc:Agent>
      <dc:title>Matplotlib v3.3.3, https://matplotlib.org/</dc:title>
     </cc:Agent>
    </dc:creator>
   </cc:Work>
  </rdf:RDF>
 </metadata>
 <defs>
  <style type="text/css">*{stroke-linecap:butt;stroke-linejoin:round;}</style>
 </defs>
 <g id="figure_1">
  <g id="patch_1">
   <path d="M 0 345.6 
L 460.8 345.6 
L 460.8 0 
L 0 0 
z
" style="fill:#ffffff;"/>
  </g>
  <g id="axes_1">
   <g id="patch_2">
    <path d="M 57.6 307.584 
L 414.72 307.584 
L 414.72 41.472 
L 57.6 41.472 
z
" style="fill:#7d9051;"/>
   </g>
   <g id="matplotlib.axis_1">
    <g id="xtick_1">
     <g id="line2d_1">
      <defs>
       <path d="M 0 0 
L 0 3.5 
" id="m4bf60f86f5" style="stroke:#000000;stroke-width:0.8;"/>
      </defs>
      <g>
       <use style="stroke:#000000;stroke-width:0.8;" x="105.922254" xlink:href="#m4bf60f86f5" y="307.584"/>
      </g>
     </g>
     <g id="text_1">
      <!-- 0 -->
      <g transform="translate(102.741004 322.182437)scale(0.1 -0.1)">
       <defs>
        <path d="M 31.78125 66.40625 
Q 24.171875 66.40625 20.328125 58.90625 
Q 16.5 51.421875 16.5 36.375 
Q 16.5 21.390625 20.328125 13.890625 
Q 24.171875 6.390625 31.78125 6.390625 
Q 39.453125 6.390625 43.28125 13.890625 
Q 47.125 21.390625 47.125 36.375 
Q 47.125 51.421875 43.28125 58.90625 
Q 39.453125 66.40625 31.78125 66.40625 
z
M 31.78125 74.21875 
Q 44.046875 74.21875 50.515625 64.515625 
Q 56.984375 54.828125 56.984375 36.375 
Q 56.984375 17.96875 50.515625 8.265625 
Q 44.046875 -1.421875 31.78125 -1.421875 
Q 19.53125 -1.421875 13.0625 8.265625 
Q 6.59375 17.96875 6.59375 36.375 
Q 6.59375 54.828125 13.0625 64.515625 
Q 19.53125 74.21875 31.78125 74.21875 
z
" id="DejaVuSans-48"/>
       </defs>
       <use xlink:href="#DejaVuSans-48"/>
      </g>
     </g>
    </g>
    <g id="xtick_2">
     <g id="line2d_2">
      <g>
       <use style="stroke:#000000;stroke-width:0.8;" x="173.77833" xlink:href="#m4bf60f86f5" y="307.584"/>
      </g>
     </g>
     <g id="text_2">
      <!-- 50 -->
      <g transform="translate(167.41583 322.182437)scale(0.1 -0.1)">
       <defs>
        <path d="M 10.796875 72.90625 
L 49.515625 72.90625 
L 49.515625 64.59375 
L 19.828125 64.59375 
L 19.828125 46.734375 
Q 21.96875 47.46875 24.109375 47.828125 
Q 26.265625 48.1875 28.421875 48.1875 
Q 40.625 48.1875 47.75 41.5 
Q 54.890625 34.8125 54.890625 23.390625 
Q 54.890625 11.625 47.5625 5.09375 
Q 40.234375 -1.421875 26.90625 -1.421875 
Q 22.3125 -1.421875 17.546875 -0.640625 
Q 12.796875 0.140625 7.71875 1.703125 
L 7.71875 11.625 
Q 12.109375 9.234375 16.796875 8.0625 
Q 21.484375 6.890625 26.703125 6.890625 
Q 35.15625 6.890625 40.078125 11.328125 
Q 45.015625 15.765625 45.015625 23.390625 
Q 45.015625 31 40.078125 35.4375 
Q 35.15625 39.890625 26.703125 39.890625 
Q 22.75 39.890625 18.8125 39.015625 
Q 14.890625 38.140625 10.796875 36.28125 
z
" id="DejaVuSans-53"/>
       </defs>
       <use xlink:href="#DejaVuSans-53"/>
       <use x="63.623047" xlink:href="#DejaVuSans-48"/>
      </g>
     </g>
    </g>
    <g id="xtick_3">
     <g id="line2d_3">
      <g>
       <use style="stroke:#000000;stroke-width:0.8;" x="241.634406" xlink:href="#m4bf60f86f5" y="307.584"/>
      </g>
     </g>
     <g id="text_3">
      <!-- 100 -->
      <g transform="translate(232.090656 322.182437)scale(0.1 -0.1)">
       <defs>
        <path d="M 12.40625 8.296875 
L 28.515625 8.296875 
L 28.515625 63.921875 
L 10.984375 60.40625 
L 10.984375 69.390625 
L 28.421875 72.90625 
L 38.28125 72.90625 
L 38.28125 8.296875 
L 54.390625 8.296875 
L 54.390625 0 
L 12.40625 0 
z
" id="DejaVuSans-49"/>
       </defs>
       <use xlink:href="#DejaVuSans-49"/>
       <use x="63.623047" xlink:href="#DejaVuSans-48"/>
       <use x="127.246094" xlink:href="#DejaVuSans-48"/>
      </g>
     </g>
    </g>
    <g id="xtick_4">
     <g id="line2d_4">
      <g>
       <use style="stroke:#000000;stroke-width:0.8;" x="309.490481" xlink:href="#m4bf60f86f5" y="307.584"/>
      </g>
     </g>
     <g id="text_4">
      <!-- 150 -->
      <g transform="translate(299.946731 322.182437)scale(0.1 -0.1)">
       <use xlink:href="#DejaVuSans-49"/>
       <use x="63.623047" xlink:href="#DejaVuSans-53"/>
       <use x="127.246094" xlink:href="#DejaVuSans-48"/>
      </g>
     </g>
    </g>
    <g id="xtick_5">
     <g id="line2d_5">
      <g>
       <use style="stroke:#000000;stroke-width:0.8;" x="377.346557" xlink:href="#m4bf60f86f5" y="307.584"/>
      </g>
     </g>
     <g id="text_5">
      <!-- 200 -->
      <g transform="translate(367.802807 322.182437)scale(0.1 -0.1)">
       <defs>
        <path d="M 19.1875 8.296875 
L 53.609375 8.296875 
L 53.609375 0 
L 7.328125 0 
L 7.328125 8.296875 
Q 12.9375 14.109375 22.625 23.890625 
Q 32.328125 33.6875 34.8125 36.53125 
Q 39.546875 41.84375 41.421875 45.53125 
Q 43.3125 49.21875 43.3125 52.78125 
Q 43.3125 58.59375 39.234375 62.25 
Q 35.15625 65.921875 28.609375 65.921875 
Q 23.96875 65.921875 18.8125 64.3125 
Q 13.671875 62.703125 7.8125 59.421875 
L 7.8125 69.390625 
Q 13.765625 71.78125 18.9375 73 
Q 24.125 74.21875 28.421875 74.21875 
Q 39.75 74.21875 46.484375 68.546875 
Q 53.21875 62.890625 53.21875 53.421875 
Q 53.21875 48.921875 51.53125 44.890625 
Q 49.859375 40.875 45.40625 35.40625 
Q 44.1875 33.984375 37.640625 27.21875 
Q 31.109375 20.453125 19.1875 8.296875 
z
" id="DejaVuSans-50"/>
       </defs>
       <use xlink:href="#DejaVuSans-50"/>
       <use x="63.623047" xlink:href="#DejaVuSans-48"/>
       <use x="127.246094" xlink:href="#DejaVuSans-48"/>
      </g>
     </g>
    </g>
   </g>
   <g id="matplotlib.axis_2">
    <g id="ytick_1">
     <g id="line2d_6">
      <defs>
       <path d="M 0 0 
L -3.5 0 
" id="m990d58eea6" style="stroke:#000000;stroke-width:0.8;"/>
      </defs>
      <g>
       <use style="stroke:#000000;stroke-width:0.8;" x="57.6" xlink:href="#m990d58eea6" y="284.414244"/>
      </g>
     </g>
     <g id="text_6">
      <!-- 25 -->
      <g transform="translate(37.875 288.213463)scale(0.1 -0.1)">
       <use xlink:href="#DejaVuSans-50"/>
       <use x="63.623047" xlink:href="#DejaVuSans-53"/>
      </g>
     </g>
    </g>
    <g id="ytick_2">
     <g id="line2d_7">
      <g>
       <use style="stroke:#000000;stroke-width:0.8;" x="57.6" xlink:href="#m990d58eea6" y="250.486206"/>
      </g>
     </g>
     <g id="text_7">
      <!-- 50 -->
      <g transform="translate(37.875 254.285425)scale(0.1 -0.1)">
       <use xlink:href="#DejaVuSans-53"/>
       <use x="63.623047" xlink:href="#DejaVuSans-48"/>
      </g>
     </g>
    </g>
    <g id="ytick_3">
     <g id="line2d_8">
      <g>
       <use style="stroke:#000000;stroke-width:0.8;" x="57.6" xlink:href="#m990d58eea6" y="216.558168"/>
      </g>
     </g>
     <g id="text_8">
      <!-- 75 -->
      <g transform="translate(37.875 220.357387)scale(0.1 -0.1)">
       <defs>
        <path d="M 8.203125 72.90625 
L 55.078125 72.90625 
L 55.078125 68.703125 
L 28.609375 0 
L 18.3125 0 
L 43.21875 64.59375 
L 8.203125 64.59375 
z
" id="DejaVuSans-55"/>
       </defs>
       <use xlink:href="#DejaVuSans-55"/>
       <use x="63.623047" xlink:href="#DejaVuSans-53"/>
      </g>
     </g>
    </g>
    <g id="ytick_4">
     <g id="line2d_9">
      <g>
       <use style="stroke:#000000;stroke-width:0.8;" x="57.6" xlink:href="#m990d58eea6" y="182.630131"/>
      </g>
     </g>
     <g id="text_9">
      <!-- 100 -->
      <g transform="translate(31.5125 186.429349)scale(0.1 -0.1)">
       <use xlink:href="#DejaVuSans-49"/>
       <use x="63.623047" xlink:href="#DejaVuSans-48"/>
       <use x="127.246094" xlink:href="#DejaVuSans-48"/>
      </g>
     </g>
    </g>
    <g id="ytick_5">
     <g id="line2d_10">
      <g>
       <use style="stroke:#000000;stroke-width:0.8;" x="57.6" xlink:href="#m990d58eea6" y="148.702093"/>
      </g>
     </g>
     <g id="text_10">
      <!-- 125 -->
      <g transform="translate(31.5125 152.501311)scale(0.1 -0.1)">
       <use xlink:href="#DejaVuSans-49"/>
       <use x="63.623047" xlink:href="#DejaVuSans-50"/>
       <use x="127.246094" xlink:href="#DejaVuSans-53"/>
      </g>
     </g>
    </g>
    <g id="ytick_6">
     <g id="line2d_11">
      <g>
       <use style="stroke:#000000;stroke-width:0.8;" x="57.6" xlink:href="#m990d58eea6" y="114.774055"/>
      </g>
     </g>
     <g id="text_11">
      <!-- 150 -->
      <g transform="translate(31.5125 118.573274)scale(0.1 -0.1)">
       <use xlink:href="#DejaVuSans-49"/>
       <use x="63.623047" xlink:href="#DejaVuSans-53"/>
       <use x="127.246094" xlink:href="#DejaVuSans-48"/>
      </g>
     </g>
    </g>
    <g id="ytick_7">
     <g id="line2d_12">
      <g>
       <use style="stroke:#000000;stroke-width:0.8;" x="57.6" xlink:href="#m990d58eea6" y="80.846017"/>
      </g>
     </g>
     <g id="text_12">
      <!-- 175 -->
      <g transform="translate(31.5125 84.645236)scale(0.1 -0.1)">
       <use xlink:href="#DejaVuSans-49"/>
       <use x="63.623047" xlink:href="#DejaVuSans-55"/>
       <use x="127.246094" xlink:href="#DejaVuSans-53"/>
      </g>
     </g>
    </g>
    <g id="ytick_8">
     <g id="line2d_13">
      <g>
       <use style="stroke:#000000;stroke-width:0.8;" x="57.6" xlink:href="#m990d58eea6" y="46.917979"/>
      </g>
     </g>
     <g id="text_13">
      <!-- 200 -->
      <g transform="translate(31.5125 50.717198)scale(0.1 -0.1)">
       <use xlink:href="#DejaVuSans-50"/>
       <use x="63.623047" xlink:href="#DejaVuSans-48"/>
       <use x="127.246094" xlink:href="#DejaVuSans-48"/>
      </g>
     </g>
    </g>
   </g>
   <g id="line2d_14">
    <path clip-path="url(#p1185a20301)" d="M 128.99332 55.060708 
L 134.383807 73.597631 
L 139.758008 91.373209 
L 145.115924 108.387441 
L 150.45484 124.640328 
L 155.778827 140.13187 
L 161.083815 154.86071 
L 166.372518 168.829562 
L 171.644935 182.037068 
L 176.150578 192.750186 
L 180.642651 202.905526 
L 185.122509 212.500375 
L 189.590153 221.53609 
L 194.045583 230.012671 
L 198.487441 237.930118 
L 202.917086 245.287074 
L 206.600314 250.991056 
L 210.272685 256.306901 
L 213.93827 261.233252 
L 217.594355 265.771466 
L 221.240941 269.921544 
L 224.879383 273.683484 
L 228.509684 277.055931 
L 231.407138 279.475679 
L 234.299164 281.644359 
L 237.185761 283.566043 
L 240.06693 285.239374 
L 242.942671 286.662995 
L 245.811626 287.838262 
L 248.676509 288.765176 
L 251.534607 289.443737 
L 254.388634 289.872587 
L 257.235875 290.054441 
L 260.077687 289.986585 
L 262.914071 289.670376 
L 265.745027 289.104456 
L 268.570554 288.29154 
L 271.390652 287.228914 
L 274.203965 285.917935 
L 277.013206 284.358602 
L 279.815662 282.549559 
L 282.614047 280.49352 
L 285.405646 278.187771 
L 288.191816 275.633668 
L 290.972558 272.831212 
L 294.441361 268.976987 
L 297.900664 264.735982 
L 301.351824 260.105484 
L 304.793484 255.086848 
L 308.227001 249.680076 
L 311.651019 243.885167 
L 315.066894 237.700765 
L 318.474626 231.128225 
L 322.551419 222.727643 
L 326.617355 213.767927 
L 330.668363 204.249076 
L 334.708513 194.171092 
L 338.73645 183.533974 
L 342.750816 172.336364 
L 343.418519 170.416037 
L 343.418519 170.416037 
" style="fill:none;stroke:#fea952;stroke-linecap:square;"/>
   </g>
   <g id="line2d_15">
    <path clip-path="url(#p1185a20301)" d="M 134.212542 53.568 
L 139.586946 72.049793 
L 145.708496 92.23826 
L 151.044013 109.081924 
L 156.357014 125.156281 
L 161.652554 140.465147 
L 166.927152 155.005699 
L 172.178562 168.775756 
L 177.410912 181.780909 
L 181.874501 192.309337 
L 186.322403 202.275522 
L 190.746978 211.667099 
L 195.155981 220.495107 
L 199.540052 228.749533 
L 203.901105 236.43418 
L 207.510849 242.394704 
L 211.107601 247.965693 
L 214.673291 253.128359 
L 218.220924 257.897485 
L 221.736159 262.262347 
L 225.21792 266.226669 
L 228.65931 269.787253 
L 232.065842 272.954444 
L 235.419893 275.72188 
L 238.057662 277.649423 
L 240.662977 279.331959 
L 243.23581 280.773643 
L 245.761226 281.974986 
L 248.253595 282.946419 
L 250.701256 283.689723 
L 253.114446 284.215054 
L 255.504037 284.528287 
L 257.884852 284.63174 
L 260.240151 284.530118 
L 262.610979 284.218892 
L 264.996597 283.695592 
L 267.410073 282.950987 
L 269.844364 281.984969 
L 272.311382 280.783759 
L 274.802715 279.348486 
L 277.33015 277.664275 
L 279.885675 275.728942 
L 282.457469 273.550923 
L 285.707405 270.461757 
L 288.984309 266.97275 
L 292.276874 263.091171 
L 295.596483 258.790604 
L 298.918178 254.104131 
L 302.251605 249.012378 
L 305.592653 243.516377 
L 308.934999 237.623306 
L 312.279943 231.332113 
L 316.293995 223.254111 
L 320.305815 214.604848 
L 324.312731 205.386388 
L 328.315647 195.595755 
L 332.309987 185.238925 
L 336.295856 174.321859 
L 338.291136 168.63323 
L 338.291136 168.63323 
" style="fill:none;stroke:#ffffff;stroke-linecap:square;"/>
   </g>
   <g id="line2d_16">
    <path clip-path="url(#p1185a20301)" d="M 123.774097 56.553416 
L 129.180667 75.145469 
L 134.572347 92.978632 
L 139.94967 110.054261 
L 145.310514 126.373642 
L 150.6594 141.937397 
L 155.993912 156.747864 
L 161.315344 170.802747 
L 165.867827 182.249906 
L 170.412531 193.146632 
L 174.948251 203.487118 
L 179.478869 213.281836 
L 184.004576 222.523572 
L 188.527709 231.220503 
L 193.046563 239.363169 
L 196.815814 245.737576 
L 200.582623 251.723956 
L 204.360613 257.345849 
L 208.142923 262.58474 
L 211.930181 267.439268 
L 215.738389 271.929561 
L 219.559007 276.035864 
L 222.634201 279.052065 
L 225.731729 281.831549 
L 228.841075 284.358604 
L 231.984643 286.648994 
L 235.149809 288.68497 
L 238.3366 290.462379 
L 241.55995 291.986136 
L 244.802777 293.240383 
L 248.082169 294.226052 
L 251.38246 294.932986 
L 254.698208 295.355313 
L 258.00916 295.488 
L 260.501946 295.398467 
L 263.806509 295.025002 
L 267.078257 294.366676 
L 270.337451 293.424428 
L 273.54178 292.213 
L 276.713092 290.731742 
L 279.844253 288.990409 
L 282.927538 286.997558 
L 285.98903 284.745337 
L 288.994891 282.260335 
L 291.976871 279.524917 
L 294.92899 276.54808 
L 297.854243 273.329563 
L 301.474307 268.97272 
L 305.068756 264.234186 
L 308.62675 259.126673 
L 312.160028 253.643627 
L 315.673656 247.780197 
L 319.163722 241.542266 
L 322.635965 234.926202 
L 326.094599 227.925514 
L 330.220081 219.029909 
L 334.326037 209.58252 
L 338.411565 199.589036 
L 342.478527 189.04348 
L 346.532246 177.939893 
L 348.545903 172.198844 
L 348.545903 172.198844 
" style="fill:none;stroke:#ffffff;stroke-linecap:square;"/>
   </g>
   <g id="patch_3">
    <path d="M 57.6 307.584 
L 57.6 41.472 
" style="fill:none;stroke:#000000;stroke-linecap:square;stroke-linejoin:miter;stroke-width:0.8;"/>
   </g>
   <g id="patch_4">
    <path d="M 414.72 307.584 
L 414.72 41.472 
" style="fill:none;stroke:#000000;stroke-linecap:square;stroke-linejoin:miter;stroke-width:0.8;"/>
   </g>
   <g id="patch_5">
    <path d="M 57.6 307.584 
L 414.72 307.584 
" style="fill:none;stroke:#000000;stroke-linecap:square;stroke-linejoin:miter;stroke-width:0.8;"/>
   </g>
   <g id="patch_6">
    <path d="M 57.6 41.472 
L 414.72 41.472 
" style="fill:none;stroke:#000000;stroke-linecap:square;stroke-linejoin:miter;stroke-width:0.8;"/>
   </g>
  </g>
 </g>
 <defs>
  <clipPath id="p1185a20301">
   <rect height="266.112" width="357.12" x="57.6" y="41.472"/>
  </clipPath>
 </defs>
</svg>
