<?xml version="1.0" encoding="utf-8" standalone="no"?>
<!DOCTYPE svg PUBLIC "-//W3C//DTD SVG 1.1//EN"
  "http://www.w3.org/Graphics/SVG/1.1/DTD/svg11.dtd">
<!-- Created with matplotlib (https://matplotlib.org/) -->
<svg height="345.6pt" version="1.1" viewBox="0 0 460.8 345.6" width="460.8pt" xmlns="http://www.w3.org/2000/svg" xmlns:xlink="http://www.w3.org/1999/xlink">
 <metadata>
  <rdf:RDF xmlns:cc="http://creativecommons.org/ns#" xmlns:dc="http://purl.org/dc/elements/1.1/" xmlns:rdf="http://www.w3.org/1999/02/22-rdf-syntax-ns#">
   <cc:Work>
    <dc:type rdf:resource="http://purl.org/dc/dcmitype/StillImage"/>
    <dc:date>2021-07-14T14:26:51.142793</dc:date>
    <dc:format>image/svg+xml</dc:format>
    <dc:creator>
     <cc:Agent>
      <dc:title>Matplotlib v3.3.3, https://matplotlib.org/</dc:title>
     </cc:Agent>
    </dc:creator>
   </cc:Work>
  </rdf:RDF>
 </metadata>
 <defs>
  <style type="text/css">*{stroke-linecap:butt;stroke-linejoin:round;}</style>
 </defs>
 <g id="figure_1">
  <g id="patch_1">
   <path d="M 0 345.6 
L 460.8 345.6 
L 460.8 0 
L 0 0 
z
" style="fill:#ffffff;"/>
  </g>
  <g id="axes_1">
   <g id="patch_2">
    <path d="M 57.6 307.584 
L 414.72 307.584 
L 414.72 41.472 
L 57.6 41.472 
z
" style="fill:#7d9051;"/>
   </g>
   <g id="matplotlib.axis_1">
    <g id="xtick_1">
     <g id="line2d_1">
      <defs>
       <path d="M 0 0 
L 0 3.5 
" id="m9f89967fba" style="stroke:#000000;stroke-width:0.8;"/>
      </defs>
      <g>
       <use style="stroke:#000000;stroke-width:0.8;" x="80.129881" xlink:href="#m9f89967fba" y="307.584"/>
      </g>
     </g>
     <g id="text_1">
      <!-- 0 -->
      <g transform="translate(76.948631 322.182437)scale(0.1 -0.1)">
       <defs>
        <path d="M 31.78125 66.40625 
Q 24.171875 66.40625 20.328125 58.90625 
Q 16.5 51.421875 16.5 36.375 
Q 16.5 21.390625 20.328125 13.890625 
Q 24.171875 6.390625 31.78125 6.390625 
Q 39.453125 6.390625 43.28125 13.890625 
Q 47.125 21.390625 47.125 36.375 
Q 47.125 51.421875 43.28125 58.90625 
Q 39.453125 66.40625 31.78125 66.40625 
z
M 31.78125 74.21875 
Q 44.046875 74.21875 50.515625 64.515625 
Q 56.984375 54.828125 56.984375 36.375 
Q 56.984375 17.96875 50.515625 8.265625 
Q 44.046875 -1.421875 31.78125 -1.421875 
Q 19.53125 -1.421875 13.0625 8.265625 
Q 6.59375 17.96875 6.59375 36.375 
Q 6.59375 54.828125 13.0625 64.515625 
Q 19.53125 74.21875 31.78125 74.21875 
z
" id="DejaVuSans-48"/>
       </defs>
       <use xlink:href="#DejaVuSans-48"/>
      </g>
     </g>
    </g>
    <g id="xtick_2">
     <g id="line2d_2">
      <g>
       <use style="stroke:#000000;stroke-width:0.8;" x="152.369182" xlink:href="#m9f89967fba" y="307.584"/>
      </g>
     </g>
     <g id="text_2">
      <!-- 50 -->
      <g transform="translate(146.006682 322.182437)scale(0.1 -0.1)">
       <defs>
        <path d="M 10.796875 72.90625 
L 49.515625 72.90625 
L 49.515625 64.59375 
L 19.828125 64.59375 
L 19.828125 46.734375 
Q 21.96875 47.46875 24.109375 47.828125 
Q 26.265625 48.1875 28.421875 48.1875 
Q 40.625 48.1875 47.75 41.5 
Q 54.890625 34.8125 54.890625 23.390625 
Q 54.890625 11.625 47.5625 5.09375 
Q 40.234375 -1.421875 26.90625 -1.421875 
Q 22.3125 -1.421875 17.546875 -0.640625 
Q 12.796875 0.140625 7.71875 1.703125 
L 7.71875 11.625 
Q 12.109375 9.234375 16.796875 8.0625 
Q 21.484375 6.890625 26.703125 6.890625 
Q 35.15625 6.890625 40.078125 11.328125 
Q 45.015625 15.765625 45.015625 23.390625 
Q 45.015625 31 40.078125 35.4375 
Q 35.15625 39.890625 26.703125 39.890625 
Q 22.75 39.890625 18.8125 39.015625 
Q 14.890625 38.140625 10.796875 36.28125 
z
" id="DejaVuSans-53"/>
       </defs>
       <use xlink:href="#DejaVuSans-53"/>
       <use x="63.623047" xlink:href="#DejaVuSans-48"/>
      </g>
     </g>
    </g>
    <g id="xtick_3">
     <g id="line2d_3">
      <g>
       <use style="stroke:#000000;stroke-width:0.8;" x="224.608483" xlink:href="#m9f89967fba" y="307.584"/>
      </g>
     </g>
     <g id="text_3">
      <!-- 100 -->
      <g transform="translate(215.064733 322.182437)scale(0.1 -0.1)">
       <defs>
        <path d="M 12.40625 8.296875 
L 28.515625 8.296875 
L 28.515625 63.921875 
L 10.984375 60.40625 
L 10.984375 69.390625 
L 28.421875 72.90625 
L 38.28125 72.90625 
L 38.28125 8.296875 
L 54.390625 8.296875 
L 54.390625 0 
L 12.40625 0 
z
" id="DejaVuSans-49"/>
       </defs>
       <use xlink:href="#DejaVuSans-49"/>
       <use x="63.623047" xlink:href="#DejaVuSans-48"/>
       <use x="127.246094" xlink:href="#DejaVuSans-48"/>
      </g>
     </g>
    </g>
    <g id="xtick_4">
     <g id="line2d_4">
      <g>
       <use style="stroke:#000000;stroke-width:0.8;" x="296.847784" xlink:href="#m9f89967fba" y="307.584"/>
      </g>
     </g>
     <g id="text_4">
      <!-- 150 -->
      <g transform="translate(287.304034 322.182437)scale(0.1 -0.1)">
       <use xlink:href="#DejaVuSans-49"/>
       <use x="63.623047" xlink:href="#DejaVuSans-53"/>
       <use x="127.246094" xlink:href="#DejaVuSans-48"/>
      </g>
     </g>
    </g>
    <g id="xtick_5">
     <g id="line2d_5">
      <g>
       <use style="stroke:#000000;stroke-width:0.8;" x="369.087085" xlink:href="#m9f89967fba" y="307.584"/>
      </g>
     </g>
     <g id="text_5">
      <!-- 200 -->
      <g transform="translate(359.543335 322.182437)scale(0.1 -0.1)">
       <defs>
        <path d="M 19.1875 8.296875 
L 53.609375 8.296875 
L 53.609375 0 
L 7.328125 0 
L 7.328125 8.296875 
Q 12.9375 14.109375 22.625 23.890625 
Q 32.328125 33.6875 34.8125 36.53125 
Q 39.546875 41.84375 41.421875 45.53125 
Q 43.3125 49.21875 43.3125 52.78125 
Q 43.3125 58.59375 39.234375 62.25 
Q 35.15625 65.921875 28.609375 65.921875 
Q 23.96875 65.921875 18.8125 64.3125 
Q 13.671875 62.703125 7.8125 59.421875 
L 7.8125 69.390625 
Q 13.765625 71.78125 18.9375 73 
Q 24.125 74.21875 28.421875 74.21875 
Q 39.75 74.21875 46.484375 68.546875 
Q 53.21875 62.890625 53.21875 53.421875 
Q 53.21875 48.921875 51.53125 44.890625 
Q 49.859375 40.875 45.40625 35.40625 
Q 44.1875 33.984375 37.640625 27.21875 
Q 31.109375 20.453125 19.1875 8.296875 
z
" id="DejaVuSans-50"/>
       </defs>
       <use xlink:href="#DejaVuSans-50"/>
       <use x="63.623047" xlink:href="#DejaVuSans-48"/>
       <use x="127.246094" xlink:href="#DejaVuSans-48"/>
      </g>
     </g>
    </g>
   </g>
   <g id="matplotlib.axis_2">
    <g id="ytick_1">
     <g id="line2d_6">
      <defs>
       <path d="M 0 0 
L -3.5 0 
" id="m526e3110a9" style="stroke:#000000;stroke-width:0.8;"/>
      </defs>
      <g>
       <use style="stroke:#000000;stroke-width:0.8;" x="57.6" xlink:href="#m526e3110a9" y="295.464907"/>
      </g>
     </g>
     <g id="text_6">
      <!-- 25 -->
      <g transform="translate(37.875 299.264125)scale(0.1 -0.1)">
       <use xlink:href="#DejaVuSans-50"/>
       <use x="63.623047" xlink:href="#DejaVuSans-53"/>
      </g>
     </g>
    </g>
    <g id="ytick_2">
     <g id="line2d_7">
      <g>
       <use style="stroke:#000000;stroke-width:0.8;" x="57.6" xlink:href="#m526e3110a9" y="259.345256"/>
      </g>
     </g>
     <g id="text_7">
      <!-- 50 -->
      <g transform="translate(37.875 263.144475)scale(0.1 -0.1)">
       <use xlink:href="#DejaVuSans-53"/>
       <use x="63.623047" xlink:href="#DejaVuSans-48"/>
      </g>
     </g>
    </g>
    <g id="ytick_3">
     <g id="line2d_8">
      <g>
       <use style="stroke:#000000;stroke-width:0.8;" x="57.6" xlink:href="#m526e3110a9" y="223.225606"/>
      </g>
     </g>
     <g id="text_8">
      <!-- 75 -->
      <g transform="translate(37.875 227.024824)scale(0.1 -0.1)">
       <defs>
        <path d="M 8.203125 72.90625 
L 55.078125 72.90625 
L 55.078125 68.703125 
L 28.609375 0 
L 18.3125 0 
L 43.21875 64.59375 
L 8.203125 64.59375 
z
" id="DejaVuSans-55"/>
       </defs>
       <use xlink:href="#DejaVuSans-55"/>
       <use x="63.623047" xlink:href="#DejaVuSans-53"/>
      </g>
     </g>
    </g>
    <g id="ytick_4">
     <g id="line2d_9">
      <g>
       <use style="stroke:#000000;stroke-width:0.8;" x="57.6" xlink:href="#m526e3110a9" y="187.105955"/>
      </g>
     </g>
     <g id="text_9">
      <!-- 100 -->
      <g transform="translate(31.5125 190.905174)scale(0.1 -0.1)">
       <use xlink:href="#DejaVuSans-49"/>
       <use x="63.623047" xlink:href="#DejaVuSans-48"/>
       <use x="127.246094" xlink:href="#DejaVuSans-48"/>
      </g>
     </g>
    </g>
    <g id="ytick_5">
     <g id="line2d_10">
      <g>
       <use style="stroke:#000000;stroke-width:0.8;" x="57.6" xlink:href="#m526e3110a9" y="150.986304"/>
      </g>
     </g>
     <g id="text_10">
      <!-- 125 -->
      <g transform="translate(31.5125 154.785523)scale(0.1 -0.1)">
       <use xlink:href="#DejaVuSans-49"/>
       <use x="63.623047" xlink:href="#DejaVuSans-50"/>
       <use x="127.246094" xlink:href="#DejaVuSans-53"/>
      </g>
     </g>
    </g>
    <g id="ytick_6">
     <g id="line2d_11">
      <g>
       <use style="stroke:#000000;stroke-width:0.8;" x="57.6" xlink:href="#m526e3110a9" y="114.866654"/>
      </g>
     </g>
     <g id="text_11">
      <!-- 150 -->
      <g transform="translate(31.5125 118.665873)scale(0.1 -0.1)">
       <use xlink:href="#DejaVuSans-49"/>
       <use x="63.623047" xlink:href="#DejaVuSans-53"/>
       <use x="127.246094" xlink:href="#DejaVuSans-48"/>
      </g>
     </g>
    </g>
    <g id="ytick_7">
     <g id="line2d_12">
      <g>
       <use style="stroke:#000000;stroke-width:0.8;" x="57.6" xlink:href="#m526e3110a9" y="78.747003"/>
      </g>
     </g>
     <g id="text_12">
      <!-- 175 -->
      <g transform="translate(31.5125 82.546222)scale(0.1 -0.1)">
       <use xlink:href="#DejaVuSans-49"/>
       <use x="63.623047" xlink:href="#DejaVuSans-55"/>
       <use x="127.246094" xlink:href="#DejaVuSans-53"/>
      </g>
     </g>
    </g>
    <g id="ytick_8">
     <g id="line2d_13">
      <g>
       <use style="stroke:#000000;stroke-width:0.8;" x="57.6" xlink:href="#m526e3110a9" y="42.627353"/>
      </g>
     </g>
     <g id="text_13">
      <!-- 200 -->
      <g transform="translate(31.5125 46.426572)scale(0.1 -0.1)">
       <use xlink:href="#DejaVuSans-50"/>
       <use x="63.623047" xlink:href="#DejaVuSans-48"/>
       <use x="127.246094" xlink:href="#DejaVuSans-48"/>
      </g>
     </g>
    </g>
   </g>
   <g id="line2d_14">
    <path clip-path="url(#p1c065dbcae)" d="M 260.728133 295.464907 
L 260.61833 288.235197 
L 260.218124 270.886207 
L 260.338041 265.104173 
L 260.600992 260.77415 
L 261.19191 255.019567 
L 262.174364 247.856318 
L 263.428439 240.734967 
L 264.63339 235.07863 
L 266.026164 229.464192 
L 267.615428 223.901765 
L 268.542981 221.162451 
L 270.184258 217.147391 
L 272.675069 211.927379 
L 277.841624 201.576932 
L 279.556585 197.592212 
L 280.549153 194.874569 
L 281.377015 192.104915 
L 282.320461 187.870247 
L 283.343369 182.17779 
L 283.931397 177.879551 
L 284.337382 173.559641 
L 284.529538 169.226728 
L 284.471747 164.888036 
L 284.114885 160.565236 
L 283.685783 157.706004 
L 283.078973 154.878558 
L 282.300234 152.093011 
L 280.880009 147.994153 
L 279.191054 143.997874 
L 277.255041 140.117179 
L 275.082083 136.36218 
L 272.672179 132.755994 
L 270.018108 129.324628 
L 268.105211 127.154559 
L 266.070952 125.098628 
L 263.906663 123.182842 
L 261.554551 121.499667 
L 259.040623 120.072218 
L 256.416892 118.855708 
L 252.357043 117.328569 
L 246.830737 115.617943 
L 238.518883 113.128576 
L 234.441697 111.65056 
L 231.793404 110.488952 
L 213.687345 101.435923 
L 209.962687 99.210953 
L 207.565787 97.592792 
L 205.262798 95.843156 
L 203.085505 93.938928 
L 201.074363 91.862771 
L 199.275605 89.598791 
L 197.725349 87.157103 
L 196.399036 84.586828 
L 195.263434 81.928422 
L 193.831651 77.833899 
L 192.245276 72.271472 
L 189.269017 61.091718 
L 187.916697 56.969744 
L 187.403798 55.617424 
L 187.403798 55.617424 
" style="fill:none;stroke:#fea952;stroke-linecap:square;"/>
   </g>
   <g id="line2d_15">
    <path clip-path="url(#p1c065dbcae)" d="M 254.949035 295.488 
L 254.841445 288.396789 
L 254.439121 270.845754 
L 254.565543 264.827093 
L 254.844738 260.260301 
L 255.455809 254.315538 
L 256.468634 246.938088 
L 257.762412 239.597141 
L 259.007343 233.75723 
L 260.448528 227.951417 
L 262.116893 222.122828 
L 263.146663 219.094055 
L 264.922921 214.756399 
L 267.517635 209.319817 
L 272.577129 199.192901 
L 274.154949 195.537744 
L 275.422356 191.936085 
L 276.073859 189.463808 
L 277.170529 184.036668 
L 278.018375 178.603808 
L 278.462121 174.545497 
L 278.714782 170.521307 
L 278.7467 166.536211 
L 278.525523 162.626419 
L 278.016217 158.826061 
L 277.493337 156.361521 
L 276.39788 152.609324 
L 275.022876 148.901911 
L 273.401355 145.271681 
L 271.557368 141.748393 
L 269.498025 138.351136 
L 267.243188 135.12649 
L 264.79258 132.106011 
L 263.058103 130.238097 
L 260.405121 127.780419 
L 258.587151 126.458804 
L 256.513959 125.269763 
L 254.24671 124.211902 
L 250.550311 122.818034 
L 245.219452 121.167922 
L 236.665394 118.602431 
L 232.214032 116.983104 
L 229.236632 115.671753 
L 212.162579 107.194602 
L 208.128966 104.879015 
L 205.456352 103.164129 
L 202.83064 101.281283 
L 200.270631 99.189318 
L 197.817376 96.850792 
L 195.52338 94.225802 
L 193.514349 91.370924 
L 191.847689 88.430883 
L 190.462507 85.455367 
L 189.2982 82.478147 
L 187.858349 78.061078 
L 186.285286 72.315206 
L 183.744684 62.788849 
L 182.513146 59.019167 
L 182.000247 57.666848 
L 182.000247 57.666848 
" style="fill:none;stroke:#ffffff;stroke-linecap:square;"/>
   </g>
   <g id="line2d_16">
    <path clip-path="url(#p1c065dbcae)" d="M 266.507231 295.441813 
L 266.395214 288.073606 
L 265.997126 270.92666 
L 266.110539 265.381253 
L 266.480383 259.905314 
L 267.278693 252.935181 
L 268.335938 246.001135 
L 269.370922 240.495391 
L 270.578899 235.038969 
L 271.968184 229.632537 
L 273.508606 224.45397 
L 274.911498 220.772508 
L 276.595764 217.051149 
L 279.790947 210.687114 
L 283.106118 203.960963 
L 284.95822 199.64668 
L 286.057157 196.623967 
L 286.991992 193.472591 
L 287.991122 188.984745 
L 289.058997 183.032247 
L 289.676795 178.503173 
L 290.105428 173.917618 
L 290.308498 169.272913 
L 290.241176 164.553074 
L 290.01632 161.379177 
L 289.623195 158.190355 
L 289.035374 154.982247 
L 288.252526 151.851202 
L 287.318378 148.822935 
L 285.668 144.399093 
L 283.744016 140.111894 
L 281.55705 135.95181 
L 279.11155 131.934426 
L 276.384765 128.053614 
L 274.404331 125.56171 
L 272.274558 123.152678 
L 269.986511 120.84811 
L 267.408205 118.585266 
L 264.521951 116.540529 
L 261.567288 114.874673 
L 258.587074 113.499514 
L 255.627651 112.349306 
L 251.272382 110.910049 
L 237.88013 106.785759 
L 234.350175 105.306151 
L 216.560815 96.421775 
L 213.132317 94.378567 
L 209.969049 92.190785 
L 208.041553 90.633221 
L 206.29626 88.995695 
L 204.764463 87.283438 
L 203.42448 85.422535 
L 202.224684 83.340499 
L 201.159509 81.077221 
L 199.77438 77.422029 
L 198.575111 73.520259 
L 196.759343 66.63311 
L 194.79335 59.394588 
L 193.320248 54.92032 
L 192.807349 53.568 
L 192.807349 53.568 
" style="fill:none;stroke:#ffffff;stroke-linecap:square;"/>
   </g>
   <g id="patch_3">
    <path d="M 57.6 307.584 
L 57.6 41.472 
" style="fill:none;stroke:#000000;stroke-linecap:square;stroke-linejoin:miter;stroke-width:0.8;"/>
   </g>
   <g id="patch_4">
    <path d="M 414.72 307.584 
L 414.72 41.472 
" style="fill:none;stroke:#000000;stroke-linecap:square;stroke-linejoin:miter;stroke-width:0.8;"/>
   </g>
   <g id="patch_5">
    <path d="M 57.6 307.584 
L 414.72 307.584 
" style="fill:none;stroke:#000000;stroke-linecap:square;stroke-linejoin:miter;stroke-width:0.8;"/>
   </g>
   <g id="patch_6">
    <path d="M 57.6 41.472 
L 414.72 41.472 
" style="fill:none;stroke:#000000;stroke-linecap:square;stroke-linejoin:miter;stroke-width:0.8;"/>
   </g>
  </g>
 </g>
 <defs>
  <clipPath id="p1c065dbcae">
   <rect height="266.112" width="357.12" x="57.6" y="41.472"/>
  </clipPath>
 </defs>
</svg>
