<?xml version="1.0" encoding="utf-8" standalone="no"?>
<!DOCTYPE svg PUBLIC "-//W3C//DTD SVG 1.1//EN"
  "http://www.w3.org/Graphics/SVG/1.1/DTD/svg11.dtd">
<!-- Created with matplotlib (https://matplotlib.org/) -->
<svg height="720pt" version="1.1" viewBox="0 0 1080 720" width="1080pt" xmlns="http://www.w3.org/2000/svg" xmlns:xlink="http://www.w3.org/1999/xlink">
 <metadata>
  <rdf:RDF xmlns:cc="http://creativecommons.org/ns#" xmlns:dc="http://purl.org/dc/elements/1.1/" xmlns:rdf="http://www.w3.org/1999/02/22-rdf-syntax-ns#">
   <cc:Work>
    <dc:type rdf:resource="http://purl.org/dc/dcmitype/StillImage"/>
    <dc:date>2021-02-14T12:25:23.935566</dc:date>
    <dc:format>image/svg+xml</dc:format>
    <dc:creator>
     <cc:Agent>
      <dc:title>Matplotlib v3.3.3, https://matplotlib.org/</dc:title>
     </cc:Agent>
    </dc:creator>
   </cc:Work>
  </rdf:RDF>
 </metadata>
 <defs>
  <style type="text/css">*{stroke-linecap:butt;stroke-linejoin:round;}</style>
 </defs>
 <g id="figure_1">
  <g id="patch_1">
   <path d="M 0 720 
L 1080 720 
L 1080 0 
L 0 0 
z
" style="fill:#ffffff;"/>
  </g>
  <g id="axes_1">
   <g id="patch_2">
    <path d="M 135 640.8 
L 972 640.8 
L 972 86.4 
L 135 86.4 
z
" style="fill:#7d9051;"/>
   </g>
   <g id="matplotlib.axis_1">
    <g id="xtick_1">
     <g id="line2d_1">
      <defs>
       <path d="M 0 0 
L 0 3.5 
" id="mef50632863" style="stroke:#000000;stroke-width:0.8;"/>
      </defs>
      <g>
       <use style="stroke:#000000;stroke-width:0.8;" x="281.385213" xlink:href="#mef50632863" y="640.8"/>
      </g>
     </g>
     <g id="text_1">
      <!-- 0 -->
      <g transform="translate(278.203963 655.398438)scale(0.1 -0.1)">
       <defs>
        <path d="M 31.78125 66.40625 
Q 24.171875 66.40625 20.328125 58.90625 
Q 16.5 51.421875 16.5 36.375 
Q 16.5 21.390625 20.328125 13.890625 
Q 24.171875 6.390625 31.78125 6.390625 
Q 39.453125 6.390625 43.28125 13.890625 
Q 47.125 21.390625 47.125 36.375 
Q 47.125 51.421875 43.28125 58.90625 
Q 39.453125 66.40625 31.78125 66.40625 
z
M 31.78125 74.21875 
Q 44.046875 74.21875 50.515625 64.515625 
Q 56.984375 54.828125 56.984375 36.375 
Q 56.984375 17.96875 50.515625 8.265625 
Q 44.046875 -1.421875 31.78125 -1.421875 
Q 19.53125 -1.421875 13.0625 8.265625 
Q 6.59375 17.96875 6.59375 36.375 
Q 6.59375 54.828125 13.0625 64.515625 
Q 19.53125 74.21875 31.78125 74.21875 
z
" id="DejaVuSans-48"/>
       </defs>
       <use xlink:href="#DejaVuSans-48"/>
      </g>
     </g>
    </g>
    <g id="xtick_2">
     <g id="line2d_2">
      <g>
       <use style="stroke:#000000;stroke-width:0.8;" x="455.732764" xlink:href="#mef50632863" y="640.8"/>
      </g>
     </g>
     <g id="text_2">
      <!-- 50 -->
      <g transform="translate(449.370264 655.398438)scale(0.1 -0.1)">
       <defs>
        <path d="M 10.796875 72.90625 
L 49.515625 72.90625 
L 49.515625 64.59375 
L 19.828125 64.59375 
L 19.828125 46.734375 
Q 21.96875 47.46875 24.109375 47.828125 
Q 26.265625 48.1875 28.421875 48.1875 
Q 40.625 48.1875 47.75 41.5 
Q 54.890625 34.8125 54.890625 23.390625 
Q 54.890625 11.625 47.5625 5.09375 
Q 40.234375 -1.421875 26.90625 -1.421875 
Q 22.3125 -1.421875 17.546875 -0.640625 
Q 12.796875 0.140625 7.71875 1.703125 
L 7.71875 11.625 
Q 12.109375 9.234375 16.796875 8.0625 
Q 21.484375 6.890625 26.703125 6.890625 
Q 35.15625 6.890625 40.078125 11.328125 
Q 45.015625 15.765625 45.015625 23.390625 
Q 45.015625 31 40.078125 35.4375 
Q 35.15625 39.890625 26.703125 39.890625 
Q 22.75 39.890625 18.8125 39.015625 
Q 14.890625 38.140625 10.796875 36.28125 
z
" id="DejaVuSans-53"/>
       </defs>
       <use xlink:href="#DejaVuSans-53"/>
       <use x="63.623047" xlink:href="#DejaVuSans-48"/>
      </g>
     </g>
    </g>
    <g id="xtick_3">
     <g id="line2d_3">
      <g>
       <use style="stroke:#000000;stroke-width:0.8;" x="630.080315" xlink:href="#mef50632863" y="640.8"/>
      </g>
     </g>
     <g id="text_3">
      <!-- 100 -->
      <g transform="translate(620.536565 655.398438)scale(0.1 -0.1)">
       <defs>
        <path d="M 12.40625 8.296875 
L 28.515625 8.296875 
L 28.515625 63.921875 
L 10.984375 60.40625 
L 10.984375 69.390625 
L 28.421875 72.90625 
L 38.28125 72.90625 
L 38.28125 8.296875 
L 54.390625 8.296875 
L 54.390625 0 
L 12.40625 0 
z
" id="DejaVuSans-49"/>
       </defs>
       <use xlink:href="#DejaVuSans-49"/>
       <use x="63.623047" xlink:href="#DejaVuSans-48"/>
       <use x="127.246094" xlink:href="#DejaVuSans-48"/>
      </g>
     </g>
    </g>
    <g id="xtick_4">
     <g id="line2d_4">
      <g>
       <use style="stroke:#000000;stroke-width:0.8;" x="804.427866" xlink:href="#mef50632863" y="640.8"/>
      </g>
     </g>
     <g id="text_4">
      <!-- 150 -->
      <g transform="translate(794.884116 655.398438)scale(0.1 -0.1)">
       <use xlink:href="#DejaVuSans-49"/>
       <use x="63.623047" xlink:href="#DejaVuSans-53"/>
       <use x="127.246094" xlink:href="#DejaVuSans-48"/>
      </g>
     </g>
    </g>
   </g>
   <g id="matplotlib.axis_2">
    <g id="ytick_1">
     <g id="line2d_5">
      <defs>
       <path d="M 0 0 
L -3.5 0 
" id="m6c4545d0a4" style="stroke:#000000;stroke-width:0.8;"/>
      </defs>
      <g>
       <use style="stroke:#000000;stroke-width:0.8;" x="135" xlink:href="#m6c4545d0a4" y="632.848244"/>
      </g>
     </g>
     <g id="text_5">
      <!-- 20 -->
      <g transform="translate(115.275 636.647463)scale(0.1 -0.1)">
       <defs>
        <path d="M 19.1875 8.296875 
L 53.609375 8.296875 
L 53.609375 0 
L 7.328125 0 
L 7.328125 8.296875 
Q 12.9375 14.109375 22.625 23.890625 
Q 32.328125 33.6875 34.8125 36.53125 
Q 39.546875 41.84375 41.421875 45.53125 
Q 43.3125 49.21875 43.3125 52.78125 
Q 43.3125 58.59375 39.234375 62.25 
Q 35.15625 65.921875 28.609375 65.921875 
Q 23.96875 65.921875 18.8125 64.3125 
Q 13.671875 62.703125 7.8125 59.421875 
L 7.8125 69.390625 
Q 13.765625 71.78125 18.9375 73 
Q 24.125 74.21875 28.421875 74.21875 
Q 39.75 74.21875 46.484375 68.546875 
Q 53.21875 62.890625 53.21875 53.421875 
Q 53.21875 48.921875 51.53125 44.890625 
Q 49.859375 40.875 45.40625 35.40625 
Q 44.1875 33.984375 37.640625 27.21875 
Q 31.109375 20.453125 19.1875 8.296875 
z
" id="DejaVuSans-50"/>
       </defs>
       <use xlink:href="#DejaVuSans-50"/>
       <use x="63.623047" xlink:href="#DejaVuSans-48"/>
      </g>
     </g>
    </g>
    <g id="ytick_2">
     <g id="line2d_6">
      <g>
       <use style="stroke:#000000;stroke-width:0.8;" x="135" xlink:href="#m6c4545d0a4" y="563.109224"/>
      </g>
     </g>
     <g id="text_6">
      <!-- 40 -->
      <g transform="translate(115.275 566.908443)scale(0.1 -0.1)">
       <defs>
        <path d="M 37.796875 64.3125 
L 12.890625 25.390625 
L 37.796875 25.390625 
z
M 35.203125 72.90625 
L 47.609375 72.90625 
L 47.609375 25.390625 
L 58.015625 25.390625 
L 58.015625 17.1875 
L 47.609375 17.1875 
L 47.609375 0 
L 37.796875 0 
L 37.796875 17.1875 
L 4.890625 17.1875 
L 4.890625 26.703125 
z
" id="DejaVuSans-52"/>
       </defs>
       <use xlink:href="#DejaVuSans-52"/>
       <use x="63.623047" xlink:href="#DejaVuSans-48"/>
      </g>
     </g>
    </g>
    <g id="ytick_3">
     <g id="line2d_7">
      <g>
       <use style="stroke:#000000;stroke-width:0.8;" x="135" xlink:href="#m6c4545d0a4" y="493.370203"/>
      </g>
     </g>
     <g id="text_7">
      <!-- 60 -->
      <g transform="translate(115.275 497.169422)scale(0.1 -0.1)">
       <defs>
        <path d="M 33.015625 40.375 
Q 26.375 40.375 22.484375 35.828125 
Q 18.609375 31.296875 18.609375 23.390625 
Q 18.609375 15.53125 22.484375 10.953125 
Q 26.375 6.390625 33.015625 6.390625 
Q 39.65625 6.390625 43.53125 10.953125 
Q 47.40625 15.53125 47.40625 23.390625 
Q 47.40625 31.296875 43.53125 35.828125 
Q 39.65625 40.375 33.015625 40.375 
z
M 52.59375 71.296875 
L 52.59375 62.3125 
Q 48.875 64.0625 45.09375 64.984375 
Q 41.3125 65.921875 37.59375 65.921875 
Q 27.828125 65.921875 22.671875 59.328125 
Q 17.53125 52.734375 16.796875 39.40625 
Q 19.671875 43.65625 24.015625 45.921875 
Q 28.375 48.1875 33.59375 48.1875 
Q 44.578125 48.1875 50.953125 41.515625 
Q 57.328125 34.859375 57.328125 23.390625 
Q 57.328125 12.15625 50.6875 5.359375 
Q 44.046875 -1.421875 33.015625 -1.421875 
Q 20.359375 -1.421875 13.671875 8.265625 
Q 6.984375 17.96875 6.984375 36.375 
Q 6.984375 53.65625 15.1875 63.9375 
Q 23.390625 74.21875 37.203125 74.21875 
Q 40.921875 74.21875 44.703125 73.484375 
Q 48.484375 72.75 52.59375 71.296875 
z
" id="DejaVuSans-54"/>
       </defs>
       <use xlink:href="#DejaVuSans-54"/>
       <use x="63.623047" xlink:href="#DejaVuSans-48"/>
      </g>
     </g>
    </g>
    <g id="ytick_4">
     <g id="line2d_8">
      <g>
       <use style="stroke:#000000;stroke-width:0.8;" x="135" xlink:href="#m6c4545d0a4" y="423.631183"/>
      </g>
     </g>
     <g id="text_8">
      <!-- 80 -->
      <g transform="translate(115.275 427.430402)scale(0.1 -0.1)">
       <defs>
        <path d="M 31.78125 34.625 
Q 24.75 34.625 20.71875 30.859375 
Q 16.703125 27.09375 16.703125 20.515625 
Q 16.703125 13.921875 20.71875 10.15625 
Q 24.75 6.390625 31.78125 6.390625 
Q 38.8125 6.390625 42.859375 10.171875 
Q 46.921875 13.96875 46.921875 20.515625 
Q 46.921875 27.09375 42.890625 30.859375 
Q 38.875 34.625 31.78125 34.625 
z
M 21.921875 38.8125 
Q 15.578125 40.375 12.03125 44.71875 
Q 8.5 49.078125 8.5 55.328125 
Q 8.5 64.0625 14.71875 69.140625 
Q 20.953125 74.21875 31.78125 74.21875 
Q 42.671875 74.21875 48.875 69.140625 
Q 55.078125 64.0625 55.078125 55.328125 
Q 55.078125 49.078125 51.53125 44.71875 
Q 48 40.375 41.703125 38.8125 
Q 48.828125 37.15625 52.796875 32.3125 
Q 56.78125 27.484375 56.78125 20.515625 
Q 56.78125 9.90625 50.3125 4.234375 
Q 43.84375 -1.421875 31.78125 -1.421875 
Q 19.734375 -1.421875 13.25 4.234375 
Q 6.78125 9.90625 6.78125 20.515625 
Q 6.78125 27.484375 10.78125 32.3125 
Q 14.796875 37.15625 21.921875 38.8125 
z
M 18.3125 54.390625 
Q 18.3125 48.734375 21.84375 45.5625 
Q 25.390625 42.390625 31.78125 42.390625 
Q 38.140625 42.390625 41.71875 45.5625 
Q 45.3125 48.734375 45.3125 54.390625 
Q 45.3125 60.0625 41.71875 63.234375 
Q 38.140625 66.40625 31.78125 66.40625 
Q 25.390625 66.40625 21.84375 63.234375 
Q 18.3125 60.0625 18.3125 54.390625 
z
" id="DejaVuSans-56"/>
       </defs>
       <use xlink:href="#DejaVuSans-56"/>
       <use x="63.623047" xlink:href="#DejaVuSans-48"/>
      </g>
     </g>
    </g>
    <g id="ytick_5">
     <g id="line2d_9">
      <g>
       <use style="stroke:#000000;stroke-width:0.8;" x="135" xlink:href="#m6c4545d0a4" y="353.892163"/>
      </g>
     </g>
     <g id="text_9">
      <!-- 100 -->
      <g transform="translate(108.9125 357.691381)scale(0.1 -0.1)">
       <use xlink:href="#DejaVuSans-49"/>
       <use x="63.623047" xlink:href="#DejaVuSans-48"/>
       <use x="127.246094" xlink:href="#DejaVuSans-48"/>
      </g>
     </g>
    </g>
    <g id="ytick_6">
     <g id="line2d_10">
      <g>
       <use style="stroke:#000000;stroke-width:0.8;" x="135" xlink:href="#m6c4545d0a4" y="284.153142"/>
      </g>
     </g>
     <g id="text_10">
      <!-- 120 -->
      <g transform="translate(108.9125 287.952361)scale(0.1 -0.1)">
       <use xlink:href="#DejaVuSans-49"/>
       <use x="63.623047" xlink:href="#DejaVuSans-50"/>
       <use x="127.246094" xlink:href="#DejaVuSans-48"/>
      </g>
     </g>
    </g>
    <g id="ytick_7">
     <g id="line2d_11">
      <g>
       <use style="stroke:#000000;stroke-width:0.8;" x="135" xlink:href="#m6c4545d0a4" y="214.414122"/>
      </g>
     </g>
     <g id="text_11">
      <!-- 140 -->
      <g transform="translate(108.9125 218.213341)scale(0.1 -0.1)">
       <use xlink:href="#DejaVuSans-49"/>
       <use x="63.623047" xlink:href="#DejaVuSans-52"/>
       <use x="127.246094" xlink:href="#DejaVuSans-48"/>
      </g>
     </g>
    </g>
    <g id="ytick_8">
     <g id="line2d_12">
      <g>
       <use style="stroke:#000000;stroke-width:0.8;" x="135" xlink:href="#m6c4545d0a4" y="144.675101"/>
      </g>
     </g>
     <g id="text_12">
      <!-- 160 -->
      <g transform="translate(108.9125 148.47432)scale(0.1 -0.1)">
       <use xlink:href="#DejaVuSans-49"/>
       <use x="63.623047" xlink:href="#DejaVuSans-54"/>
       <use x="127.246094" xlink:href="#DejaVuSans-48"/>
      </g>
     </g>
    </g>
   </g>
   <g id="line2d_13">
    <path clip-path="url(#pa2f8a4a1b8)" d="M 717.254091 615.413489 
L 717.382961 605.777098 
L 717.705135 596.215083 
L 718.123962 586.690255 
L 718.542789 577.165427 
L 718.864964 567.603412 
L 718.993834 557.967021 
L 718.832747 548.219066 
L 718.28505 538.322359 
L 717.254091 528.239714 
L 715.380955 516.144572 
L 712.850217 503.420134 
L 709.799469 490.30748 
L 706.366305 477.047687 
L 702.688317 463.881834 
L 698.903099 451.051002 
L 695.148243 438.796267 
L 691.561344 427.35871 
L 688.279994 416.979409 
L 686.17914 410.732783 
L 684.032411 405.011944 
L 681.869576 399.683626 
L 679.720405 394.614565 
L 677.614667 389.671494 
L 675.582133 384.72115 
L 673.652572 379.630265 
L 671.855753 374.265577 
L 670.221446 368.493818 
L 668.690619 361.163361 
L 667.656063 353.538575 
L 666.942631 345.667005 
L 666.375182 337.596195 
L 665.778572 329.373691 
L 664.977655 321.047038 
L 663.79729 312.663779 
L 662.062331 304.27146 
L 659.597635 295.917626 
L 655.682068 285.328777 
L 651.04616 274.086999 
L 645.766648 262.476476 
L 639.920271 250.78139 
L 633.583766 239.285924 
L 626.83387 228.274259 
L 619.747323 218.030579 
L 612.400862 208.839066 
L 604.871225 200.983903 
L 598.620172 195.562159 
L 592.1201 190.706192 
L 585.386189 186.382518 
L 578.433621 182.557656 
L 571.277575 179.198122 
L 563.933234 176.270434 
L 556.415779 173.741109 
L 548.74039 171.576664 
L 540.922249 169.743616 
L 531.909871 168.637839 
L 522.414781 168.781846 
L 512.572316 169.794709 
L 502.517815 171.295502 
L 492.386615 172.903296 
L 482.314053 174.237164 
L 472.435468 174.916179 
L 462.886197 174.559412 
L 453.801578 172.785937 
L 445.177597 169.558658 
L 436.876911 165.239957 
L 428.83486 160.048118 
L 420.986785 154.201425 
L 413.268029 147.918162 
L 405.613931 141.416616 
L 397.959833 134.915069 
L 390.241076 128.631807 
L 382.393001 122.785113 
" style="fill:none;stroke:#fea952;stroke-linecap:square;"/>
   </g>
   <g id="line2d_14">
    <path clip-path="url(#pa2f8a4a1b8)" d="M 703.307534 615.226978 
L 703.443067 605.307419 
L 703.770796 595.60236 
L 704.189623 586.077532 
L 704.602896 576.695748 
L 704.918407 567.416901 
L 705.047934 558.19748 
L 704.906252 548.989777 
L 704.409593 539.741137 
L 703.470597 530.374318 
L 701.701091 518.865333 
L 699.26524 506.580771 
L 696.296911 493.8035 
L 692.932835 480.800436 
L 689.310509 467.828415 
L 685.567247 455.137112 
L 681.839545 442.96997 
L 678.262313 431.563114 
L 675.059831 421.425591 
L 673.120466 415.633015 
L 671.10872 410.257842 
L 669.028262 405.128062 
L 666.888424 400.080962 
L 664.712083 394.969094 
L 662.539728 389.664519 
L 660.426889 384.060002 
L 658.435573 378.065578 
L 656.568177 371.345043 
L 654.869459 363.038663 
L 653.765195 354.797558 
L 653.029174 346.645243 
L 652.463949 338.60557 
L 651.894845 330.709126 
L 651.166085 322.991711 
L 650.138311 315.487524 
L 648.684625 308.218387 
L 646.515595 300.755131 
L 642.787644 290.646207 
L 638.349372 279.860456 
L 633.290856 268.713129 
L 627.705269 257.514516 
L 621.69224 246.575153 
L 615.363354 236.209528 
L 608.852017 226.738824 
L 602.331847 218.490811 
L 595.732373 211.520631 
L 590.272504 206.736132 
L 584.584219 202.44296 
L 578.6632 198.603101 
L 572.50627 195.183334 
L 566.112776 192.154437 
L 559.485365 189.490029 
L 552.630167 187.165355 
L 545.556518 185.156214 
L 539.223655 183.587605 
L 532.121386 182.584039 
L 523.842575 182.656378 
L 514.631433 183.589682 
L 504.703937 185.070919 
L 494.21768 186.730387 
L 483.270513 188.152136 
L 471.914732 188.854259 
L 460.213789 188.248805 
L 448.913094 185.849013 
L 438.739989 181.931954 
L 429.311914 176.95798 
L 420.502125 171.233231 
L 412.181469 165.018432 
L 404.238333 158.548583 
L 396.584235 152.047036 
L 389.154516 145.732076 
L 381.908341 139.81692 
L 374.060266 133.970227 
" style="fill:none;stroke:#ffffff;stroke-linecap:square;"/>
   </g>
   <g id="line2d_15">
    <path clip-path="url(#pa2f8a4a1b8)" d="M 731.200648 615.6 
L 731.322854 606.246777 
L 731.639474 596.827805 
L 732.058302 587.302978 
L 732.482683 577.635107 
L 732.811521 567.789923 
L 732.939734 557.736561 
L 732.759241 547.448355 
L 732.160507 536.903582 
L 731.037584 526.105109 
L 729.06082 513.423811 
L 726.435195 500.259497 
L 723.302028 486.811459 
L 719.799775 473.294938 
L 716.066125 459.935253 
L 712.238951 446.964891 
L 708.456942 434.622565 
L 704.860375 423.154306 
L 701.500157 412.533228 
L 699.237814 405.832552 
L 696.956102 399.766046 
L 694.71089 394.23919 
L 692.552386 389.148168 
L 690.517252 384.373895 
L 688.624538 379.77778 
L 686.878254 375.200529 
L 685.275933 370.465575 
L 683.874715 365.642592 
L 682.51178 359.288058 
L 681.54693 352.279591 
L 680.856088 344.688766 
L 680.286415 336.58682 
L 679.662298 328.038256 
L 678.789226 319.102364 
L 677.456269 309.840034 
L 675.440036 300.324533 
L 672.679676 291.080122 
L 668.576493 280.011347 
L 663.742949 268.313543 
L 658.242441 256.239823 
L 652.135272 244.048265 
L 645.475291 231.996694 
L 638.304387 220.33899 
L 630.64263 209.322334 
L 622.469877 199.187321 
L 614.010077 190.447176 
L 606.967841 184.388186 
L 599.655982 178.969423 
L 592.109179 174.161935 
L 584.360972 169.931978 
L 576.442375 166.241808 
L 568.381103 163.050839 
L 560.201391 160.316863 
L 551.924263 157.997113 
L 542.620843 155.899628 
L 531.698357 154.691639 
L 520.986987 154.907313 
L 510.513199 155.999736 
L 500.331693 157.520085 
L 490.555549 159.076206 
L 481.357593 160.322193 
L 472.956203 160.978099 
L 465.558604 160.87002 
L 458.690061 159.722861 
L 451.615205 157.185363 
L 444.441908 153.521934 
L 437.167595 148.863004 
L 429.792101 143.384417 
L 422.297724 137.287742 
L 414.643626 130.786195 
L 406.765149 124.098061 
L 398.573811 117.446693 
L 390.725736 111.6 
" style="fill:none;stroke:#ffffff;stroke-linecap:square;"/>
   </g>
   <g id="patch_3">
    <path d="M 135 640.8 
L 135 86.4 
" style="fill:none;stroke:#000000;stroke-linecap:square;stroke-linejoin:miter;stroke-width:0.8;"/>
   </g>
   <g id="patch_4">
    <path d="M 972 640.8 
L 972 86.4 
" style="fill:none;stroke:#000000;stroke-linecap:square;stroke-linejoin:miter;stroke-width:0.8;"/>
   </g>
   <g id="patch_5">
    <path d="M 135 640.8 
L 972 640.8 
" style="fill:none;stroke:#000000;stroke-linecap:square;stroke-linejoin:miter;stroke-width:0.8;"/>
   </g>
   <g id="patch_6">
    <path d="M 135 86.4 
L 972 86.4 
" style="fill:none;stroke:#000000;stroke-linecap:square;stroke-linejoin:miter;stroke-width:0.8;"/>
   </g>
   <g id="text_13">
    <!-- dist to bound -->
    <g transform="translate(513.814687 80.4)scale(0.12 -0.12)">
     <defs>
      <path d="M 45.40625 46.390625 
L 45.40625 75.984375 
L 54.390625 75.984375 
L 54.390625 0 
L 45.40625 0 
L 45.40625 8.203125 
Q 42.578125 3.328125 38.25 0.953125 
Q 33.9375 -1.421875 27.875 -1.421875 
Q 17.96875 -1.421875 11.734375 6.484375 
Q 5.515625 14.40625 5.515625 27.296875 
Q 5.515625 40.1875 11.734375 48.09375 
Q 17.96875 56 27.875 56 
Q 33.9375 56 38.25 53.625 
Q 42.578125 51.265625 45.40625 46.390625 
z
M 14.796875 27.296875 
Q 14.796875 17.390625 18.875 11.75 
Q 22.953125 6.109375 30.078125 6.109375 
Q 37.203125 6.109375 41.296875 11.75 
Q 45.40625 17.390625 45.40625 27.296875 
Q 45.40625 37.203125 41.296875 42.84375 
Q 37.203125 48.484375 30.078125 48.484375 
Q 22.953125 48.484375 18.875 42.84375 
Q 14.796875 37.203125 14.796875 27.296875 
z
" id="DejaVuSans-100"/>
      <path d="M 9.421875 54.6875 
L 18.40625 54.6875 
L 18.40625 0 
L 9.421875 0 
z
M 9.421875 75.984375 
L 18.40625 75.984375 
L 18.40625 64.59375 
L 9.421875 64.59375 
z
" id="DejaVuSans-105"/>
      <path d="M 44.28125 53.078125 
L 44.28125 44.578125 
Q 40.484375 46.53125 36.375 47.5 
Q 32.28125 48.484375 27.875 48.484375 
Q 21.1875 48.484375 17.84375 46.4375 
Q 14.5 44.390625 14.5 40.28125 
Q 14.5 37.15625 16.890625 35.375 
Q 19.28125 33.59375 26.515625 31.984375 
L 29.59375 31.296875 
Q 39.15625 29.25 43.1875 25.515625 
Q 47.21875 21.78125 47.21875 15.09375 
Q 47.21875 7.46875 41.1875 3.015625 
Q 35.15625 -1.421875 24.609375 -1.421875 
Q 20.21875 -1.421875 15.453125 -0.5625 
Q 10.6875 0.296875 5.421875 2 
L 5.421875 11.28125 
Q 10.40625 8.6875 15.234375 7.390625 
Q 20.0625 6.109375 24.8125 6.109375 
Q 31.15625 6.109375 34.5625 8.28125 
Q 37.984375 10.453125 37.984375 14.40625 
Q 37.984375 18.0625 35.515625 20.015625 
Q 33.0625 21.96875 24.703125 23.78125 
L 21.578125 24.515625 
Q 13.234375 26.265625 9.515625 29.90625 
Q 5.8125 33.546875 5.8125 39.890625 
Q 5.8125 47.609375 11.28125 51.796875 
Q 16.75 56 26.8125 56 
Q 31.78125 56 36.171875 55.265625 
Q 40.578125 54.546875 44.28125 53.078125 
z
" id="DejaVuSans-115"/>
      <path d="M 18.3125 70.21875 
L 18.3125 54.6875 
L 36.8125 54.6875 
L 36.8125 47.703125 
L 18.3125 47.703125 
L 18.3125 18.015625 
Q 18.3125 11.328125 20.140625 9.421875 
Q 21.96875 7.515625 27.59375 7.515625 
L 36.8125 7.515625 
L 36.8125 0 
L 27.59375 0 
Q 17.1875 0 13.234375 3.875 
Q 9.28125 7.765625 9.28125 18.015625 
L 9.28125 47.703125 
L 2.6875 47.703125 
L 2.6875 54.6875 
L 9.28125 54.6875 
L 9.28125 70.21875 
z
" id="DejaVuSans-116"/>
      <path id="DejaVuSans-32"/>
      <path d="M 30.609375 48.390625 
Q 23.390625 48.390625 19.1875 42.75 
Q 14.984375 37.109375 14.984375 27.296875 
Q 14.984375 17.484375 19.15625 11.84375 
Q 23.34375 6.203125 30.609375 6.203125 
Q 37.796875 6.203125 41.984375 11.859375 
Q 46.1875 17.53125 46.1875 27.296875 
Q 46.1875 37.015625 41.984375 42.703125 
Q 37.796875 48.390625 30.609375 48.390625 
z
M 30.609375 56 
Q 42.328125 56 49.015625 48.375 
Q 55.71875 40.765625 55.71875 27.296875 
Q 55.71875 13.875 49.015625 6.21875 
Q 42.328125 -1.421875 30.609375 -1.421875 
Q 18.84375 -1.421875 12.171875 6.21875 
Q 5.515625 13.875 5.515625 27.296875 
Q 5.515625 40.765625 12.171875 48.375 
Q 18.84375 56 30.609375 56 
z
" id="DejaVuSans-111"/>
      <path d="M 48.6875 27.296875 
Q 48.6875 37.203125 44.609375 42.84375 
Q 40.53125 48.484375 33.40625 48.484375 
Q 26.265625 48.484375 22.1875 42.84375 
Q 18.109375 37.203125 18.109375 27.296875 
Q 18.109375 17.390625 22.1875 11.75 
Q 26.265625 6.109375 33.40625 6.109375 
Q 40.53125 6.109375 44.609375 11.75 
Q 48.6875 17.390625 48.6875 27.296875 
z
M 18.109375 46.390625 
Q 20.953125 51.265625 25.265625 53.625 
Q 29.59375 56 35.59375 56 
Q 45.5625 56 51.78125 48.09375 
Q 58.015625 40.1875 58.015625 27.296875 
Q 58.015625 14.40625 51.78125 6.484375 
Q 45.5625 -1.421875 35.59375 -1.421875 
Q 29.59375 -1.421875 25.265625 0.953125 
Q 20.953125 3.328125 18.109375 8.203125 
L 18.109375 0 
L 9.078125 0 
L 9.078125 75.984375 
L 18.109375 75.984375 
z
" id="DejaVuSans-98"/>
      <path d="M 8.5 21.578125 
L 8.5 54.6875 
L 17.484375 54.6875 
L 17.484375 21.921875 
Q 17.484375 14.15625 20.5 10.265625 
Q 23.53125 6.390625 29.59375 6.390625 
Q 36.859375 6.390625 41.078125 11.03125 
Q 45.3125 15.671875 45.3125 23.6875 
L 45.3125 54.6875 
L 54.296875 54.6875 
L 54.296875 0 
L 45.3125 0 
L 45.3125 8.40625 
Q 42.046875 3.421875 37.71875 1 
Q 33.40625 -1.421875 27.6875 -1.421875 
Q 18.265625 -1.421875 13.375 4.4375 
Q 8.5 10.296875 8.5 21.578125 
z
M 31.109375 56 
z
" id="DejaVuSans-117"/>
      <path d="M 54.890625 33.015625 
L 54.890625 0 
L 45.90625 0 
L 45.90625 32.71875 
Q 45.90625 40.484375 42.875 44.328125 
Q 39.84375 48.1875 33.796875 48.1875 
Q 26.515625 48.1875 22.3125 43.546875 
Q 18.109375 38.921875 18.109375 30.90625 
L 18.109375 0 
L 9.078125 0 
L 9.078125 54.6875 
L 18.109375 54.6875 
L 18.109375 46.1875 
Q 21.34375 51.125 25.703125 53.5625 
Q 30.078125 56 35.796875 56 
Q 45.21875 56 50.046875 50.171875 
Q 54.890625 44.34375 54.890625 33.015625 
z
" id="DejaVuSans-110"/>
     </defs>
     <use xlink:href="#DejaVuSans-100"/>
     <use x="63.476562" xlink:href="#DejaVuSans-105"/>
     <use x="91.259766" xlink:href="#DejaVuSans-115"/>
     <use x="143.359375" xlink:href="#DejaVuSans-116"/>
     <use x="182.568359" xlink:href="#DejaVuSans-32"/>
     <use x="214.355469" xlink:href="#DejaVuSans-116"/>
     <use x="253.564453" xlink:href="#DejaVuSans-111"/>
     <use x="314.746094" xlink:href="#DejaVuSans-32"/>
     <use x="346.533203" xlink:href="#DejaVuSans-98"/>
     <use x="410.009766" xlink:href="#DejaVuSans-111"/>
     <use x="471.191406" xlink:href="#DejaVuSans-117"/>
     <use x="534.570312" xlink:href="#DejaVuSans-110"/>
     <use x="597.949219" xlink:href="#DejaVuSans-100"/>
    </g>
   </g>
  </g>
 </g>
 <defs>
  <clipPath id="pa2f8a4a1b8">
   <rect height="554.4" width="837" x="135" y="86.4"/>
  </clipPath>
 </defs>
</svg>
