<?xml version="1.0" encoding="utf-8" standalone="no"?>
<!DOCTYPE svg PUBLIC "-//W3C//DTD SVG 1.1//EN"
  "http://www.w3.org/Graphics/SVG/1.1/DTD/svg11.dtd">
<!-- Created with matplotlib (https://matplotlib.org/) -->
<svg height="345.6pt" version="1.1" viewBox="0 0 460.8 345.6" width="460.8pt" xmlns="http://www.w3.org/2000/svg" xmlns:xlink="http://www.w3.org/1999/xlink">
 <metadata>
  <rdf:RDF xmlns:cc="http://creativecommons.org/ns#" xmlns:dc="http://purl.org/dc/elements/1.1/" xmlns:rdf="http://www.w3.org/1999/02/22-rdf-syntax-ns#">
   <cc:Work>
    <dc:type rdf:resource="http://purl.org/dc/dcmitype/StillImage"/>
    <dc:date>2021-07-12T20:21:09.229109</dc:date>
    <dc:format>image/svg+xml</dc:format>
    <dc:creator>
     <cc:Agent>
      <dc:title>Matplotlib v3.3.3, https://matplotlib.org/</dc:title>
     </cc:Agent>
    </dc:creator>
   </cc:Work>
  </rdf:RDF>
 </metadata>
 <defs>
  <style type="text/css">*{stroke-linecap:butt;stroke-linejoin:round;}</style>
 </defs>
 <g id="figure_1">
  <g id="patch_1">
   <path d="M 0 345.6 
L 460.8 345.6 
L 460.8 0 
L 0 0 
z
" style="fill:#ffffff;"/>
  </g>
  <g id="axes_1">
   <g id="patch_2">
    <path d="M 57.6 307.584 
L 414.72 307.584 
L 414.72 41.472 
L 57.6 41.472 
z
" style="fill:#7d9051;"/>
   </g>
   <g id="matplotlib.axis_1">
    <g id="xtick_1">
     <g id="line2d_1">
      <defs>
       <path d="M 0 0 
L 0 3.5 
" id="m6acd9d53a1" style="stroke:#000000;stroke-width:0.8;"/>
      </defs>
      <g>
       <use style="stroke:#000000;stroke-width:0.8;" x="98.968699" xlink:href="#m6acd9d53a1" y="307.584"/>
      </g>
     </g>
     <g id="text_1">
      <!-- 0 -->
      <g transform="translate(95.787449 322.182437)scale(0.1 -0.1)">
       <defs>
        <path d="M 31.78125 66.40625 
Q 24.171875 66.40625 20.328125 58.90625 
Q 16.5 51.421875 16.5 36.375 
Q 16.5 21.390625 20.328125 13.890625 
Q 24.171875 6.390625 31.78125 6.390625 
Q 39.453125 6.390625 43.28125 13.890625 
Q 47.125 21.390625 47.125 36.375 
Q 47.125 51.421875 43.28125 58.90625 
Q 39.453125 66.40625 31.78125 66.40625 
z
M 31.78125 74.21875 
Q 44.046875 74.21875 50.515625 64.515625 
Q 56.984375 54.828125 56.984375 36.375 
Q 56.984375 17.96875 50.515625 8.265625 
Q 44.046875 -1.421875 31.78125 -1.421875 
Q 19.53125 -1.421875 13.0625 8.265625 
Q 6.59375 17.96875 6.59375 36.375 
Q 6.59375 54.828125 13.0625 64.515625 
Q 19.53125 74.21875 31.78125 74.21875 
z
" id="DejaVuSans-48"/>
       </defs>
       <use xlink:href="#DejaVuSans-48"/>
      </g>
     </g>
    </g>
    <g id="xtick_2">
     <g id="line2d_2">
      <g>
       <use style="stroke:#000000;stroke-width:0.8;" x="168.625777" xlink:href="#m6acd9d53a1" y="307.584"/>
      </g>
     </g>
     <g id="text_2">
      <!-- 50 -->
      <g transform="translate(162.263277 322.182437)scale(0.1 -0.1)">
       <defs>
        <path d="M 10.796875 72.90625 
L 49.515625 72.90625 
L 49.515625 64.59375 
L 19.828125 64.59375 
L 19.828125 46.734375 
Q 21.96875 47.46875 24.109375 47.828125 
Q 26.265625 48.1875 28.421875 48.1875 
Q 40.625 48.1875 47.75 41.5 
Q 54.890625 34.8125 54.890625 23.390625 
Q 54.890625 11.625 47.5625 5.09375 
Q 40.234375 -1.421875 26.90625 -1.421875 
Q 22.3125 -1.421875 17.546875 -0.640625 
Q 12.796875 0.140625 7.71875 1.703125 
L 7.71875 11.625 
Q 12.109375 9.234375 16.796875 8.0625 
Q 21.484375 6.890625 26.703125 6.890625 
Q 35.15625 6.890625 40.078125 11.328125 
Q 45.015625 15.765625 45.015625 23.390625 
Q 45.015625 31 40.078125 35.4375 
Q 35.15625 39.890625 26.703125 39.890625 
Q 22.75 39.890625 18.8125 39.015625 
Q 14.890625 38.140625 10.796875 36.28125 
z
" id="DejaVuSans-53"/>
       </defs>
       <use xlink:href="#DejaVuSans-53"/>
       <use x="63.623047" xlink:href="#DejaVuSans-48"/>
      </g>
     </g>
    </g>
    <g id="xtick_3">
     <g id="line2d_3">
      <g>
       <use style="stroke:#000000;stroke-width:0.8;" x="238.282854" xlink:href="#m6acd9d53a1" y="307.584"/>
      </g>
     </g>
     <g id="text_3">
      <!-- 100 -->
      <g transform="translate(228.739104 322.182437)scale(0.1 -0.1)">
       <defs>
        <path d="M 12.40625 8.296875 
L 28.515625 8.296875 
L 28.515625 63.921875 
L 10.984375 60.40625 
L 10.984375 69.390625 
L 28.421875 72.90625 
L 38.28125 72.90625 
L 38.28125 8.296875 
L 54.390625 8.296875 
L 54.390625 0 
L 12.40625 0 
z
" id="DejaVuSans-49"/>
       </defs>
       <use xlink:href="#DejaVuSans-49"/>
       <use x="63.623047" xlink:href="#DejaVuSans-48"/>
       <use x="127.246094" xlink:href="#DejaVuSans-48"/>
      </g>
     </g>
    </g>
    <g id="xtick_4">
     <g id="line2d_4">
      <g>
       <use style="stroke:#000000;stroke-width:0.8;" x="307.939931" xlink:href="#m6acd9d53a1" y="307.584"/>
      </g>
     </g>
     <g id="text_4">
      <!-- 150 -->
      <g transform="translate(298.396181 322.182437)scale(0.1 -0.1)">
       <use xlink:href="#DejaVuSans-49"/>
       <use x="63.623047" xlink:href="#DejaVuSans-53"/>
       <use x="127.246094" xlink:href="#DejaVuSans-48"/>
      </g>
     </g>
    </g>
    <g id="xtick_5">
     <g id="line2d_5">
      <g>
       <use style="stroke:#000000;stroke-width:0.8;" x="377.597008" xlink:href="#m6acd9d53a1" y="307.584"/>
      </g>
     </g>
     <g id="text_5">
      <!-- 200 -->
      <g transform="translate(368.053258 322.182437)scale(0.1 -0.1)">
       <defs>
        <path d="M 19.1875 8.296875 
L 53.609375 8.296875 
L 53.609375 0 
L 7.328125 0 
L 7.328125 8.296875 
Q 12.9375 14.109375 22.625 23.890625 
Q 32.328125 33.6875 34.8125 36.53125 
Q 39.546875 41.84375 41.421875 45.53125 
Q 43.3125 49.21875 43.3125 52.78125 
Q 43.3125 58.59375 39.234375 62.25 
Q 35.15625 65.921875 28.609375 65.921875 
Q 23.96875 65.921875 18.8125 64.3125 
Q 13.671875 62.703125 7.8125 59.421875 
L 7.8125 69.390625 
Q 13.765625 71.78125 18.9375 73 
Q 24.125 74.21875 28.421875 74.21875 
Q 39.75 74.21875 46.484375 68.546875 
Q 53.21875 62.890625 53.21875 53.421875 
Q 53.21875 48.921875 51.53125 44.890625 
Q 49.859375 40.875 45.40625 35.40625 
Q 44.1875 33.984375 37.640625 27.21875 
Q 31.109375 20.453125 19.1875 8.296875 
z
" id="DejaVuSans-50"/>
       </defs>
       <use xlink:href="#DejaVuSans-50"/>
       <use x="63.623047" xlink:href="#DejaVuSans-48"/>
       <use x="127.246094" xlink:href="#DejaVuSans-48"/>
      </g>
     </g>
    </g>
   </g>
   <g id="matplotlib.axis_2">
    <g id="ytick_1">
     <g id="line2d_6">
      <defs>
       <path d="M 0 0 
L -3.5 0 
" id="m8072c3ddfb" style="stroke:#000000;stroke-width:0.8;"/>
      </defs>
      <g>
       <use style="stroke:#000000;stroke-width:0.8;" x="57.6" xlink:href="#m8072c3ddfb" y="295.449032"/>
      </g>
     </g>
     <g id="text_6">
      <!-- 25 -->
      <g transform="translate(37.875 299.248251)scale(0.1 -0.1)">
       <use xlink:href="#DejaVuSans-50"/>
       <use x="63.623047" xlink:href="#DejaVuSans-53"/>
      </g>
     </g>
    </g>
    <g id="ytick_2">
     <g id="line2d_7">
      <g>
       <use style="stroke:#000000;stroke-width:0.8;" x="57.6" xlink:href="#m8072c3ddfb" y="260.620493"/>
      </g>
     </g>
     <g id="text_7">
      <!-- 50 -->
      <g transform="translate(37.875 264.419712)scale(0.1 -0.1)">
       <use xlink:href="#DejaVuSans-53"/>
       <use x="63.623047" xlink:href="#DejaVuSans-48"/>
      </g>
     </g>
    </g>
    <g id="ytick_3">
     <g id="line2d_8">
      <g>
       <use style="stroke:#000000;stroke-width:0.8;" x="57.6" xlink:href="#m8072c3ddfb" y="225.791955"/>
      </g>
     </g>
     <g id="text_8">
      <!-- 75 -->
      <g transform="translate(37.875 229.591173)scale(0.1 -0.1)">
       <defs>
        <path d="M 8.203125 72.90625 
L 55.078125 72.90625 
L 55.078125 68.703125 
L 28.609375 0 
L 18.3125 0 
L 43.21875 64.59375 
L 8.203125 64.59375 
z
" id="DejaVuSans-55"/>
       </defs>
       <use xlink:href="#DejaVuSans-55"/>
       <use x="63.623047" xlink:href="#DejaVuSans-53"/>
      </g>
     </g>
    </g>
    <g id="ytick_4">
     <g id="line2d_9">
      <g>
       <use style="stroke:#000000;stroke-width:0.8;" x="57.6" xlink:href="#m8072c3ddfb" y="190.963416"/>
      </g>
     </g>
     <g id="text_9">
      <!-- 100 -->
      <g transform="translate(31.5125 194.762635)scale(0.1 -0.1)">
       <use xlink:href="#DejaVuSans-49"/>
       <use x="63.623047" xlink:href="#DejaVuSans-48"/>
       <use x="127.246094" xlink:href="#DejaVuSans-48"/>
      </g>
     </g>
    </g>
    <g id="ytick_5">
     <g id="line2d_10">
      <g>
       <use style="stroke:#000000;stroke-width:0.8;" x="57.6" xlink:href="#m8072c3ddfb" y="156.134877"/>
      </g>
     </g>
     <g id="text_10">
      <!-- 125 -->
      <g transform="translate(31.5125 159.934096)scale(0.1 -0.1)">
       <use xlink:href="#DejaVuSans-49"/>
       <use x="63.623047" xlink:href="#DejaVuSans-50"/>
       <use x="127.246094" xlink:href="#DejaVuSans-53"/>
      </g>
     </g>
    </g>
    <g id="ytick_6">
     <g id="line2d_11">
      <g>
       <use style="stroke:#000000;stroke-width:0.8;" x="57.6" xlink:href="#m8072c3ddfb" y="121.306339"/>
      </g>
     </g>
     <g id="text_11">
      <!-- 150 -->
      <g transform="translate(31.5125 125.105558)scale(0.1 -0.1)">
       <use xlink:href="#DejaVuSans-49"/>
       <use x="63.623047" xlink:href="#DejaVuSans-53"/>
       <use x="127.246094" xlink:href="#DejaVuSans-48"/>
      </g>
     </g>
    </g>
    <g id="ytick_7">
     <g id="line2d_12">
      <g>
       <use style="stroke:#000000;stroke-width:0.8;" x="57.6" xlink:href="#m8072c3ddfb" y="86.4778"/>
      </g>
     </g>
     <g id="text_12">
      <!-- 175 -->
      <g transform="translate(31.5125 90.277019)scale(0.1 -0.1)">
       <use xlink:href="#DejaVuSans-49"/>
       <use x="63.623047" xlink:href="#DejaVuSans-55"/>
       <use x="127.246094" xlink:href="#DejaVuSans-53"/>
      </g>
     </g>
    </g>
    <g id="ytick_8">
     <g id="line2d_13">
      <g>
       <use style="stroke:#000000;stroke-width:0.8;" x="57.6" xlink:href="#m8072c3ddfb" y="51.649261"/>
      </g>
     </g>
     <g id="text_13">
      <!-- 200 -->
      <g transform="translate(31.5125 55.44848)scale(0.1 -0.1)">
       <use xlink:href="#DejaVuSans-50"/>
       <use x="63.623047" xlink:href="#DejaVuSans-48"/>
       <use x="127.246094" xlink:href="#DejaVuSans-48"/>
      </g>
     </g>
    </g>
   </g>
   <g id="line2d_14">
    <path clip-path="url(#pc207456671)" d="M 273.111392 295.449032 
L 272.984617 289.875073 
L 272.229534 271.772591 
L 272.340985 267.593167 
L 272.697629 263.427674 
L 273.103034 260.669253 
L 273.721588 257.951234 
L 274.57837 255.298693 
L 275.606509 252.708842 
L 277.359081 248.911139 
L 282.235076 238.884699 
L 283.271574 236.297635 
L 284.131142 233.645094 
L 284.739945 230.925681 
L 285.015787 228.15333 
L 284.964241 225.365653 
L 284.684219 222.593302 
L 284.209158 219.846027 
L 283.569706 217.13358 
L 282.363245 213.129691 
L 280.922737 209.203818 
L 278.742471 204.072878 
L 275.754182 197.778664 
L 273.201947 192.821867 
L 271.698747 190.474423 
L 269.195272 187.126704 
L 265.600966 182.863691 
L 261.066291 177.571146 
L 258.518235 174.256863 
L 256.976027 171.934496 
L 255.623287 169.497891 
L 254.524098 166.937297 
L 253.748118 164.261072 
L 253.303706 161.509617 
L 253.125384 158.727514 
L 253.146281 155.939838 
L 253.419337 151.768772 
L 254.381997 140.659861 
L 254.422399 137.872185 
L 254.273332 135.090081 
L 253.874894 132.331661 
L 253.210365 129.623394 
L 251.934248 125.643188 
L 250.394826 121.75493 
L 248.647827 117.957226 
L 246.071908 113.011574 
L 242.590447 106.975092 
L 233.174204 91.49311 
L 229.390431 85.640522 
L 226.958006 82.239864 
L 224.350045 78.972947 
L 221.520575 75.894104 
L 219.492161 73.982714 
L 217.338364 72.212031 
L 215.048039 70.625242 
L 212.637904 69.222349 
L 210.141395 67.982453 
L 206.285179 66.366409 
L 202.346768 64.962122 
L 194.373819 62.440536 
L 189.072915 60.711647 
L 185.155401 59.248849 
L 183.868138 58.713882 
L 183.868138 58.713882 
" style="fill:none;stroke:#fea952;stroke-linecap:square;"/>
   </g>
   <g id="line2d_15">
    <path clip-path="url(#pc207456671)" d="M 267.538962 295.488 
L 267.417695 290.125835 
L 266.657246 271.716869 
L 266.779819 267.236896 
L 267.173752 262.692641 
L 267.641701 259.561399 
L 268.388039 256.336694 
L 269.370523 253.315812 
L 270.507827 250.460079 
L 272.360422 246.448031 
L 277.091994 236.739426 
L 278.393432 233.370285 
L 279.003107 231.219086 
L 279.363419 229.175962 
L 279.455095 226.992637 
L 279.31908 224.645249 
L 278.992872 222.251524 
L 278.502712 219.839095 
L 277.496402 216.181385 
L 276.227837 212.514022 
L 274.222277 207.617705 
L 271.36301 201.48163 
L 268.457746 195.74523 
L 267.154025 193.699171 
L 264.874415 190.645752 
L 261.399598 186.524565 
L 256.720289 181.059091 
L 253.927507 177.415773 
L 252.166407 174.748931 
L 250.565581 171.837358 
L 249.225915 168.66436 
L 248.691987 166.987531 
L 247.963723 163.626646 
L 247.617867 160.360054 
L 247.544411 157.211928 
L 247.752226 152.706485 
L 248.543511 144.364474 
L 248.811773 140.498325 
L 248.817343 136.885975 
L 248.617863 134.646706 
L 248.182795 132.401897 
L 247.129847 128.791922 
L 245.794855 125.195554 
L 244.223782 121.620914 
L 242.464853 118.076411 
L 239.883095 113.372456 
L 235.673416 106.311693 
L 225.547158 89.909745 
L 222.536299 85.631324 
L 220.151436 82.636985 
L 217.633436 79.887053 
L 215.872925 78.220004 
L 214.068361 76.7243 
L 212.158905 75.390366 
L 210.085777 74.17615 
L 206.721421 72.557374 
L 203.109428 71.129505 
L 198.023946 69.415687 
L 185.815955 65.467718 
L 181.72959 63.859765 
L 181.72959 63.859765 
" style="fill:none;stroke:#ffffff;stroke-linecap:square;"/>
   </g>
   <g id="line2d_16">
    <path clip-path="url(#pc207456671)" d="M 278.683822 295.410064 
L 278.551538 289.62431 
L 277.801821 271.828314 
L 277.902151 267.949438 
L 278.221507 264.162706 
L 278.78316 260.667229 
L 279.395822 258.427199 
L 280.224153 256.125145 
L 281.775994 252.583879 
L 287.972997 239.598144 
L 289.063616 236.589161 
L 289.93903 233.368407 
L 290.48426 229.911408 
L 290.59041 226.524953 
L 290.383713 223.308133 
L 289.943693 220.179446 
L 289.313766 217.130759 
L 288.093837 212.730539 
L 286.623485 208.496003 
L 284.97959 204.416594 
L 282.602711 199.142561 
L 278.747311 191.322803 
L 277.110628 188.54895 
L 275.347496 185.990517 
L 272.585255 182.465576 
L 267.106732 176.099546 
L 263.836189 172.084991 
L 261.785647 169.12006 
L 260.680992 167.158424 
L 259.822281 165.210234 
L 259.222508 163.219657 
L 258.85613 161.036241 
L 258.697813 158.688507 
L 258.773202 154.921359 
L 259.230954 149.55584 
L 259.876266 142.335725 
L 259.994965 139.26672 
L 259.93272 136.072111 
L 259.602807 132.763891 
L 258.954011 129.539226 
L 258.124363 126.585775 
L 256.627781 122.281235 
L 254.893217 118.143937 
L 252.983718 114.163516 
L 250.240707 109.042408 
L 246.637682 102.892247 
L 236.374589 86.114374 
L 233.129419 81.254265 
L 230.468086 77.661398 
L 227.539812 74.155486 
L 225.407714 71.901154 
L 223.111396 69.745424 
L 220.608367 67.699761 
L 217.937173 65.860119 
L 215.190031 64.268548 
L 212.410316 62.89271 
L 208.230228 61.144314 
L 204.090572 59.669425 
L 196.043898 57.124115 
L 189.70241 55.022172 
L 186.006687 53.568 
L 186.006687 53.568 
" style="fill:none;stroke:#ffffff;stroke-linecap:square;"/>
   </g>
   <g id="patch_3">
    <path d="M 57.6 307.584 
L 57.6 41.472 
" style="fill:none;stroke:#000000;stroke-linecap:square;stroke-linejoin:miter;stroke-width:0.8;"/>
   </g>
   <g id="patch_4">
    <path d="M 414.72 307.584 
L 414.72 41.472 
" style="fill:none;stroke:#000000;stroke-linecap:square;stroke-linejoin:miter;stroke-width:0.8;"/>
   </g>
   <g id="patch_5">
    <path d="M 57.6 307.584 
L 414.72 307.584 
" style="fill:none;stroke:#000000;stroke-linecap:square;stroke-linejoin:miter;stroke-width:0.8;"/>
   </g>
   <g id="patch_6">
    <path d="M 57.6 41.472 
L 414.72 41.472 
" style="fill:none;stroke:#000000;stroke-linecap:square;stroke-linejoin:miter;stroke-width:0.8;"/>
   </g>
  </g>
 </g>
 <defs>
  <clipPath id="pc207456671">
   <rect height="266.112" width="357.12" x="57.6" y="41.472"/>
  </clipPath>
 </defs>
</svg>
