<?xml version="1.0" encoding="utf-8" standalone="no"?>
<!DOCTYPE svg PUBLIC "-//W3C//DTD SVG 1.1//EN"
  "http://www.w3.org/Graphics/SVG/1.1/DTD/svg11.dtd">
<!-- Created with matplotlib (https://matplotlib.org/) -->
<svg height="345.6pt" version="1.1" viewBox="0 0 460.8 345.6" width="460.8pt" xmlns="http://www.w3.org/2000/svg" xmlns:xlink="http://www.w3.org/1999/xlink">
 <metadata>
  <rdf:RDF xmlns:cc="http://creativecommons.org/ns#" xmlns:dc="http://purl.org/dc/elements/1.1/" xmlns:rdf="http://www.w3.org/1999/02/22-rdf-syntax-ns#">
   <cc:Work>
    <dc:type rdf:resource="http://purl.org/dc/dcmitype/StillImage"/>
    <dc:date>2021-07-14T13:47:53.294942</dc:date>
    <dc:format>image/svg+xml</dc:format>
    <dc:creator>
     <cc:Agent>
      <dc:title>Matplotlib v3.3.3, https://matplotlib.org/</dc:title>
     </cc:Agent>
    </dc:creator>
   </cc:Work>
  </rdf:RDF>
 </metadata>
 <defs>
  <style type="text/css">*{stroke-linecap:butt;stroke-linejoin:round;}</style>
 </defs>
 <g id="figure_1">
  <g id="patch_1">
   <path d="M 0 345.6 
L 460.8 345.6 
L 460.8 0 
L 0 0 
z
" style="fill:#ffffff;"/>
  </g>
  <g id="axes_1">
   <g id="patch_2">
    <path d="M 57.6 307.584 
L 414.72 307.584 
L 414.72 41.472 
L 57.6 41.472 
z
" style="fill:#7d9051;"/>
   </g>
   <g id="matplotlib.axis_1">
    <g id="xtick_1">
     <g id="line2d_1">
      <defs>
       <path d="M 0 0 
L 0 3.5 
" id="mb8b4783020" style="stroke:#000000;stroke-width:0.8;"/>
      </defs>
      <g>
       <use style="stroke:#000000;stroke-width:0.8;" x="116.930648" xlink:href="#mb8b4783020" y="307.584"/>
      </g>
     </g>
     <g id="text_1">
      <!-- 0 -->
      <g transform="translate(113.749398 322.182437)scale(0.1 -0.1)">
       <defs>
        <path d="M 31.78125 66.40625 
Q 24.171875 66.40625 20.328125 58.90625 
Q 16.5 51.421875 16.5 36.375 
Q 16.5 21.390625 20.328125 13.890625 
Q 24.171875 6.390625 31.78125 6.390625 
Q 39.453125 6.390625 43.28125 13.890625 
Q 47.125 21.390625 47.125 36.375 
Q 47.125 51.421875 43.28125 58.90625 
Q 39.453125 66.40625 31.78125 66.40625 
z
M 31.78125 74.21875 
Q 44.046875 74.21875 50.515625 64.515625 
Q 56.984375 54.828125 56.984375 36.375 
Q 56.984375 17.96875 50.515625 8.265625 
Q 44.046875 -1.421875 31.78125 -1.421875 
Q 19.53125 -1.421875 13.0625 8.265625 
Q 6.59375 17.96875 6.59375 36.375 
Q 6.59375 54.828125 13.0625 64.515625 
Q 19.53125 74.21875 31.78125 74.21875 
z
" id="DejaVuSans-48"/>
       </defs>
       <use xlink:href="#DejaVuSans-48"/>
      </g>
     </g>
    </g>
    <g id="xtick_2">
     <g id="line2d_2">
      <g>
       <use style="stroke:#000000;stroke-width:0.8;" x="186.728427" xlink:href="#mb8b4783020" y="307.584"/>
      </g>
     </g>
     <g id="text_2">
      <!-- 50 -->
      <g transform="translate(180.365927 322.182437)scale(0.1 -0.1)">
       <defs>
        <path d="M 10.796875 72.90625 
L 49.515625 72.90625 
L 49.515625 64.59375 
L 19.828125 64.59375 
L 19.828125 46.734375 
Q 21.96875 47.46875 24.109375 47.828125 
Q 26.265625 48.1875 28.421875 48.1875 
Q 40.625 48.1875 47.75 41.5 
Q 54.890625 34.8125 54.890625 23.390625 
Q 54.890625 11.625 47.5625 5.09375 
Q 40.234375 -1.421875 26.90625 -1.421875 
Q 22.3125 -1.421875 17.546875 -0.640625 
Q 12.796875 0.140625 7.71875 1.703125 
L 7.71875 11.625 
Q 12.109375 9.234375 16.796875 8.0625 
Q 21.484375 6.890625 26.703125 6.890625 
Q 35.15625 6.890625 40.078125 11.328125 
Q 45.015625 15.765625 45.015625 23.390625 
Q 45.015625 31 40.078125 35.4375 
Q 35.15625 39.890625 26.703125 39.890625 
Q 22.75 39.890625 18.8125 39.015625 
Q 14.890625 38.140625 10.796875 36.28125 
z
" id="DejaVuSans-53"/>
       </defs>
       <use xlink:href="#DejaVuSans-53"/>
       <use x="63.623047" xlink:href="#DejaVuSans-48"/>
      </g>
     </g>
    </g>
    <g id="xtick_3">
     <g id="line2d_3">
      <g>
       <use style="stroke:#000000;stroke-width:0.8;" x="256.526207" xlink:href="#mb8b4783020" y="307.584"/>
      </g>
     </g>
     <g id="text_3">
      <!-- 100 -->
      <g transform="translate(246.982457 322.182437)scale(0.1 -0.1)">
       <defs>
        <path d="M 12.40625 8.296875 
L 28.515625 8.296875 
L 28.515625 63.921875 
L 10.984375 60.40625 
L 10.984375 69.390625 
L 28.421875 72.90625 
L 38.28125 72.90625 
L 38.28125 8.296875 
L 54.390625 8.296875 
L 54.390625 0 
L 12.40625 0 
z
" id="DejaVuSans-49"/>
       </defs>
       <use xlink:href="#DejaVuSans-49"/>
       <use x="63.623047" xlink:href="#DejaVuSans-48"/>
       <use x="127.246094" xlink:href="#DejaVuSans-48"/>
      </g>
     </g>
    </g>
    <g id="xtick_4">
     <g id="line2d_4">
      <g>
       <use style="stroke:#000000;stroke-width:0.8;" x="326.323986" xlink:href="#mb8b4783020" y="307.584"/>
      </g>
     </g>
     <g id="text_4">
      <!-- 150 -->
      <g transform="translate(316.780236 322.182437)scale(0.1 -0.1)">
       <use xlink:href="#DejaVuSans-49"/>
       <use x="63.623047" xlink:href="#DejaVuSans-53"/>
       <use x="127.246094" xlink:href="#DejaVuSans-48"/>
      </g>
     </g>
    </g>
    <g id="xtick_5">
     <g id="line2d_5">
      <g>
       <use style="stroke:#000000;stroke-width:0.8;" x="396.121766" xlink:href="#mb8b4783020" y="307.584"/>
      </g>
     </g>
     <g id="text_5">
      <!-- 200 -->
      <g transform="translate(386.578016 322.182437)scale(0.1 -0.1)">
       <defs>
        <path d="M 19.1875 8.296875 
L 53.609375 8.296875 
L 53.609375 0 
L 7.328125 0 
L 7.328125 8.296875 
Q 12.9375 14.109375 22.625 23.890625 
Q 32.328125 33.6875 34.8125 36.53125 
Q 39.546875 41.84375 41.421875 45.53125 
Q 43.3125 49.21875 43.3125 52.78125 
Q 43.3125 58.59375 39.234375 62.25 
Q 35.15625 65.921875 28.609375 65.921875 
Q 23.96875 65.921875 18.8125 64.3125 
Q 13.671875 62.703125 7.8125 59.421875 
L 7.8125 69.390625 
Q 13.765625 71.78125 18.9375 73 
Q 24.125 74.21875 28.421875 74.21875 
Q 39.75 74.21875 46.484375 68.546875 
Q 53.21875 62.890625 53.21875 53.421875 
Q 53.21875 48.921875 51.53125 44.890625 
Q 49.859375 40.875 45.40625 35.40625 
Q 44.1875 33.984375 37.640625 27.21875 
Q 31.109375 20.453125 19.1875 8.296875 
z
" id="DejaVuSans-50"/>
       </defs>
       <use xlink:href="#DejaVuSans-50"/>
       <use x="63.623047" xlink:href="#DejaVuSans-48"/>
       <use x="127.246094" xlink:href="#DejaVuSans-48"/>
      </g>
     </g>
    </g>
   </g>
   <g id="matplotlib.axis_2">
    <g id="ytick_1">
     <g id="line2d_6">
      <defs>
       <path d="M 0 0 
L -3.5 0 
" id="ma5c5f2f82d" style="stroke:#000000;stroke-width:0.8;"/>
      </defs>
      <g>
       <use style="stroke:#000000;stroke-width:0.8;" x="57.6" xlink:href="#ma5c5f2f82d" y="295.465776"/>
      </g>
     </g>
     <g id="text_6">
      <!-- 25 -->
      <g transform="translate(37.875 299.264995)scale(0.1 -0.1)">
       <use xlink:href="#DejaVuSans-50"/>
       <use x="63.623047" xlink:href="#DejaVuSans-53"/>
      </g>
     </g>
    </g>
    <g id="ytick_2">
     <g id="line2d_7">
      <g>
       <use style="stroke:#000000;stroke-width:0.8;" x="57.6" xlink:href="#ma5c5f2f82d" y="260.566886"/>
      </g>
     </g>
     <g id="text_7">
      <!-- 50 -->
      <g transform="translate(37.875 264.366105)scale(0.1 -0.1)">
       <use xlink:href="#DejaVuSans-53"/>
       <use x="63.623047" xlink:href="#DejaVuSans-48"/>
      </g>
     </g>
    </g>
    <g id="ytick_3">
     <g id="line2d_8">
      <g>
       <use style="stroke:#000000;stroke-width:0.8;" x="57.6" xlink:href="#ma5c5f2f82d" y="225.667997"/>
      </g>
     </g>
     <g id="text_8">
      <!-- 75 -->
      <g transform="translate(37.875 229.467215)scale(0.1 -0.1)">
       <defs>
        <path d="M 8.203125 72.90625 
L 55.078125 72.90625 
L 55.078125 68.703125 
L 28.609375 0 
L 18.3125 0 
L 43.21875 64.59375 
L 8.203125 64.59375 
z
" id="DejaVuSans-55"/>
       </defs>
       <use xlink:href="#DejaVuSans-55"/>
       <use x="63.623047" xlink:href="#DejaVuSans-53"/>
      </g>
     </g>
    </g>
    <g id="ytick_4">
     <g id="line2d_9">
      <g>
       <use style="stroke:#000000;stroke-width:0.8;" x="57.6" xlink:href="#ma5c5f2f82d" y="190.769107"/>
      </g>
     </g>
     <g id="text_9">
      <!-- 100 -->
      <g transform="translate(31.5125 194.568326)scale(0.1 -0.1)">
       <use xlink:href="#DejaVuSans-49"/>
       <use x="63.623047" xlink:href="#DejaVuSans-48"/>
       <use x="127.246094" xlink:href="#DejaVuSans-48"/>
      </g>
     </g>
    </g>
    <g id="ytick_5">
     <g id="line2d_10">
      <g>
       <use style="stroke:#000000;stroke-width:0.8;" x="57.6" xlink:href="#ma5c5f2f82d" y="155.870217"/>
      </g>
     </g>
     <g id="text_10">
      <!-- 125 -->
      <g transform="translate(31.5125 159.669436)scale(0.1 -0.1)">
       <use xlink:href="#DejaVuSans-49"/>
       <use x="63.623047" xlink:href="#DejaVuSans-50"/>
       <use x="127.246094" xlink:href="#DejaVuSans-53"/>
      </g>
     </g>
    </g>
    <g id="ytick_6">
     <g id="line2d_11">
      <g>
       <use style="stroke:#000000;stroke-width:0.8;" x="57.6" xlink:href="#ma5c5f2f82d" y="120.971327"/>
      </g>
     </g>
     <g id="text_11">
      <!-- 150 -->
      <g transform="translate(31.5125 124.770546)scale(0.1 -0.1)">
       <use xlink:href="#DejaVuSans-49"/>
       <use x="63.623047" xlink:href="#DejaVuSans-53"/>
       <use x="127.246094" xlink:href="#DejaVuSans-48"/>
      </g>
     </g>
    </g>
    <g id="ytick_7">
     <g id="line2d_12">
      <g>
       <use style="stroke:#000000;stroke-width:0.8;" x="57.6" xlink:href="#ma5c5f2f82d" y="86.072438"/>
      </g>
     </g>
     <g id="text_12">
      <!-- 175 -->
      <g transform="translate(31.5125 89.871656)scale(0.1 -0.1)">
       <use xlink:href="#DejaVuSans-49"/>
       <use x="63.623047" xlink:href="#DejaVuSans-55"/>
       <use x="127.246094" xlink:href="#DejaVuSans-53"/>
      </g>
     </g>
    </g>
    <g id="ytick_8">
     <g id="line2d_13">
      <g>
       <use style="stroke:#000000;stroke-width:0.8;" x="57.6" xlink:href="#ma5c5f2f82d" y="51.173548"/>
      </g>
     </g>
     <g id="text_13">
      <!-- 200 -->
      <g transform="translate(31.5125 54.972767)scale(0.1 -0.1)">
       <use xlink:href="#DejaVuSans-50"/>
       <use x="63.623047" xlink:href="#DejaVuSans-48"/>
       <use x="127.246094" xlink:href="#DejaVuSans-48"/>
      </g>
     </g>
    </g>
   </g>
   <g id="line2d_14">
    <path clip-path="url(#p97f50f6d86)" d="M 291.425097 295.465776 
L 291.550733 288.453891 
L 292.004418 273.03277 
L 291.924849 267.422424 
L 291.681952 263.221994 
L 291.087275 257.643755 
L 289.99145 249.300129 
L 289.043596 243.770749 
L 288.155769 239.656867 
L 287.071111 235.591845 
L 285.743557 231.599412 
L 284.702174 228.994559 
L 283.518404 226.452524 
L 282.105697 224.029145 
L 280.45149 221.764905 
L 278.62558 219.636072 
L 275.684301 216.626392 
L 266.61757 207.847227 
L 264.783284 205.723979 
L 263.122097 203.465323 
L 261.706598 201.04334 
L 260.620545 198.459426 
L 259.88348 195.754064 
L 259.433982 192.984488 
L 259.200858 190.189785 
L 259.1171 185.983771 
L 259.179918 174.76308 
L 258.987277 171.965585 
L 258.599201 169.187633 
L 257.944498 166.459936 
L 256.989664 163.822976 
L 255.254491 159.989682 
L 253.255483 156.289004 
L 251.031726 152.716753 
L 248.62091 149.268743 
L 246.048164 145.937993 
L 243.337218 142.721711 
L 239.530447 138.60085 
L 236.534727 135.645612 
L 234.387747 133.842038 
L 232.122111 132.186435 
L 228.579176 129.918007 
L 223.712875 127.126096 
L 217.613945 123.665522 
L 214.05705 121.416637 
L 211.77885 119.780577 
L 209.609535 118.00213 
L 206.585896 115.076207 
L 202.760977 110.973493 
L 199.159412 106.672554 
L 196.614585 103.320865 
L 194.217729 99.863083 
L 191.980012 96.299208 
L 189.922374 92.629241 
L 188.062961 88.854577 
L 186.978303 86.267871 
L 185.62981 82.282418 
L 184.554924 78.214604 
L 183.420013 72.721518 
L 181.782557 63.040566 
L 180.771885 57.522354 
L 180.181396 54.779301 
L 180.181396 54.779301 
" style="fill:none;stroke:#fea952;stroke-linecap:square;"/>
   </g>
   <g id="line2d_15">
    <path clip-path="url(#p97f50f6d86)" d="M 285.841318 295.443552 
L 285.970109 288.264906 
L 286.422169 271.674281 
L 286.290313 266.343239 
L 286.00506 262.413813 
L 285.040265 254.206127 
L 284.046614 247.497136 
L 283.030521 242.279489 
L 282.087416 238.474332 
L 280.957122 234.798733 
L 279.604669 231.273705 
L 278.106578 228.170818 
L 276.870916 226.273451 
L 275.377591 224.389288 
L 272.766129 221.589345 
L 268.814443 217.814862 
L 264.591642 213.789052 
L 262.450612 211.564153 
L 260.359273 209.130912 
L 258.388274 206.42674 
L 256.638993 203.388218 
L 255.896327 201.749717 
L 255.279456 200.087875 
L 254.394042 196.776389 
L 253.877926 193.54065 
L 253.621462 190.412072 
L 253.533554 185.928213 
L 253.604171 175.06327 
L 253.309975 171.461547 
L 252.919216 169.270041 
L 252.292914 167.152945 
L 250.836229 163.681049 
L 249.092932 160.266038 
L 247.111183 156.93295 
L 244.925323 153.683272 
L 242.55422 150.513904 
L 239.165044 146.43278 
L 235.540632 142.507313 
L 232.862083 139.851651 
L 231.027687 138.301754 
L 227.952162 136.111912 
L 224.584793 134.03971 
L 212.147494 126.847955 
L 209.580944 125.101688 
L 207.055447 123.162026 
L 204.678476 121.046793 
L 201.549532 117.902565 
L 198.549787 114.640229 
L 195.684295 111.262581 
L 192.955056 107.765731 
L 190.36373 104.140033 
L 187.933003 100.39404 
L 185.669206 96.509631 
L 183.604046 92.496852 
L 182.317476 89.647908 
L 181.202773 86.735575 
L 179.845203 82.357434 
L 178.782156 78.00389 
L 177.669187 72.291323 
L 175.034859 57.360035 
L 174.73054 55.990602 
L 174.73054 55.990602 
" style="fill:none;stroke:#ffffff;stroke-linecap:square;"/>
   </g>
   <g id="line2d_16">
    <path clip-path="url(#p97f50f6d86)" d="M 297.008875 295.488 
L 297.131356 288.642876 
L 297.588238 273.038326 
L 297.503557 267.183495 
L 297.243834 262.727481 
L 296.632472 256.988111 
L 295.719806 249.876256 
L 294.790481 244.114488 
L 293.911988 239.767527 
L 292.825374 235.406344 
L 291.473658 231.041239 
L 290.396625 228.145538 
L 289.154896 225.279758 
L 287.587321 222.268972 
L 285.737921 219.484304 
L 283.732981 216.979582 
L 281.650872 214.699368 
L 278.502135 211.591443 
L 271.642747 205.03777 
L 269.207296 202.317046 
L 267.85592 200.503906 
L 266.774203 198.698461 
L 265.961633 196.830978 
L 265.372918 194.73174 
L 264.990038 192.428327 
L 264.780254 189.967499 
L 264.700646 186.039329 
L 264.755666 174.46289 
L 264.532473 171.309941 
L 264.06319 168.037027 
L 263.237312 164.680839 
L 262.130877 161.644214 
L 260.892819 158.824994 
L 258.802822 154.749308 
L 256.479444 150.854138 
L 253.963726 147.124038 
L 251.289845 143.556524 
L 248.47484 140.123591 
L 245.537756 136.824834 
L 241.388012 132.548231 
L 238.987158 130.379523 
L 236.494958 128.441386 
L 232.692361 125.889471 
L 227.664895 122.939307 
L 219.391799 118.215057 
L 216.229829 116.129029 
L 214.299436 114.66256 
L 212.480164 113.056175 
L 209.670713 110.236881 
L 206.094454 106.299328 
L 202.743621 102.191806 
L 199.635198 97.914587 
L 197.481607 94.602628 
L 195.504491 91.219692 
L 193.714021 87.752941 
L 192.218603 84.339574 
L 190.998789 80.748424 
L 190.000494 76.979755 
L 188.915537 71.732435 
L 187.285832 62.09556 
L 186.238338 56.38351 
L 185.632251 53.568 
L 185.632251 53.568 
" style="fill:none;stroke:#ffffff;stroke-linecap:square;"/>
   </g>
   <g id="patch_3">
    <path d="M 57.6 307.584 
L 57.6 41.472 
" style="fill:none;stroke:#000000;stroke-linecap:square;stroke-linejoin:miter;stroke-width:0.8;"/>
   </g>
   <g id="patch_4">
    <path d="M 414.72 307.584 
L 414.72 41.472 
" style="fill:none;stroke:#000000;stroke-linecap:square;stroke-linejoin:miter;stroke-width:0.8;"/>
   </g>
   <g id="patch_5">
    <path d="M 57.6 307.584 
L 414.72 307.584 
" style="fill:none;stroke:#000000;stroke-linecap:square;stroke-linejoin:miter;stroke-width:0.8;"/>
   </g>
   <g id="patch_6">
    <path d="M 57.6 41.472 
L 414.72 41.472 
" style="fill:none;stroke:#000000;stroke-linecap:square;stroke-linejoin:miter;stroke-width:0.8;"/>
   </g>
  </g>
 </g>
 <defs>
  <clipPath id="p97f50f6d86">
   <rect height="266.112" width="357.12" x="57.6" y="41.472"/>
  </clipPath>
 </defs>
</svg>
