<?xml version="1.0" encoding="utf-8" standalone="no"?>
<!DOCTYPE svg PUBLIC "-//W3C//DTD SVG 1.1//EN"
  "http://www.w3.org/Graphics/SVG/1.1/DTD/svg11.dtd">
<!-- Created with matplotlib (https://matplotlib.org/) -->
<svg height="345.6pt" version="1.1" viewBox="0 0 460.8 345.6" width="460.8pt" xmlns="http://www.w3.org/2000/svg" xmlns:xlink="http://www.w3.org/1999/xlink">
 <metadata>
  <rdf:RDF xmlns:cc="http://creativecommons.org/ns#" xmlns:dc="http://purl.org/dc/elements/1.1/" xmlns:rdf="http://www.w3.org/1999/02/22-rdf-syntax-ns#">
   <cc:Work>
    <dc:type rdf:resource="http://purl.org/dc/dcmitype/StillImage"/>
    <dc:date>2021-07-14T14:15:53.035249</dc:date>
    <dc:format>image/svg+xml</dc:format>
    <dc:creator>
     <cc:Agent>
      <dc:title>Matplotlib v3.3.3, https://matplotlib.org/</dc:title>
     </cc:Agent>
    </dc:creator>
   </cc:Work>
  </rdf:RDF>
 </metadata>
 <defs>
  <style type="text/css">*{stroke-linecap:butt;stroke-linejoin:round;}</style>
 </defs>
 <g id="figure_1">
  <g id="patch_1">
   <path d="M 0 345.6 
L 460.8 345.6 
L 460.8 0 
L 0 0 
z
" style="fill:#ffffff;"/>
  </g>
  <g id="axes_1">
   <g id="patch_2">
    <path d="M 57.6 307.584 
L 414.72 307.584 
L 414.72 41.472 
L 57.6 41.472 
z
" style="fill:#7d9051;"/>
   </g>
   <g id="matplotlib.axis_1">
    <g id="xtick_1">
     <g id="line2d_1">
      <defs>
       <path d="M 0 0 
L 0 3.5 
" id="m37548cc69c" style="stroke:#000000;stroke-width:0.8;"/>
      </defs>
      <g>
       <use style="stroke:#000000;stroke-width:0.8;" x="86.43988" xlink:href="#m37548cc69c" y="307.584"/>
      </g>
     </g>
     <g id="text_1">
      <!-- 0 -->
      <g transform="translate(83.25863 322.182437)scale(0.1 -0.1)">
       <defs>
        <path d="M 31.78125 66.40625 
Q 24.171875 66.40625 20.328125 58.90625 
Q 16.5 51.421875 16.5 36.375 
Q 16.5 21.390625 20.328125 13.890625 
Q 24.171875 6.390625 31.78125 6.390625 
Q 39.453125 6.390625 43.28125 13.890625 
Q 47.125 21.390625 47.125 36.375 
Q 47.125 51.421875 43.28125 58.90625 
Q 39.453125 66.40625 31.78125 66.40625 
z
M 31.78125 74.21875 
Q 44.046875 74.21875 50.515625 64.515625 
Q 56.984375 54.828125 56.984375 36.375 
Q 56.984375 17.96875 50.515625 8.265625 
Q 44.046875 -1.421875 31.78125 -1.421875 
Q 19.53125 -1.421875 13.0625 8.265625 
Q 6.59375 17.96875 6.59375 36.375 
Q 6.59375 54.828125 13.0625 64.515625 
Q 19.53125 74.21875 31.78125 74.21875 
z
" id="DejaVuSans-48"/>
       </defs>
       <use xlink:href="#DejaVuSans-48"/>
      </g>
     </g>
    </g>
    <g id="xtick_2">
     <g id="line2d_2">
      <g>
       <use style="stroke:#000000;stroke-width:0.8;" x="127.695781" xlink:href="#m37548cc69c" y="307.584"/>
      </g>
     </g>
     <g id="text_2">
      <!-- 20 -->
      <g transform="translate(121.333281 322.182437)scale(0.1 -0.1)">
       <defs>
        <path d="M 19.1875 8.296875 
L 53.609375 8.296875 
L 53.609375 0 
L 7.328125 0 
L 7.328125 8.296875 
Q 12.9375 14.109375 22.625 23.890625 
Q 32.328125 33.6875 34.8125 36.53125 
Q 39.546875 41.84375 41.421875 45.53125 
Q 43.3125 49.21875 43.3125 52.78125 
Q 43.3125 58.59375 39.234375 62.25 
Q 35.15625 65.921875 28.609375 65.921875 
Q 23.96875 65.921875 18.8125 64.3125 
Q 13.671875 62.703125 7.8125 59.421875 
L 7.8125 69.390625 
Q 13.765625 71.78125 18.9375 73 
Q 24.125 74.21875 28.421875 74.21875 
Q 39.75 74.21875 46.484375 68.546875 
Q 53.21875 62.890625 53.21875 53.421875 
Q 53.21875 48.921875 51.53125 44.890625 
Q 49.859375 40.875 45.40625 35.40625 
Q 44.1875 33.984375 37.640625 27.21875 
Q 31.109375 20.453125 19.1875 8.296875 
z
" id="DejaVuSans-50"/>
       </defs>
       <use xlink:href="#DejaVuSans-50"/>
       <use x="63.623047" xlink:href="#DejaVuSans-48"/>
      </g>
     </g>
    </g>
    <g id="xtick_3">
     <g id="line2d_3">
      <g>
       <use style="stroke:#000000;stroke-width:0.8;" x="168.951682" xlink:href="#m37548cc69c" y="307.584"/>
      </g>
     </g>
     <g id="text_3">
      <!-- 40 -->
      <g transform="translate(162.589182 322.182437)scale(0.1 -0.1)">
       <defs>
        <path d="M 37.796875 64.3125 
L 12.890625 25.390625 
L 37.796875 25.390625 
z
M 35.203125 72.90625 
L 47.609375 72.90625 
L 47.609375 25.390625 
L 58.015625 25.390625 
L 58.015625 17.1875 
L 47.609375 17.1875 
L 47.609375 0 
L 37.796875 0 
L 37.796875 17.1875 
L 4.890625 17.1875 
L 4.890625 26.703125 
z
" id="DejaVuSans-52"/>
       </defs>
       <use xlink:href="#DejaVuSans-52"/>
       <use x="63.623047" xlink:href="#DejaVuSans-48"/>
      </g>
     </g>
    </g>
    <g id="xtick_4">
     <g id="line2d_4">
      <g>
       <use style="stroke:#000000;stroke-width:0.8;" x="210.207584" xlink:href="#m37548cc69c" y="307.584"/>
      </g>
     </g>
     <g id="text_4">
      <!-- 60 -->
      <g transform="translate(203.845084 322.182437)scale(0.1 -0.1)">
       <defs>
        <path d="M 33.015625 40.375 
Q 26.375 40.375 22.484375 35.828125 
Q 18.609375 31.296875 18.609375 23.390625 
Q 18.609375 15.53125 22.484375 10.953125 
Q 26.375 6.390625 33.015625 6.390625 
Q 39.65625 6.390625 43.53125 10.953125 
Q 47.40625 15.53125 47.40625 23.390625 
Q 47.40625 31.296875 43.53125 35.828125 
Q 39.65625 40.375 33.015625 40.375 
z
M 52.59375 71.296875 
L 52.59375 62.3125 
Q 48.875 64.0625 45.09375 64.984375 
Q 41.3125 65.921875 37.59375 65.921875 
Q 27.828125 65.921875 22.671875 59.328125 
Q 17.53125 52.734375 16.796875 39.40625 
Q 19.671875 43.65625 24.015625 45.921875 
Q 28.375 48.1875 33.59375 48.1875 
Q 44.578125 48.1875 50.953125 41.515625 
Q 57.328125 34.859375 57.328125 23.390625 
Q 57.328125 12.15625 50.6875 5.359375 
Q 44.046875 -1.421875 33.015625 -1.421875 
Q 20.359375 -1.421875 13.671875 8.265625 
Q 6.984375 17.96875 6.984375 36.375 
Q 6.984375 53.65625 15.1875 63.9375 
Q 23.390625 74.21875 37.203125 74.21875 
Q 40.921875 74.21875 44.703125 73.484375 
Q 48.484375 72.75 52.59375 71.296875 
z
" id="DejaVuSans-54"/>
       </defs>
       <use xlink:href="#DejaVuSans-54"/>
       <use x="63.623047" xlink:href="#DejaVuSans-48"/>
      </g>
     </g>
    </g>
    <g id="xtick_5">
     <g id="line2d_5">
      <g>
       <use style="stroke:#000000;stroke-width:0.8;" x="251.463485" xlink:href="#m37548cc69c" y="307.584"/>
      </g>
     </g>
     <g id="text_5">
      <!-- 80 -->
      <g transform="translate(245.100985 322.182437)scale(0.1 -0.1)">
       <defs>
        <path d="M 31.78125 34.625 
Q 24.75 34.625 20.71875 30.859375 
Q 16.703125 27.09375 16.703125 20.515625 
Q 16.703125 13.921875 20.71875 10.15625 
Q 24.75 6.390625 31.78125 6.390625 
Q 38.8125 6.390625 42.859375 10.171875 
Q 46.921875 13.96875 46.921875 20.515625 
Q 46.921875 27.09375 42.890625 30.859375 
Q 38.875 34.625 31.78125 34.625 
z
M 21.921875 38.8125 
Q 15.578125 40.375 12.03125 44.71875 
Q 8.5 49.078125 8.5 55.328125 
Q 8.5 64.0625 14.71875 69.140625 
Q 20.953125 74.21875 31.78125 74.21875 
Q 42.671875 74.21875 48.875 69.140625 
Q 55.078125 64.0625 55.078125 55.328125 
Q 55.078125 49.078125 51.53125 44.71875 
Q 48 40.375 41.703125 38.8125 
Q 48.828125 37.15625 52.796875 32.3125 
Q 56.78125 27.484375 56.78125 20.515625 
Q 56.78125 9.90625 50.3125 4.234375 
Q 43.84375 -1.421875 31.78125 -1.421875 
Q 19.734375 -1.421875 13.25 4.234375 
Q 6.78125 9.90625 6.78125 20.515625 
Q 6.78125 27.484375 10.78125 32.3125 
Q 14.796875 37.15625 21.921875 38.8125 
z
M 18.3125 54.390625 
Q 18.3125 48.734375 21.84375 45.5625 
Q 25.390625 42.390625 31.78125 42.390625 
Q 38.140625 42.390625 41.71875 45.5625 
Q 45.3125 48.734375 45.3125 54.390625 
Q 45.3125 60.0625 41.71875 63.234375 
Q 38.140625 66.40625 31.78125 66.40625 
Q 25.390625 66.40625 21.84375 63.234375 
Q 18.3125 60.0625 18.3125 54.390625 
z
" id="DejaVuSans-56"/>
       </defs>
       <use xlink:href="#DejaVuSans-56"/>
       <use x="63.623047" xlink:href="#DejaVuSans-48"/>
      </g>
     </g>
    </g>
    <g id="xtick_6">
     <g id="line2d_6">
      <g>
       <use style="stroke:#000000;stroke-width:0.8;" x="292.719386" xlink:href="#m37548cc69c" y="307.584"/>
      </g>
     </g>
     <g id="text_6">
      <!-- 100 -->
      <g transform="translate(283.175636 322.182437)scale(0.1 -0.1)">
       <defs>
        <path d="M 12.40625 8.296875 
L 28.515625 8.296875 
L 28.515625 63.921875 
L 10.984375 60.40625 
L 10.984375 69.390625 
L 28.421875 72.90625 
L 38.28125 72.90625 
L 38.28125 8.296875 
L 54.390625 8.296875 
L 54.390625 0 
L 12.40625 0 
z
" id="DejaVuSans-49"/>
       </defs>
       <use xlink:href="#DejaVuSans-49"/>
       <use x="63.623047" xlink:href="#DejaVuSans-48"/>
       <use x="127.246094" xlink:href="#DejaVuSans-48"/>
      </g>
     </g>
    </g>
    <g id="xtick_7">
     <g id="line2d_7">
      <g>
       <use style="stroke:#000000;stroke-width:0.8;" x="333.975288" xlink:href="#m37548cc69c" y="307.584"/>
      </g>
     </g>
     <g id="text_7">
      <!-- 120 -->
      <g transform="translate(324.431538 322.182437)scale(0.1 -0.1)">
       <use xlink:href="#DejaVuSans-49"/>
       <use x="63.623047" xlink:href="#DejaVuSans-50"/>
       <use x="127.246094" xlink:href="#DejaVuSans-48"/>
      </g>
     </g>
    </g>
    <g id="xtick_8">
     <g id="line2d_8">
      <g>
       <use style="stroke:#000000;stroke-width:0.8;" x="375.231189" xlink:href="#m37548cc69c" y="307.584"/>
      </g>
     </g>
     <g id="text_8">
      <!-- 140 -->
      <g transform="translate(365.687439 322.182437)scale(0.1 -0.1)">
       <use xlink:href="#DejaVuSans-49"/>
       <use x="63.623047" xlink:href="#DejaVuSans-52"/>
       <use x="127.246094" xlink:href="#DejaVuSans-48"/>
      </g>
     </g>
    </g>
   </g>
   <g id="matplotlib.axis_2">
    <g id="ytick_1">
     <g id="line2d_9">
      <defs>
       <path d="M 0 0 
L -3.5 0 
" id="m7afdb98481" style="stroke:#000000;stroke-width:0.8;"/>
      </defs>
      <g>
       <use style="stroke:#000000;stroke-width:0.8;" x="57.6" xlink:href="#m7afdb98481" y="305.736034"/>
      </g>
     </g>
     <g id="text_9">
      <!-- 20 -->
      <g transform="translate(37.875 309.535253)scale(0.1 -0.1)">
       <use xlink:href="#DejaVuSans-50"/>
       <use x="63.623047" xlink:href="#DejaVuSans-48"/>
      </g>
     </g>
    </g>
    <g id="ytick_2">
     <g id="line2d_10">
      <g>
       <use style="stroke:#000000;stroke-width:0.8;" x="57.6" xlink:href="#m7afdb98481" y="264.480133"/>
      </g>
     </g>
     <g id="text_10">
      <!-- 40 -->
      <g transform="translate(37.875 268.279351)scale(0.1 -0.1)">
       <use xlink:href="#DejaVuSans-52"/>
       <use x="63.623047" xlink:href="#DejaVuSans-48"/>
      </g>
     </g>
    </g>
    <g id="ytick_3">
     <g id="line2d_11">
      <g>
       <use style="stroke:#000000;stroke-width:0.8;" x="57.6" xlink:href="#m7afdb98481" y="223.224231"/>
      </g>
     </g>
     <g id="text_11">
      <!-- 60 -->
      <g transform="translate(37.875 227.02345)scale(0.1 -0.1)">
       <use xlink:href="#DejaVuSans-54"/>
       <use x="63.623047" xlink:href="#DejaVuSans-48"/>
      </g>
     </g>
    </g>
    <g id="ytick_4">
     <g id="line2d_12">
      <g>
       <use style="stroke:#000000;stroke-width:0.8;" x="57.6" xlink:href="#m7afdb98481" y="181.96833"/>
      </g>
     </g>
     <g id="text_12">
      <!-- 80 -->
      <g transform="translate(37.875 185.767549)scale(0.1 -0.1)">
       <use xlink:href="#DejaVuSans-56"/>
       <use x="63.623047" xlink:href="#DejaVuSans-48"/>
      </g>
     </g>
    </g>
    <g id="ytick_5">
     <g id="line2d_13">
      <g>
       <use style="stroke:#000000;stroke-width:0.8;" x="57.6" xlink:href="#m7afdb98481" y="140.712429"/>
      </g>
     </g>
     <g id="text_13">
      <!-- 100 -->
      <g transform="translate(31.5125 144.511647)scale(0.1 -0.1)">
       <use xlink:href="#DejaVuSans-49"/>
       <use x="63.623047" xlink:href="#DejaVuSans-48"/>
       <use x="127.246094" xlink:href="#DejaVuSans-48"/>
      </g>
     </g>
    </g>
    <g id="ytick_6">
     <g id="line2d_14">
      <g>
       <use style="stroke:#000000;stroke-width:0.8;" x="57.6" xlink:href="#m7afdb98481" y="99.456527"/>
      </g>
     </g>
     <g id="text_14">
      <!-- 120 -->
      <g transform="translate(31.5125 103.255746)scale(0.1 -0.1)">
       <use xlink:href="#DejaVuSans-49"/>
       <use x="63.623047" xlink:href="#DejaVuSans-50"/>
       <use x="127.246094" xlink:href="#DejaVuSans-48"/>
      </g>
     </g>
    </g>
    <g id="ytick_7">
     <g id="line2d_15">
      <g>
       <use style="stroke:#000000;stroke-width:0.8;" x="57.6" xlink:href="#m7afdb98481" y="58.200626"/>
      </g>
     </g>
     <g id="text_15">
      <!-- 140 -->
      <g transform="translate(31.5125 61.999845)scale(0.1 -0.1)">
       <use xlink:href="#DejaVuSans-49"/>
       <use x="63.623047" xlink:href="#DejaVuSans-52"/>
       <use x="127.246094" xlink:href="#DejaVuSans-48"/>
      </g>
     </g>
    </g>
   </g>
   <g id="line2d_16">
    <path clip-path="url(#p04d94c411d)" d="M 344.289263 295.422059 
L 344.425408 289.225422 
L 344.895725 280.976305 
L 345.780664 266.542928 
L 345.902369 260.346291 
L 345.813669 256.216576 
L 345.543442 252.093048 
L 345.05456 247.990149 
L 344.305765 243.928505 
L 343.228986 239.93906 
L 341.818035 236.056879 
L 340.151296 232.275776 
L 338.296843 228.583373 
L 335.293414 223.16441 
L 328.131389 210.601988 
L 326.266623 206.913711 
L 324.583382 203.140859 
L 323.147676 199.266929 
L 322.025516 195.291923 
L 321.2169 191.240594 
L 320.664071 187.145946 
L 320.30927 183.028607 
L 320.026668 176.838159 
L 319.612046 162.384154 
L 319.323254 158.262689 
L 318.861188 154.155664 
L 318.166026 150.083707 
L 317.175885 146.073633 
L 315.296678 140.167851 
L 313.165811 134.348706 
L 310.789471 128.62445 
L 308.171784 123.007459 
L 305.316876 117.505984 
L 302.216495 112.140654 
L 298.866516 106.927971 
L 295.254562 101.890626 
L 291.393009 97.043057 
L 287.36437 92.335759 
L 283.160394 87.781107 
L 278.764578 83.412107 
L 275.71783 80.621146 
L 272.570004 77.943638 
L 269.314914 75.400211 
L 265.944306 73.013557 
L 262.449932 70.808429 
L 258.827664 68.819895 
L 255.077502 67.08921 
L 251.203573 65.649379 
L 247.243006 64.479774 
L 243.21643 63.549454 
L 239.146536 62.837789 
L 235.047762 62.324153 
L 230.92836 61.994106 
L 226.800707 61.835271 
L 222.668929 61.839397 
L 218.539213 61.996169 
L 214.419811 62.305588 
L 210.312786 62.763529 
L 206.226389 63.374116 
L 202.166809 64.13735 
L 198.144358 65.08211 
L 194.169352 66.206334 
L 190.243853 67.495581 
L 186.371987 68.939537 
L 182.557879 70.527889 
L 176.953265 73.172393 
L 173.300054 75.101106 
L 169.716979 77.159775 
L 166.212291 79.348401 
L 162.794239 81.666983 
L 159.469014 84.121709 
L 156.251053 86.710517 
L 153.198117 89.49529 
L 150.351459 92.490468 
L 147.690454 95.648608 
L 145.186221 98.93464 
L 141.658841 104.029744 
L 137.223832 111.004054 
L 129.544046 123.257057 
L 126.024917 128.358349 
L 124.795491 130.016836 
L 124.795491 130.016836 
" style="fill:none;stroke:#fea952;stroke-linecap:square;"/>
   </g>
   <g id="line2d_17">
    <path clip-path="url(#p04d94c411d)" d="M 336.038346 295.356117 
L 336.183326 288.838044 
L 336.663593 280.415959 
L 337.533964 266.271058 
L 337.651687 260.436958 
L 337.57403 256.65284 
L 337.336879 252.949958 
L 336.916092 249.349306 
L 336.292777 245.896752 
L 335.422083 242.610059 
L 334.21874 239.271331 
L 332.738565 235.899778 
L 331.028745 232.489358 
L 328.152813 227.298875 
L 320.804748 214.397024 
L 318.779473 210.381356 
L 316.899287 206.146962 
L 315.254986 201.672635 
L 313.962955 197.046086 
L 313.056225 192.459343 
L 312.450878 187.936785 
L 312.071934 183.506372 
L 311.778269 177.052403 
L 311.260765 160.972471 
L 310.932337 157.235597 
L 310.43498 153.630113 
L 309.7399 150.203097 
L 308.718058 146.600602 
L 306.866967 141.058775 
L 304.779903 135.59389 
L 302.464332 130.223398 
L 299.926123 124.964084 
L 297.164001 119.827827 
L 294.183147 114.84169 
L 290.982592 110.030637 
L 287.543421 105.40433 
L 283.7987 100.822518 
L 279.917723 96.393876 
L 275.898477 92.153007 
L 271.737138 88.138319 
L 267.418549 84.389139 
L 264.462293 82.073595 
L 261.441724 79.927943 
L 258.3633 77.976513 
L 255.226881 76.243933 
L 252.06426 74.770508 
L 248.738227 73.523644 
L 245.266996 72.490851 
L 241.691852 71.658562 
L 238.025809 71.012503 
L 234.306675 70.541986 
L 230.532759 70.235797 
L 226.734832 70.086188 
L 220.991063 70.141318 
L 215.260415 70.513838 
L 209.560927 71.199598 
L 203.961972 72.190881 
L 200.304224 73.045587 
L 196.664681 74.071148 
L 193.052392 75.254065 
L 189.477542 76.58398 
L 184.192238 78.839465 
L 179.039575 81.378578 
L 174.020224 84.19995 
L 169.189859 87.274355 
L 166.085757 89.466908 
L 163.09295 91.764187 
L 160.373616 94.062908 
L 157.826271 96.550359 
L 155.379407 99.285486 
L 153.03749 102.206479 
L 149.664327 106.903734 
L 146.398041 111.896017 
L 135.193324 129.652378 
L 131.424034 134.930532 
L 131.424034 134.930532 
" style="fill:none;stroke:#ffffff;stroke-linecap:square;"/>
   </g>
   <g id="line2d_18">
    <path clip-path="url(#p04d94c411d)" d="M 352.54018 295.488 
L 352.667489 289.6128 
L 353.127856 281.53665 
L 354.027364 266.814797 
L 354.153051 260.255624 
L 354.053308 255.780311 
L 353.750006 251.236138 
L 353.193028 246.630992 
L 352.318754 241.960259 
L 351.03589 237.26806 
L 349.417329 232.842427 
L 347.564028 228.651774 
L 345.564942 224.677388 
L 342.434014 219.029945 
L 335.458031 206.806953 
L 333.753772 203.446065 
L 332.267477 200.134755 
L 331.040367 196.861224 
L 330.088077 193.53776 
L 329.377576 190.021845 
L 328.877265 186.355106 
L 328.546607 182.550841 
L 328.275066 176.623915 
L 327.847917 161.881765 
L 327.534054 157.447374 
L 327.015562 152.895443 
L 326.21388 148.263261 
L 325.076128 143.692851 
L 323.083981 137.440235 
L 320.829678 131.2914 
L 318.317902 125.247364 
L 315.551864 119.317419 
L 312.521135 113.483469 
L 309.227793 107.790519 
L 305.655012 102.237737 
L 303.105831 98.618787 
L 299.085274 93.412281 
L 294.930865 88.450355 
L 290.570544 83.604912 
L 285.978223 78.905156 
L 282.772085 75.868117 
L 279.442252 72.930569 
L 275.965409 70.097196 
L 272.326975 67.391685 
L 268.514804 64.845034 
L 264.509114 62.489387 
L 260.281933 60.361535 
L 255.887867 58.549498 
L 251.441557 57.082325 
L 246.974333 55.918735 
L 242.50438 55.022559 
L 238.031327 54.35877 
L 233.565839 53.907503 
L 229.10451 53.647372 
L 224.651361 53.568 
L 220.217079 53.657118 
L 215.78644 53.910206 
L 211.377309 54.324173 
L 206.976186 54.900916 
L 202.58538 55.641946 
L 198.171468 56.576435 
L 193.820818 57.707452 
L 189.545669 59.018565 
L 185.343116 60.496093 
L 181.219352 62.128074 
L 177.156855 63.911931 
L 173.171228 65.839032 
L 169.255212 67.909359 
L 165.413735 70.119601 
L 161.646776 72.475406 
L 157.960245 74.980094 
L 154.373078 77.632224 
L 150.807709 80.509551 
L 147.314418 83.710477 
L 144.111783 87.091541 
L 141.18358 90.574894 
L 138.475299 94.134067 
L 134.750679 99.517619 
L 130.202877 106.669521 
L 122.683727 118.672517 
L 119.396375 123.444654 
L 118.166949 125.103141 
L 118.166949 125.103141 
" style="fill:none;stroke:#ffffff;stroke-linecap:square;"/>
   </g>
   <g id="patch_3">
    <path d="M 57.6 307.584 
L 57.6 41.472 
" style="fill:none;stroke:#000000;stroke-linecap:square;stroke-linejoin:miter;stroke-width:0.8;"/>
   </g>
   <g id="patch_4">
    <path d="M 414.72 307.584 
L 414.72 41.472 
" style="fill:none;stroke:#000000;stroke-linecap:square;stroke-linejoin:miter;stroke-width:0.8;"/>
   </g>
   <g id="patch_5">
    <path d="M 57.6 307.584 
L 414.72 307.584 
" style="fill:none;stroke:#000000;stroke-linecap:square;stroke-linejoin:miter;stroke-width:0.8;"/>
   </g>
   <g id="patch_6">
    <path d="M 57.6 41.472 
L 414.72 41.472 
" style="fill:none;stroke:#000000;stroke-linecap:square;stroke-linejoin:miter;stroke-width:0.8;"/>
   </g>
  </g>
 </g>
 <defs>
  <clipPath id="p04d94c411d">
   <rect height="266.112" width="357.12" x="57.6" y="41.472"/>
  </clipPath>
 </defs>
</svg>
