<?xml version="1.0" encoding="utf-8" standalone="no"?>
<!DOCTYPE svg PUBLIC "-//W3C//DTD SVG 1.1//EN"
  "http://www.w3.org/Graphics/SVG/1.1/DTD/svg11.dtd">
<!-- Created with matplotlib (https://matplotlib.org/) -->
<svg height="345.6pt" version="1.1" viewBox="0 0 460.8 345.6" width="460.8pt" xmlns="http://www.w3.org/2000/svg" xmlns:xlink="http://www.w3.org/1999/xlink">
 <metadata>
  <rdf:RDF xmlns:cc="http://creativecommons.org/ns#" xmlns:dc="http://purl.org/dc/elements/1.1/" xmlns:rdf="http://www.w3.org/1999/02/22-rdf-syntax-ns#">
   <cc:Work>
    <dc:type rdf:resource="http://purl.org/dc/dcmitype/StillImage"/>
    <dc:date>2021-07-14T14:24:39.852461</dc:date>
    <dc:format>image/svg+xml</dc:format>
    <dc:creator>
     <cc:Agent>
      <dc:title>Matplotlib v3.3.3, https://matplotlib.org/</dc:title>
     </cc:Agent>
    </dc:creator>
   </cc:Work>
  </rdf:RDF>
 </metadata>
 <defs>
  <style type="text/css">*{stroke-linecap:butt;stroke-linejoin:round;}</style>
 </defs>
 <g id="figure_1">
  <g id="patch_1">
   <path d="M 0 345.6 
L 460.8 345.6 
L 460.8 0 
L 0 0 
z
" style="fill:#ffffff;"/>
  </g>
  <g id="axes_1">
   <g id="patch_2">
    <path d="M 57.6 307.584 
L 414.72 307.584 
L 414.72 41.472 
L 57.6 41.472 
z
" style="fill:#7d9051;"/>
   </g>
   <g id="matplotlib.axis_1">
    <g id="xtick_1">
     <g id="line2d_1">
      <defs>
       <path d="M 0 0 
L 0 3.5 
" id="m948ceb319e" style="stroke:#000000;stroke-width:0.8;"/>
      </defs>
      <g>
       <use style="stroke:#000000;stroke-width:0.8;" x="96.133999" xlink:href="#m948ceb319e" y="307.584"/>
      </g>
     </g>
     <g id="text_1">
      <!-- 20 -->
      <g transform="translate(89.771499 322.182437)scale(0.1 -0.1)">
       <defs>
        <path d="M 19.1875 8.296875 
L 53.609375 8.296875 
L 53.609375 0 
L 7.328125 0 
L 7.328125 8.296875 
Q 12.9375 14.109375 22.625 23.890625 
Q 32.328125 33.6875 34.8125 36.53125 
Q 39.546875 41.84375 41.421875 45.53125 
Q 43.3125 49.21875 43.3125 52.78125 
Q 43.3125 58.59375 39.234375 62.25 
Q 35.15625 65.921875 28.609375 65.921875 
Q 23.96875 65.921875 18.8125 64.3125 
Q 13.671875 62.703125 7.8125 59.421875 
L 7.8125 69.390625 
Q 13.765625 71.78125 18.9375 73 
Q 24.125 74.21875 28.421875 74.21875 
Q 39.75 74.21875 46.484375 68.546875 
Q 53.21875 62.890625 53.21875 53.421875 
Q 53.21875 48.921875 51.53125 44.890625 
Q 49.859375 40.875 45.40625 35.40625 
Q 44.1875 33.984375 37.640625 27.21875 
Q 31.109375 20.453125 19.1875 8.296875 
z
" id="DejaVuSans-50"/>
        <path d="M 31.78125 66.40625 
Q 24.171875 66.40625 20.328125 58.90625 
Q 16.5 51.421875 16.5 36.375 
Q 16.5 21.390625 20.328125 13.890625 
Q 24.171875 6.390625 31.78125 6.390625 
Q 39.453125 6.390625 43.28125 13.890625 
Q 47.125 21.390625 47.125 36.375 
Q 47.125 51.421875 43.28125 58.90625 
Q 39.453125 66.40625 31.78125 66.40625 
z
M 31.78125 74.21875 
Q 44.046875 74.21875 50.515625 64.515625 
Q 56.984375 54.828125 56.984375 36.375 
Q 56.984375 17.96875 50.515625 8.265625 
Q 44.046875 -1.421875 31.78125 -1.421875 
Q 19.53125 -1.421875 13.0625 8.265625 
Q 6.59375 17.96875 6.59375 36.375 
Q 6.59375 54.828125 13.0625 64.515625 
Q 19.53125 74.21875 31.78125 74.21875 
z
" id="DejaVuSans-48"/>
       </defs>
       <use xlink:href="#DejaVuSans-50"/>
       <use x="63.623047" xlink:href="#DejaVuSans-48"/>
      </g>
     </g>
    </g>
    <g id="xtick_2">
     <g id="line2d_2">
      <g>
       <use style="stroke:#000000;stroke-width:0.8;" x="145.605052" xlink:href="#m948ceb319e" y="307.584"/>
      </g>
     </g>
     <g id="text_2">
      <!-- 40 -->
      <g transform="translate(139.242552 322.182437)scale(0.1 -0.1)">
       <defs>
        <path d="M 37.796875 64.3125 
L 12.890625 25.390625 
L 37.796875 25.390625 
z
M 35.203125 72.90625 
L 47.609375 72.90625 
L 47.609375 25.390625 
L 58.015625 25.390625 
L 58.015625 17.1875 
L 47.609375 17.1875 
L 47.609375 0 
L 37.796875 0 
L 37.796875 17.1875 
L 4.890625 17.1875 
L 4.890625 26.703125 
z
" id="DejaVuSans-52"/>
       </defs>
       <use xlink:href="#DejaVuSans-52"/>
       <use x="63.623047" xlink:href="#DejaVuSans-48"/>
      </g>
     </g>
    </g>
    <g id="xtick_3">
     <g id="line2d_3">
      <g>
       <use style="stroke:#000000;stroke-width:0.8;" x="195.076105" xlink:href="#m948ceb319e" y="307.584"/>
      </g>
     </g>
     <g id="text_3">
      <!-- 60 -->
      <g transform="translate(188.713605 322.182437)scale(0.1 -0.1)">
       <defs>
        <path d="M 33.015625 40.375 
Q 26.375 40.375 22.484375 35.828125 
Q 18.609375 31.296875 18.609375 23.390625 
Q 18.609375 15.53125 22.484375 10.953125 
Q 26.375 6.390625 33.015625 6.390625 
Q 39.65625 6.390625 43.53125 10.953125 
Q 47.40625 15.53125 47.40625 23.390625 
Q 47.40625 31.296875 43.53125 35.828125 
Q 39.65625 40.375 33.015625 40.375 
z
M 52.59375 71.296875 
L 52.59375 62.3125 
Q 48.875 64.0625 45.09375 64.984375 
Q 41.3125 65.921875 37.59375 65.921875 
Q 27.828125 65.921875 22.671875 59.328125 
Q 17.53125 52.734375 16.796875 39.40625 
Q 19.671875 43.65625 24.015625 45.921875 
Q 28.375 48.1875 33.59375 48.1875 
Q 44.578125 48.1875 50.953125 41.515625 
Q 57.328125 34.859375 57.328125 23.390625 
Q 57.328125 12.15625 50.6875 5.359375 
Q 44.046875 -1.421875 33.015625 -1.421875 
Q 20.359375 -1.421875 13.671875 8.265625 
Q 6.984375 17.96875 6.984375 36.375 
Q 6.984375 53.65625 15.1875 63.9375 
Q 23.390625 74.21875 37.203125 74.21875 
Q 40.921875 74.21875 44.703125 73.484375 
Q 48.484375 72.75 52.59375 71.296875 
z
" id="DejaVuSans-54"/>
       </defs>
       <use xlink:href="#DejaVuSans-54"/>
       <use x="63.623047" xlink:href="#DejaVuSans-48"/>
      </g>
     </g>
    </g>
    <g id="xtick_4">
     <g id="line2d_4">
      <g>
       <use style="stroke:#000000;stroke-width:0.8;" x="244.547159" xlink:href="#m948ceb319e" y="307.584"/>
      </g>
     </g>
     <g id="text_4">
      <!-- 80 -->
      <g transform="translate(238.184659 322.182437)scale(0.1 -0.1)">
       <defs>
        <path d="M 31.78125 34.625 
Q 24.75 34.625 20.71875 30.859375 
Q 16.703125 27.09375 16.703125 20.515625 
Q 16.703125 13.921875 20.71875 10.15625 
Q 24.75 6.390625 31.78125 6.390625 
Q 38.8125 6.390625 42.859375 10.171875 
Q 46.921875 13.96875 46.921875 20.515625 
Q 46.921875 27.09375 42.890625 30.859375 
Q 38.875 34.625 31.78125 34.625 
z
M 21.921875 38.8125 
Q 15.578125 40.375 12.03125 44.71875 
Q 8.5 49.078125 8.5 55.328125 
Q 8.5 64.0625 14.71875 69.140625 
Q 20.953125 74.21875 31.78125 74.21875 
Q 42.671875 74.21875 48.875 69.140625 
Q 55.078125 64.0625 55.078125 55.328125 
Q 55.078125 49.078125 51.53125 44.71875 
Q 48 40.375 41.703125 38.8125 
Q 48.828125 37.15625 52.796875 32.3125 
Q 56.78125 27.484375 56.78125 20.515625 
Q 56.78125 9.90625 50.3125 4.234375 
Q 43.84375 -1.421875 31.78125 -1.421875 
Q 19.734375 -1.421875 13.25 4.234375 
Q 6.78125 9.90625 6.78125 20.515625 
Q 6.78125 27.484375 10.78125 32.3125 
Q 14.796875 37.15625 21.921875 38.8125 
z
M 18.3125 54.390625 
Q 18.3125 48.734375 21.84375 45.5625 
Q 25.390625 42.390625 31.78125 42.390625 
Q 38.140625 42.390625 41.71875 45.5625 
Q 45.3125 48.734375 45.3125 54.390625 
Q 45.3125 60.0625 41.71875 63.234375 
Q 38.140625 66.40625 31.78125 66.40625 
Q 25.390625 66.40625 21.84375 63.234375 
Q 18.3125 60.0625 18.3125 54.390625 
z
" id="DejaVuSans-56"/>
       </defs>
       <use xlink:href="#DejaVuSans-56"/>
       <use x="63.623047" xlink:href="#DejaVuSans-48"/>
      </g>
     </g>
    </g>
    <g id="xtick_5">
     <g id="line2d_5">
      <g>
       <use style="stroke:#000000;stroke-width:0.8;" x="294.018212" xlink:href="#m948ceb319e" y="307.584"/>
      </g>
     </g>
     <g id="text_5">
      <!-- 100 -->
      <g transform="translate(284.474462 322.182437)scale(0.1 -0.1)">
       <defs>
        <path d="M 12.40625 8.296875 
L 28.515625 8.296875 
L 28.515625 63.921875 
L 10.984375 60.40625 
L 10.984375 69.390625 
L 28.421875 72.90625 
L 38.28125 72.90625 
L 38.28125 8.296875 
L 54.390625 8.296875 
L 54.390625 0 
L 12.40625 0 
z
" id="DejaVuSans-49"/>
       </defs>
       <use xlink:href="#DejaVuSans-49"/>
       <use x="63.623047" xlink:href="#DejaVuSans-48"/>
       <use x="127.246094" xlink:href="#DejaVuSans-48"/>
      </g>
     </g>
    </g>
    <g id="xtick_6">
     <g id="line2d_6">
      <g>
       <use style="stroke:#000000;stroke-width:0.8;" x="343.489266" xlink:href="#m948ceb319e" y="307.584"/>
      </g>
     </g>
     <g id="text_6">
      <!-- 120 -->
      <g transform="translate(333.945516 322.182437)scale(0.1 -0.1)">
       <use xlink:href="#DejaVuSans-49"/>
       <use x="63.623047" xlink:href="#DejaVuSans-50"/>
       <use x="127.246094" xlink:href="#DejaVuSans-48"/>
      </g>
     </g>
    </g>
    <g id="xtick_7">
     <g id="line2d_7">
      <g>
       <use style="stroke:#000000;stroke-width:0.8;" x="392.960319" xlink:href="#m948ceb319e" y="307.584"/>
      </g>
     </g>
     <g id="text_7">
      <!-- 140 -->
      <g transform="translate(383.416569 322.182437)scale(0.1 -0.1)">
       <use xlink:href="#DejaVuSans-49"/>
       <use x="63.623047" xlink:href="#DejaVuSans-52"/>
       <use x="127.246094" xlink:href="#DejaVuSans-48"/>
      </g>
     </g>
    </g>
   </g>
   <g id="matplotlib.axis_2">
    <g id="ytick_1">
     <g id="line2d_8">
      <defs>
       <path d="M 0 0 
L -3.5 0 
" id="m177aa44668" style="stroke:#000000;stroke-width:0.8;"/>
      </defs>
      <g>
       <use style="stroke:#000000;stroke-width:0.8;" x="57.6" xlink:href="#m177aa44668" y="258.364961"/>
      </g>
     </g>
     <g id="text_8">
      <!-- 40 -->
      <g transform="translate(37.875 262.16418)scale(0.1 -0.1)">
       <use xlink:href="#DejaVuSans-52"/>
       <use x="63.623047" xlink:href="#DejaVuSans-48"/>
      </g>
     </g>
    </g>
    <g id="ytick_2">
     <g id="line2d_9">
      <g>
       <use style="stroke:#000000;stroke-width:0.8;" x="57.6" xlink:href="#m177aa44668" y="208.893908"/>
      </g>
     </g>
     <g id="text_9">
      <!-- 60 -->
      <g transform="translate(37.875 212.693126)scale(0.1 -0.1)">
       <use xlink:href="#DejaVuSans-54"/>
       <use x="63.623047" xlink:href="#DejaVuSans-48"/>
      </g>
     </g>
    </g>
    <g id="ytick_3">
     <g id="line2d_10">
      <g>
       <use style="stroke:#000000;stroke-width:0.8;" x="57.6" xlink:href="#m177aa44668" y="159.422854"/>
      </g>
     </g>
     <g id="text_10">
      <!-- 80 -->
      <g transform="translate(37.875 163.222073)scale(0.1 -0.1)">
       <use xlink:href="#DejaVuSans-56"/>
       <use x="63.623047" xlink:href="#DejaVuSans-48"/>
      </g>
     </g>
    </g>
    <g id="ytick_4">
     <g id="line2d_11">
      <g>
       <use style="stroke:#000000;stroke-width:0.8;" x="57.6" xlink:href="#m177aa44668" y="109.951801"/>
      </g>
     </g>
     <g id="text_11">
      <!-- 100 -->
      <g transform="translate(31.5125 113.751019)scale(0.1 -0.1)">
       <use xlink:href="#DejaVuSans-49"/>
       <use x="63.623047" xlink:href="#DejaVuSans-48"/>
       <use x="127.246094" xlink:href="#DejaVuSans-48"/>
      </g>
     </g>
    </g>
    <g id="ytick_5">
     <g id="line2d_12">
      <g>
       <use style="stroke:#000000;stroke-width:0.8;" x="57.6" xlink:href="#m177aa44668" y="60.480747"/>
      </g>
     </g>
     <g id="text_12">
      <!-- 120 -->
      <g transform="translate(31.5125 64.279966)scale(0.1 -0.1)">
       <use xlink:href="#DejaVuSans-49"/>
       <use x="63.623047" xlink:href="#DejaVuSans-50"/>
       <use x="127.246094" xlink:href="#DejaVuSans-48"/>
      </g>
     </g>
    </g>
   </g>
   <g id="line2d_13">
    <path clip-path="url(#pbb6e748e77)" d="M 355.857029 295.468251 
L 355.960918 283.078226 
L 356.334425 253.341176 
L 356.220641 243.42965 
L 355.852082 233.525545 
L 355.226273 218.669388 
L 354.635094 206.29173 
L 354.090913 198.878493 
L 353.306796 191.485044 
L 352.606781 186.577515 
L 351.73609 181.699669 
L 350.667516 176.858927 
L 349.376321 172.075076 
L 347.889716 167.348117 
L 346.252224 162.668155 
L 344.47374 158.042612 
L 341.554948 151.205712 
L 338.349223 144.497437 
L 334.873882 137.927681 
L 331.13387 131.501391 
L 327.136609 125.233409 
L 322.882099 119.138575 
L 318.3926 113.211943 
L 313.742321 107.411462 
L 308.909 101.761868 
L 303.862952 96.302737 
L 300.367822 92.790292 
L 296.753962 89.399051 
L 293.011476 86.14633 
L 289.132946 83.061809 
L 285.108476 80.167753 
L 280.930645 77.503737 
L 276.592034 75.109338 
L 272.11243 72.991977 
L 267.526463 71.107129 
L 262.858869 69.444902 
L 258.122016 67.987979 
L 253.325797 66.733888 
L 248.482581 65.680155 
L 243.602262 64.821832 
L 238.689786 64.166341 
L 233.752575 63.721101 
L 228.802996 63.491061 
L 223.845997 63.493534 
L 218.896418 63.745837 
L 213.969101 64.27765 
L 209.081361 65.091449 
L 204.240618 66.160024 
L 199.459241 67.461113 
L 194.739702 68.977401 
L 190.089423 70.691573 
L 185.515824 72.601155 
L 181.023853 74.696254 
L 176.623403 76.97687 
L 172.324368 79.443002 
L 168.14159 82.099597 
L 164.087438 84.951604 
L 160.186645 88.008915 
L 156.473842 91.291319 
L 152.98366 94.808711 
L 149.708676 98.528934 
L 146.631576 102.414886 
L 143.739993 106.439356 
L 141.021559 110.582557 
L 138.461432 114.827173 
L 136.047244 119.15589 
L 132.685686 125.787485 
L 129.61106 132.555125 
L 126.796157 139.436548 
L 125.089406 144.089301 
L 123.644851 148.828628 
L 122.46002 153.642161 
L 121.490387 158.502692 
L 120.696377 163.39538 
L 119.756427 170.76904 
L 118.764532 180.631095 
L 117.552491 192.964228 
L 116.627382 200.340362 
L 115.850687 205.235523 
L 115.850687 205.235523 
" style="fill:none;stroke:#fea952;stroke-linecap:square;"/>
   </g>
   <g id="line2d_14">
    <path clip-path="url(#pbb6e748e77)" d="M 345.962838 295.448502 
L 346.067816 282.930125 
L 346.440259 253.370828 
L 346.330028 243.69643 
L 345.969704 234.009298 
L 345.340352 219.074306 
L 344.761085 206.923667 
L 344.239383 199.796521 
L 343.501461 192.808221 
L 342.469513 185.962489 
L 341.592022 181.514504 
L 340.531771 177.155549 
L 339.24221 172.757098 
L 336.988798 166.144409 
L 334.437023 159.641188 
L 331.591287 153.220895 
L 328.478823 146.924039 
L 325.103 140.745078 
L 321.491498 134.719302 
L 317.629701 128.840875 
L 313.51735 123.12016 
L 309.142137 117.452071 
L 304.633309 111.941041 
L 299.984448 106.633397 
L 295.172366 101.567351 
L 291.865502 98.350788 
L 288.482522 95.285859 
L 285.022596 92.396437 
L 281.469946 89.696472 
L 277.847345 87.226563 
L 274.148118 85.011895 
L 270.264138 83.022471 
L 266.189554 81.219291 
L 261.989612 79.607242 
L 257.689835 78.178215 
L 253.321101 76.933902 
L 248.904187 75.871227 
L 244.425942 74.98815 
L 239.933431 74.289906 
L 235.443664 73.77993 
L 230.933282 73.465803 
L 226.452854 73.354756 
L 222.001907 73.461539 
L 217.634427 73.796541 
L 213.278046 74.387978 
L 208.90556 75.230861 
L 204.548978 76.299857 
L 200.220875 77.579757 
L 195.922031 79.058883 
L 191.69387 80.717295 
L 187.534094 82.548605 
L 183.453214 84.552672 
L 179.476356 86.715611 
L 175.620584 89.034846 
L 171.892534 91.518055 
L 168.326938 94.154988 
L 164.977507 96.924219 
L 161.831057 99.884515 
L 158.835071 103.084001 
L 155.978223 106.498369 
L 153.261125 110.098245 
L 150.686718 113.841229 
L 148.240936 117.726304 
L 145.916684 121.731258 
L 143.7204 125.82208 
L 140.638866 132.118311 
L 137.803657 138.576632 
L 135.244259 145.048917 
L 133.837773 149.195917 
L 132.658797 153.478728 
L 131.672858 157.902146 
L 130.853188 162.453765 
L 129.871008 169.453591 
L 128.847572 179.093698 
L 127.088616 196.650208 
L 126.018146 204.417378 
L 125.610009 206.863722 
L 125.610009 206.863722 
" style="fill:none;stroke:#ffffff;stroke-linecap:square;"/>
   </g>
   <g id="line2d_15">
    <path clip-path="url(#pbb6e748e77)" d="M 365.75122 295.488 
L 365.890809 280.767568 
L 366.228636 255.819675 
L 366.162353 245.7107 
L 365.853645 235.524722 
L 365.010371 215.778585 
L 364.509104 205.659794 
L 363.942442 197.960464 
L 363.112132 190.161867 
L 362.362334 184.92688 
L 361.421095 179.67579 
L 360.251009 174.398834 
L 358.840657 169.190331 
L 357.253248 164.151295 
L 355.51565 159.191901 
L 353.62862 154.289802 
L 351.604722 149.462231 
L 349.445772 144.688663 
L 345.963744 137.658018 
L 342.205841 130.791462 
L 338.169118 124.068547 
L 333.863244 117.524793 
L 330.829339 113.244784 
L 326.173285 107.099959 
L 321.332736 101.06473 
L 316.265763 95.145718 
L 310.93288 89.380922 
L 307.1993 85.633036 
L 303.318122 81.995863 
L 299.260722 78.475454 
L 295.015641 75.106352 
L 290.553392 71.9065 
L 285.857614 68.923504 
L 280.945637 66.224432 
L 275.992071 63.89012 
L 270.952893 61.825158 
L 265.869013 60.019699 
L 260.718671 58.440583 
L 255.527524 57.087759 
L 250.289869 55.952405 
L 245.004279 55.027459 
L 239.687005 54.322512 
L 234.325476 53.843491 
L 228.921481 53.597559 
L 223.470663 53.606445 
L 217.977477 53.894392 
L 212.477237 54.496559 
L 207.066943 55.404472 
L 201.752749 56.583704 
L 196.535615 58.008715 
L 191.41317 59.659161 
L 186.365469 61.524917 
L 181.426037 63.591769 
L 176.559564 65.866445 
L 171.792367 68.342259 
L 167.119565 71.028406 
L 162.553427 73.93456 
L 158.092606 77.080301 
L 153.754904 80.490397 
L 149.557074 84.216454 
L 145.645579 88.171846 
L 142.029037 92.290461 
L 138.658493 96.556102 
L 135.522739 100.928264 
L 132.595411 105.396475 
L 129.859328 109.938491 
L 127.288252 114.55421 
L 124.885245 119.21565 
L 122.620093 123.938736 
L 119.484145 131.094849 
L 116.586887 138.454671 
L 114.827225 143.702224 
L 113.389182 148.97722 
L 112.228078 154.23034 
L 111.296472 159.434413 
L 110.215709 167.162119 
L 109.14652 177.236227 
L 107.452396 194.200619 
L 106.499501 201.160981 
L 106.091364 203.607325 
L 106.091364 203.607325 
" style="fill:none;stroke:#ffffff;stroke-linecap:square;"/>
   </g>
   <g id="patch_3">
    <path d="M 57.6 307.584 
L 57.6 41.472 
" style="fill:none;stroke:#000000;stroke-linecap:square;stroke-linejoin:miter;stroke-width:0.8;"/>
   </g>
   <g id="patch_4">
    <path d="M 414.72 307.584 
L 414.72 41.472 
" style="fill:none;stroke:#000000;stroke-linecap:square;stroke-linejoin:miter;stroke-width:0.8;"/>
   </g>
   <g id="patch_5">
    <path d="M 57.6 307.584 
L 414.72 307.584 
" style="fill:none;stroke:#000000;stroke-linecap:square;stroke-linejoin:miter;stroke-width:0.8;"/>
   </g>
   <g id="patch_6">
    <path d="M 57.6 41.472 
L 414.72 41.472 
" style="fill:none;stroke:#000000;stroke-linecap:square;stroke-linejoin:miter;stroke-width:0.8;"/>
   </g>
  </g>
 </g>
 <defs>
  <clipPath id="pbb6e748e77">
   <rect height="266.112" width="357.12" x="57.6" y="41.472"/>
  </clipPath>
 </defs>
</svg>
