<?xml version="1.0" encoding="utf-8" standalone="no"?>
<!DOCTYPE svg PUBLIC "-//W3C//DTD SVG 1.1//EN"
  "http://www.w3.org/Graphics/SVG/1.1/DTD/svg11.dtd">
<!-- Created with matplotlib (https://matplotlib.org/) -->
<svg height="345.6pt" version="1.1" viewBox="0 0 460.8 345.6" width="460.8pt" xmlns="http://www.w3.org/2000/svg" xmlns:xlink="http://www.w3.org/1999/xlink">
 <metadata>
  <rdf:RDF xmlns:cc="http://creativecommons.org/ns#" xmlns:dc="http://purl.org/dc/elements/1.1/" xmlns:rdf="http://www.w3.org/1999/02/22-rdf-syntax-ns#">
   <cc:Work>
    <dc:type rdf:resource="http://purl.org/dc/dcmitype/StillImage"/>
    <dc:date>2021-07-12T20:27:04.943202</dc:date>
    <dc:format>image/svg+xml</dc:format>
    <dc:creator>
     <cc:Agent>
      <dc:title>Matplotlib v3.3.3, https://matplotlib.org/</dc:title>
     </cc:Agent>
    </dc:creator>
   </cc:Work>
  </rdf:RDF>
 </metadata>
 <defs>
  <style type="text/css">*{stroke-linecap:butt;stroke-linejoin:round;}</style>
 </defs>
 <g id="figure_1">
  <g id="patch_1">
   <path d="M 0 345.6 
L 460.8 345.6 
L 460.8 0 
L 0 0 
z
" style="fill:#ffffff;"/>
  </g>
  <g id="axes_1">
   <g id="patch_2">
    <path d="M 57.6 307.584 
L 414.72 307.584 
L 414.72 41.472 
L 57.6 41.472 
z
" style="fill:#7d9051;"/>
   </g>
   <g id="matplotlib.axis_1">
    <g id="xtick_1">
     <g id="line2d_1">
      <defs>
       <path d="M 0 0 
L 0 3.5 
" id="m2a56314172" style="stroke:#000000;stroke-width:0.8;"/>
      </defs>
      <g>
       <use style="stroke:#000000;stroke-width:0.8;" x="114.877887" xlink:href="#m2a56314172" y="307.584"/>
      </g>
     </g>
     <g id="text_1">
      <!-- 0 -->
      <g transform="translate(111.696637 322.182437)scale(0.1 -0.1)">
       <defs>
        <path d="M 31.78125 66.40625 
Q 24.171875 66.40625 20.328125 58.90625 
Q 16.5 51.421875 16.5 36.375 
Q 16.5 21.390625 20.328125 13.890625 
Q 24.171875 6.390625 31.78125 6.390625 
Q 39.453125 6.390625 43.28125 13.890625 
Q 47.125 21.390625 47.125 36.375 
Q 47.125 51.421875 43.28125 58.90625 
Q 39.453125 66.40625 31.78125 66.40625 
z
M 31.78125 74.21875 
Q 44.046875 74.21875 50.515625 64.515625 
Q 56.984375 54.828125 56.984375 36.375 
Q 56.984375 17.96875 50.515625 8.265625 
Q 44.046875 -1.421875 31.78125 -1.421875 
Q 19.53125 -1.421875 13.0625 8.265625 
Q 6.59375 17.96875 6.59375 36.375 
Q 6.59375 54.828125 13.0625 64.515625 
Q 19.53125 74.21875 31.78125 74.21875 
z
" id="DejaVuSans-48"/>
       </defs>
       <use xlink:href="#DejaVuSans-48"/>
      </g>
     </g>
    </g>
    <g id="xtick_2">
     <g id="line2d_2">
      <g>
       <use style="stroke:#000000;stroke-width:0.8;" x="187.202028" xlink:href="#m2a56314172" y="307.584"/>
      </g>
     </g>
     <g id="text_2">
      <!-- 50 -->
      <g transform="translate(180.839528 322.182437)scale(0.1 -0.1)">
       <defs>
        <path d="M 10.796875 72.90625 
L 49.515625 72.90625 
L 49.515625 64.59375 
L 19.828125 64.59375 
L 19.828125 46.734375 
Q 21.96875 47.46875 24.109375 47.828125 
Q 26.265625 48.1875 28.421875 48.1875 
Q 40.625 48.1875 47.75 41.5 
Q 54.890625 34.8125 54.890625 23.390625 
Q 54.890625 11.625 47.5625 5.09375 
Q 40.234375 -1.421875 26.90625 -1.421875 
Q 22.3125 -1.421875 17.546875 -0.640625 
Q 12.796875 0.140625 7.71875 1.703125 
L 7.71875 11.625 
Q 12.109375 9.234375 16.796875 8.0625 
Q 21.484375 6.890625 26.703125 6.890625 
Q 35.15625 6.890625 40.078125 11.328125 
Q 45.015625 15.765625 45.015625 23.390625 
Q 45.015625 31 40.078125 35.4375 
Q 35.15625 39.890625 26.703125 39.890625 
Q 22.75 39.890625 18.8125 39.015625 
Q 14.890625 38.140625 10.796875 36.28125 
z
" id="DejaVuSans-53"/>
       </defs>
       <use xlink:href="#DejaVuSans-53"/>
       <use x="63.623047" xlink:href="#DejaVuSans-48"/>
      </g>
     </g>
    </g>
    <g id="xtick_3">
     <g id="line2d_3">
      <g>
       <use style="stroke:#000000;stroke-width:0.8;" x="259.526169" xlink:href="#m2a56314172" y="307.584"/>
      </g>
     </g>
     <g id="text_3">
      <!-- 100 -->
      <g transform="translate(249.982419 322.182437)scale(0.1 -0.1)">
       <defs>
        <path d="M 12.40625 8.296875 
L 28.515625 8.296875 
L 28.515625 63.921875 
L 10.984375 60.40625 
L 10.984375 69.390625 
L 28.421875 72.90625 
L 38.28125 72.90625 
L 38.28125 8.296875 
L 54.390625 8.296875 
L 54.390625 0 
L 12.40625 0 
z
" id="DejaVuSans-49"/>
       </defs>
       <use xlink:href="#DejaVuSans-49"/>
       <use x="63.623047" xlink:href="#DejaVuSans-48"/>
       <use x="127.246094" xlink:href="#DejaVuSans-48"/>
      </g>
     </g>
    </g>
    <g id="xtick_4">
     <g id="line2d_4">
      <g>
       <use style="stroke:#000000;stroke-width:0.8;" x="331.85031" xlink:href="#m2a56314172" y="307.584"/>
      </g>
     </g>
     <g id="text_4">
      <!-- 150 -->
      <g transform="translate(322.30656 322.182437)scale(0.1 -0.1)">
       <use xlink:href="#DejaVuSans-49"/>
       <use x="63.623047" xlink:href="#DejaVuSans-53"/>
       <use x="127.246094" xlink:href="#DejaVuSans-48"/>
      </g>
     </g>
    </g>
    <g id="xtick_5">
     <g id="line2d_5">
      <g>
       <use style="stroke:#000000;stroke-width:0.8;" x="404.17445" xlink:href="#m2a56314172" y="307.584"/>
      </g>
     </g>
     <g id="text_5">
      <!-- 200 -->
      <g transform="translate(394.6307 322.182437)scale(0.1 -0.1)">
       <defs>
        <path d="M 19.1875 8.296875 
L 53.609375 8.296875 
L 53.609375 0 
L 7.328125 0 
L 7.328125 8.296875 
Q 12.9375 14.109375 22.625 23.890625 
Q 32.328125 33.6875 34.8125 36.53125 
Q 39.546875 41.84375 41.421875 45.53125 
Q 43.3125 49.21875 43.3125 52.78125 
Q 43.3125 58.59375 39.234375 62.25 
Q 35.15625 65.921875 28.609375 65.921875 
Q 23.96875 65.921875 18.8125 64.3125 
Q 13.671875 62.703125 7.8125 59.421875 
L 7.8125 69.390625 
Q 13.765625 71.78125 18.9375 73 
Q 24.125 74.21875 28.421875 74.21875 
Q 39.75 74.21875 46.484375 68.546875 
Q 53.21875 62.890625 53.21875 53.421875 
Q 53.21875 48.921875 51.53125 44.890625 
Q 49.859375 40.875 45.40625 35.40625 
Q 44.1875 33.984375 37.640625 27.21875 
Q 31.109375 20.453125 19.1875 8.296875 
z
" id="DejaVuSans-50"/>
       </defs>
       <use xlink:href="#DejaVuSans-50"/>
       <use x="63.623047" xlink:href="#DejaVuSans-48"/>
       <use x="127.246094" xlink:href="#DejaVuSans-48"/>
      </g>
     </g>
    </g>
   </g>
   <g id="matplotlib.axis_2">
    <g id="ytick_1">
     <g id="line2d_6">
      <defs>
       <path d="M 0 0 
L -3.5 0 
" id="md44375aa62" style="stroke:#000000;stroke-width:0.8;"/>
      </defs>
      <g>
       <use style="stroke:#000000;stroke-width:0.8;" x="57.6" xlink:href="#md44375aa62" y="295.435929"/>
      </g>
     </g>
     <g id="text_6">
      <!-- 25 -->
      <g transform="translate(37.875 299.235147)scale(0.1 -0.1)">
       <use xlink:href="#DejaVuSans-50"/>
       <use x="63.623047" xlink:href="#DejaVuSans-53"/>
      </g>
     </g>
    </g>
    <g id="ytick_2">
     <g id="line2d_7">
      <g>
       <use style="stroke:#000000;stroke-width:0.8;" x="57.6" xlink:href="#md44375aa62" y="259.273858"/>
      </g>
     </g>
     <g id="text_7">
      <!-- 50 -->
      <g transform="translate(37.875 263.073077)scale(0.1 -0.1)">
       <use xlink:href="#DejaVuSans-53"/>
       <use x="63.623047" xlink:href="#DejaVuSans-48"/>
      </g>
     </g>
    </g>
    <g id="ytick_3">
     <g id="line2d_8">
      <g>
       <use style="stroke:#000000;stroke-width:0.8;" x="57.6" xlink:href="#md44375aa62" y="223.111788"/>
      </g>
     </g>
     <g id="text_8">
      <!-- 75 -->
      <g transform="translate(37.875 226.911007)scale(0.1 -0.1)">
       <defs>
        <path d="M 8.203125 72.90625 
L 55.078125 72.90625 
L 55.078125 68.703125 
L 28.609375 0 
L 18.3125 0 
L 43.21875 64.59375 
L 8.203125 64.59375 
z
" id="DejaVuSans-55"/>
       </defs>
       <use xlink:href="#DejaVuSans-55"/>
       <use x="63.623047" xlink:href="#DejaVuSans-53"/>
      </g>
     </g>
    </g>
    <g id="ytick_4">
     <g id="line2d_9">
      <g>
       <use style="stroke:#000000;stroke-width:0.8;" x="57.6" xlink:href="#md44375aa62" y="186.949717"/>
      </g>
     </g>
     <g id="text_9">
      <!-- 100 -->
      <g transform="translate(31.5125 190.748936)scale(0.1 -0.1)">
       <use xlink:href="#DejaVuSans-49"/>
       <use x="63.623047" xlink:href="#DejaVuSans-48"/>
       <use x="127.246094" xlink:href="#DejaVuSans-48"/>
      </g>
     </g>
    </g>
    <g id="ytick_5">
     <g id="line2d_10">
      <g>
       <use style="stroke:#000000;stroke-width:0.8;" x="57.6" xlink:href="#md44375aa62" y="150.787647"/>
      </g>
     </g>
     <g id="text_10">
      <!-- 125 -->
      <g transform="translate(31.5125 154.586866)scale(0.1 -0.1)">
       <use xlink:href="#DejaVuSans-49"/>
       <use x="63.623047" xlink:href="#DejaVuSans-50"/>
       <use x="127.246094" xlink:href="#DejaVuSans-53"/>
      </g>
     </g>
    </g>
    <g id="ytick_6">
     <g id="line2d_11">
      <g>
       <use style="stroke:#000000;stroke-width:0.8;" x="57.6" xlink:href="#md44375aa62" y="114.625576"/>
      </g>
     </g>
     <g id="text_11">
      <!-- 150 -->
      <g transform="translate(31.5125 118.424795)scale(0.1 -0.1)">
       <use xlink:href="#DejaVuSans-49"/>
       <use x="63.623047" xlink:href="#DejaVuSans-53"/>
       <use x="127.246094" xlink:href="#DejaVuSans-48"/>
      </g>
     </g>
    </g>
    <g id="ytick_7">
     <g id="line2d_12">
      <g>
       <use style="stroke:#000000;stroke-width:0.8;" x="57.6" xlink:href="#md44375aa62" y="78.463506"/>
      </g>
     </g>
     <g id="text_12">
      <!-- 175 -->
      <g transform="translate(31.5125 82.262725)scale(0.1 -0.1)">
       <use xlink:href="#DejaVuSans-49"/>
       <use x="63.623047" xlink:href="#DejaVuSans-55"/>
       <use x="127.246094" xlink:href="#DejaVuSans-53"/>
      </g>
     </g>
    </g>
    <g id="ytick_8">
     <g id="line2d_13">
      <g>
       <use style="stroke:#000000;stroke-width:0.8;" x="57.6" xlink:href="#md44375aa62" y="42.301435"/>
      </g>
     </g>
     <g id="text_13">
      <!-- 200 -->
      <g transform="translate(31.5125 46.100654)scale(0.1 -0.1)">
       <use xlink:href="#DejaVuSans-50"/>
       <use x="63.623047" xlink:href="#DejaVuSans-48"/>
       <use x="127.246094" xlink:href="#DejaVuSans-48"/>
      </g>
     </g>
    </g>
   </g>
   <g id="line2d_14">
    <path clip-path="url(#p9bec9d102b)" d="M 295.688239 295.435929 
L 295.798172 291.097927 
L 296.28419 283.88287 
L 296.881587 275.224224 
L 296.987181 270.886222 
L 296.8353 266.551113 
L 296.540217 263.672613 
L 296.051306 260.821595 
L 295.33819 258.018311 
L 294.408102 255.280119 
L 293.292864 252.609912 
L 291.35313 248.730445 
L 289.180513 244.973929 
L 286.073468 240.093496 
L 279.772589 230.387596 
L 277.595632 226.633973 
L 275.616844 222.771864 
L 272.563318 216.216404 
L 269.466399 209.681195 
L 267.421072 205.855248 
L 265.919623 203.381762 
L 264.276418 201.000851 
L 262.459636 198.750124 
L 260.450471 196.670082 
L 258.208423 194.843174 
L 255.747956 193.322921 
L 253.145733 192.061588 
L 250.458168 190.992637 
L 246.340031 189.624264 
L 236.67174 186.619919 
L 233.96971 185.587131 
L 231.342897 184.376424 
L 228.839036 182.928495 
L 226.524663 181.194162 
L 224.412798 179.218267 
L 222.473065 177.071686 
L 220.683766 174.799262 
L 218.217512 171.229342 
L 215.169773 166.3113 
L 210.632156 158.913987 
L 208.165903 155.344068 
L 206.38239 153.067304 
L 204.452782 150.912044 
L 202.382865 148.891308 
L 199.100795 146.053309 
L 193.417564 141.579337 
L 188.904538 137.958791 
L 185.683221 135.052807 
L 183.685628 132.961193 
L 181.870292 130.709019 
L 180.309537 128.274588 
L 179.065562 125.663687 
L 178.11233 122.934174 
L 177.406446 120.127997 
L 176.907409 117.278426 
L 176.456107 112.963568 
L 176.253599 108.629905 
L 176.194293 101.397491 
L 176.121969 94.165077 
L 175.497089 75.373819 
L 175.33219 53.678023 
L 175.33219 53.678023 
" style="fill:none;stroke:#fea952;stroke-linecap:square;"/>
   </g>
   <g id="line2d_15">
    <path clip-path="url(#p9bec9d102b)" d="M 289.902542 295.383857 
L 290.020079 290.796864 
L 290.516337 283.425839 
L 291.100289 274.992741 
L 291.201666 270.955649 
L 291.071273 267.054093 
L 290.8207 264.546749 
L 290.41511 262.129378 
L 289.826455 259.778361 
L 289.034804 257.425968 
L 288.055679 255.069363 
L 286.296408 251.542306 
L 284.256257 248.011807 
L 281.241551 243.276196 
L 274.815793 233.372085 
L 272.488159 229.352561 
L 270.401868 225.278062 
L 267.304354 218.628932 
L 264.317012 212.319532 
L 262.43636 208.792874 
L 260.411629 205.54348 
L 258.964847 203.582896 
L 257.418131 201.805615 
L 255.862939 200.326841 
L 254.103244 199.055829 
L 252.05284 197.92448 
L 249.75688 196.915308 
L 245.984297 195.577667 
L 233.177632 191.498159 
L 230.122187 190.214179 
L 227.044539 188.616017 
L 224.039218 186.615703 
L 221.397976 184.363828 
L 219.054368 181.958667 
L 216.963055 179.460444 
L 215.07564 176.91265 
L 212.527352 173.073777 
L 207.998341 165.612509 
L 205.067613 160.990184 
L 202.784304 157.823328 
L 201.197322 155.908802 
L 199.453126 154.086192 
L 196.51105 151.425334 
L 192.155999 147.92391 
L 185.131484 142.345255 
L 182.753482 140.247691 
L 180.406505 137.94283 
L 178.160193 135.37884 
L 176.089594 132.489104 
L 175.163708 130.919857 
L 173.651838 127.705401 
L 172.531475 124.460957 
L 171.724789 121.221513 
L 171.169146 118.019594 
L 170.806342 114.874238 
L 170.516921 110.260182 
L 170.409812 104.296243 
L 170.288894 93.020803 
L 169.837362 82.749389 
L 169.688086 72.509782 
L 169.547305 53.788046 
L 169.547305 53.788046 
" style="fill:none;stroke:#ffffff;stroke-linecap:square;"/>
   </g>
   <g id="line2d_16">
    <path clip-path="url(#p9bec9d102b)" d="M 301.473936 295.488 
L 301.576265 291.39899 
L 302.052043 284.339902 
L 302.662886 275.455708 
L 302.772695 270.816796 
L 302.696489 267.653245 
L 302.455639 264.431927 
L 302.005795 261.162198 
L 301.300408 257.868329 
L 300.341927 254.680223 
L 299.174799 251.622992 
L 297.850886 248.70867 
L 295.655853 244.564524 
L 293.30961 240.647886 
L 289.304283 234.485897 
L 284.729385 227.403108 
L 282.703105 223.915386 
L 280.831819 220.265666 
L 277.822283 213.803876 
L 274.615785 207.042858 
L 272.405784 202.917622 
L 270.735589 200.174977 
L 268.852575 197.46026 
L 266.718028 194.833098 
L 264.257665 192.313217 
L 262.8596 191.109752 
L 261.391123 190.011257 
L 258.386293 188.173534 
L 255.368214 186.71953 
L 252.377792 185.534428 
L 248.023291 184.088595 
L 238.667142 181.188955 
L 235.167277 179.800003 
L 233.098339 178.753994 
L 231.269514 177.580725 
L 229.493198 176.094888 
L 227.789547 174.368895 
L 226.160506 172.437987 
L 223.84081 169.24229 
L 220.871413 164.562443 
L 215.454333 155.716549 
L 212.769544 151.839286 
L 210.763135 149.287611 
L 208.55561 146.832363 
L 206.254408 144.591522 
L 202.744786 141.559053 
L 196.977392 137.018128 
L 192.677592 133.572327 
L 189.791815 130.978933 
L 188.101431 129.222518 
L 186.644043 127.439722 
L 185.455366 125.62932 
L 184.479286 123.621973 
L 183.693184 121.407391 
L 183.088103 119.034481 
L 182.645673 116.537258 
L 182.230905 112.604813 
L 182.038255 108.508427 
L 181.980222 101.391705 
L 181.903719 93.945151 
L 181.282786 75.321747 
L 181.117075 53.568 
L 181.117075 53.568 
" style="fill:none;stroke:#ffffff;stroke-linecap:square;"/>
   </g>
   <g id="patch_3">
    <path d="M 57.6 307.584 
L 57.6 41.472 
" style="fill:none;stroke:#000000;stroke-linecap:square;stroke-linejoin:miter;stroke-width:0.8;"/>
   </g>
   <g id="patch_4">
    <path d="M 414.72 307.584 
L 414.72 41.472 
" style="fill:none;stroke:#000000;stroke-linecap:square;stroke-linejoin:miter;stroke-width:0.8;"/>
   </g>
   <g id="patch_5">
    <path d="M 57.6 307.584 
L 414.72 307.584 
" style="fill:none;stroke:#000000;stroke-linecap:square;stroke-linejoin:miter;stroke-width:0.8;"/>
   </g>
   <g id="patch_6">
    <path d="M 57.6 41.472 
L 414.72 41.472 
" style="fill:none;stroke:#000000;stroke-linecap:square;stroke-linejoin:miter;stroke-width:0.8;"/>
   </g>
  </g>
 </g>
 <defs>
  <clipPath id="p9bec9d102b">
   <rect height="266.112" width="357.12" x="57.6" y="41.472"/>
  </clipPath>
 </defs>
</svg>
