<?xml version="1.0" encoding="utf-8" standalone="no"?>
<!DOCTYPE svg PUBLIC "-//W3C//DTD SVG 1.1//EN"
  "http://www.w3.org/Graphics/SVG/1.1/DTD/svg11.dtd">
<!-- Created with matplotlib (https://matplotlib.org/) -->
<svg height="345.6pt" version="1.1" viewBox="0 0 460.8 345.6" width="460.8pt" xmlns="http://www.w3.org/2000/svg" xmlns:xlink="http://www.w3.org/1999/xlink">
 <metadata>
  <rdf:RDF xmlns:cc="http://creativecommons.org/ns#" xmlns:dc="http://purl.org/dc/elements/1.1/" xmlns:rdf="http://www.w3.org/1999/02/22-rdf-syntax-ns#">
   <cc:Work>
    <dc:type rdf:resource="http://purl.org/dc/dcmitype/StillImage"/>
    <dc:date>2021-07-12T19:31:33.399400</dc:date>
    <dc:format>image/svg+xml</dc:format>
    <dc:creator>
     <cc:Agent>
      <dc:title>Matplotlib v3.3.3, https://matplotlib.org/</dc:title>
     </cc:Agent>
    </dc:creator>
   </cc:Work>
  </rdf:RDF>
 </metadata>
 <defs>
  <style type="text/css">*{stroke-linecap:butt;stroke-linejoin:round;}</style>
 </defs>
 <g id="figure_1">
  <g id="patch_1">
   <path d="M 0 345.6 
L 460.8 345.6 
L 460.8 0 
L 0 0 
z
" style="fill:#ffffff;"/>
  </g>
  <g id="axes_1">
   <g id="patch_2">
    <path d="M 57.6 307.584 
L 414.72 307.584 
L 414.72 41.472 
L 57.6 41.472 
z
" style="fill:#7d9051;"/>
   </g>
   <g id="matplotlib.axis_1">
    <g id="xtick_1">
     <g id="line2d_1">
      <defs>
       <path d="M 0 0 
L 0 3.5 
" id="me93e0bf720" style="stroke:#000000;stroke-width:0.8;"/>
      </defs>
      <g>
       <use style="stroke:#000000;stroke-width:0.8;" x="101.934529" xlink:href="#me93e0bf720" y="307.584"/>
      </g>
     </g>
     <g id="text_1">
      <!-- 80 -->
      <g transform="translate(95.572029 322.182437)scale(0.1 -0.1)">
       <defs>
        <path d="M 31.78125 34.625 
Q 24.75 34.625 20.71875 30.859375 
Q 16.703125 27.09375 16.703125 20.515625 
Q 16.703125 13.921875 20.71875 10.15625 
Q 24.75 6.390625 31.78125 6.390625 
Q 38.8125 6.390625 42.859375 10.171875 
Q 46.921875 13.96875 46.921875 20.515625 
Q 46.921875 27.09375 42.890625 30.859375 
Q 38.875 34.625 31.78125 34.625 
z
M 21.921875 38.8125 
Q 15.578125 40.375 12.03125 44.71875 
Q 8.5 49.078125 8.5 55.328125 
Q 8.5 64.0625 14.71875 69.140625 
Q 20.953125 74.21875 31.78125 74.21875 
Q 42.671875 74.21875 48.875 69.140625 
Q 55.078125 64.0625 55.078125 55.328125 
Q 55.078125 49.078125 51.53125 44.71875 
Q 48 40.375 41.703125 38.8125 
Q 48.828125 37.15625 52.796875 32.3125 
Q 56.78125 27.484375 56.78125 20.515625 
Q 56.78125 9.90625 50.3125 4.234375 
Q 43.84375 -1.421875 31.78125 -1.421875 
Q 19.734375 -1.421875 13.25 4.234375 
Q 6.78125 9.90625 6.78125 20.515625 
Q 6.78125 27.484375 10.78125 32.3125 
Q 14.796875 37.15625 21.921875 38.8125 
z
M 18.3125 54.390625 
Q 18.3125 48.734375 21.84375 45.5625 
Q 25.390625 42.390625 31.78125 42.390625 
Q 38.140625 42.390625 41.71875 45.5625 
Q 45.3125 48.734375 45.3125 54.390625 
Q 45.3125 60.0625 41.71875 63.234375 
Q 38.140625 66.40625 31.78125 66.40625 
Q 25.390625 66.40625 21.84375 63.234375 
Q 18.3125 60.0625 18.3125 54.390625 
z
" id="DejaVuSans-56"/>
        <path d="M 31.78125 66.40625 
Q 24.171875 66.40625 20.328125 58.90625 
Q 16.5 51.421875 16.5 36.375 
Q 16.5 21.390625 20.328125 13.890625 
Q 24.171875 6.390625 31.78125 6.390625 
Q 39.453125 6.390625 43.28125 13.890625 
Q 47.125 21.390625 47.125 36.375 
Q 47.125 51.421875 43.28125 58.90625 
Q 39.453125 66.40625 31.78125 66.40625 
z
M 31.78125 74.21875 
Q 44.046875 74.21875 50.515625 64.515625 
Q 56.984375 54.828125 56.984375 36.375 
Q 56.984375 17.96875 50.515625 8.265625 
Q 44.046875 -1.421875 31.78125 -1.421875 
Q 19.53125 -1.421875 13.0625 8.265625 
Q 6.59375 17.96875 6.59375 36.375 
Q 6.59375 54.828125 13.0625 64.515625 
Q 19.53125 74.21875 31.78125 74.21875 
z
" id="DejaVuSans-48"/>
       </defs>
       <use xlink:href="#DejaVuSans-56"/>
       <use x="63.623047" xlink:href="#DejaVuSans-48"/>
      </g>
     </g>
    </g>
    <g id="xtick_2">
     <g id="line2d_2">
      <g>
       <use style="stroke:#000000;stroke-width:0.8;" x="149.073551" xlink:href="#me93e0bf720" y="307.584"/>
      </g>
     </g>
     <g id="text_2">
      <!-- 90 -->
      <g transform="translate(142.711051 322.182437)scale(0.1 -0.1)">
       <defs>
        <path d="M 10.984375 1.515625 
L 10.984375 10.5 
Q 14.703125 8.734375 18.5 7.8125 
Q 22.3125 6.890625 25.984375 6.890625 
Q 35.75 6.890625 40.890625 13.453125 
Q 46.046875 20.015625 46.78125 33.40625 
Q 43.953125 29.203125 39.59375 26.953125 
Q 35.25 24.703125 29.984375 24.703125 
Q 19.046875 24.703125 12.671875 31.3125 
Q 6.296875 37.9375 6.296875 49.421875 
Q 6.296875 60.640625 12.9375 67.421875 
Q 19.578125 74.21875 30.609375 74.21875 
Q 43.265625 74.21875 49.921875 64.515625 
Q 56.59375 54.828125 56.59375 36.375 
Q 56.59375 19.140625 48.40625 8.859375 
Q 40.234375 -1.421875 26.421875 -1.421875 
Q 22.703125 -1.421875 18.890625 -0.6875 
Q 15.09375 0.046875 10.984375 1.515625 
z
M 30.609375 32.421875 
Q 37.25 32.421875 41.125 36.953125 
Q 45.015625 41.5 45.015625 49.421875 
Q 45.015625 57.28125 41.125 61.84375 
Q 37.25 66.40625 30.609375 66.40625 
Q 23.96875 66.40625 20.09375 61.84375 
Q 16.21875 57.28125 16.21875 49.421875 
Q 16.21875 41.5 20.09375 36.953125 
Q 23.96875 32.421875 30.609375 32.421875 
z
" id="DejaVuSans-57"/>
       </defs>
       <use xlink:href="#DejaVuSans-57"/>
       <use x="63.623047" xlink:href="#DejaVuSans-48"/>
      </g>
     </g>
    </g>
    <g id="xtick_3">
     <g id="line2d_3">
      <g>
       <use style="stroke:#000000;stroke-width:0.8;" x="196.212573" xlink:href="#me93e0bf720" y="307.584"/>
      </g>
     </g>
     <g id="text_3">
      <!-- 100 -->
      <g transform="translate(186.668823 322.182437)scale(0.1 -0.1)">
       <defs>
        <path d="M 12.40625 8.296875 
L 28.515625 8.296875 
L 28.515625 63.921875 
L 10.984375 60.40625 
L 10.984375 69.390625 
L 28.421875 72.90625 
L 38.28125 72.90625 
L 38.28125 8.296875 
L 54.390625 8.296875 
L 54.390625 0 
L 12.40625 0 
z
" id="DejaVuSans-49"/>
       </defs>
       <use xlink:href="#DejaVuSans-49"/>
       <use x="63.623047" xlink:href="#DejaVuSans-48"/>
       <use x="127.246094" xlink:href="#DejaVuSans-48"/>
      </g>
     </g>
    </g>
    <g id="xtick_4">
     <g id="line2d_4">
      <g>
       <use style="stroke:#000000;stroke-width:0.8;" x="243.351595" xlink:href="#me93e0bf720" y="307.584"/>
      </g>
     </g>
     <g id="text_4">
      <!-- 110 -->
      <g transform="translate(233.807845 322.182437)scale(0.1 -0.1)">
       <use xlink:href="#DejaVuSans-49"/>
       <use x="63.623047" xlink:href="#DejaVuSans-49"/>
       <use x="127.246094" xlink:href="#DejaVuSans-48"/>
      </g>
     </g>
    </g>
    <g id="xtick_5">
     <g id="line2d_5">
      <g>
       <use style="stroke:#000000;stroke-width:0.8;" x="290.490617" xlink:href="#me93e0bf720" y="307.584"/>
      </g>
     </g>
     <g id="text_5">
      <!-- 120 -->
      <g transform="translate(280.946867 322.182437)scale(0.1 -0.1)">
       <defs>
        <path d="M 19.1875 8.296875 
L 53.609375 8.296875 
L 53.609375 0 
L 7.328125 0 
L 7.328125 8.296875 
Q 12.9375 14.109375 22.625 23.890625 
Q 32.328125 33.6875 34.8125 36.53125 
Q 39.546875 41.84375 41.421875 45.53125 
Q 43.3125 49.21875 43.3125 52.78125 
Q 43.3125 58.59375 39.234375 62.25 
Q 35.15625 65.921875 28.609375 65.921875 
Q 23.96875 65.921875 18.8125 64.3125 
Q 13.671875 62.703125 7.8125 59.421875 
L 7.8125 69.390625 
Q 13.765625 71.78125 18.9375 73 
Q 24.125 74.21875 28.421875 74.21875 
Q 39.75 74.21875 46.484375 68.546875 
Q 53.21875 62.890625 53.21875 53.421875 
Q 53.21875 48.921875 51.53125 44.890625 
Q 49.859375 40.875 45.40625 35.40625 
Q 44.1875 33.984375 37.640625 27.21875 
Q 31.109375 20.453125 19.1875 8.296875 
z
" id="DejaVuSans-50"/>
       </defs>
       <use xlink:href="#DejaVuSans-49"/>
       <use x="63.623047" xlink:href="#DejaVuSans-50"/>
       <use x="127.246094" xlink:href="#DejaVuSans-48"/>
      </g>
     </g>
    </g>
    <g id="xtick_6">
     <g id="line2d_6">
      <g>
       <use style="stroke:#000000;stroke-width:0.8;" x="337.629639" xlink:href="#me93e0bf720" y="307.584"/>
      </g>
     </g>
     <g id="text_6">
      <!-- 130 -->
      <g transform="translate(328.085889 322.182437)scale(0.1 -0.1)">
       <defs>
        <path d="M 40.578125 39.3125 
Q 47.65625 37.796875 51.625 33 
Q 55.609375 28.21875 55.609375 21.1875 
Q 55.609375 10.40625 48.1875 4.484375 
Q 40.765625 -1.421875 27.09375 -1.421875 
Q 22.515625 -1.421875 17.65625 -0.515625 
Q 12.796875 0.390625 7.625 2.203125 
L 7.625 11.71875 
Q 11.71875 9.328125 16.59375 8.109375 
Q 21.484375 6.890625 26.8125 6.890625 
Q 36.078125 6.890625 40.9375 10.546875 
Q 45.796875 14.203125 45.796875 21.1875 
Q 45.796875 27.640625 41.28125 31.265625 
Q 36.765625 34.90625 28.71875 34.90625 
L 20.21875 34.90625 
L 20.21875 43.015625 
L 29.109375 43.015625 
Q 36.375 43.015625 40.234375 45.921875 
Q 44.09375 48.828125 44.09375 54.296875 
Q 44.09375 59.90625 40.109375 62.90625 
Q 36.140625 65.921875 28.71875 65.921875 
Q 24.65625 65.921875 20.015625 65.03125 
Q 15.375 64.15625 9.8125 62.3125 
L 9.8125 71.09375 
Q 15.4375 72.65625 20.34375 73.4375 
Q 25.25 74.21875 29.59375 74.21875 
Q 40.828125 74.21875 47.359375 69.109375 
Q 53.90625 64.015625 53.90625 55.328125 
Q 53.90625 49.265625 50.4375 45.09375 
Q 46.96875 40.921875 40.578125 39.3125 
z
" id="DejaVuSans-51"/>
       </defs>
       <use xlink:href="#DejaVuSans-49"/>
       <use x="63.623047" xlink:href="#DejaVuSans-51"/>
       <use x="127.246094" xlink:href="#DejaVuSans-48"/>
      </g>
     </g>
    </g>
    <g id="xtick_7">
     <g id="line2d_7">
      <g>
       <use style="stroke:#000000;stroke-width:0.8;" x="384.768661" xlink:href="#me93e0bf720" y="307.584"/>
      </g>
     </g>
     <g id="text_7">
      <!-- 140 -->
      <g transform="translate(375.224911 322.182437)scale(0.1 -0.1)">
       <defs>
        <path d="M 37.796875 64.3125 
L 12.890625 25.390625 
L 37.796875 25.390625 
z
M 35.203125 72.90625 
L 47.609375 72.90625 
L 47.609375 25.390625 
L 58.015625 25.390625 
L 58.015625 17.1875 
L 47.609375 17.1875 
L 47.609375 0 
L 37.796875 0 
L 37.796875 17.1875 
L 4.890625 17.1875 
L 4.890625 26.703125 
z
" id="DejaVuSans-52"/>
       </defs>
       <use xlink:href="#DejaVuSans-49"/>
       <use x="63.623047" xlink:href="#DejaVuSans-52"/>
       <use x="127.246094" xlink:href="#DejaVuSans-48"/>
      </g>
     </g>
    </g>
   </g>
   <g id="matplotlib.axis_2">
    <g id="ytick_1">
     <g id="line2d_8">
      <defs>
       <path d="M 0 0 
L -3.5 0 
" id="m8125af681a" style="stroke:#000000;stroke-width:0.8;"/>
      </defs>
      <g>
       <use style="stroke:#000000;stroke-width:0.8;" x="57.6" xlink:href="#m8125af681a" y="296.459563"/>
      </g>
     </g>
     <g id="text_8">
      <!-- 130 -->
      <g transform="translate(31.5125 300.258782)scale(0.1 -0.1)">
       <use xlink:href="#DejaVuSans-49"/>
       <use x="63.623047" xlink:href="#DejaVuSans-51"/>
       <use x="127.246094" xlink:href="#DejaVuSans-48"/>
      </g>
     </g>
    </g>
    <g id="ytick_2">
     <g id="line2d_9">
      <g>
       <use style="stroke:#000000;stroke-width:0.8;" x="57.6" xlink:href="#m8125af681a" y="249.320541"/>
      </g>
     </g>
     <g id="text_9">
      <!-- 140 -->
      <g transform="translate(31.5125 253.11976)scale(0.1 -0.1)">
       <use xlink:href="#DejaVuSans-49"/>
       <use x="63.623047" xlink:href="#DejaVuSans-52"/>
       <use x="127.246094" xlink:href="#DejaVuSans-48"/>
      </g>
     </g>
    </g>
    <g id="ytick_3">
     <g id="line2d_10">
      <g>
       <use style="stroke:#000000;stroke-width:0.8;" x="57.6" xlink:href="#m8125af681a" y="202.181519"/>
      </g>
     </g>
     <g id="text_10">
      <!-- 150 -->
      <g transform="translate(31.5125 205.980738)scale(0.1 -0.1)">
       <defs>
        <path d="M 10.796875 72.90625 
L 49.515625 72.90625 
L 49.515625 64.59375 
L 19.828125 64.59375 
L 19.828125 46.734375 
Q 21.96875 47.46875 24.109375 47.828125 
Q 26.265625 48.1875 28.421875 48.1875 
Q 40.625 48.1875 47.75 41.5 
Q 54.890625 34.8125 54.890625 23.390625 
Q 54.890625 11.625 47.5625 5.09375 
Q 40.234375 -1.421875 26.90625 -1.421875 
Q 22.3125 -1.421875 17.546875 -0.640625 
Q 12.796875 0.140625 7.71875 1.703125 
L 7.71875 11.625 
Q 12.109375 9.234375 16.796875 8.0625 
Q 21.484375 6.890625 26.703125 6.890625 
Q 35.15625 6.890625 40.078125 11.328125 
Q 45.015625 15.765625 45.015625 23.390625 
Q 45.015625 31 40.078125 35.4375 
Q 35.15625 39.890625 26.703125 39.890625 
Q 22.75 39.890625 18.8125 39.015625 
Q 14.890625 38.140625 10.796875 36.28125 
z
" id="DejaVuSans-53"/>
       </defs>
       <use xlink:href="#DejaVuSans-49"/>
       <use x="63.623047" xlink:href="#DejaVuSans-53"/>
       <use x="127.246094" xlink:href="#DejaVuSans-48"/>
      </g>
     </g>
    </g>
    <g id="ytick_4">
     <g id="line2d_11">
      <g>
       <use style="stroke:#000000;stroke-width:0.8;" x="57.6" xlink:href="#m8125af681a" y="155.042497"/>
      </g>
     </g>
     <g id="text_11">
      <!-- 160 -->
      <g transform="translate(31.5125 158.841716)scale(0.1 -0.1)">
       <defs>
        <path d="M 33.015625 40.375 
Q 26.375 40.375 22.484375 35.828125 
Q 18.609375 31.296875 18.609375 23.390625 
Q 18.609375 15.53125 22.484375 10.953125 
Q 26.375 6.390625 33.015625 6.390625 
Q 39.65625 6.390625 43.53125 10.953125 
Q 47.40625 15.53125 47.40625 23.390625 
Q 47.40625 31.296875 43.53125 35.828125 
Q 39.65625 40.375 33.015625 40.375 
z
M 52.59375 71.296875 
L 52.59375 62.3125 
Q 48.875 64.0625 45.09375 64.984375 
Q 41.3125 65.921875 37.59375 65.921875 
Q 27.828125 65.921875 22.671875 59.328125 
Q 17.53125 52.734375 16.796875 39.40625 
Q 19.671875 43.65625 24.015625 45.921875 
Q 28.375 48.1875 33.59375 48.1875 
Q 44.578125 48.1875 50.953125 41.515625 
Q 57.328125 34.859375 57.328125 23.390625 
Q 57.328125 12.15625 50.6875 5.359375 
Q 44.046875 -1.421875 33.015625 -1.421875 
Q 20.359375 -1.421875 13.671875 8.265625 
Q 6.984375 17.96875 6.984375 36.375 
Q 6.984375 53.65625 15.1875 63.9375 
Q 23.390625 74.21875 37.203125 74.21875 
Q 40.921875 74.21875 44.703125 73.484375 
Q 48.484375 72.75 52.59375 71.296875 
z
" id="DejaVuSans-54"/>
       </defs>
       <use xlink:href="#DejaVuSans-49"/>
       <use x="63.623047" xlink:href="#DejaVuSans-54"/>
       <use x="127.246094" xlink:href="#DejaVuSans-48"/>
      </g>
     </g>
    </g>
    <g id="ytick_5">
     <g id="line2d_12">
      <g>
       <use style="stroke:#000000;stroke-width:0.8;" x="57.6" xlink:href="#m8125af681a" y="107.903475"/>
      </g>
     </g>
     <g id="text_12">
      <!-- 170 -->
      <g transform="translate(31.5125 111.702694)scale(0.1 -0.1)">
       <defs>
        <path d="M 8.203125 72.90625 
L 55.078125 72.90625 
L 55.078125 68.703125 
L 28.609375 0 
L 18.3125 0 
L 43.21875 64.59375 
L 8.203125 64.59375 
z
" id="DejaVuSans-55"/>
       </defs>
       <use xlink:href="#DejaVuSans-49"/>
       <use x="63.623047" xlink:href="#DejaVuSans-55"/>
       <use x="127.246094" xlink:href="#DejaVuSans-48"/>
      </g>
     </g>
    </g>
    <g id="ytick_6">
     <g id="line2d_13">
      <g>
       <use style="stroke:#000000;stroke-width:0.8;" x="57.6" xlink:href="#m8125af681a" y="60.764453"/>
      </g>
     </g>
     <g id="text_13">
      <!-- 180 -->
      <g transform="translate(31.5125 64.563672)scale(0.1 -0.1)">
       <use xlink:href="#DejaVuSans-49"/>
       <use x="63.623047" xlink:href="#DejaVuSans-56"/>
       <use x="127.246094" xlink:href="#DejaVuSans-48"/>
      </g>
     </g>
    </g>
   </g>
   <g id="line2d_14">
    <path clip-path="url(#pee88c7135f)" d="M 97.220627 103.189573 
L 103.791807 100.667635 
L 110.28285 98.254117 
L 116.689043 95.949019 
L 123.0151 93.747627 
L 129.26102 91.659368 
L 135.42209 89.674815 
L 141.49831 87.803396 
L 147.499108 86.035683 
L 153.410341 84.376389 
L 159.241438 82.825515 
L 164.992399 81.378347 
L 170.658509 80.044313 
L 176.244483 78.813984 
L 181.745607 77.69679 
L 187.166595 76.683301 
L 192.507446 75.778231 
L 197.763447 74.981582 
L 202.934598 74.293352 
L 208.025612 73.708828 
L 213.03649 73.237438 
L 217.962518 72.869754 
L 222.808409 72.610489 
L 227.569451 72.464358 
L 232.250355 72.421933 
L 236.84641 72.483214 
L 241.362328 72.657628 
L 245.79811 72.940462 
L 250.149042 73.327002 
L 254.415124 73.821962 
L 258.601069 74.430055 
L 262.706878 75.141855 
L 266.727836 75.95736 
L 270.668658 76.885998 
L 274.52463 77.923057 
L 278.300466 79.063821 
L 281.991452 80.317719 
L 285.602301 81.675323 
L 289.128299 83.141347 
L 292.574162 84.71579 
L 295.939888 86.398653 
L 299.220764 88.185222 
L 302.41679 90.084925 
L 305.532679 92.088333 
L 308.568432 94.204875 
L 311.519335 96.425123 
L 314.390101 98.753791 
L 317.176018 101.190878 
L 319.881797 103.731671 
L 322.507441 106.385598 
L 325.048234 109.147945 
L 327.504177 112.013998 
L 329.879984 114.98847 
L 332.175654 118.071362 
L 334.386474 121.262674 
L 336.517158 124.562405 
L 338.562992 127.965843 
L 340.523975 131.482414 
L 342.409536 135.102691 
L 344.210247 138.836101 
L 345.926107 142.673217 
L 347.561831 146.618754 
L 349.112705 150.67271 
L 350.583442 154.830371 
L 351.974044 159.101167 
L 353.279795 163.475668 
L 354.505409 167.963303 
L 355.646173 172.554644 
L 356.706801 177.254404 
L 357.682579 182.062584 
L 358.578221 186.979184 
L 359.389012 191.99949 
L 360.119667 197.13293 
L 360.765471 202.370075 
L 361.331139 207.71564 
L 361.816671 213.169625 
L 362.217353 218.732029 
L 362.537898 224.402854 
L 362.773594 230.182098 
L 362.929152 236.065048 
L 362.999861 242.061131 
L 362.990433 248.160921 
L 362.896155 254.36913 
L 362.721741 260.685759 
L 362.462476 267.110808 
L 362.123075 273.644276 
L 361.703538 280.286164 
L 361.19915 287.031758 
L 360.614626 293.885772 
" style="fill:none;stroke:#fea952;stroke-linecap:square;"/>
   </g>
   <g id="line2d_15">
    <path clip-path="url(#pee88c7135f)" d="M 90.464553 85.585896 
L 97.220415 82.994186 
L 103.898862 80.512114 
L 110.492013 78.140852 
L 117.03624 75.865031 
L 123.479919 73.711865 
L 129.872011 71.654532 
L 136.170201 69.716239 
L 142.403259 67.881721 
L 148.563875 66.154266 
L 154.640074 64.539963 
L 160.67117 63.024575 
L 166.602713 61.630066 
L 172.4918 60.335582 
L 178.280466 59.162314 
L 184.016208 58.092737 
L 189.681784 57.135549 
L 195.275884 56.290782 
L 200.783824 55.560809 
L 206.259598 54.936104 
L 211.63299 54.434136 
L 216.955147 54.041074 
L 222.229945 53.763756 
L 227.398561 53.609524 
L 232.501741 53.568 
L 237.574111 53.641652 
L 242.562162 53.840232 
L 247.466685 54.158826 
L 252.322132 54.597035 
L 257.12583 55.162218 
L 261.821909 55.851568 
L 266.454747 56.662475 
L 271.05263 57.604427 
L 275.565827 58.677436 
L 279.977884 59.873237 
L 284.365641 61.210316 
L 288.627246 62.66835 
L 292.841234 64.264641 
L 296.964376 65.991131 
L 301.006647 67.850821 
L 304.957265 69.839037 
L 308.855015 71.97673 
L 312.614316 74.224772 
L 316.316627 76.620933 
L 319.90489 79.137735 
L 323.397771 81.781464 
L 326.804906 84.562011 
L 330.083292 87.445469 
L 333.28596 90.470359 
L 336.385284 93.620824 
L 339.366142 96.878817 
L 342.237041 100.246385 
L 345.003231 103.72697 
L 347.675291 107.3338 
L 350.226788 111.034357 
L 352.677804 114.848111 
L 355.031161 118.782521 
L 357.24728 122.772359 
L 359.392879 126.91123 
L 361.423235 131.138893 
L 363.344186 135.452102 
L 365.172741 139.881557 
L 366.888892 144.384534 
L 368.512567 148.992522 
L 370.041926 153.708059 
L 371.469239 158.507962 
L 372.804648 163.416675 
L 374.039219 168.403756 
L 375.185721 173.50427 
L 376.232906 178.68333 
L 377.192632 183.972913 
L 378.056481 189.342504 
L 378.833531 194.825279 
L 379.516387 200.385851 
L 380.112473 206.043663 
L 380.62355 211.814892 
L 381.042911 217.667908 
L 381.377846 223.634504 
L 381.622614 229.683686 
L 381.78345 235.842709 
L 381.855447 242.090275 
L 381.843868 248.44723 
L 381.74458 254.889572 
L 381.562017 261.446005 
L 381.292694 268.089001 
L 380.94118 274.832929 
L 380.506656 281.692128 
L 379.986562 288.633986 
L 379.402038 295.488 
" style="fill:none;stroke:#ffffff;stroke-linecap:square;"/>
   </g>
   <g id="line2d_16">
    <path clip-path="url(#pee88c7135f)" d="M 103.976701 120.79325 
L 110.363198 118.341084 
L 116.666838 115.99612 
L 122.886073 113.757186 
L 128.99396 111.630222 
L 135.042121 109.606871 
L 140.97217 107.695098 
L 146.82642 105.890552 
L 152.594957 104.189644 
L 158.256807 102.598512 
L 163.842803 101.111068 
L 169.313628 99.73212 
L 174.714306 98.45856 
L 179.997167 97.292387 
L 185.210748 96.231265 
L 190.316982 95.273864 
L 195.333108 94.420914 
L 200.25101 93.672382 
L 205.085371 93.025895 
L 209.791626 92.481553 
L 214.43999 92.04074 
L 218.969889 91.698434 
L 223.386873 91.457223 
L 227.74034 91.319192 
L 231.99897 91.275866 
L 236.118709 91.324775 
L 240.162494 91.475024 
L 244.129536 91.722098 
L 247.975952 92.056969 
L 251.704418 92.481706 
L 255.380229 93.008542 
L 258.959008 93.621234 
L 262.403042 94.310292 
L 265.77149 95.09456 
L 269.071376 95.972877 
L 272.235291 96.917326 
L 275.355657 97.967088 
L 278.363368 99.086005 
L 281.292223 100.291562 
L 284.141677 101.580759 
L 286.922511 102.958269 
L 289.586513 104.393713 
L 292.219263 105.945077 
L 294.748731 107.555733 
L 297.231974 109.272015 
L 299.640899 111.068782 
L 301.975296 112.94557 
L 304.268744 114.936287 
L 306.477634 116.992984 
L 308.629598 119.150372 
L 310.730327 121.417073 
L 312.771313 123.78161 
L 314.756737 126.24997 
L 316.676018 128.808924 
L 318.546161 131.49099 
L 320.356512 134.276699 
L 322.094823 137.149165 
L 323.80067 140.192468 
L 325.426193 143.294152 
L 326.997258 146.53331 
L 328.508028 149.894333 
L 329.950921 153.355951 
L 331.336518 156.960885 
L 332.654318 160.668221 
L 333.906161 164.494274 
L 335.09035 168.443373 
L 336.20617 172.509931 
L 337.253128 176.705531 
L 338.227882 181.004538 
L 339.132252 185.441838 
L 339.963809 189.985455 
L 340.721542 194.656476 
L 341.405802 199.44058 
L 342.014556 204.354299 
L 342.549806 209.387617 
L 343.009793 214.524358 
L 343.391795 219.796151 
L 343.697951 225.171204 
L 343.924573 230.68051 
L 344.074854 236.287386 
L 344.144275 242.031988 
L 344.136998 247.874612 
L 344.04773 253.848689 
L 343.881464 259.925513 
L 343.632258 266.132615 
L 343.30497 272.455624 
L 342.90042 278.880201 
L 342.411738 285.429531 
L 341.827214 292.283545 
" style="fill:none;stroke:#ffffff;stroke-linecap:square;"/>
   </g>
   <g id="patch_3">
    <path d="M 57.6 307.584 
L 57.6 41.472 
" style="fill:none;stroke:#000000;stroke-linecap:square;stroke-linejoin:miter;stroke-width:0.8;"/>
   </g>
   <g id="patch_4">
    <path d="M 414.72 307.584 
L 414.72 41.472 
" style="fill:none;stroke:#000000;stroke-linecap:square;stroke-linejoin:miter;stroke-width:0.8;"/>
   </g>
   <g id="patch_5">
    <path d="M 57.6 307.584 
L 414.72 307.584 
" style="fill:none;stroke:#000000;stroke-linecap:square;stroke-linejoin:miter;stroke-width:0.8;"/>
   </g>
   <g id="patch_6">
    <path d="M 57.6 41.472 
L 414.72 41.472 
" style="fill:none;stroke:#000000;stroke-linecap:square;stroke-linejoin:miter;stroke-width:0.8;"/>
   </g>
  </g>
 </g>
 <defs>
  <clipPath id="pee88c7135f">
   <rect height="266.112" width="357.12" x="57.6" y="41.472"/>
  </clipPath>
 </defs>
</svg>
