<?xml version="1.0" encoding="utf-8" standalone="no"?>
<!DOCTYPE svg PUBLIC "-//W3C//DTD SVG 1.1//EN"
  "http://www.w3.org/Graphics/SVG/1.1/DTD/svg11.dtd">
<!-- Created with matplotlib (https://matplotlib.org/) -->
<svg height="345.6pt" version="1.1" viewBox="0 0 460.8 345.6" width="460.8pt" xmlns="http://www.w3.org/2000/svg" xmlns:xlink="http://www.w3.org/1999/xlink">
 <metadata>
  <rdf:RDF xmlns:cc="http://creativecommons.org/ns#" xmlns:dc="http://purl.org/dc/elements/1.1/" xmlns:rdf="http://www.w3.org/1999/02/22-rdf-syntax-ns#">
   <cc:Work>
    <dc:type rdf:resource="http://purl.org/dc/dcmitype/StillImage"/>
    <dc:date>2021-07-12T19:11:02.634461</dc:date>
    <dc:format>image/svg+xml</dc:format>
    <dc:creator>
     <cc:Agent>
      <dc:title>Matplotlib v3.3.3, https://matplotlib.org/</dc:title>
     </cc:Agent>
    </dc:creator>
   </cc:Work>
  </rdf:RDF>
 </metadata>
 <defs>
  <style type="text/css">*{stroke-linecap:butt;stroke-linejoin:round;}</style>
 </defs>
 <g id="figure_1">
  <g id="patch_1">
   <path d="M 0 345.6 
L 460.8 345.6 
L 460.8 0 
L 0 0 
z
" style="fill:#ffffff;"/>
  </g>
  <g id="axes_1">
   <g id="patch_2">
    <path d="M 57.6 307.584 
L 414.72 307.584 
L 414.72 41.472 
L 57.6 41.472 
z
" style="fill:#7d9051;"/>
   </g>
   <g id="matplotlib.axis_1">
    <g id="xtick_1">
     <g id="line2d_1">
      <defs>
       <path d="M 0 0 
L 0 3.5 
" id="m209416cba3" style="stroke:#000000;stroke-width:0.8;"/>
      </defs>
      <g>
       <use style="stroke:#000000;stroke-width:0.8;" x="74.035057" xlink:href="#m209416cba3" y="307.584"/>
      </g>
     </g>
     <g id="text_1">
      <!-- 0 -->
      <g transform="translate(70.853807 322.182437)scale(0.1 -0.1)">
       <defs>
        <path d="M 31.78125 66.40625 
Q 24.171875 66.40625 20.328125 58.90625 
Q 16.5 51.421875 16.5 36.375 
Q 16.5 21.390625 20.328125 13.890625 
Q 24.171875 6.390625 31.78125 6.390625 
Q 39.453125 6.390625 43.28125 13.890625 
Q 47.125 21.390625 47.125 36.375 
Q 47.125 51.421875 43.28125 58.90625 
Q 39.453125 66.40625 31.78125 66.40625 
z
M 31.78125 74.21875 
Q 44.046875 74.21875 50.515625 64.515625 
Q 56.984375 54.828125 56.984375 36.375 
Q 56.984375 17.96875 50.515625 8.265625 
Q 44.046875 -1.421875 31.78125 -1.421875 
Q 19.53125 -1.421875 13.0625 8.265625 
Q 6.59375 17.96875 6.59375 36.375 
Q 6.59375 54.828125 13.0625 64.515625 
Q 19.53125 74.21875 31.78125 74.21875 
z
" id="DejaVuSans-48"/>
       </defs>
       <use xlink:href="#DejaVuSans-48"/>
      </g>
     </g>
    </g>
    <g id="xtick_2">
     <g id="line2d_2">
      <g>
       <use style="stroke:#000000;stroke-width:0.8;" x="142.990142" xlink:href="#m209416cba3" y="307.584"/>
      </g>
     </g>
     <g id="text_2">
      <!-- 50 -->
      <g transform="translate(136.627642 322.182437)scale(0.1 -0.1)">
       <defs>
        <path d="M 10.796875 72.90625 
L 49.515625 72.90625 
L 49.515625 64.59375 
L 19.828125 64.59375 
L 19.828125 46.734375 
Q 21.96875 47.46875 24.109375 47.828125 
Q 26.265625 48.1875 28.421875 48.1875 
Q 40.625 48.1875 47.75 41.5 
Q 54.890625 34.8125 54.890625 23.390625 
Q 54.890625 11.625 47.5625 5.09375 
Q 40.234375 -1.421875 26.90625 -1.421875 
Q 22.3125 -1.421875 17.546875 -0.640625 
Q 12.796875 0.140625 7.71875 1.703125 
L 7.71875 11.625 
Q 12.109375 9.234375 16.796875 8.0625 
Q 21.484375 6.890625 26.703125 6.890625 
Q 35.15625 6.890625 40.078125 11.328125 
Q 45.015625 15.765625 45.015625 23.390625 
Q 45.015625 31 40.078125 35.4375 
Q 35.15625 39.890625 26.703125 39.890625 
Q 22.75 39.890625 18.8125 39.015625 
Q 14.890625 38.140625 10.796875 36.28125 
z
" id="DejaVuSans-53"/>
       </defs>
       <use xlink:href="#DejaVuSans-53"/>
       <use x="63.623047" xlink:href="#DejaVuSans-48"/>
      </g>
     </g>
    </g>
    <g id="xtick_3">
     <g id="line2d_3">
      <g>
       <use style="stroke:#000000;stroke-width:0.8;" x="211.945228" xlink:href="#m209416cba3" y="307.584"/>
      </g>
     </g>
     <g id="text_3">
      <!-- 100 -->
      <g transform="translate(202.401478 322.182437)scale(0.1 -0.1)">
       <defs>
        <path d="M 12.40625 8.296875 
L 28.515625 8.296875 
L 28.515625 63.921875 
L 10.984375 60.40625 
L 10.984375 69.390625 
L 28.421875 72.90625 
L 38.28125 72.90625 
L 38.28125 8.296875 
L 54.390625 8.296875 
L 54.390625 0 
L 12.40625 0 
z
" id="DejaVuSans-49"/>
       </defs>
       <use xlink:href="#DejaVuSans-49"/>
       <use x="63.623047" xlink:href="#DejaVuSans-48"/>
       <use x="127.246094" xlink:href="#DejaVuSans-48"/>
      </g>
     </g>
    </g>
    <g id="xtick_4">
     <g id="line2d_4">
      <g>
       <use style="stroke:#000000;stroke-width:0.8;" x="280.900314" xlink:href="#m209416cba3" y="307.584"/>
      </g>
     </g>
     <g id="text_4">
      <!-- 150 -->
      <g transform="translate(271.356564 322.182437)scale(0.1 -0.1)">
       <use xlink:href="#DejaVuSans-49"/>
       <use x="63.623047" xlink:href="#DejaVuSans-53"/>
       <use x="127.246094" xlink:href="#DejaVuSans-48"/>
      </g>
     </g>
    </g>
    <g id="xtick_5">
     <g id="line2d_5">
      <g>
       <use style="stroke:#000000;stroke-width:0.8;" x="349.855399" xlink:href="#m209416cba3" y="307.584"/>
      </g>
     </g>
     <g id="text_5">
      <!-- 200 -->
      <g transform="translate(340.311649 322.182437)scale(0.1 -0.1)">
       <defs>
        <path d="M 19.1875 8.296875 
L 53.609375 8.296875 
L 53.609375 0 
L 7.328125 0 
L 7.328125 8.296875 
Q 12.9375 14.109375 22.625 23.890625 
Q 32.328125 33.6875 34.8125 36.53125 
Q 39.546875 41.84375 41.421875 45.53125 
Q 43.3125 49.21875 43.3125 52.78125 
Q 43.3125 58.59375 39.234375 62.25 
Q 35.15625 65.921875 28.609375 65.921875 
Q 23.96875 65.921875 18.8125 64.3125 
Q 13.671875 62.703125 7.8125 59.421875 
L 7.8125 69.390625 
Q 13.765625 71.78125 18.9375 73 
Q 24.125 74.21875 28.421875 74.21875 
Q 39.75 74.21875 46.484375 68.546875 
Q 53.21875 62.890625 53.21875 53.421875 
Q 53.21875 48.921875 51.53125 44.890625 
Q 49.859375 40.875 45.40625 35.40625 
Q 44.1875 33.984375 37.640625 27.21875 
Q 31.109375 20.453125 19.1875 8.296875 
z
" id="DejaVuSans-50"/>
       </defs>
       <use xlink:href="#DejaVuSans-50"/>
       <use x="63.623047" xlink:href="#DejaVuSans-48"/>
       <use x="127.246094" xlink:href="#DejaVuSans-48"/>
      </g>
     </g>
    </g>
   </g>
   <g id="matplotlib.axis_2">
    <g id="ytick_1">
     <g id="line2d_6">
      <defs>
       <path d="M 0 0 
L -3.5 0 
" id="m640d4d3e5d" style="stroke:#000000;stroke-width:0.8;"/>
      </defs>
      <g>
       <use style="stroke:#000000;stroke-width:0.8;" x="57.6" xlink:href="#m640d4d3e5d" y="307.186571"/>
      </g>
     </g>
     <g id="text_6">
      <!-- 0 -->
      <g transform="translate(44.2375 310.98579)scale(0.1 -0.1)">
       <use xlink:href="#DejaVuSans-48"/>
      </g>
     </g>
    </g>
    <g id="ytick_2">
     <g id="line2d_7">
      <g>
       <use style="stroke:#000000;stroke-width:0.8;" x="57.6" xlink:href="#m640d4d3e5d" y="272.709028"/>
      </g>
     </g>
     <g id="text_7">
      <!-- 25 -->
      <g transform="translate(37.875 276.508247)scale(0.1 -0.1)">
       <use xlink:href="#DejaVuSans-50"/>
       <use x="63.623047" xlink:href="#DejaVuSans-53"/>
      </g>
     </g>
    </g>
    <g id="ytick_3">
     <g id="line2d_8">
      <g>
       <use style="stroke:#000000;stroke-width:0.8;" x="57.6" xlink:href="#m640d4d3e5d" y="238.231485"/>
      </g>
     </g>
     <g id="text_8">
      <!-- 50 -->
      <g transform="translate(37.875 242.030704)scale(0.1 -0.1)">
       <use xlink:href="#DejaVuSans-53"/>
       <use x="63.623047" xlink:href="#DejaVuSans-48"/>
      </g>
     </g>
    </g>
    <g id="ytick_4">
     <g id="line2d_9">
      <g>
       <use style="stroke:#000000;stroke-width:0.8;" x="57.6" xlink:href="#m640d4d3e5d" y="203.753943"/>
      </g>
     </g>
     <g id="text_9">
      <!-- 75 -->
      <g transform="translate(37.875 207.553161)scale(0.1 -0.1)">
       <defs>
        <path d="M 8.203125 72.90625 
L 55.078125 72.90625 
L 55.078125 68.703125 
L 28.609375 0 
L 18.3125 0 
L 43.21875 64.59375 
L 8.203125 64.59375 
z
" id="DejaVuSans-55"/>
       </defs>
       <use xlink:href="#DejaVuSans-55"/>
       <use x="63.623047" xlink:href="#DejaVuSans-53"/>
      </g>
     </g>
    </g>
    <g id="ytick_5">
     <g id="line2d_10">
      <g>
       <use style="stroke:#000000;stroke-width:0.8;" x="57.6" xlink:href="#m640d4d3e5d" y="169.2764"/>
      </g>
     </g>
     <g id="text_10">
      <!-- 100 -->
      <g transform="translate(31.5125 173.075618)scale(0.1 -0.1)">
       <use xlink:href="#DejaVuSans-49"/>
       <use x="63.623047" xlink:href="#DejaVuSans-48"/>
       <use x="127.246094" xlink:href="#DejaVuSans-48"/>
      </g>
     </g>
    </g>
    <g id="ytick_6">
     <g id="line2d_11">
      <g>
       <use style="stroke:#000000;stroke-width:0.8;" x="57.6" xlink:href="#m640d4d3e5d" y="134.798857"/>
      </g>
     </g>
     <g id="text_11">
      <!-- 125 -->
      <g transform="translate(31.5125 138.598076)scale(0.1 -0.1)">
       <use xlink:href="#DejaVuSans-49"/>
       <use x="63.623047" xlink:href="#DejaVuSans-50"/>
       <use x="127.246094" xlink:href="#DejaVuSans-53"/>
      </g>
     </g>
    </g>
    <g id="ytick_7">
     <g id="line2d_12">
      <g>
       <use style="stroke:#000000;stroke-width:0.8;" x="57.6" xlink:href="#m640d4d3e5d" y="100.321314"/>
      </g>
     </g>
     <g id="text_12">
      <!-- 150 -->
      <g transform="translate(31.5125 104.120533)scale(0.1 -0.1)">
       <use xlink:href="#DejaVuSans-49"/>
       <use x="63.623047" xlink:href="#DejaVuSans-53"/>
       <use x="127.246094" xlink:href="#DejaVuSans-48"/>
      </g>
     </g>
    </g>
    <g id="ytick_8">
     <g id="line2d_13">
      <g>
       <use style="stroke:#000000;stroke-width:0.8;" x="57.6" xlink:href="#m640d4d3e5d" y="65.843771"/>
      </g>
     </g>
     <g id="text_13">
      <!-- 175 -->
      <g transform="translate(31.5125 69.64299)scale(0.1 -0.1)">
       <use xlink:href="#DejaVuSans-49"/>
       <use x="63.623047" xlink:href="#DejaVuSans-55"/>
       <use x="127.246094" xlink:href="#DejaVuSans-53"/>
      </g>
     </g>
    </g>
   </g>
   <g id="line2d_14">
    <path clip-path="url(#p08c5598c14)" d="M 140.231939 58.948263 
L 154.367732 62.231904 
L 167.949125 65.583121 
L 180.97612 69.001914 
L 193.450095 72.488283 
L 205.37105 76.042228 
L 216.737607 79.66237 
L 227.551143 83.351468 
L 237.810281 87.108141 
L 247.515019 90.93239 
L 255.180067 94.1719 
L 262.460345 97.45692 
L 269.355853 100.78883 
L 275.867972 104.169008 
L 281.993941 107.594697 
L 287.736521 111.067275 
L 293.094331 114.588121 
L 298.067372 118.154478 
L 302.657022 121.769104 
L 306.050992 124.694179 
L 309.198102 127.649594 
L 312.101111 130.63397 
L 314.755882 133.648686 
L 317.166551 136.693743 
L 319.330362 139.769139 
L 321.247313 142.874877 
L 322.918785 146.009575 
L 324.344776 149.174613 
L 325.523908 152.369992 
L 326.456181 155.595711 
L 327.142973 158.85177 
L 327.584286 162.13679 
L 327.778739 165.452151 
L 327.727712 168.797851 
L 327.431205 172.173892 
L 326.887839 175.578895 
L 326.097614 179.014237 
L 325.061909 182.47992 
L 323.780723 185.975942 
L 322.252679 189.502305 
L 320.479154 193.05763 
L 318.45877 196.643294 
L 316.192906 200.259299 
L 313.680182 203.905644 
L 310.921979 207.58095 
L 307.12807 212.218869 
L 302.949392 216.903677 
L 298.387323 221.633996 
L 293.439106 226.412584 
L 288.107499 231.236681 
L 282.391123 236.109048 
L 276.289977 241.028304 
L 269.804061 245.994449 
L 262.933377 251.006104 
L 254.181597 257.083806 
L 244.876798 263.229083 
L 235.0176 269.440557 
L 224.604003 275.720986 
L 213.637386 282.068991 
L 202.117749 288.484573 
L 198.154211 290.63735 
L 198.154211 290.63735 
" style="fill:none;stroke:#fea952;stroke-linecap:square;"/>
   </g>
   <g id="line2d_15">
    <path clip-path="url(#p08c5598c14)" d="M 141.449936 53.568 
L 155.656449 56.868141 
L 169.316857 60.23896 
L 182.42465 63.679086 
L 194.986516 67.190156 
L 207.003388 70.772862 
L 218.474987 74.426699 
L 229.401054 78.15449 
L 239.781057 81.955783 
L 249.615617 85.831582 
L 257.396553 89.120372 
L 264.805449 92.463802 
L 271.841183 95.864007 
L 278.497572 99.319684 
L 284.782839 102.835201 
L 290.693623 106.410421 
L 296.229882 110.049502 
L 300.395976 113.011336 
L 304.317026 116.013906 
L 308.01036 119.070337 
L 311.455239 122.168551 
L 314.661276 125.31858 
L 317.6242 128.5197 
L 320.335755 131.768649 
L 322.81102 135.084888 
L 325.036123 138.457596 
L 327.000165 141.879447 
L 328.711371 145.366976 
L 330.15374 148.898756 
L 331.332014 152.490331 
L 332.239166 156.131398 
L 332.869721 159.810439 
L 333.222112 163.51577 
L 333.298984 167.256918 
L 333.100659 171.019109 
L 332.629779 174.788401 
L 331.88932 178.574318 
L 330.884524 182.361803 
L 329.617853 186.160531 
L 328.095127 189.959989 
L 326.31803 193.767193 
L 324.28776 197.58778 
L 322.012308 201.407866 
L 319.493798 205.230762 
L 316.729467 209.069704 
L 313.721919 212.921103 
L 310.471918 216.787699 
L 306.066809 221.645793 
L 301.288901 226.52513 
L 296.129522 231.441589 
L 290.595939 236.386186 
L 284.685087 241.366456 
L 278.398916 246.379586 
L 271.730835 251.435634 
L 264.690886 256.523237 
L 257.265583 261.65762 
L 247.856207 267.871697 
L 237.904472 274.141271 
L 227.403814 280.474069 
L 216.354557 286.869796 
L 204.756448 293.328952 
L 200.781366 295.488 
L 200.781366 295.488 
" style="fill:none;stroke:#ffffff;stroke-linecap:square;"/>
   </g>
   <g id="line2d_16">
    <path clip-path="url(#p08c5598c14)" d="M 139.013942 64.328525 
L 153.079014 67.595667 
L 166.581394 70.927282 
L 179.52759 74.324743 
L 191.913674 77.786411 
L 203.738713 81.311595 
L 215.000226 84.898042 
L 225.701232 88.548445 
L 235.839504 92.260498 
L 245.414422 96.033197 
L 252.96358 99.223427 
L 260.11524 102.450038 
L 266.870524 105.713653 
L 273.238371 109.018332 
L 279.205044 112.354192 
L 284.779419 115.724129 
L 289.95878 119.12674 
L 294.73305 122.549139 
L 299.120237 126.002529 
L 303.106341 129.471127 
L 306.699996 132.956708 
L 309.294852 135.754681 
L 311.647359 138.568263 
L 313.745194 141.372477 
L 315.602233 144.178146 
L 317.226614 146.998108 
L 318.61287 149.810316 
L 319.774245 152.638953 
L 320.708755 155.468476 
L 321.423427 158.309187 
L 321.920977 161.169847 
L 322.202972 164.064896 
L 322.269527 166.98481 
L 322.120318 169.944361 
L 321.749947 172.957491 
L 321.158193 176.011918 
L 320.337058 179.125458 
L 319.286839 182.288435 
L 317.998955 185.511363 
L 316.474482 188.784468 
L 314.712223 192.107627 
L 312.701427 195.489211 
L 309.837201 199.79201 
L 306.589268 204.166515 
L 302.951046 208.615646 
L 298.921107 213.134902 
L 294.503557 217.716458 
L 289.686494 222.369238 
L 284.481124 227.079742 
L 278.883438 231.851479 
L 272.896681 236.679017 
L 266.513157 241.567182 
L 259.740679 246.507502 
L 251.097611 252.509992 
L 241.897388 258.586469 
L 232.130727 264.739843 
L 221.804191 270.967903 
L 210.920215 277.268187 
L 199.479051 283.640193 
L 195.527056 285.786701 
L 195.527056 285.786701 
" style="fill:none;stroke:#ffffff;stroke-linecap:square;"/>
   </g>
   <g id="patch_3">
    <path d="M 57.6 307.584 
L 57.6 41.472 
" style="fill:none;stroke:#000000;stroke-linecap:square;stroke-linejoin:miter;stroke-width:0.8;"/>
   </g>
   <g id="patch_4">
    <path d="M 414.72 307.584 
L 414.72 41.472 
" style="fill:none;stroke:#000000;stroke-linecap:square;stroke-linejoin:miter;stroke-width:0.8;"/>
   </g>
   <g id="patch_5">
    <path d="M 57.6 307.584 
L 414.72 307.584 
" style="fill:none;stroke:#000000;stroke-linecap:square;stroke-linejoin:miter;stroke-width:0.8;"/>
   </g>
   <g id="patch_6">
    <path d="M 57.6 41.472 
L 414.72 41.472 
" style="fill:none;stroke:#000000;stroke-linecap:square;stroke-linejoin:miter;stroke-width:0.8;"/>
   </g>
  </g>
 </g>
 <defs>
  <clipPath id="p08c5598c14">
   <rect height="266.112" width="357.12" x="57.6" y="41.472"/>
  </clipPath>
 </defs>
</svg>
