<?xml version="1.0" encoding="utf-8" standalone="no"?>
<!DOCTYPE svg PUBLIC "-//W3C//DTD SVG 1.1//EN"
  "http://www.w3.org/Graphics/SVG/1.1/DTD/svg11.dtd">
<!-- Created with matplotlib (https://matplotlib.org/) -->
<svg height="345.6pt" version="1.1" viewBox="0 0 460.8 345.6" width="460.8pt" xmlns="http://www.w3.org/2000/svg" xmlns:xlink="http://www.w3.org/1999/xlink">
 <metadata>
  <rdf:RDF xmlns:cc="http://creativecommons.org/ns#" xmlns:dc="http://purl.org/dc/elements/1.1/" xmlns:rdf="http://www.w3.org/1999/02/22-rdf-syntax-ns#">
   <cc:Work>
    <dc:type rdf:resource="http://purl.org/dc/dcmitype/StillImage"/>
    <dc:date>2021-07-12T20:00:53.236041</dc:date>
    <dc:format>image/svg+xml</dc:format>
    <dc:creator>
     <cc:Agent>
      <dc:title>Matplotlib v3.3.3, https://matplotlib.org/</dc:title>
     </cc:Agent>
    </dc:creator>
   </cc:Work>
  </rdf:RDF>
 </metadata>
 <defs>
  <style type="text/css">*{stroke-linecap:butt;stroke-linejoin:round;}</style>
 </defs>
 <g id="figure_1">
  <g id="patch_1">
   <path d="M 0 345.6 
L 460.8 345.6 
L 460.8 0 
L 0 0 
z
" style="fill:#ffffff;"/>
  </g>
  <g id="axes_1">
   <g id="patch_2">
    <path d="M 57.6 307.584 
L 414.72 307.584 
L 414.72 41.472 
L 57.6 41.472 
z
" style="fill:#7d9051;"/>
   </g>
   <g id="matplotlib.axis_1">
    <g id="xtick_1">
     <g id="line2d_1">
      <defs>
       <path d="M 0 0 
L 0 3.5 
" id="m20a0283873" style="stroke:#000000;stroke-width:0.8;"/>
      </defs>
      <g>
       <use style="stroke:#000000;stroke-width:0.8;" x="79.329357" xlink:href="#m20a0283873" y="307.584"/>
      </g>
     </g>
     <g id="text_1">
      <!-- 60 -->
      <g transform="translate(72.966857 322.182437)scale(0.1 -0.1)">
       <defs>
        <path d="M 33.015625 40.375 
Q 26.375 40.375 22.484375 35.828125 
Q 18.609375 31.296875 18.609375 23.390625 
Q 18.609375 15.53125 22.484375 10.953125 
Q 26.375 6.390625 33.015625 6.390625 
Q 39.65625 6.390625 43.53125 10.953125 
Q 47.40625 15.53125 47.40625 23.390625 
Q 47.40625 31.296875 43.53125 35.828125 
Q 39.65625 40.375 33.015625 40.375 
z
M 52.59375 71.296875 
L 52.59375 62.3125 
Q 48.875 64.0625 45.09375 64.984375 
Q 41.3125 65.921875 37.59375 65.921875 
Q 27.828125 65.921875 22.671875 59.328125 
Q 17.53125 52.734375 16.796875 39.40625 
Q 19.671875 43.65625 24.015625 45.921875 
Q 28.375 48.1875 33.59375 48.1875 
Q 44.578125 48.1875 50.953125 41.515625 
Q 57.328125 34.859375 57.328125 23.390625 
Q 57.328125 12.15625 50.6875 5.359375 
Q 44.046875 -1.421875 33.015625 -1.421875 
Q 20.359375 -1.421875 13.671875 8.265625 
Q 6.984375 17.96875 6.984375 36.375 
Q 6.984375 53.65625 15.1875 63.9375 
Q 23.390625 74.21875 37.203125 74.21875 
Q 40.921875 74.21875 44.703125 73.484375 
Q 48.484375 72.75 52.59375 71.296875 
z
" id="DejaVuSans-54"/>
        <path d="M 31.78125 66.40625 
Q 24.171875 66.40625 20.328125 58.90625 
Q 16.5 51.421875 16.5 36.375 
Q 16.5 21.390625 20.328125 13.890625 
Q 24.171875 6.390625 31.78125 6.390625 
Q 39.453125 6.390625 43.28125 13.890625 
Q 47.125 21.390625 47.125 36.375 
Q 47.125 51.421875 43.28125 58.90625 
Q 39.453125 66.40625 31.78125 66.40625 
z
M 31.78125 74.21875 
Q 44.046875 74.21875 50.515625 64.515625 
Q 56.984375 54.828125 56.984375 36.375 
Q 56.984375 17.96875 50.515625 8.265625 
Q 44.046875 -1.421875 31.78125 -1.421875 
Q 19.53125 -1.421875 13.0625 8.265625 
Q 6.59375 17.96875 6.59375 36.375 
Q 6.59375 54.828125 13.0625 64.515625 
Q 19.53125 74.21875 31.78125 74.21875 
z
" id="DejaVuSans-48"/>
       </defs>
       <use xlink:href="#DejaVuSans-54"/>
       <use x="63.623047" xlink:href="#DejaVuSans-48"/>
      </g>
     </g>
    </g>
    <g id="xtick_2">
     <g id="line2d_2">
      <g>
       <use style="stroke:#000000;stroke-width:0.8;" x="125.89333" xlink:href="#m20a0283873" y="307.584"/>
      </g>
     </g>
     <g id="text_2">
      <!-- 80 -->
      <g transform="translate(119.53083 322.182437)scale(0.1 -0.1)">
       <defs>
        <path d="M 31.78125 34.625 
Q 24.75 34.625 20.71875 30.859375 
Q 16.703125 27.09375 16.703125 20.515625 
Q 16.703125 13.921875 20.71875 10.15625 
Q 24.75 6.390625 31.78125 6.390625 
Q 38.8125 6.390625 42.859375 10.171875 
Q 46.921875 13.96875 46.921875 20.515625 
Q 46.921875 27.09375 42.890625 30.859375 
Q 38.875 34.625 31.78125 34.625 
z
M 21.921875 38.8125 
Q 15.578125 40.375 12.03125 44.71875 
Q 8.5 49.078125 8.5 55.328125 
Q 8.5 64.0625 14.71875 69.140625 
Q 20.953125 74.21875 31.78125 74.21875 
Q 42.671875 74.21875 48.875 69.140625 
Q 55.078125 64.0625 55.078125 55.328125 
Q 55.078125 49.078125 51.53125 44.71875 
Q 48 40.375 41.703125 38.8125 
Q 48.828125 37.15625 52.796875 32.3125 
Q 56.78125 27.484375 56.78125 20.515625 
Q 56.78125 9.90625 50.3125 4.234375 
Q 43.84375 -1.421875 31.78125 -1.421875 
Q 19.734375 -1.421875 13.25 4.234375 
Q 6.78125 9.90625 6.78125 20.515625 
Q 6.78125 27.484375 10.78125 32.3125 
Q 14.796875 37.15625 21.921875 38.8125 
z
M 18.3125 54.390625 
Q 18.3125 48.734375 21.84375 45.5625 
Q 25.390625 42.390625 31.78125 42.390625 
Q 38.140625 42.390625 41.71875 45.5625 
Q 45.3125 48.734375 45.3125 54.390625 
Q 45.3125 60.0625 41.71875 63.234375 
Q 38.140625 66.40625 31.78125 66.40625 
Q 25.390625 66.40625 21.84375 63.234375 
Q 18.3125 60.0625 18.3125 54.390625 
z
" id="DejaVuSans-56"/>
       </defs>
       <use xlink:href="#DejaVuSans-56"/>
       <use x="63.623047" xlink:href="#DejaVuSans-48"/>
      </g>
     </g>
    </g>
    <g id="xtick_3">
     <g id="line2d_3">
      <g>
       <use style="stroke:#000000;stroke-width:0.8;" x="172.457303" xlink:href="#m20a0283873" y="307.584"/>
      </g>
     </g>
     <g id="text_3">
      <!-- 100 -->
      <g transform="translate(162.913553 322.182437)scale(0.1 -0.1)">
       <defs>
        <path d="M 12.40625 8.296875 
L 28.515625 8.296875 
L 28.515625 63.921875 
L 10.984375 60.40625 
L 10.984375 69.390625 
L 28.421875 72.90625 
L 38.28125 72.90625 
L 38.28125 8.296875 
L 54.390625 8.296875 
L 54.390625 0 
L 12.40625 0 
z
" id="DejaVuSans-49"/>
       </defs>
       <use xlink:href="#DejaVuSans-49"/>
       <use x="63.623047" xlink:href="#DejaVuSans-48"/>
       <use x="127.246094" xlink:href="#DejaVuSans-48"/>
      </g>
     </g>
    </g>
    <g id="xtick_4">
     <g id="line2d_4">
      <g>
       <use style="stroke:#000000;stroke-width:0.8;" x="219.021276" xlink:href="#m20a0283873" y="307.584"/>
      </g>
     </g>
     <g id="text_4">
      <!-- 120 -->
      <g transform="translate(209.477526 322.182437)scale(0.1 -0.1)">
       <defs>
        <path d="M 19.1875 8.296875 
L 53.609375 8.296875 
L 53.609375 0 
L 7.328125 0 
L 7.328125 8.296875 
Q 12.9375 14.109375 22.625 23.890625 
Q 32.328125 33.6875 34.8125 36.53125 
Q 39.546875 41.84375 41.421875 45.53125 
Q 43.3125 49.21875 43.3125 52.78125 
Q 43.3125 58.59375 39.234375 62.25 
Q 35.15625 65.921875 28.609375 65.921875 
Q 23.96875 65.921875 18.8125 64.3125 
Q 13.671875 62.703125 7.8125 59.421875 
L 7.8125 69.390625 
Q 13.765625 71.78125 18.9375 73 
Q 24.125 74.21875 28.421875 74.21875 
Q 39.75 74.21875 46.484375 68.546875 
Q 53.21875 62.890625 53.21875 53.421875 
Q 53.21875 48.921875 51.53125 44.890625 
Q 49.859375 40.875 45.40625 35.40625 
Q 44.1875 33.984375 37.640625 27.21875 
Q 31.109375 20.453125 19.1875 8.296875 
z
" id="DejaVuSans-50"/>
       </defs>
       <use xlink:href="#DejaVuSans-49"/>
       <use x="63.623047" xlink:href="#DejaVuSans-50"/>
       <use x="127.246094" xlink:href="#DejaVuSans-48"/>
      </g>
     </g>
    </g>
    <g id="xtick_5">
     <g id="line2d_5">
      <g>
       <use style="stroke:#000000;stroke-width:0.8;" x="265.585249" xlink:href="#m20a0283873" y="307.584"/>
      </g>
     </g>
     <g id="text_5">
      <!-- 140 -->
      <g transform="translate(256.041499 322.182437)scale(0.1 -0.1)">
       <defs>
        <path d="M 37.796875 64.3125 
L 12.890625 25.390625 
L 37.796875 25.390625 
z
M 35.203125 72.90625 
L 47.609375 72.90625 
L 47.609375 25.390625 
L 58.015625 25.390625 
L 58.015625 17.1875 
L 47.609375 17.1875 
L 47.609375 0 
L 37.796875 0 
L 37.796875 17.1875 
L 4.890625 17.1875 
L 4.890625 26.703125 
z
" id="DejaVuSans-52"/>
       </defs>
       <use xlink:href="#DejaVuSans-49"/>
       <use x="63.623047" xlink:href="#DejaVuSans-52"/>
       <use x="127.246094" xlink:href="#DejaVuSans-48"/>
      </g>
     </g>
    </g>
    <g id="xtick_6">
     <g id="line2d_6">
      <g>
       <use style="stroke:#000000;stroke-width:0.8;" x="312.149222" xlink:href="#m20a0283873" y="307.584"/>
      </g>
     </g>
     <g id="text_6">
      <!-- 160 -->
      <g transform="translate(302.605472 322.182437)scale(0.1 -0.1)">
       <use xlink:href="#DejaVuSans-49"/>
       <use x="63.623047" xlink:href="#DejaVuSans-54"/>
       <use x="127.246094" xlink:href="#DejaVuSans-48"/>
      </g>
     </g>
    </g>
    <g id="xtick_7">
     <g id="line2d_7">
      <g>
       <use style="stroke:#000000;stroke-width:0.8;" x="358.713195" xlink:href="#m20a0283873" y="307.584"/>
      </g>
     </g>
     <g id="text_7">
      <!-- 180 -->
      <g transform="translate(349.169445 322.182437)scale(0.1 -0.1)">
       <use xlink:href="#DejaVuSans-49"/>
       <use x="63.623047" xlink:href="#DejaVuSans-56"/>
       <use x="127.246094" xlink:href="#DejaVuSans-48"/>
      </g>
     </g>
    </g>
    <g id="xtick_8">
     <g id="line2d_8">
      <g>
       <use style="stroke:#000000;stroke-width:0.8;" x="405.277168" xlink:href="#m20a0283873" y="307.584"/>
      </g>
     </g>
     <g id="text_8">
      <!-- 200 -->
      <g transform="translate(395.733418 322.182437)scale(0.1 -0.1)">
       <use xlink:href="#DejaVuSans-50"/>
       <use x="63.623047" xlink:href="#DejaVuSans-48"/>
       <use x="127.246094" xlink:href="#DejaVuSans-48"/>
      </g>
     </g>
    </g>
   </g>
   <g id="matplotlib.axis_2">
    <g id="ytick_1">
     <g id="line2d_9">
      <defs>
       <path d="M 0 0 
L -3.5 0 
" id="m30bf7c6261" style="stroke:#000000;stroke-width:0.8;"/>
      </defs>
      <g>
       <use style="stroke:#000000;stroke-width:0.8;" x="57.6" xlink:href="#m30bf7c6261" y="263.734746"/>
      </g>
     </g>
     <g id="text_9">
      <!-- 20 -->
      <g transform="translate(37.875 267.533965)scale(0.1 -0.1)">
       <use xlink:href="#DejaVuSans-50"/>
       <use x="63.623047" xlink:href="#DejaVuSans-48"/>
      </g>
     </g>
    </g>
    <g id="ytick_2">
     <g id="line2d_10">
      <g>
       <use style="stroke:#000000;stroke-width:0.8;" x="57.6" xlink:href="#m30bf7c6261" y="217.170773"/>
      </g>
     </g>
     <g id="text_10">
      <!-- 40 -->
      <g transform="translate(37.875 220.969992)scale(0.1 -0.1)">
       <use xlink:href="#DejaVuSans-52"/>
       <use x="63.623047" xlink:href="#DejaVuSans-48"/>
      </g>
     </g>
    </g>
    <g id="ytick_3">
     <g id="line2d_11">
      <g>
       <use style="stroke:#000000;stroke-width:0.8;" x="57.6" xlink:href="#m30bf7c6261" y="170.6068"/>
      </g>
     </g>
     <g id="text_11">
      <!-- 60 -->
      <g transform="translate(37.875 174.406019)scale(0.1 -0.1)">
       <use xlink:href="#DejaVuSans-54"/>
       <use x="63.623047" xlink:href="#DejaVuSans-48"/>
      </g>
     </g>
    </g>
    <g id="ytick_4">
     <g id="line2d_12">
      <g>
       <use style="stroke:#000000;stroke-width:0.8;" x="57.6" xlink:href="#m30bf7c6261" y="124.042827"/>
      </g>
     </g>
     <g id="text_12">
      <!-- 80 -->
      <g transform="translate(37.875 127.842046)scale(0.1 -0.1)">
       <use xlink:href="#DejaVuSans-56"/>
       <use x="63.623047" xlink:href="#DejaVuSans-48"/>
      </g>
     </g>
    </g>
    <g id="ytick_5">
     <g id="line2d_13">
      <g>
       <use style="stroke:#000000;stroke-width:0.8;" x="57.6" xlink:href="#m30bf7c6261" y="77.478854"/>
      </g>
     </g>
     <g id="text_13">
      <!-- 100 -->
      <g transform="translate(31.5125 81.278073)scale(0.1 -0.1)">
       <use xlink:href="#DejaVuSans-49"/>
       <use x="63.623047" xlink:href="#DejaVuSans-48"/>
       <use x="127.246094" xlink:href="#DejaVuSans-48"/>
      </g>
     </g>
    </g>
   </g>
   <g id="line2d_14">
    <path clip-path="url(#p2ac677495a)" d="M 74.67296 124.042827 
L 92.479023 138.740745 
L 109.775211 152.740204 
L 126.561523 166.041203 
L 142.835631 178.643742 
L 158.602193 190.547822 
L 173.85655 201.753442 
L 188.601032 212.26293 
L 200.030159 220.167165 
L 211.131011 227.624385 
L 221.905914 234.634591 
L 232.354869 241.197783 
L 242.475549 247.313961 
L 252.270281 252.985453 
L 261.739065 258.207603 
L 270.881901 262.982738 
L 279.696461 267.313187 
L 288.185073 271.194295 
L 296.347738 274.630716 
L 302.254377 276.914679 
L 307.97709 278.947196 
L 313.518203 280.728268 
L 318.873059 282.257895 
L 324.046317 283.536076 
L 329.033318 284.562811 
L 333.83872 285.338101 
L 338.460195 285.861946 
L 342.897741 286.134345 
L 347.15136 286.155299 
L 351.221051 285.924807 
L 355.106815 285.445199 
L 358.810979 284.711816 
L 362.328887 283.726988 
L 365.665196 282.493043 
L 368.815249 281.005324 
L 371.783702 279.268488 
L 374.565899 277.277878 
L 376.321361 275.813441 
L 378.798564 273.403755 
L 381.09184 270.744952 
L 383.203516 267.834704 
L 385.128937 264.67301 
L 386.872757 261.257543 
L 388.43265 257.592958 
L 389.806288 253.676928 
L 390.998325 249.509452 
L 392.006435 245.090531 
L 392.830618 240.420165 
L 393.470872 235.498353 
L 393.929527 230.325096 
L 394.201927 224.900393 
L 394.290398 219.226573 
L 394.19727 213.298979 
L 393.917886 207.11994 
L 393.456903 200.689455 
L 392.55589 191.72589 
L 391.326601 182.315311 
L 389.773693 172.457718 
L 387.89018 162.153111 
L 385.683048 151.40149 
L 383.14764 140.205182 
L 380.288612 128.559533 
L 377.098979 116.466869 
L 373.585728 103.929519 
L 369.7442 90.942827 
L 365.576724 77.511449 
L 361.083301 63.633057 
L 358.713195 56.525066 
L 358.713195 56.525066 
" style="fill:none;stroke:#fea952;stroke-linecap:square;"/>
   </g>
   <g id="line2d_15">
    <path clip-path="url(#p2ac677495a)" d="M 80.628946 116.883611 
L 98.36551 131.524277 
L 115.586787 145.463273 
L 132.294085 158.701865 
L 148.481864 171.237785 
L 164.157397 183.073342 
L 179.307815 194.202822 
L 193.937438 204.630701 
L 205.265089 212.46498 
L 216.255334 219.848174 
L 226.909307 226.780026 
L 237.225612 233.260277 
L 247.200287 239.288689 
L 256.827745 244.864021 
L 266.123699 249.991574 
L 275.070976 254.665299 
L 283.659627 258.885765 
L 291.898678 262.653962 
L 299.783693 265.974946 
L 307.296723 268.843596 
L 314.444455 271.266211 
L 319.561652 272.792131 
L 324.460568 274.069319 
L 329.143417 275.101895 
L 333.601497 275.892252 
L 337.834206 276.445516 
L 341.838619 276.767312 
L 345.614765 276.864506 
L 349.156802 276.745269 
L 352.469123 276.421444 
L 355.558844 275.896887 
L 358.426302 275.185734 
L 361.092369 274.295279 
L 363.561399 273.229811 
L 365.865771 271.987448 
L 368.008824 270.567343 
L 370.025909 268.95083 
L 371.930501 267.114252 
L 373.705552 265.073013 
L 375.373834 262.79246 
L 376.944766 260.229194 
L 378.390168 257.41387 
L 379.708246 254.335212 
L 380.905314 250.938167 
L 381.955931 247.281616 
L 382.862903 243.32306 
L 383.615182 239.077078 
L 384.20569 234.557854 
L 384.634305 229.753269 
L 384.892339 224.656016 
L 384.97777 219.282204 
L 384.890342 213.629465 
L 384.623347 207.702765 
L 384.18076 201.514874 
L 383.309388 192.835098 
L 382.114258 183.679447 
L 380.598309 174.051604 
L 378.751794 163.947002 
L 376.585379 153.391605 
L 374.088805 142.365196 
L 371.270256 130.882763 
L 368.117461 118.928671 
L 364.640875 106.521383 
L 360.835954 93.65784 
L 356.703431 80.338606 
L 352.244928 66.567559 
L 349.882345 59.482133 
L 349.882345 59.482133 
" style="fill:none;stroke:#ffffff;stroke-linecap:square;"/>
   </g>
   <g id="line2d_16">
    <path clip-path="url(#p2ac677495a)" d="M 68.716973 131.202043 
L 86.592536 145.957214 
L 103.963634 160.017135 
L 120.828961 173.38054 
L 137.189399 186.049699 
L 153.046988 198.022301 
L 168.405285 209.304061 
L 183.264627 219.89516 
L 194.79523 227.86935 
L 206.006687 235.400596 
L 216.902521 242.489157 
L 227.484127 249.13529 
L 237.750811 255.339233 
L 247.712817 261.106885 
L 257.35443 266.423631 
L 266.692826 271.300177 
L 275.733294 275.74061 
L 284.471468 279.734627 
L 292.911782 283.286486 
L 299.053992 285.660288 
L 305.035431 287.78319 
L 310.858042 289.653048 
L 316.526715 291.270264 
L 322.046073 292.631523 
L 327.414891 293.733898 
L 332.641272 294.573591 
L 337.724993 295.145675 
L 342.671769 295.444398 
L 347.482063 295.46222 
L 352.155827 295.190569 
L 356.690264 294.62239 
L 359.632474 294.071543 
L 362.512045 293.379919 
L 365.306513 292.550926 
L 368.054172 291.570865 
L 370.703687 290.449352 
L 373.278658 289.178825 
L 375.764572 287.764847 
L 378.144231 286.211022 
L 380.411287 284.527677 
L 382.616814 282.676051 
L 384.680368 280.71623 
L 386.631721 278.633524 
L 388.478128 276.416892 
L 390.200988 274.098062 
L 391.817666 271.653469 
L 393.313107 269.116826 
L 394.703959 266.460984 
L 396.57769 262.304662 
L 398.217279 257.914222 
L 399.620975 253.321366 
L 400.807405 248.500068 
L 401.772592 243.477528 
L 402.528649 238.23857 
L 403.083047 232.781171 
L 403.435367 227.102961 
L 403.59377 221.190215 
L 403.55824 215.063073 
L 403.330899 208.700365 
L 402.914369 202.115454 
L 402.066787 192.972108 
L 400.885879 183.411567 
L 399.37816 173.430025 
L 397.538817 163.016351 
L 395.373324 152.191242 
L 392.88049 140.920045 
L 390.063324 129.232903 
L 386.917956 117.10297 
L 383.447705 104.545027 
L 379.652396 91.544405 
L 375.530635 78.106536 
L 369.921674 60.698554 
L 367.544044 53.568 
L 367.544044 53.568 
" style="fill:none;stroke:#ffffff;stroke-linecap:square;"/>
   </g>
   <g id="patch_3">
    <path d="M 57.6 307.584 
L 57.6 41.472 
" style="fill:none;stroke:#000000;stroke-linecap:square;stroke-linejoin:miter;stroke-width:0.8;"/>
   </g>
   <g id="patch_4">
    <path d="M 414.72 307.584 
L 414.72 41.472 
" style="fill:none;stroke:#000000;stroke-linecap:square;stroke-linejoin:miter;stroke-width:0.8;"/>
   </g>
   <g id="patch_5">
    <path d="M 57.6 307.584 
L 414.72 307.584 
" style="fill:none;stroke:#000000;stroke-linecap:square;stroke-linejoin:miter;stroke-width:0.8;"/>
   </g>
   <g id="patch_6">
    <path d="M 57.6 41.472 
L 414.72 41.472 
" style="fill:none;stroke:#000000;stroke-linecap:square;stroke-linejoin:miter;stroke-width:0.8;"/>
   </g>
  </g>
 </g>
 <defs>
  <clipPath id="p2ac677495a">
   <rect height="266.112" width="357.12" x="57.6" y="41.472"/>
  </clipPath>
 </defs>
</svg>
