<?xml version="1.0" encoding="utf-8" standalone="no"?>
<!DOCTYPE svg PUBLIC "-//W3C//DTD SVG 1.1//EN"
  "http://www.w3.org/Graphics/SVG/1.1/DTD/svg11.dtd">
<!-- Created with matplotlib (https://matplotlib.org/) -->
<svg height="345.6pt" version="1.1" viewBox="0 0 460.8 345.6" width="460.8pt" xmlns="http://www.w3.org/2000/svg" xmlns:xlink="http://www.w3.org/1999/xlink">
 <metadata>
  <rdf:RDF xmlns:cc="http://creativecommons.org/ns#" xmlns:dc="http://purl.org/dc/elements/1.1/" xmlns:rdf="http://www.w3.org/1999/02/22-rdf-syntax-ns#">
   <cc:Work>
    <dc:type rdf:resource="http://purl.org/dc/dcmitype/StillImage"/>
    <dc:date>2021-07-12T19:22:39.876458</dc:date>
    <dc:format>image/svg+xml</dc:format>
    <dc:creator>
     <cc:Agent>
      <dc:title>Matplotlib v3.3.3, https://matplotlib.org/</dc:title>
     </cc:Agent>
    </dc:creator>
   </cc:Work>
  </rdf:RDF>
 </metadata>
 <defs>
  <style type="text/css">*{stroke-linecap:butt;stroke-linejoin:round;}</style>
 </defs>
 <g id="figure_1">
  <g id="patch_1">
   <path d="M 0 345.6 
L 460.8 345.6 
L 460.8 0 
L 0 0 
z
" style="fill:#ffffff;"/>
  </g>
  <g id="axes_1">
   <g id="patch_2">
    <path d="M 57.6 307.584 
L 414.72 307.584 
L 414.72 41.472 
L 57.6 41.472 
z
" style="fill:#7d9051;"/>
   </g>
   <g id="matplotlib.axis_1">
    <g id="xtick_1">
     <g id="line2d_1">
      <defs>
       <path d="M 0 0 
L 0 3.5 
" id="ma2671e27ba" style="stroke:#000000;stroke-width:0.8;"/>
      </defs>
      <g>
       <use style="stroke:#000000;stroke-width:0.8;" x="75.542499" xlink:href="#ma2671e27ba" y="307.584"/>
      </g>
     </g>
     <g id="text_1">
      <!-- 100 -->
      <g transform="translate(65.998749 322.182437)scale(0.1 -0.1)">
       <defs>
        <path d="M 12.40625 8.296875 
L 28.515625 8.296875 
L 28.515625 63.921875 
L 10.984375 60.40625 
L 10.984375 69.390625 
L 28.421875 72.90625 
L 38.28125 72.90625 
L 38.28125 8.296875 
L 54.390625 8.296875 
L 54.390625 0 
L 12.40625 0 
z
" id="DejaVuSans-49"/>
        <path d="M 31.78125 66.40625 
Q 24.171875 66.40625 20.328125 58.90625 
Q 16.5 51.421875 16.5 36.375 
Q 16.5 21.390625 20.328125 13.890625 
Q 24.171875 6.390625 31.78125 6.390625 
Q 39.453125 6.390625 43.28125 13.890625 
Q 47.125 21.390625 47.125 36.375 
Q 47.125 51.421875 43.28125 58.90625 
Q 39.453125 66.40625 31.78125 66.40625 
z
M 31.78125 74.21875 
Q 44.046875 74.21875 50.515625 64.515625 
Q 56.984375 54.828125 56.984375 36.375 
Q 56.984375 17.96875 50.515625 8.265625 
Q 44.046875 -1.421875 31.78125 -1.421875 
Q 19.53125 -1.421875 13.0625 8.265625 
Q 6.59375 17.96875 6.59375 36.375 
Q 6.59375 54.828125 13.0625 64.515625 
Q 19.53125 74.21875 31.78125 74.21875 
z
" id="DejaVuSans-48"/>
       </defs>
       <use xlink:href="#DejaVuSans-49"/>
       <use x="63.623047" xlink:href="#DejaVuSans-48"/>
       <use x="127.246094" xlink:href="#DejaVuSans-48"/>
      </g>
     </g>
    </g>
    <g id="xtick_2">
     <g id="line2d_2">
      <g>
       <use style="stroke:#000000;stroke-width:0.8;" x="140.285433" xlink:href="#ma2671e27ba" y="307.584"/>
      </g>
     </g>
     <g id="text_2">
      <!-- 120 -->
      <g transform="translate(130.741683 322.182437)scale(0.1 -0.1)">
       <defs>
        <path d="M 19.1875 8.296875 
L 53.609375 8.296875 
L 53.609375 0 
L 7.328125 0 
L 7.328125 8.296875 
Q 12.9375 14.109375 22.625 23.890625 
Q 32.328125 33.6875 34.8125 36.53125 
Q 39.546875 41.84375 41.421875 45.53125 
Q 43.3125 49.21875 43.3125 52.78125 
Q 43.3125 58.59375 39.234375 62.25 
Q 35.15625 65.921875 28.609375 65.921875 
Q 23.96875 65.921875 18.8125 64.3125 
Q 13.671875 62.703125 7.8125 59.421875 
L 7.8125 69.390625 
Q 13.765625 71.78125 18.9375 73 
Q 24.125 74.21875 28.421875 74.21875 
Q 39.75 74.21875 46.484375 68.546875 
Q 53.21875 62.890625 53.21875 53.421875 
Q 53.21875 48.921875 51.53125 44.890625 
Q 49.859375 40.875 45.40625 35.40625 
Q 44.1875 33.984375 37.640625 27.21875 
Q 31.109375 20.453125 19.1875 8.296875 
z
" id="DejaVuSans-50"/>
       </defs>
       <use xlink:href="#DejaVuSans-49"/>
       <use x="63.623047" xlink:href="#DejaVuSans-50"/>
       <use x="127.246094" xlink:href="#DejaVuSans-48"/>
      </g>
     </g>
    </g>
    <g id="xtick_3">
     <g id="line2d_3">
      <g>
       <use style="stroke:#000000;stroke-width:0.8;" x="205.028366" xlink:href="#ma2671e27ba" y="307.584"/>
      </g>
     </g>
     <g id="text_3">
      <!-- 140 -->
      <g transform="translate(195.484616 322.182437)scale(0.1 -0.1)">
       <defs>
        <path d="M 37.796875 64.3125 
L 12.890625 25.390625 
L 37.796875 25.390625 
z
M 35.203125 72.90625 
L 47.609375 72.90625 
L 47.609375 25.390625 
L 58.015625 25.390625 
L 58.015625 17.1875 
L 47.609375 17.1875 
L 47.609375 0 
L 37.796875 0 
L 37.796875 17.1875 
L 4.890625 17.1875 
L 4.890625 26.703125 
z
" id="DejaVuSans-52"/>
       </defs>
       <use xlink:href="#DejaVuSans-49"/>
       <use x="63.623047" xlink:href="#DejaVuSans-52"/>
       <use x="127.246094" xlink:href="#DejaVuSans-48"/>
      </g>
     </g>
    </g>
    <g id="xtick_4">
     <g id="line2d_4">
      <g>
       <use style="stroke:#000000;stroke-width:0.8;" x="269.7713" xlink:href="#ma2671e27ba" y="307.584"/>
      </g>
     </g>
     <g id="text_4">
      <!-- 160 -->
      <g transform="translate(260.22755 322.182437)scale(0.1 -0.1)">
       <defs>
        <path d="M 33.015625 40.375 
Q 26.375 40.375 22.484375 35.828125 
Q 18.609375 31.296875 18.609375 23.390625 
Q 18.609375 15.53125 22.484375 10.953125 
Q 26.375 6.390625 33.015625 6.390625 
Q 39.65625 6.390625 43.53125 10.953125 
Q 47.40625 15.53125 47.40625 23.390625 
Q 47.40625 31.296875 43.53125 35.828125 
Q 39.65625 40.375 33.015625 40.375 
z
M 52.59375 71.296875 
L 52.59375 62.3125 
Q 48.875 64.0625 45.09375 64.984375 
Q 41.3125 65.921875 37.59375 65.921875 
Q 27.828125 65.921875 22.671875 59.328125 
Q 17.53125 52.734375 16.796875 39.40625 
Q 19.671875 43.65625 24.015625 45.921875 
Q 28.375 48.1875 33.59375 48.1875 
Q 44.578125 48.1875 50.953125 41.515625 
Q 57.328125 34.859375 57.328125 23.390625 
Q 57.328125 12.15625 50.6875 5.359375 
Q 44.046875 -1.421875 33.015625 -1.421875 
Q 20.359375 -1.421875 13.671875 8.265625 
Q 6.984375 17.96875 6.984375 36.375 
Q 6.984375 53.65625 15.1875 63.9375 
Q 23.390625 74.21875 37.203125 74.21875 
Q 40.921875 74.21875 44.703125 73.484375 
Q 48.484375 72.75 52.59375 71.296875 
z
" id="DejaVuSans-54"/>
       </defs>
       <use xlink:href="#DejaVuSans-49"/>
       <use x="63.623047" xlink:href="#DejaVuSans-54"/>
       <use x="127.246094" xlink:href="#DejaVuSans-48"/>
      </g>
     </g>
    </g>
    <g id="xtick_5">
     <g id="line2d_5">
      <g>
       <use style="stroke:#000000;stroke-width:0.8;" x="334.514234" xlink:href="#ma2671e27ba" y="307.584"/>
      </g>
     </g>
     <g id="text_5">
      <!-- 180 -->
      <g transform="translate(324.970484 322.182437)scale(0.1 -0.1)">
       <defs>
        <path d="M 31.78125 34.625 
Q 24.75 34.625 20.71875 30.859375 
Q 16.703125 27.09375 16.703125 20.515625 
Q 16.703125 13.921875 20.71875 10.15625 
Q 24.75 6.390625 31.78125 6.390625 
Q 38.8125 6.390625 42.859375 10.171875 
Q 46.921875 13.96875 46.921875 20.515625 
Q 46.921875 27.09375 42.890625 30.859375 
Q 38.875 34.625 31.78125 34.625 
z
M 21.921875 38.8125 
Q 15.578125 40.375 12.03125 44.71875 
Q 8.5 49.078125 8.5 55.328125 
Q 8.5 64.0625 14.71875 69.140625 
Q 20.953125 74.21875 31.78125 74.21875 
Q 42.671875 74.21875 48.875 69.140625 
Q 55.078125 64.0625 55.078125 55.328125 
Q 55.078125 49.078125 51.53125 44.71875 
Q 48 40.375 41.703125 38.8125 
Q 48.828125 37.15625 52.796875 32.3125 
Q 56.78125 27.484375 56.78125 20.515625 
Q 56.78125 9.90625 50.3125 4.234375 
Q 43.84375 -1.421875 31.78125 -1.421875 
Q 19.734375 -1.421875 13.25 4.234375 
Q 6.78125 9.90625 6.78125 20.515625 
Q 6.78125 27.484375 10.78125 32.3125 
Q 14.796875 37.15625 21.921875 38.8125 
z
M 18.3125 54.390625 
Q 18.3125 48.734375 21.84375 45.5625 
Q 25.390625 42.390625 31.78125 42.390625 
Q 38.140625 42.390625 41.71875 45.5625 
Q 45.3125 48.734375 45.3125 54.390625 
Q 45.3125 60.0625 41.71875 63.234375 
Q 38.140625 66.40625 31.78125 66.40625 
Q 25.390625 66.40625 21.84375 63.234375 
Q 18.3125 60.0625 18.3125 54.390625 
z
" id="DejaVuSans-56"/>
       </defs>
       <use xlink:href="#DejaVuSans-49"/>
       <use x="63.623047" xlink:href="#DejaVuSans-56"/>
       <use x="127.246094" xlink:href="#DejaVuSans-48"/>
      </g>
     </g>
    </g>
    <g id="xtick_6">
     <g id="line2d_6">
      <g>
       <use style="stroke:#000000;stroke-width:0.8;" x="399.257167" xlink:href="#ma2671e27ba" y="307.584"/>
      </g>
     </g>
     <g id="text_6">
      <!-- 200 -->
      <g transform="translate(389.713417 322.182437)scale(0.1 -0.1)">
       <use xlink:href="#DejaVuSans-50"/>
       <use x="63.623047" xlink:href="#DejaVuSans-48"/>
       <use x="127.246094" xlink:href="#DejaVuSans-48"/>
      </g>
     </g>
    </g>
   </g>
   <g id="matplotlib.axis_2">
    <g id="ytick_1">
     <g id="line2d_7">
      <defs>
       <path d="M 0 0 
L -3.5 0 
" id="m430428565f" style="stroke:#000000;stroke-width:0.8;"/>
      </defs>
      <g>
       <use style="stroke:#000000;stroke-width:0.8;" x="57.6" xlink:href="#m430428565f" y="303.609582"/>
      </g>
     </g>
     <g id="text_7">
      <!-- 10 -->
      <g transform="translate(37.875 307.4088)scale(0.1 -0.1)">
       <use xlink:href="#DejaVuSans-49"/>
       <use x="63.623047" xlink:href="#DejaVuSans-48"/>
      </g>
     </g>
    </g>
    <g id="ytick_2">
     <g id="line2d_8">
      <g>
       <use style="stroke:#000000;stroke-width:0.8;" x="57.6" xlink:href="#m430428565f" y="271.238115"/>
      </g>
     </g>
     <g id="text_8">
      <!-- 20 -->
      <g transform="translate(37.875 275.037334)scale(0.1 -0.1)">
       <use xlink:href="#DejaVuSans-50"/>
       <use x="63.623047" xlink:href="#DejaVuSans-48"/>
      </g>
     </g>
    </g>
    <g id="ytick_3">
     <g id="line2d_9">
      <g>
       <use style="stroke:#000000;stroke-width:0.8;" x="57.6" xlink:href="#m430428565f" y="238.866648"/>
      </g>
     </g>
     <g id="text_9">
      <!-- 30 -->
      <g transform="translate(37.875 242.665867)scale(0.1 -0.1)">
       <defs>
        <path d="M 40.578125 39.3125 
Q 47.65625 37.796875 51.625 33 
Q 55.609375 28.21875 55.609375 21.1875 
Q 55.609375 10.40625 48.1875 4.484375 
Q 40.765625 -1.421875 27.09375 -1.421875 
Q 22.515625 -1.421875 17.65625 -0.515625 
Q 12.796875 0.390625 7.625 2.203125 
L 7.625 11.71875 
Q 11.71875 9.328125 16.59375 8.109375 
Q 21.484375 6.890625 26.8125 6.890625 
Q 36.078125 6.890625 40.9375 10.546875 
Q 45.796875 14.203125 45.796875 21.1875 
Q 45.796875 27.640625 41.28125 31.265625 
Q 36.765625 34.90625 28.71875 34.90625 
L 20.21875 34.90625 
L 20.21875 43.015625 
L 29.109375 43.015625 
Q 36.375 43.015625 40.234375 45.921875 
Q 44.09375 48.828125 44.09375 54.296875 
Q 44.09375 59.90625 40.109375 62.90625 
Q 36.140625 65.921875 28.71875 65.921875 
Q 24.65625 65.921875 20.015625 65.03125 
Q 15.375 64.15625 9.8125 62.3125 
L 9.8125 71.09375 
Q 15.4375 72.65625 20.34375 73.4375 
Q 25.25 74.21875 29.59375 74.21875 
Q 40.828125 74.21875 47.359375 69.109375 
Q 53.90625 64.015625 53.90625 55.328125 
Q 53.90625 49.265625 50.4375 45.09375 
Q 46.96875 40.921875 40.578125 39.3125 
z
" id="DejaVuSans-51"/>
       </defs>
       <use xlink:href="#DejaVuSans-51"/>
       <use x="63.623047" xlink:href="#DejaVuSans-48"/>
      </g>
     </g>
    </g>
    <g id="ytick_4">
     <g id="line2d_10">
      <g>
       <use style="stroke:#000000;stroke-width:0.8;" x="57.6" xlink:href="#m430428565f" y="206.495181"/>
      </g>
     </g>
     <g id="text_10">
      <!-- 40 -->
      <g transform="translate(37.875 210.2944)scale(0.1 -0.1)">
       <use xlink:href="#DejaVuSans-52"/>
       <use x="63.623047" xlink:href="#DejaVuSans-48"/>
      </g>
     </g>
    </g>
    <g id="ytick_5">
     <g id="line2d_11">
      <g>
       <use style="stroke:#000000;stroke-width:0.8;" x="57.6" xlink:href="#m430428565f" y="174.123714"/>
      </g>
     </g>
     <g id="text_11">
      <!-- 50 -->
      <g transform="translate(37.875 177.922933)scale(0.1 -0.1)">
       <defs>
        <path d="M 10.796875 72.90625 
L 49.515625 72.90625 
L 49.515625 64.59375 
L 19.828125 64.59375 
L 19.828125 46.734375 
Q 21.96875 47.46875 24.109375 47.828125 
Q 26.265625 48.1875 28.421875 48.1875 
Q 40.625 48.1875 47.75 41.5 
Q 54.890625 34.8125 54.890625 23.390625 
Q 54.890625 11.625 47.5625 5.09375 
Q 40.234375 -1.421875 26.90625 -1.421875 
Q 22.3125 -1.421875 17.546875 -0.640625 
Q 12.796875 0.140625 7.71875 1.703125 
L 7.71875 11.625 
Q 12.109375 9.234375 16.796875 8.0625 
Q 21.484375 6.890625 26.703125 6.890625 
Q 35.15625 6.890625 40.078125 11.328125 
Q 45.015625 15.765625 45.015625 23.390625 
Q 45.015625 31 40.078125 35.4375 
Q 35.15625 39.890625 26.703125 39.890625 
Q 22.75 39.890625 18.8125 39.015625 
Q 14.890625 38.140625 10.796875 36.28125 
z
" id="DejaVuSans-53"/>
       </defs>
       <use xlink:href="#DejaVuSans-53"/>
       <use x="63.623047" xlink:href="#DejaVuSans-48"/>
      </g>
     </g>
    </g>
    <g id="ytick_6">
     <g id="line2d_12">
      <g>
       <use style="stroke:#000000;stroke-width:0.8;" x="57.6" xlink:href="#m430428565f" y="141.752247"/>
      </g>
     </g>
     <g id="text_12">
      <!-- 60 -->
      <g transform="translate(37.875 145.551466)scale(0.1 -0.1)">
       <use xlink:href="#DejaVuSans-54"/>
       <use x="63.623047" xlink:href="#DejaVuSans-48"/>
      </g>
     </g>
    </g>
    <g id="ytick_7">
     <g id="line2d_13">
      <g>
       <use style="stroke:#000000;stroke-width:0.8;" x="57.6" xlink:href="#m430428565f" y="109.380781"/>
      </g>
     </g>
     <g id="text_13">
      <!-- 70 -->
      <g transform="translate(37.875 113.179999)scale(0.1 -0.1)">
       <defs>
        <path d="M 8.203125 72.90625 
L 55.078125 72.90625 
L 55.078125 68.703125 
L 28.609375 0 
L 18.3125 0 
L 43.21875 64.59375 
L 8.203125 64.59375 
z
" id="DejaVuSans-55"/>
       </defs>
       <use xlink:href="#DejaVuSans-55"/>
       <use x="63.623047" xlink:href="#DejaVuSans-48"/>
      </g>
     </g>
    </g>
    <g id="ytick_8">
     <g id="line2d_14">
      <g>
       <use style="stroke:#000000;stroke-width:0.8;" x="57.6" xlink:href="#m430428565f" y="77.009314"/>
      </g>
     </g>
     <g id="text_14">
      <!-- 80 -->
      <g transform="translate(37.875 80.808532)scale(0.1 -0.1)">
       <use xlink:href="#DejaVuSans-56"/>
       <use x="63.623047" xlink:href="#DejaVuSans-48"/>
      </g>
     </g>
    </g>
    <g id="ytick_9">
     <g id="line2d_15">
      <g>
       <use style="stroke:#000000;stroke-width:0.8;" x="57.6" xlink:href="#m430428565f" y="44.637847"/>
      </g>
     </g>
     <g id="text_15">
      <!-- 90 -->
      <g transform="translate(37.875 48.437066)scale(0.1 -0.1)">
       <defs>
        <path d="M 10.984375 1.515625 
L 10.984375 10.5 
Q 14.703125 8.734375 18.5 7.8125 
Q 22.3125 6.890625 25.984375 6.890625 
Q 35.75 6.890625 40.890625 13.453125 
Q 46.046875 20.015625 46.78125 33.40625 
Q 43.953125 29.203125 39.59375 26.953125 
Q 35.25 24.703125 29.984375 24.703125 
Q 19.046875 24.703125 12.671875 31.3125 
Q 6.296875 37.9375 6.296875 49.421875 
Q 6.296875 60.640625 12.9375 67.421875 
Q 19.578125 74.21875 30.609375 74.21875 
Q 43.265625 74.21875 49.921875 64.515625 
Q 56.59375 54.828125 56.59375 36.375 
Q 56.59375 19.140625 48.40625 8.859375 
Q 40.234375 -1.421875 26.421875 -1.421875 
Q 22.703125 -1.421875 18.890625 -0.6875 
Q 15.09375 0.046875 10.984375 1.515625 
z
M 30.609375 32.421875 
Q 37.25 32.421875 41.125 36.953125 
Q 45.015625 41.5 45.015625 49.421875 
Q 45.015625 57.28125 41.125 61.84375 
Q 37.25 66.40625 30.609375 66.40625 
Q 23.96875 66.40625 20.09375 61.84375 
Q 16.21875 57.28125 16.21875 49.421875 
Q 16.21875 41.5 20.09375 36.953125 
Q 23.96875 32.421875 30.609375 32.421875 
z
" id="DejaVuSans-57"/>
       </defs>
       <use xlink:href="#DejaVuSans-57"/>
       <use x="63.623047" xlink:href="#DejaVuSans-48"/>
      </g>
     </g>
    </g>
   </g>
   <g id="line2d_16">
    <path clip-path="url(#p6efa86081a)" d="M 82.016792 151.463687 
L 85.334868 148.757433 
L 88.643231 146.112684 
L 91.93541 143.526204 
L 95.214639 141.001229 
L 98.477683 138.537761 
L 101.731016 136.135798 
L 104.968162 133.792104 
L 108.19236 131.509915 
L 111.40361 129.289233 
L 114.598674 127.126819 
L 117.784026 125.025911 
L 120.953193 122.986508 
L 124.109411 121.005374 
L 127.249443 119.085746 
L 130.379764 117.227624 
L 133.493899 115.427771 
L 136.595085 113.69266 
L 139.683323 112.012581 
L 142.758613 110.397245 
L 145.817716 108.840177 
L 148.863871 107.344615 
L 151.897078 105.910559 
L 154.917336 104.534772 
L 157.924645 103.22049 
L 160.915768 101.967715 
L 163.893943 100.773208 
L 166.85917 99.643443 
L 169.811447 98.568711 
L 172.747539 97.558721 
L 175.670683 96.607 
L 178.580878 95.716784 
L 181.478124 94.888075 
L 184.362422 94.117634 
L 187.230534 93.408699 
L 190.085697 92.76127 
L 192.927912 92.172109 
L 195.757178 91.644454 
L 198.573496 91.178305 
L 201.373628 90.770424 
L 204.160811 90.42405 
L 206.935046 90.139181 
L 209.696332 89.915818 
L 212.441432 89.750723 
L 215.173584 89.647134 
L 217.892787 89.605051 
L 220.599042 89.621237 
L 223.292348 89.698929 
L 225.969468 89.838126 
L 228.63364 90.035592 
L 231.284863 90.294564 
L 233.923138 90.615041 
L 236.548463 90.993787 
L 239.157604 91.437277 
L 241.753795 91.935797 
L 244.337038 92.499061 
L 246.907333 93.120593 
L 249.461442 93.803631 
L 252.002602 94.548174 
L 254.530813 95.350987 
L 257.046076 96.215305 
L 259.548391 97.141129 
L 262.034519 98.125222 
L 264.507699 99.174057 
L 266.967931 100.277924 
L 269.415214 101.446534 
L 271.849548 102.673413 
L 274.267697 103.961797 
L 276.672897 105.311687 
L 279.065148 106.719846 
L 281.444451 108.189511 
L 283.807568 109.720681 
L 286.157736 111.31012 
L 288.494956 112.961065 
L 290.819228 114.673515 
L 293.13055 116.444235 
L 295.425687 118.27646 
L 297.707876 120.17019 
L 299.977116 122.125427 
L 302.233407 124.138932 
L 304.473512 126.213943 
L 306.703906 128.35046 
L 308.918115 130.545246 
L 311.119375 132.801537 
L 313.304449 135.119334 
L 315.479811 137.4954 
L 317.638988 139.932971 
L 319.785216 142.432048 
L 321.918496 144.989394 
L 324.03559 147.608246 
L 326.142972 150.288603 
L 328.234169 153.030466 
L 330.312417 155.830598 
L 332.377717 158.692236 
L 334.426831 161.615379 
L 336.462996 164.596792 
L 338.486213 167.639709 
L 340.496481 170.744133 
L 342.4938 173.906825 
L 344.474934 177.131024 
L 346.446356 180.416727 
L 348.401593 183.763937 
L 350.340644 187.169415 
L 352.269983 190.6364 
L 354.183137 194.164889 
L 356.083342 197.751648 
L 357.970598 201.399912 
L 359.844906 205.106445 
L 361.706266 208.877721 
L 363.551439 212.707266 
L 365.383664 216.598316 
L 367.202941 220.547635 
L 369.006032 224.55846 
L 370.799411 228.63079 
L 372.576604 232.764626 
L 374.340849 236.956731 
L 376.092146 241.210342 
L 377.827256 245.522222 
L 379.552655 249.898844 
L 381.261869 254.333735 
L 382.958134 258.830132 
L 384.64145 263.384797 
L 386.308581 268.000968 
" style="fill:none;stroke:#fea952;stroke-linecap:square;"/>
   </g>
   <g id="line2d_17">
    <path clip-path="url(#p6efa86081a)" d="M 73.832727 141.429397 
L 77.249571 138.64339 
L 80.643758 135.930625 
L 84.035623 133.26661 
L 87.412719 130.667017 
L 90.786697 128.120725 
L 94.137491 125.647505 
L 97.487188 123.223238 
L 100.827479 120.859825 
L 104.145984 118.565765 
L 107.469413 116.317585 
L 110.776921 114.137092 
L 114.069235 112.01942 
L 117.355527 109.957707 
L 120.640018 107.951053 
L 123.900323 106.016793 
L 127.171486 104.127638 
L 130.407161 102.318325 
L 133.662016 100.549171 
L 136.88494 98.857493 
L 140.111078 97.216917 
L 143.329352 95.63842 
L 146.529401 94.126929 
L 149.731988 92.669778 
L 152.9224 91.277147 
L 156.095525 89.949763 
L 159.283758 88.673121 
L 162.429795 87.476006 
L 165.599483 86.324314 
L 168.738838 85.24628 
L 171.883017 84.224775 
L 175.019953 83.267459 
L 178.136514 82.378097 
L 181.255322 81.547358 
L 184.367042 80.780702 
L 187.457466 80.08222 
L 190.553948 79.443001 
L 193.642732 78.869673 
L 196.707041 78.364943 
L 199.776738 77.920683 
L 202.838156 77.543192 
L 205.891032 77.232751 
L 208.918989 76.990585 
L 211.950843 76.811433 
L 214.973213 76.700098 
L 217.970229 76.656696 
L 220.972403 76.678034 
L 223.964703 76.76781 
L 226.92658 76.924961 
L 229.892468 77.148341 
L 232.846281 77.440464 
L 235.772041 77.799135 
L 238.71828 78.228295 
L 241.599382 78.721003 
L 244.512357 79.284464 
L 247.380466 79.913218 
L 250.25258 80.611587 
L 253.10224 81.377429 
L 255.921485 82.206852 
L 258.738815 83.105228 
L 261.539213 84.071268 
L 264.314098 85.101447 
L 267.089985 86.204309 
L 269.808412 87.360152 
L 272.547559 88.593163 
L 275.242872 89.883476 
L 277.938236 91.245649 
L 280.605061 92.670043 
L 283.24139 94.152799 
L 285.869857 95.703411 
L 288.485575 97.322659 
L 291.06159 98.994775 
L 293.628419 100.733977 
L 296.17555 102.536365 
L 298.693929 104.394655 
L 301.20902 106.324738 
L 303.694298 108.311723 
L 306.16003 110.360654 
L 308.598599 112.464375 
L 311.032697 114.639543 
L 313.430645 116.863239 
L 315.819517 119.154181 
L 318.186479 121.502939 
L 320.541192 123.919237 
L 322.854952 126.375549 
L 325.172605 128.909618 
L 327.4622 131.496715 
L 329.728468 134.137614 
L 331.988224 136.848971 
L 334.214741 139.605073 
L 336.438781 142.436074 
L 338.631855 145.31334 
L 340.812073 148.252793 
L 342.980645 151.259618 
L 345.119654 154.31268 
L 347.245687 157.427449 
L 349.355026 160.601614 
L 351.444633 163.8301 
L 353.526133 167.127922 
L 355.578255 170.469031 
L 357.627148 173.885588 
L 359.653975 177.356925 
L 361.655257 180.872955 
L 363.653019 184.464496 
L 365.625183 188.103084 
L 367.584218 191.802215 
L 369.525809 195.55671 
L 371.45622 199.375539 
L 373.371393 203.257161 
L 375.266237 207.19098 
L 377.144402 211.180665 
L 379.012997 215.238352 
L 380.8564 219.339776 
L 382.69525 223.516604 
L 384.511347 227.741897 
L 386.314313 232.027018 
L 388.10463 236.37649 
L 389.873533 240.773209 
L 391.634977 245.2423 
L 393.377024 249.763295 
L 395.103776 254.341337 
L 396.820142 258.986461 
L 398.487273 263.602633 
" style="fill:none;stroke:#ffffff;stroke-linecap:square;"/>
   </g>
   <g id="line2d_18">
    <path clip-path="url(#p6efa86081a)" d="M 90.200857 161.497978 
L 93.420164 158.871476 
L 96.642705 156.294743 
L 99.835196 153.785798 
L 103.016559 151.335442 
L 106.168669 148.954797 
L 109.32454 146.624091 
L 112.449136 144.360969 
L 115.557241 142.160006 
L 118.661236 140.012701 
L 121.727935 137.936053 
L 124.791131 135.914729 
L 127.83715 133.953597 
L 130.863294 132.053042 
L 133.858868 130.22044 
L 136.859205 128.438456 
L 139.816311 126.727903 
L 142.78301 125.066995 
L 145.70463 123.475991 
L 148.632285 121.936996 
L 151.524354 120.463437 
L 154.39839 119.05081 
L 157.264755 117.69419 
L 160.102683 116.399766 
L 162.926889 115.163834 
L 165.736012 113.985666 
L 168.504129 112.873294 
L 171.288544 111.810881 
L 174.023412 110.813107 
L 176.756241 109.871162 
L 179.458349 108.989224 
L 182.141802 108.16611 
L 184.819734 107.398053 
L 187.469522 106.68791 
L 190.094025 106.036696 
L 192.713928 105.440319 
L 195.301876 104.901217 
L 197.871625 104.419234 
L 200.439951 103.991667 
L 202.970518 103.620165 
L 205.483466 103.304907 
L 207.979059 103.045611 
L 210.473675 102.84105 
L 212.932021 102.690013 
L 215.373955 102.594171 
L 217.815345 102.553407 
L 220.22568 102.56444 
L 222.619992 102.630048 
L 225.012356 102.751291 
L 227.374812 102.922843 
L 229.723445 103.148663 
L 232.074234 103.430948 
L 234.378647 103.75928 
L 236.715825 104.15355 
L 238.995234 104.587131 
L 241.29361 105.084904 
L 243.562086 105.629598 
L 245.820644 106.229832 
L 248.083718 106.889497 
L 250.322811 107.596746 
L 252.55294 108.359342 
L 254.782683 109.180811 
L 256.979054 110.046135 
L 259.206987 110.987962 
L 261.388303 111.962685 
L 263.587556 113.009592 
L 265.76086 114.101176 
L 267.930333 115.253551 
L 270.104403 116.470576 
L 272.260439 117.736281 
L 274.403326 119.056362 
L 276.553546 120.446587 
L 278.687054 121.886263 
L 280.814362 123.385765 
L 282.944526 124.952376 
L 285.05208 126.563732 
L 287.157076 128.241196 
L 289.255722 129.979726 
L 291.355632 131.786479 
L 293.434117 133.638322 
L 295.516379 135.564647 
L 297.588296 137.546739 
L 299.64975 139.587553 
L 301.697557 141.683837 
L 303.753945 143.863119 
L 305.787017 146.081181 
L 307.815776 148.369227 
L 309.841964 150.726482 
L 311.848768 153.129817 
L 313.856439 155.611419 
L 315.847163 158.141133 
L 317.836484 160.747593 
L 319.812762 163.408404 
L 321.774788 166.124854 
L 323.734007 168.918079 
L 325.680305 171.766134 
L 327.617399 174.677805 
L 329.548328 177.658166 
L 331.461467 180.685729 
L 333.371612 183.793016 
L 335.265564 186.947867 
L 337.149211 190.170949 
L 339.02603 193.465876 
L 340.886947 196.808303 
L 342.741091 200.226695 
L 344.582466 203.701081 
L 346.415388 207.243115 
L 348.233592 210.837351 
L 350.041138 214.498281 
L 351.836642 218.223551 
L 353.622927 222.015967 
L 355.392885 225.856917 
L 357.155663 229.777143 
L 358.903571 233.744976 
L 360.641862 237.787356 
L 362.367386 241.886445 
L 364.079662 246.044195 
L 365.78098 250.271234 
L 367.470334 254.555388 
L 369.146714 258.904175 
L 370.812492 263.318926 
L 372.462758 267.783132 
L 374.129888 272.399304 
" style="fill:none;stroke:#ffffff;stroke-linecap:square;"/>
   </g>
   <g id="patch_3">
    <path d="M 57.6 307.584 
L 57.6 41.472 
" style="fill:none;stroke:#000000;stroke-linecap:square;stroke-linejoin:miter;stroke-width:0.8;"/>
   </g>
   <g id="patch_4">
    <path d="M 414.72 307.584 
L 414.72 41.472 
" style="fill:none;stroke:#000000;stroke-linecap:square;stroke-linejoin:miter;stroke-width:0.8;"/>
   </g>
   <g id="patch_5">
    <path d="M 57.6 307.584 
L 414.72 307.584 
" style="fill:none;stroke:#000000;stroke-linecap:square;stroke-linejoin:miter;stroke-width:0.8;"/>
   </g>
   <g id="patch_6">
    <path d="M 57.6 41.472 
L 414.72 41.472 
" style="fill:none;stroke:#000000;stroke-linecap:square;stroke-linejoin:miter;stroke-width:0.8;"/>
   </g>
  </g>
 </g>
 <defs>
  <clipPath id="p6efa86081a">
   <rect height="266.112" width="357.12" x="57.6" y="41.472"/>
  </clipPath>
 </defs>
</svg>
