<?xml version="1.0" encoding="utf-8" standalone="no"?>
<!DOCTYPE svg PUBLIC "-//W3C//DTD SVG 1.1//EN"
  "http://www.w3.org/Graphics/SVG/1.1/DTD/svg11.dtd">
<!-- Created with matplotlib (https://matplotlib.org/) -->
<svg height="345.6pt" version="1.1" viewBox="0 0 460.8 345.6" width="460.8pt" xmlns="http://www.w3.org/2000/svg" xmlns:xlink="http://www.w3.org/1999/xlink">
 <metadata>
  <rdf:RDF xmlns:cc="http://creativecommons.org/ns#" xmlns:dc="http://purl.org/dc/elements/1.1/" xmlns:rdf="http://www.w3.org/1999/02/22-rdf-syntax-ns#">
   <cc:Work>
    <dc:type rdf:resource="http://purl.org/dc/dcmitype/StillImage"/>
    <dc:date>2021-07-12T19:04:04.415820</dc:date>
    <dc:format>image/svg+xml</dc:format>
    <dc:creator>
     <cc:Agent>
      <dc:title>Matplotlib v3.3.3, https://matplotlib.org/</dc:title>
     </cc:Agent>
    </dc:creator>
   </cc:Work>
  </rdf:RDF>
 </metadata>
 <defs>
  <style type="text/css">*{stroke-linecap:butt;stroke-linejoin:round;}</style>
 </defs>
 <g id="figure_1">
  <g id="patch_1">
   <path d="M 0 345.6 
L 460.8 345.6 
L 460.8 0 
L 0 0 
z
" style="fill:#ffffff;"/>
  </g>
  <g id="axes_1">
   <g id="patch_2">
    <path d="M 57.6 307.584 
L 414.72 307.584 
L 414.72 41.472 
L 57.6 41.472 
z
" style="fill:#7d9051;"/>
   </g>
   <g id="matplotlib.axis_1">
    <g id="xtick_1">
     <g id="line2d_1">
      <defs>
       <path d="M 0 0 
L 0 3.5 
" id="m4e854e517a" style="stroke:#000000;stroke-width:0.8;"/>
      </defs>
      <g>
       <use style="stroke:#000000;stroke-width:0.8;" x="85.309542" xlink:href="#m4e854e517a" y="307.584"/>
      </g>
     </g>
     <g id="text_1">
      <!-- 0 -->
      <g transform="translate(82.128292 322.182437)scale(0.1 -0.1)">
       <defs>
        <path d="M 31.78125 66.40625 
Q 24.171875 66.40625 20.328125 58.90625 
Q 16.5 51.421875 16.5 36.375 
Q 16.5 21.390625 20.328125 13.890625 
Q 24.171875 6.390625 31.78125 6.390625 
Q 39.453125 6.390625 43.28125 13.890625 
Q 47.125 21.390625 47.125 36.375 
Q 47.125 51.421875 43.28125 58.90625 
Q 39.453125 66.40625 31.78125 66.40625 
z
M 31.78125 74.21875 
Q 44.046875 74.21875 50.515625 64.515625 
Q 56.984375 54.828125 56.984375 36.375 
Q 56.984375 17.96875 50.515625 8.265625 
Q 44.046875 -1.421875 31.78125 -1.421875 
Q 19.53125 -1.421875 13.0625 8.265625 
Q 6.59375 17.96875 6.59375 36.375 
Q 6.59375 54.828125 13.0625 64.515625 
Q 19.53125 74.21875 31.78125 74.21875 
z
" id="DejaVuSans-48"/>
       </defs>
       <use xlink:href="#DejaVuSans-48"/>
      </g>
     </g>
    </g>
    <g id="xtick_2">
     <g id="line2d_2">
      <g>
       <use style="stroke:#000000;stroke-width:0.8;" x="153.427493" xlink:href="#m4e854e517a" y="307.584"/>
      </g>
     </g>
     <g id="text_2">
      <!-- 50 -->
      <g transform="translate(147.064993 322.182437)scale(0.1 -0.1)">
       <defs>
        <path d="M 10.796875 72.90625 
L 49.515625 72.90625 
L 49.515625 64.59375 
L 19.828125 64.59375 
L 19.828125 46.734375 
Q 21.96875 47.46875 24.109375 47.828125 
Q 26.265625 48.1875 28.421875 48.1875 
Q 40.625 48.1875 47.75 41.5 
Q 54.890625 34.8125 54.890625 23.390625 
Q 54.890625 11.625 47.5625 5.09375 
Q 40.234375 -1.421875 26.90625 -1.421875 
Q 22.3125 -1.421875 17.546875 -0.640625 
Q 12.796875 0.140625 7.71875 1.703125 
L 7.71875 11.625 
Q 12.109375 9.234375 16.796875 8.0625 
Q 21.484375 6.890625 26.703125 6.890625 
Q 35.15625 6.890625 40.078125 11.328125 
Q 45.015625 15.765625 45.015625 23.390625 
Q 45.015625 31 40.078125 35.4375 
Q 35.15625 39.890625 26.703125 39.890625 
Q 22.75 39.890625 18.8125 39.015625 
Q 14.890625 38.140625 10.796875 36.28125 
z
" id="DejaVuSans-53"/>
       </defs>
       <use xlink:href="#DejaVuSans-53"/>
       <use x="63.623047" xlink:href="#DejaVuSans-48"/>
      </g>
     </g>
    </g>
    <g id="xtick_3">
     <g id="line2d_3">
      <g>
       <use style="stroke:#000000;stroke-width:0.8;" x="221.545443" xlink:href="#m4e854e517a" y="307.584"/>
      </g>
     </g>
     <g id="text_3">
      <!-- 100 -->
      <g transform="translate(212.001693 322.182437)scale(0.1 -0.1)">
       <defs>
        <path d="M 12.40625 8.296875 
L 28.515625 8.296875 
L 28.515625 63.921875 
L 10.984375 60.40625 
L 10.984375 69.390625 
L 28.421875 72.90625 
L 38.28125 72.90625 
L 38.28125 8.296875 
L 54.390625 8.296875 
L 54.390625 0 
L 12.40625 0 
z
" id="DejaVuSans-49"/>
       </defs>
       <use xlink:href="#DejaVuSans-49"/>
       <use x="63.623047" xlink:href="#DejaVuSans-48"/>
       <use x="127.246094" xlink:href="#DejaVuSans-48"/>
      </g>
     </g>
    </g>
    <g id="xtick_4">
     <g id="line2d_4">
      <g>
       <use style="stroke:#000000;stroke-width:0.8;" x="289.663393" xlink:href="#m4e854e517a" y="307.584"/>
      </g>
     </g>
     <g id="text_4">
      <!-- 150 -->
      <g transform="translate(280.119643 322.182437)scale(0.1 -0.1)">
       <use xlink:href="#DejaVuSans-49"/>
       <use x="63.623047" xlink:href="#DejaVuSans-53"/>
       <use x="127.246094" xlink:href="#DejaVuSans-48"/>
      </g>
     </g>
    </g>
    <g id="xtick_5">
     <g id="line2d_5">
      <g>
       <use style="stroke:#000000;stroke-width:0.8;" x="357.781343" xlink:href="#m4e854e517a" y="307.584"/>
      </g>
     </g>
     <g id="text_5">
      <!-- 200 -->
      <g transform="translate(348.237593 322.182437)scale(0.1 -0.1)">
       <defs>
        <path d="M 19.1875 8.296875 
L 53.609375 8.296875 
L 53.609375 0 
L 7.328125 0 
L 7.328125 8.296875 
Q 12.9375 14.109375 22.625 23.890625 
Q 32.328125 33.6875 34.8125 36.53125 
Q 39.546875 41.84375 41.421875 45.53125 
Q 43.3125 49.21875 43.3125 52.78125 
Q 43.3125 58.59375 39.234375 62.25 
Q 35.15625 65.921875 28.609375 65.921875 
Q 23.96875 65.921875 18.8125 64.3125 
Q 13.671875 62.703125 7.8125 59.421875 
L 7.8125 69.390625 
Q 13.765625 71.78125 18.9375 73 
Q 24.125 74.21875 28.421875 74.21875 
Q 39.75 74.21875 46.484375 68.546875 
Q 53.21875 62.890625 53.21875 53.421875 
Q 53.21875 48.921875 51.53125 44.890625 
Q 49.859375 40.875 45.40625 35.40625 
Q 44.1875 33.984375 37.640625 27.21875 
Q 31.109375 20.453125 19.1875 8.296875 
z
" id="DejaVuSans-50"/>
       </defs>
       <use xlink:href="#DejaVuSans-50"/>
       <use x="63.623047" xlink:href="#DejaVuSans-48"/>
       <use x="127.246094" xlink:href="#DejaVuSans-48"/>
      </g>
     </g>
    </g>
   </g>
   <g id="matplotlib.axis_2">
    <g id="ytick_1">
     <g id="line2d_6">
      <defs>
       <path d="M 0 0 
L -3.5 0 
" id="m6e25f5be63" style="stroke:#000000;stroke-width:0.8;"/>
      </defs>
      <g>
       <use style="stroke:#000000;stroke-width:0.8;" x="57.6" xlink:href="#m6e25f5be63" y="277.789874"/>
      </g>
     </g>
     <g id="text_6">
      <!-- 25 -->
      <g transform="translate(37.875 281.589093)scale(0.1 -0.1)">
       <use xlink:href="#DejaVuSans-50"/>
       <use x="63.623047" xlink:href="#DejaVuSans-53"/>
      </g>
     </g>
    </g>
    <g id="ytick_2">
     <g id="line2d_7">
      <g>
       <use style="stroke:#000000;stroke-width:0.8;" x="57.6" xlink:href="#m6e25f5be63" y="243.730899"/>
      </g>
     </g>
     <g id="text_7">
      <!-- 50 -->
      <g transform="translate(37.875 247.530118)scale(0.1 -0.1)">
       <use xlink:href="#DejaVuSans-53"/>
       <use x="63.623047" xlink:href="#DejaVuSans-48"/>
      </g>
     </g>
    </g>
    <g id="ytick_3">
     <g id="line2d_8">
      <g>
       <use style="stroke:#000000;stroke-width:0.8;" x="57.6" xlink:href="#m6e25f5be63" y="209.671924"/>
      </g>
     </g>
     <g id="text_8">
      <!-- 75 -->
      <g transform="translate(37.875 213.471143)scale(0.1 -0.1)">
       <defs>
        <path d="M 8.203125 72.90625 
L 55.078125 72.90625 
L 55.078125 68.703125 
L 28.609375 0 
L 18.3125 0 
L 43.21875 64.59375 
L 8.203125 64.59375 
z
" id="DejaVuSans-55"/>
       </defs>
       <use xlink:href="#DejaVuSans-55"/>
       <use x="63.623047" xlink:href="#DejaVuSans-53"/>
      </g>
     </g>
    </g>
    <g id="ytick_4">
     <g id="line2d_9">
      <g>
       <use style="stroke:#000000;stroke-width:0.8;" x="57.6" xlink:href="#m6e25f5be63" y="175.612949"/>
      </g>
     </g>
     <g id="text_9">
      <!-- 100 -->
      <g transform="translate(31.5125 179.412168)scale(0.1 -0.1)">
       <use xlink:href="#DejaVuSans-49"/>
       <use x="63.623047" xlink:href="#DejaVuSans-48"/>
       <use x="127.246094" xlink:href="#DejaVuSans-48"/>
      </g>
     </g>
    </g>
    <g id="ytick_5">
     <g id="line2d_10">
      <g>
       <use style="stroke:#000000;stroke-width:0.8;" x="57.6" xlink:href="#m6e25f5be63" y="141.553974"/>
      </g>
     </g>
     <g id="text_10">
      <!-- 125 -->
      <g transform="translate(31.5125 145.353192)scale(0.1 -0.1)">
       <use xlink:href="#DejaVuSans-49"/>
       <use x="63.623047" xlink:href="#DejaVuSans-50"/>
       <use x="127.246094" xlink:href="#DejaVuSans-53"/>
      </g>
     </g>
    </g>
    <g id="ytick_6">
     <g id="line2d_11">
      <g>
       <use style="stroke:#000000;stroke-width:0.8;" x="57.6" xlink:href="#m6e25f5be63" y="107.494999"/>
      </g>
     </g>
     <g id="text_11">
      <!-- 150 -->
      <g transform="translate(31.5125 111.294217)scale(0.1 -0.1)">
       <use xlink:href="#DejaVuSans-49"/>
       <use x="63.623047" xlink:href="#DejaVuSans-53"/>
       <use x="127.246094" xlink:href="#DejaVuSans-48"/>
      </g>
     </g>
    </g>
    <g id="ytick_7">
     <g id="line2d_12">
      <g>
       <use style="stroke:#000000;stroke-width:0.8;" x="57.6" xlink:href="#m6e25f5be63" y="73.436023"/>
      </g>
     </g>
     <g id="text_12">
      <!-- 175 -->
      <g transform="translate(31.5125 77.235242)scale(0.1 -0.1)">
       <use xlink:href="#DejaVuSans-49"/>
       <use x="63.623047" xlink:href="#DejaVuSans-55"/>
       <use x="127.246094" xlink:href="#DejaVuSans-53"/>
      </g>
     </g>
    </g>
   </g>
   <g id="line2d_13">
    <path clip-path="url(#p6dfd8cc9c5)" d="M 241.980828 57.087715 
L 250.221738 66.975717 
L 257.969473 76.651191 
L 265.22676 86.112774 
L 271.990872 95.361829 
L 277.252303 102.907936 
L 282.173143 110.305545 
L 286.75067 117.554658 
L 290.987606 124.656635 
L 294.881228 131.610115 
L 298.43426 138.416461 
L 301.646703 145.074309 
L 304.515831 151.585023 
L 307.044369 157.94724 
L 309.230956 164.162321 
L 310.733638 169.027305 
L 312.018342 173.798287 
L 313.085069 178.473903 
L 313.931094 183.055516 
L 314.560504 187.543127 
L 314.970574 191.935372 
L 315.161304 196.233615 
L 315.134057 200.436492 
L 314.88747 204.545367 
L 314.422906 208.558877 
L 313.740364 212.478384 
L 312.83712 216.302525 
L 311.717261 220.032664 
L 310.378062 223.6688 
L 308.819523 227.209571 
L 307.043007 230.654977 
L 305.047151 234.007743 
L 302.833318 237.263781 
L 300.400145 240.427179 
L 297.748994 243.493849 
L 294.879866 246.467878 
L 291.791398 249.346543 
L 288.48359 252.129842 
L 284.957805 254.819139 
L 281.21268 257.414433 
L 277.249578 259.914362 
L 273.067136 262.320288 
L 268.666716 264.630849 
L 264.048319 266.847407 
L 257.966749 269.484934 
L 251.543226 271.975326 
L 244.777751 274.315859 
L 237.671687 276.510619 
L 230.22367 278.556882 
L 222.433701 280.454648 
L 214.30178 282.20528 
L 205.829269 283.807414 
L 197.013444 285.262413 
L 187.85703 286.570278 
L 178.358663 287.729646 
L 166.510226 288.924434 
L 154.169978 289.908058 
L 152.065134 290.051105 
L 152.065134 290.051105 
" style="fill:none;stroke:#fea952;stroke-linecap:square;"/>
   </g>
   <g id="line2d_14">
    <path clip-path="url(#p6dfd8cc9c5)" d="M 246.141111 53.568 
L 254.446139 63.53322 
L 262.26287 73.295137 
L 269.594091 82.853515 
L 275.328904 90.66333 
L 280.725167 98.333348 
L 285.779995 105.8602 
L 290.499243 113.253114 
L 294.876885 120.506108 
L 298.916591 127.62558 
L 302.614998 134.607732 
L 305.969494 141.450533 
L 308.987619 148.169995 
L 311.661139 154.753728 
L 313.991246 161.209202 
L 315.605405 166.280372 
L 316.998584 171.271275 
L 318.168689 176.180848 
L 319.114606 181.017158 
L 319.831172 185.761493 
L 320.321094 190.432015 
L 320.581712 195.028924 
L 320.608879 199.536708 
L 320.4012 203.962044 
L 319.958156 208.303946 
L 319.278423 212.556988 
L 318.357239 216.72908 
L 317.200365 220.790909 
L 315.803506 224.763016 
L 314.166409 228.639637 
L 312.293067 232.408936 
L 310.186043 236.068307 
L 307.845315 239.620361 
L 305.274729 243.062032 
L 302.477639 246.388284 
L 299.463093 249.594029 
L 296.224938 252.689046 
L 292.761711 255.677174 
L 289.088893 258.545269 
L 285.200785 261.302366 
L 281.095458 263.952507 
L 276.780343 266.491326 
L 272.250954 268.923805 
L 267.516481 271.24562 
L 262.567279 273.465012 
L 256.083914 276.093217 
L 249.268935 278.560694 
L 242.125322 280.869081 
L 234.655256 283.019347 
L 226.849175 285.015558 
L 218.716596 286.855705 
L 210.246322 288.543941 
L 201.443226 290.079263 
L 192.310736 291.462497 
L 182.839002 292.694533 
L 173.033135 293.776548 
L 160.824571 294.876474 
L 152.434631 295.488 
L 152.434631 295.488 
" style="fill:none;stroke:#ffffff;stroke-linecap:square;"/>
   </g>
   <g id="line2d_15">
    <path clip-path="url(#p6dfd8cc9c5)" d="M 237.820545 60.607431 
L 245.997337 70.418215 
L 253.676077 80.007245 
L 260.859429 89.372033 
L 267.547363 98.516442 
L 272.744258 105.969615 
L 277.594754 113.260998 
L 282.100218 120.395371 
L 286.262117 127.370692 
L 290.081629 134.190852 
L 293.55816 140.849566 
L 296.690303 147.339359 
L 299.481958 153.672239 
L 301.933967 159.839365 
L 304.046368 165.840536 
L 305.820526 171.671355 
L 306.998005 176.211098 
L 308.171831 181.737827 
L 308.871874 186.035248 
L 309.363206 190.224176 
L 309.647705 194.303652 
L 309.725953 198.275776 
L 309.601745 202.133099 
L 309.274973 205.893441 
L 308.746187 209.558018 
L 308.0229 213.108842 
L 307.098463 216.56921 
L 305.975869 219.93797 
L 304.656151 223.215468 
L 303.134381 226.409271 
L 301.414296 229.515794 
L 299.48795 232.545758 
L 297.347662 235.505425 
L 295.001151 238.383097 
L 292.445612 241.182321 
L 289.673533 243.907543 
L 286.680139 246.560035 
L 283.469744 249.133621 
L 280.03666 251.630429 
L 276.375968 254.051678 
L 272.491845 256.392497 
L 268.381186 258.652413 
L 264.047471 260.827963 
L 258.311582 263.431345 
L 252.223097 265.901087 
L 245.782323 268.234564 
L 238.983554 270.43286 
L 231.832783 272.492284 
L 224.331399 274.411492 
L 216.475332 276.189771 
L 208.270332 277.825691 
L 199.719699 279.317531 
L 190.811831 280.667188 
L 181.559303 281.87105 
L 171.959728 282.930664 
L 159.978246 284.010512 
L 151.695636 284.614211 
L 151.695636 284.614211 
" style="fill:none;stroke:#ffffff;stroke-linecap:square;"/>
   </g>
   <g id="patch_3">
    <path d="M 57.6 307.584 
L 57.6 41.472 
" style="fill:none;stroke:#000000;stroke-linecap:square;stroke-linejoin:miter;stroke-width:0.8;"/>
   </g>
   <g id="patch_4">
    <path d="M 414.72 307.584 
L 414.72 41.472 
" style="fill:none;stroke:#000000;stroke-linecap:square;stroke-linejoin:miter;stroke-width:0.8;"/>
   </g>
   <g id="patch_5">
    <path d="M 57.6 307.584 
L 414.72 307.584 
" style="fill:none;stroke:#000000;stroke-linecap:square;stroke-linejoin:miter;stroke-width:0.8;"/>
   </g>
   <g id="patch_6">
    <path d="M 57.6 41.472 
L 414.72 41.472 
" style="fill:none;stroke:#000000;stroke-linecap:square;stroke-linejoin:miter;stroke-width:0.8;"/>
   </g>
  </g>
 </g>
 <defs>
  <clipPath id="p6dfd8cc9c5">
   <rect height="266.112" width="357.12" x="57.6" y="41.472"/>
  </clipPath>
 </defs>
</svg>
